G04 Layer_Color=32896*
%FSLAX44Y44*%
%MOMM*%
G71*
G01*
G75*
%ADD57C,0.2000*%
%ADD61C,0.3000*%
%ADD82C,0.1500*%
G36*
X1077150Y57950D02*
X1081050Y57300D01*
X1083000Y55350D01*
X1084950D01*
X1089500Y50800D01*
X1090150D01*
X1094700Y46250D01*
Y44300D01*
X1096650Y42350D01*
Y39750D01*
X1098600Y37800D01*
Y33250D01*
X1099250Y32600D01*
Y30000D01*
X1090150D01*
Y33250D01*
X1088850Y34550D01*
Y38450D01*
X1084950Y42350D01*
Y43000D01*
X1080400Y47550D01*
X1079100D01*
X1077150Y49500D01*
X1070500D01*
X1070000Y50000D01*
Y59000D01*
X1074800D01*
X1077150Y57950D01*
D02*
G37*
G36*
X30000Y50150D02*
X26750D01*
X25450Y48850D01*
X21550D01*
X17650Y44950D01*
X17000D01*
X12450Y40400D01*
Y39100D01*
X10500Y37150D01*
Y30500D01*
X10000Y30000D01*
X1000D01*
Y34800D01*
X2050Y37150D01*
X2700Y41050D01*
X4650Y43000D01*
Y44950D01*
X9200Y49500D01*
Y50150D01*
X13750Y54700D01*
X15700D01*
X17650Y56650D01*
X20250D01*
X22200Y58600D01*
X26750D01*
X27400Y59250D01*
X30000D01*
Y50150D01*
D02*
G37*
G36*
X59000Y25200D02*
X57950Y22850D01*
X57300Y18950D01*
X55350Y17000D01*
Y15050D01*
X50800Y10500D01*
Y9850D01*
X46250Y5300D01*
X44300D01*
X42350Y3350D01*
X39750D01*
X37800Y1400D01*
X33250D01*
X32600Y750D01*
X30000D01*
Y9850D01*
X33250D01*
X34550Y11150D01*
X38450D01*
X42350Y15050D01*
X43000D01*
X47550Y19600D01*
Y20900D01*
X49500Y22850D01*
Y29500D01*
X50000Y30000D01*
X59000D01*
Y25200D01*
D02*
G37*
G36*
X1049850Y26750D02*
X1051150Y25450D01*
Y21550D01*
X1055050Y17650D01*
Y17000D01*
X1059600Y12450D01*
X1060900D01*
X1062850Y10500D01*
X1069500D01*
X1070000Y10000D01*
Y1000D01*
X1065200D01*
X1062850Y2050D01*
X1058950Y2700D01*
X1057000Y4650D01*
X1055050D01*
X1050500Y9200D01*
X1049850D01*
X1045300Y13750D01*
Y15700D01*
X1043350Y17650D01*
Y20250D01*
X1041400Y22200D01*
Y26750D01*
X1040750Y27400D01*
Y30000D01*
X1049850D01*
Y26750D01*
D02*
G37*
G36*
X37150Y637950D02*
X41050Y637300D01*
X43000Y635350D01*
X44950D01*
X49500Y630800D01*
X50150D01*
X54700Y626250D01*
Y624300D01*
X56650Y622350D01*
Y619750D01*
X58600Y617800D01*
Y613250D01*
X59250Y612600D01*
Y610000D01*
X50150D01*
Y613250D01*
X48850Y614550D01*
Y618450D01*
X44950Y622350D01*
Y623000D01*
X40400Y627550D01*
X39100D01*
X37150Y629500D01*
X30500D01*
X30000Y630000D01*
Y639000D01*
X34800D01*
X37150Y637950D01*
D02*
G37*
G36*
X1070000Y630150D02*
X1066750D01*
X1065450Y628850D01*
X1061550D01*
X1057650Y624950D01*
X1057000D01*
X1052450Y620400D01*
Y619100D01*
X1050500Y617150D01*
Y610500D01*
X1050000Y610000D01*
X1041000D01*
Y614800D01*
X1042050Y617150D01*
X1042700Y621050D01*
X1044650Y623000D01*
Y624950D01*
X1049200Y629500D01*
Y630150D01*
X1053750Y634700D01*
X1055700D01*
X1057650Y636650D01*
X1060250D01*
X1062200Y638600D01*
X1066750D01*
X1067400Y639250D01*
X1070000D01*
Y630150D01*
D02*
G37*
G36*
X1099000Y605200D02*
X1097950Y602850D01*
X1097300Y598950D01*
X1095350Y597000D01*
Y595050D01*
X1090800Y590500D01*
Y589850D01*
X1086250Y585300D01*
X1084300D01*
X1082350Y583350D01*
X1079750D01*
X1077800Y581400D01*
X1073250D01*
X1072600Y580750D01*
X1070000D01*
Y589850D01*
X1073250D01*
X1074550Y591150D01*
X1078450D01*
X1082350Y595050D01*
X1083000D01*
X1087550Y599600D01*
Y600900D01*
X1089500Y602850D01*
Y609500D01*
X1090000Y610000D01*
X1099000D01*
Y605200D01*
D02*
G37*
G36*
X9850Y606750D02*
X11150Y605450D01*
Y601550D01*
X15050Y597650D01*
Y597000D01*
X19600Y592450D01*
X20900D01*
X22850Y590500D01*
X29500D01*
X30000Y590000D01*
Y581000D01*
X25200D01*
X22850Y582050D01*
X18950Y582700D01*
X17000Y584650D01*
X15050D01*
X10500Y589200D01*
X9850D01*
X5300Y593750D01*
Y595700D01*
X3350Y597650D01*
Y600250D01*
X1400Y602200D01*
Y606750D01*
X750Y607400D01*
Y610000D01*
X9850D01*
Y606750D01*
D02*
G37*
D57*
X1010000Y10000D02*
Y29994D01*
X1000003D01*
X996671Y26661D01*
Y19997D01*
X1000003Y16665D01*
X1010000D01*
X990006Y10000D02*
X983342D01*
X986674D01*
Y23329D01*
X990006D01*
X960016D02*
X970013D01*
X973345Y19997D01*
Y13332D01*
X970013Y10000D01*
X960016D01*
X950019D02*
X943355D01*
X940023Y13332D01*
Y19997D01*
X943355Y23329D01*
X950019D01*
X953352Y19997D01*
Y13332D01*
X950019Y10000D01*
X933358D02*
Y29994D01*
X923361D01*
X920029Y26661D01*
Y19997D01*
X923361Y16665D01*
X933358D01*
X913364Y23329D02*
Y10000D01*
Y16665D01*
X910032Y19997D01*
X906700Y23329D01*
X903368D01*
X893371Y10000D02*
X886706D01*
X890039D01*
Y23329D01*
X893371D01*
X876710Y10000D02*
Y23329D01*
X866713D01*
X863381Y19997D01*
Y10000D01*
X853384Y26661D02*
Y23329D01*
X856716D01*
X850052D01*
X853384D01*
Y13332D01*
X850052Y10000D01*
X830000Y16665D02*
X826668Y10000D01*
X823335Y16665D01*
X820003Y18331D02*
X818337Y19997D01*
X815005D01*
X813339Y18331D01*
Y11666D01*
X815005Y10000D01*
X818337D01*
X820003Y11666D01*
Y18331D01*
X810006Y10000D02*
Y11666D01*
X808340D01*
Y10000D01*
X810006D01*
X801676Y18331D02*
X800010Y19997D01*
X796677D01*
X795011Y18331D01*
Y16665D01*
X796677Y14998D01*
X798344D01*
X796677D01*
X795011Y13332D01*
Y11666D01*
X796677Y10000D01*
X800010D01*
X801676Y11666D01*
X791679Y19997D02*
Y10000D01*
X786681D01*
X785014Y11666D01*
Y13332D01*
Y14998D01*
X786681Y16665D01*
X791679D01*
D61*
X1090000Y30000D02*
G03*
X1090000Y30000I-20000J0D01*
G01*
X50000Y30000D02*
G03*
X50000Y30000I-20000J0D01*
G01*
X1090000Y610000D02*
G03*
X1090000Y610000I-20000J0D01*
G01*
X50000D02*
G03*
X50000Y610000I-20000J0D01*
G01*
D82*
X1099000Y30000D02*
G03*
X1099000Y30000I-29000J0D01*
G01*
X59000Y30000D02*
G03*
X59000Y30000I-29000J0D01*
G01*
X1099000Y610000D02*
G03*
X1099000Y610000I-29000J0D01*
G01*
X59000D02*
G03*
X59000Y610000I-29000J0D01*
G01*
X1018263Y590827D02*
X1022261D01*
Y587828D01*
X1020262Y588828D01*
X1019262D01*
X1018263Y587828D01*
Y585829D01*
X1019262Y584829D01*
X1021262D01*
X1022261Y585829D01*
X1016263Y590827D02*
Y586829D01*
X1014264Y584829D01*
X1012265Y586829D01*
Y590827D01*
X1022261Y606828D02*
X1021262Y607827D01*
X1019262D01*
X1018263Y606828D01*
Y605828D01*
X1019262Y604828D01*
X1020262D01*
X1019262D01*
X1018263Y603829D01*
Y602829D01*
X1019262Y601829D01*
X1021262D01*
X1022261Y602829D01*
X1016263Y607827D02*
Y603829D01*
X1014264Y601829D01*
X1012265Y603829D01*
Y607827D01*
X1018263Y599646D02*
X1022261D01*
Y593647D01*
X1018263D01*
X1022261Y596646D02*
X1020262D01*
X1012265Y598646D02*
X1013264Y599646D01*
X1015264D01*
X1016263Y598646D01*
Y597646D01*
X1015264Y596646D01*
X1013264D01*
X1012265Y595647D01*
Y594647D01*
X1013264Y593647D01*
X1015264D01*
X1016263Y594647D01*
X324000Y93816D02*
X322000D01*
X323000D01*
Y87818D01*
X324000D01*
X322000D01*
X315003D02*
X319001D01*
X315003Y91816D01*
Y92816D01*
X316002Y93816D01*
X318002D01*
X319001Y92816D01*
X309005D02*
X310004Y93816D01*
X312004D01*
X313003Y92816D01*
Y88817D01*
X312004Y87818D01*
X310004D01*
X309005Y88817D01*
X324000Y100998D02*
X323000Y101998D01*
X321001D01*
X320001Y100998D01*
Y99998D01*
X321001Y98999D01*
X322000D01*
X321001D01*
X320001Y97999D01*
Y96999D01*
X321001Y96000D01*
X323000D01*
X324000Y96999D01*
X318002Y101998D02*
Y97999D01*
X316002Y96000D01*
X314003Y97999D01*
Y101998D01*
X320001Y84998D02*
X324000D01*
Y81999D01*
X322000Y82998D01*
X321001D01*
X320001Y81999D01*
Y79999D01*
X321001Y79000D01*
X323000D01*
X324000Y79999D01*
X318002Y84998D02*
Y80999D01*
X316002Y79000D01*
X314003Y80999D01*
Y84998D01*
M02*
