G04*
G04 #@! TF.GenerationSoftware,Altium Limited,Altium Designer,18.1.4 (159)*
G04*
G04 Layer_Color=16711935*
%FSLAX44Y44*%
%MOMM*%
G71*
G01*
G75*
%ADD114R,1.7032X1.7032*%
%ADD140C,0.8032*%
%ADD141C,1.7032*%
%ADD142O,2.2032X2.8032*%
%ADD143C,1.2032*%
%ADD144R,1.2032X1.2032*%
%ADD145R,1.7032X1.7032*%
%ADD146O,3.2032X4.2032*%
%ADD147C,3.8032*%
G04:AMPARAMS|DCode=148|XSize=1.7032mm|YSize=2.1032mm|CornerRadius=0.4766mm|HoleSize=0mm|Usage=FLASHONLY|Rotation=270.000|XOffset=0mm|YOffset=0mm|HoleType=Round|Shape=RoundedRectangle|*
%AMROUNDEDRECTD148*
21,1,1.7032,1.1500,0,0,270.0*
21,1,0.7500,2.1032,0,0,270.0*
1,1,0.9532,-0.5750,-0.3750*
1,1,0.9532,-0.5750,0.3750*
1,1,0.9532,0.5750,0.3750*
1,1,0.9532,0.5750,-0.3750*
%
%ADD148ROUNDEDRECTD148*%
%ADD149C,1.6532*%
%ADD165R,5.2000X5.2000*%
%ADD166R,1.2032X0.7032*%
D114*
X293300Y572500D02*
D03*
X242500Y623500D02*
D03*
X734060Y241300D02*
D03*
X353060Y90170D02*
D03*
X236220Y91440D02*
D03*
X1057600Y75000D02*
D03*
X716731Y115570D02*
D03*
X210000Y623500D02*
D03*
X646730Y115570D02*
D03*
X576730D02*
D03*
X492760Y241300D02*
D03*
X506730Y115570D02*
D03*
X299819Y24020D02*
D03*
X107020Y24000D02*
D03*
X402000Y623500D02*
D03*
X434500Y623500D02*
D03*
X485300Y572500D02*
D03*
X594000Y623500D02*
D03*
X626500Y623500D02*
D03*
X677300Y572500D02*
D03*
X786000Y623500D02*
D03*
X818500Y623500D02*
D03*
X869300Y572500D02*
D03*
X978000Y623500D02*
D03*
D140*
X923500Y489750D02*
D03*
Y500750D02*
D03*
Y511750D02*
D03*
X934500D02*
D03*
Y500750D02*
D03*
Y489750D02*
D03*
X945500D02*
D03*
Y500750D02*
D03*
Y511750D02*
D03*
X956500D02*
D03*
Y500750D02*
D03*
Y489750D02*
D03*
X764500D02*
D03*
Y500750D02*
D03*
Y511750D02*
D03*
X753500D02*
D03*
Y500750D02*
D03*
Y489750D02*
D03*
X742500D02*
D03*
Y500750D02*
D03*
Y511750D02*
D03*
X731500D02*
D03*
Y500750D02*
D03*
Y489750D02*
D03*
X539500D02*
D03*
Y500750D02*
D03*
Y511750D02*
D03*
X550500D02*
D03*
Y500750D02*
D03*
Y489750D02*
D03*
X561500D02*
D03*
Y500750D02*
D03*
Y511750D02*
D03*
X572500D02*
D03*
Y500750D02*
D03*
Y489750D02*
D03*
X380500D02*
D03*
Y500750D02*
D03*
Y511750D02*
D03*
X369500D02*
D03*
Y500750D02*
D03*
Y489750D02*
D03*
X358500D02*
D03*
Y500750D02*
D03*
Y511750D02*
D03*
X347500D02*
D03*
Y500750D02*
D03*
Y489750D02*
D03*
X155500D02*
D03*
Y500750D02*
D03*
Y511750D02*
D03*
X166500D02*
D03*
Y500750D02*
D03*
Y489750D02*
D03*
X177500D02*
D03*
Y500750D02*
D03*
Y511750D02*
D03*
X188500D02*
D03*
Y500750D02*
D03*
Y489750D02*
D03*
D141*
X242500Y572500D02*
D03*
X267900D02*
D03*
X293300Y623500D02*
D03*
X267900D02*
D03*
X708660Y241300D02*
D03*
X429260Y90170D02*
D03*
X403860D02*
D03*
X378460D02*
D03*
X185420Y91440D02*
D03*
X210820D02*
D03*
X1057600Y100400D02*
D03*
X1083000Y75000D02*
D03*
Y100400D02*
D03*
X691331Y115570D02*
D03*
X133800Y623500D02*
D03*
X159200D02*
D03*
X184600D02*
D03*
X133800Y598100D02*
D03*
X159200D02*
D03*
X184600D02*
D03*
X210000D02*
D03*
X621330Y115570D02*
D03*
X42700Y408900D02*
D03*
X17300D02*
D03*
X42700Y434300D02*
D03*
X17300D02*
D03*
X42700Y459700D02*
D03*
X17300D02*
D03*
X42700Y485100D02*
D03*
X17300D02*
D03*
X42700Y510500D02*
D03*
X17300D02*
D03*
X42700Y535900D02*
D03*
X17300D02*
D03*
X42700Y561300D02*
D03*
X551330Y115570D02*
D03*
X670560Y241300D02*
D03*
X645160D02*
D03*
X594360D02*
D03*
X568960D02*
D03*
X543560D02*
D03*
X518160D02*
D03*
X619760D02*
D03*
X1083000Y180400D02*
D03*
X1057600D02*
D03*
Y205800D02*
D03*
X1083000D02*
D03*
Y231200D02*
D03*
X1057600D02*
D03*
X1083000Y409000D02*
D03*
X1057600Y383600D02*
D03*
X1083000D02*
D03*
X1057600Y358200D02*
D03*
X1083000D02*
D03*
X1057600Y332800D02*
D03*
X1083000D02*
D03*
X1057600Y307400D02*
D03*
X1083000D02*
D03*
X1057600Y282000D02*
D03*
X1083000D02*
D03*
X1057600Y256600D02*
D03*
X1083000D02*
D03*
X481330Y115570D02*
D03*
X401419Y49420D02*
D03*
Y24020D02*
D03*
X376019Y49420D02*
D03*
Y24020D02*
D03*
X350619Y49420D02*
D03*
Y24020D02*
D03*
X325219Y49420D02*
D03*
Y24020D02*
D03*
X299819Y49420D02*
D03*
X1083000Y484000D02*
D03*
Y509400D02*
D03*
Y534800D02*
D03*
X784860Y292100D02*
D03*
X810260D02*
D03*
X784860Y266700D02*
D03*
X810260D02*
D03*
X784860Y241300D02*
D03*
X208620Y49400D02*
D03*
Y24000D02*
D03*
X183220Y49400D02*
D03*
Y24000D02*
D03*
X157820Y49400D02*
D03*
Y24000D02*
D03*
X132420Y49400D02*
D03*
Y24000D02*
D03*
X107020Y49400D02*
D03*
X325800Y623500D02*
D03*
X351200D02*
D03*
X376600D02*
D03*
X325800Y598100D02*
D03*
X351200D02*
D03*
X376600D02*
D03*
X402000D02*
D03*
X485300Y623500D02*
D03*
X459900D02*
D03*
X434500Y572500D02*
D03*
X459900D02*
D03*
X517800Y623500D02*
D03*
X543200D02*
D03*
X568600D02*
D03*
X517800Y598100D02*
D03*
X543200D02*
D03*
X568600D02*
D03*
X594000D02*
D03*
X677300Y623500D02*
D03*
X651900D02*
D03*
X626500Y572500D02*
D03*
X651900D02*
D03*
X709800Y623500D02*
D03*
X735200D02*
D03*
X760600D02*
D03*
X709800Y598100D02*
D03*
X735200D02*
D03*
X760600D02*
D03*
X786000D02*
D03*
X869300Y623500D02*
D03*
X843900D02*
D03*
X818500Y572500D02*
D03*
X843900D02*
D03*
X901800Y623500D02*
D03*
X927200D02*
D03*
X952600D02*
D03*
X901800Y598100D02*
D03*
X927200D02*
D03*
X952600D02*
D03*
X978000D02*
D03*
D142*
X717010Y62003D02*
D03*
X682009D02*
D03*
X647009D02*
D03*
X612009D02*
D03*
X577009D02*
D03*
X542009D02*
D03*
X507009D02*
D03*
X472009D02*
D03*
D143*
X201200Y436496D02*
D03*
X188500D02*
D03*
X393200D02*
D03*
X380500D02*
D03*
X585200D02*
D03*
X572500D02*
D03*
X777200D02*
D03*
X764500D02*
D03*
X969200D02*
D03*
X956500D02*
D03*
D144*
X175800D02*
D03*
X367800D02*
D03*
X559800D02*
D03*
X751800D02*
D03*
X943800D02*
D03*
D145*
X17300Y561300D02*
D03*
X1057600Y409000D02*
D03*
X1083000Y560200D02*
D03*
X810260Y241300D02*
D03*
D146*
X1014000Y65000D02*
D03*
X964000D02*
D03*
X914000D02*
D03*
X864000D02*
D03*
X814000D02*
D03*
X764000D02*
D03*
D147*
X1070000Y30000D02*
D03*
X30000D02*
D03*
X1070000Y610000D02*
D03*
X30000D02*
D03*
D148*
X18000Y86000D02*
D03*
Y156000D02*
D03*
D149*
X45000Y96000D02*
D03*
Y146000D02*
D03*
D165*
X172000Y500750D02*
D03*
X364000D02*
D03*
X556000D02*
D03*
X748000D02*
D03*
X940000D02*
D03*
D166*
X1003000Y589000D02*
D03*
Y603000D02*
D03*
Y596000D02*
D03*
X332740Y83170D02*
D03*
Y97170D02*
D03*
Y90170D02*
D03*
M02*
