M48
;Layer_Color=9474304
;FILE_FORMAT=4:4
METRIC
;TYPE=PLATED
T1F00S00C0.3000
T2F00S00C0.3500
T3F00S00C0.4000
T4F00S00C0.6000
T6F00S00C0.8500
T7F00S00C0.9000
T8F00S00C1.0000
T9F00S00C1.2000
T10F00S00C3.2000
%
T01
X00955000Y00131000
X01036000Y00164000
X00451000Y00182000
X00415290Y00173990
X00407999Y00169000
X00400685Y00165000
X00401000Y00148000
X00404000Y00179000
X00369000Y00184000
Y00165000
X00353000Y00172000
X00337000Y00178000
X00302000Y00165750
X00300900Y00130000
X00298385Y00122000
X00322000Y00126750
X00333999Y00111000
X00334010Y00102870
X00365760Y00119380
X00375900Y00119400
X00417407Y00111760
X00444000Y00126000
X00273000Y00113000
X00251000Y00169000
Y00177000
X00209550Y00168750
Y00158750
X00160000Y00158000
X00107950Y00177800
X00093190Y00093980
X00259000Y00041750
X00063500Y00107950
X00073660Y00122530
X00081000Y00279000
X00072000Y00312750
X00078000Y00339000
X00029210Y00359410
X00019050
X00033020Y00303276
X00037000Y00291750
X00026000Y00267750
X00067000Y00471750
X00149250Y00465250
X00155500Y00489750
Y00500750
Y00511750
X00166500
Y00500750
Y00489750
X00177500
X00188500
Y00500750
X00177500
Y00511750
X00188500
X00188000Y00547500
X00179750
X00171000
X00172000Y00574250
X00126000Y00581000
X00123626Y00541750
X00121929Y00533750
X00229000Y00542750
X00244980Y00544000
Y00534000
X00268540Y00519210
X00313929Y00533750
X00315626Y00541750
X00318000Y00581000
X00364000Y00574250
X00363000Y00547500
X00371750
X00380000
X00380500Y00511750
Y00500750
X00369500
Y00511750
X00358500
Y00500750
Y00489750
X00369500
X00380500
X00347500
Y00500750
Y00511750
X00341250Y00465250
X00341000Y00432996
X00351000
X00315000Y00378000
X00273000Y00386000
X00251000
X00247650Y00322580
X00257650
X00261000Y00279750
X00268000Y00266751
X00270000Y00253750
X00281000Y00257750
X00283999Y00271000
X00292999Y00269000
X00290999Y00280999
X00317000Y00250750
X00301000Y00222000
X00299000Y00194000
X00318000
X00327000
Y00204000
X00368000Y00214000
Y00228000
X00371000Y00236000
X00364000Y00242000
X00361999Y00251000
X00359999Y00260000
X00371999Y00257999
Y00266000
X00372000Y00249000
X00419000Y00278000
X00428205Y00276000
X00469000Y00280000
X00447000Y00240000
X00449000Y00232000
X00436170Y00219000
X00465000Y00217000
X00421640Y00193040
X00259000Y00207000
X00216000Y00211000
X00209000Y00223750
X00201000Y00226000
X00197000Y00210000
X00185000Y00208000
X00219400Y00191600
X00209000Y00245000
X00202686Y00251000
X00209000Y00259000
X00188000Y00277000
X00222000Y00285000
X00235000Y00299000
X00248000Y00261751
X00138430Y00257810
X00101000Y00263000
X00101520Y00339480
X00176000Y00350000
X00170000Y00375000
X00164000Y00382000
X00178000Y00387000
X00159000Y00432996
X00149000
X00218040Y00581140
X00410040
X00421000Y00542750
X00436980Y00544000
Y00534000
X00460540Y00519210
X00441000Y00354750
X00470000Y00341000
X00353000Y00341750
X00345000Y00339750
X00337000Y00333000
X00326000Y00334000
X00331000Y00322000
X00305000Y00323750
X00358140Y00323580
X00368000Y00324000
X00487000Y00280750
X00537000Y00280750
X00527000Y00258000
X00517000
X00567000Y00258000
X00577000
X00587000Y00280750
X00637000
X00627000Y00258000
X00617000
X00667000
X00677000
X00603350Y00341000
X00623000Y00365000
X00543000Y00432996
X00533000
X00533250Y00465250
X00539500Y00489750
Y00500750
Y00511750
X00550500
Y00500750
Y00489750
X00561500
X00572500
Y00500750
X00561500
Y00511750
X00572500
X00572000Y00547500
X00563750
X00555000
X00556000Y00574250
X00510000Y00581000
X00507626Y00541750
X00505929Y00533750
X00613000Y00542750
X00628980Y00544000
Y00534000
X00652540Y00519210
X00697929Y00533750
X00699626Y00541750
X00702000Y00581000
X00748000Y00574250
X00747000Y00547500
X00755750
X00764000
X00764500Y00511750
Y00500750
X00753500
Y00511750
X00742500
Y00500750
Y00489750
X00753500
X00764500
X00731500
Y00500750
Y00511750
X00725250Y00465250
X00725000Y00432996
X00735000
X00819000Y00388000
X00820980Y00534000
Y00544000
X00805000Y00542750
X00794040Y00581140
X00844540Y00519210
X00835740Y00251740
X00602040Y00581140
X00894000Y00581000
X00891626Y00541750
X00889929Y00533750
X00923500Y00511750
Y00500750
Y00489750
X00934500
Y00500750
Y00511750
X00945500
Y00500750
X00956500
Y00511750
Y00489750
X00945500
X00947750Y00547500
X00956000
X00939000
X00940000Y00574250
X00986040Y00581140
X01013000Y00581000
X01041000Y00561000
Y00551000
X01021000Y00536750
X01041000Y00513000
Y00503000
X01033000Y00464750
X01041000Y00362000
Y00350000
X01008530Y00308540
X01005000Y00285000
X00970430Y00284410
X00976780Y00276790
X00951000Y00211000
X00931000
X00899000Y00201000
X01000000Y00199000
X00897000Y00310000
X00904295Y00369705
X00917000Y00432996
X00927000
X00907000Y00443750
X00992000Y00609000
X01003000Y00620000
X00108000Y00591000
T02
X00092500Y00489750
X00099500
X00106500
X00115750
X00123000Y00490250
X00128250Y00495500
Y00511000
X00123000Y00516250
X00115750Y00516750
X00124430Y00565000
X00131430
X00138430
X00151417
X00158417
X00165417
X00178763
X00185763
X00192763
X00205750Y00565000
X00212750
X00219750
X00196250Y00539500
X00154000Y00537750
X00215750Y00511000
X00221000Y00516250
X00228250Y00516750
Y00489750
X00221000Y00490250
X00215750Y00495500
X00237500Y00489750
X00244500
X00251500
X00255600Y00476286
X00280205
X00284500Y00489750
X00291500
X00298500
X00307750
X00315000Y00490250
X00320250Y00495500
Y00511000
X00315000Y00516250
X00307750Y00516750
X00316430Y00565000
X00323430
X00330430
X00343417
X00350417
X00357417
X00370763
X00377763
X00384763
X00397750Y00565000
X00404750
X00411750
X00388250Y00539500
X00346000Y00537750
X00407750Y00511000
X00413000Y00516250
X00420250Y00516750
Y00489750
X00413000Y00490250
X00407750Y00495500
X00429500Y00489750
X00436500
X00443500
X00447600Y00476286
X00472205
X00476500Y00489750
X00375500Y00417250
X00365000Y00417250
X00183500Y00417250
X00173000Y00417250
X00483500Y00489750
X00490500
X00499750
X00507000Y00490250
X00512250Y00495500
Y00511000
X00507000Y00516250
X00499750Y00516750
X00508430Y00565000
X00515430
X00522430
X00535417
X00542417
X00549417
X00562763
X00569763
X00576763
X00589750Y00565000
X00596750
X00603750
X00580250Y00539500
X00538000Y00537750
X00599750Y00511000
X00605000Y00516250
X00612250Y00516750
Y00489750
X00605000Y00490250
X00599750Y00495500
X00621500Y00489750
X00628500
X00635500
X00639600Y00476286
X00664205
X00668500Y00489750
X00675500
X00682500
X00691750
X00699000Y00490250
X00704250Y00495500
Y00511000
X00699000Y00516250
X00691750Y00516750
X00700430Y00565000
X00707430
X00714430
X00727417
X00734417
X00741417
X00754763
X00761763
X00768763
X00781750Y00565000
X00788750
X00795750
X00772250Y00539500
X00730000Y00537750
X00791750Y00511000
X00797000Y00516250
X00804250Y00516750
Y00489750
X00797000Y00490250
X00791750Y00495500
X00813500Y00489750
X00820500
X00827500
X00831600Y00476286
X00856205
X00860500Y00489750
X00867500
X00874500
X00759500Y00417250
X00749000Y00417250
X00567500Y00417250
X00557000Y00417250
X00941000
X00951500Y00417250
X00983750Y00495500
X00989000Y00490250
X00996250Y00489750
X01005500
X01012500
X01019500
X00996250Y00516750
X00989000Y00516250
X00983750Y00511000
X00964250Y00539500
X00960763Y00565000
X00953763
X00946763
X00933417
X00926417
X00919417
X00906430
X00899430
X00892430
X00891000Y00516250
X00883750Y00516750
X00896250Y00511000
Y00495500
X00891000Y00490250
X00883750Y00489750
X00922000Y00537750
X00973750Y00565000
X00980750
X00987750
X00940410Y00312230
Y00303070
T03
X00900000Y00140840
Y00151000
Y00161160
X00935000Y00155160
Y00145000
Y00134840
X00977840Y00132000
X00988000
X00998160
X01020000Y00140000
Y00150000
Y00160000
Y00170000
Y00180000
X00848510Y00161220
Y00151060
Y00140900
Y00130740
X00832000Y00132010
Y00121850
Y00142170
Y00152330
X00782470Y00128200
X00772310
X00762150
X00760680Y00181000
X00770840
X00781000
X00750520
X00725470Y00159950
X00697530
X00655470
X00627530
X00585470
X00557530
X00515620Y00159950
X00487680
X00486410Y00196780
X00496570
X00506730
X00516890
X00556260Y00196780
X00566420
X00576580
X00586740
X00626260
X00636420
X00646580
X00656740
X00696260
X00706420
X00716580
X00726740
X00714000Y00311000
X00704000
X00827000Y00312160
X00841000Y00312000
X00838000Y00374840
X00824000Y00375000
X00874000Y00374840
X00887000Y00369840
Y00380000
X00949000Y00386000
X00959160
X00969320
X01026000Y00385320
Y00375160
X00990570Y00310200
X00982568
X00982569Y00302199
X00990571
X00907000Y00300000
X00893000Y00300160
X00897680Y00280000
X00907840
X00918000
T04
X00175800Y00436496
X00188500
X00201200
X00367800
X00380500
X00393200
X00559800
X00572500
X00585200
X00751800
X00764500
X00777200
X00943800
X00956500
X00969200
T06
X00045000Y00096000
Y00146000
T07
X01057600Y00075000
Y00100400
X01083000
Y00075000
Y00180400
X01057600
X00716731Y00115570
X00691331
X00646730
X00621330
X00576730
X00551330
X00506730
X00481330
X00429260Y00090170
X00403860
X00378460
X00353060
X00350619Y00049420
X00376019
X00401419
Y00024020
X00376019
X00350619
X00325219
Y00049420
X00299819
Y00024020
X00208620Y00024000
Y00049400
X00183220
Y00024000
X00157820
Y00049400
X00132420
Y00024000
X00107020
Y00049400
X00185420Y00091440
X00210820
X00236220
X00042700Y00408900
X00017300
Y00434300
X00042700
Y00459700
X00017300
Y00485100
X00042700
Y00510500
X00017300
Y00535900
X00042700
Y00561300
X00017300
X00242500Y00572500
X00267900
X00293300
X00434500
X00459900
X00485300
X00626500
X00651900
X00677300
X00818500
X00843900
X00869300
X00810260Y00292100
X00784860
Y00266700
X00810260
Y00241300
X00784860
X00734060
X00708660
X00670560
X00645160
X00619760
X00594360
X00568960
X00543560
X00518160
X00492760
X01057600Y00231200
Y00205800
X01083000
Y00231200
Y00256600
Y00282000
Y00307400
Y00332800
Y00358200
Y00383600
Y00409000
X01057600
Y00383600
Y00358200
Y00332800
Y00307400
Y00282000
Y00256600
X01083000Y00484000
Y00509400
Y00534800
Y00560200
X00978000Y00598100
Y00623500
X00952600
X00927200
X00901800
Y00598100
X00927200
X00952600
X00869300Y00623500
X00843900
X00818500
X00786000Y00623500
X00760600
X00735200
X00709800
Y00598100
X00735200
X00760600
X00786000
X00677300Y00623500
X00651900
X00626500
X00594000Y00623500
X00568600
X00543200
X00517800
Y00598100
X00543200
X00568600
X00594000
X00485300Y00623500
X00459900
X00434500
X00402000Y00623500
X00376600
X00351200
X00325800
Y00598100
X00351200
X00376600
X00402000
X00293300Y00623500
X00267900
X00242500
X00210000Y00623500
X00184600
X00159200
X00133800
Y00598100
X00159200
X00184600
X00210000
T08
X00507009Y00062003
X00542009
X00577009
X00612009
X00647009
X00682009
X00717010
X00472009
T09
X00914000Y00065000
X00964000
X01014000
X00864000
X00814000
X00764000
T10
X01070000Y00030000
X00030000
X01070000Y00610000
X00030000
M30
