G04*
G04 #@! TF.GenerationSoftware,Altium Limited,Altium Designer,18.1.4 (159)*
G04*
G04 Layer_Color=65535*
%FSLAX44Y44*%
%MOMM*%
G71*
G01*
G75*
%ADD10C,0.2500*%
%ADD11C,0.0762*%
%ADD12C,0.2540*%
%ADD13C,0.2000*%
%ADD14C,0.1270*%
%ADD15C,0.6000*%
%ADD16C,0.3000*%
%ADD17C,0.1500*%
%ADD18C,0.1000*%
%ADD19C,0.1016*%
%ADD20C,0.0760*%
%ADD21C,0.3500*%
%ADD22C,0.5000*%
%ADD23C,0.4000*%
%ADD24R,5.0800X7.5400*%
%ADD25R,5.0800X2.5400*%
%ADD26R,0.8110X2.6800*%
%ADD27R,1.1559X2.7003*%
%ADD28R,2.1590X0.2088*%
%ADD29R,2.1590X0.5270*%
%ADD30R,0.2540X0.3532*%
%ADD31R,0.2540X0.3810*%
%ADD32R,0.3810X0.3810*%
%ADD33R,0.5080X0.3810*%
%ADD34R,0.1270X0.3862*%
%ADD35R,0.3169X0.1119*%
%ADD36R,0.1778X0.1270*%
%ADD37R,0.2540X0.2880*%
%ADD38R,1.0570X2.7003*%
%ADD39R,2.1590X0.9970*%
%ADD40R,1.5494X3.2700*%
%ADD41R,1.5240X3.1900*%
%ADD42R,1.6781X3.2700*%
%ADD43R,0.3000X0.6000*%
%ADD44R,1.4224X0.9770*%
%ADD45R,1.4224X0.9770*%
%ADD46R,0.6000X1.7000*%
G36*
X33250Y58600D02*
X37800D01*
X39750Y56650D01*
X42350D01*
X44300Y54700D01*
X46250D01*
X50800Y50150D01*
Y49500D01*
X55350Y44950D01*
Y43000D01*
X57300Y41050D01*
X57950Y37150D01*
X59000Y34800D01*
Y30000D01*
X50000D01*
X49500Y30500D01*
Y37150D01*
X47550Y39100D01*
Y40400D01*
X43000Y44950D01*
X42350D01*
X38450Y48850D01*
X34550D01*
X33250Y50150D01*
X30000D01*
Y59250D01*
X32600D01*
X33250Y58600D01*
D02*
G37*
G36*
X10500Y29500D02*
Y22850D01*
X12450Y20900D01*
Y19600D01*
X17000Y15050D01*
X17650D01*
X21550Y11150D01*
X25450D01*
X26750Y9850D01*
X30000D01*
Y750D01*
X27400D01*
X26750Y1400D01*
X22200D01*
X20250Y3350D01*
X17650D01*
X15700Y5300D01*
X13750D01*
X9200Y9850D01*
Y10500D01*
X4650Y15050D01*
Y17000D01*
X2700Y18950D01*
X2050Y22850D01*
X1000Y25200D01*
Y30000D01*
X10000D01*
X10500Y29500D01*
D02*
G37*
G36*
X30000Y630000D02*
X29500Y629500D01*
X22850D01*
X20900Y627550D01*
X19600D01*
X15050Y623000D01*
Y622350D01*
X11150Y618450D01*
Y614550D01*
X9850Y613250D01*
Y610000D01*
X750D01*
Y612600D01*
X1400Y613250D01*
Y617800D01*
X3350Y619750D01*
Y622350D01*
X5300Y624300D01*
Y626250D01*
X9850Y630800D01*
X10500D01*
X15050Y635350D01*
X17000D01*
X18950Y637300D01*
X22850Y637950D01*
X25200Y639000D01*
X30000D01*
Y630000D01*
D02*
G37*
G36*
X59250Y607400D02*
X58600Y606750D01*
Y602200D01*
X56650Y600250D01*
Y597650D01*
X54700Y595700D01*
Y593750D01*
X50150Y589200D01*
X49500D01*
X44950Y584650D01*
X43000D01*
X41050Y582700D01*
X37150Y582050D01*
X34800Y581000D01*
X30000D01*
Y590000D01*
X30500Y590500D01*
X37150D01*
X39100Y592450D01*
X40400D01*
X44950Y597000D01*
Y597650D01*
X48850Y601550D01*
Y605450D01*
X50150Y606750D01*
Y610000D01*
X59250D01*
Y607400D01*
D02*
G37*
G36*
X696170Y227920D02*
X706310D01*
X701010Y222520D01*
Y216320D01*
X703510Y213820D01*
Y213220D01*
X705910Y211120D01*
X699410D01*
X695980Y214550D01*
Y228110D01*
X696170Y227920D01*
D02*
G37*
G36*
X746780Y213750D02*
X743750Y210720D01*
X743350Y211120D01*
X736850D01*
X739250Y213220D01*
Y213820D01*
X741750Y216320D01*
Y222520D01*
X736450Y227920D01*
X746590D01*
X746780Y228110D01*
Y213750D01*
D02*
G37*
G36*
X721570Y227920D02*
X731710D01*
X726410Y222520D01*
Y216320D01*
X728910Y213820D01*
Y213220D01*
X731310Y211120D01*
X724810D01*
X724110Y210420D01*
X721380Y210720D01*
X718650Y210420D01*
X717950Y211120D01*
X711450D01*
X713850Y213220D01*
Y213820D01*
X716350Y216320D01*
Y222520D01*
X711050Y227920D01*
X721190D01*
X721380Y228110D01*
X721570Y227920D01*
D02*
G37*
G36*
X1073250Y638600D02*
X1077800D01*
X1079750Y636650D01*
X1082350D01*
X1084300Y634700D01*
X1086250D01*
X1090800Y630150D01*
Y629500D01*
X1095350Y624950D01*
Y623000D01*
X1097300Y621050D01*
X1097950Y617150D01*
X1099000Y614800D01*
Y610000D01*
X1090000D01*
X1089500Y610500D01*
Y617150D01*
X1087550Y619100D01*
Y620400D01*
X1083000Y624950D01*
X1082350D01*
X1078450Y628850D01*
X1074550D01*
X1073250Y630150D01*
X1070000D01*
Y639250D01*
X1072600D01*
X1073250Y638600D01*
D02*
G37*
G36*
X1050500Y609500D02*
Y602850D01*
X1052450Y600900D01*
Y599600D01*
X1057000Y595050D01*
X1057650D01*
X1061550Y591150D01*
X1065450D01*
X1066750Y589850D01*
X1070000D01*
Y580750D01*
X1067400D01*
X1066750Y581400D01*
X1062200D01*
X1060250Y583350D01*
X1057650D01*
X1055700Y585300D01*
X1053750D01*
X1049200Y589850D01*
Y590500D01*
X1044650Y595050D01*
Y597000D01*
X1042700Y598950D01*
X1042050Y602850D01*
X1041000Y605200D01*
Y610000D01*
X1050000D01*
X1050500Y609500D01*
D02*
G37*
G36*
X920340Y345860D02*
X914730Y351470D01*
X920340D01*
Y345860D01*
D02*
G37*
G36*
X822980Y319650D02*
Y305290D01*
X822790Y305480D01*
X812650D01*
X817950Y310880D01*
Y317080D01*
X815450Y319580D01*
Y320180D01*
X813050Y322280D01*
X819550D01*
X819950Y322680D01*
X822980Y319650D01*
D02*
G37*
G36*
X797580Y322680D02*
X800310Y322980D01*
X801010Y322280D01*
X807510D01*
X805110Y320180D01*
Y319580D01*
X802610Y317080D01*
Y310880D01*
X807910Y305480D01*
X797770D01*
X797580Y305290D01*
X797390Y305480D01*
X787250D01*
X792550Y310880D01*
Y317080D01*
X790050Y319580D01*
Y320180D01*
X787650Y322280D01*
X794150D01*
X794850Y322980D01*
X797580Y322680D01*
D02*
G37*
G36*
X779710Y320180D02*
Y319580D01*
X777210Y317080D01*
Y310880D01*
X782510Y305480D01*
X772370D01*
X772180Y305290D01*
Y318850D01*
X775610Y322280D01*
X782110D01*
X779710Y320180D01*
D02*
G37*
G36*
X1070000Y50000D02*
X1069500Y49500D01*
X1062850D01*
X1060900Y47550D01*
X1059600D01*
X1055050Y43000D01*
Y42350D01*
X1051150Y38450D01*
Y34550D01*
X1049850Y33250D01*
Y30000D01*
X1040750D01*
Y32600D01*
X1041400Y33250D01*
Y37800D01*
X1043350Y39750D01*
Y42350D01*
X1045300Y44300D01*
Y46250D01*
X1049850Y50800D01*
X1050500D01*
X1055050Y55350D01*
X1057000D01*
X1058950Y57300D01*
X1062850Y57950D01*
X1065200Y59000D01*
X1070000D01*
Y50000D01*
D02*
G37*
G36*
X1099250Y27400D02*
X1098600Y26750D01*
Y22200D01*
X1096650Y20250D01*
Y17650D01*
X1094700Y15700D01*
Y13750D01*
X1090150Y9200D01*
X1089500D01*
X1084950Y4650D01*
X1083000D01*
X1081050Y2700D01*
X1077150Y2050D01*
X1074800Y1000D01*
X1070000D01*
Y10000D01*
X1070500Y10500D01*
X1077150D01*
X1079100Y12450D01*
X1080400D01*
X1084950Y17000D01*
Y17650D01*
X1088850Y21550D01*
Y25450D01*
X1090150Y26750D01*
Y30000D01*
X1099250D01*
Y27400D01*
D02*
G37*
D10*
X971750Y534250D02*
G03*
X971750Y534250I-1250J0D01*
G01*
X779750D02*
G03*
X779750Y534250I-1250J0D01*
G01*
X587750D02*
G03*
X587750Y534250I-1250J0D01*
G01*
X395750D02*
G03*
X395750Y534250I-1250J0D01*
G01*
X203750D02*
G03*
X203750Y534250I-1250J0D01*
G01*
X75590Y143780D02*
G03*
X75590Y143780I-1250J0D01*
G01*
X387650Y154600D02*
G03*
X387650Y154600I-1250J0D01*
G01*
X964320Y321700D02*
G03*
X964320Y321700I-1250J0D01*
G01*
D11*
X258404Y481652D02*
G03*
X258404Y422660I9499J-29496D01*
G01*
X277401D02*
G03*
X277401Y481652I-9499J29496D01*
G01*
X875639Y143224D02*
G03*
X875639Y202216I-9499J29496D01*
G01*
X856641D02*
G03*
X856641Y143224I9499J-29496D01*
G01*
X902938Y244501D02*
G03*
X961930Y244501I29496J9499D01*
G01*
Y263499D02*
G03*
X902938Y263499I-29496J-9499D01*
G01*
X864913Y324184D02*
G03*
X864913Y371777I-7663J23797D01*
G01*
X849587D02*
G03*
X849587Y324184I7663J-23797D01*
G01*
X450404Y481652D02*
G03*
X450404Y422660I9499J-29496D01*
G01*
X469401D02*
G03*
X469401Y481652I-9499J29496D01*
G01*
X642404D02*
G03*
X642404Y422660I9499J-29496D01*
G01*
X661401D02*
G03*
X661401Y481652I-9499J29496D01*
G01*
X834404D02*
G03*
X834404Y422660I9499J-29496D01*
G01*
X853401D02*
G03*
X853401Y481652I-9499J29496D01*
G01*
X235644Y484668D02*
X258505D01*
X235644Y436662D02*
Y484668D01*
Y436662D02*
X252409Y419898D01*
X258505D01*
X277554D02*
X283650D01*
X300415Y436662D01*
Y484668D01*
X277554D02*
X300415D01*
X235644Y436662D02*
Y484668D01*
Y436662D02*
X252409Y419898D01*
X283650D02*
X300415Y436662D01*
Y484668D01*
X875538Y140208D02*
X898398D01*
Y188214D01*
X881634Y204978D02*
X898398Y188214D01*
X875538Y204978D02*
X881634D01*
X850392D02*
X856488D01*
X833628Y188214D02*
X850392Y204978D01*
X833628Y140208D02*
Y188214D01*
Y140208D02*
X856488D01*
X898398D02*
Y188214D01*
X881634Y204978D02*
X898398Y188214D01*
X833628D02*
X850392Y204978D01*
X833628Y140208D02*
Y188214D01*
X899922Y221742D02*
Y244602D01*
Y221742D02*
X947928D01*
X964692Y238506D01*
Y244602D01*
Y263652D02*
Y269748D01*
X947928Y286512D02*
X964692Y269748D01*
X899922Y286512D02*
X947928D01*
X899922Y263652D02*
Y286512D01*
Y221742D02*
X947928D01*
X964692Y238506D01*
X947928Y286512D02*
X964692Y269748D01*
X899922Y286512D02*
X947928D01*
X866648Y375150D02*
X884428D01*
Y332486D02*
Y375150D01*
X866648Y319270D02*
X876292D01*
X838208D02*
X841250D01*
X830072Y332486D02*
Y375150D01*
X847852D01*
X427645Y484668D02*
X450504D01*
X427645Y436662D02*
Y484668D01*
Y436662D02*
X444408Y419898D01*
X450504D01*
X469554D02*
X475650D01*
X492415Y436662D01*
Y484668D01*
X469554D02*
X492415D01*
X427645Y436662D02*
Y484668D01*
Y436662D02*
X444408Y419898D01*
X475650D02*
X492415Y436662D01*
Y484668D01*
X619645D02*
X642505D01*
X619645Y436662D02*
Y484668D01*
Y436662D02*
X636409Y419898D01*
X642505D01*
X661554D02*
X667651D01*
X684415Y436662D01*
Y484668D01*
X661554D02*
X684415D01*
X619645Y436662D02*
Y484668D01*
Y436662D02*
X636409Y419898D01*
X667651D02*
X684415Y436662D01*
Y484668D01*
X811645D02*
X834504D01*
X811645Y436662D02*
Y484668D01*
Y436662D02*
X828409Y419898D01*
X834504D01*
X853555D02*
X859650D01*
X876414Y436662D01*
Y484668D01*
X853555D02*
X876414D01*
X811645Y436662D02*
Y484668D01*
Y436662D02*
X828409Y419898D01*
X859650D02*
X876414Y436662D01*
Y484668D01*
D12*
X727505Y12248D02*
G03*
X727505Y12248I-10925J0D01*
G01*
X657505D02*
G03*
X657505Y12248I-10925J0D01*
G01*
X587505D02*
G03*
X587505Y12248I-10925J0D01*
G01*
X824184D02*
G03*
X824184Y12248I-10925J0D01*
G01*
X1024184D02*
G03*
X1024184Y12248I-10925J0D01*
G01*
X924185D02*
G03*
X924185Y12248I-10925J0D01*
G01*
X517505D02*
G03*
X517505Y12248I-10925J0D01*
G01*
X737009Y27003D02*
Y97004D01*
X662009Y27003D02*
X737009D01*
X662009D02*
Y97004D01*
X737009D01*
X667009Y27003D02*
Y97004D01*
X592009Y27003D02*
X667009D01*
X592009D02*
Y97004D01*
X667009D01*
X597009Y27003D02*
Y97004D01*
X522009Y27003D02*
X597009D01*
X522009D02*
Y97004D01*
X597009D01*
X527009Y27003D02*
Y97004D01*
X452009Y27003D02*
X527009D01*
X452009D02*
Y97004D01*
X527009D01*
X939000Y30000D02*
X1039000D01*
Y100000D01*
X939000D02*
X1039000D01*
X939000Y30000D02*
Y100000D01*
X839000Y30000D02*
X939000D01*
Y100000D01*
X839000D02*
X939000D01*
X839000Y30000D02*
Y100000D01*
X739000Y30000D02*
X839000D01*
Y100000D01*
X739000D02*
X839000D01*
X739000Y30000D02*
Y100000D01*
X710230Y12084D02*
X723559D01*
X716895Y18749D02*
Y5420D01*
X674430Y12084D02*
X687759D01*
X640230D02*
X653559D01*
X646895Y18749D02*
Y5420D01*
X604430Y12084D02*
X617759D01*
X570230D02*
X583559D01*
X576894Y18749D02*
Y5420D01*
X534430Y12084D02*
X547759D01*
X757109D02*
X770438D01*
X806909D02*
X820238D01*
X813574Y18749D02*
Y5420D01*
X957110Y12084D02*
X970439D01*
X1006909D02*
X1020238D01*
X1013574Y18749D02*
Y5420D01*
X805300Y314296D02*
X815297D01*
X810298Y319294D02*
Y309297D01*
X784852Y309280D02*
Y319277D01*
X708652Y224120D02*
Y214123D01*
X729100Y219104D02*
X739097D01*
X734098Y214106D02*
Y224103D01*
X906910Y12084D02*
X920239D01*
X913574Y18749D02*
Y5420D01*
X857110Y12084D02*
X870439D01*
X464429D02*
X477758D01*
X500230D02*
X513559D01*
X506894Y18749D02*
Y5420D01*
D13*
X818280Y314090D02*
G03*
X818280Y314090I-8000J0D01*
G01*
X792880D02*
G03*
X792880Y314090I-8000J0D01*
G01*
X716680Y219310D02*
G03*
X716680Y219310I-8000J0D01*
G01*
X742080D02*
G03*
X742080Y219310I-8000J0D01*
G01*
X967750Y527750D02*
X972000D01*
Y523500D02*
Y527750D01*
Y473750D02*
Y478000D01*
X967750Y473750D02*
X972000D01*
X908000D02*
X912250D01*
X908000D02*
Y478000D01*
Y527750D02*
X912250D01*
X908000Y523500D02*
Y527750D01*
X716000Y523500D02*
Y527750D01*
X720250D01*
X716000Y473750D02*
Y478000D01*
Y473750D02*
X720250D01*
X775750D02*
X780000D01*
Y478000D01*
Y523500D02*
Y527750D01*
X775750D02*
X780000D01*
X583750D02*
X588000D01*
Y523500D02*
Y527750D01*
Y473750D02*
Y478000D01*
X583750Y473750D02*
X588000D01*
X524000D02*
X528250D01*
X524000D02*
Y478000D01*
Y527750D02*
X528250D01*
X524000Y523500D02*
Y527750D01*
X332000Y523500D02*
Y527750D01*
X336250D01*
X332000Y473750D02*
Y478000D01*
Y473750D02*
X336250D01*
X391750D02*
X396000D01*
Y478000D01*
Y523500D02*
Y527750D01*
X391750D02*
X396000D01*
X199750D02*
X204000D01*
Y523500D02*
Y527750D01*
Y473750D02*
Y478000D01*
X199750Y473750D02*
X204000D01*
X140000D02*
X144250D01*
X140000D02*
Y478000D01*
Y527750D02*
X144250D01*
X140000Y523500D02*
Y527750D01*
X209000Y538750D02*
X229800Y559550D01*
Y559800D01*
X294000Y585200D02*
Y591750D01*
X306000Y559800D02*
Y585200D01*
X229800Y559800D02*
X306000D01*
X229800D02*
Y585200D01*
X306000D01*
X229800Y610800D02*
Y636200D01*
X306000D01*
Y610800D02*
Y636200D01*
X229800Y610800D02*
X306000D01*
X772180Y318210D02*
X776950Y322980D01*
X772180Y304800D02*
Y318210D01*
X822980Y304800D02*
Y318350D01*
X818350Y322980D02*
X822980Y318350D01*
X776950Y322980D02*
X818350D01*
X700750Y210420D02*
X742150D01*
X746780Y215050D01*
Y228600D01*
X695980Y215190D02*
Y228600D01*
Y215190D02*
X700750Y210420D01*
X89340Y141030D02*
X117840D01*
Y104280D02*
Y141030D01*
X75840Y104280D02*
Y125530D01*
Y104280D02*
X117840D01*
X75840Y125530D02*
Y137530D01*
X79340Y141030D01*
X89340D01*
X248400Y284100D02*
X373400D01*
X248400Y159100D02*
X373400D01*
X248400D02*
Y284100D01*
X373400Y159100D02*
Y284100D01*
X494510Y334290D02*
Y369290D01*
X554510Y334290D02*
Y369290D01*
X494510D02*
X554510D01*
X494510Y334290D02*
X554510D01*
X627860Y334290D02*
X687860D01*
X627860Y369290D02*
X687860D01*
Y334290D02*
Y369290D01*
X627860Y334290D02*
Y369290D01*
X695960Y228600D02*
Y254000D01*
X746760D01*
Y228600D02*
Y254000D01*
X695960Y228600D02*
X746760D01*
X340360Y77470D02*
Y102870D01*
X441960D01*
X340360Y77470D02*
X441960D01*
Y102870D01*
X248920Y78740D02*
Y104140D01*
X172720Y78740D02*
X248920D01*
X172720D02*
Y104140D01*
X248920D01*
X1095700Y62300D02*
Y113100D01*
X1044900Y62300D02*
Y113100D01*
X1095700D01*
X1044900Y62300D02*
X1095700D01*
X1072417D02*
X1095700D01*
X678631Y102870D02*
Y128270D01*
X729431D01*
Y102870D02*
Y128270D01*
X678631Y102870D02*
X729431D01*
X210200Y427496D02*
Y445496D01*
X166800D02*
X210200D01*
X166800Y427496D02*
Y445496D01*
Y427496D02*
X210200D01*
X222700Y610800D02*
Y636200D01*
X121100D02*
X222700D01*
X121100Y610800D02*
Y636200D01*
X222700Y585400D02*
Y610800D01*
X121100Y585400D02*
X222700D01*
X121100D02*
Y610800D01*
X608630Y102870D02*
Y128270D01*
X659430D01*
Y102870D02*
Y128270D01*
X608630Y102870D02*
X659430D01*
X4600Y396200D02*
Y574000D01*
X55400Y396200D02*
Y574000D01*
X4600D02*
X55400D01*
X4600Y396200D02*
X55400D01*
X538630Y102870D02*
Y128270D01*
X589430D01*
Y102870D02*
Y128270D01*
X538630Y102870D02*
X589430D01*
X480060Y228600D02*
Y254000D01*
Y228600D02*
X683260D01*
Y254000D01*
X480060D02*
X683260D01*
X1044900Y167700D02*
X1095700D01*
X1044900Y421700D02*
X1095700D01*
Y167700D02*
Y421700D01*
X1044900Y167700D02*
Y421700D01*
X468630Y102870D02*
Y128270D01*
X519430D01*
Y102870D02*
Y128270D01*
X468630Y102870D02*
X519430D01*
X260660Y1136D02*
Y73136D01*
X442660Y1136D02*
Y73136D01*
X260660D02*
X442660D01*
X260660Y1136D02*
X442660D01*
X1070300Y572900D02*
X1095700D01*
Y471300D02*
Y572900D01*
X1070300Y471300D02*
Y572900D01*
Y471300D02*
X1095700D01*
X822960Y256117D02*
Y304800D01*
Y228600D02*
Y304800D01*
X772160Y228600D02*
Y304800D01*
Y228600D02*
X822960D01*
X772160Y304800D02*
X822960D01*
X67862Y1116D02*
Y73116D01*
X249862Y1116D02*
Y73116D01*
X67862D02*
X249862D01*
X67862Y1116D02*
X249862D01*
X752610Y374960D02*
Y381960D01*
X768610Y374960D02*
Y381960D01*
X772160Y150250D02*
X782320D01*
X480060Y213360D02*
Y228600D01*
X530860Y213360D02*
Y228600D01*
X581660Y213360D02*
Y228600D01*
X632460Y213360D02*
Y228600D01*
X683260Y213360D02*
Y228600D01*
X969570Y318950D02*
Y323200D01*
X973820D01*
X999320D02*
X1003570D01*
Y318950D02*
Y323200D01*
Y289200D02*
Y293450D01*
X999320Y289200D02*
X1003570D01*
X969570D02*
Y293450D01*
Y289200D02*
X973820D01*
X486000Y585200D02*
Y591750D01*
X421800Y559550D02*
Y559800D01*
X401000Y538750D02*
X421800Y559550D01*
X414700Y610800D02*
Y636200D01*
X313100D02*
X414700D01*
X313100Y610800D02*
Y636200D01*
X414700Y585400D02*
Y610800D01*
X313100Y585400D02*
X414700D01*
X313100D02*
Y610800D01*
X402200Y427496D02*
Y445496D01*
X358800D02*
X402200D01*
X358800Y427496D02*
Y445496D01*
Y427496D02*
X402200D01*
X421800Y610800D02*
Y636200D01*
X498000D01*
Y610800D02*
Y636200D01*
X421800Y610800D02*
X498000D01*
Y559800D02*
Y585200D01*
X421800Y559800D02*
X498000D01*
X421800D02*
Y585200D01*
X498000D01*
X678000D02*
Y591750D01*
X613800Y559550D02*
Y559800D01*
X593000Y538750D02*
X613800Y559550D01*
X606700Y610800D02*
Y636200D01*
X505100D02*
X606700D01*
X505100Y610800D02*
Y636200D01*
X606700Y585400D02*
Y610800D01*
X505100Y585400D02*
X606700D01*
X505100D02*
Y610800D01*
X594200Y427496D02*
Y445496D01*
X550800D02*
X594200D01*
X550800Y427496D02*
Y445496D01*
Y427496D02*
X594200D01*
X613800Y610800D02*
Y636200D01*
X690000D01*
Y610800D02*
Y636200D01*
X613800Y610800D02*
X690000D01*
Y559800D02*
Y585200D01*
X613800Y559800D02*
X690000D01*
X613800D02*
Y585200D01*
X690000D01*
X870000D02*
Y591750D01*
X805800Y559550D02*
Y559800D01*
X785000Y538750D02*
X805800Y559550D01*
X798700Y610800D02*
Y636200D01*
X697100D02*
X798700D01*
X697100Y610800D02*
Y636200D01*
X798700Y585400D02*
Y610800D01*
X697100Y585400D02*
X798700D01*
X697100D02*
Y610800D01*
X786200Y427496D02*
Y445496D01*
X742800D02*
X786200D01*
X742800Y427496D02*
Y445496D01*
Y427496D02*
X786200D01*
X805800Y610800D02*
Y636200D01*
X882000D01*
Y610800D02*
Y636200D01*
X805800Y610800D02*
X882000D01*
Y559800D02*
Y585200D01*
X805800Y559800D02*
X882000D01*
X805800D02*
Y585200D01*
X882000D01*
X990700Y610800D02*
Y636200D01*
X889100D02*
X990700D01*
X889100Y610800D02*
Y636200D01*
X990700Y585400D02*
Y610800D01*
X889100Y585400D02*
X990700D01*
X889100D02*
Y610800D01*
X978200Y427496D02*
Y445496D01*
X934800D02*
X978200D01*
X934800Y427496D02*
Y445496D01*
Y427496D02*
X978200D01*
X1056760Y479501D02*
Y485499D01*
X1059759Y488498D01*
X1062758Y485499D01*
Y479501D01*
Y484000D01*
X1056760D01*
X1059759Y562659D02*
Y556661D01*
X1062758Y559660D02*
X1056760D01*
Y534800D02*
X1062758D01*
X1056760Y513899D02*
X1062758D01*
Y512399D01*
X1056760Y506401D01*
Y504901D01*
X1062758D01*
X70997Y567085D02*
Y573750D01*
X61000D01*
Y567085D01*
X65998Y573750D02*
Y570418D01*
X70997Y563753D02*
X61000Y557089D01*
X70997D02*
X61000Y563753D01*
Y553756D02*
X70997D01*
Y548758D01*
X69331Y547092D01*
X65998D01*
X64332Y548758D01*
Y553756D01*
X61000Y538761D02*
X70997D01*
X65998Y543760D01*
Y537095D01*
X181665Y117081D02*
X179998Y118747D01*
X176666D01*
X175000Y117081D01*
Y115414D01*
X176666Y113748D01*
X179998D01*
X181665Y112082D01*
Y110416D01*
X179998Y108750D01*
X176666D01*
X175000Y110416D01*
X191661Y118747D02*
X184997D01*
Y108750D01*
X191661D01*
X184997Y113748D02*
X188329D01*
X194993Y108750D02*
Y118747D01*
X199992D01*
X201658Y117081D01*
Y113748D01*
X199992Y112082D01*
X194993D01*
X198326D02*
X201658Y108750D01*
X204990Y118747D02*
Y112082D01*
X208323Y108750D01*
X211655Y112082D01*
Y118747D01*
X219986D02*
X216653D01*
X214987Y117081D01*
Y110416D01*
X216653Y108750D01*
X219986D01*
X221652Y110416D01*
Y117081D01*
X219986Y118747D01*
X1036000Y468697D02*
X1041998D01*
Y467197D01*
X1036000Y461199D01*
Y459700D01*
X1041998D01*
X1044997Y458200D02*
X1050995D01*
X1053994Y459700D02*
Y468697D01*
X1058493D01*
X1059992Y467197D01*
Y464198D01*
X1058493Y462699D01*
X1053994D01*
X1062991Y459700D02*
Y468697D01*
X1067490D01*
X1068989Y467197D01*
Y464198D01*
X1067490Y462699D01*
X1062991D01*
X1065990D02*
X1068989Y459700D01*
X1076487Y468697D02*
X1073488D01*
X1071988Y467197D01*
Y461199D01*
X1073488Y459700D01*
X1076487D01*
X1077986Y461199D01*
Y467197D01*
X1076487Y468697D01*
X1080985D02*
Y459700D01*
X1085484D01*
X1086983Y461199D01*
Y462699D01*
X1085484Y464198D01*
X1080985D01*
X1085484D01*
X1086983Y465698D01*
Y467197D01*
X1085484Y468697D01*
X1080985D01*
X1095981D02*
X1089983D01*
Y459700D01*
X1095981D01*
X1089983Y464198D02*
X1092982D01*
X240041Y600258D02*
X246039D01*
X243040Y603258D02*
Y597259D01*
X265441Y600258D02*
X271439D01*
X290841Y604757D02*
X296839Y595760D01*
Y604757D02*
X290841Y595760D01*
X959811Y126997D02*
Y117000D01*
Y121998D01*
X966476D01*
Y126997D01*
Y117000D01*
X969808Y126997D02*
Y117000D01*
X974806D01*
X976472Y118666D01*
Y120332D01*
X974806Y121998D01*
X969808D01*
X974806D01*
X976472Y123664D01*
Y125330D01*
X974806Y126997D01*
X969808D01*
X979805Y121998D02*
X986469D01*
X994800Y126997D02*
X991468D01*
X989801Y125330D01*
Y118666D01*
X991468Y117000D01*
X994800D01*
X996466Y118666D01*
Y125330D01*
X994800Y126997D01*
X999798D02*
Y118666D01*
X1001464Y117000D01*
X1004797D01*
X1006463Y118666D01*
Y126997D01*
X1009795D02*
X1016460D01*
X1013127D01*
Y117000D01*
X859811Y126997D02*
Y117000D01*
Y121998D01*
X866476D01*
Y126997D01*
Y117000D01*
X869808Y126997D02*
Y117000D01*
X874806D01*
X876472Y118666D01*
Y120332D01*
X874806Y121998D01*
X869808D01*
X874806D01*
X876472Y123664D01*
Y125331D01*
X874806Y126997D01*
X869808D01*
X879805Y121998D02*
X886469D01*
X889802Y117000D02*
Y126997D01*
X894800D01*
X896466Y125331D01*
Y121998D01*
X894800Y120332D01*
X889802D01*
X899798Y126997D02*
Y117000D01*
X903131Y120332D01*
X906463Y117000D01*
Y126997D01*
X909795Y117000D02*
Y126997D01*
X914793D01*
X916460Y125331D01*
Y121998D01*
X914793Y120332D01*
X909795D01*
X913127D02*
X916460Y117000D01*
X750647Y117000D02*
Y126997D01*
X753980Y123664D01*
X757312Y126997D01*
Y117000D01*
X760644D02*
Y123664D01*
X763976Y126997D01*
X767309Y123664D01*
Y117000D01*
Y121998D01*
X760644D01*
X770641Y126997D02*
X773973D01*
X772307D01*
Y117000D01*
X770641D01*
X773973D01*
X778972D02*
Y126997D01*
X785636Y117000D01*
Y126997D01*
X788968Y121998D02*
X795633D01*
X798965Y117000D02*
Y126997D01*
X803963D01*
X805630Y125330D01*
Y121998D01*
X803963Y120332D01*
X798965D01*
X808962Y126997D02*
Y117000D01*
X812294Y120332D01*
X815626Y117000D01*
Y126997D01*
X818959Y117000D02*
Y126997D01*
X823957D01*
X825623Y125330D01*
Y121998D01*
X823957Y120332D01*
X818959D01*
X822291D02*
X825623Y117000D01*
X704714Y318607D02*
X698049D01*
Y313608D01*
X701382D01*
X698049D01*
Y308610D01*
X714711D02*
X708046D01*
X714711Y315275D01*
Y316941D01*
X713045Y318607D01*
X709712D01*
X708046Y316941D01*
X682305Y203037D02*
X675640D01*
Y198038D01*
X678972D01*
X675640D01*
Y193040D01*
X685637D02*
X688969D01*
X687303D01*
Y203037D01*
X685637Y201371D01*
X608644Y203037D02*
X601980D01*
Y198038D01*
X605312D01*
X601980D01*
Y193040D01*
X611977Y201371D02*
X613643Y203037D01*
X616975D01*
X618641Y201371D01*
Y194706D01*
X616975Y193040D01*
X613643D01*
X611977Y194706D01*
Y201371D01*
X462280Y203037D02*
Y193040D01*
Y198038D01*
X468945D01*
Y203037D01*
Y193040D01*
X472277Y201371D02*
X473943Y203037D01*
X477275D01*
X478941Y201371D01*
Y194706D01*
X477275Y193040D01*
X473943D01*
X472277Y194706D01*
Y201371D01*
X535940Y203037D02*
Y193040D01*
Y198038D01*
X542604D01*
Y203037D01*
Y193040D01*
X545937D02*
X549269D01*
X547603D01*
Y203037D01*
X545937Y201371D01*
X70768Y618368D02*
X69268Y619867D01*
X66269D01*
X64770Y618368D01*
Y616868D01*
X66269Y615368D01*
X69268D01*
X70768Y613869D01*
Y612369D01*
X69268Y610870D01*
X66269D01*
X64770Y612369D01*
X73767Y619867D02*
X79765D01*
X76766D01*
Y610870D01*
X82764D02*
Y616868D01*
X85763Y619867D01*
X88762Y616868D01*
Y610870D01*
Y615368D01*
X82764D01*
X91761Y619867D02*
X97759D01*
X94760D01*
Y610870D01*
X100758Y619867D02*
Y612369D01*
X102258Y610870D01*
X105257D01*
X106756Y612369D01*
Y619867D01*
X115753Y618368D02*
X114254Y619867D01*
X111255D01*
X109755Y618368D01*
Y616868D01*
X111255Y615368D01*
X114254D01*
X115753Y613869D01*
Y612369D01*
X114254Y610870D01*
X111255D01*
X109755Y612369D01*
X264460Y360880D02*
Y380874D01*
X274457D01*
X277789Y377541D01*
Y370877D01*
X274457Y367545D01*
X264460D01*
X284454Y360880D02*
X291118D01*
X287786D01*
Y374209D01*
X284454D01*
X314444D02*
X304447D01*
X301115Y370877D01*
Y364212D01*
X304447Y360880D01*
X314444D01*
X324441D02*
X331105D01*
X334437Y364212D01*
Y370877D01*
X331105Y374209D01*
X324441D01*
X321108Y370877D01*
Y364212D01*
X324441Y360880D01*
X341102D02*
Y380874D01*
X351099D01*
X354431Y377541D01*
Y370877D01*
X351099Y367545D01*
X341102D01*
X361096Y374209D02*
Y360880D01*
Y367545D01*
X364428Y370877D01*
X367760Y374209D01*
X371092D01*
X381089Y360880D02*
X387754D01*
X384421D01*
Y374209D01*
X381089D01*
X397750Y360880D02*
Y374209D01*
X407747D01*
X411079Y370877D01*
Y360880D01*
X421076Y377541D02*
Y374209D01*
X417744D01*
X424408D01*
X421076D01*
Y364212D01*
X424408Y360880D01*
X1031003Y175415D02*
Y168750D01*
X1041000D01*
Y175415D01*
X1036002Y168750D02*
Y172082D01*
X1031003Y178747D02*
X1041000Y185411D01*
X1031003D02*
X1041000Y178747D01*
Y188743D02*
X1031003D01*
Y193742D01*
X1032669Y195408D01*
X1036002D01*
X1037668Y193742D01*
Y188743D01*
X1032669Y198740D02*
X1031003Y200406D01*
Y203739D01*
X1032669Y205405D01*
X1034335D01*
X1036002Y203739D01*
Y202073D01*
Y203739D01*
X1037668Y205405D01*
X1039334D01*
X1041000Y203739D01*
Y200406D01*
X1039334Y198740D01*
X274665Y86747D02*
X268000D01*
Y76750D01*
X274665D01*
X268000Y81748D02*
X271332D01*
X277997Y86747D02*
X284661Y76750D01*
Y86747D02*
X277997Y76750D01*
X287994D02*
Y86747D01*
X292992D01*
X294658Y85081D01*
Y81748D01*
X292992Y80082D01*
X287994D01*
X304655Y76750D02*
X297990D01*
X304655Y83414D01*
Y85081D01*
X302989Y86747D01*
X299657D01*
X297990Y85081D01*
X136664Y86997D02*
X130000D01*
Y77000D01*
X136664D01*
X130000Y81998D02*
X133332D01*
X139997Y86997D02*
X146661Y77000D01*
Y86997D02*
X139997Y77000D01*
X149994D02*
Y86997D01*
X154992D01*
X156658Y85331D01*
Y81998D01*
X154992Y80332D01*
X149994D01*
X159990Y77000D02*
X163323D01*
X161656D01*
Y86997D01*
X159990Y85331D01*
X1051000Y118750D02*
Y127747D01*
X1055499D01*
X1056998Y126248D01*
Y123249D01*
X1055499Y121749D01*
X1051000D01*
X1065995Y126248D02*
X1064496Y127747D01*
X1061497D01*
X1059997Y126248D01*
Y124748D01*
X1061497Y123249D01*
X1064496D01*
X1065995Y121749D01*
Y120250D01*
X1064496Y118750D01*
X1061497D01*
X1059997Y120250D01*
X1068994Y117250D02*
X1074992D01*
X1082490Y127747D02*
X1079491D01*
X1077991Y126248D01*
Y120250D01*
X1079491Y118750D01*
X1082490D01*
X1083989Y120250D01*
Y126248D01*
X1082490Y127747D01*
X1086988Y118750D02*
Y127747D01*
X1092986Y118750D01*
Y127747D01*
X494030Y321310D02*
Y330307D01*
X498529D01*
X500028Y328808D01*
Y325808D01*
X498529Y324309D01*
X494030D01*
X497029D02*
X500028Y321310D01*
X509025Y330307D02*
X503027D01*
Y321310D01*
X509025D01*
X503027Y325808D02*
X506026D01*
X518022Y328808D02*
X516523Y330307D01*
X513524D01*
X512024Y328808D01*
Y327308D01*
X513524Y325808D01*
X516523D01*
X518022Y324309D01*
Y322809D01*
X516523Y321310D01*
X513524D01*
X512024Y322809D01*
X527019Y330307D02*
X521021D01*
Y321310D01*
X527019D01*
X521021Y325808D02*
X524020D01*
X530018Y330307D02*
X536016D01*
X533017D01*
Y321310D01*
X363000Y118747D02*
X366332D01*
X364666D01*
Y108750D01*
X363000D01*
X366332D01*
X377995D02*
X371331D01*
X377995Y115414D01*
Y117081D01*
X376329Y118747D01*
X372997D01*
X371331Y117081D01*
X387992D02*
X386326Y118747D01*
X382994D01*
X381328Y117081D01*
Y110416D01*
X382994Y108750D01*
X386326D01*
X387992Y110416D01*
X908000Y157997D02*
Y148000D01*
Y152998D01*
X914665D01*
Y157997D01*
Y148000D01*
X917997Y157997D02*
Y148000D01*
X922995D01*
X924661Y149666D01*
Y151332D01*
X922995Y152998D01*
X917997D01*
X922995D01*
X924661Y154664D01*
Y156331D01*
X922995Y157997D01*
X917997D01*
X828040Y295788D02*
X829539Y297287D01*
X832539D01*
X834038Y295788D01*
Y294288D01*
X832539Y292789D01*
X831039D01*
X832539D01*
X834038Y291289D01*
Y289790D01*
X832539Y288290D01*
X829539D01*
X828040Y289790D01*
X837037Y297287D02*
Y291289D01*
X840036Y288290D01*
X843035Y291289D01*
Y297287D01*
X495300Y223357D02*
X501964D01*
X498632D01*
Y213360D01*
X505297Y221691D02*
X506963Y223357D01*
X510295D01*
X511961Y221691D01*
Y215026D01*
X510295Y213360D01*
X506963D01*
X505297Y215026D01*
Y221691D01*
X145501Y559815D02*
X154831Y545820D01*
Y559815D02*
X145501Y545820D01*
X628650Y330307D02*
Y322809D01*
X630149Y321310D01*
X633148D01*
X634648Y322809D01*
Y330307D01*
X643645Y328808D02*
X642146Y330307D01*
X639147D01*
X637647Y328808D01*
Y327308D01*
X639147Y325808D01*
X642146D01*
X643645Y324309D01*
Y322809D01*
X642146Y321310D01*
X639147D01*
X637647Y322809D01*
X652642Y330307D02*
X646644D01*
Y321310D01*
X652642D01*
X646644Y325808D02*
X649643D01*
X655641Y321310D02*
Y330307D01*
X660140D01*
X661639Y328808D01*
Y325808D01*
X660140Y324309D01*
X655641D01*
X658640D02*
X661639Y321310D01*
X546100Y223357D02*
X552765D01*
X549432D01*
Y213360D01*
X556097D02*
X559429D01*
X557763D01*
Y223357D01*
X556097Y221691D01*
X596900Y223357D02*
X603564D01*
X600232D01*
Y213360D01*
X613561D02*
X606897D01*
X613561Y220025D01*
Y221691D01*
X611895Y223357D01*
X608563D01*
X606897Y221691D01*
X647700Y223357D02*
X654364D01*
X651032D01*
Y213360D01*
X657697Y223357D02*
Y213360D01*
X662695D01*
X664361Y215026D01*
Y216692D01*
X662695Y218358D01*
X657697D01*
X662695D01*
X664361Y220025D01*
Y221691D01*
X662695Y223357D01*
X657697D01*
X834038Y271887D02*
X828040D01*
Y267388D01*
X831039Y268888D01*
X832539D01*
X834038Y267388D01*
Y264389D01*
X832539Y262890D01*
X829539D01*
X828040Y264389D01*
X837037Y271887D02*
Y265889D01*
X840036Y262890D01*
X843035Y265889D01*
Y271887D01*
X828040Y246487D02*
Y240489D01*
X831039Y237490D01*
X834038Y240489D01*
Y246487D01*
X837037D02*
X840036D01*
X838537D01*
Y237490D01*
X837037D01*
X840036D01*
X844535D02*
Y246487D01*
X850533Y237490D01*
Y246487D01*
X110490Y182987D02*
Y176989D01*
X113489Y173990D01*
X116488Y176989D01*
Y182987D01*
X119487Y172491D02*
X125485D01*
X128484Y182987D02*
Y175490D01*
X129984Y173990D01*
X132983D01*
X134482Y175490D01*
Y182987D01*
X143479Y181488D02*
X141980Y182987D01*
X138981D01*
X137481Y181488D01*
Y179988D01*
X138981Y178489D01*
X141980D01*
X143479Y176989D01*
Y175490D01*
X141980Y173990D01*
X138981D01*
X137481Y175490D01*
X146478Y182987D02*
Y173990D01*
X150977D01*
X152476Y175490D01*
Y176989D01*
X150977Y178489D01*
X146478D01*
X150977D01*
X152476Y179988D01*
Y181488D01*
X150977Y182987D01*
X146478D01*
X1024513Y331118D02*
Y325120D01*
X1029012D01*
X1027512Y328119D01*
Y329618D01*
X1029012Y331118D01*
X1032010D01*
X1033510Y329618D01*
Y326619D01*
X1032010Y325120D01*
X1024513Y334117D02*
X1030511D01*
X1033510Y337116D01*
X1030511Y340115D01*
X1024513D01*
X1035010Y343114D02*
Y349112D01*
X1024513Y352111D02*
X1033510D01*
Y356610D01*
X1032010Y358109D01*
X1026012D01*
X1024513Y356610D01*
Y352111D01*
X1026012Y367106D02*
X1024513Y365607D01*
Y362608D01*
X1026012Y361108D01*
X1032010D01*
X1033510Y362608D01*
Y365607D01*
X1032010Y367106D01*
X1024513Y370105D02*
X1033510D01*
Y374604D01*
X1032010Y376104D01*
X1026012D01*
X1024513Y374604D01*
Y370105D01*
X1026012Y385101D02*
X1024513Y383601D01*
Y380602D01*
X1026012Y379103D01*
X1032010D01*
X1033510Y380602D01*
Y383601D01*
X1032010Y385101D01*
X337501Y559815D02*
Y557483D01*
X342166Y552818D01*
X346831Y557483D01*
Y559815D01*
X342166Y552818D02*
Y545820D01*
X482841Y604757D02*
Y603258D01*
X485840Y600258D01*
X488839Y603258D01*
Y604757D01*
X485840Y600258D02*
Y595760D01*
X457441Y600258D02*
X463439D01*
X432041D02*
X438039D01*
X435040Y603258D02*
Y597259D01*
X529501Y559815D02*
X538831D01*
Y557483D01*
X529501Y548153D01*
Y545820D01*
X538831D01*
X674841Y604757D02*
X680839D01*
Y603258D01*
X674841Y597259D01*
Y595760D01*
X680839D01*
X649441Y600258D02*
X655439D01*
X624041D02*
X630039D01*
X627040Y603258D02*
Y597259D01*
X730831Y559815D02*
X721501D01*
Y545820D01*
X730831D01*
X721501Y552818D02*
X726166D01*
X735497Y557483D02*
X737829Y559815D01*
X742494D01*
X744827Y557483D01*
Y548153D01*
X742494Y545820D01*
X737829D01*
X735497Y548153D01*
Y557483D01*
X872839Y604757D02*
X866841D01*
Y595760D01*
X872839D01*
X866841Y600258D02*
X869840D01*
X841441D02*
X847439D01*
X816041D02*
X822039D01*
X819040Y603258D02*
Y597259D01*
X922831Y559815D02*
X913501D01*
Y545820D01*
X922831D01*
X913501Y552818D02*
X918166D01*
X927496Y545820D02*
X932162D01*
X929829D01*
Y559815D01*
X927496Y557483D01*
D14*
X21800Y320802D02*
G03*
X12800Y327660I-7929J-1071D01*
G01*
X5800Y207772D02*
G03*
X21800Y223774I-1J16001D01*
G01*
X763000Y351410D02*
X770000D01*
X783000D02*
X790000D01*
X763000Y338410D02*
X770000D01*
X783000D02*
X790000D01*
Y351410D01*
X763000Y338410D02*
Y351410D01*
X272600Y547600D02*
X280600D01*
X259600D02*
X267600D01*
X259600Y537600D02*
Y547600D01*
Y537600D02*
X267600D01*
X272600D02*
X280600D01*
Y547600D01*
X242250Y548250D02*
X251500D01*
X242250Y529750D02*
X251500D01*
Y543250D02*
Y548250D01*
Y529750D02*
Y534750D01*
X282380Y537100D02*
X290380D01*
X295380D02*
X303380D01*
Y548100D01*
X295380D02*
X303380D01*
X282380D02*
X290380D01*
X282380Y537100D02*
Y548100D01*
X112250Y485250D02*
X120250D01*
X125250D02*
X133250D01*
Y475250D02*
Y485250D01*
X125250Y475250D02*
X133250D01*
X112250D02*
X120250D01*
X112250D02*
Y485250D01*
X90000Y523250D02*
X98000D01*
X103000D02*
X111000D01*
Y513250D02*
Y523250D01*
X103000Y513250D02*
X111000D01*
X90000D02*
X98000D01*
X90000D02*
Y523250D01*
X101690Y509600D02*
X109310D01*
X101690Y496900D02*
X109310D01*
X234690Y509600D02*
X242310D01*
X234690Y496900D02*
X242310D01*
X750950Y293370D02*
Y300990D01*
X721950Y293370D02*
X750950D01*
X721950D02*
Y300990D01*
X750950D01*
X1086380Y135890D02*
Y143510D01*
X1057380Y135890D02*
X1086380D01*
X1057380D02*
Y143510D01*
X1086380D01*
X726000Y167640D02*
Y175260D01*
X697000Y167640D02*
X726000D01*
X697000D02*
Y175260D01*
X726000D01*
X656000Y167640D02*
Y175260D01*
X627000Y167640D02*
X656000D01*
X627000D02*
Y175260D01*
X656000D01*
X893340Y351470D02*
X920340D01*
X893340Y341310D02*
Y351470D01*
Y341310D02*
X920340D01*
Y351470D01*
X5800Y197612D02*
Y207772D01*
Y197612D02*
X156800D01*
Y337820D01*
X12800D02*
X156800D01*
X12800Y327660D02*
Y337820D01*
X21800Y223774D02*
Y320802D01*
X86020Y345520D02*
X94020D01*
X99020D02*
X107020D01*
Y355520D01*
X99020D02*
X107020D01*
X86020D02*
X94020D01*
X86020Y345520D02*
Y355520D01*
X991830Y281860D02*
X999830D01*
X978830D02*
X986830D01*
X978830Y271860D02*
Y281860D01*
Y271860D02*
X986830D01*
X991830D02*
X999830D01*
Y281860D01*
X421720Y144740D02*
Y152740D01*
Y131740D02*
Y139740D01*
Y131740D02*
X431720D01*
Y139740D01*
Y144740D02*
Y152740D01*
X421720D02*
X431720D01*
X757000Y147280D02*
Y155280D01*
Y134280D02*
Y142280D01*
Y134280D02*
X767000D01*
Y142280D01*
Y147280D02*
Y155280D01*
X757000D02*
X767000D01*
X1011000Y285710D02*
Y293710D01*
Y272710D02*
Y280710D01*
Y272710D02*
X1021000D01*
Y280710D01*
Y285710D02*
Y293710D01*
X1011000D02*
X1021000D01*
X443150Y131740D02*
Y139740D01*
Y144740D02*
Y152740D01*
X433150D02*
X443150D01*
X433150Y144740D02*
Y152740D01*
Y131740D02*
Y139740D01*
Y131740D02*
X443150D01*
X1030500Y139000D02*
X1038500D01*
X1043500D02*
X1051500D01*
Y149000D01*
X1043500D02*
X1051500D01*
X1030500D02*
X1038500D01*
X1030500Y139000D02*
Y149000D01*
Y151000D02*
X1038500D01*
X1043500D02*
X1051500D01*
Y161000D01*
X1043500D02*
X1051500D01*
X1030500D02*
X1038500D01*
X1030500Y151000D02*
Y161000D01*
X906360Y161530D02*
X914360D01*
X919360D02*
X927360D01*
Y171530D01*
X919360D02*
X927360D01*
X906360D02*
X914360D01*
X906360Y161530D02*
Y171530D01*
X906440Y174230D02*
X914440D01*
X919440D02*
X927440D01*
Y184230D01*
X919440D02*
X927440D01*
X906440D02*
X914440D01*
X906440Y174230D02*
Y184230D01*
X985500Y208000D02*
X993500D01*
X972500D02*
X980500D01*
X972500Y198000D02*
Y208000D01*
Y198000D02*
X980500D01*
X985500D02*
X993500D01*
Y208000D01*
X701779Y257470D02*
Y265470D01*
Y270470D02*
Y278470D01*
X691779D02*
X701779D01*
X691779Y270470D02*
Y278470D01*
Y257470D02*
Y265470D01*
Y257470D02*
X701779D01*
X701779Y284140D02*
Y292140D01*
Y297140D02*
Y305140D01*
X691779D02*
X701779D01*
X691779Y297140D02*
Y305140D01*
Y284140D02*
Y292140D01*
Y284140D02*
X701779D01*
X704479Y270470D02*
Y278470D01*
Y257470D02*
Y265470D01*
Y257470D02*
X714479D01*
Y265470D01*
Y270470D02*
Y278470D01*
X704479D02*
X714479D01*
X666830Y154900D02*
Y162900D01*
Y141900D02*
Y149900D01*
Y141900D02*
X676830D01*
Y149900D01*
Y154900D02*
Y162900D01*
X666830D02*
X676830D01*
X527130Y154900D02*
Y162900D01*
Y141900D02*
Y149900D01*
Y141900D02*
X537130D01*
Y149900D01*
Y154900D02*
Y162900D01*
X527130D02*
X537130D01*
X676830Y168570D02*
Y176570D01*
Y181570D02*
Y189570D01*
X666830D02*
X676830D01*
X666830Y181570D02*
Y189570D01*
Y168570D02*
Y176570D01*
Y168570D02*
X676830D01*
X537130Y168570D02*
Y176570D01*
Y181570D02*
Y189570D01*
X527130D02*
X537130D01*
X527130Y181570D02*
Y189570D01*
Y168570D02*
Y176570D01*
Y168570D02*
X537130D01*
X679530Y154900D02*
Y162900D01*
Y141900D02*
Y149900D01*
Y141900D02*
X689530D01*
Y149900D01*
Y154900D02*
Y162900D01*
X679530D02*
X689530D01*
X539830Y154900D02*
Y162900D01*
Y141900D02*
Y149900D01*
Y141900D02*
X549830D01*
Y149900D01*
Y154900D02*
Y162900D01*
X539830D02*
X549830D01*
X457280Y154900D02*
Y162900D01*
Y141900D02*
Y149900D01*
Y141900D02*
X467280D01*
Y149900D01*
Y154900D02*
Y162900D01*
X457280D02*
X467280D01*
X596980Y154900D02*
Y162900D01*
Y141900D02*
Y149900D01*
Y141900D02*
X606980D01*
Y149900D01*
Y154900D02*
Y162900D01*
X596980D02*
X606980D01*
X467280Y168570D02*
Y176570D01*
Y181570D02*
Y189570D01*
X457280D02*
X467280D01*
X457280Y181570D02*
Y189570D01*
Y168570D02*
Y176570D01*
Y168570D02*
X467280D01*
X606980D02*
Y176570D01*
Y181570D02*
Y189570D01*
X596980D02*
X606980D01*
X596980Y181570D02*
Y189570D01*
Y168570D02*
Y176570D01*
Y168570D02*
X606980D01*
X469980Y154900D02*
Y162900D01*
Y141900D02*
Y149900D01*
Y141900D02*
X479980D01*
Y149900D01*
Y154900D02*
Y162900D01*
X469980D02*
X479980D01*
X609680Y154900D02*
Y162900D01*
Y141900D02*
Y149900D01*
Y141900D02*
X619680D01*
Y149900D01*
Y154900D02*
Y162900D01*
X609680D02*
X619680D01*
X642000Y271500D02*
Y279500D01*
Y258500D02*
Y266500D01*
Y258500D02*
X652000D01*
Y266500D01*
Y271500D02*
Y279500D01*
X642000D02*
X652000D01*
X632000Y271500D02*
Y279500D01*
Y258500D02*
Y266500D01*
Y258500D02*
X642000D01*
Y266500D01*
Y271500D02*
Y279500D01*
X632000D02*
X642000D01*
X592000Y271500D02*
Y279500D01*
Y258500D02*
Y266500D01*
Y258500D02*
X602000D01*
Y266500D01*
Y271500D02*
Y279500D01*
X592000D02*
X602000D01*
X582000Y271500D02*
Y279500D01*
Y258500D02*
Y266500D01*
Y258500D02*
X592000D01*
Y266500D01*
Y271500D02*
Y279500D01*
X582000D02*
X592000D01*
X134500Y118030D02*
X142500D01*
X121500D02*
X129500D01*
X121500Y108030D02*
Y118030D01*
Y108030D02*
X129500D01*
X134500D02*
X142500D01*
Y118030D01*
X134500Y137080D02*
X142500D01*
X121500D02*
X129500D01*
X121500Y127080D02*
Y137080D01*
Y127080D02*
X129500D01*
X134500D02*
X142500D01*
Y137080D01*
X542000Y271500D02*
Y279500D01*
Y258500D02*
Y266500D01*
Y258500D02*
X552000D01*
Y266500D01*
Y271500D02*
Y279500D01*
X542000D02*
X552000D01*
X532000Y271500D02*
Y279500D01*
Y258500D02*
Y266500D01*
Y258500D02*
X542000D01*
Y266500D01*
Y271500D02*
Y279500D01*
X532000D02*
X542000D01*
X474900Y341290D02*
Y349290D01*
Y354290D02*
Y362290D01*
X464900D02*
X474900D01*
X464900Y354290D02*
Y362290D01*
Y341290D02*
Y349290D01*
Y341290D02*
X474900D01*
X492000Y271500D02*
Y279500D01*
Y258500D02*
Y266500D01*
Y258500D02*
X502000D01*
Y266500D01*
Y271500D02*
Y279500D01*
X492000D02*
X502000D01*
X482000Y271500D02*
Y279500D01*
Y258500D02*
Y266500D01*
Y258500D02*
X492000D01*
Y266500D01*
Y271500D02*
Y279500D01*
X482000D02*
X492000D01*
X61040Y438110D02*
Y446110D01*
Y425110D02*
Y433110D01*
Y425110D02*
X71040D01*
Y433110D01*
Y438110D02*
Y446110D01*
X61040D02*
X71040D01*
X1043000Y486500D02*
Y494500D01*
Y473500D02*
Y481500D01*
Y473500D02*
X1053000D01*
Y481500D01*
Y486500D02*
Y494500D01*
X1043000D02*
X1053000D01*
X608250Y341210D02*
Y349210D01*
Y354210D02*
Y362210D01*
X598250D02*
X608250D01*
X598250Y354210D02*
Y362210D01*
Y341210D02*
Y349210D01*
Y341210D02*
X608250D01*
X1043000Y534500D02*
Y542500D01*
Y521500D02*
Y529500D01*
Y521500D02*
X1053000D01*
Y529500D01*
Y534500D02*
Y542500D01*
X1043000D02*
X1053000D01*
X134280Y345520D02*
X142280D01*
X147280D02*
X155280D01*
Y355520D01*
X147280D02*
X155280D01*
X134280D02*
X142280D01*
X134280Y345520D02*
Y355520D01*
X110150Y345520D02*
X118150D01*
X123150D02*
X131150D01*
Y355520D01*
X123150D02*
X131150D01*
X110150D02*
X118150D01*
X110150Y345520D02*
Y355520D01*
X37760Y345520D02*
X45760D01*
X50760D02*
X58760D01*
Y355520D01*
X50760D02*
X58760D01*
X37760D02*
X45760D01*
X37760Y345520D02*
Y355520D01*
X61890Y345520D02*
X69890D01*
X74890D02*
X82890D01*
Y355520D01*
X74890D02*
X82890D01*
X61890D02*
X69890D01*
X61890Y345520D02*
Y355520D01*
X228260Y108030D02*
X236260D01*
X241260D02*
X249260D01*
Y118030D01*
X241260D02*
X249260D01*
X228260D02*
X236260D01*
X228260Y108030D02*
Y118030D01*
X358060Y111500D02*
Y119500D01*
Y124500D02*
Y132500D01*
X348060D02*
X358060D01*
X348060Y124500D02*
Y132500D01*
Y111500D02*
Y119500D01*
Y111500D02*
X358060D01*
X346630Y111500D02*
Y119500D01*
Y124500D02*
Y132500D01*
X336630D02*
X346630D01*
X336630Y124500D02*
Y132500D01*
Y111500D02*
Y119500D01*
Y111500D02*
X346630D01*
X406783Y116760D02*
X414783D01*
X393783D02*
X401783D01*
X393783Y106760D02*
Y116760D01*
Y106760D02*
X401783D01*
X406783D02*
X414783D01*
Y116760D01*
X420030Y106760D02*
X428030D01*
X433030D02*
X441030D01*
Y116760D01*
X433030D02*
X441030D01*
X420030D02*
X428030D01*
X420030Y106760D02*
Y116760D01*
X105370Y606980D02*
X113370D01*
X92370D02*
X100370D01*
X92370Y596980D02*
Y606980D01*
Y596980D02*
X100370D01*
X105370D02*
X113370D01*
Y606980D01*
X858180Y276940D02*
X866180D01*
X871180D02*
X879180D01*
Y286940D01*
X871180D02*
X879180D01*
X858180D02*
X866180D01*
X858180Y276940D02*
Y286940D01*
X858180Y251540D02*
X866180D01*
X871180D02*
X879180D01*
Y261540D01*
X871180D02*
X879180D01*
X858180D02*
X866180D01*
X858180Y251540D02*
Y261540D01*
X1033700Y272710D02*
Y280710D01*
Y285710D02*
Y293710D01*
X1023700D02*
X1033700D01*
X1023700Y285710D02*
Y293710D01*
Y272710D02*
Y280710D01*
Y272710D02*
X1033700D01*
X59350Y172800D02*
X67350D01*
X72350D02*
X80350D01*
Y182800D01*
X72350D02*
X80350D01*
X59350D02*
X67350D01*
X59350Y172800D02*
Y182800D01*
X830240Y222330D02*
X838240D01*
X843240D02*
X851240D01*
Y232330D01*
X843240D02*
X851240D01*
X830240D02*
X838240D01*
X830240Y222330D02*
Y232330D01*
X586000Y167640D02*
Y175260D01*
X557000Y167640D02*
X586000D01*
X557000D02*
Y175260D01*
X586000D01*
X516150Y167640D02*
Y175260D01*
X487150Y167640D02*
X516150D01*
X487150D02*
Y175260D01*
X516150D01*
X78740Y148590D02*
X88900D01*
X78994Y166370D02*
X88646D01*
X456110Y247920D02*
Y258080D01*
X473890Y248174D02*
Y257826D01*
X782320Y143210D02*
Y150250D01*
X772160Y143210D02*
Y150250D01*
X930880Y381610D02*
X958880D01*
X930880Y362610D02*
X958880D01*
X932990Y360990D02*
Y363990D01*
X935990Y360990D02*
Y363990D01*
X932990Y362490D02*
X935990Y360990D01*
X932990Y362490D02*
X935990Y363990D01*
X932990Y362490D02*
X935990D01*
X984220Y215290D02*
X1012220D01*
X984220Y234290D02*
X1012220D01*
X1010110Y232910D02*
Y235910D01*
X1007110Y232910D02*
Y235910D01*
X1010110Y234410D01*
X1007110Y232910D02*
X1010110Y234410D01*
X1007110D02*
X1010110D01*
X118080Y147980D02*
X146080D01*
X118080Y166980D02*
X146080D01*
X143970Y165600D02*
Y168600D01*
X140970Y165600D02*
Y168600D01*
X143970Y167100D01*
X140970Y165600D02*
X143970Y167100D01*
X140970D02*
X143970D01*
X745600Y274200D02*
X748600D01*
X745600Y272700D02*
X748600Y274200D01*
X745600Y275700D02*
X748600Y274200D01*
X745600Y272700D02*
Y275700D01*
X748600Y272700D02*
Y275700D01*
X730250Y274200D02*
X742850D01*
X730250Y259200D02*
X742850D01*
Y274200D01*
X720651Y148470D02*
X723651D01*
X720651Y146970D02*
X723651Y148470D01*
X720651Y149970D02*
X723651Y148470D01*
X720651Y146970D02*
Y149970D01*
X723651Y146970D02*
Y149970D01*
X705301Y148470D02*
X717901D01*
X705301Y133470D02*
X717901D01*
Y148470D01*
X650651D02*
X653650D01*
X650651Y146970D02*
X653650Y148470D01*
X650651Y149970D02*
X653650Y148470D01*
X650651Y146970D02*
Y149970D01*
X653650Y146970D02*
Y149970D01*
X635300Y148470D02*
X647900D01*
X635300Y133470D02*
X647900D01*
Y148470D01*
X676250Y277500D02*
X681250D01*
X662750D02*
X667750D01*
X681250Y268250D02*
Y277500D01*
X662750Y268250D02*
Y277500D01*
X612750Y268250D02*
Y277500D01*
X631250Y268250D02*
Y277500D01*
X612750D02*
X617750D01*
X626250D02*
X631250D01*
X576250D02*
X581250D01*
X562750D02*
X567750D01*
X581250Y268250D02*
Y277500D01*
X562750Y268250D02*
Y277500D01*
X512750Y268250D02*
Y277500D01*
X531250Y268250D02*
Y277500D01*
X512750D02*
X517750D01*
X526250D02*
X531250D01*
X1046250Y498750D02*
Y503750D01*
Y512250D02*
Y517250D01*
X1037000Y498750D02*
X1046250D01*
X1037000Y517250D02*
X1046250D01*
X1037000Y565250D02*
X1046250D01*
X1037000Y546750D02*
X1046250D01*
Y560250D02*
Y565250D01*
Y546750D02*
Y551750D01*
X410290Y144740D02*
Y152740D01*
Y131740D02*
Y139740D01*
Y131740D02*
X420290D01*
Y139740D01*
Y144740D02*
Y152740D01*
X410290D02*
X420290D01*
X904200Y322500D02*
X912200D01*
X891200D02*
X899200D01*
X891200Y312500D02*
Y322500D01*
Y312500D02*
X899200D01*
X904200D02*
X912200D01*
Y322500D01*
X909280Y380920D02*
X917280D01*
X896280D02*
X904280D01*
X896280Y370920D02*
Y380920D01*
Y370920D02*
X904280D01*
X909280D02*
X917280D01*
Y380920D01*
X949798Y341404D02*
X962822D01*
X949798Y344396D02*
X962822D01*
X929478Y341404D02*
X942502D01*
X929478Y344396D02*
X942502D01*
X943800Y295610D02*
Y321610D01*
X935800Y295610D02*
Y321610D01*
X999150Y241380D02*
X1007150D01*
X1012150D02*
X1020150D01*
Y251380D01*
X1012150D02*
X1020150D01*
X999150D02*
X1007150D01*
X999150Y241380D02*
Y251380D01*
X1011000Y311110D02*
Y319110D01*
Y298110D02*
Y306110D01*
Y298110D02*
X1021000D01*
Y306110D01*
Y311110D02*
Y319110D01*
X1011000D02*
X1021000D01*
X999150Y256620D02*
X1007150D01*
X1012150D02*
X1020150D01*
Y266620D01*
X1012150D02*
X1020150D01*
X999150D02*
X1007150D01*
X999150Y256620D02*
Y266620D01*
X161007Y579140D02*
X169007D01*
X148007D02*
X156007D01*
X148007Y569140D02*
Y579140D01*
Y569140D02*
X156007D01*
X161007D02*
X169007D01*
Y579140D01*
X120840Y569140D02*
X128840D01*
X133840D02*
X141840D01*
Y579140D01*
X133840D02*
X141840D01*
X120840D02*
X128840D01*
X120840Y569140D02*
Y579140D01*
X246000Y523250D02*
X254000D01*
X233000D02*
X241000D01*
X233000Y513250D02*
Y523250D01*
Y513250D02*
X241000D01*
X246000D02*
X254000D01*
Y523250D01*
X188173Y579140D02*
X196174D01*
X175173D02*
X183173D01*
X175173Y569140D02*
Y579140D01*
Y569140D02*
X183173D01*
X188173D02*
X196174D01*
Y579140D01*
X202340Y569140D02*
X210340D01*
X215340D02*
X223340D01*
Y579140D01*
X215340D02*
X223340D01*
X202340D02*
X210340D01*
X202340Y569140D02*
Y579140D01*
X164540Y447640D02*
Y457640D01*
X156540Y447640D02*
X164540D01*
X143540D02*
X151540D01*
X143540D02*
Y457640D01*
X151540D01*
X156540D02*
X164540D01*
X156500Y445997D02*
X164500D01*
X143500D02*
X151500D01*
X143500Y435997D02*
Y445997D01*
Y435997D02*
X151500D01*
X156500D02*
X164500D01*
Y445997D01*
X145500Y542750D02*
X153500D01*
X132500D02*
X140500D01*
X132500Y532750D02*
Y542750D01*
Y532750D02*
X140500D01*
X145500D02*
X153500D01*
Y542750D01*
X209250Y410750D02*
X216250D01*
X189250D02*
X196250D01*
X209250Y423750D02*
X216250D01*
X189250D02*
X196250D01*
X189250Y410750D02*
Y423750D01*
X216250Y410750D02*
Y423750D01*
X223750Y485250D02*
X231750D01*
X210750D02*
X218750D01*
X210750Y475250D02*
Y485250D01*
Y475250D02*
X218750D01*
X223750D02*
X231750D01*
Y485250D01*
X195540Y447637D02*
Y457637D01*
X203540D01*
X208540D02*
X216540D01*
Y447637D02*
Y457637D01*
X208540Y447637D02*
X216540D01*
X195540D02*
X203540D01*
X185540Y457637D02*
X193540D01*
X172540D02*
X180540D01*
X172540Y447637D02*
Y457637D01*
Y447637D02*
X180540D01*
X185540D02*
X193540D01*
Y457637D01*
X906440Y200231D02*
X914440D01*
X919440D02*
X927440D01*
Y210231D01*
X919440D02*
X927440D01*
X906440D02*
X914440D01*
X906440Y200231D02*
Y210231D01*
X652000Y271500D02*
Y279500D01*
Y258500D02*
Y266500D01*
Y258500D02*
X662000D01*
Y266500D01*
Y271500D02*
Y279500D01*
X652000D02*
X662000D01*
X412225Y267120D02*
Y275120D01*
Y254120D02*
Y262120D01*
Y254120D02*
X422225D01*
Y262120D01*
Y267120D02*
Y275120D01*
X412225D02*
X422225D01*
X401400Y267120D02*
Y275120D01*
Y254120D02*
Y262120D01*
Y254120D02*
X411400D01*
Y262120D01*
Y267120D02*
Y275120D01*
X401400D02*
X411400D01*
X410290Y190540D02*
Y198540D01*
Y177540D02*
Y185540D01*
Y177540D02*
X420290D01*
Y185540D01*
Y190540D02*
Y198540D01*
X410290D02*
X420290D01*
X433205Y254100D02*
Y262100D01*
Y267100D02*
Y275100D01*
X423205D02*
X433205D01*
X423205Y267100D02*
Y275100D01*
Y254100D02*
Y262100D01*
Y254100D02*
X433205D01*
X352720Y311230D02*
X360720D01*
X365720D02*
X373720D01*
Y321230D01*
X365720D02*
X373720D01*
X352720D02*
X360720D01*
X352720Y311230D02*
Y321230D01*
X242230Y311230D02*
X250230D01*
X255230D02*
X263230D01*
Y321230D01*
X255230D02*
X263230D01*
X242230D02*
X250230D01*
X242230Y311230D02*
Y321230D01*
X220900Y153330D02*
Y161330D01*
Y166330D02*
Y174330D01*
X210900D02*
X220900D01*
X210900Y166330D02*
Y174330D01*
Y153330D02*
Y161330D01*
Y153330D02*
X220900D01*
X425288Y181384D02*
X438312D01*
X425288Y184376D02*
X438312D01*
X602000Y271500D02*
Y279500D01*
Y258500D02*
Y266500D01*
Y258500D02*
X612000D01*
Y266500D01*
Y271500D02*
Y279500D01*
X602000D02*
X612000D01*
X552000Y271500D02*
Y279500D01*
Y258500D02*
Y266500D01*
Y258500D02*
X562000D01*
Y266500D01*
Y271500D02*
Y279500D01*
X552000D02*
X562000D01*
X265229Y333930D02*
X273229D01*
X252230D02*
X260230D01*
X252230Y323930D02*
Y333930D01*
Y323930D02*
X260230D01*
X265229D02*
X273229D01*
Y333930D01*
X198200Y176329D02*
Y184329D01*
Y163330D02*
Y171330D01*
Y163330D02*
X208200D01*
Y171330D01*
Y176329D02*
Y184329D01*
X198200D02*
X208200D01*
X107910Y98980D02*
X115910D01*
X94910D02*
X102910D01*
X94910Y88980D02*
Y98980D01*
Y88980D02*
X102910D01*
X107910D02*
X115910D01*
Y98980D01*
X463470Y341290D02*
Y349290D01*
Y354290D02*
Y362290D01*
X453470D02*
X463470D01*
X453470Y354290D02*
Y362290D01*
Y341290D02*
Y349290D01*
Y341290D02*
X463470D01*
X502000Y271500D02*
Y279500D01*
Y258500D02*
Y266500D01*
Y258500D02*
X512000D01*
Y266500D01*
Y271500D02*
Y279500D01*
X502000D02*
X512000D01*
X1030000Y486500D02*
Y494500D01*
Y473500D02*
Y481500D01*
Y473500D02*
X1040000D01*
Y481500D01*
Y486500D02*
Y494500D01*
X1030000D02*
X1040000D01*
X26630Y355520D02*
X34630D01*
X13630D02*
X21630D01*
X13630Y345520D02*
Y355520D01*
Y345520D02*
X21630D01*
X26630D02*
X34630D01*
Y355520D01*
X596820Y341290D02*
Y349290D01*
Y354290D02*
Y362290D01*
X586820D02*
X596820D01*
X586820Y354290D02*
Y362290D01*
Y341290D02*
Y349290D01*
Y341290D02*
X596820D01*
X1030000Y534500D02*
Y542500D01*
Y521500D02*
Y529500D01*
Y521500D02*
X1040000D01*
Y529500D01*
Y534500D02*
Y542500D01*
X1030000D02*
X1040000D01*
X61040Y525740D02*
Y533740D01*
Y512740D02*
Y520740D01*
Y512740D02*
X71040D01*
Y520740D01*
Y525740D02*
Y533740D01*
X61040D02*
X71040D01*
X373400Y132050D02*
X381400D01*
X360400D02*
X368400D01*
X360400Y122050D02*
Y132050D01*
Y122050D02*
X368400D01*
X373400D02*
X381400D01*
Y132050D01*
X140250Y410750D02*
Y423750D01*
X167250Y410750D02*
Y423750D01*
X160250Y410750D02*
X167250D01*
X140250D02*
X147250D01*
X160250Y423750D02*
X167250D01*
X140250D02*
X147250D01*
X332250Y410750D02*
Y423750D01*
X359250Y410750D02*
Y423750D01*
X352250Y410750D02*
X359250D01*
X332250D02*
X339250D01*
X352250Y423750D02*
X359250D01*
X332250D02*
X339250D01*
X377540Y457637D02*
X385540D01*
X364540D02*
X372540D01*
X364540Y447637D02*
Y457637D01*
Y447637D02*
X372540D01*
X377540D02*
X385540D01*
Y457637D01*
X387540Y447637D02*
Y457637D01*
X395540D01*
X400540D02*
X408540D01*
Y447637D02*
Y457637D01*
X400540Y447637D02*
X408540D01*
X387540D02*
X395540D01*
X415750Y485250D02*
X423750D01*
X402750D02*
X410750D01*
X402750Y475250D02*
Y485250D01*
Y475250D02*
X410750D01*
X415750D02*
X423750D01*
Y485250D01*
X401250Y410750D02*
X408250D01*
X381250D02*
X388250D01*
X401250Y423750D02*
X408250D01*
X381250D02*
X388250D01*
X381250Y410750D02*
Y423750D01*
X408250Y410750D02*
Y423750D01*
X337500Y542750D02*
X345500D01*
X324500D02*
X332500D01*
X324500Y532750D02*
Y542750D01*
Y532750D02*
X332500D01*
X337500D02*
X345500D01*
Y542750D01*
X348500Y445997D02*
X356500D01*
X335500D02*
X343500D01*
X335500Y435997D02*
Y445997D01*
Y435997D02*
X343500D01*
X348500D02*
X356500D01*
Y445997D01*
X356540Y447640D02*
Y457640D01*
X348540Y447640D02*
X356540D01*
X335540D02*
X343540D01*
X335540D02*
Y457640D01*
X343540D01*
X348540D02*
X356540D01*
X394340Y569140D02*
X402340D01*
X407340D02*
X415340D01*
Y579140D01*
X407340D02*
X415340D01*
X394340D02*
X402340D01*
X394340Y569140D02*
Y579140D01*
X380173Y579140D02*
X388174D01*
X367173D02*
X375173D01*
X367173Y569140D02*
Y579140D01*
Y569140D02*
X375173D01*
X380173D02*
X388174D01*
Y579140D01*
X438000Y523250D02*
X446000D01*
X425000D02*
X433000D01*
X425000Y513250D02*
Y523250D01*
Y513250D02*
X433000D01*
X438000D02*
X446000D01*
Y523250D01*
X312840Y569140D02*
X320840D01*
X325840D02*
X333840D01*
Y579140D01*
X325840D02*
X333840D01*
X312840D02*
X320840D01*
X312840Y569140D02*
Y579140D01*
X353007D02*
X361007D01*
X340007D02*
X348007D01*
X340007Y569140D02*
Y579140D01*
Y569140D02*
X348007D01*
X353007D02*
X361007D01*
Y579140D01*
X426690Y509600D02*
X434310D01*
X426690Y496900D02*
X434310D01*
X293690Y509600D02*
X301310D01*
X293690Y496900D02*
X301310D01*
X282000Y523250D02*
X290000D01*
X295000D02*
X303000D01*
Y513250D02*
Y523250D01*
X295000Y513250D02*
X303000D01*
X282000D02*
X290000D01*
X282000D02*
Y523250D01*
X304250Y485250D02*
X312250D01*
X317250D02*
X325250D01*
Y475250D02*
Y485250D01*
X317250Y475250D02*
X325250D01*
X304250D02*
X312250D01*
X304250D02*
Y485250D01*
X474380Y537100D02*
X482380D01*
X487380D02*
X495380D01*
Y548100D01*
X487380D02*
X495380D01*
X474380D02*
X482380D01*
X474380Y537100D02*
Y548100D01*
X434250Y548250D02*
X443500D01*
X434250Y529750D02*
X443500D01*
Y543250D02*
Y548250D01*
Y529750D02*
Y534750D01*
X464600Y547600D02*
X472600D01*
X451600D02*
X459600D01*
X451600Y537600D02*
Y547600D01*
Y537600D02*
X459600D01*
X464600D02*
X472600D01*
Y547600D01*
X524250Y410750D02*
Y423750D01*
X551250Y410750D02*
Y423750D01*
X544250Y410750D02*
X551250D01*
X524250D02*
X531250D01*
X544250Y423750D02*
X551250D01*
X524250D02*
X531250D01*
X569540Y457637D02*
X577540D01*
X556540D02*
X564540D01*
X556540Y447637D02*
Y457637D01*
Y447637D02*
X564540D01*
X569540D02*
X577540D01*
Y457637D01*
X579540Y447637D02*
Y457637D01*
X587540D01*
X592540D02*
X600540D01*
Y447637D02*
Y457637D01*
X592540Y447637D02*
X600540D01*
X579540D02*
X587540D01*
X607750Y485250D02*
X615750D01*
X594750D02*
X602750D01*
X594750Y475250D02*
Y485250D01*
Y475250D02*
X602750D01*
X607750D02*
X615750D01*
Y485250D01*
X593250Y410750D02*
X600250D01*
X573250D02*
X580250D01*
X593250Y423750D02*
X600250D01*
X573250D02*
X580250D01*
X573250Y410750D02*
Y423750D01*
X600250Y410750D02*
Y423750D01*
X529500Y542750D02*
X537500D01*
X516500D02*
X524500D01*
X516500Y532750D02*
Y542750D01*
Y532750D02*
X524500D01*
X529500D02*
X537500D01*
Y542750D01*
X540500Y445997D02*
X548500D01*
X527500D02*
X535500D01*
X527500Y435997D02*
Y445997D01*
Y435997D02*
X535500D01*
X540500D02*
X548500D01*
Y445997D01*
X548540Y447640D02*
Y457640D01*
X540540Y447640D02*
X548540D01*
X527540D02*
X535540D01*
X527540D02*
Y457640D01*
X535540D01*
X540540D02*
X548540D01*
X586340Y569140D02*
X594340D01*
X599340D02*
X607340D01*
Y579140D01*
X599340D02*
X607340D01*
X586340D02*
X594340D01*
X586340Y569140D02*
Y579140D01*
X572173Y579140D02*
X580174D01*
X559173D02*
X567173D01*
X559173Y569140D02*
Y579140D01*
Y569140D02*
X567173D01*
X572173D02*
X580174D01*
Y579140D01*
X630000Y523250D02*
X638000D01*
X617000D02*
X625000D01*
X617000Y513250D02*
Y523250D01*
Y513250D02*
X625000D01*
X630000D02*
X638000D01*
Y523250D01*
X504840Y569140D02*
X512840D01*
X517840D02*
X525840D01*
Y579140D01*
X517840D02*
X525840D01*
X504840D02*
X512840D01*
X504840Y569140D02*
Y579140D01*
X545007D02*
X553007D01*
X532007D02*
X540007D01*
X532007Y569140D02*
Y579140D01*
Y569140D02*
X540007D01*
X545007D02*
X553007D01*
Y579140D01*
X618690Y509600D02*
X626310D01*
X618690Y496900D02*
X626310D01*
X485690Y509600D02*
X493310D01*
X485690Y496900D02*
X493310D01*
X474000Y523250D02*
X482000D01*
X487000D02*
X495000D01*
Y513250D02*
Y523250D01*
X487000Y513250D02*
X495000D01*
X474000D02*
X482000D01*
X474000D02*
Y523250D01*
X496250Y485250D02*
X504250D01*
X509250D02*
X517250D01*
Y475250D02*
Y485250D01*
X509250Y475250D02*
X517250D01*
X496250D02*
X504250D01*
X496250D02*
Y485250D01*
X666380Y537100D02*
X674380D01*
X679380D02*
X687380D01*
Y548100D01*
X679380D02*
X687380D01*
X666380D02*
X674380D01*
X666380Y537100D02*
Y548100D01*
X626250Y548250D02*
X635500D01*
X626250Y529750D02*
X635500D01*
Y543250D02*
Y548250D01*
Y529750D02*
Y534750D01*
X656600Y547600D02*
X664600D01*
X643600D02*
X651600D01*
X643600Y537600D02*
Y547600D01*
Y537600D02*
X651600D01*
X656600D02*
X664600D01*
Y547600D01*
X716250Y410750D02*
Y423750D01*
X743250Y410750D02*
Y423750D01*
X736250Y410750D02*
X743250D01*
X716250D02*
X723250D01*
X736250Y423750D02*
X743250D01*
X716250D02*
X723250D01*
X761540Y457637D02*
X769540D01*
X748540D02*
X756540D01*
X748540Y447637D02*
Y457637D01*
Y447637D02*
X756540D01*
X761540D02*
X769540D01*
Y457637D01*
X771540Y447637D02*
Y457637D01*
X779540D01*
X784540D02*
X792540D01*
Y447637D02*
Y457637D01*
X784540Y447637D02*
X792540D01*
X771540D02*
X779540D01*
X799750Y485250D02*
X807750D01*
X786750D02*
X794750D01*
X786750Y475250D02*
Y485250D01*
Y475250D02*
X794750D01*
X799750D02*
X807750D01*
Y485250D01*
X785250Y410750D02*
X792250D01*
X765250D02*
X772250D01*
X785250Y423750D02*
X792250D01*
X765250D02*
X772250D01*
X765250Y410750D02*
Y423750D01*
X792250Y410750D02*
Y423750D01*
X721500Y542750D02*
X729500D01*
X708500D02*
X716500D01*
X708500Y532750D02*
Y542750D01*
Y532750D02*
X716500D01*
X721500D02*
X729500D01*
Y542750D01*
X732500Y445997D02*
X740500D01*
X719500D02*
X727500D01*
X719500Y435997D02*
Y445997D01*
Y435997D02*
X727500D01*
X732500D02*
X740500D01*
Y445997D01*
X740540Y447640D02*
Y457640D01*
X732540Y447640D02*
X740540D01*
X719540D02*
X727540D01*
X719540D02*
Y457640D01*
X727540D01*
X732540D02*
X740540D01*
X778340Y569140D02*
X786340D01*
X791340D02*
X799340D01*
Y579140D01*
X791340D02*
X799340D01*
X778340D02*
X786340D01*
X778340Y569140D02*
Y579140D01*
X764173Y579140D02*
X772174D01*
X751173D02*
X759173D01*
X751173Y569140D02*
Y579140D01*
Y569140D02*
X759173D01*
X764173D02*
X772174D01*
Y579140D01*
X822000Y523250D02*
X830000D01*
X809000D02*
X817000D01*
X809000Y513250D02*
Y523250D01*
Y513250D02*
X817000D01*
X822000D02*
X830000D01*
Y523250D01*
X696840Y569140D02*
X704840D01*
X709840D02*
X717840D01*
Y579140D01*
X709840D02*
X717840D01*
X696840D02*
X704840D01*
X696840Y569140D02*
Y579140D01*
X737007D02*
X745007D01*
X724007D02*
X732007D01*
X724007Y569140D02*
Y579140D01*
Y569140D02*
X732007D01*
X737007D02*
X745007D01*
Y579140D01*
X810690Y509600D02*
X818310D01*
X810690Y496900D02*
X818310D01*
X677690Y509600D02*
X685310D01*
X677690Y496900D02*
X685310D01*
X666000Y523250D02*
X674000D01*
X679000D02*
X687000D01*
Y513250D02*
Y523250D01*
X679000Y513250D02*
X687000D01*
X666000D02*
X674000D01*
X666000D02*
Y523250D01*
X688250Y485250D02*
X696250D01*
X701250D02*
X709250D01*
Y475250D02*
Y485250D01*
X701250Y475250D02*
X709250D01*
X688250D02*
X696250D01*
X688250D02*
Y485250D01*
X858380Y537100D02*
X866380D01*
X871380D02*
X879380D01*
Y548100D01*
X871380D02*
X879380D01*
X858380D02*
X866380D01*
X858380Y537100D02*
Y548100D01*
X818250Y548250D02*
X827500D01*
X818250Y529750D02*
X827500D01*
Y543250D02*
Y548250D01*
Y529750D02*
Y534750D01*
X848600Y547600D02*
X856600D01*
X835600D02*
X843600D01*
X835600Y537600D02*
Y547600D01*
Y537600D02*
X843600D01*
X848600D02*
X856600D01*
Y547600D01*
X908250Y410750D02*
Y423750D01*
X935250Y410750D02*
Y423750D01*
X928250Y410750D02*
X935250D01*
X908250D02*
X915250D01*
X928250Y423750D02*
X935250D01*
X908250D02*
X915250D01*
X953540Y457637D02*
X961540D01*
X940540D02*
X948540D01*
X940540Y447637D02*
Y457637D01*
Y447637D02*
X948540D01*
X953540D02*
X961540D01*
Y457637D01*
X963540Y447637D02*
Y457637D01*
X971540D01*
X976540D02*
X984540D01*
Y447637D02*
Y457637D01*
X976540Y447637D02*
X984540D01*
X963540D02*
X971540D01*
X991750Y485250D02*
X999750D01*
X978750D02*
X986750D01*
X978750Y475250D02*
Y485250D01*
Y475250D02*
X986750D01*
X991750D02*
X999750D01*
Y485250D01*
X977250Y410750D02*
X984250D01*
X957250D02*
X964250D01*
X977250Y423750D02*
X984250D01*
X957250D02*
X964250D01*
X957250Y410750D02*
Y423750D01*
X984250Y410750D02*
Y423750D01*
X913500Y542750D02*
X921500D01*
X900500D02*
X908500D01*
X900500Y532750D02*
Y542750D01*
Y532750D02*
X908500D01*
X913500D02*
X921500D01*
Y542750D01*
X924500Y445997D02*
X932500D01*
X911500D02*
X919500D01*
X911500Y435997D02*
Y445997D01*
Y435997D02*
X919500D01*
X924500D02*
X932500D01*
Y445997D01*
X932540Y447640D02*
Y457640D01*
X924540Y447640D02*
X932540D01*
X911540D02*
X919540D01*
X911540D02*
Y457640D01*
X919540D01*
X924540D02*
X932540D01*
X970340Y569140D02*
X978340D01*
X983340D02*
X991340D01*
Y579140D01*
X983340D02*
X991340D01*
X970340D02*
X978340D01*
X970340Y569140D02*
Y579140D01*
X956173Y579140D02*
X964174D01*
X943173D02*
X951173D01*
X943173Y569140D02*
Y579140D01*
Y569140D02*
X951173D01*
X956173D02*
X964174D01*
Y579140D01*
X1014000Y523250D02*
X1022000D01*
X1001000D02*
X1009000D01*
X1001000Y513250D02*
Y523250D01*
Y513250D02*
X1009000D01*
X1014000D02*
X1022000D01*
Y523250D01*
X888840Y569140D02*
X896840D01*
X901840D02*
X909840D01*
Y579140D01*
X901840D02*
X909840D01*
X888840D02*
X896840D01*
X888840Y569140D02*
Y579140D01*
X929007D02*
X937007D01*
X916007D02*
X924007D01*
X916007Y569140D02*
Y579140D01*
Y569140D02*
X924007D01*
X929007D02*
X937007D01*
Y579140D01*
X1002690Y509600D02*
X1010310D01*
X1002690Y496900D02*
X1010310D01*
X869690Y509600D02*
X877310D01*
X869690Y496900D02*
X877310D01*
X858000Y523250D02*
X866000D01*
X871000D02*
X879000D01*
Y513250D02*
Y523250D01*
X871000Y513250D02*
X879000D01*
X858000D02*
X866000D01*
X858000D02*
Y523250D01*
X880250Y485250D02*
X888250D01*
X893250D02*
X901250D01*
Y475250D02*
Y485250D01*
X893250Y475250D02*
X901250D01*
X880250D02*
X888250D01*
X880250D02*
Y485250D01*
D15*
X366400Y169100D02*
G03*
X366400Y169100I-3000J0D01*
G01*
D16*
X1090000Y30000D02*
G03*
X1090000Y30000I-20000J0D01*
G01*
X50000Y30000D02*
G03*
X50000Y30000I-20000J0D01*
G01*
X1090000Y610000D02*
G03*
X1090000Y610000I-20000J0D01*
G01*
X50000D02*
G03*
X50000Y610000I-20000J0D01*
G01*
X752045Y313132D02*
X751997Y313180D01*
X751950Y313132D01*
X751997Y313085D01*
X752045Y313132D01*
X1087475Y155652D02*
X1087428Y155700D01*
X1087380Y155652D01*
X1087428Y155605D01*
X1087475Y155652D01*
X727096Y187402D02*
X727048Y187450D01*
X727000Y187402D01*
X727048Y187355D01*
X727096Y187402D01*
X657095D02*
X657048Y187450D01*
X657000Y187402D01*
X657048Y187355D01*
X657095Y187402D01*
X587095Y187402D02*
X587048Y187450D01*
X587000Y187402D01*
X587048Y187355D01*
X587095Y187402D01*
X517245Y187403D02*
X517198Y187450D01*
X517150Y187403D01*
X517198Y187355D01*
X517245Y187403D01*
D17*
X1099000Y30000D02*
G03*
X1099000Y30000I-29000J0D01*
G01*
X59000Y30000D02*
G03*
X59000Y30000I-29000J0D01*
G01*
X1099000Y610000D02*
G03*
X1099000Y610000I-29000J0D01*
G01*
X59000D02*
G03*
X59000Y610000I-29000J0D01*
G01*
X298449Y354896D02*
Y342900D01*
X304447D01*
X306447Y344899D01*
Y346899D01*
Y348898D01*
X304447Y350897D01*
X298449D01*
X310445D02*
Y344899D01*
X312445Y342900D01*
X318443D01*
Y340901D01*
X316443Y338901D01*
X314444D01*
X318443Y342900D02*
Y350897D01*
X334437Y342900D02*
Y350897D01*
X338436Y354896D01*
X342435Y350897D01*
Y342900D01*
Y348898D01*
X334437D01*
X346434Y350897D02*
Y344899D01*
X348433Y342900D01*
X354431D01*
Y350897D01*
X358430Y342900D02*
X364428D01*
X366427Y344899D01*
X364428Y346899D01*
X360429D01*
X358430Y348898D01*
X360429Y350897D01*
X366427D01*
X370426Y352897D02*
X372425Y354896D01*
X376424D01*
X378423Y352897D01*
Y350897D01*
X376424Y348898D01*
X374425D01*
X376424D01*
X378423Y346899D01*
Y344899D01*
X376424Y342900D01*
X372425D01*
X370426Y344899D01*
X382422Y354896D02*
Y342900D01*
X388420D01*
X390419Y344899D01*
Y352897D01*
X388420Y354896D01*
X382422D01*
D18*
X252903Y408036D02*
Y418036D01*
X247653Y413036D02*
X258153D01*
X927750Y187190D02*
Y196670D01*
X929440Y189480D02*
Y194380D01*
X928540Y188330D02*
Y195880D01*
X927490Y196930D02*
X929490Y194930D01*
X906440Y196930D02*
X927490D01*
X927750Y196670D02*
X928540Y195880D01*
X929440Y194980D01*
X906440Y186930D02*
X927490D01*
X906440D02*
Y196930D01*
X927490Y186930D02*
X929440Y188880D01*
Y194380D02*
Y194980D01*
Y188880D02*
Y190630D01*
X704739Y283830D02*
X714219D01*
X707029Y282140D02*
X711929D01*
X705879Y283040D02*
X713429D01*
X712479Y282090D02*
X714479Y284090D01*
Y305140D01*
X713429Y283040D02*
X714219Y283830D01*
X712529Y282140D02*
X713429Y283040D01*
X704479Y284090D02*
Y305140D01*
X714479D01*
X704479Y284090D02*
X706429Y282140D01*
X711929D02*
X712529D01*
X706429D02*
X708179D01*
X679790Y168260D02*
X689270D01*
X682080Y166570D02*
X686980D01*
X680930Y167470D02*
X688480D01*
X687530Y166520D02*
X689530Y168520D01*
Y189570D01*
X688480Y167470D02*
X689270Y168260D01*
X687580Y166570D02*
X688480Y167470D01*
X679530Y168520D02*
Y189570D01*
X689530D01*
X679530Y168520D02*
X681480Y166570D01*
X686980D02*
X687580D01*
X681480D02*
X683230D01*
X540090Y168260D02*
X549570D01*
X542380Y166570D02*
X547280D01*
X541230Y167470D02*
X548780D01*
X547830Y166520D02*
X549830Y168520D01*
Y189570D01*
X548780Y167470D02*
X549570Y168260D01*
X547880Y166570D02*
X548780Y167470D01*
X539830Y168520D02*
Y189570D01*
X549830D01*
X539830Y168520D02*
X541780Y166570D01*
X547280D02*
X547880D01*
X541780D02*
X543530D01*
X470240Y168260D02*
X479720D01*
X472530Y166570D02*
X477430D01*
X471380Y167470D02*
X478930D01*
X477980Y166520D02*
X479980Y168520D01*
Y189570D01*
X478930Y167470D02*
X479720Y168260D01*
X478030Y166570D02*
X478930Y167470D01*
X469980Y168520D02*
Y189570D01*
X479980D01*
X469980Y168520D02*
X471930Y166570D01*
X477430D02*
X478030D01*
X471930D02*
X473680D01*
X609940Y168260D02*
X619420D01*
X612230Y166570D02*
X617130D01*
X611080Y167470D02*
X618630D01*
X617680Y166520D02*
X619680Y168520D01*
Y189570D01*
X618630Y167470D02*
X619420Y168260D01*
X617730Y166570D02*
X618630Y167470D01*
X609680Y168520D02*
Y189570D01*
X619680D01*
X609680Y168520D02*
X611630Y166570D01*
X617130D02*
X617730D01*
X611630D02*
X613380D01*
X881140Y206840D02*
Y216840D01*
X875890Y211840D02*
X886390D01*
X822720Y171670D02*
Y177670D01*
X825720D01*
Y171670D02*
Y177670D01*
X789720Y135670D02*
Y171670D01*
X825720Y135670D02*
Y171670D01*
X789720D02*
X792720D01*
X822720D02*
X825720D01*
X789720Y135670D02*
X792720D01*
X822720D02*
X825720D01*
X966554Y239000D02*
X976554D01*
X971554Y233750D02*
Y244251D01*
X842625Y318980D02*
X847875D01*
X845250Y316355D02*
Y321605D01*
X856180Y232440D02*
Y234190D01*
Y228090D02*
Y228690D01*
Y234190D02*
X858130Y236140D01*
X879180Y226140D02*
Y236140D01*
X858130D02*
X879180D01*
X856180Y228090D02*
X857080Y227190D01*
X857870Y226400D01*
X858130Y226140D02*
X879180D01*
X856130Y228140D02*
X858130Y226140D01*
X857080Y227190D02*
Y234740D01*
X856180Y228690D02*
Y233590D01*
X857870Y226400D02*
Y235880D01*
X856180Y243870D02*
Y245620D01*
Y239520D02*
Y240120D01*
Y245620D02*
X858130Y247570D01*
X879180Y237570D02*
Y247570D01*
X858130D02*
X879180D01*
X856180Y239520D02*
X857080Y238620D01*
X857870Y237830D01*
X858130Y237570D02*
X879180D01*
X856130Y239570D02*
X858130Y237570D01*
X857080Y238620D02*
Y246170D01*
X856180Y240120D02*
Y245020D01*
X857870Y237830D02*
Y247310D01*
X106480Y174750D02*
Y176500D01*
Y180250D02*
Y180850D01*
X104530Y172800D02*
X106480Y174750D01*
X83480Y172800D02*
Y182800D01*
Y172800D02*
X104530D01*
X105580Y181750D02*
X106480Y180850D01*
X104790Y182540D02*
X105580Y181750D01*
X83480Y182800D02*
X104530D01*
X106530Y180800D01*
X105580Y174200D02*
Y181750D01*
X106480Y175350D02*
Y180250D01*
X104790Y173060D02*
Y182540D01*
X1030000Y321110D02*
X1031750D01*
X1025650D02*
X1026250D01*
X1031750D02*
X1033700Y319160D01*
X1023700Y298110D02*
X1033700D01*
Y319160D01*
X1024750Y320210D02*
X1025650Y321110D01*
X1023960Y319420D02*
X1024750Y320210D01*
X1023700Y298110D02*
Y319160D01*
X1025700Y321160D01*
X1024750Y320210D02*
X1032300D01*
X1026250Y321110D02*
X1031150D01*
X1023960Y319420D02*
X1033440D01*
X856180Y269270D02*
Y271020D01*
Y264920D02*
Y265520D01*
Y271020D02*
X858130Y272970D01*
X879180Y262970D02*
Y272970D01*
X858130D02*
X879180D01*
X856180Y264920D02*
X857080Y264020D01*
X857870Y263230D01*
X858130Y262970D02*
X879180D01*
X856130Y264970D02*
X858130Y262970D01*
X857080Y264020D02*
Y271570D01*
X856180Y265520D02*
Y270420D01*
X857870Y263230D02*
Y272710D01*
X856180Y294670D02*
Y296420D01*
Y290320D02*
Y290920D01*
Y296420D02*
X858130Y298370D01*
X879180Y288370D02*
Y298370D01*
X858130D02*
X879180D01*
X856180Y290320D02*
X857080Y289420D01*
X857870Y288630D01*
X858130Y288370D02*
X879180D01*
X856130Y290370D02*
X858130Y288370D01*
X857080Y289420D02*
Y296970D01*
X856180Y290920D02*
Y295820D01*
X857870Y288630D02*
Y298110D01*
X66240Y603280D02*
Y605030D01*
Y598930D02*
Y599530D01*
Y605030D02*
X68190Y606980D01*
X89240Y596980D02*
Y606980D01*
X68190D02*
X89240D01*
X66240Y598930D02*
X67140Y598030D01*
X67930Y597240D01*
X68190Y596980D02*
X89240D01*
X66190Y598980D02*
X68190Y596980D01*
X67140Y598030D02*
Y605580D01*
X66240Y599530D02*
Y604430D01*
X67930Y597240D02*
Y606720D01*
X444903Y408036D02*
Y418036D01*
X439653Y413036D02*
X450153D01*
X636903Y408036D02*
Y418036D01*
X631653Y413036D02*
X642153D01*
X828903Y408036D02*
Y418036D01*
X823653Y413036D02*
X834153D01*
D19*
X992124Y252476D02*
Y255524D01*
X983996Y252476D02*
Y255524D01*
X414476Y282936D02*
X417524D01*
X414476Y291064D02*
X417524D01*
X74676Y96774D02*
X77724D01*
X74676Y88646D02*
X77724D01*
D20*
X876292Y319270D02*
X884428Y327406D01*
Y332486D01*
X830072Y327406D02*
Y332486D01*
Y327406D02*
X838208Y319270D01*
D21*
X231474Y544048D02*
X231450Y544024D01*
X231474Y544000D01*
X231498Y544024D01*
X231474Y544048D01*
X771038Y156686D02*
X771014Y156710D01*
X770990Y156686D01*
X771014Y156662D01*
X771038Y156686D01*
X666952Y257474D02*
X666976Y257450D01*
X667000Y257474D01*
X666976Y257498D01*
X666952Y257474D01*
X616952D02*
X616976Y257450D01*
X617000Y257474D01*
X616976Y257498D01*
X616952Y257474D01*
X566952D02*
X566976Y257450D01*
X567000Y257474D01*
X566976Y257498D01*
X566952Y257474D01*
X516952D02*
X516976Y257450D01*
X517000Y257474D01*
X516976Y257498D01*
X516952Y257474D01*
X1026224Y513048D02*
X1026200Y513024D01*
X1026224Y513000D01*
X1026248Y513024D01*
X1026224Y513048D01*
Y561048D02*
X1026200Y561024D01*
X1026224Y561000D01*
X1026248Y561024D01*
X1026224Y561048D01*
X423474Y544048D02*
X423450Y544024D01*
X423474Y544000D01*
X423498Y544024D01*
X423474Y544048D01*
X615474D02*
X615450Y544024D01*
X615474Y544000D01*
X615498Y544024D01*
X615474Y544048D01*
X807474D02*
X807450Y544024D01*
X807474Y544000D01*
X807498Y544024D01*
X807474Y544048D01*
D22*
X916405Y369092D02*
X916357Y369140D01*
X916310Y369092D01*
X916357Y369045D01*
X916405Y369092D01*
D23*
X931298Y205095D02*
X931250Y205048D01*
X931298Y205000D01*
X931345Y205048D01*
X931298Y205095D01*
D24*
X797560Y267100D02*
D03*
D25*
X721360Y241300D02*
D03*
D26*
X702366Y13400D02*
D03*
X632365D02*
D03*
X562365D02*
D03*
X492365D02*
D03*
D27*
X732520Y13502D02*
D03*
D28*
X717216Y1044D02*
D03*
X647216D02*
D03*
X577215D02*
D03*
X813895D02*
D03*
X1013895D02*
D03*
X913895D02*
D03*
X507215D02*
D03*
D29*
X717216Y24765D02*
D03*
X647216D02*
D03*
X577215D02*
D03*
X507215D02*
D03*
D30*
X707691Y20364D02*
D03*
X637691D02*
D03*
X567690D02*
D03*
X804369D02*
D03*
X1004369D02*
D03*
X904370D02*
D03*
X497690D02*
D03*
D31*
X725471Y20503D02*
D03*
X655471D02*
D03*
X585470D02*
D03*
X822149D02*
D03*
X1022149D02*
D03*
X922150D02*
D03*
X515470D02*
D03*
D32*
X726106Y3993D02*
D03*
X656106D02*
D03*
X586105D02*
D03*
X822785D02*
D03*
X1022785D02*
D03*
X922785D02*
D03*
X516105D02*
D03*
D33*
X706421D02*
D03*
X636421D02*
D03*
X566420D02*
D03*
X803100D02*
D03*
X1003100D02*
D03*
X903100D02*
D03*
X496420D02*
D03*
D34*
X709596Y23069D02*
D03*
X639596D02*
D03*
X569595D02*
D03*
X806274D02*
D03*
X1006274D02*
D03*
X906274D02*
D03*
X499595D02*
D03*
D35*
X724515Y21849D02*
D03*
X654515D02*
D03*
X584515D02*
D03*
X821194D02*
D03*
X1021194D02*
D03*
X921194D02*
D03*
X514515D02*
D03*
D36*
X723312Y2723D02*
D03*
X653312D02*
D03*
X583311D02*
D03*
X819991D02*
D03*
X1019991D02*
D03*
X919991D02*
D03*
X513311D02*
D03*
D37*
X708961Y1440D02*
D03*
X638961D02*
D03*
X568960D02*
D03*
X805640D02*
D03*
X1005640D02*
D03*
X498960D02*
D03*
X905640D02*
D03*
D38*
X662026Y13502D02*
D03*
X592025D02*
D03*
X522025D02*
D03*
D39*
X813894Y27115D02*
D03*
X1013894D02*
D03*
X913895D02*
D03*
D40*
X831166Y16350D02*
D03*
X931167D02*
D03*
D41*
X795479Y15950D02*
D03*
X995479D02*
D03*
X895480D02*
D03*
D42*
X1031810Y16350D02*
D03*
D43*
X824220Y174670D02*
D03*
D44*
X359094Y6021D02*
D03*
X344870D02*
D03*
D45*
X166296Y6001D02*
D03*
X152072D02*
D03*
D46*
X951500Y198500D02*
D03*
M02*
