G04*
G04 #@! TF.GenerationSoftware,Altium Limited,Altium Designer,18.1.4 (159)*
G04*
G04 Layer_Physical_Order=2*
G04 Layer_Color=36540*
%FSLAX44Y44*%
%MOMM*%
G71*
G01*
G75*
%ADD152C,0.6000*%
%ADD153C,1.5000*%
%ADD157R,1.5000X1.5000*%
%ADD158O,3.0000X4.0000*%
%ADD162C,0.8000*%
%ADD163C,0.7000*%
G36*
X1050611Y636181D02*
X1046948Y633052D01*
X1043625Y629162D01*
X1040952Y624800D01*
X1038995Y620074D01*
X1037801Y615100D01*
X1037399Y610000D01*
X1037801Y604900D01*
X1038995Y599926D01*
X1040952Y595200D01*
X1043625Y590838D01*
X1046948Y586948D01*
X1050837Y583626D01*
X1055199Y580953D01*
X1059926Y578995D01*
X1064900Y577801D01*
X1070000Y577399D01*
X1075099Y577801D01*
X1080074Y578995D01*
X1084800Y580953D01*
X1089162Y583626D01*
X1093052Y586948D01*
X1096181Y590612D01*
X1097451Y590355D01*
Y49644D01*
X1096181Y49388D01*
X1093052Y53052D01*
X1089162Y56374D01*
X1084800Y59047D01*
X1080073Y61005D01*
X1075099Y62199D01*
X1069999Y62600D01*
X1064900Y62199D01*
X1059925Y61005D01*
X1055199Y59047D01*
X1050837Y56374D01*
X1046947Y53052D01*
X1043625Y49162D01*
X1040952Y44800D01*
X1038995Y40074D01*
X1037800Y35100D01*
X1037399Y30000D01*
X1037800Y24900D01*
X1038995Y19926D01*
X1040952Y15199D01*
X1043625Y10838D01*
X1046947Y6948D01*
X1050611Y3819D01*
X1050353Y2549D01*
X49646D01*
X49388Y3819D01*
X53052Y6948D01*
X56374Y10838D01*
X59047Y15199D01*
X61005Y19926D01*
X62199Y24900D01*
X62600Y30000D01*
X62199Y35100D01*
X61005Y40074D01*
X59047Y44800D01*
X56374Y49162D01*
X53052Y53052D01*
X49162Y56374D01*
X44800Y59047D01*
X40074Y61005D01*
X35100Y62199D01*
X30000Y62600D01*
X24900Y62199D01*
X19926Y61005D01*
X15199Y59047D01*
X10838Y56374D01*
X6948Y53052D01*
X3819Y49388D01*
X2549Y49646D01*
Y590354D01*
X3819Y590611D01*
X6948Y586948D01*
X10838Y583626D01*
X15200Y580953D01*
X19926Y578995D01*
X24900Y577801D01*
X30000Y577399D01*
X35100Y577801D01*
X40074Y578995D01*
X44800Y580953D01*
X49162Y583626D01*
X53052Y586948D01*
X56374Y590838D01*
X59047Y595200D01*
X61005Y599926D01*
X62199Y604900D01*
X62600Y610000D01*
X62199Y615100D01*
X61005Y620074D01*
X59047Y624800D01*
X56374Y629162D01*
X53052Y633052D01*
X49389Y636181D01*
X49646Y637451D01*
X1050354D01*
X1050611Y636181D01*
D02*
G37*
%LPC*%
G36*
X845150Y633422D02*
Y624750D01*
X853822D01*
X853643Y626110D01*
X852635Y628543D01*
X851032Y630632D01*
X848943Y632235D01*
X846511Y633243D01*
X845150Y633422D01*
D02*
G37*
G36*
X842650D02*
X841290Y633243D01*
X838857Y632235D01*
X836768Y630632D01*
X835165Y628543D01*
X834157Y626110D01*
X833978Y624750D01*
X842650D01*
Y633422D01*
D02*
G37*
G36*
X653150D02*
Y624750D01*
X661822D01*
X661643Y626110D01*
X660635Y628543D01*
X659032Y630632D01*
X656943Y632235D01*
X654511Y633243D01*
X653150Y633422D01*
D02*
G37*
G36*
X650650D02*
X649290Y633243D01*
X646857Y632235D01*
X644768Y630632D01*
X643165Y628543D01*
X642158Y626110D01*
X641978Y624750D01*
X650650D01*
Y633422D01*
D02*
G37*
G36*
X461150D02*
Y624750D01*
X469822D01*
X469643Y626110D01*
X468635Y628543D01*
X467032Y630632D01*
X464943Y632235D01*
X462511Y633243D01*
X461150Y633422D01*
D02*
G37*
G36*
X458650D02*
X457290Y633243D01*
X454857Y632235D01*
X452768Y630632D01*
X451165Y628543D01*
X450158Y626110D01*
X449978Y624750D01*
X458650D01*
Y633422D01*
D02*
G37*
G36*
X269150D02*
Y624750D01*
X277822D01*
X277643Y626110D01*
X276635Y628543D01*
X275032Y630632D01*
X272943Y632235D01*
X270511Y633243D01*
X269150Y633422D01*
D02*
G37*
G36*
X266650D02*
X265289Y633243D01*
X262857Y632235D01*
X260768Y630632D01*
X259165Y628543D01*
X258158Y626110D01*
X257978Y624750D01*
X266650D01*
Y633422D01*
D02*
G37*
G36*
X1003000Y625098D02*
X1001049Y624710D01*
X999395Y623605D01*
X998290Y621951D01*
X997902Y620000D01*
X998290Y618049D01*
X999395Y616395D01*
X1001049Y615290D01*
X1003000Y614902D01*
X1004951Y615290D01*
X1006605Y616395D01*
X1007710Y618049D01*
X1008098Y620000D01*
X1007710Y621951D01*
X1006605Y623605D01*
X1004951Y624710D01*
X1003000Y625098D01*
D02*
G37*
G36*
X828000Y633000D02*
X809000D01*
Y614000D01*
X828000D01*
Y633000D01*
D02*
G37*
G36*
X636000D02*
X617000D01*
Y614000D01*
X636000D01*
Y633000D01*
D02*
G37*
G36*
X444000D02*
X425000D01*
Y614000D01*
X444000D01*
Y633000D01*
D02*
G37*
G36*
X252000D02*
X233000D01*
Y614000D01*
X252000D01*
Y633000D01*
D02*
G37*
G36*
X987500Y633000D02*
X968500D01*
Y614000D01*
X987500D01*
Y633000D01*
D02*
G37*
G36*
X795500D02*
X776500D01*
Y614000D01*
X795500D01*
Y633000D01*
D02*
G37*
G36*
X603500D02*
X584500D01*
Y614000D01*
X603500D01*
Y633000D01*
D02*
G37*
G36*
X411500D02*
X392500D01*
Y614000D01*
X411500D01*
Y633000D01*
D02*
G37*
G36*
X219500D02*
X200500D01*
Y614000D01*
X219500D01*
Y633000D01*
D02*
G37*
G36*
X869300Y633082D02*
X866820Y632756D01*
X864509Y631798D01*
X862525Y630275D01*
X861002Y628291D01*
X860045Y625980D01*
X859718Y623500D01*
X860045Y621020D01*
X861002Y618709D01*
X862525Y616725D01*
X864509Y615202D01*
X866820Y614244D01*
X869300Y613918D01*
X871780Y614244D01*
X874091Y615202D01*
X876076Y616725D01*
X877598Y618709D01*
X878556Y621020D01*
X878882Y623500D01*
X878556Y625980D01*
X877598Y628291D01*
X876076Y630275D01*
X874091Y631798D01*
X871780Y632756D01*
X869300Y633082D01*
D02*
G37*
G36*
X677300D02*
X674820Y632756D01*
X672509Y631798D01*
X670525Y630275D01*
X669002Y628291D01*
X668045Y625980D01*
X667718Y623500D01*
X668045Y621020D01*
X669002Y618709D01*
X670525Y616725D01*
X672509Y615202D01*
X674820Y614244D01*
X677300Y613918D01*
X679780Y614244D01*
X682091Y615202D01*
X684075Y616725D01*
X685598Y618709D01*
X686555Y621020D01*
X686882Y623500D01*
X686555Y625980D01*
X685598Y628291D01*
X684075Y630275D01*
X682091Y631798D01*
X679780Y632756D01*
X677300Y633082D01*
D02*
G37*
G36*
X485300D02*
X482820Y632756D01*
X480509Y631798D01*
X478525Y630275D01*
X477002Y628291D01*
X476045Y625980D01*
X475718Y623500D01*
X476045Y621020D01*
X477002Y618709D01*
X478525Y616725D01*
X480509Y615202D01*
X482820Y614244D01*
X485300Y613918D01*
X487780Y614244D01*
X490091Y615202D01*
X492076Y616725D01*
X493598Y618709D01*
X494556Y621020D01*
X494882Y623500D01*
X494556Y625980D01*
X493598Y628291D01*
X492076Y630275D01*
X490091Y631798D01*
X487780Y632756D01*
X485300Y633082D01*
D02*
G37*
G36*
X293300D02*
X290820Y632756D01*
X288509Y631798D01*
X286525Y630275D01*
X285002Y628291D01*
X284045Y625980D01*
X283718Y623500D01*
X284045Y621020D01*
X285002Y618709D01*
X286525Y616725D01*
X288509Y615202D01*
X290820Y614244D01*
X293300Y613918D01*
X295780Y614244D01*
X298091Y615202D01*
X300075Y616725D01*
X301598Y618709D01*
X302556Y621020D01*
X302882Y623500D01*
X302556Y625980D01*
X301598Y628291D01*
X300075Y630275D01*
X298091Y631798D01*
X295780Y632756D01*
X293300Y633082D01*
D02*
G37*
G36*
X952600Y633082D02*
X950120Y632755D01*
X947809Y631798D01*
X945825Y630275D01*
X944302Y628291D01*
X943345Y625980D01*
X943018Y623500D01*
X943345Y621020D01*
X944302Y618709D01*
X945825Y616724D01*
X947809Y615202D01*
X950120Y614244D01*
X952600Y613918D01*
X955080Y614244D01*
X957391Y615202D01*
X959376Y616724D01*
X960898Y618709D01*
X961855Y621020D01*
X962182Y623500D01*
X961855Y625980D01*
X960898Y628291D01*
X959376Y630275D01*
X957391Y631798D01*
X955080Y632755D01*
X952600Y633082D01*
D02*
G37*
G36*
X927200D02*
X924720Y632755D01*
X922409Y631798D01*
X920425Y630275D01*
X918902Y628291D01*
X917945Y625980D01*
X917618Y623500D01*
X917945Y621020D01*
X918902Y618709D01*
X920425Y616724D01*
X922409Y615202D01*
X924720Y614244D01*
X927200Y613918D01*
X929680Y614244D01*
X931991Y615202D01*
X933976Y616724D01*
X935498Y618709D01*
X936456Y621020D01*
X936782Y623500D01*
X936456Y625980D01*
X935498Y628291D01*
X933976Y630275D01*
X931991Y631798D01*
X929680Y632755D01*
X927200Y633082D01*
D02*
G37*
G36*
X901800D02*
X899320Y632755D01*
X897009Y631798D01*
X895025Y630275D01*
X893502Y628291D01*
X892545Y625980D01*
X892218Y623500D01*
X892545Y621020D01*
X893502Y618709D01*
X895025Y616724D01*
X897009Y615202D01*
X899320Y614244D01*
X901800Y613918D01*
X904280Y614244D01*
X906591Y615202D01*
X908576Y616724D01*
X910098Y618709D01*
X911056Y621020D01*
X911382Y623500D01*
X911056Y625980D01*
X910098Y628291D01*
X908576Y630275D01*
X906591Y631798D01*
X904280Y632755D01*
X901800Y633082D01*
D02*
G37*
G36*
X760600D02*
X758120Y632755D01*
X755809Y631798D01*
X753825Y630275D01*
X752302Y628291D01*
X751345Y625980D01*
X751018Y623500D01*
X751345Y621020D01*
X752302Y618709D01*
X753825Y616724D01*
X755809Y615202D01*
X758120Y614244D01*
X760600Y613918D01*
X763080Y614244D01*
X765391Y615202D01*
X767375Y616724D01*
X768898Y618709D01*
X769855Y621020D01*
X770182Y623500D01*
X769855Y625980D01*
X768898Y628291D01*
X767375Y630275D01*
X765391Y631798D01*
X763080Y632755D01*
X760600Y633082D01*
D02*
G37*
G36*
X735200D02*
X732720Y632755D01*
X730409Y631798D01*
X728425Y630275D01*
X726902Y628291D01*
X725945Y625980D01*
X725618Y623500D01*
X725945Y621020D01*
X726902Y618709D01*
X728425Y616724D01*
X730409Y615202D01*
X732720Y614244D01*
X735200Y613918D01*
X737680Y614244D01*
X739991Y615202D01*
X741975Y616724D01*
X743498Y618709D01*
X744455Y621020D01*
X744782Y623500D01*
X744455Y625980D01*
X743498Y628291D01*
X741975Y630275D01*
X739991Y631798D01*
X737680Y632755D01*
X735200Y633082D01*
D02*
G37*
G36*
X709800D02*
X707320Y632755D01*
X705009Y631798D01*
X703025Y630275D01*
X701502Y628291D01*
X700545Y625980D01*
X700218Y623500D01*
X700545Y621020D01*
X701502Y618709D01*
X703025Y616724D01*
X705009Y615202D01*
X707320Y614244D01*
X709800Y613918D01*
X712280Y614244D01*
X714591Y615202D01*
X716575Y616724D01*
X718098Y618709D01*
X719055Y621020D01*
X719382Y623500D01*
X719055Y625980D01*
X718098Y628291D01*
X716575Y630275D01*
X714591Y631798D01*
X712280Y632755D01*
X709800Y633082D01*
D02*
G37*
G36*
X568600D02*
X566120Y632755D01*
X563809Y631798D01*
X561825Y630275D01*
X560302Y628291D01*
X559345Y625980D01*
X559018Y623500D01*
X559345Y621020D01*
X560302Y618709D01*
X561825Y616724D01*
X563809Y615202D01*
X566120Y614244D01*
X568600Y613918D01*
X571080Y614244D01*
X573391Y615202D01*
X575376Y616724D01*
X576898Y618709D01*
X577855Y621020D01*
X578182Y623500D01*
X577855Y625980D01*
X576898Y628291D01*
X575376Y630275D01*
X573391Y631798D01*
X571080Y632755D01*
X568600Y633082D01*
D02*
G37*
G36*
X543200D02*
X540720Y632755D01*
X538409Y631798D01*
X536425Y630275D01*
X534902Y628291D01*
X533945Y625980D01*
X533618Y623500D01*
X533945Y621020D01*
X534902Y618709D01*
X536425Y616724D01*
X538409Y615202D01*
X540720Y614244D01*
X543200Y613918D01*
X545680Y614244D01*
X547991Y615202D01*
X549976Y616724D01*
X551498Y618709D01*
X552455Y621020D01*
X552782Y623500D01*
X552455Y625980D01*
X551498Y628291D01*
X549976Y630275D01*
X547991Y631798D01*
X545680Y632755D01*
X543200Y633082D01*
D02*
G37*
G36*
X517800D02*
X515320Y632755D01*
X513009Y631798D01*
X511025Y630275D01*
X509502Y628291D01*
X508545Y625980D01*
X508218Y623500D01*
X508545Y621020D01*
X509502Y618709D01*
X511025Y616724D01*
X513009Y615202D01*
X515320Y614244D01*
X517800Y613918D01*
X520280Y614244D01*
X522591Y615202D01*
X524576Y616724D01*
X526098Y618709D01*
X527056Y621020D01*
X527382Y623500D01*
X527056Y625980D01*
X526098Y628291D01*
X524576Y630275D01*
X522591Y631798D01*
X520280Y632755D01*
X517800Y633082D01*
D02*
G37*
G36*
X376600D02*
X374120Y632755D01*
X371809Y631798D01*
X369825Y630275D01*
X368302Y628291D01*
X367345Y625980D01*
X367018Y623500D01*
X367345Y621020D01*
X368302Y618709D01*
X369825Y616724D01*
X371809Y615202D01*
X374120Y614244D01*
X376600Y613918D01*
X379080Y614244D01*
X381391Y615202D01*
X383376Y616724D01*
X384898Y618709D01*
X385855Y621020D01*
X386182Y623500D01*
X385855Y625980D01*
X384898Y628291D01*
X383376Y630275D01*
X381391Y631798D01*
X379080Y632755D01*
X376600Y633082D01*
D02*
G37*
G36*
X351200D02*
X348720Y632755D01*
X346409Y631798D01*
X344425Y630275D01*
X342902Y628291D01*
X341945Y625980D01*
X341618Y623500D01*
X341945Y621020D01*
X342902Y618709D01*
X344425Y616724D01*
X346409Y615202D01*
X348720Y614244D01*
X351200Y613918D01*
X353680Y614244D01*
X355991Y615202D01*
X357976Y616724D01*
X359498Y618709D01*
X360456Y621020D01*
X360782Y623500D01*
X360456Y625980D01*
X359498Y628291D01*
X357976Y630275D01*
X355991Y631798D01*
X353680Y632755D01*
X351200Y633082D01*
D02*
G37*
G36*
X325800D02*
X323320Y632755D01*
X321009Y631798D01*
X319025Y630275D01*
X317502Y628291D01*
X316545Y625980D01*
X316218Y623500D01*
X316545Y621020D01*
X317502Y618709D01*
X319025Y616724D01*
X321009Y615202D01*
X323320Y614244D01*
X325800Y613918D01*
X328280Y614244D01*
X330591Y615202D01*
X332575Y616724D01*
X334098Y618709D01*
X335056Y621020D01*
X335382Y623500D01*
X335056Y625980D01*
X334098Y628291D01*
X332575Y630275D01*
X330591Y631798D01*
X328280Y632755D01*
X325800Y633082D01*
D02*
G37*
G36*
X184600D02*
X182120Y632755D01*
X179809Y631798D01*
X177825Y630275D01*
X176302Y628291D01*
X175345Y625980D01*
X175018Y623500D01*
X175345Y621020D01*
X176302Y618709D01*
X177825Y616724D01*
X179809Y615202D01*
X182120Y614244D01*
X184600Y613918D01*
X187080Y614244D01*
X189391Y615202D01*
X191376Y616724D01*
X192898Y618709D01*
X193855Y621020D01*
X194182Y623500D01*
X193855Y625980D01*
X192898Y628291D01*
X191376Y630275D01*
X189391Y631798D01*
X187080Y632755D01*
X184600Y633082D01*
D02*
G37*
G36*
X159200D02*
X156720Y632755D01*
X154409Y631798D01*
X152425Y630275D01*
X150902Y628291D01*
X149945Y625980D01*
X149618Y623500D01*
X149945Y621020D01*
X150902Y618709D01*
X152425Y616724D01*
X154409Y615202D01*
X156720Y614244D01*
X159200Y613918D01*
X161680Y614244D01*
X163991Y615202D01*
X165975Y616724D01*
X167498Y618709D01*
X168456Y621020D01*
X168782Y623500D01*
X168456Y625980D01*
X167498Y628291D01*
X165975Y630275D01*
X163991Y631798D01*
X161680Y632755D01*
X159200Y633082D01*
D02*
G37*
G36*
X133800D02*
X131320Y632755D01*
X129009Y631798D01*
X127025Y630275D01*
X125502Y628291D01*
X124545Y625980D01*
X124218Y623500D01*
X124545Y621020D01*
X125502Y618709D01*
X127025Y616724D01*
X129009Y615202D01*
X131320Y614244D01*
X133800Y613918D01*
X136280Y614244D01*
X138591Y615202D01*
X140576Y616724D01*
X142098Y618709D01*
X143055Y621020D01*
X143382Y623500D01*
X143055Y625980D01*
X142098Y628291D01*
X140576Y630275D01*
X138591Y631798D01*
X136280Y632755D01*
X133800Y633082D01*
D02*
G37*
G36*
X853822Y622250D02*
X845150D01*
Y613578D01*
X846511Y613757D01*
X848943Y614765D01*
X851032Y616368D01*
X852635Y618457D01*
X853643Y620890D01*
X853822Y622250D01*
D02*
G37*
G36*
X842650D02*
X833978D01*
X834157Y620890D01*
X835165Y618457D01*
X836768Y616368D01*
X838857Y614765D01*
X841290Y613757D01*
X842650Y613578D01*
Y622250D01*
D02*
G37*
G36*
X661822D02*
X653150D01*
Y613578D01*
X654511Y613757D01*
X656943Y614765D01*
X659032Y616368D01*
X660635Y618457D01*
X661643Y620890D01*
X661822Y622250D01*
D02*
G37*
G36*
X650650D02*
X641978D01*
X642158Y620890D01*
X643165Y618457D01*
X644768Y616368D01*
X646857Y614765D01*
X649290Y613757D01*
X650650Y613578D01*
Y622250D01*
D02*
G37*
G36*
X469822D02*
X461150D01*
Y613578D01*
X462511Y613757D01*
X464943Y614765D01*
X467032Y616368D01*
X468635Y618457D01*
X469643Y620890D01*
X469822Y622250D01*
D02*
G37*
G36*
X458650D02*
X449978D01*
X450158Y620890D01*
X451165Y618457D01*
X452768Y616368D01*
X454857Y614765D01*
X457290Y613757D01*
X458650Y613578D01*
Y622250D01*
D02*
G37*
G36*
X277822D02*
X269150D01*
Y613578D01*
X270511Y613757D01*
X272943Y614765D01*
X275032Y616368D01*
X276635Y618457D01*
X277643Y620890D01*
X277822Y622250D01*
D02*
G37*
G36*
X266650D02*
X257978D01*
X258158Y620890D01*
X259165Y618457D01*
X260768Y616368D01*
X262857Y614765D01*
X265289Y613757D01*
X266650Y613578D01*
Y622250D01*
D02*
G37*
G36*
X992000Y614098D02*
X990049Y613710D01*
X988395Y612605D01*
X987290Y610951D01*
X986902Y609000D01*
X987290Y607049D01*
X988395Y605395D01*
X990049Y604290D01*
X992000Y603902D01*
X993951Y604290D01*
X995605Y605395D01*
X996710Y607049D01*
X997098Y609000D01*
X996710Y610951D01*
X995605Y612605D01*
X993951Y613710D01*
X992000Y614098D01*
D02*
G37*
G36*
X978000Y607682D02*
X975520Y607355D01*
X973209Y606398D01*
X971225Y604875D01*
X969702Y602891D01*
X968745Y600580D01*
X968418Y598100D01*
X968745Y595620D01*
X969702Y593309D01*
X971225Y591324D01*
X973209Y589802D01*
X975520Y588844D01*
X978000Y588518D01*
X980480Y588844D01*
X982791Y589802D01*
X984775Y591324D01*
X986298Y593309D01*
X987255Y595620D01*
X987582Y598100D01*
X987255Y600580D01*
X986298Y602891D01*
X984775Y604875D01*
X982791Y606398D01*
X980480Y607355D01*
X978000Y607682D01*
D02*
G37*
G36*
X952600D02*
X950120Y607355D01*
X947809Y606398D01*
X945825Y604875D01*
X944302Y602891D01*
X943345Y600580D01*
X943018Y598100D01*
X943345Y595620D01*
X944302Y593309D01*
X945825Y591324D01*
X947809Y589802D01*
X950120Y588844D01*
X952600Y588518D01*
X955080Y588844D01*
X957391Y589802D01*
X959376Y591324D01*
X960898Y593309D01*
X961855Y595620D01*
X962182Y598100D01*
X961855Y600580D01*
X960898Y602891D01*
X959376Y604875D01*
X957391Y606398D01*
X955080Y607355D01*
X952600Y607682D01*
D02*
G37*
G36*
X927200D02*
X924720Y607355D01*
X922409Y606398D01*
X920425Y604875D01*
X918902Y602891D01*
X917945Y600580D01*
X917618Y598100D01*
X917945Y595620D01*
X918902Y593309D01*
X920425Y591324D01*
X922409Y589802D01*
X924720Y588844D01*
X927200Y588518D01*
X929680Y588844D01*
X931991Y589802D01*
X933976Y591324D01*
X935498Y593309D01*
X936456Y595620D01*
X936782Y598100D01*
X936456Y600580D01*
X935498Y602891D01*
X933976Y604875D01*
X931991Y606398D01*
X929680Y607355D01*
X927200Y607682D01*
D02*
G37*
G36*
X901800D02*
X899320Y607355D01*
X897009Y606398D01*
X895025Y604875D01*
X893502Y602891D01*
X892545Y600580D01*
X892218Y598100D01*
X892545Y595620D01*
X893502Y593309D01*
X895025Y591324D01*
X897009Y589802D01*
X899320Y588844D01*
X901800Y588518D01*
X904280Y588844D01*
X906591Y589802D01*
X908576Y591324D01*
X910098Y593309D01*
X911056Y595620D01*
X911382Y598100D01*
X911056Y600580D01*
X910098Y602891D01*
X908576Y604875D01*
X906591Y606398D01*
X904280Y607355D01*
X901800Y607682D01*
D02*
G37*
G36*
X786000D02*
X783520Y607355D01*
X781209Y606398D01*
X779225Y604875D01*
X777702Y602891D01*
X776745Y600580D01*
X776418Y598100D01*
X776745Y595620D01*
X777702Y593309D01*
X779225Y591324D01*
X781209Y589802D01*
X783520Y588844D01*
X786000Y588518D01*
X788480Y588844D01*
X790791Y589802D01*
X792775Y591324D01*
X794298Y593309D01*
X795256Y595620D01*
X795582Y598100D01*
X795256Y600580D01*
X794298Y602891D01*
X792775Y604875D01*
X790791Y606398D01*
X788480Y607355D01*
X786000Y607682D01*
D02*
G37*
G36*
X760600D02*
X758120Y607355D01*
X755809Y606398D01*
X753825Y604875D01*
X752302Y602891D01*
X751345Y600580D01*
X751018Y598100D01*
X751345Y595620D01*
X752302Y593309D01*
X753825Y591324D01*
X755809Y589802D01*
X758120Y588844D01*
X760600Y588518D01*
X763080Y588844D01*
X765391Y589802D01*
X767375Y591324D01*
X768898Y593309D01*
X769855Y595620D01*
X770182Y598100D01*
X769855Y600580D01*
X768898Y602891D01*
X767375Y604875D01*
X765391Y606398D01*
X763080Y607355D01*
X760600Y607682D01*
D02*
G37*
G36*
X735200D02*
X732720Y607355D01*
X730409Y606398D01*
X728425Y604875D01*
X726902Y602891D01*
X725945Y600580D01*
X725618Y598100D01*
X725945Y595620D01*
X726902Y593309D01*
X728425Y591324D01*
X730409Y589802D01*
X732720Y588844D01*
X735200Y588518D01*
X737680Y588844D01*
X739991Y589802D01*
X741975Y591324D01*
X743498Y593309D01*
X744455Y595620D01*
X744782Y598100D01*
X744455Y600580D01*
X743498Y602891D01*
X741975Y604875D01*
X739991Y606398D01*
X737680Y607355D01*
X735200Y607682D01*
D02*
G37*
G36*
X709800D02*
X707320Y607355D01*
X705009Y606398D01*
X703025Y604875D01*
X701502Y602891D01*
X700545Y600580D01*
X700218Y598100D01*
X700545Y595620D01*
X701502Y593309D01*
X703025Y591324D01*
X705009Y589802D01*
X707320Y588844D01*
X709800Y588518D01*
X712280Y588844D01*
X714591Y589802D01*
X716575Y591324D01*
X718098Y593309D01*
X719055Y595620D01*
X719382Y598100D01*
X719055Y600580D01*
X718098Y602891D01*
X716575Y604875D01*
X714591Y606398D01*
X712280Y607355D01*
X709800Y607682D01*
D02*
G37*
G36*
X594000D02*
X591520Y607355D01*
X589209Y606398D01*
X587225Y604875D01*
X585702Y602891D01*
X584745Y600580D01*
X584418Y598100D01*
X584745Y595620D01*
X585702Y593309D01*
X587225Y591324D01*
X589209Y589802D01*
X591520Y588844D01*
X594000Y588518D01*
X596480Y588844D01*
X598791Y589802D01*
X600775Y591324D01*
X602298Y593309D01*
X603256Y595620D01*
X603582Y598100D01*
X603256Y600580D01*
X602298Y602891D01*
X600775Y604875D01*
X598791Y606398D01*
X596480Y607355D01*
X594000Y607682D01*
D02*
G37*
G36*
X568600D02*
X566120Y607355D01*
X563809Y606398D01*
X561825Y604875D01*
X560302Y602891D01*
X559345Y600580D01*
X559018Y598100D01*
X559345Y595620D01*
X560302Y593309D01*
X561825Y591324D01*
X563809Y589802D01*
X566120Y588844D01*
X568600Y588518D01*
X571080Y588844D01*
X573391Y589802D01*
X575376Y591324D01*
X576898Y593309D01*
X577855Y595620D01*
X578182Y598100D01*
X577855Y600580D01*
X576898Y602891D01*
X575376Y604875D01*
X573391Y606398D01*
X571080Y607355D01*
X568600Y607682D01*
D02*
G37*
G36*
X543200D02*
X540720Y607355D01*
X538409Y606398D01*
X536425Y604875D01*
X534902Y602891D01*
X533945Y600580D01*
X533618Y598100D01*
X533945Y595620D01*
X534902Y593309D01*
X536425Y591324D01*
X538409Y589802D01*
X540720Y588844D01*
X543200Y588518D01*
X545680Y588844D01*
X547991Y589802D01*
X549976Y591324D01*
X551498Y593309D01*
X552455Y595620D01*
X552782Y598100D01*
X552455Y600580D01*
X551498Y602891D01*
X549976Y604875D01*
X547991Y606398D01*
X545680Y607355D01*
X543200Y607682D01*
D02*
G37*
G36*
X517800D02*
X515320Y607355D01*
X513009Y606398D01*
X511025Y604875D01*
X509502Y602891D01*
X508545Y600580D01*
X508218Y598100D01*
X508545Y595620D01*
X509502Y593309D01*
X511025Y591324D01*
X513009Y589802D01*
X515320Y588844D01*
X517800Y588518D01*
X520280Y588844D01*
X522591Y589802D01*
X524576Y591324D01*
X526098Y593309D01*
X527056Y595620D01*
X527382Y598100D01*
X527056Y600580D01*
X526098Y602891D01*
X524576Y604875D01*
X522591Y606398D01*
X520280Y607355D01*
X517800Y607682D01*
D02*
G37*
G36*
X402000D02*
X399520Y607355D01*
X397209Y606398D01*
X395225Y604875D01*
X393702Y602891D01*
X392745Y600580D01*
X392418Y598100D01*
X392745Y595620D01*
X393702Y593309D01*
X395225Y591324D01*
X397209Y589802D01*
X399520Y588844D01*
X402000Y588518D01*
X404480Y588844D01*
X406791Y589802D01*
X408775Y591324D01*
X410298Y593309D01*
X411255Y595620D01*
X411582Y598100D01*
X411255Y600580D01*
X410298Y602891D01*
X408775Y604875D01*
X406791Y606398D01*
X404480Y607355D01*
X402000Y607682D01*
D02*
G37*
G36*
X376600D02*
X374120Y607355D01*
X371809Y606398D01*
X369825Y604875D01*
X368302Y602891D01*
X367345Y600580D01*
X367018Y598100D01*
X367345Y595620D01*
X368302Y593309D01*
X369825Y591324D01*
X371809Y589802D01*
X374120Y588844D01*
X376600Y588518D01*
X379080Y588844D01*
X381391Y589802D01*
X383376Y591324D01*
X384898Y593309D01*
X385855Y595620D01*
X386182Y598100D01*
X385855Y600580D01*
X384898Y602891D01*
X383376Y604875D01*
X381391Y606398D01*
X379080Y607355D01*
X376600Y607682D01*
D02*
G37*
G36*
X351200D02*
X348720Y607355D01*
X346409Y606398D01*
X344425Y604875D01*
X342902Y602891D01*
X341945Y600580D01*
X341618Y598100D01*
X341945Y595620D01*
X342902Y593309D01*
X344425Y591324D01*
X346409Y589802D01*
X348720Y588844D01*
X351200Y588518D01*
X353680Y588844D01*
X355991Y589802D01*
X357976Y591324D01*
X359498Y593309D01*
X360456Y595620D01*
X360782Y598100D01*
X360456Y600580D01*
X359498Y602891D01*
X357976Y604875D01*
X355991Y606398D01*
X353680Y607355D01*
X351200Y607682D01*
D02*
G37*
G36*
X325800D02*
X323320Y607355D01*
X321009Y606398D01*
X319025Y604875D01*
X317502Y602891D01*
X316545Y600580D01*
X316218Y598100D01*
X316545Y595620D01*
X317502Y593309D01*
X319025Y591324D01*
X321009Y589802D01*
X323320Y588844D01*
X325800Y588518D01*
X328280Y588844D01*
X330591Y589802D01*
X332575Y591324D01*
X334098Y593309D01*
X335056Y595620D01*
X335382Y598100D01*
X335056Y600580D01*
X334098Y602891D01*
X332575Y604875D01*
X330591Y606398D01*
X328280Y607355D01*
X325800Y607682D01*
D02*
G37*
G36*
X210000D02*
X207520Y607355D01*
X205209Y606398D01*
X203225Y604875D01*
X201702Y602891D01*
X200745Y600580D01*
X200418Y598100D01*
X200745Y595620D01*
X201702Y593309D01*
X203225Y591324D01*
X205209Y589802D01*
X207520Y588844D01*
X210000Y588518D01*
X212480Y588844D01*
X214791Y589802D01*
X216775Y591324D01*
X218298Y593309D01*
X219256Y595620D01*
X219582Y598100D01*
X219256Y600580D01*
X218298Y602891D01*
X216775Y604875D01*
X214791Y606398D01*
X212480Y607355D01*
X210000Y607682D01*
D02*
G37*
G36*
X184600D02*
X182120Y607355D01*
X179809Y606398D01*
X177825Y604875D01*
X176302Y602891D01*
X175345Y600580D01*
X175018Y598100D01*
X175345Y595620D01*
X176302Y593309D01*
X177825Y591324D01*
X179809Y589802D01*
X182120Y588844D01*
X184600Y588518D01*
X187080Y588844D01*
X189391Y589802D01*
X191376Y591324D01*
X192898Y593309D01*
X193855Y595620D01*
X194182Y598100D01*
X193855Y600580D01*
X192898Y602891D01*
X191376Y604875D01*
X189391Y606398D01*
X187080Y607355D01*
X184600Y607682D01*
D02*
G37*
G36*
X159200D02*
X156720Y607355D01*
X154409Y606398D01*
X152425Y604875D01*
X150902Y602891D01*
X149945Y600580D01*
X149618Y598100D01*
X149945Y595620D01*
X150902Y593309D01*
X152425Y591324D01*
X154409Y589802D01*
X156720Y588844D01*
X159200Y588518D01*
X161680Y588844D01*
X163991Y589802D01*
X165975Y591324D01*
X167498Y593309D01*
X168456Y595620D01*
X168782Y598100D01*
X168456Y600580D01*
X167498Y602891D01*
X165975Y604875D01*
X163991Y606398D01*
X161680Y607355D01*
X159200Y607682D01*
D02*
G37*
G36*
X133800D02*
X131320Y607355D01*
X129009Y606398D01*
X127025Y604875D01*
X125502Y602891D01*
X124545Y600580D01*
X124218Y598100D01*
X124545Y595620D01*
X125502Y593309D01*
X127025Y591324D01*
X129009Y589802D01*
X131320Y588844D01*
X133800Y588518D01*
X136280Y588844D01*
X138591Y589802D01*
X140576Y591324D01*
X142098Y593309D01*
X143055Y595620D01*
X143382Y598100D01*
X143055Y600580D01*
X142098Y602891D01*
X140576Y604875D01*
X138591Y606398D01*
X136280Y607355D01*
X133800Y607682D01*
D02*
G37*
G36*
X108000Y596098D02*
X106049Y595710D01*
X104395Y594605D01*
X103290Y592951D01*
X102902Y591000D01*
X103290Y589049D01*
X104395Y587395D01*
X106049Y586290D01*
X108000Y585902D01*
X109951Y586290D01*
X111605Y587395D01*
X112710Y589049D01*
X113098Y591000D01*
X112710Y592951D01*
X111605Y594605D01*
X109951Y595710D01*
X108000Y596098D01*
D02*
G37*
G36*
X1013000Y586098D02*
X1011049Y585710D01*
X1009395Y584605D01*
X1008290Y582951D01*
X1007902Y581000D01*
X1008290Y579049D01*
X1009395Y577395D01*
X1011049Y576290D01*
X1013000Y575902D01*
X1014951Y576290D01*
X1016605Y577395D01*
X1017710Y579049D01*
X1018098Y581000D01*
X1017710Y582951D01*
X1016605Y584605D01*
X1014951Y585710D01*
X1013000Y586098D01*
D02*
G37*
G36*
X960763Y570608D02*
X958617Y570181D01*
X957263Y569276D01*
X955909Y570181D01*
X953763Y570608D01*
X951617Y570181D01*
X950263Y569276D01*
X948909Y570181D01*
X946763Y570608D01*
X944617Y570181D01*
X942798Y568965D01*
X941582Y567146D01*
X941156Y565000D01*
X941582Y562854D01*
X942798Y561035D01*
X944617Y559819D01*
X946763Y559392D01*
X948909Y559819D01*
X950263Y560724D01*
X951617Y559819D01*
X953763Y559392D01*
X955909Y559819D01*
X957263Y560724D01*
X958617Y559819D01*
X960763Y559392D01*
X962909Y559819D01*
X964729Y561035D01*
X965944Y562854D01*
X966371Y565000D01*
X965944Y567146D01*
X964729Y568965D01*
X962909Y570181D01*
X960763Y570608D01*
D02*
G37*
G36*
X933417D02*
X931271Y570181D01*
X929917Y569276D01*
X928563Y570181D01*
X926417Y570608D01*
X924271Y570181D01*
X922917Y569276D01*
X921563Y570181D01*
X919417Y570608D01*
X917271Y570181D01*
X915452Y568965D01*
X914236Y567146D01*
X913809Y565000D01*
X914236Y562854D01*
X915452Y561035D01*
X917271Y559819D01*
X919417Y559392D01*
X921563Y559819D01*
X922917Y560724D01*
X924271Y559819D01*
X926417Y559392D01*
X928563Y559819D01*
X929917Y560724D01*
X931271Y559819D01*
X933417Y559392D01*
X935563Y559819D01*
X937382Y561035D01*
X938598Y562854D01*
X939025Y565000D01*
X938598Y567146D01*
X937382Y568965D01*
X935563Y570181D01*
X933417Y570608D01*
D02*
G37*
G36*
X906430D02*
X904284Y570181D01*
X902930Y569276D01*
X901576Y570181D01*
X899430Y570608D01*
X897284Y570181D01*
X895930Y569276D01*
X894576Y570181D01*
X892430Y570608D01*
X890284Y570181D01*
X888465Y568965D01*
X887249Y567146D01*
X886822Y565000D01*
X887249Y562854D01*
X888465Y561035D01*
X890284Y559819D01*
X892430Y559392D01*
X894576Y559819D01*
X895930Y560724D01*
X897284Y559819D01*
X899430Y559392D01*
X901576Y559819D01*
X902930Y560724D01*
X904284Y559819D01*
X906430Y559392D01*
X908576Y559819D01*
X910395Y561035D01*
X911611Y562854D01*
X912037Y565000D01*
X911611Y567146D01*
X910395Y568965D01*
X908576Y570181D01*
X906430Y570608D01*
D02*
G37*
G36*
X768763D02*
X766617Y570181D01*
X765263Y569276D01*
X763909Y570181D01*
X761763Y570608D01*
X759617Y570181D01*
X758263Y569276D01*
X756909Y570181D01*
X754763Y570608D01*
X752617Y570181D01*
X750798Y568965D01*
X749583Y567146D01*
X749156Y565000D01*
X749583Y562854D01*
X750798Y561035D01*
X752617Y559819D01*
X754763Y559392D01*
X756909Y559819D01*
X758263Y560724D01*
X759617Y559819D01*
X761763Y559392D01*
X763909Y559819D01*
X765263Y560724D01*
X766617Y559819D01*
X768763Y559392D01*
X770909Y559819D01*
X772729Y561035D01*
X773944Y562854D01*
X774371Y565000D01*
X773944Y567146D01*
X772729Y568965D01*
X770909Y570181D01*
X768763Y570608D01*
D02*
G37*
G36*
X741417D02*
X739271Y570181D01*
X737917Y569276D01*
X736563Y570181D01*
X734417Y570608D01*
X732271Y570181D01*
X730917Y569276D01*
X729563Y570181D01*
X727417Y570608D01*
X725271Y570181D01*
X723452Y568965D01*
X722236Y567146D01*
X721809Y565000D01*
X722236Y562854D01*
X723452Y561035D01*
X725271Y559819D01*
X727417Y559392D01*
X729563Y559819D01*
X730917Y560724D01*
X732271Y559819D01*
X734417Y559392D01*
X736563Y559819D01*
X737917Y560724D01*
X739271Y559819D01*
X741417Y559392D01*
X743563Y559819D01*
X745382Y561035D01*
X746598Y562854D01*
X747025Y565000D01*
X746598Y567146D01*
X745382Y568965D01*
X743563Y570181D01*
X741417Y570608D01*
D02*
G37*
G36*
X714430D02*
X712284Y570181D01*
X710930Y569276D01*
X709576Y570181D01*
X707430Y570608D01*
X705284Y570181D01*
X703930Y569276D01*
X702576Y570181D01*
X700430Y570608D01*
X698284Y570181D01*
X696464Y568965D01*
X695249Y567146D01*
X694822Y565000D01*
X695249Y562854D01*
X696464Y561035D01*
X698284Y559819D01*
X700430Y559392D01*
X702576Y559819D01*
X703930Y560724D01*
X705284Y559819D01*
X707430Y559392D01*
X709576Y559819D01*
X710930Y560724D01*
X712284Y559819D01*
X714430Y559392D01*
X716576Y559819D01*
X718395Y561035D01*
X719611Y562854D01*
X720037Y565000D01*
X719611Y567146D01*
X718395Y568965D01*
X716576Y570181D01*
X714430Y570608D01*
D02*
G37*
G36*
X576763D02*
X574617Y570181D01*
X573263Y569276D01*
X571909Y570181D01*
X569763Y570608D01*
X567617Y570181D01*
X566263Y569276D01*
X564909Y570181D01*
X562763Y570608D01*
X560617Y570181D01*
X558798Y568965D01*
X557583Y567146D01*
X557156Y565000D01*
X557583Y562854D01*
X558798Y561035D01*
X560617Y559819D01*
X562763Y559392D01*
X564909Y559819D01*
X566263Y560724D01*
X567617Y559819D01*
X569763Y559392D01*
X571909Y559819D01*
X573263Y560724D01*
X574617Y559819D01*
X576763Y559392D01*
X578909Y559819D01*
X580729Y561035D01*
X581944Y562854D01*
X582371Y565000D01*
X581944Y567146D01*
X580729Y568965D01*
X578909Y570181D01*
X576763Y570608D01*
D02*
G37*
G36*
X549417D02*
X547271Y570181D01*
X545917Y569276D01*
X544563Y570181D01*
X542417Y570608D01*
X540271Y570181D01*
X538917Y569276D01*
X537563Y570181D01*
X535417Y570608D01*
X533271Y570181D01*
X531452Y568965D01*
X530236Y567146D01*
X529809Y565000D01*
X530236Y562854D01*
X531452Y561035D01*
X533271Y559819D01*
X535417Y559392D01*
X537563Y559819D01*
X538917Y560724D01*
X540271Y559819D01*
X542417Y559392D01*
X544563Y559819D01*
X545917Y560724D01*
X547271Y559819D01*
X549417Y559392D01*
X551563Y559819D01*
X553382Y561035D01*
X554598Y562854D01*
X555025Y565000D01*
X554598Y567146D01*
X553382Y568965D01*
X551563Y570181D01*
X549417Y570608D01*
D02*
G37*
G36*
X522430D02*
X520284Y570181D01*
X518930Y569276D01*
X517576Y570181D01*
X515430Y570608D01*
X513284Y570181D01*
X511930Y569276D01*
X510576Y570181D01*
X508430Y570608D01*
X506284Y570181D01*
X504464Y568965D01*
X503249Y567146D01*
X502822Y565000D01*
X503249Y562854D01*
X504464Y561035D01*
X506284Y559819D01*
X508430Y559392D01*
X510576Y559819D01*
X511930Y560724D01*
X513284Y559819D01*
X515430Y559392D01*
X517576Y559819D01*
X518930Y560724D01*
X520284Y559819D01*
X522430Y559392D01*
X524576Y559819D01*
X526395Y561035D01*
X527611Y562854D01*
X528037Y565000D01*
X527611Y567146D01*
X526395Y568965D01*
X524576Y570181D01*
X522430Y570608D01*
D02*
G37*
G36*
X384763D02*
X382617Y570181D01*
X381263Y569276D01*
X379909Y570181D01*
X377763Y570608D01*
X375617Y570181D01*
X374263Y569276D01*
X372909Y570181D01*
X370763Y570608D01*
X368617Y570181D01*
X366798Y568965D01*
X365583Y567146D01*
X365156Y565000D01*
X365583Y562854D01*
X366798Y561035D01*
X368617Y559819D01*
X370763Y559392D01*
X372909Y559819D01*
X374263Y560724D01*
X375617Y559819D01*
X377763Y559392D01*
X379909Y559819D01*
X381263Y560724D01*
X382617Y559819D01*
X384763Y559392D01*
X386909Y559819D01*
X388729Y561035D01*
X389944Y562854D01*
X390371Y565000D01*
X389944Y567146D01*
X388729Y568965D01*
X386909Y570181D01*
X384763Y570608D01*
D02*
G37*
G36*
X357417D02*
X355271Y570181D01*
X353917Y569276D01*
X352563Y570181D01*
X350417Y570608D01*
X348271Y570181D01*
X346917Y569276D01*
X345563Y570181D01*
X343417Y570608D01*
X341271Y570181D01*
X339452Y568965D01*
X338236Y567146D01*
X337809Y565000D01*
X338236Y562854D01*
X339452Y561035D01*
X341271Y559819D01*
X343417Y559392D01*
X345563Y559819D01*
X346917Y560724D01*
X348271Y559819D01*
X350417Y559392D01*
X352563Y559819D01*
X353917Y560724D01*
X355271Y559819D01*
X357417Y559392D01*
X359563Y559819D01*
X361382Y561035D01*
X362598Y562854D01*
X363025Y565000D01*
X362598Y567146D01*
X361382Y568965D01*
X359563Y570181D01*
X357417Y570608D01*
D02*
G37*
G36*
X330430D02*
X328284Y570181D01*
X326930Y569276D01*
X325576Y570181D01*
X323430Y570608D01*
X321284Y570181D01*
X319930Y569276D01*
X318576Y570181D01*
X316430Y570608D01*
X314284Y570181D01*
X312465Y568965D01*
X311249Y567146D01*
X310822Y565000D01*
X311249Y562854D01*
X312465Y561035D01*
X314284Y559819D01*
X316430Y559392D01*
X318576Y559819D01*
X319930Y560724D01*
X321284Y559819D01*
X323430Y559392D01*
X325576Y559819D01*
X326930Y560724D01*
X328284Y559819D01*
X330430Y559392D01*
X332576Y559819D01*
X334395Y561035D01*
X335611Y562854D01*
X336037Y565000D01*
X335611Y567146D01*
X334395Y568965D01*
X332576Y570181D01*
X330430Y570608D01*
D02*
G37*
G36*
X192763D02*
X190617Y570181D01*
X189263Y569276D01*
X187909Y570181D01*
X185763Y570608D01*
X183617Y570181D01*
X182263Y569276D01*
X180909Y570181D01*
X178763Y570608D01*
X176617Y570181D01*
X174798Y568965D01*
X173582Y567146D01*
X173156Y565000D01*
X173582Y562854D01*
X174798Y561035D01*
X176617Y559819D01*
X178763Y559392D01*
X180909Y559819D01*
X182263Y560724D01*
X183617Y559819D01*
X185763Y559392D01*
X187909Y559819D01*
X189263Y560724D01*
X190617Y559819D01*
X192763Y559392D01*
X194909Y559819D01*
X196729Y561035D01*
X197944Y562854D01*
X198371Y565000D01*
X197944Y567146D01*
X196729Y568965D01*
X194909Y570181D01*
X192763Y570608D01*
D02*
G37*
G36*
X165417D02*
X163271Y570181D01*
X161917Y569276D01*
X160563Y570181D01*
X158417Y570608D01*
X156271Y570181D01*
X154917Y569276D01*
X153563Y570181D01*
X151417Y570608D01*
X149271Y570181D01*
X147452Y568965D01*
X146236Y567146D01*
X145809Y565000D01*
X146236Y562854D01*
X147452Y561035D01*
X149271Y559819D01*
X151417Y559392D01*
X153563Y559819D01*
X154917Y560724D01*
X156271Y559819D01*
X158417Y559392D01*
X160563Y559819D01*
X161917Y560724D01*
X163271Y559819D01*
X165417Y559392D01*
X167563Y559819D01*
X169382Y561035D01*
X170598Y562854D01*
X171025Y565000D01*
X170598Y567146D01*
X169382Y568965D01*
X167563Y570181D01*
X165417Y570608D01*
D02*
G37*
G36*
X138430D02*
X136284Y570181D01*
X134930Y569276D01*
X133576Y570181D01*
X131430Y570608D01*
X129284Y570181D01*
X127930Y569276D01*
X126576Y570181D01*
X124430Y570608D01*
X122284Y570181D01*
X120464Y568965D01*
X119249Y567146D01*
X118822Y565000D01*
X119249Y562854D01*
X120464Y561035D01*
X122284Y559819D01*
X124430Y559392D01*
X126576Y559819D01*
X127930Y560724D01*
X129284Y559819D01*
X131430Y559392D01*
X133576Y559819D01*
X134930Y560724D01*
X136284Y559819D01*
X138430Y559392D01*
X140576Y559819D01*
X142395Y561035D01*
X143611Y562854D01*
X144037Y565000D01*
X143611Y567146D01*
X142395Y568965D01*
X140576Y570181D01*
X138430Y570608D01*
D02*
G37*
G36*
X987750Y570608D02*
X985604Y570181D01*
X984250Y569276D01*
X982896Y570181D01*
X980750Y570608D01*
X978604Y570181D01*
X977250Y569276D01*
X975896Y570181D01*
X973750Y570608D01*
X971604Y570181D01*
X969785Y568965D01*
X968569Y567146D01*
X968142Y565000D01*
X968569Y562854D01*
X969785Y561035D01*
X971604Y559819D01*
X973750Y559392D01*
X975896Y559819D01*
X977250Y560724D01*
X978604Y559819D01*
X980750Y559392D01*
X982896Y559819D01*
X984250Y560724D01*
X985604Y559819D01*
X987750Y559392D01*
X989896Y559819D01*
X991715Y561035D01*
X992931Y562854D01*
X993358Y565000D01*
X992931Y567146D01*
X991715Y568965D01*
X989896Y570181D01*
X987750Y570608D01*
D02*
G37*
G36*
X795750D02*
X793604Y570181D01*
X792250Y569276D01*
X790896Y570181D01*
X788750Y570608D01*
X786604Y570181D01*
X785250Y569276D01*
X783896Y570181D01*
X781750Y570608D01*
X779604Y570181D01*
X777785Y568965D01*
X776569Y567146D01*
X776142Y565000D01*
X776569Y562854D01*
X777785Y561035D01*
X779604Y559819D01*
X781750Y559392D01*
X783896Y559819D01*
X785250Y560724D01*
X786604Y559819D01*
X788750Y559392D01*
X790896Y559819D01*
X792250Y560724D01*
X793604Y559819D01*
X795750Y559392D01*
X797896Y559819D01*
X799715Y561035D01*
X800931Y562854D01*
X801358Y565000D01*
X800931Y567146D01*
X799715Y568965D01*
X797896Y570181D01*
X795750Y570608D01*
D02*
G37*
G36*
X603750D02*
X601604Y570181D01*
X600250Y569276D01*
X598896Y570181D01*
X596750Y570608D01*
X594604Y570181D01*
X593250Y569276D01*
X591896Y570181D01*
X589750Y570608D01*
X587604Y570181D01*
X585785Y568965D01*
X584569Y567146D01*
X584142Y565000D01*
X584569Y562854D01*
X585785Y561035D01*
X587604Y559819D01*
X589750Y559392D01*
X591896Y559819D01*
X593250Y560724D01*
X594604Y559819D01*
X596750Y559392D01*
X598896Y559819D01*
X600250Y560724D01*
X601604Y559819D01*
X603750Y559392D01*
X605896Y559819D01*
X607715Y561035D01*
X608931Y562854D01*
X609358Y565000D01*
X608931Y567146D01*
X607715Y568965D01*
X605896Y570181D01*
X603750Y570608D01*
D02*
G37*
G36*
X411750D02*
X409604Y570181D01*
X408250Y569276D01*
X406896Y570181D01*
X404750Y570608D01*
X402604Y570181D01*
X401250Y569276D01*
X399896Y570181D01*
X397750Y570608D01*
X395604Y570181D01*
X393785Y568965D01*
X392569Y567146D01*
X392142Y565000D01*
X392569Y562854D01*
X393785Y561035D01*
X395604Y559819D01*
X397750Y559392D01*
X399896Y559819D01*
X401250Y560724D01*
X402604Y559819D01*
X404750Y559392D01*
X406896Y559819D01*
X408250Y560724D01*
X409604Y559819D01*
X411750Y559392D01*
X413896Y559819D01*
X415715Y561035D01*
X416931Y562854D01*
X417358Y565000D01*
X416931Y567146D01*
X415715Y568965D01*
X413896Y570181D01*
X411750Y570608D01*
D02*
G37*
G36*
X219750D02*
X217604Y570181D01*
X216250Y569276D01*
X214896Y570181D01*
X212750Y570608D01*
X210604Y570181D01*
X209250Y569276D01*
X207896Y570181D01*
X205750Y570608D01*
X203604Y570181D01*
X201785Y568965D01*
X200569Y567146D01*
X200142Y565000D01*
X200569Y562854D01*
X201785Y561035D01*
X203604Y559819D01*
X205750Y559392D01*
X207896Y559819D01*
X209250Y560724D01*
X210604Y559819D01*
X212750Y559392D01*
X214896Y559819D01*
X216250Y560724D01*
X217604Y559819D01*
X219750Y559392D01*
X221896Y559819D01*
X223715Y561035D01*
X224931Y562854D01*
X225358Y565000D01*
X224931Y567146D01*
X223715Y568965D01*
X221896Y570181D01*
X219750Y570608D01*
D02*
G37*
G36*
X878800Y582000D02*
X859800D01*
Y563000D01*
X878800D01*
Y582000D01*
D02*
G37*
G36*
X686800D02*
X667800D01*
Y563000D01*
X686800D01*
Y582000D01*
D02*
G37*
G36*
X494800D02*
X475800D01*
Y563000D01*
X494800D01*
Y582000D01*
D02*
G37*
G36*
X302800D02*
X283800D01*
Y563000D01*
X302800D01*
Y582000D01*
D02*
G37*
G36*
X843900Y582082D02*
X841420Y581755D01*
X839109Y580798D01*
X837125Y579275D01*
X835602Y577291D01*
X834645Y574980D01*
X834318Y572500D01*
X834645Y570020D01*
X835602Y567709D01*
X837125Y565724D01*
X839109Y564202D01*
X841420Y563245D01*
X843900Y562918D01*
X846380Y563245D01*
X848691Y564202D01*
X850676Y565724D01*
X852198Y567709D01*
X853156Y570020D01*
X853482Y572500D01*
X853156Y574980D01*
X852198Y577291D01*
X850676Y579275D01*
X848691Y580798D01*
X846380Y581755D01*
X843900Y582082D01*
D02*
G37*
G36*
X818500D02*
X816020Y581755D01*
X813709Y580798D01*
X811725Y579275D01*
X810202Y577291D01*
X809245Y574980D01*
X808918Y572500D01*
X809245Y570020D01*
X810202Y567709D01*
X811725Y565724D01*
X813709Y564202D01*
X816020Y563245D01*
X818500Y562918D01*
X820980Y563245D01*
X823291Y564202D01*
X825275Y565724D01*
X826798Y567709D01*
X827756Y570020D01*
X828082Y572500D01*
X827756Y574980D01*
X826798Y577291D01*
X825275Y579275D01*
X823291Y580798D01*
X820980Y581755D01*
X818500Y582082D01*
D02*
G37*
G36*
X651900D02*
X649420Y581755D01*
X647109Y580798D01*
X645125Y579275D01*
X643602Y577291D01*
X642645Y574980D01*
X642318Y572500D01*
X642645Y570020D01*
X643602Y567709D01*
X645125Y565724D01*
X647109Y564202D01*
X649420Y563245D01*
X651900Y562918D01*
X654380Y563245D01*
X656691Y564202D01*
X658676Y565724D01*
X660198Y567709D01*
X661155Y570020D01*
X661482Y572500D01*
X661155Y574980D01*
X660198Y577291D01*
X658676Y579275D01*
X656691Y580798D01*
X654380Y581755D01*
X651900Y582082D01*
D02*
G37*
G36*
X626500D02*
X624020Y581755D01*
X621709Y580798D01*
X619725Y579275D01*
X618202Y577291D01*
X617245Y574980D01*
X616918Y572500D01*
X617245Y570020D01*
X618202Y567709D01*
X619725Y565724D01*
X621709Y564202D01*
X624020Y563245D01*
X626500Y562918D01*
X628980Y563245D01*
X631291Y564202D01*
X633275Y565724D01*
X634798Y567709D01*
X635756Y570020D01*
X636082Y572500D01*
X635756Y574980D01*
X634798Y577291D01*
X633275Y579275D01*
X631291Y580798D01*
X628980Y581755D01*
X626500Y582082D01*
D02*
G37*
G36*
X459900D02*
X457420Y581755D01*
X455109Y580798D01*
X453125Y579275D01*
X451602Y577291D01*
X450645Y574980D01*
X450318Y572500D01*
X450645Y570020D01*
X451602Y567709D01*
X453125Y565724D01*
X455109Y564202D01*
X457420Y563245D01*
X459900Y562918D01*
X462380Y563245D01*
X464691Y564202D01*
X466675Y565724D01*
X468198Y567709D01*
X469156Y570020D01*
X469482Y572500D01*
X469156Y574980D01*
X468198Y577291D01*
X466675Y579275D01*
X464691Y580798D01*
X462380Y581755D01*
X459900Y582082D01*
D02*
G37*
G36*
X434500D02*
X432020Y581755D01*
X429709Y580798D01*
X427725Y579275D01*
X426202Y577291D01*
X425245Y574980D01*
X424918Y572500D01*
X425245Y570020D01*
X426202Y567709D01*
X427725Y565724D01*
X429709Y564202D01*
X432020Y563245D01*
X434500Y562918D01*
X436980Y563245D01*
X439291Y564202D01*
X441275Y565724D01*
X442798Y567709D01*
X443755Y570020D01*
X444082Y572500D01*
X443755Y574980D01*
X442798Y577291D01*
X441275Y579275D01*
X439291Y580798D01*
X436980Y581755D01*
X434500Y582082D01*
D02*
G37*
G36*
X267900D02*
X265420Y581755D01*
X263109Y580798D01*
X261125Y579275D01*
X259602Y577291D01*
X258645Y574980D01*
X258318Y572500D01*
X258645Y570020D01*
X259602Y567709D01*
X261125Y565724D01*
X263109Y564202D01*
X265420Y563245D01*
X267900Y562918D01*
X270380Y563245D01*
X272691Y564202D01*
X274676Y565724D01*
X276198Y567709D01*
X277155Y570020D01*
X277482Y572500D01*
X277155Y574980D01*
X276198Y577291D01*
X274676Y579275D01*
X272691Y580798D01*
X270380Y581755D01*
X267900Y582082D01*
D02*
G37*
G36*
X242500D02*
X240020Y581755D01*
X237709Y580798D01*
X235725Y579275D01*
X234202Y577291D01*
X233245Y574980D01*
X232918Y572500D01*
X233245Y570020D01*
X234202Y567709D01*
X235725Y565724D01*
X237709Y564202D01*
X240020Y563245D01*
X242500Y562918D01*
X244980Y563245D01*
X247291Y564202D01*
X249275Y565724D01*
X250798Y567709D01*
X251756Y570020D01*
X252082Y572500D01*
X251756Y574980D01*
X250798Y577291D01*
X249275Y579275D01*
X247291Y580798D01*
X244980Y581755D01*
X242500Y582082D01*
D02*
G37*
G36*
X26800Y570800D02*
X7800D01*
Y551800D01*
X26800D01*
Y570800D01*
D02*
G37*
G36*
X42700Y570882D02*
X40220Y570555D01*
X37909Y569598D01*
X35924Y568075D01*
X34402Y566091D01*
X33444Y563780D01*
X33118Y561300D01*
X33444Y558820D01*
X34402Y556509D01*
X35924Y554524D01*
X37909Y553002D01*
X40220Y552044D01*
X42700Y551718D01*
X45180Y552044D01*
X47491Y553002D01*
X49475Y554524D01*
X50998Y556509D01*
X51955Y558820D01*
X52282Y561300D01*
X51955Y563780D01*
X50998Y566091D01*
X49475Y568075D01*
X47491Y569598D01*
X45180Y570555D01*
X42700Y570882D01*
D02*
G37*
G36*
X956000Y552598D02*
X954049Y552210D01*
X952732Y551330D01*
X951875Y551190D01*
X951018Y551330D01*
X949701Y552210D01*
X947750Y552598D01*
X945799Y552210D01*
X944145Y551105D01*
X944010Y550902D01*
X942740D01*
X942605Y551105D01*
X940951Y552210D01*
X939000Y552598D01*
X937049Y552210D01*
X935395Y551105D01*
X934290Y549451D01*
X933902Y547500D01*
X934290Y545549D01*
X935395Y543895D01*
X937049Y542790D01*
X939000Y542402D01*
X940951Y542790D01*
X942605Y543895D01*
X942740Y544098D01*
X944010D01*
X944145Y543895D01*
X945799Y542790D01*
X947750Y542402D01*
X949701Y542790D01*
X951355Y543895D01*
X952395D01*
X954049Y542790D01*
X956000Y542402D01*
X957951Y542790D01*
X958593Y543219D01*
X959508Y542303D01*
X959069Y541646D01*
X958642Y539500D01*
X959069Y537354D01*
X960285Y535535D01*
X962104Y534319D01*
X964250Y533892D01*
X966396Y534319D01*
X968215Y535535D01*
X969431Y537354D01*
X969858Y539500D01*
X969431Y541646D01*
X968215Y543465D01*
X966396Y544681D01*
X964250Y545108D01*
X962104Y544681D01*
X961297Y544141D01*
X960381Y545057D01*
X960710Y545549D01*
X961098Y547500D01*
X960710Y549451D01*
X959605Y551105D01*
X957951Y552210D01*
X956000Y552598D01*
D02*
G37*
G36*
X764000D02*
X762049Y552210D01*
X760732Y551330D01*
X759875Y551190D01*
X759018Y551330D01*
X757701Y552210D01*
X755750Y552598D01*
X753799Y552210D01*
X752145Y551105D01*
X752010Y550902D01*
X750740D01*
X750605Y551105D01*
X748951Y552210D01*
X747000Y552598D01*
X745049Y552210D01*
X743395Y551105D01*
X742290Y549451D01*
X741902Y547500D01*
X742290Y545549D01*
X743395Y543895D01*
X745049Y542790D01*
X747000Y542402D01*
X748951Y542790D01*
X750605Y543895D01*
X750740Y544098D01*
X752010D01*
X752145Y543895D01*
X753799Y542790D01*
X755750Y542402D01*
X757701Y542790D01*
X759355Y543895D01*
X760395D01*
X762049Y542790D01*
X764000Y542402D01*
X765951Y542790D01*
X766593Y543219D01*
X767508Y542303D01*
X767069Y541646D01*
X766642Y539500D01*
X767069Y537354D01*
X768285Y535535D01*
X770104Y534319D01*
X772250Y533892D01*
X774396Y534319D01*
X776215Y535535D01*
X777431Y537354D01*
X777858Y539500D01*
X777431Y541646D01*
X776215Y543465D01*
X774396Y544681D01*
X772250Y545108D01*
X770104Y544681D01*
X769297Y544141D01*
X768381Y545057D01*
X768710Y545549D01*
X769098Y547500D01*
X768710Y549451D01*
X767605Y551105D01*
X765951Y552210D01*
X764000Y552598D01*
D02*
G37*
G36*
X572000D02*
X570049Y552210D01*
X568732Y551330D01*
X567875Y551190D01*
X567018Y551330D01*
X565701Y552210D01*
X563750Y552598D01*
X561799Y552210D01*
X560145Y551105D01*
X560010Y550902D01*
X558740D01*
X558605Y551105D01*
X556951Y552210D01*
X555000Y552598D01*
X553049Y552210D01*
X551395Y551105D01*
X550290Y549451D01*
X549902Y547500D01*
X550290Y545549D01*
X551395Y543895D01*
X553049Y542790D01*
X555000Y542402D01*
X556951Y542790D01*
X558605Y543895D01*
X558740Y544098D01*
X560010D01*
X560145Y543895D01*
X561799Y542790D01*
X563750Y542402D01*
X565701Y542790D01*
X567355Y543895D01*
X568395D01*
X570049Y542790D01*
X572000Y542402D01*
X573951Y542790D01*
X574593Y543219D01*
X575508Y542303D01*
X575069Y541646D01*
X574642Y539500D01*
X575069Y537354D01*
X576285Y535535D01*
X578104Y534319D01*
X580250Y533892D01*
X582396Y534319D01*
X584215Y535535D01*
X585431Y537354D01*
X585858Y539500D01*
X585431Y541646D01*
X584215Y543465D01*
X582396Y544681D01*
X580250Y545108D01*
X578104Y544681D01*
X577297Y544141D01*
X576381Y545057D01*
X576710Y545549D01*
X577098Y547500D01*
X576710Y549451D01*
X575605Y551105D01*
X573951Y552210D01*
X572000Y552598D01*
D02*
G37*
G36*
X380000D02*
X378049Y552210D01*
X376732Y551330D01*
X375875Y551190D01*
X375018Y551330D01*
X373701Y552210D01*
X371750Y552598D01*
X369799Y552210D01*
X368145Y551105D01*
X368010Y550902D01*
X366740D01*
X366605Y551105D01*
X364951Y552210D01*
X363000Y552598D01*
X361049Y552210D01*
X359395Y551105D01*
X358290Y549451D01*
X357902Y547500D01*
X358290Y545549D01*
X359395Y543895D01*
X361049Y542790D01*
X363000Y542402D01*
X364951Y542790D01*
X366605Y543895D01*
X366740Y544098D01*
X368010D01*
X368145Y543895D01*
X369799Y542790D01*
X371750Y542402D01*
X373701Y542790D01*
X375355Y543895D01*
X376395D01*
X378049Y542790D01*
X380000Y542402D01*
X381951Y542790D01*
X382593Y543219D01*
X383508Y542303D01*
X383069Y541646D01*
X382642Y539500D01*
X383069Y537354D01*
X384285Y535535D01*
X386104Y534319D01*
X388250Y533892D01*
X390396Y534319D01*
X392215Y535535D01*
X393431Y537354D01*
X393858Y539500D01*
X393431Y541646D01*
X392215Y543465D01*
X390396Y544681D01*
X388250Y545108D01*
X386104Y544681D01*
X385297Y544141D01*
X384381Y545057D01*
X384710Y545549D01*
X385098Y547500D01*
X384710Y549451D01*
X383605Y551105D01*
X381951Y552210D01*
X380000Y552598D01*
D02*
G37*
G36*
X188000D02*
X186049Y552210D01*
X184732Y551330D01*
X183875Y551190D01*
X183018Y551330D01*
X181701Y552210D01*
X179750Y552598D01*
X177799Y552210D01*
X176145Y551105D01*
X176010Y550902D01*
X174740D01*
X174605Y551105D01*
X172951Y552210D01*
X171000Y552598D01*
X169049Y552210D01*
X167395Y551105D01*
X166290Y549451D01*
X165902Y547500D01*
X166290Y545549D01*
X167395Y543895D01*
X169049Y542790D01*
X171000Y542402D01*
X172951Y542790D01*
X174605Y543895D01*
X174740Y544098D01*
X176010D01*
X176145Y543895D01*
X177799Y542790D01*
X179750Y542402D01*
X181701Y542790D01*
X183355Y543895D01*
X184395D01*
X186049Y542790D01*
X188000Y542402D01*
X189951Y542790D01*
X190593Y543219D01*
X191508Y542303D01*
X191069Y541646D01*
X190642Y539500D01*
X191069Y537354D01*
X192285Y535535D01*
X194104Y534319D01*
X196250Y533892D01*
X198396Y534319D01*
X200215Y535535D01*
X201431Y537354D01*
X201858Y539500D01*
X201431Y541646D01*
X200215Y543465D01*
X198396Y544681D01*
X196250Y545108D01*
X194104Y544681D01*
X193297Y544141D01*
X192381Y545057D01*
X192710Y545549D01*
X193098Y547500D01*
X192710Y549451D01*
X191605Y551105D01*
X189951Y552210D01*
X188000Y552598D01*
D02*
G37*
G36*
X1092500Y569700D02*
X1073500D01*
Y550700D01*
X1092500D01*
Y569700D01*
D02*
G37*
G36*
X1041000Y556098D02*
X1039049Y555710D01*
X1037395Y554605D01*
X1036290Y552951D01*
X1035902Y551000D01*
X1036290Y549049D01*
X1037395Y547395D01*
X1039049Y546290D01*
X1041000Y545902D01*
X1042951Y546290D01*
X1044605Y547395D01*
X1045710Y549049D01*
X1046098Y551000D01*
X1045710Y552951D01*
X1044605Y554605D01*
X1042951Y555710D01*
X1041000Y556098D01*
D02*
G37*
G36*
X805000Y547848D02*
X803049Y547460D01*
X801395Y546355D01*
X800290Y544701D01*
X799902Y542750D01*
X800290Y540799D01*
X801395Y539145D01*
X803049Y538040D01*
X805000Y537652D01*
X806951Y538040D01*
X808605Y539145D01*
X809710Y540799D01*
X810098Y542750D01*
X809710Y544701D01*
X808605Y546355D01*
X806951Y547460D01*
X805000Y547848D01*
D02*
G37*
G36*
X613000D02*
X611049Y547460D01*
X609395Y546355D01*
X608290Y544701D01*
X607902Y542750D01*
X608290Y540799D01*
X609395Y539145D01*
X611049Y538040D01*
X613000Y537652D01*
X614951Y538040D01*
X616605Y539145D01*
X617710Y540799D01*
X618098Y542750D01*
X617710Y544701D01*
X616605Y546355D01*
X614951Y547460D01*
X613000Y547848D01*
D02*
G37*
G36*
X421000D02*
X419049Y547460D01*
X417395Y546355D01*
X416290Y544701D01*
X415902Y542750D01*
X416290Y540799D01*
X417395Y539145D01*
X419049Y538040D01*
X421000Y537652D01*
X422951Y538040D01*
X424605Y539145D01*
X425710Y540799D01*
X426098Y542750D01*
X425710Y544701D01*
X424605Y546355D01*
X422951Y547460D01*
X421000Y547848D01*
D02*
G37*
G36*
X229000D02*
X227049Y547460D01*
X225395Y546355D01*
X224290Y544701D01*
X223902Y542750D01*
X224290Y540799D01*
X225395Y539145D01*
X227049Y538040D01*
X229000Y537652D01*
X230951Y538040D01*
X232605Y539145D01*
X233710Y540799D01*
X234098Y542750D01*
X233710Y544701D01*
X232605Y546355D01*
X230951Y547460D01*
X229000Y547848D01*
D02*
G37*
G36*
X1084250Y544722D02*
Y536050D01*
X1092922D01*
X1092743Y537411D01*
X1091735Y539843D01*
X1090132Y541932D01*
X1088043Y543535D01*
X1085611Y544543D01*
X1084250Y544722D01*
D02*
G37*
G36*
X1081750Y544722D02*
X1080390Y544543D01*
X1077957Y543535D01*
X1075868Y541932D01*
X1074265Y539843D01*
X1073258Y537411D01*
X1073078Y536050D01*
X1081750D01*
Y544722D01*
D02*
G37*
G36*
X922000Y543358D02*
X919854Y542931D01*
X918035Y541715D01*
X916819Y539896D01*
X916392Y537750D01*
X916819Y535604D01*
X918035Y533785D01*
X919854Y532569D01*
X922000Y532142D01*
X924146Y532569D01*
X925965Y533785D01*
X927181Y535604D01*
X927608Y537750D01*
X927181Y539896D01*
X925965Y541715D01*
X924146Y542931D01*
X922000Y543358D01*
D02*
G37*
G36*
X730000D02*
X727854Y542931D01*
X726035Y541715D01*
X724819Y539896D01*
X724392Y537750D01*
X724819Y535604D01*
X726035Y533785D01*
X727854Y532569D01*
X730000Y532142D01*
X732146Y532569D01*
X733965Y533785D01*
X735181Y535604D01*
X735608Y537750D01*
X735181Y539896D01*
X733965Y541715D01*
X732146Y542931D01*
X730000Y543358D01*
D02*
G37*
G36*
X538000D02*
X535854Y542931D01*
X534035Y541715D01*
X532819Y539896D01*
X532392Y537750D01*
X532819Y535604D01*
X534035Y533785D01*
X535854Y532569D01*
X538000Y532142D01*
X540146Y532569D01*
X541965Y533785D01*
X543181Y535604D01*
X543608Y537750D01*
X543181Y539896D01*
X541965Y541715D01*
X540146Y542931D01*
X538000Y543358D01*
D02*
G37*
G36*
X346000D02*
X343854Y542931D01*
X342035Y541715D01*
X340819Y539896D01*
X340392Y537750D01*
X340819Y535604D01*
X342035Y533785D01*
X343854Y532569D01*
X346000Y532142D01*
X348146Y532569D01*
X349965Y533785D01*
X351181Y535604D01*
X351608Y537750D01*
X351181Y539896D01*
X349965Y541715D01*
X348146Y542931D01*
X346000Y543358D01*
D02*
G37*
G36*
X154000D02*
X151854Y542931D01*
X150035Y541715D01*
X148819Y539896D01*
X148392Y537750D01*
X148819Y535604D01*
X150035Y533785D01*
X151854Y532569D01*
X154000Y532142D01*
X156146Y532569D01*
X157965Y533785D01*
X159181Y535604D01*
X159608Y537750D01*
X159181Y539896D01*
X157965Y541715D01*
X156146Y542931D01*
X154000Y543358D01*
D02*
G37*
G36*
X1021000Y541848D02*
X1019049Y541460D01*
X1017395Y540355D01*
X1016290Y538701D01*
X1015902Y536750D01*
X1016290Y534799D01*
X1017395Y533145D01*
X1019049Y532040D01*
X1021000Y531652D01*
X1022951Y532040D01*
X1024605Y533145D01*
X1025710Y534799D01*
X1026098Y536750D01*
X1025710Y538701D01*
X1024605Y540355D01*
X1022951Y541460D01*
X1021000Y541848D01*
D02*
G37*
G36*
X820980Y539098D02*
X819029Y538710D01*
X817375Y537605D01*
X816270Y535951D01*
X815882Y534000D01*
X816270Y532049D01*
X817375Y530395D01*
X819029Y529290D01*
X820980Y528902D01*
X822931Y529290D01*
X824585Y530395D01*
X825690Y532049D01*
X826078Y534000D01*
X825690Y535951D01*
X824585Y537605D01*
X822931Y538710D01*
X820980Y539098D01*
D02*
G37*
G36*
X628980D02*
X627029Y538710D01*
X625375Y537605D01*
X624270Y535951D01*
X623882Y534000D01*
X624270Y532049D01*
X625375Y530395D01*
X627029Y529290D01*
X628980Y528902D01*
X630931Y529290D01*
X632585Y530395D01*
X633690Y532049D01*
X634078Y534000D01*
X633690Y535951D01*
X632585Y537605D01*
X630931Y538710D01*
X628980Y539098D01*
D02*
G37*
G36*
X436980D02*
X435029Y538710D01*
X433375Y537605D01*
X432270Y535951D01*
X431882Y534000D01*
X432270Y532049D01*
X433375Y530395D01*
X435029Y529290D01*
X436980Y528902D01*
X438931Y529290D01*
X440585Y530395D01*
X441690Y532049D01*
X442078Y534000D01*
X441690Y535951D01*
X440585Y537605D01*
X438931Y538710D01*
X436980Y539098D01*
D02*
G37*
G36*
X244980D02*
X243029Y538710D01*
X241375Y537605D01*
X240270Y535951D01*
X239882Y534000D01*
X240270Y532049D01*
X241375Y530395D01*
X243029Y529290D01*
X244980Y528902D01*
X246931Y529290D01*
X248585Y530395D01*
X249690Y532049D01*
X250078Y534000D01*
X249690Y535951D01*
X248585Y537605D01*
X246931Y538710D01*
X244980Y539098D01*
D02*
G37*
G36*
X891626Y546848D02*
X889675Y546460D01*
X888021Y545355D01*
X886916Y543701D01*
X886528Y541750D01*
X886916Y539799D01*
X887862Y538383D01*
X886324Y537355D01*
X885219Y535701D01*
X884831Y533750D01*
X885219Y531799D01*
X886324Y530145D01*
X887978Y529040D01*
X889929Y528652D01*
X891880Y529040D01*
X893534Y530145D01*
X894639Y531799D01*
X895027Y533750D01*
X894639Y535701D01*
X893692Y537117D01*
X895231Y538145D01*
X896336Y539799D01*
X896724Y541750D01*
X896336Y543701D01*
X895231Y545355D01*
X893577Y546460D01*
X891626Y546848D01*
D02*
G37*
G36*
X699626D02*
X697675Y546460D01*
X696021Y545355D01*
X694916Y543701D01*
X694528Y541750D01*
X694916Y539799D01*
X695863Y538383D01*
X694324Y537355D01*
X693219Y535701D01*
X692831Y533750D01*
X693219Y531799D01*
X694324Y530145D01*
X695978Y529040D01*
X697929Y528652D01*
X699880Y529040D01*
X701534Y530145D01*
X702639Y531799D01*
X703027Y533750D01*
X702639Y535701D01*
X701693Y537117D01*
X703231Y538145D01*
X704336Y539799D01*
X704724Y541750D01*
X704336Y543701D01*
X703231Y545355D01*
X701577Y546460D01*
X699626Y546848D01*
D02*
G37*
G36*
X507626D02*
X505675Y546460D01*
X504021Y545355D01*
X502916Y543701D01*
X502528Y541750D01*
X502916Y539799D01*
X503862Y538383D01*
X502324Y537355D01*
X501219Y535701D01*
X500831Y533750D01*
X501219Y531799D01*
X502324Y530145D01*
X503978Y529040D01*
X505929Y528652D01*
X507880Y529040D01*
X509534Y530145D01*
X510639Y531799D01*
X511027Y533750D01*
X510639Y535701D01*
X509692Y537117D01*
X511231Y538145D01*
X512336Y539799D01*
X512724Y541750D01*
X512336Y543701D01*
X511231Y545355D01*
X509577Y546460D01*
X507626Y546848D01*
D02*
G37*
G36*
X315626D02*
X313675Y546460D01*
X312021Y545355D01*
X310916Y543701D01*
X310528Y541750D01*
X310916Y539799D01*
X311863Y538383D01*
X310324Y537355D01*
X309219Y535701D01*
X308831Y533750D01*
X309219Y531799D01*
X310324Y530145D01*
X311978Y529040D01*
X313929Y528652D01*
X315880Y529040D01*
X317534Y530145D01*
X318639Y531799D01*
X319027Y533750D01*
X318639Y535701D01*
X317693Y537117D01*
X319231Y538145D01*
X320336Y539799D01*
X320724Y541750D01*
X320336Y543701D01*
X319231Y545355D01*
X317577Y546460D01*
X315626Y546848D01*
D02*
G37*
G36*
X123626D02*
X121675Y546460D01*
X120021Y545355D01*
X118916Y543701D01*
X118528Y541750D01*
X118916Y539799D01*
X119862Y538383D01*
X118324Y537355D01*
X117219Y535701D01*
X116831Y533750D01*
X117219Y531799D01*
X118324Y530145D01*
X119978Y529040D01*
X121929Y528652D01*
X123880Y529040D01*
X125534Y530145D01*
X126639Y531799D01*
X127027Y533750D01*
X126639Y535701D01*
X125693Y537117D01*
X127231Y538145D01*
X128336Y539799D01*
X128724Y541750D01*
X128336Y543701D01*
X127231Y545355D01*
X125577Y546460D01*
X123626Y546848D01*
D02*
G37*
G36*
X42700Y545482D02*
X40220Y545155D01*
X37909Y544198D01*
X35924Y542675D01*
X34402Y540691D01*
X33444Y538380D01*
X33118Y535900D01*
X33444Y533420D01*
X34402Y531109D01*
X35924Y529124D01*
X37909Y527602D01*
X40220Y526644D01*
X42700Y526318D01*
X45180Y526644D01*
X47491Y527602D01*
X49475Y529124D01*
X50998Y531109D01*
X51955Y533420D01*
X52282Y535900D01*
X51955Y538380D01*
X50998Y540691D01*
X49475Y542675D01*
X47491Y544198D01*
X45180Y545155D01*
X42700Y545482D01*
D02*
G37*
G36*
X17300D02*
X14820Y545155D01*
X12509Y544198D01*
X10524Y542675D01*
X9002Y540691D01*
X8044Y538380D01*
X7718Y535900D01*
X8044Y533420D01*
X9002Y531109D01*
X10524Y529124D01*
X12509Y527602D01*
X14820Y526644D01*
X17300Y526318D01*
X19780Y526644D01*
X22091Y527602D01*
X24075Y529124D01*
X25598Y531109D01*
X26555Y533420D01*
X26882Y535900D01*
X26555Y538380D01*
X25598Y540691D01*
X24075Y542675D01*
X22091Y544198D01*
X19780Y545155D01*
X17300Y545482D01*
D02*
G37*
G36*
X1092922Y533550D02*
X1084250D01*
Y524878D01*
X1085611Y525057D01*
X1088043Y526065D01*
X1090132Y527668D01*
X1091735Y529757D01*
X1092743Y532189D01*
X1092922Y533550D01*
D02*
G37*
G36*
X1081750D02*
X1073078D01*
X1073258Y532189D01*
X1074265Y529757D01*
X1075868Y527668D01*
X1077957Y526065D01*
X1080390Y525057D01*
X1081750Y524878D01*
Y533550D01*
D02*
G37*
G36*
X996250Y522358D02*
X994104Y521931D01*
X992285Y520715D01*
X992264Y520684D01*
X991146Y521431D01*
X989000Y521858D01*
X986854Y521431D01*
X985035Y520215D01*
X983819Y518396D01*
X983452Y516548D01*
X981604Y516181D01*
X979785Y514965D01*
X978569Y513146D01*
X978142Y511000D01*
X978569Y508854D01*
X979785Y507035D01*
X981604Y505819D01*
X983750Y505392D01*
X985896Y505819D01*
X987715Y507035D01*
X988931Y508854D01*
X989298Y510701D01*
X991146Y511069D01*
X992965Y512285D01*
X992986Y512316D01*
X994104Y511569D01*
X996250Y511142D01*
X998396Y511569D01*
X1000215Y512785D01*
X1001431Y514604D01*
X1001858Y516750D01*
X1001431Y518896D01*
X1000215Y520715D01*
X998396Y521931D01*
X996250Y522358D01*
D02*
G37*
G36*
X804250D02*
X802104Y521931D01*
X800285Y520715D01*
X800264Y520684D01*
X799146Y521431D01*
X797000Y521858D01*
X794854Y521431D01*
X793035Y520215D01*
X791819Y518396D01*
X791452Y516548D01*
X789604Y516181D01*
X787785Y514965D01*
X786569Y513146D01*
X786142Y511000D01*
X786569Y508854D01*
X787785Y507035D01*
X789604Y505819D01*
X791750Y505392D01*
X793896Y505819D01*
X795715Y507035D01*
X796931Y508854D01*
X797298Y510701D01*
X799146Y511069D01*
X800965Y512285D01*
X800986Y512316D01*
X802104Y511569D01*
X804250Y511142D01*
X806396Y511569D01*
X808215Y512785D01*
X809431Y514604D01*
X809858Y516750D01*
X809431Y518896D01*
X808215Y520715D01*
X806396Y521931D01*
X804250Y522358D01*
D02*
G37*
G36*
X612250D02*
X610104Y521931D01*
X608285Y520715D01*
X608264Y520684D01*
X607146Y521431D01*
X605000Y521858D01*
X602854Y521431D01*
X601035Y520215D01*
X599819Y518396D01*
X599452Y516548D01*
X597604Y516181D01*
X595785Y514965D01*
X594569Y513146D01*
X594142Y511000D01*
X594569Y508854D01*
X595785Y507035D01*
X597604Y505819D01*
X599750Y505392D01*
X601896Y505819D01*
X603715Y507035D01*
X604931Y508854D01*
X605298Y510701D01*
X607146Y511069D01*
X608965Y512285D01*
X608986Y512316D01*
X610104Y511569D01*
X612250Y511142D01*
X614396Y511569D01*
X616215Y512785D01*
X617431Y514604D01*
X617858Y516750D01*
X617431Y518896D01*
X616215Y520715D01*
X614396Y521931D01*
X612250Y522358D01*
D02*
G37*
G36*
X420250D02*
X418104Y521931D01*
X416285Y520715D01*
X416264Y520684D01*
X415146Y521431D01*
X413000Y521858D01*
X410854Y521431D01*
X409035Y520215D01*
X407819Y518396D01*
X407452Y516548D01*
X405604Y516181D01*
X403785Y514965D01*
X402569Y513146D01*
X402142Y511000D01*
X402569Y508854D01*
X403785Y507035D01*
X405604Y505819D01*
X407750Y505392D01*
X409896Y505819D01*
X411715Y507035D01*
X412931Y508854D01*
X413298Y510701D01*
X415146Y511069D01*
X416965Y512285D01*
X416986Y512316D01*
X418104Y511569D01*
X420250Y511142D01*
X422396Y511569D01*
X424215Y512785D01*
X425431Y514604D01*
X425858Y516750D01*
X425431Y518896D01*
X424215Y520715D01*
X422396Y521931D01*
X420250Y522358D01*
D02*
G37*
G36*
X228250D02*
X226104Y521931D01*
X224285Y520715D01*
X224264Y520684D01*
X223146Y521431D01*
X221000Y521858D01*
X218854Y521431D01*
X217035Y520215D01*
X215819Y518396D01*
X215452Y516548D01*
X213604Y516181D01*
X211785Y514965D01*
X210569Y513146D01*
X210142Y511000D01*
X210569Y508854D01*
X211785Y507035D01*
X213604Y505819D01*
X215750Y505392D01*
X217896Y505819D01*
X219715Y507035D01*
X220931Y508854D01*
X221298Y510701D01*
X223146Y511069D01*
X224965Y512285D01*
X224986Y512316D01*
X226104Y511569D01*
X228250Y511142D01*
X230396Y511569D01*
X232215Y512785D01*
X233431Y514604D01*
X233858Y516750D01*
X233431Y518896D01*
X232215Y520715D01*
X230396Y521931D01*
X228250Y522358D01*
D02*
G37*
G36*
X844540Y524308D02*
X842589Y523920D01*
X840936Y522814D01*
X839830Y521161D01*
X839442Y519210D01*
X839830Y517259D01*
X840936Y515605D01*
X842589Y514500D01*
X844540Y514112D01*
X846491Y514500D01*
X848145Y515605D01*
X849250Y517259D01*
X849638Y519210D01*
X849250Y521161D01*
X848145Y522814D01*
X846491Y523920D01*
X844540Y524308D01*
D02*
G37*
G36*
X652540D02*
X650589Y523920D01*
X648935Y522814D01*
X647830Y521161D01*
X647442Y519210D01*
X647830Y517259D01*
X648935Y515605D01*
X650589Y514500D01*
X652540Y514112D01*
X654491Y514500D01*
X656145Y515605D01*
X657250Y517259D01*
X657638Y519210D01*
X657250Y521161D01*
X656145Y522814D01*
X654491Y523920D01*
X652540Y524308D01*
D02*
G37*
G36*
X460540D02*
X458589Y523920D01*
X456936Y522814D01*
X455830Y521161D01*
X455442Y519210D01*
X455830Y517259D01*
X456936Y515605D01*
X458589Y514500D01*
X460540Y514112D01*
X462491Y514500D01*
X464145Y515605D01*
X465250Y517259D01*
X465638Y519210D01*
X465250Y521161D01*
X464145Y522814D01*
X462491Y523920D01*
X460540Y524308D01*
D02*
G37*
G36*
X268540D02*
X266589Y523920D01*
X264935Y522814D01*
X263830Y521161D01*
X263442Y519210D01*
X263830Y517259D01*
X264935Y515605D01*
X266589Y514500D01*
X268540Y514112D01*
X270491Y514500D01*
X272145Y515605D01*
X273250Y517259D01*
X273638Y519210D01*
X273250Y521161D01*
X272145Y522814D01*
X270491Y523920D01*
X268540Y524308D01*
D02*
G37*
G36*
X43950Y520422D02*
Y511750D01*
X52622D01*
X52442Y513110D01*
X51435Y515543D01*
X49832Y517632D01*
X47743Y519235D01*
X45311Y520242D01*
X43950Y520422D01*
D02*
G37*
G36*
X41450Y520421D02*
X40089Y520242D01*
X37657Y519235D01*
X35568Y517632D01*
X33965Y515543D01*
X32957Y513110D01*
X32778Y511750D01*
X41450D01*
Y520421D01*
D02*
G37*
G36*
X883750Y522358D02*
X881604Y521931D01*
X879785Y520715D01*
X878569Y518896D01*
X878142Y516750D01*
X878569Y514604D01*
X879785Y512785D01*
X881604Y511569D01*
X883750Y511142D01*
X885896Y511569D01*
X887014Y512316D01*
X887035Y512285D01*
X888854Y511069D01*
X890702Y510701D01*
X891069Y508854D01*
X892285Y507035D01*
X894104Y505819D01*
X896250Y505392D01*
X898396Y505819D01*
X900215Y507035D01*
X901431Y508854D01*
X901858Y511000D01*
X901431Y513146D01*
X900215Y514965D01*
X898396Y516181D01*
X896548Y516548D01*
X896181Y518396D01*
X894965Y520215D01*
X893146Y521431D01*
X891000Y521858D01*
X888854Y521431D01*
X887736Y520684D01*
X887715Y520715D01*
X885896Y521931D01*
X883750Y522358D01*
D02*
G37*
G36*
X691750D02*
X689604Y521931D01*
X687785Y520715D01*
X686569Y518896D01*
X686142Y516750D01*
X686569Y514604D01*
X687785Y512785D01*
X689604Y511569D01*
X691750Y511142D01*
X693896Y511569D01*
X695014Y512316D01*
X695035Y512285D01*
X696854Y511069D01*
X698702Y510701D01*
X699069Y508854D01*
X700285Y507035D01*
X702104Y505819D01*
X704250Y505392D01*
X706396Y505819D01*
X708215Y507035D01*
X709431Y508854D01*
X709858Y511000D01*
X709431Y513146D01*
X708215Y514965D01*
X706396Y516181D01*
X704548Y516548D01*
X704181Y518396D01*
X702965Y520215D01*
X701146Y521431D01*
X699000Y521858D01*
X696854Y521431D01*
X695736Y520684D01*
X695715Y520715D01*
X693896Y521931D01*
X691750Y522358D01*
D02*
G37*
G36*
X499750D02*
X497604Y521931D01*
X495785Y520715D01*
X494569Y518896D01*
X494142Y516750D01*
X494569Y514604D01*
X495785Y512785D01*
X497604Y511569D01*
X499750Y511142D01*
X501896Y511569D01*
X503014Y512316D01*
X503035Y512285D01*
X504854Y511069D01*
X506702Y510701D01*
X507069Y508854D01*
X508285Y507035D01*
X510104Y505819D01*
X512250Y505392D01*
X514396Y505819D01*
X516215Y507035D01*
X517431Y508854D01*
X517858Y511000D01*
X517431Y513146D01*
X516215Y514965D01*
X514396Y516181D01*
X512548Y516548D01*
X512181Y518396D01*
X510965Y520215D01*
X509146Y521431D01*
X507000Y521858D01*
X504854Y521431D01*
X503736Y520684D01*
X503715Y520715D01*
X501896Y521931D01*
X499750Y522358D01*
D02*
G37*
G36*
X307750D02*
X305604Y521931D01*
X303785Y520715D01*
X302569Y518896D01*
X302142Y516750D01*
X302569Y514604D01*
X303785Y512785D01*
X305604Y511569D01*
X307750Y511142D01*
X309896Y511569D01*
X311014Y512316D01*
X311035Y512285D01*
X312854Y511069D01*
X314702Y510701D01*
X315069Y508854D01*
X316285Y507035D01*
X318104Y505819D01*
X320250Y505392D01*
X322396Y505819D01*
X324215Y507035D01*
X325431Y508854D01*
X325858Y511000D01*
X325431Y513146D01*
X324215Y514965D01*
X322396Y516181D01*
X320548Y516548D01*
X320181Y518396D01*
X318965Y520215D01*
X317146Y521431D01*
X315000Y521858D01*
X312854Y521431D01*
X311736Y520684D01*
X311715Y520715D01*
X309896Y521931D01*
X307750Y522358D01*
D02*
G37*
G36*
X115750D02*
X113604Y521931D01*
X111785Y520715D01*
X110569Y518896D01*
X110142Y516750D01*
X110569Y514604D01*
X111785Y512785D01*
X113604Y511569D01*
X115750Y511142D01*
X117896Y511569D01*
X119014Y512316D01*
X119035Y512285D01*
X120854Y511069D01*
X122702Y510701D01*
X123069Y508854D01*
X124285Y507035D01*
X126104Y505819D01*
X128250Y505392D01*
X130396Y505819D01*
X132215Y507035D01*
X133431Y508854D01*
X133858Y511000D01*
X133431Y513146D01*
X132215Y514965D01*
X130396Y516181D01*
X128548Y516548D01*
X128181Y518396D01*
X126965Y520215D01*
X125146Y521431D01*
X123000Y521858D01*
X120854Y521431D01*
X119736Y520684D01*
X119715Y520715D01*
X117896Y521931D01*
X115750Y522358D01*
D02*
G37*
G36*
X17300Y520082D02*
X14820Y519755D01*
X12509Y518798D01*
X10524Y517275D01*
X9002Y515291D01*
X8044Y512980D01*
X7718Y510500D01*
X8044Y508020D01*
X9002Y505709D01*
X10524Y503724D01*
X12509Y502202D01*
X14820Y501244D01*
X17300Y500918D01*
X19780Y501244D01*
X22091Y502202D01*
X24075Y503724D01*
X25598Y505709D01*
X26555Y508020D01*
X26882Y510500D01*
X26555Y512980D01*
X25598Y515291D01*
X24075Y517275D01*
X22091Y518798D01*
X19780Y519755D01*
X17300Y520082D01*
D02*
G37*
G36*
X41450Y509250D02*
X32778D01*
X32957Y507889D01*
X33965Y505457D01*
X35568Y503368D01*
X37657Y501765D01*
X40089Y500757D01*
X41450Y500578D01*
Y509250D01*
D02*
G37*
G36*
X52622D02*
X43950D01*
Y500578D01*
X45311Y500757D01*
X47743Y501765D01*
X49832Y503368D01*
X51435Y505457D01*
X52442Y507889D01*
X52622Y509250D01*
D02*
G37*
G36*
X1083000Y518982D02*
X1080520Y518655D01*
X1078209Y517698D01*
X1076225Y516175D01*
X1074702Y514191D01*
X1073745Y511880D01*
X1073418Y509400D01*
X1073745Y506920D01*
X1074702Y504609D01*
X1076225Y502625D01*
X1078209Y501102D01*
X1080520Y500145D01*
X1083000Y499818D01*
X1085480Y500145D01*
X1087791Y501102D01*
X1089776Y502625D01*
X1091298Y504609D01*
X1092256Y506920D01*
X1092582Y509400D01*
X1092256Y511880D01*
X1091298Y514191D01*
X1089776Y516175D01*
X1087791Y517698D01*
X1085480Y518655D01*
X1083000Y518982D01*
D02*
G37*
G36*
X1041000Y508098D02*
X1039049Y507710D01*
X1037395Y506605D01*
X1036290Y504951D01*
X1035902Y503000D01*
X1036290Y501049D01*
X1037395Y499395D01*
X1039049Y498290D01*
X1041000Y497902D01*
X1042951Y498290D01*
X1044605Y499395D01*
X1045710Y501049D01*
X1046098Y503000D01*
X1045710Y504951D01*
X1044605Y506605D01*
X1042951Y507710D01*
X1041000Y508098D01*
D02*
G37*
G36*
X896250Y501108D02*
X894104Y500681D01*
X892285Y499465D01*
X891069Y497646D01*
X890702Y495798D01*
X888854Y495431D01*
X887035Y494215D01*
X887014Y494184D01*
X885896Y494931D01*
X883750Y495358D01*
X881604Y494931D01*
X879785Y493715D01*
X878569Y491896D01*
X878142Y489750D01*
X878569Y487604D01*
X879785Y485785D01*
X881604Y484569D01*
X883750Y484142D01*
X885896Y484569D01*
X887715Y485785D01*
X887736Y485816D01*
X888854Y485069D01*
X891000Y484642D01*
X893146Y485069D01*
X894965Y486285D01*
X896181Y488104D01*
X896548Y489952D01*
X898396Y490319D01*
X900215Y491535D01*
X901431Y493354D01*
X901858Y495500D01*
X901431Y497646D01*
X900215Y499465D01*
X898396Y500681D01*
X896250Y501108D01*
D02*
G37*
G36*
X704250D02*
X702104Y500681D01*
X700285Y499465D01*
X699069Y497646D01*
X698702Y495798D01*
X696854Y495431D01*
X695035Y494215D01*
X695014Y494184D01*
X693896Y494931D01*
X691750Y495358D01*
X689604Y494931D01*
X687785Y493715D01*
X686569Y491896D01*
X686142Y489750D01*
X686569Y487604D01*
X687785Y485785D01*
X689604Y484569D01*
X691750Y484142D01*
X693896Y484569D01*
X695715Y485785D01*
X695736Y485816D01*
X696854Y485069D01*
X699000Y484642D01*
X701146Y485069D01*
X702965Y486285D01*
X704181Y488104D01*
X704548Y489952D01*
X706396Y490319D01*
X708215Y491535D01*
X709431Y493354D01*
X709858Y495500D01*
X709431Y497646D01*
X708215Y499465D01*
X706396Y500681D01*
X704250Y501108D01*
D02*
G37*
G36*
X512250D02*
X510104Y500681D01*
X508285Y499465D01*
X507069Y497646D01*
X506702Y495798D01*
X504854Y495431D01*
X503035Y494215D01*
X503014Y494184D01*
X501896Y494931D01*
X499750Y495358D01*
X497604Y494931D01*
X495785Y493715D01*
X494569Y491896D01*
X494142Y489750D01*
X494569Y487604D01*
X495785Y485785D01*
X497604Y484569D01*
X499750Y484142D01*
X501896Y484569D01*
X503715Y485785D01*
X503736Y485816D01*
X504854Y485069D01*
X507000Y484642D01*
X509146Y485069D01*
X510965Y486285D01*
X512181Y488104D01*
X512548Y489952D01*
X514396Y490319D01*
X516215Y491535D01*
X517431Y493354D01*
X517858Y495500D01*
X517431Y497646D01*
X516215Y499465D01*
X514396Y500681D01*
X512250Y501108D01*
D02*
G37*
G36*
X320250D02*
X318104Y500681D01*
X316285Y499465D01*
X315069Y497646D01*
X314702Y495798D01*
X312854Y495431D01*
X311035Y494215D01*
X311014Y494184D01*
X309896Y494931D01*
X307750Y495358D01*
X305604Y494931D01*
X303785Y493715D01*
X302569Y491896D01*
X302142Y489750D01*
X302569Y487604D01*
X303785Y485785D01*
X305604Y484569D01*
X307750Y484142D01*
X309896Y484569D01*
X311715Y485785D01*
X311736Y485816D01*
X312854Y485069D01*
X315000Y484642D01*
X317146Y485069D01*
X318965Y486285D01*
X320181Y488104D01*
X320548Y489952D01*
X322396Y490319D01*
X324215Y491535D01*
X325431Y493354D01*
X325858Y495500D01*
X325431Y497646D01*
X324215Y499465D01*
X322396Y500681D01*
X320250Y501108D01*
D02*
G37*
G36*
X128250D02*
X126104Y500681D01*
X124285Y499465D01*
X123069Y497646D01*
X122702Y495798D01*
X120854Y495431D01*
X119035Y494215D01*
X119014Y494184D01*
X117896Y494931D01*
X115750Y495358D01*
X113604Y494931D01*
X111785Y493715D01*
X110569Y491896D01*
X110142Y489750D01*
X110569Y487604D01*
X111785Y485785D01*
X113604Y484569D01*
X115750Y484142D01*
X117896Y484569D01*
X119715Y485785D01*
X119736Y485816D01*
X120854Y485069D01*
X123000Y484642D01*
X125146Y485069D01*
X126965Y486285D01*
X128181Y488104D01*
X128548Y489952D01*
X130396Y490319D01*
X132215Y491535D01*
X133431Y493354D01*
X133858Y495500D01*
X133431Y497646D01*
X132215Y499465D01*
X130396Y500681D01*
X128250Y501108D01*
D02*
G37*
G36*
X983750D02*
X981604Y500681D01*
X979785Y499465D01*
X978569Y497646D01*
X978142Y495500D01*
X978569Y493354D01*
X979785Y491535D01*
X981604Y490319D01*
X983452Y489952D01*
X983819Y488104D01*
X985035Y486285D01*
X986854Y485069D01*
X989000Y484642D01*
X991146Y485069D01*
X992264Y485816D01*
X992285Y485785D01*
X994104Y484569D01*
X996250Y484142D01*
X998396Y484569D01*
X1000215Y485785D01*
X1001431Y487604D01*
X1001858Y489750D01*
X1001431Y491896D01*
X1000215Y493715D01*
X998396Y494931D01*
X996250Y495358D01*
X994104Y494931D01*
X992986Y494184D01*
X992965Y494215D01*
X991146Y495431D01*
X989298Y495798D01*
X988931Y497646D01*
X987715Y499465D01*
X985896Y500681D01*
X983750Y501108D01*
D02*
G37*
G36*
X791750D02*
X789604Y500681D01*
X787785Y499465D01*
X786569Y497646D01*
X786142Y495500D01*
X786569Y493354D01*
X787785Y491535D01*
X789604Y490319D01*
X791452Y489952D01*
X791819Y488104D01*
X793035Y486285D01*
X794854Y485069D01*
X797000Y484642D01*
X799146Y485069D01*
X800264Y485816D01*
X800285Y485785D01*
X802104Y484569D01*
X804250Y484142D01*
X806396Y484569D01*
X808215Y485785D01*
X809431Y487604D01*
X809858Y489750D01*
X809431Y491896D01*
X808215Y493715D01*
X806396Y494931D01*
X804250Y495358D01*
X802104Y494931D01*
X800986Y494184D01*
X800965Y494215D01*
X799146Y495431D01*
X797298Y495798D01*
X796931Y497646D01*
X795715Y499465D01*
X793896Y500681D01*
X791750Y501108D01*
D02*
G37*
G36*
X599750D02*
X597604Y500681D01*
X595785Y499465D01*
X594569Y497646D01*
X594142Y495500D01*
X594569Y493354D01*
X595785Y491535D01*
X597604Y490319D01*
X599452Y489952D01*
X599819Y488104D01*
X601035Y486285D01*
X602854Y485069D01*
X605000Y484642D01*
X607146Y485069D01*
X608264Y485816D01*
X608285Y485785D01*
X610104Y484569D01*
X612250Y484142D01*
X614396Y484569D01*
X616215Y485785D01*
X617431Y487604D01*
X617858Y489750D01*
X617431Y491896D01*
X616215Y493715D01*
X614396Y494931D01*
X612250Y495358D01*
X610104Y494931D01*
X608986Y494184D01*
X608965Y494215D01*
X607146Y495431D01*
X605298Y495798D01*
X604931Y497646D01*
X603715Y499465D01*
X601896Y500681D01*
X599750Y501108D01*
D02*
G37*
G36*
X407750D02*
X405604Y500681D01*
X403785Y499465D01*
X402569Y497646D01*
X402142Y495500D01*
X402569Y493354D01*
X403785Y491535D01*
X405604Y490319D01*
X407452Y489952D01*
X407819Y488104D01*
X409035Y486285D01*
X410854Y485069D01*
X413000Y484642D01*
X415146Y485069D01*
X416264Y485816D01*
X416285Y485785D01*
X418104Y484569D01*
X420250Y484142D01*
X422396Y484569D01*
X424215Y485785D01*
X425431Y487604D01*
X425858Y489750D01*
X425431Y491896D01*
X424215Y493715D01*
X422396Y494931D01*
X420250Y495358D01*
X418104Y494931D01*
X416986Y494184D01*
X416965Y494215D01*
X415146Y495431D01*
X413298Y495798D01*
X412931Y497646D01*
X411715Y499465D01*
X409896Y500681D01*
X407750Y501108D01*
D02*
G37*
G36*
X215750D02*
X213604Y500681D01*
X211785Y499465D01*
X210569Y497646D01*
X210142Y495500D01*
X210569Y493354D01*
X211785Y491535D01*
X213604Y490319D01*
X215452Y489952D01*
X215819Y488104D01*
X217035Y486285D01*
X218854Y485069D01*
X221000Y484642D01*
X223146Y485069D01*
X224264Y485816D01*
X224285Y485785D01*
X226104Y484569D01*
X228250Y484142D01*
X230396Y484569D01*
X232215Y485785D01*
X233431Y487604D01*
X233858Y489750D01*
X233431Y491896D01*
X232215Y493715D01*
X230396Y494931D01*
X228250Y495358D01*
X226104Y494931D01*
X224986Y494184D01*
X224965Y494215D01*
X223146Y495431D01*
X221298Y495798D01*
X220931Y497646D01*
X219715Y499465D01*
X217896Y500681D01*
X215750Y501108D01*
D02*
G37*
G36*
X42700Y494682D02*
X40220Y494355D01*
X37909Y493398D01*
X35924Y491875D01*
X34402Y489891D01*
X33444Y487580D01*
X33118Y485100D01*
X33444Y482620D01*
X34402Y480309D01*
X35924Y478324D01*
X37909Y476802D01*
X40220Y475844D01*
X42700Y475518D01*
X45180Y475844D01*
X47491Y476802D01*
X49475Y478324D01*
X50998Y480309D01*
X51955Y482620D01*
X52282Y485100D01*
X51955Y487580D01*
X50998Y489891D01*
X49475Y491875D01*
X47491Y493398D01*
X45180Y494355D01*
X42700Y494682D01*
D02*
G37*
G36*
X17300D02*
X14820Y494355D01*
X12509Y493398D01*
X10524Y491875D01*
X9002Y489891D01*
X8044Y487580D01*
X7718Y485100D01*
X8044Y482620D01*
X9002Y480309D01*
X10524Y478324D01*
X12509Y476802D01*
X14820Y475844D01*
X17300Y475518D01*
X19780Y475844D01*
X22091Y476802D01*
X24075Y478324D01*
X25598Y480309D01*
X26555Y482620D01*
X26882Y485100D01*
X26555Y487580D01*
X25598Y489891D01*
X24075Y491875D01*
X22091Y493398D01*
X19780Y494355D01*
X17300Y494682D01*
D02*
G37*
G36*
X1083000Y493582D02*
X1080520Y493255D01*
X1078209Y492298D01*
X1076225Y490775D01*
X1074702Y488791D01*
X1073745Y486480D01*
X1073418Y484000D01*
X1073745Y481520D01*
X1074702Y479209D01*
X1076225Y477225D01*
X1078209Y475702D01*
X1080520Y474744D01*
X1083000Y474418D01*
X1085480Y474744D01*
X1087791Y475702D01*
X1089776Y477225D01*
X1091298Y479209D01*
X1092256Y481520D01*
X1092582Y484000D01*
X1092256Y486480D01*
X1091298Y488791D01*
X1089776Y490775D01*
X1087791Y492298D01*
X1085480Y493255D01*
X1083000Y493582D01*
D02*
G37*
G36*
X67000Y476848D02*
X65049Y476460D01*
X63395Y475355D01*
X62290Y473701D01*
X61902Y471750D01*
X62290Y469799D01*
X63395Y468145D01*
X65049Y467040D01*
X67000Y466652D01*
X68951Y467040D01*
X70605Y468145D01*
X71710Y469799D01*
X72098Y471750D01*
X71710Y473701D01*
X70605Y475355D01*
X68951Y476460D01*
X67000Y476848D01*
D02*
G37*
G36*
X18550Y469622D02*
Y460950D01*
X27222D01*
X27043Y462310D01*
X26035Y464743D01*
X24432Y466832D01*
X22343Y468435D01*
X19911Y469442D01*
X18550Y469622D01*
D02*
G37*
G36*
X16050Y469622D02*
X14689Y469442D01*
X12257Y468435D01*
X10168Y466832D01*
X8565Y464743D01*
X7557Y462310D01*
X7378Y460950D01*
X16050D01*
Y469622D01*
D02*
G37*
G36*
X725250Y470348D02*
X723299Y469960D01*
X721645Y468855D01*
X720540Y467201D01*
X720152Y465250D01*
X720540Y463299D01*
X721645Y461645D01*
X723299Y460540D01*
X725250Y460152D01*
X727201Y460540D01*
X728855Y461645D01*
X729960Y463299D01*
X730348Y465250D01*
X729960Y467201D01*
X728855Y468855D01*
X727201Y469960D01*
X725250Y470348D01*
D02*
G37*
G36*
X533250D02*
X531299Y469960D01*
X529645Y468855D01*
X528540Y467201D01*
X528152Y465250D01*
X528540Y463299D01*
X529645Y461645D01*
X531299Y460540D01*
X533250Y460152D01*
X535201Y460540D01*
X536855Y461645D01*
X537960Y463299D01*
X538348Y465250D01*
X537960Y467201D01*
X536855Y468855D01*
X535201Y469960D01*
X533250Y470348D01*
D02*
G37*
G36*
X341250D02*
X339299Y469960D01*
X337645Y468855D01*
X336540Y467201D01*
X336152Y465250D01*
X336540Y463299D01*
X337645Y461645D01*
X339299Y460540D01*
X341250Y460152D01*
X343201Y460540D01*
X344855Y461645D01*
X345960Y463299D01*
X346348Y465250D01*
X345960Y467201D01*
X344855Y468855D01*
X343201Y469960D01*
X341250Y470348D01*
D02*
G37*
G36*
X149250D02*
X147299Y469960D01*
X145645Y468855D01*
X144540Y467201D01*
X144152Y465250D01*
X144540Y463299D01*
X145645Y461645D01*
X147299Y460540D01*
X149250Y460152D01*
X151201Y460540D01*
X152855Y461645D01*
X153960Y463299D01*
X154348Y465250D01*
X153960Y467201D01*
X152855Y468855D01*
X151201Y469960D01*
X149250Y470348D01*
D02*
G37*
G36*
X1033000Y469848D02*
X1031049Y469460D01*
X1029395Y468355D01*
X1028290Y466701D01*
X1027902Y464750D01*
X1028290Y462799D01*
X1029395Y461145D01*
X1031049Y460040D01*
X1033000Y459652D01*
X1034951Y460040D01*
X1036605Y461145D01*
X1037710Y462799D01*
X1038098Y464750D01*
X1037710Y466701D01*
X1036605Y468355D01*
X1034951Y469460D01*
X1033000Y469848D01*
D02*
G37*
G36*
X42700Y469282D02*
X40220Y468955D01*
X37909Y467998D01*
X35924Y466475D01*
X34402Y464491D01*
X33444Y462180D01*
X33118Y459700D01*
X33444Y457220D01*
X34402Y454909D01*
X35924Y452924D01*
X37909Y451402D01*
X40220Y450444D01*
X42700Y450118D01*
X45180Y450444D01*
X47491Y451402D01*
X49475Y452924D01*
X50998Y454909D01*
X51955Y457220D01*
X52282Y459700D01*
X51955Y462180D01*
X50998Y464491D01*
X49475Y466475D01*
X47491Y467998D01*
X45180Y468955D01*
X42700Y469282D01*
D02*
G37*
G36*
X16050Y458450D02*
X7378D01*
X7557Y457089D01*
X8565Y454657D01*
X10168Y452568D01*
X12257Y450965D01*
X14689Y449957D01*
X16050Y449778D01*
Y458450D01*
D02*
G37*
G36*
X27222D02*
X18550D01*
Y449778D01*
X19911Y449957D01*
X22343Y450965D01*
X24432Y452568D01*
X26035Y454657D01*
X27043Y457089D01*
X27222Y458450D01*
D02*
G37*
G36*
X969200Y443557D02*
X967373Y443316D01*
X965670Y442611D01*
X964208Y441489D01*
X963637Y440745D01*
X962063D01*
X961492Y441489D01*
X960030Y442611D01*
X958327Y443316D01*
X956500Y443557D01*
X954673Y443316D01*
X952970Y442611D01*
X952070Y441920D01*
X950800Y442547D01*
Y443496D01*
X936800D01*
Y429496D01*
X950800D01*
Y430446D01*
X952070Y431072D01*
X952970Y430382D01*
X954673Y429676D01*
X956500Y429436D01*
X958327Y429676D01*
X960030Y430382D01*
X961492Y431504D01*
X962063Y432248D01*
X963637D01*
X964208Y431504D01*
X965670Y430382D01*
X967373Y429676D01*
X969200Y429436D01*
X971027Y429676D01*
X972730Y430382D01*
X974193Y431504D01*
X975314Y432966D01*
X976020Y434669D01*
X976260Y436496D01*
X976020Y438324D01*
X975314Y440026D01*
X974193Y441489D01*
X972730Y442611D01*
X971027Y443316D01*
X969200Y443557D01*
D02*
G37*
G36*
X777200D02*
X775373Y443316D01*
X773670Y442611D01*
X772208Y441489D01*
X771637Y440745D01*
X770063D01*
X769492Y441489D01*
X768030Y442611D01*
X766327Y443316D01*
X764500Y443557D01*
X762673Y443316D01*
X760970Y442611D01*
X760070Y441920D01*
X758800Y442547D01*
Y443496D01*
X744800D01*
Y429496D01*
X758800D01*
Y430446D01*
X760070Y431072D01*
X760970Y430382D01*
X762673Y429676D01*
X764500Y429436D01*
X766327Y429676D01*
X768030Y430382D01*
X769492Y431504D01*
X770063Y432248D01*
X771637D01*
X772208Y431504D01*
X773670Y430382D01*
X775373Y429676D01*
X777200Y429436D01*
X779027Y429676D01*
X780730Y430382D01*
X782193Y431504D01*
X783315Y432966D01*
X784020Y434669D01*
X784260Y436496D01*
X784020Y438324D01*
X783315Y440026D01*
X782193Y441489D01*
X780730Y442611D01*
X779027Y443316D01*
X777200Y443557D01*
D02*
G37*
G36*
X585200D02*
X583373Y443316D01*
X581670Y442611D01*
X580208Y441489D01*
X579637Y440745D01*
X578063D01*
X577492Y441489D01*
X576030Y442611D01*
X574327Y443316D01*
X572500Y443557D01*
X570673Y443316D01*
X568970Y442611D01*
X568070Y441920D01*
X566800Y442547D01*
Y443496D01*
X552800D01*
Y429496D01*
X566800D01*
Y430446D01*
X568070Y431072D01*
X568970Y430382D01*
X570673Y429676D01*
X572500Y429436D01*
X574327Y429676D01*
X576030Y430382D01*
X577492Y431504D01*
X578063Y432248D01*
X579637D01*
X580208Y431504D01*
X581670Y430382D01*
X583373Y429676D01*
X585200Y429436D01*
X587027Y429676D01*
X588730Y430382D01*
X590192Y431504D01*
X591315Y432966D01*
X592020Y434669D01*
X592260Y436496D01*
X592020Y438324D01*
X591315Y440026D01*
X590192Y441489D01*
X588730Y442611D01*
X587027Y443316D01*
X585200Y443557D01*
D02*
G37*
G36*
X393200D02*
X391373Y443316D01*
X389670Y442611D01*
X388208Y441489D01*
X387637Y440745D01*
X386063D01*
X385493Y441489D01*
X384030Y442611D01*
X382327Y443316D01*
X380500Y443557D01*
X378673Y443316D01*
X376970Y442611D01*
X376070Y441920D01*
X374800Y442547D01*
Y443496D01*
X360800D01*
Y429496D01*
X374800D01*
Y430446D01*
X376070Y431072D01*
X376970Y430382D01*
X378673Y429676D01*
X380500Y429436D01*
X382327Y429676D01*
X384030Y430382D01*
X385493Y431504D01*
X386063Y432248D01*
X387637D01*
X388208Y431504D01*
X389670Y430382D01*
X391373Y429676D01*
X393200Y429436D01*
X395027Y429676D01*
X396730Y430382D01*
X398192Y431504D01*
X399314Y432966D01*
X400020Y434669D01*
X400260Y436496D01*
X400020Y438324D01*
X399314Y440026D01*
X398192Y441489D01*
X396730Y442611D01*
X395027Y443316D01*
X393200Y443557D01*
D02*
G37*
G36*
X201200D02*
X199373Y443316D01*
X197670Y442611D01*
X196208Y441489D01*
X195637Y440745D01*
X194063D01*
X193493Y441489D01*
X192030Y442611D01*
X190327Y443316D01*
X188500Y443557D01*
X186673Y443316D01*
X184970Y442611D01*
X184070Y441920D01*
X182800Y442547D01*
Y443496D01*
X168800D01*
Y429496D01*
X182800D01*
Y430446D01*
X184070Y431072D01*
X184970Y430382D01*
X186673Y429676D01*
X188500Y429436D01*
X190327Y429676D01*
X192030Y430382D01*
X193493Y431504D01*
X194063Y432248D01*
X195637D01*
X196208Y431504D01*
X197670Y430382D01*
X199373Y429676D01*
X201200Y429436D01*
X203027Y429676D01*
X204730Y430382D01*
X206192Y431504D01*
X207314Y432966D01*
X208020Y434669D01*
X208260Y436496D01*
X208020Y438324D01*
X207314Y440026D01*
X206192Y441489D01*
X204730Y442611D01*
X203027Y443316D01*
X201200Y443557D01*
D02*
G37*
G36*
X907000Y448848D02*
X905049Y448460D01*
X903395Y447355D01*
X902290Y445701D01*
X901902Y443750D01*
X902290Y441799D01*
X903395Y440145D01*
X905049Y439040D01*
X907000Y438652D01*
X908951Y439040D01*
X910605Y440145D01*
X911710Y441799D01*
X912098Y443750D01*
X911710Y445701D01*
X910605Y447355D01*
X908951Y448460D01*
X907000Y448848D01*
D02*
G37*
G36*
X927000Y438094D02*
X925050Y437706D01*
X923396Y436601D01*
X922290Y434947D01*
X921902Y432996D01*
X922290Y431045D01*
X923396Y429391D01*
X925050Y428286D01*
X927000Y427898D01*
X928951Y428286D01*
X930605Y429391D01*
X931710Y431045D01*
X932098Y432996D01*
X931710Y434947D01*
X930605Y436601D01*
X928951Y437706D01*
X927000Y438094D01*
D02*
G37*
G36*
X735000D02*
X733049Y437706D01*
X731396Y436601D01*
X730291Y434947D01*
X729902Y432996D01*
X730291Y431045D01*
X731396Y429391D01*
X733049Y428286D01*
X735000Y427898D01*
X736951Y428286D01*
X738605Y429391D01*
X739710Y431045D01*
X740098Y432996D01*
X739710Y434947D01*
X738605Y436601D01*
X736951Y437706D01*
X735000Y438094D01*
D02*
G37*
G36*
X543000D02*
X541049Y437706D01*
X539396Y436601D01*
X538290Y434947D01*
X537902Y432996D01*
X538290Y431045D01*
X539396Y429391D01*
X541049Y428286D01*
X543000Y427898D01*
X544951Y428286D01*
X546605Y429391D01*
X547710Y431045D01*
X548098Y432996D01*
X547710Y434947D01*
X546605Y436601D01*
X544951Y437706D01*
X543000Y438094D01*
D02*
G37*
G36*
X351000D02*
X349049Y437706D01*
X347396Y436601D01*
X346291Y434947D01*
X345902Y432996D01*
X346291Y431045D01*
X347396Y429391D01*
X349049Y428286D01*
X351000Y427898D01*
X352951Y428286D01*
X354605Y429391D01*
X355710Y431045D01*
X356098Y432996D01*
X355710Y434947D01*
X354605Y436601D01*
X352951Y437706D01*
X351000Y438094D01*
D02*
G37*
G36*
X159000D02*
X157049Y437706D01*
X155395Y436601D01*
X154290Y434947D01*
X153902Y432996D01*
X154290Y431045D01*
X155395Y429391D01*
X157049Y428286D01*
X159000Y427898D01*
X160951Y428286D01*
X162605Y429391D01*
X163710Y431045D01*
X164098Y432996D01*
X163710Y434947D01*
X162605Y436601D01*
X160951Y437706D01*
X159000Y438094D01*
D02*
G37*
G36*
X42700Y443882D02*
X40220Y443555D01*
X37909Y442598D01*
X35924Y441075D01*
X34402Y439091D01*
X33444Y436780D01*
X33118Y434300D01*
X33444Y431820D01*
X34402Y429509D01*
X35924Y427524D01*
X37909Y426002D01*
X40220Y425044D01*
X42700Y424718D01*
X45180Y425044D01*
X47491Y426002D01*
X49475Y427524D01*
X50998Y429509D01*
X51955Y431820D01*
X52282Y434300D01*
X51955Y436780D01*
X50998Y439091D01*
X49475Y441075D01*
X47491Y442598D01*
X45180Y443555D01*
X42700Y443882D01*
D02*
G37*
G36*
X17300D02*
X14820Y443555D01*
X12509Y442598D01*
X10524Y441075D01*
X9002Y439091D01*
X8044Y436780D01*
X7718Y434300D01*
X8044Y431820D01*
X9002Y429509D01*
X10524Y427524D01*
X12509Y426002D01*
X14820Y425044D01*
X17300Y424718D01*
X19780Y425044D01*
X22091Y426002D01*
X24075Y427524D01*
X25598Y429509D01*
X26555Y431820D01*
X26882Y434300D01*
X26555Y436780D01*
X25598Y439091D01*
X24075Y441075D01*
X22091Y442598D01*
X19780Y443555D01*
X17300Y443882D01*
D02*
G37*
G36*
X1067600Y419000D02*
X1058850D01*
Y410250D01*
X1067600D01*
Y419000D01*
D02*
G37*
G36*
X1056350D02*
X1047600D01*
Y410250D01*
X1056350D01*
Y419000D01*
D02*
G37*
G36*
X43950Y418822D02*
Y410150D01*
X52622D01*
X52442Y411510D01*
X51435Y413943D01*
X49832Y416032D01*
X47743Y417635D01*
X45311Y418642D01*
X43950Y418822D01*
D02*
G37*
G36*
X41450Y418821D02*
X40089Y418642D01*
X37657Y417635D01*
X35568Y416032D01*
X33965Y413943D01*
X32957Y411510D01*
X32778Y410150D01*
X41450D01*
Y418821D01*
D02*
G37*
G36*
X1083000Y418582D02*
X1080520Y418255D01*
X1078209Y417298D01*
X1076225Y415775D01*
X1074702Y413791D01*
X1073745Y411480D01*
X1073418Y409000D01*
X1073745Y406520D01*
X1074702Y404209D01*
X1076225Y402225D01*
X1078209Y400702D01*
X1080520Y399744D01*
X1083000Y399418D01*
X1085480Y399744D01*
X1087791Y400702D01*
X1089776Y402225D01*
X1091298Y404209D01*
X1092256Y406520D01*
X1092582Y409000D01*
X1092256Y411480D01*
X1091298Y413791D01*
X1089776Y415775D01*
X1087791Y417298D01*
X1085480Y418255D01*
X1083000Y418582D01*
D02*
G37*
G36*
X17300Y418482D02*
X14820Y418155D01*
X12509Y417198D01*
X10524Y415675D01*
X9002Y413691D01*
X8044Y411380D01*
X7718Y408900D01*
X8044Y406420D01*
X9002Y404109D01*
X10524Y402124D01*
X12509Y400602D01*
X14820Y399644D01*
X17300Y399318D01*
X19780Y399644D01*
X22091Y400602D01*
X24075Y402124D01*
X25598Y404109D01*
X26555Y406420D01*
X26882Y408900D01*
X26555Y411380D01*
X25598Y413691D01*
X24075Y415675D01*
X22091Y417198D01*
X19780Y418155D01*
X17300Y418482D01*
D02*
G37*
G36*
X1067600Y407750D02*
X1058850D01*
Y399000D01*
X1067600D01*
Y407750D01*
D02*
G37*
G36*
X1056350D02*
X1047600D01*
Y399000D01*
X1056350D01*
Y407750D01*
D02*
G37*
G36*
X41450Y407650D02*
X32778D01*
X32957Y406289D01*
X33965Y403857D01*
X35568Y401768D01*
X37657Y400165D01*
X40089Y399157D01*
X41450Y398978D01*
Y407650D01*
D02*
G37*
G36*
X52622D02*
X43950D01*
Y398978D01*
X45311Y399157D01*
X47743Y400165D01*
X49832Y401768D01*
X51435Y403857D01*
X52442Y406289D01*
X52622Y407650D01*
D02*
G37*
G36*
X969320Y392118D02*
X966979Y391652D01*
X964994Y390326D01*
X964875Y390147D01*
X963605D01*
X963486Y390326D01*
X961501Y391652D01*
X959160Y392118D01*
X956819Y391652D01*
X954834Y390326D01*
X954715Y390147D01*
X953445D01*
X953326Y390326D01*
X951341Y391652D01*
X949000Y392118D01*
X946659Y391652D01*
X944674Y390326D01*
X943348Y388341D01*
X942883Y386000D01*
X943348Y383659D01*
X944674Y381674D01*
X946659Y380348D01*
X949000Y379883D01*
X951341Y380348D01*
X953326Y381674D01*
X953445Y381853D01*
X954715D01*
X954834Y381674D01*
X956819Y380348D01*
X959160Y379883D01*
X961501Y380348D01*
X963486Y381674D01*
X963605Y381853D01*
X964875D01*
X964994Y381674D01*
X966979Y380348D01*
X969320Y379883D01*
X971661Y380348D01*
X973646Y381674D01*
X974972Y383659D01*
X975437Y386000D01*
X974972Y388341D01*
X973646Y390326D01*
X971661Y391652D01*
X969320Y392118D01*
D02*
G37*
G36*
X819000Y393098D02*
X817049Y392710D01*
X815395Y391605D01*
X814290Y389951D01*
X813902Y388000D01*
X814290Y386049D01*
X815395Y384395D01*
X817049Y383290D01*
X819000Y382902D01*
X820951Y383290D01*
X822605Y384395D01*
X823710Y386049D01*
X824098Y388000D01*
X823710Y389951D01*
X822605Y391605D01*
X820951Y392710D01*
X819000Y393098D01*
D02*
G37*
G36*
X178000Y392098D02*
X176049Y391710D01*
X174395Y390605D01*
X173290Y388951D01*
X172902Y387000D01*
X173290Y385049D01*
X174395Y383395D01*
X176049Y382290D01*
X178000Y381902D01*
X179951Y382290D01*
X181605Y383395D01*
X182710Y385049D01*
X183098Y387000D01*
X182710Y388951D01*
X181605Y390605D01*
X179951Y391710D01*
X178000Y392098D01*
D02*
G37*
G36*
X273000Y391098D02*
X271049Y390710D01*
X269395Y389605D01*
X268290Y387951D01*
X267902Y386000D01*
X268290Y384049D01*
X269395Y382395D01*
X271049Y381290D01*
X273000Y380902D01*
X274951Y381290D01*
X276605Y382395D01*
X277710Y384049D01*
X278098Y386000D01*
X277710Y387951D01*
X276605Y389605D01*
X274951Y390710D01*
X273000Y391098D01*
D02*
G37*
G36*
X251000D02*
X249049Y390710D01*
X247395Y389605D01*
X246290Y387951D01*
X245902Y386000D01*
X246290Y384049D01*
X247395Y382395D01*
X249049Y381290D01*
X251000Y380902D01*
X252951Y381290D01*
X254605Y382395D01*
X255710Y384049D01*
X256098Y386000D01*
X255710Y387951D01*
X254605Y389605D01*
X252951Y390710D01*
X251000Y391098D01*
D02*
G37*
G36*
X1083000Y393182D02*
X1080520Y392855D01*
X1078209Y391898D01*
X1076225Y390375D01*
X1074702Y388391D01*
X1073745Y386080D01*
X1073418Y383600D01*
X1073745Y381120D01*
X1074702Y378809D01*
X1076225Y376824D01*
X1078209Y375302D01*
X1080520Y374344D01*
X1083000Y374018D01*
X1085480Y374344D01*
X1087791Y375302D01*
X1089776Y376824D01*
X1091298Y378809D01*
X1092256Y381120D01*
X1092582Y383600D01*
X1092256Y386080D01*
X1091298Y388391D01*
X1089776Y390375D01*
X1087791Y391898D01*
X1085480Y392855D01*
X1083000Y393182D01*
D02*
G37*
G36*
X1057600D02*
X1055120Y392855D01*
X1052809Y391898D01*
X1050825Y390375D01*
X1049302Y388391D01*
X1048345Y386080D01*
X1048018Y383600D01*
X1048345Y381120D01*
X1049302Y378809D01*
X1050825Y376824D01*
X1052809Y375302D01*
X1055120Y374344D01*
X1057600Y374018D01*
X1060080Y374344D01*
X1062391Y375302D01*
X1064376Y376824D01*
X1065898Y378809D01*
X1066856Y381120D01*
X1067182Y383600D01*
X1066856Y386080D01*
X1065898Y388391D01*
X1064376Y390375D01*
X1062391Y391898D01*
X1060080Y392855D01*
X1057600Y393182D01*
D02*
G37*
G36*
X315000Y383098D02*
X313049Y382710D01*
X311395Y381605D01*
X310290Y379951D01*
X309902Y378000D01*
X310290Y376049D01*
X311395Y374395D01*
X313049Y373290D01*
X315000Y372902D01*
X316951Y373290D01*
X318605Y374395D01*
X319710Y376049D01*
X320098Y378000D01*
X319710Y379951D01*
X318605Y381605D01*
X316951Y382710D01*
X315000Y383098D01*
D02*
G37*
G36*
X164000Y387098D02*
X162049Y386710D01*
X160395Y385605D01*
X159290Y383951D01*
X158902Y382000D01*
X159290Y380049D01*
X160395Y378395D01*
X162049Y377290D01*
X164000Y376902D01*
X165065Y375819D01*
X164902Y375000D01*
X165290Y373049D01*
X166395Y371395D01*
X168049Y370290D01*
X170000Y369902D01*
X171951Y370290D01*
X173605Y371395D01*
X174710Y373049D01*
X175098Y375000D01*
X174710Y376951D01*
X173605Y378605D01*
X171951Y379710D01*
X170000Y380098D01*
X168935Y381181D01*
X169098Y382000D01*
X168710Y383951D01*
X167605Y385605D01*
X165951Y386710D01*
X164000Y387098D01*
D02*
G37*
G36*
X1026000Y391437D02*
X1023659Y390972D01*
X1021674Y389646D01*
X1020348Y387661D01*
X1019883Y385320D01*
X1020348Y382979D01*
X1021674Y380994D01*
X1021853Y380875D01*
Y379605D01*
X1021674Y379486D01*
X1020348Y377501D01*
X1019883Y375160D01*
X1020348Y372819D01*
X1021674Y370834D01*
X1023659Y369508D01*
X1026000Y369043D01*
X1028341Y369508D01*
X1030326Y370834D01*
X1031652Y372819D01*
X1032117Y375160D01*
X1031652Y377501D01*
X1030326Y379486D01*
X1030147Y379605D01*
Y380875D01*
X1030326Y380994D01*
X1031652Y382979D01*
X1032117Y385320D01*
X1031652Y387661D01*
X1030326Y389646D01*
X1028341Y390972D01*
X1026000Y391437D01*
D02*
G37*
G36*
X824000Y381118D02*
X821659Y380652D01*
X819674Y379326D01*
X818348Y377341D01*
X817883Y375000D01*
X818348Y372659D01*
X819674Y370674D01*
X821659Y369348D01*
X824000Y368882D01*
X826341Y369348D01*
X828326Y370674D01*
X829652Y372659D01*
X830117Y375000D01*
X829652Y377341D01*
X828326Y379326D01*
X826341Y380652D01*
X824000Y381118D01*
D02*
G37*
G36*
X838000Y380957D02*
X835659Y380492D01*
X833674Y379166D01*
X832348Y377181D01*
X831882Y374840D01*
X832348Y372499D01*
X833674Y370514D01*
X835659Y369188D01*
X838000Y368722D01*
X840341Y369188D01*
X842326Y370514D01*
X843652Y372499D01*
X844118Y374840D01*
X843652Y377181D01*
X842326Y379166D01*
X840341Y380492D01*
X838000Y380957D01*
D02*
G37*
G36*
X887000Y386118D02*
X884659Y385652D01*
X882674Y384326D01*
X881348Y382341D01*
X880882Y380000D01*
X881348Y377659D01*
X882674Y375674D01*
X882853Y375555D01*
Y374285D01*
X882674Y374166D01*
X881348Y372181D01*
X880882Y369840D01*
X881348Y367499D01*
X882674Y365514D01*
X884659Y364188D01*
X887000Y363722D01*
X889341Y364188D01*
X891326Y365514D01*
X892652Y367499D01*
X893118Y369840D01*
X892652Y372181D01*
X891326Y374166D01*
X891147Y374285D01*
Y375555D01*
X891326Y375674D01*
X892652Y377659D01*
X893118Y380000D01*
X892652Y382341D01*
X891326Y384326D01*
X889341Y385652D01*
X887000Y386118D01*
D02*
G37*
G36*
X623000Y370098D02*
X621049Y369710D01*
X619395Y368605D01*
X618290Y366951D01*
X617902Y365000D01*
X618290Y363049D01*
X619395Y361395D01*
X621049Y360290D01*
X623000Y359902D01*
X624951Y360290D01*
X626605Y361395D01*
X627710Y363049D01*
X628098Y365000D01*
X627710Y366951D01*
X626605Y368605D01*
X624951Y369710D01*
X623000Y370098D01*
D02*
G37*
G36*
X1041000Y367098D02*
X1039049Y366710D01*
X1037395Y365605D01*
X1036290Y363951D01*
X1035902Y362000D01*
X1036290Y360049D01*
X1037395Y358395D01*
X1039049Y357290D01*
X1041000Y356902D01*
X1042951Y357290D01*
X1044605Y358395D01*
X1045710Y360049D01*
X1046098Y362000D01*
X1045710Y363951D01*
X1044605Y365605D01*
X1042951Y366710D01*
X1041000Y367098D01*
D02*
G37*
G36*
X29210Y364508D02*
X27259Y364120D01*
X25605Y363015D01*
X24500Y361361D01*
X24112Y359410D01*
X24500Y357459D01*
X25605Y355805D01*
X27259Y354700D01*
X29210Y354312D01*
X31161Y354700D01*
X32815Y355805D01*
X33920Y357459D01*
X34308Y359410D01*
X33920Y361361D01*
X32815Y363015D01*
X31161Y364120D01*
X29210Y364508D01*
D02*
G37*
G36*
X441000Y359848D02*
X439049Y359460D01*
X437395Y358355D01*
X436290Y356701D01*
X435902Y354750D01*
X436290Y352799D01*
X437395Y351145D01*
X439049Y350040D01*
X441000Y349652D01*
X442951Y350040D01*
X444605Y351145D01*
X445710Y352799D01*
X446098Y354750D01*
X445710Y356701D01*
X444605Y358355D01*
X442951Y359460D01*
X441000Y359848D01*
D02*
G37*
G36*
X1083000Y367782D02*
X1080520Y367455D01*
X1078209Y366498D01*
X1076225Y364975D01*
X1074702Y362991D01*
X1073745Y360680D01*
X1073418Y358200D01*
X1073745Y355720D01*
X1074702Y353409D01*
X1076225Y351424D01*
X1078209Y349902D01*
X1080520Y348945D01*
X1083000Y348618D01*
X1085480Y348945D01*
X1087791Y349902D01*
X1089776Y351424D01*
X1091298Y353409D01*
X1092256Y355720D01*
X1092582Y358200D01*
X1092256Y360680D01*
X1091298Y362991D01*
X1089776Y364975D01*
X1087791Y366498D01*
X1085480Y367455D01*
X1083000Y367782D01*
D02*
G37*
G36*
X1057600D02*
X1055120Y367455D01*
X1052809Y366498D01*
X1050825Y364975D01*
X1049302Y362991D01*
X1048345Y360680D01*
X1048018Y358200D01*
X1048345Y355720D01*
X1049302Y353409D01*
X1050825Y351424D01*
X1052809Y349902D01*
X1055120Y348945D01*
X1057600Y348618D01*
X1060080Y348945D01*
X1062391Y349902D01*
X1064376Y351424D01*
X1065898Y353409D01*
X1066856Y355720D01*
X1067182Y358200D01*
X1066856Y360680D01*
X1065898Y362991D01*
X1064376Y364975D01*
X1062391Y366498D01*
X1060080Y367455D01*
X1057600Y367782D01*
D02*
G37*
G36*
X1041000Y355098D02*
X1039049Y354710D01*
X1037395Y353605D01*
X1036290Y351951D01*
X1035902Y350000D01*
X1036290Y348049D01*
X1037395Y346395D01*
X1039049Y345290D01*
X1041000Y344902D01*
X1042951Y345290D01*
X1044605Y346395D01*
X1045710Y348049D01*
X1046098Y350000D01*
X1045710Y351951D01*
X1044605Y353605D01*
X1042951Y354710D01*
X1041000Y355098D01*
D02*
G37*
G36*
X176000D02*
X174049Y354710D01*
X172395Y353605D01*
X171290Y351951D01*
X170902Y350000D01*
X171290Y348049D01*
X172395Y346395D01*
X174049Y345290D01*
X176000Y344902D01*
X177951Y345290D01*
X179605Y346395D01*
X180710Y348049D01*
X181098Y350000D01*
X180710Y351951D01*
X179605Y353605D01*
X177951Y354710D01*
X176000Y355098D01*
D02*
G37*
G36*
X353000Y346848D02*
X351049Y346460D01*
X349395Y345355D01*
X348933Y344663D01*
X347210Y344287D01*
X346951Y344460D01*
X345000Y344848D01*
X343049Y344460D01*
X341395Y343355D01*
X340290Y341701D01*
X339902Y339750D01*
X340165Y338426D01*
X339022Y337662D01*
X338951Y337710D01*
X337000Y338098D01*
X335049Y337710D01*
X333395Y336605D01*
X332290Y334951D01*
X332247Y334734D01*
X330952D01*
X330710Y335951D01*
X329605Y337605D01*
X327951Y338710D01*
X326000Y339098D01*
X324049Y338710D01*
X322395Y337605D01*
X321290Y335951D01*
X320902Y334000D01*
X321290Y332049D01*
X322395Y330395D01*
X324049Y329290D01*
X326000Y328902D01*
X327951Y329290D01*
X329605Y330395D01*
X330710Y332049D01*
X330753Y332266D01*
X332048D01*
X332290Y331049D01*
X333395Y329395D01*
X335049Y328290D01*
X337000Y327902D01*
X338951Y328290D01*
X340605Y329395D01*
X341710Y331049D01*
X342098Y333000D01*
X341835Y334324D01*
X342977Y335088D01*
X343049Y335040D01*
X345000Y334652D01*
X346951Y335040D01*
X348605Y336145D01*
X349067Y336837D01*
X350790Y337213D01*
X351049Y337040D01*
X353000Y336652D01*
X354951Y337040D01*
X356605Y338145D01*
X357710Y339799D01*
X358098Y341750D01*
X357710Y343701D01*
X356605Y345355D01*
X354951Y346460D01*
X353000Y346848D01*
D02*
G37*
G36*
X603350Y346098D02*
X601399Y345710D01*
X599745Y344605D01*
X598640Y342951D01*
X598252Y341000D01*
X598640Y339049D01*
X599745Y337396D01*
X601399Y336290D01*
X603350Y335902D01*
X605301Y336290D01*
X606955Y337396D01*
X608060Y339049D01*
X608448Y341000D01*
X608060Y342951D01*
X606955Y344605D01*
X605301Y345710D01*
X603350Y346098D01*
D02*
G37*
G36*
X470000Y346098D02*
X468049Y345710D01*
X466395Y344605D01*
X465290Y342951D01*
X464902Y341000D01*
X465290Y339049D01*
X466395Y337395D01*
X468049Y336290D01*
X470000Y335902D01*
X471951Y336290D01*
X473605Y337395D01*
X474710Y339049D01*
X475098Y341000D01*
X474710Y342951D01*
X473605Y344605D01*
X471951Y345710D01*
X470000Y346098D01*
D02*
G37*
G36*
X101520Y344578D02*
X99569Y344190D01*
X97915Y343085D01*
X96810Y341431D01*
X96422Y339480D01*
X96810Y337529D01*
X97915Y335876D01*
X99569Y334770D01*
X101520Y334382D01*
X103471Y334770D01*
X105125Y335876D01*
X106230Y337529D01*
X106618Y339480D01*
X106230Y341431D01*
X105125Y343085D01*
X103471Y344190D01*
X101520Y344578D01*
D02*
G37*
G36*
X78000Y344098D02*
X76049Y343710D01*
X74395Y342605D01*
X73290Y340951D01*
X72902Y339000D01*
X73290Y337049D01*
X74395Y335395D01*
X76049Y334290D01*
X78000Y333902D01*
X79951Y334290D01*
X81605Y335395D01*
X82710Y337049D01*
X83098Y339000D01*
X82710Y340951D01*
X81605Y342605D01*
X79951Y343710D01*
X78000Y344098D01*
D02*
G37*
G36*
X1083000Y342382D02*
X1080520Y342055D01*
X1078209Y341098D01*
X1076225Y339575D01*
X1074702Y337591D01*
X1073745Y335280D01*
X1073418Y332800D01*
X1073745Y330320D01*
X1074702Y328009D01*
X1076225Y326025D01*
X1078209Y324502D01*
X1080520Y323545D01*
X1083000Y323218D01*
X1085480Y323545D01*
X1087791Y324502D01*
X1089776Y326025D01*
X1091298Y328009D01*
X1092256Y330320D01*
X1092582Y332800D01*
X1092256Y335280D01*
X1091298Y337591D01*
X1089776Y339575D01*
X1087791Y341098D01*
X1085480Y342055D01*
X1083000Y342382D01*
D02*
G37*
G36*
X1057600D02*
X1055120Y342055D01*
X1052809Y341098D01*
X1050825Y339575D01*
X1049302Y337591D01*
X1048345Y335280D01*
X1048018Y332800D01*
X1048345Y330320D01*
X1049302Y328009D01*
X1050825Y326025D01*
X1052809Y324502D01*
X1055120Y323545D01*
X1057600Y323218D01*
X1060080Y323545D01*
X1062391Y324502D01*
X1064376Y326025D01*
X1065898Y328009D01*
X1066856Y330320D01*
X1067182Y332800D01*
X1066856Y335280D01*
X1065898Y337591D01*
X1064376Y339575D01*
X1062391Y341098D01*
X1060080Y342055D01*
X1057600Y342382D01*
D02*
G37*
G36*
X305000Y328848D02*
X303049Y328460D01*
X301395Y327355D01*
X300290Y325701D01*
X299902Y323750D01*
X300290Y321799D01*
X301395Y320145D01*
X303049Y319040D01*
X305000Y318652D01*
X306951Y319040D01*
X308605Y320145D01*
X309710Y321799D01*
X310098Y323750D01*
X309710Y325701D01*
X308605Y327355D01*
X306951Y328460D01*
X305000Y328848D01*
D02*
G37*
G36*
X358140Y328678D02*
X356189Y328290D01*
X354535Y327185D01*
X353430Y325531D01*
X353042Y323580D01*
X353430Y321629D01*
X354535Y319975D01*
X356189Y318870D01*
X358140Y318482D01*
X360091Y318870D01*
X361745Y319975D01*
X362850Y321629D01*
X363238Y323580D01*
X362850Y325531D01*
X361745Y327185D01*
X360091Y328290D01*
X358140Y328678D01*
D02*
G37*
G36*
X247650Y327678D02*
X245699Y327290D01*
X244045Y326185D01*
X242940Y324531D01*
X242552Y322580D01*
X242940Y320629D01*
X244045Y318975D01*
X245699Y317870D01*
X247650Y317482D01*
X249601Y317870D01*
X251255Y318975D01*
X252360Y320629D01*
X252748Y322580D01*
X252360Y324531D01*
X251255Y326185D01*
X249601Y327290D01*
X247650Y327678D01*
D02*
G37*
G36*
X331000Y327098D02*
X329049Y326710D01*
X327395Y325605D01*
X326290Y323951D01*
X325902Y322000D01*
X326290Y320049D01*
X327395Y318395D01*
X329049Y317290D01*
X331000Y316902D01*
X332951Y317290D01*
X334605Y318395D01*
X335710Y320049D01*
X336098Y322000D01*
X335710Y323951D01*
X334605Y325605D01*
X332951Y326710D01*
X331000Y327098D01*
D02*
G37*
G36*
X72000Y317848D02*
X70049Y317460D01*
X68395Y316355D01*
X67290Y314701D01*
X66902Y312750D01*
X67290Y310799D01*
X68395Y309145D01*
X70049Y308040D01*
X72000Y307652D01*
X73951Y308040D01*
X75605Y309145D01*
X76710Y310799D01*
X77098Y312750D01*
X76710Y314701D01*
X75605Y316355D01*
X73951Y317460D01*
X72000Y317848D01*
D02*
G37*
G36*
X827000Y318278D02*
X824659Y317812D01*
X822674Y316486D01*
X821348Y314501D01*
X820882Y312160D01*
X821348Y309819D01*
X822674Y307834D01*
X824659Y306508D01*
X827000Y306042D01*
X829341Y306508D01*
X831326Y307834D01*
X832652Y309819D01*
X833118Y312160D01*
X832652Y314501D01*
X831326Y316486D01*
X829341Y317812D01*
X827000Y318278D01*
D02*
G37*
G36*
X841000Y318118D02*
X838659Y317652D01*
X836674Y316326D01*
X835348Y314341D01*
X834883Y312000D01*
X835348Y309659D01*
X836674Y307674D01*
X838659Y306348D01*
X841000Y305882D01*
X843341Y306348D01*
X845326Y307674D01*
X846652Y309659D01*
X847117Y312000D01*
X846652Y314341D01*
X845326Y316326D01*
X843341Y317652D01*
X841000Y318118D01*
D02*
G37*
G36*
X1008530Y313638D02*
X1006579Y313250D01*
X1004925Y312145D01*
X1003820Y310491D01*
X1003432Y308540D01*
X1003820Y306589D01*
X1004925Y304935D01*
X1006579Y303830D01*
X1008530Y303442D01*
X1010481Y303830D01*
X1012135Y304935D01*
X1013240Y306589D01*
X1013628Y308540D01*
X1013240Y310491D01*
X1012135Y312145D01*
X1010481Y313250D01*
X1008530Y313638D01*
D02*
G37*
G36*
X1083000Y316982D02*
X1080520Y316655D01*
X1078209Y315698D01*
X1076225Y314175D01*
X1074702Y312191D01*
X1073745Y309880D01*
X1073418Y307400D01*
X1073745Y304920D01*
X1074702Y302609D01*
X1076225Y300625D01*
X1078209Y299102D01*
X1080520Y298144D01*
X1083000Y297818D01*
X1085480Y298144D01*
X1087791Y299102D01*
X1089776Y300625D01*
X1091298Y302609D01*
X1092256Y304920D01*
X1092582Y307400D01*
X1092256Y309880D01*
X1091298Y312191D01*
X1089776Y314175D01*
X1087791Y315698D01*
X1085480Y316655D01*
X1083000Y316982D01*
D02*
G37*
G36*
X1057600D02*
X1055120Y316655D01*
X1052809Y315698D01*
X1050825Y314175D01*
X1049302Y312191D01*
X1048345Y309880D01*
X1048018Y307400D01*
X1048345Y304920D01*
X1049302Y302609D01*
X1050825Y300625D01*
X1052809Y299102D01*
X1055120Y298144D01*
X1057600Y297818D01*
X1060080Y298144D01*
X1062391Y299102D01*
X1064376Y300625D01*
X1065898Y302609D01*
X1066856Y304920D01*
X1067182Y307400D01*
X1066856Y309880D01*
X1065898Y312191D01*
X1064376Y314175D01*
X1062391Y315698D01*
X1060080Y316655D01*
X1057600Y316982D01*
D02*
G37*
G36*
X893000Y306278D02*
X890659Y305812D01*
X888674Y304486D01*
X887348Y302501D01*
X886882Y300160D01*
X887348Y297819D01*
X888674Y295834D01*
X890659Y294508D01*
X893000Y294042D01*
X895341Y294508D01*
X897326Y295834D01*
X898652Y297819D01*
X899118Y300160D01*
X898652Y302501D01*
X897326Y304486D01*
X895341Y305812D01*
X893000Y306278D01*
D02*
G37*
G36*
X235000Y304098D02*
X233049Y303710D01*
X231395Y302605D01*
X230290Y300951D01*
X229902Y299000D01*
X230290Y297049D01*
X231395Y295395D01*
X233049Y294290D01*
X235000Y293902D01*
X236951Y294290D01*
X238605Y295395D01*
X239710Y297049D01*
X240098Y299000D01*
X239710Y300951D01*
X238605Y302605D01*
X236951Y303710D01*
X235000Y304098D01*
D02*
G37*
G36*
X907000Y306117D02*
X904659Y305652D01*
X902674Y304326D01*
X901348Y302341D01*
X900882Y300000D01*
X901348Y297659D01*
X902674Y295674D01*
X904659Y294348D01*
X907000Y293883D01*
X909341Y294348D01*
X911326Y295674D01*
X912652Y297659D01*
X913118Y300000D01*
X912652Y302341D01*
X911326Y304326D01*
X909341Y305652D01*
X907000Y306117D01*
D02*
G37*
G36*
X786110Y302022D02*
Y293350D01*
X794782D01*
X794603Y294711D01*
X793595Y297143D01*
X791992Y299232D01*
X789903Y300835D01*
X787470Y301843D01*
X786110Y302022D01*
D02*
G37*
G36*
X783610D02*
X782250Y301843D01*
X779817Y300835D01*
X777728Y299232D01*
X776125Y297143D01*
X775117Y294711D01*
X774938Y293350D01*
X783610D01*
Y302022D01*
D02*
G37*
G36*
X37000Y296848D02*
X35049Y296460D01*
X33395Y295355D01*
X32290Y293701D01*
X31902Y291750D01*
X32290Y289799D01*
X33395Y288145D01*
X35049Y287040D01*
X37000Y286652D01*
X38951Y287040D01*
X40605Y288145D01*
X41710Y289799D01*
X42098Y291750D01*
X41710Y293701D01*
X40605Y295355D01*
X38951Y296460D01*
X37000Y296848D01*
D02*
G37*
G36*
X810260Y301682D02*
X807780Y301355D01*
X805469Y300398D01*
X803484Y298876D01*
X801962Y296891D01*
X801004Y294580D01*
X800678Y292100D01*
X801004Y289620D01*
X801962Y287309D01*
X803484Y285324D01*
X805469Y283802D01*
X807780Y282845D01*
X810260Y282518D01*
X812740Y282845D01*
X815051Y283802D01*
X817035Y285324D01*
X818558Y287309D01*
X819516Y289620D01*
X819842Y292100D01*
X819516Y294580D01*
X818558Y296891D01*
X817035Y298876D01*
X815051Y300398D01*
X812740Y301355D01*
X810260Y301682D01*
D02*
G37*
G36*
X794782Y290850D02*
X786110D01*
Y282178D01*
X787470Y282357D01*
X789903Y283365D01*
X791992Y284968D01*
X793595Y287057D01*
X794603Y289489D01*
X794782Y290850D01*
D02*
G37*
G36*
X783610D02*
X774938D01*
X775117Y289489D01*
X776125Y287057D01*
X777728Y284968D01*
X779817Y283365D01*
X782250Y282357D01*
X783610Y282178D01*
Y290850D01*
D02*
G37*
G36*
X1005000Y290098D02*
X1003049Y289710D01*
X1001395Y288605D01*
X1000290Y286951D01*
X999902Y285000D01*
X1000290Y283049D01*
X1001395Y281395D01*
X1003049Y280290D01*
X1005000Y279902D01*
X1006951Y280290D01*
X1008605Y281395D01*
X1009710Y283049D01*
X1010098Y285000D01*
X1009710Y286951D01*
X1008605Y288605D01*
X1006951Y289710D01*
X1005000Y290098D01*
D02*
G37*
G36*
X222000D02*
X220049Y289710D01*
X218395Y288605D01*
X217290Y286951D01*
X216902Y285000D01*
X217290Y283049D01*
X218395Y281395D01*
X220049Y280290D01*
X222000Y279902D01*
X223951Y280290D01*
X225605Y281395D01*
X226710Y283049D01*
X227098Y285000D01*
X226710Y286951D01*
X225605Y288605D01*
X223951Y289710D01*
X222000Y290098D01*
D02*
G37*
G36*
X970430Y289508D02*
X968479Y289120D01*
X966825Y288015D01*
X965720Y286361D01*
X965332Y284410D01*
X965720Y282459D01*
X966825Y280805D01*
X968479Y279700D01*
X970430Y279312D01*
X972381Y279700D01*
X974035Y280805D01*
X975140Y282459D01*
X975528Y284410D01*
X975140Y286361D01*
X974035Y288015D01*
X972381Y289120D01*
X970430Y289508D01*
D02*
G37*
G36*
X290999Y286097D02*
X289049Y285709D01*
X287395Y284604D01*
X286290Y282950D01*
X285902Y280999D01*
X286290Y279049D01*
X287395Y277395D01*
X289049Y276290D01*
X290999Y275902D01*
X292950Y276290D01*
X294604Y277395D01*
X295709Y279049D01*
X296097Y280999D01*
X295709Y282950D01*
X294604Y284604D01*
X292950Y285709D01*
X290999Y286097D01*
D02*
G37*
G36*
X487000Y285848D02*
X485049Y285460D01*
X483395Y284355D01*
X482290Y282701D01*
X481902Y280750D01*
X482290Y278799D01*
X483395Y277145D01*
X485049Y276040D01*
X487000Y275652D01*
X488951Y276040D01*
X490605Y277145D01*
X491710Y278799D01*
X492098Y280750D01*
X491710Y282701D01*
X490605Y284355D01*
X488951Y285460D01*
X487000Y285848D01*
D02*
G37*
G36*
X637000Y285848D02*
X635049Y285460D01*
X633395Y284355D01*
X632290Y282701D01*
X631902Y280750D01*
X632290Y278799D01*
X633395Y277145D01*
X635049Y276040D01*
X637000Y275652D01*
X638951Y276040D01*
X640605Y277145D01*
X641710Y278799D01*
X642098Y280750D01*
X641710Y282701D01*
X640605Y284355D01*
X638951Y285460D01*
X637000Y285848D01*
D02*
G37*
G36*
X587000D02*
X585049Y285460D01*
X583395Y284355D01*
X582290Y282701D01*
X581902Y280750D01*
X582290Y278799D01*
X583395Y277145D01*
X585049Y276040D01*
X587000Y275652D01*
X588951Y276040D01*
X590605Y277145D01*
X591710Y278799D01*
X592098Y280750D01*
X591710Y282701D01*
X590605Y284355D01*
X588951Y285460D01*
X587000Y285848D01*
D02*
G37*
G36*
X537000D02*
X535049Y285460D01*
X533395Y284355D01*
X532290Y282701D01*
X531902Y280750D01*
X532290Y278799D01*
X533395Y277145D01*
X535049Y276040D01*
X537000Y275652D01*
X538951Y276040D01*
X540605Y277145D01*
X541710Y278799D01*
X542098Y280750D01*
X541710Y282701D01*
X540605Y284355D01*
X538951Y285460D01*
X537000Y285848D01*
D02*
G37*
G36*
X261000Y284848D02*
X259049Y284460D01*
X257395Y283355D01*
X256290Y281701D01*
X255902Y279750D01*
X256290Y277799D01*
X257395Y276145D01*
X259049Y275040D01*
X261000Y274652D01*
X262951Y275040D01*
X264605Y276145D01*
X265710Y277799D01*
X266098Y279750D01*
X265710Y281701D01*
X264605Y283355D01*
X262951Y284460D01*
X261000Y284848D01*
D02*
G37*
G36*
X81000Y284098D02*
X79049Y283710D01*
X77395Y282605D01*
X76290Y280951D01*
X75902Y279000D01*
X76290Y277049D01*
X77395Y275395D01*
X79049Y274290D01*
X81000Y273902D01*
X82951Y274290D01*
X84605Y275395D01*
X85710Y277049D01*
X86098Y279000D01*
X85710Y280951D01*
X84605Y282605D01*
X82951Y283710D01*
X81000Y284098D01*
D02*
G37*
G36*
X419000Y283098D02*
X417049Y282710D01*
X415395Y281605D01*
X414290Y279951D01*
X413902Y278000D01*
X414290Y276049D01*
X415395Y274395D01*
X417049Y273290D01*
X419000Y272902D01*
X420951Y273290D01*
X422605Y274395D01*
X423710Y276049D01*
X424098Y278000D01*
X423710Y279951D01*
X422605Y281605D01*
X420951Y282710D01*
X419000Y283098D01*
D02*
G37*
G36*
X1083000Y291582D02*
X1080520Y291255D01*
X1078209Y290298D01*
X1076225Y288775D01*
X1074702Y286791D01*
X1073745Y284480D01*
X1073418Y282000D01*
X1073745Y279520D01*
X1074702Y277209D01*
X1076225Y275224D01*
X1078209Y273702D01*
X1080520Y272745D01*
X1083000Y272418D01*
X1085480Y272745D01*
X1087791Y273702D01*
X1089776Y275224D01*
X1091298Y277209D01*
X1092256Y279520D01*
X1092582Y282000D01*
X1092256Y284480D01*
X1091298Y286791D01*
X1089776Y288775D01*
X1087791Y290298D01*
X1085480Y291255D01*
X1083000Y291582D01*
D02*
G37*
G36*
X1057600D02*
X1055120Y291255D01*
X1052809Y290298D01*
X1050825Y288775D01*
X1049302Y286791D01*
X1048345Y284480D01*
X1048018Y282000D01*
X1048345Y279520D01*
X1049302Y277209D01*
X1050825Y275224D01*
X1052809Y273702D01*
X1055120Y272745D01*
X1057600Y272418D01*
X1060080Y272745D01*
X1062391Y273702D01*
X1064376Y275224D01*
X1065898Y277209D01*
X1066856Y279520D01*
X1067182Y282000D01*
X1066856Y284480D01*
X1065898Y286791D01*
X1064376Y288775D01*
X1062391Y290298D01*
X1060080Y291255D01*
X1057600Y291582D01*
D02*
G37*
G36*
X188000Y282098D02*
X186049Y281710D01*
X184395Y280605D01*
X183290Y278951D01*
X182902Y277000D01*
X183290Y275049D01*
X184395Y273395D01*
X186049Y272290D01*
X188000Y271902D01*
X189951Y272290D01*
X191605Y273395D01*
X192710Y275049D01*
X193098Y277000D01*
X192710Y278951D01*
X191605Y280605D01*
X189951Y281710D01*
X188000Y282098D01*
D02*
G37*
G36*
X786110Y276622D02*
Y267950D01*
X794782D01*
X794603Y269310D01*
X793595Y271743D01*
X791992Y273832D01*
X789903Y275435D01*
X787470Y276443D01*
X786110Y276622D01*
D02*
G37*
G36*
X783610D02*
X782250Y276443D01*
X779817Y275435D01*
X777728Y273832D01*
X776125Y271743D01*
X775117Y269310D01*
X774938Y267950D01*
X783610D01*
Y276622D01*
D02*
G37*
G36*
X283999Y276097D02*
X282048Y275709D01*
X280395Y274604D01*
X279289Y272950D01*
X278902Y271000D01*
X279289Y269049D01*
X280395Y267395D01*
X282048Y266290D01*
X283999Y265902D01*
X285950Y266290D01*
X287005Y266994D01*
X288053Y267039D01*
X288570Y266629D01*
X289395Y265395D01*
X291049Y264290D01*
X292999Y263902D01*
X294950Y264290D01*
X296604Y265395D01*
X297709Y267049D01*
X298097Y269000D01*
X297709Y270950D01*
X296604Y272604D01*
X294950Y273709D01*
X292999Y274097D01*
X291049Y273709D01*
X289993Y273004D01*
X288946Y272960D01*
X288429Y273370D01*
X287604Y274604D01*
X285950Y275709D01*
X283999Y276097D01*
D02*
G37*
G36*
X26000Y272848D02*
X24049Y272460D01*
X22395Y271355D01*
X21290Y269701D01*
X20902Y267750D01*
X21290Y265799D01*
X22395Y264145D01*
X24049Y263040D01*
X26000Y262652D01*
X27951Y263040D01*
X29605Y264145D01*
X30710Y265799D01*
X31098Y267750D01*
X30710Y269701D01*
X29605Y271355D01*
X27951Y272460D01*
X26000Y272848D01*
D02*
G37*
G36*
X268000Y271849D02*
X266049Y271461D01*
X264395Y270356D01*
X263290Y268702D01*
X262902Y266751D01*
X263290Y264800D01*
X264395Y263146D01*
X266049Y262041D01*
X268000Y261653D01*
X269951Y262041D01*
X271604Y263146D01*
X272710Y264800D01*
X273098Y266751D01*
X272710Y268702D01*
X271604Y270356D01*
X269951Y271461D01*
X268000Y271849D01*
D02*
G37*
G36*
X371999Y271097D02*
X370048Y270709D01*
X368395Y269604D01*
X367289Y267950D01*
X366901Y266000D01*
X367289Y264049D01*
X368395Y262395D01*
X370048Y261290D01*
X371999Y260902D01*
X373950Y261290D01*
X375604Y262395D01*
X376709Y264049D01*
X377097Y266000D01*
X376709Y267950D01*
X375604Y269604D01*
X373950Y270709D01*
X371999Y271097D01*
D02*
G37*
G36*
X101000Y268098D02*
X99049Y267710D01*
X97395Y266605D01*
X96290Y264951D01*
X95902Y263000D01*
X96290Y261049D01*
X97395Y259395D01*
X99049Y258290D01*
X101000Y257902D01*
X102951Y258290D01*
X104605Y259395D01*
X105710Y261049D01*
X106098Y263000D01*
X105710Y264951D01*
X104605Y266605D01*
X102951Y267710D01*
X101000Y268098D01*
D02*
G37*
G36*
X810260Y276282D02*
X807780Y275956D01*
X805469Y274998D01*
X803484Y273475D01*
X801962Y271491D01*
X801004Y269180D01*
X800678Y266700D01*
X801004Y264220D01*
X801962Y261909D01*
X803484Y259925D01*
X805469Y258402D01*
X807780Y257444D01*
X810260Y257118D01*
X812740Y257444D01*
X815051Y258402D01*
X817035Y259925D01*
X818558Y261909D01*
X819516Y264220D01*
X819842Y266700D01*
X819516Y269180D01*
X818558Y271491D01*
X817035Y273475D01*
X815051Y274998D01*
X812740Y275956D01*
X810260Y276282D01*
D02*
G37*
G36*
X794782Y265450D02*
X786110D01*
Y256778D01*
X787470Y256957D01*
X789903Y257965D01*
X791992Y259568D01*
X793595Y261657D01*
X794603Y264090D01*
X794782Y265450D01*
D02*
G37*
G36*
X783610D02*
X774938D01*
X775117Y264090D01*
X776125Y261657D01*
X777728Y259568D01*
X779817Y257965D01*
X782250Y256957D01*
X783610Y256778D01*
Y265450D01*
D02*
G37*
G36*
X248000Y266849D02*
X246049Y266461D01*
X244395Y265356D01*
X243290Y263702D01*
X242902Y261751D01*
X243290Y259800D01*
X244395Y258146D01*
X246049Y257041D01*
X248000Y256653D01*
X249951Y257041D01*
X251605Y258146D01*
X252710Y259800D01*
X253098Y261751D01*
X252710Y263702D01*
X251605Y265356D01*
X249951Y266461D01*
X248000Y266849D01*
D02*
G37*
G36*
X209000Y264097D02*
X207049Y263709D01*
X205395Y262604D01*
X204290Y260950D01*
X203902Y259000D01*
X204290Y257049D01*
X203506Y255935D01*
X202686Y256098D01*
X200735Y255710D01*
X199082Y254605D01*
X197976Y252951D01*
X197588Y251000D01*
X197976Y249049D01*
X199082Y247395D01*
X200735Y246290D01*
X202686Y245902D01*
X203018Y245968D01*
X203723Y245262D01*
X203930Y244855D01*
X204290Y243049D01*
X205395Y241395D01*
X207049Y240290D01*
X209000Y239902D01*
X210951Y240290D01*
X212604Y241395D01*
X213710Y243049D01*
X214097Y245000D01*
X213710Y246950D01*
X212604Y248604D01*
X210951Y249709D01*
X209000Y250098D01*
X208668Y250032D01*
X207963Y250737D01*
X207756Y251145D01*
X207396Y252951D01*
X208179Y254065D01*
X209000Y253902D01*
X210951Y254290D01*
X212604Y255395D01*
X213710Y257049D01*
X214097Y259000D01*
X213710Y260950D01*
X212604Y262604D01*
X210951Y263709D01*
X209000Y264097D01*
D02*
G37*
G36*
X527000Y263098D02*
X525049Y262710D01*
X523395Y261605D01*
X522290Y259951D01*
X521902Y258000D01*
X522290Y256049D01*
X523395Y254395D01*
X525049Y253290D01*
X527000Y252902D01*
X528951Y253290D01*
X530605Y254395D01*
X531710Y256049D01*
X532098Y258000D01*
X531710Y259951D01*
X530605Y261605D01*
X528951Y262710D01*
X527000Y263098D01*
D02*
G37*
G36*
X677000Y263098D02*
X675049Y262710D01*
X673395Y261604D01*
X672290Y259951D01*
X671902Y258000D01*
X672290Y256049D01*
X673395Y254395D01*
X675049Y253290D01*
X677000Y252902D01*
X678951Y253290D01*
X680605Y254395D01*
X681710Y256049D01*
X682098Y258000D01*
X681710Y259951D01*
X680605Y261604D01*
X678951Y262710D01*
X677000Y263098D01*
D02*
G37*
G36*
X627000D02*
X625049Y262710D01*
X623395Y261604D01*
X622290Y259951D01*
X621902Y258000D01*
X622290Y256049D01*
X623395Y254395D01*
X625049Y253290D01*
X627000Y252902D01*
X628951Y253290D01*
X630605Y254395D01*
X631710Y256049D01*
X632098Y258000D01*
X631710Y259951D01*
X630605Y261604D01*
X628951Y262710D01*
X627000Y263098D01*
D02*
G37*
G36*
X577000D02*
X575049Y262710D01*
X573395Y261604D01*
X572290Y259951D01*
X571902Y258000D01*
X572290Y256049D01*
X573395Y254395D01*
X575049Y253290D01*
X577000Y252902D01*
X578951Y253290D01*
X580605Y254395D01*
X581710Y256049D01*
X582098Y258000D01*
X581710Y259951D01*
X580605Y261604D01*
X578951Y262710D01*
X577000Y263098D01*
D02*
G37*
G36*
X281000Y262848D02*
X279049Y262460D01*
X277395Y261355D01*
X276290Y259701D01*
X275902Y257750D01*
X276290Y255799D01*
X277395Y254145D01*
X279049Y253040D01*
X281000Y252652D01*
X282951Y253040D01*
X284605Y254145D01*
X285710Y255799D01*
X286098Y257750D01*
X285710Y259701D01*
X284605Y261355D01*
X282951Y262460D01*
X281000Y262848D01*
D02*
G37*
G36*
X270000Y258848D02*
X268049Y258460D01*
X266395Y257355D01*
X265290Y255701D01*
X264902Y253750D01*
X265290Y251799D01*
X266395Y250145D01*
X268049Y249040D01*
X270000Y248652D01*
X271951Y249040D01*
X273605Y250145D01*
X274710Y251799D01*
X275098Y253750D01*
X274710Y255701D01*
X273605Y257355D01*
X271951Y258460D01*
X270000Y258848D01*
D02*
G37*
G36*
X1083000Y266182D02*
X1080520Y265855D01*
X1078209Y264898D01*
X1076225Y263375D01*
X1074702Y261391D01*
X1073745Y259080D01*
X1073418Y256600D01*
X1073745Y254120D01*
X1074702Y251809D01*
X1076225Y249825D01*
X1078209Y248302D01*
X1080520Y247344D01*
X1083000Y247018D01*
X1085480Y247344D01*
X1087791Y248302D01*
X1089776Y249825D01*
X1091298Y251809D01*
X1092256Y254120D01*
X1092582Y256600D01*
X1092256Y259080D01*
X1091298Y261391D01*
X1089776Y263375D01*
X1087791Y264898D01*
X1085480Y265855D01*
X1083000Y266182D01*
D02*
G37*
G36*
X1057600D02*
X1055120Y265855D01*
X1052809Y264898D01*
X1050825Y263375D01*
X1049302Y261391D01*
X1048345Y259080D01*
X1048018Y256600D01*
X1048345Y254120D01*
X1049302Y251809D01*
X1050825Y249825D01*
X1052809Y248302D01*
X1055120Y247344D01*
X1057600Y247018D01*
X1060080Y247344D01*
X1062391Y248302D01*
X1064376Y249825D01*
X1065898Y251809D01*
X1066856Y254120D01*
X1067182Y256600D01*
X1066856Y259080D01*
X1065898Y261391D01*
X1064376Y263375D01*
X1062391Y264898D01*
X1060080Y265855D01*
X1057600Y266182D01*
D02*
G37*
G36*
X835740Y256838D02*
X833789Y256450D01*
X832135Y255345D01*
X831030Y253691D01*
X830642Y251740D01*
X831030Y249789D01*
X832135Y248135D01*
X833789Y247030D01*
X835740Y246642D01*
X837691Y247030D01*
X839344Y248135D01*
X840450Y249789D01*
X840838Y251740D01*
X840450Y253691D01*
X839344Y255345D01*
X837691Y256450D01*
X835740Y256838D01*
D02*
G37*
G36*
X317000Y255848D02*
X315049Y255460D01*
X313395Y254355D01*
X312290Y252701D01*
X311902Y250750D01*
X312290Y248799D01*
X313395Y247145D01*
X315049Y246040D01*
X317000Y245652D01*
X318951Y246040D01*
X320605Y247145D01*
X321710Y248799D01*
X322098Y250750D01*
X321710Y252701D01*
X320605Y254355D01*
X318951Y255460D01*
X317000Y255848D01*
D02*
G37*
G36*
X359999Y265097D02*
X358048Y264709D01*
X356395Y263604D01*
X355289Y261950D01*
X354901Y260000D01*
X355289Y258049D01*
X356395Y256395D01*
X357629Y255570D01*
X358038Y255053D01*
X357994Y254005D01*
X357289Y252950D01*
X356901Y251000D01*
X357289Y249049D01*
X358395Y247395D01*
X359629Y246570D01*
X360038Y246054D01*
X359995Y245005D01*
X359290Y243951D01*
X358902Y242000D01*
X359290Y240049D01*
X360395Y238395D01*
X362049Y237290D01*
X364000Y236902D01*
X364819Y237065D01*
X365902Y236000D01*
X366290Y234049D01*
X366398Y233888D01*
X365778Y232529D01*
X364395Y231605D01*
X363290Y229951D01*
X362902Y228000D01*
X363290Y226049D01*
X364395Y224395D01*
X366049Y223290D01*
X368000Y222902D01*
X369951Y223290D01*
X371605Y224395D01*
X372710Y226049D01*
X373098Y228000D01*
X372710Y229951D01*
X372602Y230112D01*
X373222Y231471D01*
X374605Y232395D01*
X375710Y234049D01*
X376098Y236000D01*
X375710Y237951D01*
X374605Y239605D01*
X372951Y240710D01*
X371000Y241098D01*
X370181Y240935D01*
X369098Y242000D01*
X368777Y243612D01*
X369669Y244389D01*
X369807Y244452D01*
X370049Y244290D01*
X372000Y243902D01*
X373951Y244290D01*
X375605Y245395D01*
X376710Y247049D01*
X377098Y249000D01*
X376710Y250951D01*
X375605Y252605D01*
X373951Y253710D01*
X372000Y254098D01*
X370049Y253710D01*
X368395Y252605D01*
X368147Y252233D01*
X366799Y252501D01*
X366709Y252950D01*
X365604Y254604D01*
X364370Y255429D01*
X363960Y255946D01*
X364004Y256994D01*
X364709Y258049D01*
X365097Y260000D01*
X364709Y261950D01*
X363604Y263604D01*
X361950Y264709D01*
X359999Y265097D01*
D02*
G37*
G36*
X786110Y251222D02*
Y242550D01*
X794782D01*
X794603Y243911D01*
X793595Y246343D01*
X791992Y248432D01*
X789903Y250035D01*
X787470Y251043D01*
X786110Y251222D01*
D02*
G37*
G36*
X783610D02*
X782250Y251043D01*
X779817Y250035D01*
X777728Y248432D01*
X776125Y246343D01*
X775117Y243911D01*
X774938Y242550D01*
X783610D01*
Y251222D01*
D02*
G37*
G36*
X819760Y250800D02*
X800760D01*
Y231800D01*
X819760D01*
Y250800D01*
D02*
G37*
G36*
X743560D02*
X724560D01*
Y231800D01*
X743560D01*
Y250800D01*
D02*
G37*
G36*
X502260D02*
X483260D01*
Y231800D01*
X502260D01*
Y250800D01*
D02*
G37*
G36*
X708660Y250882D02*
X706180Y250555D01*
X703869Y249598D01*
X701885Y248075D01*
X700362Y246091D01*
X699405Y243780D01*
X699078Y241300D01*
X699405Y238820D01*
X700362Y236509D01*
X701885Y234525D01*
X703869Y233002D01*
X706180Y232045D01*
X708660Y231718D01*
X711140Y232045D01*
X713451Y233002D01*
X715435Y234525D01*
X716958Y236509D01*
X717915Y238820D01*
X718242Y241300D01*
X717915Y243780D01*
X716958Y246091D01*
X715435Y248075D01*
X713451Y249598D01*
X711140Y250555D01*
X708660Y250882D01*
D02*
G37*
G36*
X670560D02*
X668080Y250555D01*
X665769Y249598D01*
X663784Y248075D01*
X662262Y246091D01*
X661304Y243780D01*
X660978Y241300D01*
X661304Y238820D01*
X662262Y236509D01*
X663784Y234525D01*
X665769Y233002D01*
X668080Y232045D01*
X670560Y231718D01*
X673040Y232045D01*
X675351Y233002D01*
X677335Y234525D01*
X678858Y236509D01*
X679816Y238820D01*
X680142Y241300D01*
X679816Y243780D01*
X678858Y246091D01*
X677335Y248075D01*
X675351Y249598D01*
X673040Y250555D01*
X670560Y250882D01*
D02*
G37*
G36*
X645160D02*
X642680Y250555D01*
X640369Y249598D01*
X638385Y248075D01*
X636862Y246091D01*
X635905Y243780D01*
X635578Y241300D01*
X635905Y238820D01*
X636862Y236509D01*
X638385Y234525D01*
X640369Y233002D01*
X642680Y232045D01*
X645160Y231718D01*
X647640Y232045D01*
X649951Y233002D01*
X651936Y234525D01*
X653458Y236509D01*
X654416Y238820D01*
X654742Y241300D01*
X654416Y243780D01*
X653458Y246091D01*
X651936Y248075D01*
X649951Y249598D01*
X647640Y250555D01*
X645160Y250882D01*
D02*
G37*
G36*
X619760D02*
X617280Y250555D01*
X614969Y249598D01*
X612985Y248075D01*
X611462Y246091D01*
X610504Y243780D01*
X610178Y241300D01*
X610504Y238820D01*
X611462Y236509D01*
X612985Y234525D01*
X614969Y233002D01*
X617280Y232045D01*
X619760Y231718D01*
X622240Y232045D01*
X624551Y233002D01*
X626535Y234525D01*
X628058Y236509D01*
X629016Y238820D01*
X629342Y241300D01*
X629016Y243780D01*
X628058Y246091D01*
X626535Y248075D01*
X624551Y249598D01*
X622240Y250555D01*
X619760Y250882D01*
D02*
G37*
G36*
X594360D02*
X591880Y250555D01*
X589569Y249598D01*
X587584Y248075D01*
X586062Y246091D01*
X585104Y243780D01*
X584778Y241300D01*
X585104Y238820D01*
X586062Y236509D01*
X587584Y234525D01*
X589569Y233002D01*
X591880Y232045D01*
X594360Y231718D01*
X596840Y232045D01*
X599151Y233002D01*
X601135Y234525D01*
X602658Y236509D01*
X603615Y238820D01*
X603942Y241300D01*
X603615Y243780D01*
X602658Y246091D01*
X601135Y248075D01*
X599151Y249598D01*
X596840Y250555D01*
X594360Y250882D01*
D02*
G37*
G36*
X568960D02*
X566480Y250555D01*
X564169Y249598D01*
X562184Y248075D01*
X560662Y246091D01*
X559705Y243780D01*
X559378Y241300D01*
X559705Y238820D01*
X560662Y236509D01*
X562184Y234525D01*
X564169Y233002D01*
X566480Y232045D01*
X568960Y231718D01*
X571440Y232045D01*
X573751Y233002D01*
X575735Y234525D01*
X577258Y236509D01*
X578215Y238820D01*
X578542Y241300D01*
X578215Y243780D01*
X577258Y246091D01*
X575735Y248075D01*
X573751Y249598D01*
X571440Y250555D01*
X568960Y250882D01*
D02*
G37*
G36*
X543560D02*
X541080Y250555D01*
X538769Y249598D01*
X536785Y248075D01*
X535262Y246091D01*
X534305Y243780D01*
X533978Y241300D01*
X534305Y238820D01*
X535262Y236509D01*
X536785Y234525D01*
X538769Y233002D01*
X541080Y232045D01*
X543560Y231718D01*
X546040Y232045D01*
X548351Y233002D01*
X550335Y234525D01*
X551858Y236509D01*
X552816Y238820D01*
X553142Y241300D01*
X552816Y243780D01*
X551858Y246091D01*
X550335Y248075D01*
X548351Y249598D01*
X546040Y250555D01*
X543560Y250882D01*
D02*
G37*
G36*
X518160D02*
X515680Y250555D01*
X513369Y249598D01*
X511385Y248075D01*
X509862Y246091D01*
X508904Y243780D01*
X508578Y241300D01*
X508904Y238820D01*
X509862Y236509D01*
X511385Y234525D01*
X513369Y233002D01*
X515680Y232045D01*
X518160Y231718D01*
X520640Y232045D01*
X522951Y233002D01*
X524935Y234525D01*
X526458Y236509D01*
X527416Y238820D01*
X527742Y241300D01*
X527416Y243780D01*
X526458Y246091D01*
X524935Y248075D01*
X522951Y249598D01*
X520640Y250555D01*
X518160Y250882D01*
D02*
G37*
G36*
X794782Y240050D02*
X786110D01*
Y231378D01*
X787470Y231557D01*
X789903Y232565D01*
X791992Y234168D01*
X793595Y236257D01*
X794603Y238689D01*
X794782Y240050D01*
D02*
G37*
G36*
X783610D02*
X774938D01*
X775117Y238689D01*
X776125Y236257D01*
X777728Y234168D01*
X779817Y232565D01*
X782250Y231557D01*
X783610Y231378D01*
Y240050D01*
D02*
G37*
G36*
X447000Y245098D02*
X445049Y244710D01*
X443395Y243605D01*
X442290Y241951D01*
X441902Y240000D01*
X442290Y238049D01*
X443395Y236395D01*
X444087Y235933D01*
X444463Y234210D01*
X444290Y233951D01*
X443902Y232000D01*
X444290Y230049D01*
X445395Y228395D01*
X447049Y227290D01*
X449000Y226902D01*
X450951Y227290D01*
X452605Y228395D01*
X453710Y230049D01*
X454098Y232000D01*
X453710Y233951D01*
X452605Y235605D01*
X451913Y236067D01*
X451537Y237790D01*
X451710Y238049D01*
X452098Y240000D01*
X451710Y241951D01*
X450605Y243605D01*
X448951Y244710D01*
X447000Y245098D01*
D02*
G37*
G36*
X1083000Y240782D02*
X1080520Y240455D01*
X1078209Y239498D01*
X1076225Y237975D01*
X1074702Y235991D01*
X1073745Y233680D01*
X1073418Y231200D01*
X1073745Y228720D01*
X1074702Y226409D01*
X1076225Y224424D01*
X1078209Y222902D01*
X1080520Y221945D01*
X1083000Y221618D01*
X1085480Y221945D01*
X1087791Y222902D01*
X1089776Y224424D01*
X1091298Y226409D01*
X1092256Y228720D01*
X1092582Y231200D01*
X1092256Y233680D01*
X1091298Y235991D01*
X1089776Y237975D01*
X1087791Y239498D01*
X1085480Y240455D01*
X1083000Y240782D01*
D02*
G37*
G36*
X1057600D02*
X1055120Y240455D01*
X1052809Y239498D01*
X1050825Y237975D01*
X1049302Y235991D01*
X1048345Y233680D01*
X1048018Y231200D01*
X1048345Y228720D01*
X1049302Y226409D01*
X1050825Y224424D01*
X1052809Y222902D01*
X1055120Y221945D01*
X1057600Y221618D01*
X1060080Y221945D01*
X1062391Y222902D01*
X1064376Y224424D01*
X1065898Y226409D01*
X1066856Y228720D01*
X1067182Y231200D01*
X1066856Y233680D01*
X1065898Y235991D01*
X1064376Y237975D01*
X1062391Y239498D01*
X1060080Y240455D01*
X1057600Y240782D01*
D02*
G37*
G36*
X201000Y231098D02*
X199049Y230710D01*
X197395Y229605D01*
X196290Y227951D01*
X195902Y226000D01*
X196290Y224049D01*
X197395Y222395D01*
X199049Y221290D01*
X201000Y220902D01*
X202951Y221290D01*
X203166Y221434D01*
X204817Y221010D01*
X205395Y220145D01*
X207049Y219040D01*
X209000Y218652D01*
X210951Y219040D01*
X212605Y220145D01*
X213710Y221799D01*
X214098Y223750D01*
X213710Y225701D01*
X212605Y227355D01*
X210951Y228460D01*
X209000Y228848D01*
X207049Y228460D01*
X206834Y228316D01*
X205183Y228740D01*
X204605Y229605D01*
X202951Y230710D01*
X201000Y231098D01*
D02*
G37*
G36*
X301000Y227098D02*
X299049Y226710D01*
X297395Y225605D01*
X296290Y223951D01*
X295902Y222000D01*
X296290Y220049D01*
X297395Y218395D01*
X299049Y217290D01*
X301000Y216902D01*
X302951Y217290D01*
X304605Y218395D01*
X305710Y220049D01*
X306098Y222000D01*
X305710Y223951D01*
X304605Y225605D01*
X302951Y226710D01*
X301000Y227098D01*
D02*
G37*
G36*
X465000Y222098D02*
X463049Y221710D01*
X461395Y220605D01*
X460290Y218951D01*
X459902Y217000D01*
X460290Y215049D01*
X461395Y213395D01*
X463049Y212290D01*
X465000Y211902D01*
X466951Y212290D01*
X468605Y213395D01*
X469710Y215049D01*
X470098Y217000D01*
X469710Y218951D01*
X468605Y220605D01*
X466951Y221710D01*
X465000Y222098D01*
D02*
G37*
G36*
X368000Y219098D02*
X366049Y218710D01*
X364395Y217605D01*
X363290Y215951D01*
X362902Y214000D01*
X363290Y212049D01*
X364395Y210395D01*
X366049Y209290D01*
X368000Y208902D01*
X369951Y209290D01*
X371605Y210395D01*
X372710Y212049D01*
X373098Y214000D01*
X372710Y215951D01*
X371605Y217605D01*
X369951Y218710D01*
X368000Y219098D01*
D02*
G37*
G36*
X931000Y216098D02*
X929049Y215710D01*
X927395Y214605D01*
X926290Y212951D01*
X925902Y211000D01*
X926290Y209049D01*
X927395Y207395D01*
X929049Y206290D01*
X931000Y205902D01*
X932951Y206290D01*
X934605Y207395D01*
X935710Y209049D01*
X936098Y211000D01*
X935710Y212951D01*
X934605Y214605D01*
X932951Y215710D01*
X931000Y216098D01*
D02*
G37*
G36*
X216000Y216098D02*
X214049Y215709D01*
X212395Y214604D01*
X211290Y212950D01*
X210902Y211000D01*
X211290Y209049D01*
X212395Y207395D01*
X214049Y206290D01*
X216000Y205902D01*
X217950Y206290D01*
X219604Y207395D01*
X220709Y209049D01*
X221098Y211000D01*
X220709Y212950D01*
X219604Y214604D01*
X217950Y215709D01*
X216000Y216098D01*
D02*
G37*
G36*
X197000Y215098D02*
X195049Y214710D01*
X193395Y213605D01*
X192290Y211951D01*
X191902Y210000D01*
X192290Y208049D01*
X193395Y206395D01*
X195049Y205290D01*
X197000Y204902D01*
X198951Y205290D01*
X200605Y206395D01*
X201710Y208049D01*
X202098Y210000D01*
X201710Y211951D01*
X200605Y213605D01*
X198951Y214710D01*
X197000Y215098D01*
D02*
G37*
G36*
X185000Y213097D02*
X183049Y212710D01*
X181395Y211604D01*
X180290Y209951D01*
X179902Y208000D01*
X180290Y206049D01*
X181395Y204395D01*
X183049Y203290D01*
X185000Y202902D01*
X186950Y203290D01*
X188604Y204395D01*
X189709Y206049D01*
X190098Y208000D01*
X189709Y209951D01*
X188604Y211604D01*
X186950Y212710D01*
X185000Y213097D01*
D02*
G37*
G36*
X259000Y212098D02*
X257049Y211710D01*
X255395Y210605D01*
X254290Y208951D01*
X253902Y207000D01*
X254290Y205049D01*
X255395Y203395D01*
X257049Y202290D01*
X259000Y201902D01*
X260951Y202290D01*
X262605Y203395D01*
X263710Y205049D01*
X264098Y207000D01*
X263710Y208951D01*
X262605Y210605D01*
X260951Y211710D01*
X259000Y212098D01*
D02*
G37*
G36*
X327000Y209098D02*
X325049Y208710D01*
X323395Y207605D01*
X322290Y205951D01*
X321902Y204000D01*
X322290Y202049D01*
X323395Y200395D01*
X324340Y199764D01*
Y198236D01*
X323395Y197605D01*
X323135Y197215D01*
X321865D01*
X321605Y197605D01*
X319951Y198710D01*
X318000Y199098D01*
X316049Y198710D01*
X314395Y197605D01*
X313290Y195951D01*
X312902Y194000D01*
X313290Y192049D01*
X314395Y190395D01*
X316049Y189290D01*
X318000Y188902D01*
X319951Y189290D01*
X321605Y190395D01*
X321865Y190785D01*
X323135D01*
X323395Y190395D01*
X325049Y189290D01*
X327000Y188902D01*
X328951Y189290D01*
X330605Y190395D01*
X331710Y192049D01*
X332098Y194000D01*
X331710Y195951D01*
X330605Y197605D01*
X329660Y198236D01*
Y199764D01*
X330605Y200395D01*
X331710Y202049D01*
X332098Y204000D01*
X331710Y205951D01*
X330605Y207605D01*
X328951Y208710D01*
X327000Y209098D01*
D02*
G37*
G36*
X1083000Y215382D02*
X1080520Y215055D01*
X1078209Y214098D01*
X1076225Y212575D01*
X1074702Y210591D01*
X1073745Y208280D01*
X1073418Y205800D01*
X1073745Y203320D01*
X1074702Y201009D01*
X1076225Y199025D01*
X1078209Y197502D01*
X1080520Y196544D01*
X1083000Y196218D01*
X1085480Y196544D01*
X1087791Y197502D01*
X1089776Y199025D01*
X1091298Y201009D01*
X1092256Y203320D01*
X1092582Y205800D01*
X1092256Y208280D01*
X1091298Y210591D01*
X1089776Y212575D01*
X1087791Y214098D01*
X1085480Y215055D01*
X1083000Y215382D01*
D02*
G37*
G36*
X1057600D02*
X1055120Y215055D01*
X1052809Y214098D01*
X1050825Y212575D01*
X1049302Y210591D01*
X1048345Y208280D01*
X1048018Y205800D01*
X1048345Y203320D01*
X1049302Y201009D01*
X1050825Y199025D01*
X1052809Y197502D01*
X1055120Y196544D01*
X1057600Y196218D01*
X1060080Y196544D01*
X1062391Y197502D01*
X1064376Y199025D01*
X1065898Y201009D01*
X1066856Y203320D01*
X1067182Y205800D01*
X1066856Y208280D01*
X1065898Y210591D01*
X1064376Y212575D01*
X1062391Y214098D01*
X1060080Y215055D01*
X1057600Y215382D01*
D02*
G37*
G36*
X899000Y206098D02*
X897049Y205710D01*
X895395Y204605D01*
X894290Y202951D01*
X893902Y201000D01*
X894290Y199049D01*
X895395Y197395D01*
X897049Y196290D01*
X899000Y195902D01*
X900951Y196290D01*
X902605Y197395D01*
X903710Y199049D01*
X904098Y201000D01*
X903710Y202951D01*
X902605Y204605D01*
X900951Y205710D01*
X899000Y206098D01*
D02*
G37*
G36*
X1000000Y204098D02*
X998049Y203710D01*
X996395Y202605D01*
X995290Y200951D01*
X994902Y199000D01*
X995290Y197049D01*
X996395Y195395D01*
X998049Y194290D01*
X1000000Y193902D01*
X1001951Y194290D01*
X1003605Y195395D01*
X1004710Y197049D01*
X1005098Y199000D01*
X1004710Y200951D01*
X1003605Y202605D01*
X1001951Y203710D01*
X1000000Y204098D01*
D02*
G37*
G36*
X299000Y199098D02*
X297049Y198710D01*
X295395Y197605D01*
X294290Y195951D01*
X293902Y194000D01*
X294290Y192049D01*
X295395Y190395D01*
X297049Y189290D01*
X299000Y188902D01*
X300951Y189290D01*
X302605Y190395D01*
X303710Y192049D01*
X304098Y194000D01*
X303710Y195951D01*
X302605Y197605D01*
X300951Y198710D01*
X299000Y199098D01*
D02*
G37*
G36*
X421640Y198138D02*
X419689Y197750D01*
X418035Y196645D01*
X416930Y194991D01*
X416542Y193040D01*
X416930Y191089D01*
X418035Y189435D01*
X419689Y188330D01*
X421640Y187942D01*
X423591Y188330D01*
X425245Y189435D01*
X426350Y191089D01*
X426738Y193040D01*
X426350Y194991D01*
X425245Y196645D01*
X423591Y197750D01*
X421640Y198138D01*
D02*
G37*
G36*
X219400Y196698D02*
X217449Y196310D01*
X215795Y195205D01*
X214690Y193551D01*
X214302Y191600D01*
X214690Y189649D01*
X215795Y187995D01*
X217449Y186890D01*
X219400Y186502D01*
X221351Y186890D01*
X223005Y187995D01*
X224110Y189649D01*
X224498Y191600D01*
X224110Y193551D01*
X223005Y195205D01*
X221351Y196310D01*
X219400Y196698D01*
D02*
G37*
G36*
X781000Y187118D02*
X778659Y186652D01*
X776687Y185334D01*
X776388Y185147D01*
X775452D01*
X775153Y185334D01*
X773181Y186652D01*
X770840Y187118D01*
X768499Y186652D01*
X766527Y185334D01*
X766228Y185147D01*
X765292D01*
X764993Y185334D01*
X763021Y186652D01*
X760680Y187118D01*
X758339Y186652D01*
X756367Y185334D01*
X756068Y185147D01*
X755132D01*
X754833Y185334D01*
X752861Y186652D01*
X750520Y187118D01*
X748179Y186652D01*
X746194Y185326D01*
X744868Y183341D01*
X744402Y181000D01*
X744868Y178659D01*
X746194Y176674D01*
X748179Y175348D01*
X750520Y174883D01*
X752861Y175348D01*
X754833Y176665D01*
X755132Y176853D01*
X756068D01*
X756367Y176665D01*
X758339Y175348D01*
X760680Y174883D01*
X763021Y175348D01*
X764993Y176665D01*
X765292Y176853D01*
X766228D01*
X766527Y176665D01*
X768499Y175348D01*
X770840Y174883D01*
X773181Y175348D01*
X775153Y176665D01*
X775452Y176853D01*
X776388D01*
X776687Y176665D01*
X778659Y175348D01*
X781000Y174883D01*
X783341Y175348D01*
X785326Y176674D01*
X786652Y178659D01*
X787117Y181000D01*
X786652Y183341D01*
X785326Y185326D01*
X783341Y186652D01*
X781000Y187118D01*
D02*
G37*
G36*
X1058850Y190322D02*
Y181650D01*
X1067522D01*
X1067343Y183010D01*
X1066335Y185443D01*
X1064732Y187532D01*
X1062643Y189135D01*
X1060211Y190142D01*
X1058850Y190322D01*
D02*
G37*
G36*
X1056350D02*
X1054990Y190142D01*
X1052557Y189135D01*
X1050468Y187532D01*
X1048865Y185443D01*
X1047858Y183010D01*
X1047678Y181650D01*
X1056350D01*
Y190322D01*
D02*
G37*
G36*
X369000Y189098D02*
X367049Y188710D01*
X365395Y187605D01*
X364290Y185951D01*
X363902Y184000D01*
X364290Y182049D01*
X365395Y180395D01*
X367049Y179290D01*
X369000Y178902D01*
X370951Y179290D01*
X372605Y180395D01*
X373710Y182049D01*
X374098Y184000D01*
X373710Y185951D01*
X372605Y187605D01*
X370951Y188710D01*
X369000Y189098D01*
D02*
G37*
G36*
X451000Y187098D02*
X449049Y186710D01*
X447395Y185605D01*
X446290Y183951D01*
X445902Y182000D01*
X446290Y180049D01*
X447395Y178395D01*
X449049Y177290D01*
X451000Y176902D01*
X452951Y177290D01*
X454605Y178395D01*
X455710Y180049D01*
X456098Y182000D01*
X455710Y183951D01*
X454605Y185605D01*
X452951Y186710D01*
X451000Y187098D01*
D02*
G37*
G36*
X337000Y183098D02*
X335049Y182710D01*
X333395Y181605D01*
X332290Y179951D01*
X331902Y178000D01*
X332290Y176049D01*
X333395Y174395D01*
X335049Y173290D01*
X337000Y172902D01*
X338951Y173290D01*
X340605Y174395D01*
X341710Y176049D01*
X342098Y178000D01*
X341710Y179951D01*
X340605Y181605D01*
X338951Y182710D01*
X337000Y183098D01*
D02*
G37*
G36*
X1083000Y189982D02*
X1080520Y189655D01*
X1078209Y188698D01*
X1076225Y187175D01*
X1074702Y185191D01*
X1073745Y182880D01*
X1073418Y180400D01*
X1073745Y177920D01*
X1074702Y175609D01*
X1076225Y173624D01*
X1078209Y172102D01*
X1080520Y171145D01*
X1083000Y170818D01*
X1085480Y171145D01*
X1087791Y172102D01*
X1089776Y173624D01*
X1091298Y175609D01*
X1092256Y177920D01*
X1092582Y180400D01*
X1092256Y182880D01*
X1091298Y185191D01*
X1089776Y187175D01*
X1087791Y188698D01*
X1085480Y189655D01*
X1083000Y189982D01*
D02*
G37*
G36*
X1056350Y179150D02*
X1047678D01*
X1047858Y177789D01*
X1048865Y175357D01*
X1050468Y173268D01*
X1052557Y171665D01*
X1054990Y170657D01*
X1056350Y170478D01*
Y179150D01*
D02*
G37*
G36*
X1067522D02*
X1058850D01*
Y170478D01*
X1060211Y170657D01*
X1062643Y171665D01*
X1064732Y173268D01*
X1066335Y175357D01*
X1067343Y177789D01*
X1067522Y179150D01*
D02*
G37*
G36*
X404000Y184098D02*
X402049Y183710D01*
X400395Y182605D01*
X399290Y180951D01*
X398902Y179000D01*
X399290Y177049D01*
X400395Y175395D01*
X402049Y174290D01*
X404000Y173902D01*
X404072Y173916D01*
X404567Y172720D01*
X404394Y172605D01*
X403289Y170951D01*
X403079Y169893D01*
X402636Y169710D01*
X400685Y170098D01*
X398734Y169710D01*
X397080Y168605D01*
X395975Y166951D01*
X395587Y165000D01*
X395975Y163049D01*
X397080Y161395D01*
X398734Y160290D01*
X400685Y159902D01*
X402636Y160290D01*
X404290Y161395D01*
X405395Y163049D01*
X405605Y164106D01*
X406048Y164290D01*
X407999Y163902D01*
X409950Y164290D01*
X411604Y165395D01*
X412709Y167049D01*
X413097Y169000D01*
X412709Y170951D01*
X411604Y172605D01*
X409950Y173710D01*
X407999Y174098D01*
X407927Y174083D01*
X407432Y175280D01*
X407605Y175395D01*
X408710Y177049D01*
X409098Y179000D01*
X408710Y180951D01*
X407605Y182605D01*
X405951Y183710D01*
X404000Y184098D01*
D02*
G37*
G36*
X353000Y177098D02*
X351049Y176710D01*
X349395Y175605D01*
X348290Y173951D01*
X347902Y172000D01*
X348290Y170049D01*
X349395Y168395D01*
X351049Y167290D01*
X353000Y166902D01*
X354951Y167290D01*
X356605Y168395D01*
X357710Y170049D01*
X358098Y172000D01*
X357710Y173951D01*
X356605Y175605D01*
X354951Y176710D01*
X353000Y177098D01*
D02*
G37*
G36*
X251000Y182098D02*
X249049Y181710D01*
X247395Y180605D01*
X246290Y178951D01*
X245902Y177000D01*
X246290Y175049D01*
X247055Y173905D01*
X247292Y173000D01*
X247055Y172095D01*
X246290Y170951D01*
X245902Y169000D01*
X246290Y167049D01*
X247395Y165395D01*
X249049Y164290D01*
X251000Y163902D01*
X252951Y164290D01*
X254605Y165395D01*
X255710Y167049D01*
X256098Y169000D01*
X255710Y170951D01*
X254945Y172095D01*
X254708Y173000D01*
X254945Y173905D01*
X255710Y175049D01*
X256098Y177000D01*
X255710Y178951D01*
X254605Y180605D01*
X252951Y181710D01*
X251000Y182098D01*
D02*
G37*
G36*
X302000Y170848D02*
X300049Y170460D01*
X298395Y169355D01*
X297290Y167701D01*
X296902Y165750D01*
X297290Y163799D01*
X298395Y162145D01*
X300049Y161040D01*
X302000Y160652D01*
X303951Y161040D01*
X305605Y162145D01*
X306710Y163799D01*
X307098Y165750D01*
X306710Y167701D01*
X305605Y169355D01*
X303951Y170460D01*
X302000Y170848D01*
D02*
G37*
G36*
X369000Y170098D02*
X367049Y169710D01*
X365395Y168605D01*
X364290Y166951D01*
X363902Y165000D01*
X364290Y163049D01*
X365395Y161395D01*
X367049Y160290D01*
X369000Y159902D01*
X370951Y160290D01*
X372605Y161395D01*
X373710Y163049D01*
X374098Y165000D01*
X373710Y166951D01*
X372605Y168605D01*
X370951Y169710D01*
X369000Y170098D01*
D02*
G37*
G36*
X1036000Y169098D02*
X1034049Y168710D01*
X1032395Y167605D01*
X1031290Y165951D01*
X1030902Y164000D01*
X1031290Y162049D01*
X1032395Y160395D01*
X1034049Y159290D01*
X1036000Y158902D01*
X1037951Y159290D01*
X1039605Y160395D01*
X1040710Y162049D01*
X1041098Y164000D01*
X1040710Y165951D01*
X1039605Y167605D01*
X1037951Y168710D01*
X1036000Y169098D01*
D02*
G37*
G36*
X515620Y166068D02*
X513279Y165602D01*
X511294Y164276D01*
X509968Y162292D01*
X509502Y159950D01*
X509968Y157609D01*
X511294Y155625D01*
X513279Y154298D01*
X515620Y153833D01*
X517961Y154298D01*
X519946Y155625D01*
X521272Y157609D01*
X521738Y159950D01*
X521272Y162292D01*
X519946Y164276D01*
X517961Y165602D01*
X515620Y166068D01*
D02*
G37*
G36*
X487680D02*
X485339Y165602D01*
X483354Y164276D01*
X482028Y162292D01*
X481562Y159950D01*
X482028Y157609D01*
X483354Y155625D01*
X485339Y154298D01*
X487680Y153833D01*
X490021Y154298D01*
X492006Y155625D01*
X493332Y157609D01*
X493797Y159950D01*
X493332Y162292D01*
X492006Y164276D01*
X490021Y165602D01*
X487680Y166068D01*
D02*
G37*
G36*
X725470Y166067D02*
X723129Y165602D01*
X721145Y164276D01*
X719819Y162291D01*
X719353Y159950D01*
X719819Y157609D01*
X721145Y155624D01*
X723129Y154298D01*
X725470Y153832D01*
X727812Y154298D01*
X729796Y155624D01*
X731122Y157609D01*
X731588Y159950D01*
X731122Y162291D01*
X729796Y164276D01*
X727812Y165602D01*
X725470Y166067D01*
D02*
G37*
G36*
X697530D02*
X695189Y165602D01*
X693205Y164276D01*
X691879Y162291D01*
X691413Y159950D01*
X691879Y157609D01*
X693205Y155624D01*
X695189Y154298D01*
X697530Y153832D01*
X699872Y154298D01*
X701856Y155624D01*
X703182Y157609D01*
X703648Y159950D01*
X703182Y162291D01*
X701856Y164276D01*
X699872Y165602D01*
X697530Y166067D01*
D02*
G37*
G36*
X655470D02*
X653129Y165602D01*
X651144Y164276D01*
X649818Y162291D01*
X649353Y159950D01*
X649818Y157609D01*
X651144Y155624D01*
X653129Y154298D01*
X655470Y153832D01*
X657811Y154298D01*
X659796Y155624D01*
X661122Y157609D01*
X661588Y159950D01*
X661122Y162291D01*
X659796Y164276D01*
X657811Y165602D01*
X655470Y166067D01*
D02*
G37*
G36*
X627530D02*
X625189Y165602D01*
X623204Y164276D01*
X621878Y162291D01*
X621413Y159950D01*
X621878Y157609D01*
X623204Y155624D01*
X625189Y154298D01*
X627530Y153832D01*
X629871Y154298D01*
X631856Y155624D01*
X633182Y157609D01*
X633648Y159950D01*
X633182Y162291D01*
X631856Y164276D01*
X629871Y165602D01*
X627530Y166067D01*
D02*
G37*
G36*
X585470D02*
X583129Y165602D01*
X581144Y164276D01*
X579818Y162291D01*
X579352Y159950D01*
X579818Y157609D01*
X581144Y155624D01*
X583129Y154298D01*
X585470Y153832D01*
X587811Y154298D01*
X589796Y155624D01*
X591122Y157609D01*
X591587Y159950D01*
X591122Y162291D01*
X589796Y164276D01*
X587811Y165602D01*
X585470Y166067D01*
D02*
G37*
G36*
X557530D02*
X555189Y165602D01*
X553204Y164276D01*
X551878Y162291D01*
X551413Y159950D01*
X551878Y157609D01*
X553204Y155624D01*
X555189Y154298D01*
X557530Y153832D01*
X559871Y154298D01*
X561856Y155624D01*
X563182Y157609D01*
X563647Y159950D01*
X563182Y162291D01*
X561856Y164276D01*
X559871Y165602D01*
X557530Y166067D01*
D02*
G37*
G36*
X209550Y163848D02*
X207599Y163460D01*
X205945Y162355D01*
X204840Y160701D01*
X204452Y158750D01*
X204840Y156799D01*
X205945Y155145D01*
X207599Y154040D01*
X209550Y153652D01*
X211501Y154040D01*
X213155Y155145D01*
X214260Y156799D01*
X214648Y158750D01*
X214260Y160701D01*
X213155Y162355D01*
X211501Y163460D01*
X209550Y163848D01*
D02*
G37*
G36*
X160000Y163098D02*
X158049Y162710D01*
X156395Y161605D01*
X155290Y159951D01*
X154902Y158000D01*
X155290Y156049D01*
X156395Y154395D01*
X158049Y153290D01*
X160000Y152902D01*
X161951Y153290D01*
X163605Y154395D01*
X164710Y156049D01*
X165098Y158000D01*
X164710Y159951D01*
X163605Y161605D01*
X161951Y162710D01*
X160000Y163098D01*
D02*
G37*
G36*
X23750Y165612D02*
X12250D01*
X10007Y165166D01*
X8105Y163895D01*
X6834Y161993D01*
X6387Y159750D01*
Y152250D01*
X6834Y150006D01*
X8105Y148104D01*
X10007Y146833D01*
X12250Y146387D01*
X23750D01*
X25993Y146833D01*
X27896Y148104D01*
X29166Y150006D01*
X29613Y152250D01*
Y159750D01*
X29166Y161993D01*
X27896Y163895D01*
X25993Y165166D01*
X23750Y165612D01*
D02*
G37*
G36*
X401000Y153098D02*
X399049Y152710D01*
X397395Y151605D01*
X396290Y149951D01*
X395902Y148000D01*
X396290Y146049D01*
X397395Y144395D01*
X399049Y143290D01*
X401000Y142902D01*
X402951Y143290D01*
X404605Y144395D01*
X405710Y146049D01*
X406098Y148000D01*
X405710Y149951D01*
X404605Y151605D01*
X402951Y152710D01*
X401000Y153098D01*
D02*
G37*
G36*
X45000Y155330D02*
X42586Y155012D01*
X40335Y154080D01*
X38403Y152597D01*
X36920Y150665D01*
X35988Y148414D01*
X35670Y146000D01*
X35988Y143585D01*
X36920Y141335D01*
X38403Y139403D01*
X40335Y137920D01*
X42586Y136988D01*
X45000Y136670D01*
X47415Y136988D01*
X49665Y137920D01*
X51597Y139403D01*
X53080Y141335D01*
X54012Y143585D01*
X54330Y146000D01*
X54012Y148414D01*
X53080Y150665D01*
X51597Y152597D01*
X49665Y154080D01*
X47415Y155012D01*
X45000Y155330D01*
D02*
G37*
G36*
X998160Y138118D02*
X995819Y137652D01*
X993847Y136334D01*
X993548Y136147D01*
X992612D01*
X992313Y136334D01*
X990341Y137652D01*
X988000Y138118D01*
X985659Y137652D01*
X983687Y136334D01*
X983388Y136147D01*
X982452D01*
X982153Y136334D01*
X980181Y137652D01*
X977840Y138118D01*
X975499Y137652D01*
X973514Y136326D01*
X972188Y134341D01*
X971722Y132000D01*
X972188Y129659D01*
X973514Y127674D01*
X975499Y126348D01*
X977840Y125883D01*
X980181Y126348D01*
X982153Y127666D01*
X982452Y127853D01*
X983388D01*
X983687Y127666D01*
X985659Y126348D01*
X988000Y125883D01*
X990341Y126348D01*
X992313Y127666D01*
X992612Y127853D01*
X993548D01*
X993847Y127666D01*
X995819Y126348D01*
X998160Y125883D01*
X1000501Y126348D01*
X1002486Y127674D01*
X1003812Y129659D01*
X1004277Y132000D01*
X1003812Y134341D01*
X1002486Y136326D01*
X1000501Y137652D01*
X998160Y138118D01*
D02*
G37*
G36*
X900000Y167278D02*
X897659Y166812D01*
X895674Y165486D01*
X894348Y163501D01*
X893883Y161160D01*
X894348Y158819D01*
X895674Y156834D01*
X895853Y156715D01*
Y155445D01*
X895674Y155326D01*
X894348Y153341D01*
X893883Y151000D01*
X894348Y148659D01*
X895674Y146674D01*
X895853Y146555D01*
Y145285D01*
X895674Y145166D01*
X894348Y143181D01*
X893883Y140840D01*
X894348Y138499D01*
X895674Y136514D01*
X897659Y135188D01*
X900000Y134722D01*
X902341Y135188D01*
X904326Y136514D01*
X905652Y138499D01*
X906117Y140840D01*
X905652Y143181D01*
X904326Y145166D01*
X904147Y145285D01*
Y146555D01*
X904326Y146674D01*
X905652Y148659D01*
X906117Y151000D01*
X905652Y153341D01*
X904326Y155326D01*
X904147Y155445D01*
Y156715D01*
X904326Y156834D01*
X905652Y158819D01*
X906117Y161160D01*
X905652Y163501D01*
X904326Y165486D01*
X902341Y166812D01*
X900000Y167278D01*
D02*
G37*
G36*
X1020000Y186117D02*
X1017659Y185652D01*
X1015674Y184326D01*
X1014348Y182341D01*
X1013883Y180000D01*
X1014348Y177659D01*
X1015592Y175798D01*
X1015733Y175362D01*
Y174638D01*
X1015592Y174202D01*
X1014348Y172341D01*
X1013883Y170000D01*
X1014348Y167659D01*
X1015592Y165798D01*
X1015733Y165362D01*
Y164638D01*
X1015592Y164202D01*
X1014348Y162341D01*
X1013883Y160000D01*
X1014348Y157659D01*
X1015592Y155798D01*
X1015733Y155362D01*
Y154638D01*
X1015592Y154202D01*
X1014348Y152341D01*
X1013883Y150000D01*
X1014348Y147659D01*
X1015592Y145798D01*
X1015733Y145362D01*
Y144638D01*
X1015592Y144202D01*
X1014348Y142341D01*
X1013883Y140000D01*
X1014348Y137659D01*
X1015674Y135674D01*
X1017659Y134348D01*
X1020000Y133883D01*
X1022341Y134348D01*
X1024326Y135674D01*
X1025652Y137659D01*
X1026117Y140000D01*
X1025652Y142341D01*
X1024408Y144202D01*
X1024267Y144638D01*
Y145362D01*
X1024408Y145798D01*
X1025652Y147659D01*
X1026117Y150000D01*
X1025652Y152341D01*
X1024408Y154202D01*
X1024267Y154638D01*
Y155362D01*
X1024408Y155798D01*
X1025652Y157659D01*
X1026117Y160000D01*
X1025652Y162341D01*
X1024408Y164202D01*
X1024267Y164638D01*
Y165362D01*
X1024408Y165798D01*
X1025652Y167659D01*
X1026117Y170000D01*
X1025652Y172341D01*
X1024408Y174202D01*
X1024267Y174638D01*
Y175362D01*
X1024408Y175798D01*
X1025652Y177659D01*
X1026117Y180000D01*
X1025652Y182341D01*
X1024326Y184326D01*
X1022341Y185652D01*
X1020000Y186117D01*
D02*
G37*
G36*
X935000Y161278D02*
X932659Y160812D01*
X930674Y159486D01*
X929348Y157501D01*
X928883Y155160D01*
X929348Y152819D01*
X930674Y150834D01*
X930853Y150715D01*
Y149445D01*
X930674Y149326D01*
X929348Y147341D01*
X928883Y145000D01*
X929348Y142659D01*
X930674Y140674D01*
X930853Y140555D01*
Y139285D01*
X930674Y139166D01*
X929348Y137181D01*
X928883Y134840D01*
X929348Y132499D01*
X930674Y130514D01*
X932659Y129188D01*
X935000Y128722D01*
X937341Y129188D01*
X939326Y130514D01*
X940652Y132499D01*
X941117Y134840D01*
X940652Y137181D01*
X939326Y139166D01*
X939147Y139285D01*
Y140555D01*
X939326Y140674D01*
X940652Y142659D01*
X941117Y145000D01*
X940652Y147341D01*
X939326Y149326D01*
X939147Y149445D01*
Y150715D01*
X939326Y150834D01*
X940652Y152819D01*
X941117Y155160D01*
X940652Y157501D01*
X939326Y159486D01*
X937341Y160812D01*
X935000Y161278D01*
D02*
G37*
G36*
X955000Y136098D02*
X953049Y135710D01*
X951395Y134605D01*
X950290Y132951D01*
X949902Y131000D01*
X950290Y129049D01*
X951395Y127395D01*
X953049Y126290D01*
X955000Y125902D01*
X956951Y126290D01*
X958605Y127395D01*
X959710Y129049D01*
X960098Y131000D01*
X959710Y132951D01*
X958605Y134605D01*
X956951Y135710D01*
X955000Y136098D01*
D02*
G37*
G36*
X322000Y131848D02*
X320049Y131460D01*
X318395Y130355D01*
X317290Y128701D01*
X316902Y126750D01*
X317290Y124799D01*
X318395Y123145D01*
X320049Y122040D01*
X322000Y121652D01*
X323951Y122040D01*
X325605Y123145D01*
X326710Y124799D01*
X327098Y126750D01*
X326710Y128701D01*
X325605Y130355D01*
X323951Y131460D01*
X322000Y131848D01*
D02*
G37*
G36*
X444000Y131098D02*
X442049Y130710D01*
X440395Y129605D01*
X439290Y127951D01*
X438902Y126000D01*
X439290Y124049D01*
X440395Y122395D01*
X442049Y121290D01*
X444000Y120902D01*
X445951Y121290D01*
X447605Y122395D01*
X448710Y124049D01*
X449098Y126000D01*
X448710Y127951D01*
X447605Y129605D01*
X445951Y130710D01*
X444000Y131098D01*
D02*
G37*
G36*
X300900Y135098D02*
X298949Y134710D01*
X297295Y133605D01*
X296190Y131951D01*
X295802Y130000D01*
X296190Y128049D01*
X296303Y127880D01*
X295828Y126305D01*
X294781Y125605D01*
X293675Y123951D01*
X293287Y122000D01*
X293675Y120049D01*
X294781Y118395D01*
X296434Y117290D01*
X298385Y116902D01*
X300336Y117290D01*
X301990Y118395D01*
X303095Y120049D01*
X303483Y122000D01*
X303095Y123951D01*
X302982Y124120D01*
X303457Y125695D01*
X304505Y126395D01*
X305610Y128049D01*
X305998Y130000D01*
X305610Y131951D01*
X304505Y133605D01*
X302851Y134710D01*
X300900Y135098D01*
D02*
G37*
G36*
X832000Y158447D02*
X829659Y157982D01*
X827674Y156656D01*
X826348Y154671D01*
X825883Y152330D01*
X826348Y149989D01*
X827674Y148004D01*
X827853Y147885D01*
Y146615D01*
X827674Y146496D01*
X826348Y144511D01*
X825883Y142170D01*
X826348Y139829D01*
X827674Y137844D01*
X827853Y137725D01*
Y136455D01*
X827674Y136336D01*
X826348Y134351D01*
X825883Y132010D01*
X826348Y129669D01*
X827674Y127684D01*
X827853Y127565D01*
Y126295D01*
X827674Y126176D01*
X826348Y124191D01*
X825883Y121850D01*
X826348Y119509D01*
X827674Y117524D01*
X829659Y116198D01*
X832000Y115732D01*
X834341Y116198D01*
X836326Y117524D01*
X837652Y119509D01*
X838118Y121850D01*
X837652Y124191D01*
X836326Y126176D01*
X836148Y126295D01*
Y127565D01*
X836326Y127684D01*
X837652Y129669D01*
X838118Y132010D01*
X837652Y134351D01*
X836326Y136336D01*
X836148Y136455D01*
Y137725D01*
X836326Y137844D01*
X837652Y139829D01*
X838118Y142170D01*
X837652Y144511D01*
X836326Y146496D01*
X836148Y146615D01*
Y147885D01*
X836326Y148004D01*
X837652Y149989D01*
X838118Y152330D01*
X837652Y154671D01*
X836326Y156656D01*
X834341Y157982D01*
X832000Y158447D01*
D02*
G37*
G36*
X375900Y124498D02*
X373949Y124110D01*
X372295Y123005D01*
X371190Y121351D01*
X370802Y119400D01*
X371190Y117449D01*
X372295Y115795D01*
X373949Y114690D01*
X375900Y114302D01*
X377851Y114690D01*
X379505Y115795D01*
X380610Y117449D01*
X380998Y119400D01*
X380610Y121351D01*
X379505Y123005D01*
X377851Y124110D01*
X375900Y124498D01*
D02*
G37*
G36*
X273000Y118098D02*
X271049Y117710D01*
X269395Y116605D01*
X268290Y114951D01*
X267902Y113000D01*
X268290Y111049D01*
X269395Y109395D01*
X271049Y108290D01*
X273000Y107902D01*
X274951Y108290D01*
X276605Y109395D01*
X277710Y111049D01*
X278098Y113000D01*
X277710Y114951D01*
X276605Y116605D01*
X274951Y117710D01*
X273000Y118098D01*
D02*
G37*
G36*
X417407Y116858D02*
X415456Y116470D01*
X413802Y115365D01*
X412697Y113711D01*
X412309Y111760D01*
X412697Y109809D01*
X413802Y108155D01*
X415456Y107050D01*
X417407Y106662D01*
X419358Y107050D01*
X421012Y108155D01*
X422117Y109809D01*
X422505Y111760D01*
X422117Y113711D01*
X421012Y115365D01*
X419358Y116470D01*
X417407Y116858D01*
D02*
G37*
G36*
X726231Y125070D02*
X707231D01*
Y106070D01*
X726231D01*
Y125070D01*
D02*
G37*
G36*
X656230D02*
X637230D01*
Y106070D01*
X656230D01*
Y125070D01*
D02*
G37*
G36*
X586230D02*
X567230D01*
Y106070D01*
X586230D01*
Y125070D01*
D02*
G37*
G36*
X516230D02*
X497230D01*
Y106070D01*
X516230D01*
Y125070D01*
D02*
G37*
G36*
X691331Y125152D02*
X688851Y124825D01*
X686540Y123868D01*
X684555Y122345D01*
X683032Y120361D01*
X682075Y118050D01*
X681749Y115570D01*
X682075Y113090D01*
X683032Y110779D01*
X684555Y108794D01*
X686540Y107272D01*
X688851Y106314D01*
X691331Y105988D01*
X693811Y106314D01*
X696122Y107272D01*
X698106Y108794D01*
X699629Y110779D01*
X700586Y113090D01*
X700913Y115570D01*
X700586Y118050D01*
X699629Y120361D01*
X698106Y122345D01*
X696122Y123868D01*
X693811Y124825D01*
X691331Y125152D01*
D02*
G37*
G36*
X621330D02*
X618851Y124825D01*
X616539Y123868D01*
X614555Y122345D01*
X613032Y120361D01*
X612075Y118050D01*
X611749Y115570D01*
X612075Y113090D01*
X613032Y110779D01*
X614555Y108794D01*
X616539Y107272D01*
X618851Y106314D01*
X621330Y105988D01*
X623810Y106314D01*
X626121Y107272D01*
X628106Y108794D01*
X629629Y110779D01*
X630586Y113090D01*
X630912Y115570D01*
X630586Y118050D01*
X629629Y120361D01*
X628106Y122345D01*
X626121Y123868D01*
X623810Y124825D01*
X621330Y125152D01*
D02*
G37*
G36*
X551330D02*
X548850Y124825D01*
X546539Y123868D01*
X544555Y122345D01*
X543032Y120361D01*
X542075Y118050D01*
X541748Y115570D01*
X542075Y113090D01*
X543032Y110779D01*
X544555Y108794D01*
X546539Y107272D01*
X548850Y106314D01*
X551330Y105988D01*
X553810Y106314D01*
X556121Y107272D01*
X558106Y108794D01*
X559628Y110779D01*
X560586Y113090D01*
X560912Y115570D01*
X560586Y118050D01*
X559628Y120361D01*
X558106Y122345D01*
X556121Y123868D01*
X553810Y124825D01*
X551330Y125152D01*
D02*
G37*
G36*
X481330D02*
X478850Y124825D01*
X476539Y123868D01*
X474555Y122345D01*
X473032Y120361D01*
X472075Y118050D01*
X471748Y115570D01*
X472075Y113090D01*
X473032Y110779D01*
X474555Y108794D01*
X476539Y107272D01*
X478850Y106314D01*
X481330Y105988D01*
X483810Y106314D01*
X486121Y107272D01*
X488105Y108794D01*
X489628Y110779D01*
X490586Y113090D01*
X490912Y115570D01*
X490586Y118050D01*
X489628Y120361D01*
X488105Y122345D01*
X486121Y123868D01*
X483810Y124825D01*
X481330Y125152D01*
D02*
G37*
G36*
X333999Y116098D02*
X332048Y115710D01*
X330395Y114605D01*
X329289Y112951D01*
X328901Y111000D01*
X329289Y109049D01*
X330117Y107810D01*
X330303Y106947D01*
X330121Y106050D01*
X329300Y104821D01*
X328912Y102870D01*
X329300Y100919D01*
X330405Y99265D01*
X332059Y98160D01*
X334010Y97772D01*
X335961Y98160D01*
X337615Y99265D01*
X338720Y100919D01*
X339108Y102870D01*
X338720Y104821D01*
X337892Y106060D01*
X337706Y106923D01*
X337888Y107820D01*
X338709Y109049D01*
X339097Y111000D01*
X338709Y112951D01*
X337604Y114605D01*
X335950Y115710D01*
X333999Y116098D01*
D02*
G37*
G36*
X186670Y101362D02*
Y92690D01*
X195342D01*
X195163Y94051D01*
X194155Y96483D01*
X192552Y98572D01*
X190463Y100175D01*
X188030Y101183D01*
X186670Y101362D01*
D02*
G37*
G36*
X184170D02*
X182810Y101183D01*
X180377Y100175D01*
X178288Y98572D01*
X176685Y96483D01*
X175677Y94051D01*
X175498Y92690D01*
X184170D01*
Y101362D01*
D02*
G37*
G36*
X379710Y100092D02*
Y91420D01*
X388382D01*
X388203Y92781D01*
X387195Y95213D01*
X385592Y97302D01*
X383503Y98905D01*
X381071Y99913D01*
X379710Y100092D01*
D02*
G37*
G36*
X377210D02*
X375849Y99913D01*
X373417Y98905D01*
X371328Y97302D01*
X369725Y95213D01*
X368717Y92781D01*
X368538Y91420D01*
X377210D01*
Y100092D01*
D02*
G37*
G36*
X1083000Y109982D02*
X1080520Y109656D01*
X1078209Y108698D01*
X1076225Y107176D01*
X1074702Y105191D01*
X1073745Y102880D01*
X1073418Y100400D01*
X1073745Y97920D01*
X1074702Y95609D01*
X1076225Y93625D01*
X1078209Y92102D01*
X1080520Y91145D01*
X1083000Y90818D01*
X1085480Y91145D01*
X1087791Y92102D01*
X1089776Y93625D01*
X1091298Y95609D01*
X1092256Y97920D01*
X1092582Y100400D01*
X1092256Y102880D01*
X1091298Y105191D01*
X1089776Y107176D01*
X1087791Y108698D01*
X1085480Y109656D01*
X1083000Y109982D01*
D02*
G37*
G36*
X1057600D02*
X1055120Y109656D01*
X1052809Y108698D01*
X1050825Y107176D01*
X1049302Y105191D01*
X1048345Y102880D01*
X1048018Y100400D01*
X1048345Y97920D01*
X1049302Y95609D01*
X1050825Y93625D01*
X1052809Y92102D01*
X1055120Y91145D01*
X1057600Y90818D01*
X1060080Y91145D01*
X1062391Y92102D01*
X1064376Y93625D01*
X1065898Y95609D01*
X1066856Y97920D01*
X1067182Y100400D01*
X1066856Y102880D01*
X1065898Y105191D01*
X1064376Y107176D01*
X1062391Y108698D01*
X1060080Y109656D01*
X1057600Y109982D01*
D02*
G37*
G36*
X45000Y105330D02*
X42586Y105012D01*
X40335Y104080D01*
X38403Y102597D01*
X36920Y100665D01*
X35988Y98414D01*
X35670Y96000D01*
X35988Y93585D01*
X36920Y91335D01*
X38403Y89403D01*
X40335Y87920D01*
X42586Y86988D01*
X45000Y86670D01*
X47415Y86988D01*
X49665Y87920D01*
X51597Y89403D01*
X53080Y91335D01*
X54012Y93585D01*
X54330Y96000D01*
X54012Y98414D01*
X53080Y100665D01*
X51597Y102597D01*
X49665Y104080D01*
X47415Y105012D01*
X45000Y105330D01*
D02*
G37*
G36*
X245720Y100940D02*
X226720D01*
Y81940D01*
X245720D01*
Y100940D01*
D02*
G37*
G36*
X210820Y101022D02*
X208340Y100695D01*
X206029Y99738D01*
X204044Y98216D01*
X202522Y96231D01*
X201565Y93920D01*
X201238Y91440D01*
X201565Y88960D01*
X202522Y86649D01*
X204044Y84664D01*
X206029Y83142D01*
X208340Y82184D01*
X210820Y81858D01*
X213300Y82184D01*
X215611Y83142D01*
X217595Y84664D01*
X219118Y86649D01*
X220075Y88960D01*
X220402Y91440D01*
X220075Y93920D01*
X219118Y96231D01*
X217595Y98216D01*
X215611Y99738D01*
X213300Y100695D01*
X210820Y101022D01*
D02*
G37*
G36*
X195342Y90190D02*
X186670D01*
Y81518D01*
X188030Y81697D01*
X190463Y82705D01*
X192552Y84308D01*
X194155Y86397D01*
X195163Y88829D01*
X195342Y90190D01*
D02*
G37*
G36*
X184170D02*
X175498D01*
X175677Y88829D01*
X176685Y86397D01*
X178288Y84308D01*
X180377Y82705D01*
X182810Y81697D01*
X184170Y81518D01*
Y90190D01*
D02*
G37*
G36*
X362560Y99670D02*
X343560D01*
Y80670D01*
X362560D01*
Y99670D01*
D02*
G37*
G36*
X429260Y99752D02*
X426780Y99425D01*
X424469Y98468D01*
X422485Y96945D01*
X420962Y94961D01*
X420005Y92650D01*
X419678Y90170D01*
X420005Y87690D01*
X420962Y85379D01*
X422485Y83395D01*
X424469Y81872D01*
X426780Y80914D01*
X429260Y80588D01*
X431740Y80914D01*
X434051Y81872D01*
X436035Y83395D01*
X437558Y85379D01*
X438516Y87690D01*
X438842Y90170D01*
X438516Y92650D01*
X437558Y94961D01*
X436035Y96945D01*
X434051Y98468D01*
X431740Y99425D01*
X429260Y99752D01*
D02*
G37*
G36*
X403860D02*
X401380Y99425D01*
X399069Y98468D01*
X397085Y96945D01*
X395562Y94961D01*
X394604Y92650D01*
X394278Y90170D01*
X394604Y87690D01*
X395562Y85379D01*
X397085Y83395D01*
X399069Y81872D01*
X401380Y80914D01*
X403860Y80588D01*
X406340Y80914D01*
X408651Y81872D01*
X410635Y83395D01*
X412158Y85379D01*
X413116Y87690D01*
X413442Y90170D01*
X413116Y92650D01*
X412158Y94961D01*
X410635Y96945D01*
X408651Y98468D01*
X406340Y99425D01*
X403860Y99752D01*
D02*
G37*
G36*
X388382Y88920D02*
X379710D01*
Y80248D01*
X381071Y80427D01*
X383503Y81435D01*
X385592Y83038D01*
X387195Y85127D01*
X388203Y87559D01*
X388382Y88920D01*
D02*
G37*
G36*
X377210D02*
X368538D01*
X368717Y87559D01*
X369725Y85127D01*
X371328Y83038D01*
X373417Y81435D01*
X375849Y80427D01*
X377210Y80248D01*
Y88920D01*
D02*
G37*
G36*
X23750Y95612D02*
X12250D01*
X10007Y95166D01*
X8105Y93895D01*
X6834Y91993D01*
X6387Y89750D01*
Y82250D01*
X6834Y80006D01*
X8105Y78104D01*
X10007Y76834D01*
X12250Y76387D01*
X23750D01*
X25993Y76834D01*
X27896Y78104D01*
X29166Y80006D01*
X29613Y82250D01*
Y89750D01*
X29166Y91993D01*
X27896Y93895D01*
X25993Y95166D01*
X23750Y95612D01*
D02*
G37*
G36*
X1084250Y84922D02*
Y76250D01*
X1092922D01*
X1092743Y77611D01*
X1091735Y80043D01*
X1090132Y82132D01*
X1088043Y83735D01*
X1085611Y84743D01*
X1084250Y84922D01*
D02*
G37*
G36*
X1081750D02*
X1080390Y84743D01*
X1077957Y83735D01*
X1075868Y82132D01*
X1074265Y80043D01*
X1073258Y77611D01*
X1073078Y76250D01*
X1081750D01*
Y84922D01*
D02*
G37*
G36*
X769000Y86771D02*
Y70000D01*
X781585D01*
X781247Y73431D01*
X780246Y76729D01*
X778621Y79769D01*
X776434Y82434D01*
X773770Y84621D01*
X770729Y86246D01*
X769000Y86771D01*
D02*
G37*
G36*
X759000D02*
X757271Y86246D01*
X754230Y84621D01*
X751566Y82434D01*
X749379Y79769D01*
X747754Y76729D01*
X746753Y73431D01*
X746415Y70000D01*
X759000D01*
Y86771D01*
D02*
G37*
G36*
X1067100Y84500D02*
X1048100D01*
Y65500D01*
X1067100D01*
Y84500D01*
D02*
G37*
G36*
X1092922Y73750D02*
X1084250D01*
Y65078D01*
X1085611Y65258D01*
X1088043Y66265D01*
X1090132Y67868D01*
X1091735Y69957D01*
X1092743Y72390D01*
X1092922Y73750D01*
D02*
G37*
G36*
X1081750D02*
X1073078D01*
X1073258Y72390D01*
X1074265Y69957D01*
X1075868Y67868D01*
X1077957Y66265D01*
X1080390Y65258D01*
X1081750Y65078D01*
Y73750D01*
D02*
G37*
G36*
X717010Y77107D02*
X713877Y76694D01*
X710958Y75485D01*
X708451Y73562D01*
X706527Y71055D01*
X705318Y68136D01*
X704906Y65003D01*
Y59003D01*
X705318Y55871D01*
X706527Y52952D01*
X708451Y50445D01*
X710958Y48521D01*
X713877Y47312D01*
X717010Y46900D01*
X720142Y47312D01*
X723061Y48521D01*
X725568Y50445D01*
X727492Y52952D01*
X728701Y55871D01*
X729113Y59003D01*
Y65003D01*
X728701Y68136D01*
X727492Y71055D01*
X725568Y73562D01*
X723061Y75485D01*
X720142Y76694D01*
X717010Y77107D01*
D02*
G37*
G36*
X682009D02*
X678877Y76694D01*
X675957Y75485D01*
X673451Y73562D01*
X671527Y71055D01*
X670318Y68136D01*
X669906Y65003D01*
Y59003D01*
X670318Y55871D01*
X671527Y52952D01*
X673451Y50445D01*
X675957Y48521D01*
X678877Y47312D01*
X682009Y46900D01*
X685142Y47312D01*
X688061Y48521D01*
X690568Y50445D01*
X692491Y52952D01*
X693700Y55871D01*
X694113Y59003D01*
Y65003D01*
X693700Y68136D01*
X692491Y71055D01*
X690568Y73562D01*
X688061Y75485D01*
X685142Y76694D01*
X682009Y77107D01*
D02*
G37*
G36*
X647009D02*
X643877Y76694D01*
X640957Y75485D01*
X638451Y73562D01*
X636527Y71055D01*
X635318Y68136D01*
X634906Y65003D01*
Y59003D01*
X635318Y55871D01*
X636527Y52952D01*
X638451Y50445D01*
X640957Y48521D01*
X643877Y47312D01*
X647009Y46900D01*
X650142Y47312D01*
X653061Y48521D01*
X655568Y50445D01*
X657491Y52952D01*
X658700Y55871D01*
X659113Y59003D01*
Y65003D01*
X658700Y68136D01*
X657491Y71055D01*
X655568Y73562D01*
X653061Y75485D01*
X650142Y76694D01*
X647009Y77107D01*
D02*
G37*
G36*
X612009D02*
X608876Y76694D01*
X605957Y75485D01*
X603451Y73562D01*
X601527Y71055D01*
X600318Y68136D01*
X599906Y65003D01*
Y59003D01*
X600318Y55871D01*
X601527Y52952D01*
X603451Y50445D01*
X605957Y48521D01*
X608876Y47312D01*
X612009Y46900D01*
X615142Y47312D01*
X618061Y48521D01*
X620568Y50445D01*
X622491Y52952D01*
X623700Y55871D01*
X624113Y59003D01*
Y65003D01*
X623700Y68136D01*
X622491Y71055D01*
X620568Y73562D01*
X618061Y75485D01*
X615142Y76694D01*
X612009Y77107D01*
D02*
G37*
G36*
X577009D02*
X573876Y76694D01*
X570957Y75485D01*
X568451Y73562D01*
X566527Y71055D01*
X565318Y68136D01*
X564906Y65003D01*
Y59003D01*
X565318Y55871D01*
X566527Y52952D01*
X568451Y50445D01*
X570957Y48521D01*
X573876Y47312D01*
X577009Y46900D01*
X580142Y47312D01*
X583061Y48521D01*
X585568Y50445D01*
X587491Y52952D01*
X588700Y55871D01*
X589113Y59003D01*
Y65003D01*
X588700Y68136D01*
X587491Y71055D01*
X585568Y73562D01*
X583061Y75485D01*
X580142Y76694D01*
X577009Y77107D01*
D02*
G37*
G36*
X542009D02*
X538876Y76694D01*
X535957Y75485D01*
X533450Y73562D01*
X531527Y71055D01*
X530318Y68136D01*
X529905Y65003D01*
Y59003D01*
X530318Y55871D01*
X531527Y52952D01*
X533450Y50445D01*
X535957Y48521D01*
X538876Y47312D01*
X542009Y46900D01*
X545141Y47312D01*
X548061Y48521D01*
X550567Y50445D01*
X552491Y52952D01*
X553700Y55871D01*
X554112Y59003D01*
Y65003D01*
X553700Y68136D01*
X552491Y71055D01*
X550567Y73562D01*
X548061Y75485D01*
X545141Y76694D01*
X542009Y77107D01*
D02*
G37*
G36*
X507009D02*
X503876Y76694D01*
X500957Y75485D01*
X498450Y73562D01*
X496527Y71055D01*
X495318Y68136D01*
X494905Y65003D01*
Y59003D01*
X495318Y55871D01*
X496527Y52952D01*
X498450Y50445D01*
X500957Y48521D01*
X503876Y47312D01*
X507009Y46900D01*
X510141Y47312D01*
X513061Y48521D01*
X515567Y50445D01*
X517491Y52952D01*
X518700Y55871D01*
X519112Y59003D01*
Y65003D01*
X518700Y68136D01*
X517491Y71055D01*
X515567Y73562D01*
X513061Y75485D01*
X510141Y76694D01*
X507009Y77107D01*
D02*
G37*
G36*
X472009D02*
X468876Y76694D01*
X465957Y75485D01*
X463450Y73562D01*
X461527Y71055D01*
X460317Y68136D01*
X459905Y65003D01*
Y59003D01*
X460317Y55871D01*
X461527Y52952D01*
X463450Y50445D01*
X465957Y48521D01*
X468876Y47312D01*
X472009Y46900D01*
X475141Y47312D01*
X478060Y48521D01*
X480567Y50445D01*
X482491Y52952D01*
X483700Y55871D01*
X484112Y59003D01*
Y65003D01*
X483700Y68136D01*
X482491Y71055D01*
X480567Y73562D01*
X478060Y75485D01*
X475141Y76694D01*
X472009Y77107D01*
D02*
G37*
G36*
X781585Y60000D02*
X769000D01*
Y43229D01*
X770729Y43754D01*
X773770Y45379D01*
X776434Y47566D01*
X778621Y50230D01*
X780246Y53271D01*
X781247Y56569D01*
X781585Y60000D01*
D02*
G37*
G36*
X759000D02*
X746415D01*
X746753Y56569D01*
X747754Y53271D01*
X749379Y50230D01*
X751566Y47566D01*
X754230Y45379D01*
X757271Y43754D01*
X759000Y43229D01*
Y60000D01*
D02*
G37*
G36*
X1014000Y87082D02*
X1010667Y86754D01*
X1007463Y85782D01*
X1004510Y84203D01*
X1001921Y82079D01*
X999797Y79490D01*
X998218Y76537D01*
X997246Y73332D01*
X996918Y70000D01*
Y60000D01*
X997246Y56667D01*
X998218Y53463D01*
X999797Y50510D01*
X1001921Y47921D01*
X1004510Y45796D01*
X1007463Y44218D01*
X1010667Y43246D01*
X1014000Y42918D01*
X1017333Y43246D01*
X1020537Y44218D01*
X1023490Y45796D01*
X1026079Y47921D01*
X1028203Y50510D01*
X1029782Y53463D01*
X1030754Y56667D01*
X1031082Y60000D01*
Y70000D01*
X1030754Y73332D01*
X1029782Y76537D01*
X1028203Y79490D01*
X1026079Y82079D01*
X1023490Y84203D01*
X1020537Y85782D01*
X1017333Y86754D01*
X1014000Y87082D01*
D02*
G37*
G36*
X964000D02*
X960667Y86754D01*
X957463Y85782D01*
X954510Y84203D01*
X951921Y82079D01*
X949797Y79490D01*
X948218Y76537D01*
X947246Y73332D01*
X946918Y70000D01*
Y60000D01*
X947246Y56667D01*
X948218Y53463D01*
X949797Y50510D01*
X951921Y47921D01*
X954510Y45796D01*
X957463Y44218D01*
X960667Y43246D01*
X964000Y42918D01*
X967333Y43246D01*
X970537Y44218D01*
X973491Y45796D01*
X976079Y47921D01*
X978204Y50510D01*
X979782Y53463D01*
X980754Y56667D01*
X981082Y60000D01*
Y70000D01*
X980754Y73332D01*
X979782Y76537D01*
X978204Y79490D01*
X976079Y82079D01*
X973491Y84203D01*
X970537Y85782D01*
X967333Y86754D01*
X964000Y87082D01*
D02*
G37*
G36*
X914000D02*
X910668Y86754D01*
X907463Y85782D01*
X904510Y84203D01*
X901921Y82079D01*
X899797Y79490D01*
X898218Y76537D01*
X897246Y73332D01*
X896918Y70000D01*
Y60000D01*
X897246Y56667D01*
X898218Y53463D01*
X899797Y50510D01*
X901921Y47921D01*
X904510Y45796D01*
X907463Y44218D01*
X910668Y43246D01*
X914000Y42918D01*
X917333Y43246D01*
X920537Y44218D01*
X923491Y45796D01*
X926079Y47921D01*
X928204Y50510D01*
X929782Y53463D01*
X930754Y56667D01*
X931082Y60000D01*
Y70000D01*
X930754Y73332D01*
X929782Y76537D01*
X928204Y79490D01*
X926079Y82079D01*
X923491Y84203D01*
X920537Y85782D01*
X917333Y86754D01*
X914000Y87082D01*
D02*
G37*
G36*
X864000D02*
X860668Y86754D01*
X857463Y85782D01*
X854510Y84203D01*
X851921Y82079D01*
X849797Y79490D01*
X848218Y76537D01*
X847246Y73332D01*
X846918Y70000D01*
Y60000D01*
X847246Y56667D01*
X848218Y53463D01*
X849797Y50510D01*
X851921Y47921D01*
X854510Y45796D01*
X857463Y44218D01*
X860668Y43246D01*
X864000Y42918D01*
X867333Y43246D01*
X870537Y44218D01*
X873491Y45796D01*
X876079Y47921D01*
X878204Y50510D01*
X879782Y53463D01*
X880754Y56667D01*
X881083Y60000D01*
Y70000D01*
X880754Y73332D01*
X879782Y76537D01*
X878204Y79490D01*
X876079Y82079D01*
X873491Y84203D01*
X870537Y85782D01*
X867333Y86754D01*
X864000Y87082D01*
D02*
G37*
G36*
X814000D02*
X810667Y86754D01*
X807463Y85782D01*
X804510Y84203D01*
X801921Y82079D01*
X799797Y79490D01*
X798218Y76537D01*
X797246Y73332D01*
X796918Y70000D01*
Y60000D01*
X797246Y56667D01*
X798218Y53463D01*
X799797Y50510D01*
X801921Y47921D01*
X804510Y45796D01*
X807463Y44218D01*
X810667Y43246D01*
X814000Y42918D01*
X817333Y43246D01*
X820537Y44218D01*
X823490Y45796D01*
X826079Y47921D01*
X828203Y50510D01*
X829782Y53463D01*
X830754Y56667D01*
X831082Y60000D01*
Y70000D01*
X830754Y73332D01*
X829782Y76537D01*
X828203Y79490D01*
X826079Y82079D01*
X823490Y84203D01*
X820537Y85782D01*
X817333Y86754D01*
X814000Y87082D01*
D02*
G37*
G36*
X401419Y59002D02*
X398939Y58676D01*
X396628Y57719D01*
X394643Y56196D01*
X393120Y54211D01*
X392163Y51900D01*
X391837Y49420D01*
X392163Y46940D01*
X393120Y44629D01*
X394643Y42645D01*
X396628Y41122D01*
X398939Y40165D01*
X401419Y39838D01*
X403899Y40165D01*
X406209Y41122D01*
X408194Y42645D01*
X409717Y44629D01*
X410674Y46940D01*
X411001Y49420D01*
X410674Y51900D01*
X409717Y54211D01*
X408194Y56196D01*
X406209Y57719D01*
X403899Y58676D01*
X401419Y59002D01*
D02*
G37*
G36*
X376019D02*
X373539Y58676D01*
X371228Y57719D01*
X369243Y56196D01*
X367720Y54211D01*
X366763Y51900D01*
X366437Y49420D01*
X366763Y46940D01*
X367720Y44629D01*
X369243Y42645D01*
X371228Y41122D01*
X373539Y40165D01*
X376019Y39838D01*
X378498Y40165D01*
X380810Y41122D01*
X382794Y42645D01*
X384317Y44629D01*
X385274Y46940D01*
X385601Y49420D01*
X385274Y51900D01*
X384317Y54211D01*
X382794Y56196D01*
X380810Y57719D01*
X378498Y58676D01*
X376019Y59002D01*
D02*
G37*
G36*
X350619D02*
X348139Y58676D01*
X345828Y57719D01*
X343843Y56196D01*
X342320Y54211D01*
X341363Y51900D01*
X341037Y49420D01*
X341363Y46940D01*
X342320Y44629D01*
X343843Y42645D01*
X345828Y41122D01*
X348139Y40165D01*
X350619Y39838D01*
X353098Y40165D01*
X355410Y41122D01*
X357394Y42645D01*
X358917Y44629D01*
X359874Y46940D01*
X360201Y49420D01*
X359874Y51900D01*
X358917Y54211D01*
X357394Y56196D01*
X355410Y57719D01*
X353098Y58676D01*
X350619Y59002D01*
D02*
G37*
G36*
X325219D02*
X322739Y58676D01*
X320428Y57719D01*
X318443Y56196D01*
X316920Y54211D01*
X315963Y51900D01*
X315637Y49420D01*
X315963Y46940D01*
X316920Y44629D01*
X318443Y42645D01*
X320428Y41122D01*
X322739Y40165D01*
X325219Y39838D01*
X327699Y40165D01*
X330009Y41122D01*
X331994Y42645D01*
X333517Y44629D01*
X334474Y46940D01*
X334800Y49420D01*
X334474Y51900D01*
X333517Y54211D01*
X331994Y56196D01*
X330009Y57719D01*
X327699Y58676D01*
X325219Y59002D01*
D02*
G37*
G36*
X299819D02*
X297339Y58676D01*
X295028Y57719D01*
X293043Y56196D01*
X291520Y54211D01*
X290563Y51900D01*
X290237Y49420D01*
X290563Y46940D01*
X291520Y44629D01*
X293043Y42645D01*
X295028Y41122D01*
X297339Y40165D01*
X299819Y39838D01*
X302299Y40165D01*
X304610Y41122D01*
X306594Y42645D01*
X308117Y44629D01*
X309074Y46940D01*
X309401Y49420D01*
X309074Y51900D01*
X308117Y54211D01*
X306594Y56196D01*
X304610Y57719D01*
X302299Y58676D01*
X299819Y59002D01*
D02*
G37*
G36*
X208620Y58982D02*
X206140Y58655D01*
X203829Y57698D01*
X201845Y56175D01*
X200322Y54191D01*
X199365Y51880D01*
X199038Y49400D01*
X199365Y46920D01*
X200322Y44609D01*
X201845Y42625D01*
X203829Y41102D01*
X206140Y40145D01*
X208620Y39818D01*
X211100Y40145D01*
X213411Y41102D01*
X215396Y42625D01*
X216918Y44609D01*
X217876Y46920D01*
X218202Y49400D01*
X217876Y51880D01*
X216918Y54191D01*
X215396Y56175D01*
X213411Y57698D01*
X211100Y58655D01*
X208620Y58982D01*
D02*
G37*
G36*
X183220D02*
X180740Y58655D01*
X178429Y57698D01*
X176445Y56175D01*
X174922Y54191D01*
X173965Y51880D01*
X173638Y49400D01*
X173965Y46920D01*
X174922Y44609D01*
X176445Y42625D01*
X178429Y41102D01*
X180740Y40145D01*
X183220Y39818D01*
X185700Y40145D01*
X188011Y41102D01*
X189996Y42625D01*
X191518Y44609D01*
X192476Y46920D01*
X192802Y49400D01*
X192476Y51880D01*
X191518Y54191D01*
X189996Y56175D01*
X188011Y57698D01*
X185700Y58655D01*
X183220Y58982D01*
D02*
G37*
G36*
X157820D02*
X155340Y58655D01*
X153029Y57698D01*
X151045Y56175D01*
X149522Y54191D01*
X148565Y51880D01*
X148238Y49400D01*
X148565Y46920D01*
X149522Y44609D01*
X151045Y42625D01*
X153029Y41102D01*
X155340Y40145D01*
X157820Y39818D01*
X160300Y40145D01*
X162611Y41102D01*
X164596Y42625D01*
X166118Y44609D01*
X167076Y46920D01*
X167402Y49400D01*
X167076Y51880D01*
X166118Y54191D01*
X164596Y56175D01*
X162611Y57698D01*
X160300Y58655D01*
X157820Y58982D01*
D02*
G37*
G36*
X132420D02*
X129940Y58655D01*
X127629Y57698D01*
X125645Y56175D01*
X124122Y54191D01*
X123165Y51880D01*
X122838Y49400D01*
X123165Y46920D01*
X124122Y44609D01*
X125645Y42625D01*
X127629Y41102D01*
X129940Y40145D01*
X132420Y39818D01*
X134900Y40145D01*
X137211Y41102D01*
X139196Y42625D01*
X140718Y44609D01*
X141676Y46920D01*
X142002Y49400D01*
X141676Y51880D01*
X140718Y54191D01*
X139196Y56175D01*
X137211Y57698D01*
X134900Y58655D01*
X132420Y58982D01*
D02*
G37*
G36*
X107020D02*
X104540Y58655D01*
X102229Y57698D01*
X100245Y56175D01*
X98722Y54191D01*
X97765Y51880D01*
X97438Y49400D01*
X97765Y46920D01*
X98722Y44609D01*
X100245Y42625D01*
X102229Y41102D01*
X104540Y40145D01*
X107020Y39818D01*
X109500Y40145D01*
X111811Y41102D01*
X113796Y42625D01*
X115318Y44609D01*
X116276Y46920D01*
X116602Y49400D01*
X116276Y51880D01*
X115318Y54191D01*
X113796Y56175D01*
X111811Y57698D01*
X109500Y58655D01*
X107020Y58982D01*
D02*
G37*
G36*
X259000Y46848D02*
X257049Y46460D01*
X255395Y45355D01*
X254290Y43701D01*
X253902Y41750D01*
X254290Y39799D01*
X255395Y38145D01*
X257049Y37040D01*
X259000Y36652D01*
X260951Y37040D01*
X262605Y38145D01*
X263710Y39799D01*
X264098Y41750D01*
X263710Y43701D01*
X262605Y45355D01*
X260951Y46460D01*
X259000Y46848D01*
D02*
G37*
G36*
X402668Y33942D02*
Y25270D01*
X411340D01*
X411161Y26631D01*
X410154Y29063D01*
X408551Y31152D01*
X406462Y32755D01*
X404029Y33763D01*
X402668Y33942D01*
D02*
G37*
G36*
X400169D02*
X398808Y33763D01*
X396375Y32755D01*
X394286Y31152D01*
X392684Y29063D01*
X391676Y26631D01*
X391497Y25270D01*
X400169D01*
Y33942D01*
D02*
G37*
G36*
X209870Y33922D02*
Y25250D01*
X218542D01*
X218363Y26611D01*
X217355Y29043D01*
X215752Y31132D01*
X213663Y32735D01*
X211231Y33742D01*
X209870Y33922D01*
D02*
G37*
G36*
X207370D02*
X206010Y33742D01*
X203577Y32735D01*
X201488Y31132D01*
X199885Y29043D01*
X198878Y26611D01*
X198698Y25250D01*
X207370D01*
Y33922D01*
D02*
G37*
G36*
X309319Y33520D02*
X290319D01*
Y14520D01*
X309319D01*
Y33520D01*
D02*
G37*
G36*
X116520Y33500D02*
X97520D01*
Y14500D01*
X116520D01*
Y33500D01*
D02*
G37*
G36*
X376019Y33602D02*
X373539Y33276D01*
X371228Y32318D01*
X369243Y30796D01*
X367720Y28811D01*
X366763Y26500D01*
X366437Y24020D01*
X366763Y21540D01*
X367720Y19229D01*
X369243Y17245D01*
X371228Y15722D01*
X373539Y14765D01*
X376019Y14438D01*
X378498Y14765D01*
X380810Y15722D01*
X382794Y17245D01*
X384317Y19229D01*
X385274Y21540D01*
X385601Y24020D01*
X385274Y26500D01*
X384317Y28811D01*
X382794Y30796D01*
X380810Y32318D01*
X378498Y33276D01*
X376019Y33602D01*
D02*
G37*
G36*
X350619D02*
X348139Y33276D01*
X345828Y32318D01*
X343843Y30796D01*
X342320Y28811D01*
X341363Y26500D01*
X341037Y24020D01*
X341363Y21540D01*
X342320Y19229D01*
X343843Y17245D01*
X345828Y15722D01*
X348139Y14765D01*
X350619Y14438D01*
X353098Y14765D01*
X355410Y15722D01*
X357394Y17245D01*
X358917Y19229D01*
X359874Y21540D01*
X360201Y24020D01*
X359874Y26500D01*
X358917Y28811D01*
X357394Y30796D01*
X355410Y32318D01*
X353098Y33276D01*
X350619Y33602D01*
D02*
G37*
G36*
X325219D02*
X322739Y33276D01*
X320428Y32318D01*
X318443Y30796D01*
X316920Y28811D01*
X315963Y26500D01*
X315637Y24020D01*
X315963Y21540D01*
X316920Y19229D01*
X318443Y17245D01*
X320428Y15722D01*
X322739Y14765D01*
X325219Y14438D01*
X327699Y14765D01*
X330009Y15722D01*
X331994Y17245D01*
X333517Y19229D01*
X334474Y21540D01*
X334800Y24020D01*
X334474Y26500D01*
X333517Y28811D01*
X331994Y30796D01*
X330009Y32318D01*
X327699Y33276D01*
X325219Y33602D01*
D02*
G37*
G36*
X183220Y33582D02*
X180740Y33255D01*
X178429Y32298D01*
X176445Y30775D01*
X174922Y28791D01*
X173965Y26480D01*
X173638Y24000D01*
X173965Y21520D01*
X174922Y19209D01*
X176445Y17225D01*
X178429Y15702D01*
X180740Y14744D01*
X183220Y14418D01*
X185700Y14744D01*
X188011Y15702D01*
X189996Y17225D01*
X191518Y19209D01*
X192476Y21520D01*
X192802Y24000D01*
X192476Y26480D01*
X191518Y28791D01*
X189996Y30775D01*
X188011Y32298D01*
X185700Y33255D01*
X183220Y33582D01*
D02*
G37*
G36*
X157820D02*
X155340Y33255D01*
X153029Y32298D01*
X151045Y30775D01*
X149522Y28791D01*
X148565Y26480D01*
X148238Y24000D01*
X148565Y21520D01*
X149522Y19209D01*
X151045Y17225D01*
X153029Y15702D01*
X155340Y14744D01*
X157820Y14418D01*
X160300Y14744D01*
X162611Y15702D01*
X164596Y17225D01*
X166118Y19209D01*
X167076Y21520D01*
X167402Y24000D01*
X167076Y26480D01*
X166118Y28791D01*
X164596Y30775D01*
X162611Y32298D01*
X160300Y33255D01*
X157820Y33582D01*
D02*
G37*
G36*
X132420D02*
X129940Y33255D01*
X127629Y32298D01*
X125645Y30775D01*
X124122Y28791D01*
X123165Y26480D01*
X122838Y24000D01*
X123165Y21520D01*
X124122Y19209D01*
X125645Y17225D01*
X127629Y15702D01*
X129940Y14744D01*
X132420Y14418D01*
X134900Y14744D01*
X137211Y15702D01*
X139196Y17225D01*
X140718Y19209D01*
X141676Y21520D01*
X142002Y24000D01*
X141676Y26480D01*
X140718Y28791D01*
X139196Y30775D01*
X137211Y32298D01*
X134900Y33255D01*
X132420Y33582D01*
D02*
G37*
G36*
X411340Y22770D02*
X402668D01*
Y14099D01*
X404029Y14278D01*
X406462Y15285D01*
X408551Y16888D01*
X410154Y18977D01*
X411161Y21410D01*
X411340Y22770D01*
D02*
G37*
G36*
X400169D02*
X391497D01*
X391676Y21410D01*
X392684Y18977D01*
X394286Y16888D01*
X396375Y15285D01*
X398808Y14278D01*
X400169Y14099D01*
Y22770D01*
D02*
G37*
G36*
X218542Y22750D02*
X209870D01*
Y14078D01*
X211231Y14257D01*
X213663Y15265D01*
X215752Y16868D01*
X217355Y18957D01*
X218363Y21389D01*
X218542Y22750D01*
D02*
G37*
G36*
X207370D02*
X198698D01*
X198878Y21389D01*
X199885Y18957D01*
X201488Y16868D01*
X203577Y15265D01*
X206010Y14257D01*
X207370Y14078D01*
Y22750D01*
D02*
G37*
%LPD*%
D152*
X923500Y489750D02*
D03*
Y500750D02*
D03*
Y511750D02*
D03*
X934500D02*
D03*
Y500750D02*
D03*
Y489750D02*
D03*
X945500D02*
D03*
Y500750D02*
D03*
Y511750D02*
D03*
X956500D02*
D03*
Y500750D02*
D03*
Y489750D02*
D03*
X764500D02*
D03*
Y500750D02*
D03*
Y511750D02*
D03*
X753500D02*
D03*
Y500750D02*
D03*
Y489750D02*
D03*
X742500D02*
D03*
Y500750D02*
D03*
Y511750D02*
D03*
X731500D02*
D03*
Y500750D02*
D03*
Y489750D02*
D03*
X539500D02*
D03*
Y500750D02*
D03*
Y511750D02*
D03*
X550500D02*
D03*
Y500750D02*
D03*
Y489750D02*
D03*
X561500D02*
D03*
Y500750D02*
D03*
Y511750D02*
D03*
X572500D02*
D03*
Y500750D02*
D03*
Y489750D02*
D03*
X380500D02*
D03*
Y500750D02*
D03*
Y511750D02*
D03*
X369500D02*
D03*
Y500750D02*
D03*
Y489750D02*
D03*
X358500D02*
D03*
Y500750D02*
D03*
Y511750D02*
D03*
X347500D02*
D03*
Y500750D02*
D03*
Y489750D02*
D03*
X155500D02*
D03*
Y500750D02*
D03*
Y511750D02*
D03*
X166500D02*
D03*
Y500750D02*
D03*
Y489750D02*
D03*
X177500D02*
D03*
Y500750D02*
D03*
Y511750D02*
D03*
X188500D02*
D03*
Y500750D02*
D03*
Y489750D02*
D03*
X244980Y544000D02*
D03*
X436980D02*
D03*
X820980D02*
D03*
X628980D02*
D03*
X917000Y432996D02*
D03*
X428205Y276000D02*
D03*
X371999Y257999D02*
D03*
X257650Y322580D02*
D03*
X436170Y219000D02*
D03*
X172000Y574250D02*
D03*
X368000Y324000D02*
D03*
X897000Y310000D02*
D03*
X469000Y280000D02*
D03*
X667000Y258000D02*
D03*
X617000D02*
D03*
X567000D02*
D03*
X517000Y258000D02*
D03*
X218040Y581140D02*
D03*
X415290Y173990D02*
D03*
X107950Y177800D02*
D03*
X93190Y93980D02*
D03*
X63500Y107950D02*
D03*
X19050Y359410D02*
D03*
X33020Y303276D02*
D03*
X138430Y257810D02*
D03*
X73660Y122530D02*
D03*
X365760Y119380D02*
D03*
X209550Y168750D02*
D03*
X976780Y276790D02*
D03*
X904295Y369705D02*
D03*
X126000Y581000D02*
D03*
X1041000Y513000D02*
D03*
Y561000D02*
D03*
X149000Y432996D02*
D03*
X341000D02*
D03*
X318000Y581000D02*
D03*
X410040Y581140D02*
D03*
X364000Y574250D02*
D03*
X533000Y432996D02*
D03*
X510000Y581000D02*
D03*
X602040Y581140D02*
D03*
X556000Y574250D02*
D03*
X725000Y432996D02*
D03*
X702000Y581000D02*
D03*
X794040Y581140D02*
D03*
X748000Y574250D02*
D03*
X894000Y581000D02*
D03*
X986040Y581140D02*
D03*
X940000Y574250D02*
D03*
X951000Y211000D02*
D03*
D153*
X267900Y623500D02*
D03*
X378460Y90170D02*
D03*
X185420Y91440D02*
D03*
X1083000Y75000D02*
D03*
X42700Y408900D02*
D03*
X17300Y459700D02*
D03*
X42700Y510500D02*
D03*
X1057600Y180400D02*
D03*
X401419Y24020D02*
D03*
X1083000Y534800D02*
D03*
X784860Y292100D02*
D03*
Y266700D02*
D03*
Y241300D02*
D03*
X208620Y24000D02*
D03*
X459900Y623500D02*
D03*
X651900D02*
D03*
X843900D02*
D03*
D157*
X1057600Y409000D02*
D03*
D158*
X764000Y65000D02*
D03*
D162*
X626260Y196780D02*
D03*
X636420D02*
D03*
X714000Y311000D02*
D03*
X704000D02*
D03*
X576580Y196780D02*
D03*
X556260D02*
D03*
X566420D02*
D03*
X646580D02*
D03*
X696260D02*
D03*
X656740D02*
D03*
X586740D02*
D03*
X486410Y196780D02*
D03*
X496570D02*
D03*
X506730D02*
D03*
X516890D02*
D03*
X706420Y196780D02*
D03*
X716580D02*
D03*
X726740D02*
D03*
X762150Y128200D02*
D03*
X772310D02*
D03*
X782470D02*
D03*
X848510Y161220D02*
D03*
Y151060D02*
D03*
Y140900D02*
D03*
Y130740D02*
D03*
X990570Y310200D02*
D03*
X982568D02*
D03*
X982569Y302199D02*
D03*
X990571D02*
D03*
X874000Y374840D02*
D03*
X897680Y280000D02*
D03*
X907840D02*
D03*
X918000D02*
D03*
D163*
X941000Y417250D02*
D03*
X951500Y417250D02*
D03*
X749000Y417250D02*
D03*
X759500Y417250D02*
D03*
X557000Y417250D02*
D03*
X567500Y417250D02*
D03*
X365000Y417250D02*
D03*
X375500Y417250D02*
D03*
X280205Y476286D02*
D03*
X255600D02*
D03*
X183500Y417250D02*
D03*
X173000Y417250D02*
D03*
X106500Y489750D02*
D03*
X99500D02*
D03*
X251500D02*
D03*
X244500D02*
D03*
X237500D02*
D03*
X940410Y303070D02*
D03*
Y312230D02*
D03*
X429500Y489750D02*
D03*
X436500D02*
D03*
X443500D02*
D03*
X284500D02*
D03*
X291500D02*
D03*
X298500D02*
D03*
X447600Y476286D02*
D03*
X472205D02*
D03*
X621500Y489750D02*
D03*
X628500D02*
D03*
X635500D02*
D03*
X476500D02*
D03*
X483500D02*
D03*
X490500D02*
D03*
X639600Y476286D02*
D03*
X664205D02*
D03*
X813500Y489750D02*
D03*
X820500D02*
D03*
X827500D02*
D03*
X668500D02*
D03*
X675500D02*
D03*
X682500D02*
D03*
X831600Y476286D02*
D03*
X856205D02*
D03*
X1005500Y489750D02*
D03*
X1012500D02*
D03*
X860500D02*
D03*
X867500D02*
D03*
X874500D02*
D03*
X92500D02*
D03*
X1019500D02*
D03*
M02*
