G04 Layer_Physical_Order=3*
G04 Layer_Color=16440176*
%FSLAX44Y44*%
%MOMM*%
G71*
G01*
G75*
%ADD30R,1.5000X1.5000*%
%ADD53C,0.4000*%
%ADD55C,0.2000*%
%ADD56C,0.2500*%
%ADD57C,0.5000*%
%ADD59C,1.5000*%
%ADD60C,2.5000*%
%ADD73C,1.5000*%
%ADD74R,1.5000X1.5000*%
%ADD78C,1.0000*%
%ADD79O,2.0000X2.6000*%
%ADD80O,3.0000X4.0000*%
%ADD82C,0.6000*%
%ADD83C,0.8000*%
%ADD84C,2.0000*%
G36*
X723000Y335000D02*
X693000D01*
Y362500D01*
X723000D01*
Y335000D01*
D02*
G37*
G36*
X702000Y214333D02*
Y200000D01*
X704500Y202500D01*
X745500Y202500D01*
X763000Y202500D01*
X763000Y125039D01*
X687539D01*
X687342Y125000D01*
X685500D01*
Y2549D01*
X400811D01*
X400226Y3819D01*
X400692Y4412D01*
X407000D01*
X408756Y4761D01*
X410244Y5756D01*
X430544Y26056D01*
X431539Y27544D01*
X431888Y29300D01*
Y86439D01*
X433158Y86824D01*
X433445Y86395D01*
X435099Y85290D01*
X437050Y84902D01*
X439001Y85290D01*
X440654Y86395D01*
X441286Y87340D01*
X442813D01*
X443445Y86395D01*
X445099Y85290D01*
X447050Y84902D01*
X449001Y85290D01*
X450654Y86395D01*
X451286Y87340D01*
X452813D01*
X453445Y86395D01*
X455099Y85290D01*
X457050Y84902D01*
X459001Y85290D01*
X460654Y86395D01*
X461760Y88049D01*
X462148Y90000D01*
X461760Y91951D01*
X460654Y93605D01*
X459001Y94710D01*
X457050Y95098D01*
X455099Y94710D01*
X453445Y93605D01*
X452813Y92660D01*
X451286D01*
X450654Y93605D01*
X449001Y94710D01*
X447050Y95098D01*
X445099Y94710D01*
X443445Y93605D01*
X442813Y92660D01*
X441286D01*
X440654Y93605D01*
X439001Y94710D01*
X437050Y95098D01*
X435099Y94710D01*
X433445Y93605D01*
X433158Y93176D01*
X431888Y93561D01*
Y101364D01*
X433158Y101749D01*
X433395Y101395D01*
X435049Y100290D01*
X437000Y99902D01*
X438951Y100290D01*
X440605Y101395D01*
X441710Y103049D01*
X442098Y105000D01*
X441710Y106951D01*
X440605Y108604D01*
X439659Y109236D01*
Y110764D01*
X440605Y111395D01*
X441710Y113049D01*
X442098Y115000D01*
X441710Y116951D01*
X440605Y118604D01*
X439659Y119236D01*
Y120764D01*
X440605Y121395D01*
X441710Y123049D01*
X442098Y125000D01*
X441710Y126951D01*
X440605Y128604D01*
X439659Y129236D01*
Y130764D01*
X440605Y131395D01*
X441710Y133049D01*
X442098Y135000D01*
X441710Y136951D01*
X441448Y137342D01*
X442127Y138612D01*
X475116D01*
X475795Y137342D01*
X475280Y136571D01*
X474892Y134620D01*
X475280Y132669D01*
X476385Y131015D01*
X477330Y130383D01*
Y128856D01*
X476385Y128224D01*
X475280Y126571D01*
X474892Y124620D01*
X475280Y122669D01*
X476385Y121015D01*
X477330Y120383D01*
Y118856D01*
X476385Y118224D01*
X475280Y116571D01*
X474892Y114620D01*
X475280Y112669D01*
X476385Y111015D01*
X477330Y110383D01*
Y108856D01*
X476385Y108224D01*
X475280Y106571D01*
X474892Y104620D01*
X475280Y102669D01*
X476385Y101015D01*
X478039Y99910D01*
X479990Y99522D01*
X481940Y99910D01*
X483594Y101015D01*
X484699Y102669D01*
X485087Y104620D01*
X484699Y106571D01*
X483594Y108224D01*
X482649Y108856D01*
Y110383D01*
X483594Y111015D01*
X484699Y112669D01*
X485087Y114620D01*
X484699Y116571D01*
X483594Y118224D01*
X482649Y118856D01*
Y120383D01*
X483594Y121015D01*
X484699Y122669D01*
X485087Y124620D01*
X484699Y126571D01*
X483594Y128224D01*
X482649Y128856D01*
Y130383D01*
X483594Y131015D01*
X484699Y132669D01*
X485087Y134620D01*
X484699Y136571D01*
X484184Y137342D01*
X484863Y138612D01*
X552200D01*
X553956Y138961D01*
X555444Y139956D01*
X580900Y165412D01*
X636090D01*
X637846Y165761D01*
X639334Y166756D01*
X648498Y175920D01*
X661010D01*
Y188431D01*
X666991Y194412D01*
X682200D01*
X683956Y194761D01*
X685444Y195756D01*
X697944Y208256D01*
X698939Y209744D01*
X699288Y211500D01*
Y214288D01*
X700934Y215024D01*
X702000Y214333D01*
D02*
G37*
G36*
X938912Y189599D02*
Y132000D01*
X939261Y130244D01*
X940256Y128756D01*
X948256Y120756D01*
X949744Y119761D01*
X951500Y119412D01*
X977500D01*
X979256Y119761D01*
X980744Y120756D01*
X987644Y127655D01*
X988639Y129144D01*
X988988Y130900D01*
Y131500D01*
X997451D01*
Y49644D01*
X996181Y49388D01*
X993051Y53052D01*
X989162Y56374D01*
X984800Y59047D01*
X980073Y61005D01*
X975099Y62199D01*
X969999Y62600D01*
X964900Y62199D01*
X959925Y61005D01*
X955199Y59047D01*
X950837Y56374D01*
X946947Y53052D01*
X943625Y49162D01*
X940952Y44800D01*
X938995Y40074D01*
X937800Y35100D01*
X937399Y30000D01*
X937800Y24900D01*
X938995Y19926D01*
X940952Y15199D01*
X943625Y10838D01*
X946947Y6948D01*
X950611Y3819D01*
X950353Y2549D01*
X898322D01*
X898069Y3819D01*
X899312Y4334D01*
X902341Y6658D01*
X919071Y23388D01*
X921395Y26417D01*
X922857Y29944D01*
X923355Y33730D01*
Y47299D01*
X924512Y49463D01*
X925484Y52667D01*
X925812Y56000D01*
Y66000D01*
X925484Y69332D01*
X924512Y72537D01*
X922933Y75490D01*
X920809Y78079D01*
X918220Y80203D01*
X915267Y81782D01*
X912062Y82754D01*
X908730Y83082D01*
X905397Y82754D01*
X902193Y81782D01*
X899239Y80203D01*
X896651Y78079D01*
X894526Y75490D01*
X892948Y72537D01*
X891976Y69332D01*
X891647Y66000D01*
Y56000D01*
X891976Y52667D01*
X892948Y49463D01*
X894105Y47298D01*
Y39788D01*
X885942Y31625D01*
X831058D01*
X824000Y38683D01*
Y48505D01*
X824512Y49463D01*
X825484Y52667D01*
X825812Y56000D01*
Y66000D01*
X825484Y69332D01*
X824512Y72537D01*
X824000Y73494D01*
X824000Y132941D01*
X830030D01*
X830395Y132395D01*
X832049Y131290D01*
X834000Y130902D01*
X835951Y131290D01*
X837605Y132395D01*
X838710Y134049D01*
X839098Y136000D01*
X838710Y137951D01*
X837605Y139605D01*
X835951Y140710D01*
X834000Y141098D01*
X832049Y140710D01*
X830395Y139605D01*
X830030Y139059D01*
X824000D01*
Y140523D01*
X824902Y141125D01*
X825270Y141167D01*
X827000Y140939D01*
X828827Y141180D01*
X830530Y141885D01*
X831992Y143007D01*
X833114Y144470D01*
X833820Y146172D01*
X834060Y148000D01*
X833820Y149827D01*
X833114Y151530D01*
X831992Y152992D01*
X831507Y153365D01*
Y154635D01*
X831992Y155007D01*
X833114Y156470D01*
X833820Y158172D01*
X834060Y160000D01*
X833820Y161827D01*
X833114Y163530D01*
X831992Y164992D01*
X831507Y165365D01*
Y166635D01*
X831992Y167007D01*
X833114Y168470D01*
X833820Y170172D01*
X834060Y172000D01*
X833820Y173827D01*
X833114Y175530D01*
X831992Y176992D01*
X831507Y177365D01*
Y178635D01*
X831992Y179007D01*
X833114Y180469D01*
X833820Y182172D01*
X834060Y184000D01*
X833820Y185827D01*
X833114Y187530D01*
X831992Y188992D01*
X830530Y190114D01*
X828827Y190819D01*
X827000Y191060D01*
X825270Y190832D01*
X824902Y190874D01*
X824000Y191477D01*
Y197418D01*
X885000D01*
X887480Y197745D01*
X889791Y198702D01*
X891775Y200224D01*
X893963Y202412D01*
X926099D01*
X938912Y189599D01*
D02*
G37*
G36*
X911000Y208000D02*
X893000Y208000D01*
X893000Y230000D01*
X893000Y247000D01*
X911000D01*
X911000Y208000D01*
D02*
G37*
G36*
X821961Y191477D02*
X822000Y191280D01*
Y191079D01*
X822077Y190893D01*
X822116Y190696D01*
X822227Y190529D01*
X822304Y190344D01*
X822446Y190202D01*
X822558Y190035D01*
X822725Y189923D01*
X822867Y189781D01*
X823769Y189179D01*
X823848Y189146D01*
X823914Y189090D01*
X824213Y188995D01*
X824504Y188874D01*
X824590D01*
X824672Y188848D01*
X825040Y188806D01*
X825288Y188827D01*
X825536Y188811D01*
X827000Y189003D01*
X828295Y188833D01*
X829502Y188333D01*
X830538Y187538D01*
X831333Y186502D01*
X831833Y185295D01*
X832003Y184000D01*
X831833Y182705D01*
X831333Y181498D01*
X830538Y180462D01*
X830265Y180252D01*
X830177Y180151D01*
X830065Y180077D01*
X829917Y179855D01*
X829741Y179654D01*
X829697Y179527D01*
X829623Y179415D01*
X829571Y179154D01*
X829485Y178901D01*
X829494Y178767D01*
X829467Y178635D01*
Y177365D01*
X829494Y177233D01*
X829485Y177099D01*
X829571Y176846D01*
X829623Y176584D01*
X829697Y176473D01*
X829741Y176345D01*
X829917Y176145D01*
X830065Y175923D01*
X830177Y175848D01*
X830265Y175747D01*
X830538Y175538D01*
X831333Y174502D01*
X831833Y173295D01*
X832003Y172000D01*
X831833Y170705D01*
X831333Y169498D01*
X830538Y168462D01*
X830265Y168253D01*
X830177Y168151D01*
X830065Y168077D01*
X829917Y167855D01*
X829741Y167654D01*
X829697Y167527D01*
X829623Y167415D01*
X829571Y167153D01*
X829485Y166901D01*
X829494Y166767D01*
X829467Y166635D01*
Y165365D01*
X829494Y165233D01*
X829485Y165099D01*
X829571Y164846D01*
X829623Y164584D01*
X829697Y164473D01*
X829741Y164345D01*
X829917Y164145D01*
X830065Y163923D01*
X830177Y163848D01*
X830265Y163747D01*
X830538Y163538D01*
X831333Y162502D01*
X831833Y161295D01*
X832003Y160000D01*
X831833Y158705D01*
X831333Y157498D01*
X830538Y156462D01*
X830265Y156253D01*
X830177Y156152D01*
X830065Y156077D01*
X829917Y155855D01*
X829741Y155654D01*
X829697Y155527D01*
X829623Y155415D01*
X829571Y155154D01*
X829485Y154901D01*
X829494Y154767D01*
X829467Y154635D01*
Y153365D01*
X829494Y153233D01*
X829485Y153099D01*
X829571Y152846D01*
X829623Y152584D01*
X829697Y152472D01*
X829741Y152345D01*
X829917Y152145D01*
X830065Y151923D01*
X830177Y151848D01*
X830265Y151747D01*
X830538Y151538D01*
X831333Y150502D01*
X831833Y149295D01*
X832003Y148000D01*
X831833Y146705D01*
X831333Y145498D01*
X830538Y144462D01*
X829501Y143666D01*
X828295Y143167D01*
X827000Y142996D01*
X825536Y143189D01*
X825288Y143173D01*
X825040Y143193D01*
X824672Y143152D01*
X824590Y143125D01*
X824504D01*
X824214Y143005D01*
X823914Y142909D01*
X823848Y142854D01*
X823769Y142821D01*
X822867Y142218D01*
X822725Y142076D01*
X822558Y141965D01*
X822446Y141798D01*
X822304Y141656D01*
X822227Y141470D01*
X822116Y141303D01*
X822077Y141106D01*
X822000Y140920D01*
Y140720D01*
X821961Y140523D01*
Y139059D01*
X811267D01*
X799970Y150356D01*
X800098Y151000D01*
X799710Y152951D01*
X798605Y154605D01*
X796951Y155710D01*
X795000Y156098D01*
X793049Y155710D01*
X791395Y154605D01*
X790290Y152951D01*
X789902Y151000D01*
X790290Y149049D01*
X791395Y147395D01*
X793049Y146290D01*
X795000Y145902D01*
X795644Y146030D01*
X807837Y133837D01*
X807837Y133837D01*
X808830Y133174D01*
X810000Y132941D01*
X821961D01*
X821961Y78491D01*
X821503Y78327D01*
X820691Y78176D01*
X818220Y80203D01*
X815267Y81782D01*
X812062Y82754D01*
X808730Y83082D01*
X805397Y82754D01*
X802193Y81782D01*
X799239Y80203D01*
X796651Y78079D01*
X794526Y75490D01*
X792948Y72537D01*
X791976Y69332D01*
X791647Y66000D01*
Y56000D01*
X791976Y52667D01*
X792948Y49463D01*
X794104Y47299D01*
Y33270D01*
X794603Y29485D01*
X796064Y25958D01*
X798388Y22929D01*
X814658Y6658D01*
X817687Y4334D01*
X818931Y3819D01*
X818678Y2549D01*
X739539D01*
Y77655D01*
X764442Y102558D01*
X764884Y103220D01*
X765039Y104000D01*
X765039Y123000D01*
X764884Y123780D01*
X764724Y124020D01*
X764884Y124259D01*
X765039Y125039D01*
X765039Y197418D01*
X821961D01*
Y191477D01*
D02*
G37*
G36*
X763000Y104000D02*
X737500Y78500D01*
Y2549D01*
X687539D01*
Y123000D01*
X763000D01*
X763000Y104000D01*
D02*
G37*
G36*
X238046Y596181D02*
X236180Y595935D01*
X233869Y594978D01*
X231884Y593455D01*
X230361Y591471D01*
X229404Y589160D01*
X229078Y586680D01*
X229404Y584200D01*
X230361Y581889D01*
X231884Y579904D01*
X233869Y578382D01*
X236180Y577424D01*
X238660Y577098D01*
X241140Y577424D01*
X242319Y577913D01*
X249116Y571116D01*
X250439Y570232D01*
X252000Y569921D01*
X265250D01*
X265681Y568651D01*
X264904Y568055D01*
X263381Y566071D01*
X262424Y563760D01*
X262097Y561280D01*
X262424Y558800D01*
X263381Y556489D01*
X264904Y554504D01*
X266888Y552982D01*
X269199Y552024D01*
X271679Y551698D01*
X274159Y552024D01*
X276470Y552982D01*
X278455Y554504D01*
X279978Y556489D01*
X280935Y558800D01*
X281261Y561280D01*
X280935Y563760D01*
X279978Y566071D01*
X278455Y568055D01*
X277678Y568651D01*
X278109Y569921D01*
X290650D01*
X291081Y568651D01*
X290304Y568055D01*
X288781Y566071D01*
X287824Y563760D01*
X287498Y561280D01*
X287824Y558800D01*
X288781Y556489D01*
X290304Y554504D01*
X292288Y552982D01*
X294599Y552024D01*
X297079Y551698D01*
X299559Y552024D01*
X301870Y552982D01*
X303855Y554504D01*
X305378Y556489D01*
X306335Y558800D01*
X306661Y561280D01*
X306335Y563760D01*
X305378Y566071D01*
X303855Y568055D01*
X303078Y568651D01*
X303509Y569921D01*
X316050D01*
X316481Y568651D01*
X315704Y568055D01*
X314181Y566071D01*
X313224Y563760D01*
X312897Y561280D01*
X313224Y558800D01*
X314181Y556489D01*
X315704Y554504D01*
X317688Y552982D01*
X319999Y552024D01*
X322479Y551698D01*
X324959Y552024D01*
X327270Y552982D01*
X329255Y554504D01*
X330778Y556489D01*
X331735Y558800D01*
X332061Y561280D01*
X331735Y563760D01*
X330778Y566071D01*
X329255Y568055D01*
X328478Y568651D01*
X328909Y569921D01*
X341450D01*
X341881Y568651D01*
X341104Y568055D01*
X339581Y566071D01*
X338624Y563760D01*
X338298Y561280D01*
X338624Y558800D01*
X339581Y556489D01*
X341104Y554504D01*
X343088Y552982D01*
X345399Y552024D01*
X347879Y551698D01*
X350359Y552024D01*
X352670Y552982D01*
X354655Y554504D01*
X356178Y556489D01*
X357135Y558800D01*
X357461Y561280D01*
X357135Y563760D01*
X356178Y566071D01*
X354655Y568055D01*
X353878Y568651D01*
X354309Y569921D01*
X450670D01*
X451101Y568651D01*
X450324Y568055D01*
X448801Y566071D01*
X447844Y563760D01*
X447518Y561280D01*
X447844Y558800D01*
X448801Y556489D01*
X450324Y554504D01*
X452308Y552982D01*
X454619Y552024D01*
X457099Y551698D01*
X459579Y552024D01*
X461890Y552982D01*
X463875Y554504D01*
X465398Y556489D01*
X466355Y558800D01*
X466681Y561280D01*
X466355Y563760D01*
X465398Y566071D01*
X463875Y568055D01*
X463098Y568651D01*
X463529Y569921D01*
X476070D01*
X476501Y568651D01*
X475724Y568055D01*
X474201Y566071D01*
X473244Y563760D01*
X472918Y561280D01*
X473244Y558800D01*
X474201Y556489D01*
X475724Y554504D01*
X477708Y552982D01*
X480019Y552024D01*
X482499Y551698D01*
X484979Y552024D01*
X487290Y552982D01*
X489275Y554504D01*
X490798Y556489D01*
X491755Y558800D01*
X492081Y561280D01*
X491755Y563760D01*
X490798Y566071D01*
X489275Y568055D01*
X488498Y568651D01*
X488929Y569921D01*
X501470D01*
X501901Y568651D01*
X501124Y568055D01*
X499601Y566071D01*
X498644Y563760D01*
X498317Y561280D01*
X498644Y558800D01*
X499601Y556489D01*
X501124Y554504D01*
X503108Y552982D01*
X505419Y552024D01*
X507899Y551698D01*
X510379Y552024D01*
X512690Y552982D01*
X514675Y554504D01*
X516198Y556489D01*
X517155Y558800D01*
X517481Y561280D01*
X517155Y563760D01*
X516198Y566071D01*
X514675Y568055D01*
X513898Y568651D01*
X514329Y569921D01*
X526870D01*
X527301Y568651D01*
X526524Y568055D01*
X525001Y566071D01*
X524044Y563760D01*
X523717Y561280D01*
X524044Y558800D01*
X525001Y556489D01*
X526524Y554504D01*
X528508Y552982D01*
X530819Y552024D01*
X533299Y551698D01*
X535779Y552024D01*
X538090Y552982D01*
X540075Y554504D01*
X541598Y556489D01*
X542555Y558800D01*
X542881Y561280D01*
X542555Y563760D01*
X541598Y566071D01*
X540075Y568055D01*
X539298Y568651D01*
X539729Y569921D01*
X609499D01*
X609550Y569931D01*
X609600Y569921D01*
X636090D01*
X636521Y568651D01*
X635744Y568055D01*
X634221Y566071D01*
X633264Y563760D01*
X632938Y561280D01*
X633264Y558800D01*
X634221Y556489D01*
X635744Y554504D01*
X637728Y552982D01*
X640039Y552024D01*
X642519Y551698D01*
X644999Y552024D01*
X647310Y552982D01*
X649295Y554504D01*
X650818Y556489D01*
X651775Y558800D01*
X652101Y561280D01*
X651775Y563760D01*
X650818Y566071D01*
X649295Y568055D01*
X648518Y568651D01*
X648949Y569921D01*
X661490D01*
X661921Y568651D01*
X661144Y568055D01*
X659621Y566071D01*
X658664Y563760D01*
X658337Y561280D01*
X658664Y558800D01*
X659621Y556489D01*
X661144Y554504D01*
X663128Y552982D01*
X665439Y552024D01*
X667919Y551698D01*
X670399Y552024D01*
X672710Y552982D01*
X674695Y554504D01*
X676218Y556489D01*
X677175Y558800D01*
X677501Y561280D01*
X677175Y563760D01*
X676218Y566071D01*
X674695Y568055D01*
X673918Y568651D01*
X674349Y569921D01*
X686890D01*
X687321Y568651D01*
X686544Y568055D01*
X685021Y566071D01*
X684064Y563760D01*
X683737Y561280D01*
X684064Y558800D01*
X685021Y556489D01*
X686544Y554504D01*
X688528Y552982D01*
X690839Y552024D01*
X693319Y551698D01*
X695799Y552024D01*
X698110Y552982D01*
X700095Y554504D01*
X701618Y556489D01*
X702575Y558800D01*
X702901Y561280D01*
X702575Y563760D01*
X701618Y566071D01*
X700095Y568055D01*
X699318Y568651D01*
X699749Y569921D01*
X712290D01*
X712721Y568651D01*
X711944Y568055D01*
X710421Y566071D01*
X709464Y563760D01*
X709137Y561280D01*
X709464Y558800D01*
X710421Y556489D01*
X711944Y554504D01*
X713928Y552982D01*
X716239Y552024D01*
X718719Y551698D01*
X721199Y552024D01*
X723510Y552982D01*
X725495Y554504D01*
X727018Y556489D01*
X727975Y558800D01*
X728301Y561280D01*
X727975Y563760D01*
X727018Y566071D01*
X725495Y568055D01*
X724718Y568651D01*
X725149Y569921D01*
X793370D01*
X817536Y545756D01*
X817536Y545756D01*
X818859Y544872D01*
X820420Y544561D01*
X827266D01*
X827864Y543441D01*
X827550Y542971D01*
X827162Y541020D01*
X827550Y539069D01*
X828655Y537415D01*
X828589Y536095D01*
X824628Y532134D01*
X794628D01*
X794243Y533404D01*
X794289Y533435D01*
X795395Y535089D01*
X795783Y537040D01*
X795395Y538991D01*
X794289Y540645D01*
X792636Y541750D01*
X790685Y542138D01*
X788734Y541750D01*
X788495Y541590D01*
X788412Y541626D01*
X787465Y542430D01*
X787783Y544025D01*
X787395Y545976D01*
X786365Y547517D01*
X787395Y549059D01*
X787783Y551010D01*
X787395Y552961D01*
X786365Y554502D01*
X787395Y556044D01*
X787783Y557995D01*
X787395Y559946D01*
X786290Y561600D01*
X784636Y562705D01*
X782685Y563093D01*
X780734Y562705D01*
X779080Y561600D01*
X777975Y559946D01*
X777587Y557995D01*
X777975Y556044D01*
X779005Y554502D01*
X777975Y552961D01*
X777587Y551010D01*
X777975Y549059D01*
X779005Y547517D01*
X777975Y545976D01*
X777587Y544025D01*
X777975Y542074D01*
X778786Y540860D01*
X778248Y539899D01*
X777752Y539792D01*
X776950Y539654D01*
X775371Y540710D01*
X773420Y541098D01*
X771469Y540710D01*
X770075Y539778D01*
X768740Y540107D01*
X768283Y541032D01*
X768980Y542074D01*
X769368Y544025D01*
X768980Y545976D01*
X767950Y547517D01*
X768980Y549059D01*
X769368Y551010D01*
X768980Y552961D01*
X767880Y554606D01*
X768975Y556244D01*
X769363Y558195D01*
X768975Y560146D01*
X767869Y561800D01*
X766216Y562905D01*
X764265Y563293D01*
X762314Y562905D01*
X760660Y561800D01*
X759555Y560146D01*
X759167Y558195D01*
X759555Y556244D01*
X760654Y554599D01*
X759560Y552961D01*
X759172Y551010D01*
X759560Y549059D01*
X760590Y547517D01*
X759560Y545976D01*
X759172Y544025D01*
X759478Y542487D01*
X758421Y541666D01*
X758296Y541750D01*
X756345Y542138D01*
X754394Y541750D01*
X752740Y540645D01*
X751635Y538991D01*
X751247Y537040D01*
X751635Y535089D01*
X752740Y533435D01*
X752787Y533404D01*
X752402Y532134D01*
X694607D01*
X693929Y533404D01*
X694320Y533989D01*
X694708Y535940D01*
X694320Y537891D01*
X693214Y539544D01*
X691561Y540650D01*
X689610Y541038D01*
X687659Y540650D01*
X686005Y539544D01*
X684900Y537891D01*
X684512Y535940D01*
X684900Y533989D01*
X685291Y533404D01*
X684612Y532134D01*
X650481D01*
X649802Y533404D01*
X649901Y533552D01*
X650153Y534820D01*
Y540200D01*
X650444Y540395D01*
X651550Y542049D01*
X651938Y544000D01*
X651550Y545951D01*
X650444Y547604D01*
X648791Y548710D01*
X646840Y549098D01*
X644889Y548710D01*
X643235Y547604D01*
X642130Y545951D01*
X641742Y544000D01*
X642130Y542049D01*
X643235Y540395D01*
X643526Y540200D01*
Y536192D01*
X639468Y532134D01*
X609208D01*
X608823Y533404D01*
X608870Y533435D01*
X609975Y535089D01*
X610363Y537040D01*
X609975Y538991D01*
X608870Y540645D01*
X607216Y541750D01*
X605265Y542138D01*
X603314Y541750D01*
X603075Y541590D01*
X602992Y541626D01*
X602045Y542430D01*
X602363Y544025D01*
X601975Y545976D01*
X600945Y547517D01*
X601975Y549059D01*
X602363Y551010D01*
X601975Y552961D01*
X600945Y554502D01*
X601975Y556044D01*
X602363Y557995D01*
X601975Y559946D01*
X600869Y561600D01*
X599216Y562705D01*
X597265Y563093D01*
X595314Y562705D01*
X593660Y561600D01*
X592555Y559946D01*
X592167Y557995D01*
X592555Y556044D01*
X593585Y554502D01*
X592555Y552961D01*
X592167Y551010D01*
X592555Y549059D01*
X593585Y547517D01*
X592555Y545976D01*
X592167Y544025D01*
X592555Y542074D01*
X593366Y540860D01*
X592828Y539899D01*
X592332Y539792D01*
X591530Y539654D01*
X589951Y540710D01*
X588000Y541098D01*
X586049Y540710D01*
X584655Y539778D01*
X583320Y540107D01*
X582863Y541032D01*
X583560Y542074D01*
X583948Y544025D01*
X583560Y545976D01*
X582530Y547517D01*
X583560Y549059D01*
X583948Y551010D01*
X583560Y552961D01*
X582460Y554606D01*
X583555Y556244D01*
X583943Y558195D01*
X583555Y560146D01*
X582449Y561800D01*
X580796Y562905D01*
X578845Y563293D01*
X576894Y562905D01*
X575240Y561800D01*
X574135Y560146D01*
X573747Y558195D01*
X574135Y556244D01*
X575234Y554599D01*
X574140Y552961D01*
X573752Y551010D01*
X574140Y549059D01*
X575170Y547517D01*
X574140Y545976D01*
X573752Y544025D01*
X574058Y542487D01*
X573001Y541666D01*
X572876Y541750D01*
X570925Y542138D01*
X568974Y541750D01*
X567320Y540645D01*
X566215Y538991D01*
X565827Y537040D01*
X566215Y535089D01*
X567320Y533435D01*
X567367Y533404D01*
X566982Y532134D01*
X509188D01*
X508509Y533404D01*
X508900Y533989D01*
X509288Y535940D01*
X508900Y537891D01*
X507794Y539544D01*
X506141Y540650D01*
X504190Y541038D01*
X502239Y540650D01*
X500585Y539544D01*
X499480Y537891D01*
X499092Y535940D01*
X499480Y533989D01*
X499871Y533404D01*
X499192Y532134D01*
X465061D01*
X464382Y533404D01*
X464481Y533552D01*
X464733Y534820D01*
Y540200D01*
X465024Y540395D01*
X466130Y542049D01*
X466518Y544000D01*
X466130Y545951D01*
X465024Y547604D01*
X463371Y548710D01*
X461420Y549098D01*
X459469Y548710D01*
X457815Y547604D01*
X456710Y545951D01*
X456322Y544000D01*
X456710Y542049D01*
X457815Y540395D01*
X458106Y540200D01*
Y536192D01*
X454048Y532134D01*
X423788D01*
X423403Y533404D01*
X423450Y533435D01*
X424555Y535089D01*
X424943Y537040D01*
X424555Y538991D01*
X423450Y540645D01*
X421796Y541750D01*
X419845Y542138D01*
X417894Y541750D01*
X417655Y541590D01*
X417572Y541626D01*
X416625Y542430D01*
X416943Y544025D01*
X416555Y545976D01*
X415525Y547517D01*
X416555Y549059D01*
X416943Y551010D01*
X416555Y552961D01*
X415525Y554502D01*
X416555Y556044D01*
X416943Y557995D01*
X416555Y559946D01*
X415449Y561600D01*
X413796Y562705D01*
X411845Y563093D01*
X409894Y562705D01*
X408240Y561600D01*
X407135Y559946D01*
X406747Y557995D01*
X407135Y556044D01*
X408165Y554502D01*
X407135Y552961D01*
X406747Y551010D01*
X407135Y549059D01*
X408165Y547517D01*
X407135Y545976D01*
X406747Y544025D01*
X407135Y542074D01*
X408009Y540765D01*
X407359Y539660D01*
X406105Y539604D01*
X404451Y540710D01*
X402500Y541098D01*
X400549Y540710D01*
X399261Y539849D01*
X397897Y540223D01*
X397491Y541104D01*
X398140Y542074D01*
X398528Y544025D01*
X398140Y545976D01*
X397110Y547517D01*
X398140Y549059D01*
X398528Y551010D01*
X398140Y552961D01*
X397040Y554606D01*
X398135Y556244D01*
X398523Y558195D01*
X398135Y560146D01*
X397029Y561800D01*
X395376Y562905D01*
X393425Y563293D01*
X391474Y562905D01*
X389820Y561800D01*
X388715Y560146D01*
X388327Y558195D01*
X388715Y556244D01*
X389814Y554599D01*
X388720Y552961D01*
X388332Y551010D01*
X388720Y549059D01*
X389750Y547517D01*
X388720Y545976D01*
X388332Y544025D01*
X388638Y542487D01*
X387581Y541666D01*
X387456Y541750D01*
X385505Y542138D01*
X383554Y541750D01*
X381900Y540645D01*
X380795Y538991D01*
X380407Y537040D01*
X380795Y535089D01*
X381900Y533435D01*
X381947Y533404D01*
X381562Y532134D01*
X323767D01*
X323089Y533404D01*
X323480Y533989D01*
X323868Y535940D01*
X323480Y537891D01*
X322374Y539544D01*
X320721Y540650D01*
X318770Y541038D01*
X316819Y540650D01*
X315165Y539544D01*
X314060Y537891D01*
X313672Y535940D01*
X314060Y533989D01*
X314451Y533404D01*
X313772Y532134D01*
X279641D01*
X278962Y533404D01*
X279061Y533552D01*
X279313Y534820D01*
Y540200D01*
X279604Y540395D01*
X280710Y542049D01*
X281098Y544000D01*
X280710Y545951D01*
X279604Y547604D01*
X277951Y548710D01*
X276000Y549098D01*
X274049Y548710D01*
X272395Y547604D01*
X271290Y545951D01*
X270902Y544000D01*
X271290Y542049D01*
X272395Y540395D01*
X272686Y540200D01*
Y536192D01*
X268627Y532134D01*
X238368D01*
X237983Y533404D01*
X238029Y533435D01*
X239135Y535089D01*
X239523Y537040D01*
X239135Y538991D01*
X238029Y540645D01*
X236376Y541750D01*
X234425Y542138D01*
X232474Y541750D01*
X232235Y541590D01*
X232152Y541626D01*
X231205Y542430D01*
X231523Y544025D01*
X231135Y545976D01*
X230105Y547517D01*
X231135Y549059D01*
X231523Y551010D01*
X231135Y552961D01*
X230105Y554502D01*
X231135Y556044D01*
X231523Y557995D01*
X231135Y559946D01*
X230030Y561600D01*
X228376Y562705D01*
X226425Y563093D01*
X224474Y562705D01*
X222820Y561600D01*
X221715Y559946D01*
X221327Y557995D01*
X221715Y556044D01*
X222745Y554502D01*
X221715Y552961D01*
X221327Y551010D01*
X221715Y549059D01*
X222745Y547517D01*
X221715Y545976D01*
X221327Y544025D01*
X221715Y542074D01*
X222657Y540664D01*
X222019Y539606D01*
X220632Y539563D01*
X220604Y539604D01*
X218951Y540710D01*
X217000Y541098D01*
X215049Y540710D01*
X213861Y539916D01*
X212471Y540333D01*
X212115Y541169D01*
X212720Y542074D01*
X213108Y544025D01*
X212720Y545976D01*
X211690Y547517D01*
X212720Y549059D01*
X213108Y551010D01*
X212720Y552961D01*
X211620Y554606D01*
X212715Y556244D01*
X213103Y558195D01*
X212715Y560146D01*
X211609Y561800D01*
X209956Y562905D01*
X208005Y563293D01*
X206054Y562905D01*
X204400Y561800D01*
X203295Y560146D01*
X202907Y558195D01*
X203295Y556244D01*
X204394Y554599D01*
X203300Y552961D01*
X202912Y551010D01*
X203300Y549059D01*
X204330Y547517D01*
X203300Y545976D01*
X202912Y544025D01*
X203218Y542487D01*
X202161Y541666D01*
X202036Y541750D01*
X200085Y542138D01*
X198134Y541750D01*
X196480Y540645D01*
X195375Y538991D01*
X194987Y537040D01*
X195375Y535089D01*
X196480Y533435D01*
X196527Y533404D01*
X196142Y532134D01*
X138347D01*
X137669Y533404D01*
X138060Y533989D01*
X138448Y535940D01*
X138060Y537891D01*
X136954Y539544D01*
X135301Y540650D01*
X133350Y541038D01*
X131399Y540650D01*
X129745Y539544D01*
X128640Y537891D01*
X128252Y535940D01*
X128640Y533989D01*
X129031Y533404D01*
X128352Y532134D01*
X113530D01*
X112262Y531881D01*
X111187Y531163D01*
X94323Y514300D01*
X93980Y514368D01*
X92029Y513980D01*
X90375Y512875D01*
X89270Y511221D01*
X88882Y509270D01*
X89270Y507319D01*
X90375Y505665D01*
X92029Y504560D01*
X93980Y504172D01*
X94624Y504300D01*
X98991Y499934D01*
X98365Y498763D01*
X97790Y498877D01*
X95449Y498412D01*
X93464Y497086D01*
X92138Y495101D01*
X91672Y492760D01*
X92138Y490419D01*
X93464Y488434D01*
X93523Y488395D01*
Y487125D01*
X93464Y487085D01*
X92138Y485101D01*
X91672Y482760D01*
X92138Y480418D01*
X93382Y478558D01*
X93523Y478121D01*
Y477398D01*
X93382Y476962D01*
X92138Y475101D01*
X91672Y472760D01*
X92138Y470418D01*
X93382Y468558D01*
X93523Y468121D01*
Y467398D01*
X93382Y466962D01*
X92138Y465101D01*
X91672Y462760D01*
X92138Y460419D01*
X93382Y458558D01*
X93523Y458121D01*
Y457398D01*
X93382Y456962D01*
X92138Y455101D01*
X91672Y452760D01*
X92138Y450419D01*
X93382Y448558D01*
X93523Y448121D01*
Y447398D01*
X93382Y446962D01*
X92138Y445101D01*
X91672Y442760D01*
X92138Y440419D01*
X93464Y438434D01*
X95449Y437108D01*
X97790Y436642D01*
X100131Y437108D01*
X102116Y438434D01*
X103442Y440419D01*
X103907Y442760D01*
X103442Y445101D01*
X102198Y446962D01*
X102057Y447398D01*
Y448121D01*
X102198Y448558D01*
X103442Y450419D01*
X103907Y452760D01*
X103442Y455101D01*
X102198Y456962D01*
X102057Y457398D01*
Y458121D01*
X102198Y458558D01*
X103442Y460419D01*
X103907Y462760D01*
X103442Y465101D01*
X102198Y466962D01*
X102057Y467398D01*
Y468121D01*
X102198Y468558D01*
X103442Y470418D01*
X103907Y472760D01*
X103442Y475101D01*
X102198Y476962D01*
X102057Y477398D01*
Y478121D01*
X102198Y478558D01*
X103442Y480418D01*
X103907Y482760D01*
X103442Y485101D01*
X102116Y487085D01*
X102057Y487125D01*
Y488395D01*
X102116Y488434D01*
X103442Y490419D01*
X103907Y492760D01*
X103793Y493335D01*
X104964Y493961D01*
X111441Y487483D01*
Y448000D01*
X111441Y448000D01*
X111674Y446830D01*
X112337Y445837D01*
X163001Y395173D01*
X162515Y394000D01*
X158950D01*
X155850Y390900D01*
X152750Y394000D01*
X146250D01*
X143000Y390750D01*
Y382250D01*
X146250Y379000D01*
X152750D01*
X155850Y382100D01*
X158950Y379000D01*
X165450D01*
X168700Y382250D01*
Y387815D01*
X169873Y388301D01*
X171030Y387144D01*
X170902Y386500D01*
X171290Y384549D01*
X172395Y382895D01*
X174049Y381790D01*
X176000Y381402D01*
X177951Y381790D01*
X179605Y382895D01*
X180710Y384549D01*
X181098Y386500D01*
X180959Y387198D01*
X181000Y388402D01*
X181881Y388577D01*
X182951Y388790D01*
X184605Y389895D01*
X185710Y391549D01*
X186098Y393500D01*
X185710Y395451D01*
X184605Y397105D01*
X182951Y398210D01*
X181752Y398448D01*
X181710Y398549D01*
X182098Y400500D01*
X181710Y402451D01*
X180605Y404105D01*
X180569Y404128D01*
X180254Y405867D01*
X180710Y406549D01*
X181098Y408500D01*
X180710Y410451D01*
X179605Y412105D01*
X177951Y413210D01*
X176000Y413598D01*
X174049Y413210D01*
X172395Y412105D01*
X171290Y410451D01*
X171133Y409658D01*
X169754Y409240D01*
X163613Y415381D01*
Y422040D01*
X164787Y422527D01*
X170606Y416707D01*
X171681Y415989D01*
X172950Y415736D01*
X187159D01*
X189388Y413507D01*
X190463Y412788D01*
X191731Y412536D01*
X194278D01*
X197470Y409343D01*
X197402Y409000D01*
X197790Y407049D01*
X198895Y405395D01*
X200549Y404290D01*
X202500Y403902D01*
X204451Y404290D01*
X206105Y405395D01*
X207210Y407049D01*
X207598Y409000D01*
X207210Y410951D01*
X206105Y412605D01*
X204451Y413710D01*
X202500Y414098D01*
X202157Y414030D01*
X200690Y415496D01*
X201316Y416667D01*
X202545Y416422D01*
X204886Y416888D01*
X206870Y418214D01*
X208197Y420199D01*
X208662Y422540D01*
X208197Y424881D01*
X206870Y426865D01*
X206415Y427170D01*
Y428440D01*
X206870Y428744D01*
X208197Y430729D01*
X208662Y433070D01*
X208197Y435411D01*
X206870Y437396D01*
X205934Y438021D01*
Y439549D01*
X206870Y440174D01*
X208197Y442159D01*
X208662Y444500D01*
X208197Y446841D01*
X206870Y448826D01*
X205934Y449451D01*
Y450979D01*
X206870Y451604D01*
X208197Y453589D01*
X208662Y455930D01*
X208197Y458271D01*
X206870Y460256D01*
X206586Y460446D01*
Y461716D01*
X206870Y461907D01*
X208197Y463891D01*
X208662Y466232D01*
X208197Y468573D01*
X206953Y470434D01*
X206812Y470871D01*
Y471594D01*
X206953Y472030D01*
X208197Y473891D01*
X208662Y476232D01*
X208197Y478573D01*
X206870Y480558D01*
X204886Y481884D01*
X202545Y482350D01*
X200204Y481884D01*
X198219Y480558D01*
X196893Y478573D01*
X196427Y476232D01*
X196893Y473891D01*
X198136Y472030D01*
X198278Y471594D01*
Y470871D01*
X198136Y470434D01*
X196893Y468573D01*
X196427Y466232D01*
X196893Y463891D01*
X198219Y461907D01*
X198504Y461716D01*
Y460446D01*
X198219Y460256D01*
X196893Y458271D01*
X196427Y455930D01*
X196893Y453589D01*
X198219Y451604D01*
X199155Y450979D01*
Y449451D01*
X198219Y448826D01*
X196893Y446841D01*
X196427Y444500D01*
X196893Y442159D01*
X198219Y440174D01*
X199155Y439549D01*
Y438021D01*
X198219Y437396D01*
X196893Y435411D01*
X196427Y433070D01*
X196893Y430729D01*
X198219Y428744D01*
X198675Y428440D01*
Y427170D01*
X198219Y426865D01*
X196893Y424881D01*
X196427Y422540D01*
X196893Y420199D01*
X196119Y419070D01*
X195650Y419163D01*
X193104D01*
X190874Y421393D01*
X189799Y422111D01*
X188531Y422364D01*
X174322D01*
X168313Y428372D01*
Y493495D01*
X168061Y494763D01*
X167343Y495838D01*
X154212Y508969D01*
X154280Y509313D01*
X153957Y510936D01*
X154673Y512206D01*
X224585D01*
X225111Y510936D01*
X216837Y502663D01*
X216174Y501670D01*
X215941Y500500D01*
X215941Y500500D01*
Y425000D01*
X215941Y425000D01*
X216174Y423829D01*
X216837Y422837D01*
X228941Y410732D01*
Y388166D01*
X228395Y387801D01*
X227290Y386147D01*
X226902Y384196D01*
X227290Y382245D01*
X228395Y380591D01*
X230049Y379486D01*
X232000Y379098D01*
X233951Y379486D01*
X235605Y380591D01*
X236710Y382245D01*
X237098Y384196D01*
X236710Y386147D01*
X235605Y387801D01*
X235059Y388166D01*
Y412000D01*
X234826Y413170D01*
X234163Y414162D01*
X234163Y414162D01*
X232993Y415332D01*
X233411Y416710D01*
X234306Y416888D01*
X236290Y418214D01*
X237616Y420199D01*
X238082Y422540D01*
X237616Y424881D01*
X236373Y426742D01*
X236231Y427178D01*
Y427901D01*
X236373Y428338D01*
X237616Y430199D01*
X238082Y432540D01*
X237616Y434881D01*
X236373Y436742D01*
X236231Y437178D01*
Y437901D01*
X236373Y438338D01*
X237616Y440199D01*
X238082Y442540D01*
X237616Y444881D01*
X236373Y446742D01*
X236231Y447178D01*
Y447901D01*
X236373Y448338D01*
X237616Y450199D01*
X238082Y452540D01*
X237616Y454881D01*
X236373Y456742D01*
X236231Y457178D01*
Y457901D01*
X236373Y458338D01*
X237616Y460199D01*
X238082Y462540D01*
X237616Y464881D01*
X236373Y466742D01*
X236231Y467178D01*
Y467901D01*
X236373Y468338D01*
X237616Y470199D01*
X238082Y472540D01*
X237616Y474881D01*
X236290Y476865D01*
X234306Y478191D01*
X231964Y478657D01*
X229623Y478191D01*
X227639Y476865D01*
X226313Y474881D01*
X225847Y472540D01*
X226313Y470199D01*
X227556Y468338D01*
X227698Y467901D01*
Y467178D01*
X227556Y466742D01*
X226313Y464881D01*
X225847Y462540D01*
X226313Y460199D01*
X227556Y458338D01*
X227698Y457901D01*
Y457178D01*
X227556Y456742D01*
X226313Y454881D01*
X225847Y452540D01*
X226313Y450199D01*
X227556Y448338D01*
X227698Y447901D01*
Y447178D01*
X227556Y446742D01*
X226313Y444881D01*
X225847Y442540D01*
X226313Y440199D01*
X227556Y438338D01*
X227698Y437901D01*
Y437178D01*
X227556Y436742D01*
X226313Y434881D01*
X225847Y432540D01*
X226313Y430199D01*
X227556Y428338D01*
X227698Y427901D01*
Y427178D01*
X227556Y426742D01*
X226313Y424881D01*
X226135Y423987D01*
X224757Y423569D01*
X222059Y426267D01*
Y499233D01*
X229037Y506211D01*
X282530D01*
X282895Y505665D01*
X284549Y504560D01*
X286500Y504172D01*
X288451Y504560D01*
X290105Y505665D01*
X291210Y507319D01*
X291598Y509270D01*
X291266Y510936D01*
X291962Y512206D01*
X295243D01*
X311293Y496157D01*
X312368Y495438D01*
X313636Y495186D01*
X326000D01*
X327268Y495438D01*
X328343Y496157D01*
X336945Y504759D01*
X337073Y504950D01*
X338207Y505708D01*
X339312Y507362D01*
X339700Y509313D01*
X339377Y510936D01*
X340093Y512206D01*
X406085D01*
X406611Y510936D01*
X398837Y503163D01*
X398174Y502170D01*
X397941Y501000D01*
X397941Y501000D01*
Y413067D01*
X392433Y407559D01*
X386470D01*
X386105Y408105D01*
X384451Y409210D01*
X382500Y409598D01*
X380549Y409210D01*
X378895Y408105D01*
X377790Y406451D01*
X377402Y404500D01*
X377790Y402549D01*
X378895Y400895D01*
X380549Y399790D01*
X382500Y399402D01*
X384451Y399790D01*
X386105Y400895D01*
X386470Y401441D01*
X393699D01*
X393699Y401441D01*
X394870Y401674D01*
X395862Y402337D01*
X403163Y409637D01*
X403163Y409637D01*
X403826Y410630D01*
X404059Y411800D01*
X404058Y411800D01*
Y499733D01*
X410537Y506211D01*
X467950D01*
X468315Y505665D01*
X469969Y504560D01*
X471920Y504172D01*
X473871Y504560D01*
X475525Y505665D01*
X476630Y507319D01*
X477018Y509270D01*
X476686Y510936D01*
X477382Y512206D01*
X480663D01*
X496713Y496157D01*
X497788Y495438D01*
X499056Y495186D01*
X511420D01*
X512688Y495438D01*
X513763Y496157D01*
X522365Y504759D01*
X522493Y504950D01*
X523627Y505708D01*
X524732Y507362D01*
X525120Y509313D01*
X524797Y510936D01*
X525513Y512206D01*
X590084D01*
X590611Y510936D01*
X584577Y504903D01*
X583914Y503910D01*
X583681Y502740D01*
X583681Y502740D01*
Y415260D01*
X583681Y415260D01*
X583914Y414089D01*
X584577Y413097D01*
X597530Y400144D01*
X597402Y399500D01*
X597790Y397549D01*
X598895Y395895D01*
X600549Y394790D01*
X602500Y394402D01*
X604451Y394790D01*
X606105Y395895D01*
X607210Y397549D01*
X607598Y399500D01*
X607210Y401451D01*
X606105Y403105D01*
X604451Y404210D01*
X602500Y404598D01*
X601856Y404470D01*
X589799Y416527D01*
Y501473D01*
X594537Y506211D01*
X653370D01*
X653735Y505665D01*
X655389Y504560D01*
X657340Y504172D01*
X659291Y504560D01*
X660945Y505665D01*
X662050Y507319D01*
X662438Y509270D01*
X662106Y510936D01*
X662802Y512206D01*
X666083D01*
X682133Y496157D01*
X683208Y495438D01*
X684476Y495186D01*
X696840D01*
X698108Y495438D01*
X699183Y496157D01*
X707785Y504759D01*
X707913Y504950D01*
X709047Y505708D01*
X710152Y507362D01*
X710540Y509313D01*
X710217Y510936D01*
X710933Y512206D01*
X775324D01*
X775851Y510936D01*
X769997Y505083D01*
X769334Y504090D01*
X769101Y502920D01*
X769101Y502920D01*
Y420367D01*
X756777Y408043D01*
X756500Y408098D01*
X754549Y407710D01*
X752895Y406605D01*
X751790Y404951D01*
X751402Y403000D01*
X751790Y401049D01*
X752895Y399395D01*
X754549Y398290D01*
X756500Y397902D01*
X758451Y398290D01*
X760105Y399395D01*
X761210Y401049D01*
X761598Y403000D01*
X761397Y404011D01*
X774323Y416937D01*
X774986Y417929D01*
X775219Y419100D01*
Y501653D01*
X779777Y506211D01*
X838790D01*
X839155Y505665D01*
X840809Y504560D01*
X842760Y504172D01*
X844711Y504560D01*
X846365Y505665D01*
X847470Y507319D01*
X847858Y509270D01*
X847526Y510936D01*
X848222Y512206D01*
X851503D01*
X867553Y496157D01*
X868628Y495438D01*
X869896Y495186D01*
X882260D01*
X883528Y495438D01*
X884603Y496157D01*
X893205Y504759D01*
X893333Y504950D01*
X894467Y505708D01*
X895572Y507362D01*
X895960Y509313D01*
X895891Y509656D01*
X897922Y511686D01*
X918400D01*
X947114Y482971D01*
X946833Y482413D01*
X946366Y481924D01*
X944225Y482350D01*
X941884Y481884D01*
X939899Y480558D01*
X938573Y478573D01*
X938107Y476232D01*
X938573Y473891D01*
X939816Y472030D01*
X939958Y471594D01*
Y470871D01*
X939816Y470434D01*
X938573Y468573D01*
X938107Y466232D01*
X938573Y463891D01*
X939899Y461907D01*
X940184Y461716D01*
Y460446D01*
X939899Y460256D01*
X938573Y458271D01*
X938107Y455930D01*
X938573Y453589D01*
X939899Y451604D01*
X940835Y450979D01*
Y449451D01*
X939899Y448826D01*
X938573Y446841D01*
X938107Y444500D01*
X938573Y442159D01*
X939899Y440174D01*
X940835Y439549D01*
Y438021D01*
X939899Y437396D01*
X938573Y435411D01*
X938107Y433070D01*
X938573Y430729D01*
X939899Y428744D01*
X940355Y428440D01*
Y427170D01*
X939899Y426865D01*
X938573Y424881D01*
X938107Y422540D01*
X938573Y420199D01*
X939899Y418214D01*
X941884Y416888D01*
X944225Y416422D01*
X946566Y416888D01*
X948550Y418214D01*
X949877Y420199D01*
X950342Y422540D01*
X949877Y424881D01*
X948550Y426865D01*
X948095Y427170D01*
Y428440D01*
X948550Y428744D01*
X949877Y430729D01*
X950342Y433070D01*
X949877Y435411D01*
X948550Y437396D01*
X947614Y438021D01*
Y439549D01*
X948550Y440174D01*
X949877Y442159D01*
X950342Y444500D01*
X949877Y446841D01*
X948550Y448826D01*
X947614Y449451D01*
Y450979D01*
X948550Y451604D01*
X949877Y453589D01*
X950342Y455930D01*
X949877Y458271D01*
X948550Y460256D01*
X948266Y460446D01*
Y461716D01*
X948550Y461907D01*
X949877Y463891D01*
X950342Y466232D01*
X949877Y468573D01*
X948633Y470434D01*
X948492Y470871D01*
Y471594D01*
X948633Y472030D01*
X949877Y473891D01*
X950342Y476232D01*
X949916Y478373D01*
X950405Y478840D01*
X950964Y479122D01*
X953197Y476889D01*
Y417489D01*
X953449Y416221D01*
X954167Y415146D01*
X965907Y403407D01*
X966982Y402689D01*
X968250Y402436D01*
X973951D01*
X974145Y402145D01*
X975799Y401040D01*
X977750Y400652D01*
X979701Y401040D01*
X981355Y402145D01*
X982460Y403799D01*
X982848Y405750D01*
X982460Y407701D01*
X981355Y409355D01*
X979701Y410460D01*
X978148Y410769D01*
X977080Y411911D01*
X977098Y412000D01*
X976710Y413951D01*
X976564Y414170D01*
Y424750D01*
X976311Y426018D01*
X975593Y427093D01*
X968513Y434173D01*
Y450459D01*
X969687Y450945D01*
X974900Y445732D01*
Y431500D01*
X993900D01*
Y450500D01*
X981667D01*
X975078Y457089D01*
Y460894D01*
X976348Y461287D01*
X977624Y459624D01*
X979609Y458102D01*
X981920Y457144D01*
X984400Y456818D01*
X986880Y457144D01*
X989191Y458102D01*
X991175Y459624D01*
X992698Y461609D01*
X993655Y463920D01*
X993982Y466400D01*
X993655Y468880D01*
X992698Y471191D01*
X991175Y473175D01*
X989191Y474698D01*
X986880Y475655D01*
X984400Y475982D01*
X981920Y475655D01*
X979609Y474698D01*
X977624Y473175D01*
X976348Y471512D01*
X975078Y471905D01*
Y486294D01*
X976348Y486687D01*
X977624Y485024D01*
X979609Y483502D01*
X981920Y482544D01*
X984400Y482218D01*
X986880Y482544D01*
X989191Y483502D01*
X991175Y485024D01*
X992698Y487009D01*
X993655Y489320D01*
X993982Y491800D01*
X993655Y494280D01*
X992698Y496591D01*
X991175Y498575D01*
X989191Y500098D01*
X986880Y501055D01*
X984400Y501382D01*
X981920Y501055D01*
X979609Y500098D01*
X977624Y498575D01*
X976348Y496912D01*
X975078Y497305D01*
Y498899D01*
X975078Y498899D01*
X974768Y500460D01*
X973884Y501783D01*
X962930Y512737D01*
X963346Y514115D01*
X965000Y515220D01*
X966105Y516874D01*
X966493Y518825D01*
X966105Y520775D01*
X965005Y522421D01*
X966100Y524059D01*
X966488Y526010D01*
X966100Y527961D01*
X965000Y529606D01*
X966095Y531244D01*
X966483Y533195D01*
X966095Y535146D01*
X965187Y536504D01*
X965615Y537539D01*
X965778Y537732D01*
X970000Y537399D01*
X975099Y537801D01*
X980074Y538995D01*
X984800Y540953D01*
X989162Y543625D01*
X993052Y546948D01*
X996181Y550612D01*
X997451Y550355D01*
Y133539D01*
X992480D01*
X991854Y134809D01*
X992698Y135909D01*
X993655Y138220D01*
X993982Y140700D01*
X993655Y143180D01*
X992698Y145491D01*
X991175Y147475D01*
X989191Y148998D01*
X986880Y149955D01*
X984400Y150282D01*
X981920Y149955D01*
X979609Y148998D01*
X977624Y147475D01*
X976102Y145491D01*
X975144Y143180D01*
X974818Y140700D01*
X975144Y138220D01*
X976102Y135909D01*
X977624Y133924D01*
X978734Y133073D01*
X978817Y131806D01*
X975600Y128588D01*
X953400D01*
X948088Y133900D01*
Y191500D01*
X947739Y193256D01*
X946744Y194744D01*
X931244Y210244D01*
X929756Y211239D01*
X928000Y211588D01*
X913039D01*
X913039Y247000D01*
X912884Y247780D01*
X912442Y248442D01*
X911780Y248884D01*
X911000Y249039D01*
X893000D01*
X892219Y248884D01*
X891558Y248442D01*
X891116Y247780D01*
X890960Y247000D01*
X890960Y230000D01*
Y226511D01*
X881031Y216582D01*
X831077D01*
X830478Y217702D01*
X830710Y218049D01*
X831041Y219714D01*
X831098Y220000D01*
X831969Y221095D01*
X832951Y221290D01*
X834605Y222395D01*
X835710Y224049D01*
X836098Y226000D01*
X835710Y227951D01*
X834605Y229605D01*
X832951Y230710D01*
X831000Y231098D01*
X829049Y230710D01*
X827395Y229605D01*
X826764Y228660D01*
X825236D01*
X824605Y229605D01*
X822951Y230710D01*
X821000Y231098D01*
X819049Y230710D01*
X817395Y229605D01*
X816290Y227951D01*
X815902Y226000D01*
X816290Y224049D01*
X817395Y222395D01*
X819049Y221290D01*
X819833Y221134D01*
X820902Y220000D01*
X821290Y218049D01*
X821522Y217702D01*
X820923Y216582D01*
X782975D01*
X782270Y217852D01*
X782598Y219500D01*
X782210Y221451D01*
X781105Y223104D01*
X779451Y224210D01*
X777500Y224598D01*
X775549Y224210D01*
X773895Y223104D01*
X772790Y221451D01*
X772402Y219500D01*
X772729Y217852D01*
X772025Y216582D01*
X721104D01*
Y332961D01*
X723000D01*
X723780Y333116D01*
X724442Y333558D01*
X724884Y334220D01*
X725039Y335000D01*
Y362500D01*
X724884Y363280D01*
X724442Y363942D01*
X723780Y364384D01*
X723000Y364539D01*
X693000D01*
X692220Y364384D01*
X691558Y363942D01*
X691116Y363280D01*
X690961Y362500D01*
Y353588D01*
X662500D01*
X660744Y353239D01*
X659256Y352244D01*
X627945Y320934D01*
X626951Y319446D01*
X626602Y317690D01*
Y313030D01*
X621690D01*
Y294030D01*
X640690D01*
Y313030D01*
X635778D01*
Y315789D01*
X664400Y344412D01*
X690961D01*
Y335503D01*
X690112Y334601D01*
X689777Y334444D01*
X689000Y334598D01*
X687049Y334210D01*
X686867Y334088D01*
X683633D01*
X683451Y334210D01*
X681500Y334598D01*
X679549Y334210D01*
X677895Y333105D01*
X676790Y331451D01*
X676402Y329500D01*
X676790Y327549D01*
X677895Y325895D01*
X679549Y324790D01*
X681500Y324402D01*
X683451Y324790D01*
X683633Y324912D01*
X686867D01*
X687049Y324790D01*
X687264Y324747D01*
X690112Y321899D01*
Y213400D01*
X680300Y203588D01*
X665090D01*
X663334Y203239D01*
X661846Y202244D01*
X654521Y194920D01*
X642010D01*
Y182408D01*
X634189Y174588D01*
X616186D01*
X615801Y175858D01*
X616605Y176395D01*
X617710Y178049D01*
X618098Y180000D01*
X617710Y181951D01*
X616605Y183605D01*
X614951Y184710D01*
X613000Y185098D01*
X611049Y184710D01*
X609395Y183605D01*
X608290Y181951D01*
X607902Y180000D01*
X608290Y178049D01*
X609395Y176395D01*
X610199Y175858D01*
X609814Y174588D01*
X591427D01*
X590748Y175858D01*
X591210Y176549D01*
X591598Y178500D01*
X591210Y180451D01*
X590104Y182104D01*
X588451Y183210D01*
X586500Y183598D01*
X584549Y183210D01*
X582895Y182104D01*
X581790Y180451D01*
X581402Y178500D01*
X581790Y176549D01*
X582251Y175858D01*
X581572Y174588D01*
X579000D01*
X577244Y174239D01*
X575756Y173244D01*
X550299Y147788D01*
X433500D01*
X431744Y147439D01*
X430256Y146444D01*
X426382Y142571D01*
X424912Y142897D01*
X424105Y144105D01*
X422451Y145210D01*
X420500Y145598D01*
X418549Y145210D01*
X416895Y144105D01*
X415790Y142451D01*
X415566Y141324D01*
X414159Y140737D01*
X413451Y141210D01*
X411500Y141598D01*
X409549Y141210D01*
X407895Y140105D01*
X406790Y138451D01*
X406402Y136500D01*
X406790Y134549D01*
X407895Y132895D01*
X409549Y131790D01*
X411500Y131402D01*
X413451Y131790D01*
X415105Y132895D01*
X416210Y134549D01*
X416434Y135676D01*
X417841Y136263D01*
X418549Y135790D01*
X420500Y135402D01*
X421442Y135589D01*
X422712Y134553D01*
Y31200D01*
X405099Y13588D01*
X385588D01*
X385418Y14845D01*
X387729Y15802D01*
X389714Y17325D01*
X391236Y19309D01*
X392193Y21620D01*
X392520Y24100D01*
X392193Y26580D01*
X391236Y28891D01*
X389714Y30875D01*
X387729Y32398D01*
X385418Y33356D01*
X382938Y33682D01*
X380458Y33356D01*
X378147Y32398D01*
X376163Y30875D01*
X374640Y28891D01*
X373683Y26580D01*
X373356Y24100D01*
X373683Y21620D01*
X374640Y19309D01*
X376163Y17325D01*
X378147Y15802D01*
X380458Y14845D01*
X380288Y13588D01*
X360188D01*
X360018Y14845D01*
X362329Y15802D01*
X364314Y17325D01*
X365836Y19309D01*
X366794Y21620D01*
X367120Y24100D01*
X366794Y26580D01*
X365836Y28891D01*
X364314Y30875D01*
X362329Y32398D01*
X360018Y33356D01*
X357538Y33682D01*
X355058Y33356D01*
X352747Y32398D01*
X350763Y30875D01*
X349240Y28891D01*
X348283Y26580D01*
X347956Y24100D01*
X348283Y21620D01*
X349240Y19309D01*
X350763Y17325D01*
X352747Y15802D01*
X355058Y14845D01*
X354888Y13588D01*
X334789D01*
X334618Y14845D01*
X336929Y15802D01*
X338913Y17325D01*
X340436Y19309D01*
X341394Y21620D01*
X341720Y24100D01*
X341394Y26580D01*
X340436Y28891D01*
X338913Y30875D01*
X336929Y32398D01*
X334618Y33356D01*
X332138Y33682D01*
X329658Y33356D01*
X327347Y32398D01*
X325363Y30875D01*
X323840Y28891D01*
X322883Y26580D01*
X322556Y24100D01*
X322883Y21620D01*
X323840Y19309D01*
X325363Y17325D01*
X327347Y15802D01*
X329658Y14845D01*
X329487Y13588D01*
X309389D01*
X309218Y14845D01*
X311529Y15802D01*
X313514Y17325D01*
X315036Y19309D01*
X315993Y21620D01*
X316320Y24100D01*
X315993Y26580D01*
X315036Y28891D01*
X313514Y30875D01*
X311529Y32398D01*
X309218Y33356D01*
X306738Y33682D01*
X304258Y33356D01*
X301947Y32398D01*
X299963Y30875D01*
X298440Y28891D01*
X297483Y26580D01*
X297156Y24100D01*
X297483Y21620D01*
X298440Y19309D01*
X299963Y17325D01*
X301947Y15802D01*
X304258Y14845D01*
X304088Y13588D01*
X291461D01*
X290838Y14600D01*
X290838Y14858D01*
Y33600D01*
X271838D01*
Y14858D01*
X271838Y14600D01*
X271215Y13588D01*
X243729D01*
X210499Y46817D01*
X210583Y47020D01*
X210910Y49500D01*
X210583Y51980D01*
X209626Y54291D01*
X208104Y56276D01*
X206119Y57798D01*
X203808Y58755D01*
X201328Y59082D01*
X198848Y58755D01*
X198645Y58671D01*
X175088Y82228D01*
Y90367D01*
X175210Y90549D01*
X175598Y92500D01*
X175210Y94451D01*
X174105Y96105D01*
X172451Y97210D01*
X170500Y97598D01*
X168549Y97210D01*
X166895Y96105D01*
X165790Y94451D01*
X165402Y92500D01*
X165790Y90549D01*
X165912Y90367D01*
Y80328D01*
X166261Y78572D01*
X167256Y77084D01*
X192157Y52183D01*
X192073Y51980D01*
X191746Y49500D01*
X192073Y47020D01*
X193030Y44709D01*
X194553Y42725D01*
X196537Y41202D01*
X198848Y40245D01*
X201328Y39918D01*
X203808Y40245D01*
X204011Y40329D01*
X238584Y5756D01*
X240072Y4761D01*
X241828Y4412D01*
X396992D01*
X397161Y4363D01*
X397268Y4298D01*
X397411Y3742D01*
X396601Y2549D01*
X49646D01*
X49388Y3819D01*
X53052Y6948D01*
X56374Y10838D01*
X59047Y15199D01*
X61005Y19926D01*
X62199Y24900D01*
X62600Y30000D01*
X62199Y35100D01*
X61005Y40074D01*
X59047Y44800D01*
X56374Y49162D01*
X53052Y53052D01*
X49162Y56374D01*
X44800Y59047D01*
X40074Y61005D01*
X35100Y62199D01*
X30000Y62600D01*
X24900Y62199D01*
X19926Y61005D01*
X15199Y59047D01*
X10838Y56374D01*
X6948Y53052D01*
X3819Y49388D01*
X2549Y49646D01*
Y550354D01*
X3819Y550611D01*
X6948Y546948D01*
X10838Y543625D01*
X15200Y540953D01*
X19926Y538995D01*
X24900Y537801D01*
X30000Y537399D01*
X31880Y537547D01*
X32594Y536330D01*
X32120Y535621D01*
X31732Y533670D01*
X32120Y531719D01*
X33225Y530065D01*
X34879Y528960D01*
X36830Y528572D01*
X38781Y528960D01*
X40322Y529990D01*
X41864Y528960D01*
X43815Y528572D01*
X45766Y528960D01*
X47420Y530065D01*
X48525Y531719D01*
X48913Y533670D01*
X48525Y535621D01*
X47420Y537275D01*
X45766Y538380D01*
X43815Y538768D01*
X41864Y538380D01*
X41208Y537941D01*
X41065Y538031D01*
X41185Y539455D01*
X44800Y540953D01*
X49162Y543625D01*
X53052Y546948D01*
X56374Y550838D01*
X59047Y555200D01*
X61005Y559926D01*
X62199Y564900D01*
X62600Y570000D01*
X62199Y575100D01*
X61005Y580074D01*
X59047Y584800D01*
X56374Y589162D01*
X53052Y593052D01*
X49388Y596181D01*
X49646Y597451D01*
X84818D01*
X85623Y596514D01*
Y596514D01*
D01*
X85645Y596181D01*
X85635Y596180D01*
X83779Y595935D01*
X81468Y594978D01*
X79484Y593455D01*
X77961Y591471D01*
X77004Y589160D01*
X76677Y586680D01*
X77004Y584200D01*
X77961Y581889D01*
X79484Y579904D01*
X81468Y578382D01*
X83779Y577424D01*
X86259Y577098D01*
X88739Y577424D01*
X91050Y578382D01*
X93035Y579904D01*
X94558Y581889D01*
X95515Y584200D01*
X95841Y586680D01*
X95515Y589160D01*
X94558Y591471D01*
X93035Y593455D01*
X91050Y594978D01*
X88739Y595935D01*
X86884Y596180D01*
X86874Y596181D01*
X86896Y596514D01*
X87701Y597451D01*
X110218D01*
X111023Y596514D01*
Y596514D01*
D01*
X111045Y596181D01*
X111035Y596180D01*
X109179Y595935D01*
X106868Y594978D01*
X104884Y593455D01*
X103361Y591471D01*
X102404Y589160D01*
X102078Y586680D01*
X102404Y584200D01*
X103361Y581889D01*
X104884Y579904D01*
X106868Y578382D01*
X109179Y577424D01*
X111659Y577098D01*
X114139Y577424D01*
X116450Y578382D01*
X118435Y579904D01*
X119958Y581889D01*
X120915Y584200D01*
X121241Y586680D01*
X120915Y589160D01*
X119958Y591471D01*
X118435Y593455D01*
X116450Y594978D01*
X114139Y595935D01*
X112284Y596180D01*
X112274Y596181D01*
X112296Y596514D01*
X113101Y597451D01*
X135618D01*
X136423Y596514D01*
Y596514D01*
D01*
X136445Y596181D01*
X136435Y596180D01*
X134579Y595935D01*
X132268Y594978D01*
X130284Y593455D01*
X128761Y591471D01*
X127804Y589160D01*
X127478Y586680D01*
X127804Y584200D01*
X128761Y581889D01*
X130284Y579904D01*
X132268Y578382D01*
X134579Y577424D01*
X137059Y577098D01*
X139539Y577424D01*
X141850Y578382D01*
X143835Y579904D01*
X145358Y581889D01*
X146315Y584200D01*
X146641Y586680D01*
X146315Y589160D01*
X145358Y591471D01*
X143835Y593455D01*
X141850Y594978D01*
X139539Y595935D01*
X137684Y596180D01*
X137674Y596181D01*
X137696Y596514D01*
X138501Y597451D01*
X211804D01*
X212623Y596520D01*
Y596520D01*
D01*
X212645Y596181D01*
X212635Y596180D01*
X210780Y595935D01*
X208469Y594978D01*
X206484Y593455D01*
X204961Y591471D01*
X204004Y589160D01*
X203678Y586680D01*
X204004Y584200D01*
X204961Y581889D01*
X206484Y579904D01*
X208469Y578382D01*
X210780Y577424D01*
X213260Y577098D01*
X215740Y577424D01*
X218051Y578382D01*
X220035Y579904D01*
X221558Y581889D01*
X222515Y584200D01*
X222842Y586680D01*
X222515Y589160D01*
X221558Y591471D01*
X220035Y593455D01*
X218051Y594978D01*
X215740Y595935D01*
X213884Y596180D01*
X213874Y596181D01*
X213896Y596520D01*
X214715Y597451D01*
X237962D01*
X238046Y596181D01*
D02*
G37*
%LPC*%
G36*
X650260Y144541D02*
X648899Y144362D01*
X646467Y143355D01*
X644378Y141752D01*
X642775Y139663D01*
X641767Y137230D01*
X641588Y135870D01*
X650260D01*
Y144541D01*
D02*
G37*
G36*
X756000Y146098D02*
X754049Y145710D01*
X752395Y144605D01*
X751290Y142951D01*
X750902Y141000D01*
X751290Y139049D01*
X752395Y137395D01*
X754049Y136290D01*
X756000Y135902D01*
X757951Y136290D01*
X759605Y137395D01*
X760710Y139049D01*
X761098Y141000D01*
X760710Y142951D01*
X759605Y144605D01*
X757951Y145710D01*
X756000Y146098D01*
D02*
G37*
G36*
X652760Y144541D02*
Y135870D01*
X661431D01*
X661252Y137230D01*
X660245Y139663D01*
X658642Y141752D01*
X656553Y143355D01*
X655800Y143666D01*
X654120Y144362D01*
X652760Y144541D01*
D02*
G37*
G36*
X651510Y169602D02*
X649030Y169275D01*
X646719Y168318D01*
X644734Y166795D01*
X643212Y164811D01*
X642254Y162500D01*
X641928Y160020D01*
X642254Y157540D01*
X643212Y155229D01*
X644734Y153244D01*
X646719Y151721D01*
X649030Y150764D01*
X651510Y150438D01*
X653990Y150764D01*
X656301Y151721D01*
X658285Y153244D01*
X659808Y155229D01*
X660765Y157540D01*
X660800Y157802D01*
X660886Y158454D01*
X661092Y160020D01*
X660765Y162500D01*
X659808Y164811D01*
X658285Y166795D01*
X656301Y168318D01*
X653990Y169275D01*
X651510Y169602D01*
D02*
G37*
G36*
X477050Y55000D02*
X469705D01*
X469872Y53737D01*
X471131Y50696D01*
X473135Y48085D01*
X475746Y46081D01*
X477050Y45541D01*
Y55000D01*
D02*
G37*
G36*
X517049Y75103D02*
X513917Y74691D01*
X510998Y73482D01*
X508491Y71558D01*
X506567Y69052D01*
X505358Y66132D01*
X504946Y63000D01*
Y57000D01*
X505358Y53867D01*
X506567Y50948D01*
X508491Y48441D01*
X510998Y46518D01*
X513917Y45309D01*
X517049Y44896D01*
X520182Y45309D01*
X523101Y46518D01*
X525608Y48441D01*
X527532Y50948D01*
X528741Y53867D01*
X529153Y57000D01*
Y63000D01*
X528741Y66132D01*
X527532Y69052D01*
X525608Y71558D01*
X523101Y73482D01*
X520182Y74691D01*
X517049Y75103D01*
D02*
G37*
G36*
X564394Y55000D02*
X557050D01*
Y45541D01*
X558354Y46081D01*
X560965Y48085D01*
X562968Y50696D01*
X564228Y53737D01*
X564394Y55000D01*
D02*
G37*
G36*
X547050D02*
X539705D01*
X539871Y53737D01*
X541131Y50696D01*
X543135Y48085D01*
X545746Y46081D01*
X547050Y45541D01*
Y55000D01*
D02*
G37*
G36*
X447050Y75103D02*
X443917Y74691D01*
X440998Y73482D01*
X438491Y71558D01*
X436568Y69052D01*
X435359Y66132D01*
X434946Y63000D01*
Y57000D01*
X435359Y53867D01*
X436568Y50948D01*
X438491Y48441D01*
X440998Y46518D01*
X443917Y45309D01*
X447050Y44896D01*
X450182Y45309D01*
X453101Y46518D01*
X455608Y48441D01*
X457532Y50948D01*
X458741Y53867D01*
X459153Y57000D01*
Y63000D01*
X458741Y66132D01*
X457532Y69052D01*
X455608Y71558D01*
X453101Y73482D01*
X450182Y74691D01*
X447050Y75103D01*
D02*
G37*
G36*
X494394Y55000D02*
X487050D01*
Y45541D01*
X488354Y46081D01*
X490965Y48085D01*
X492969Y50696D01*
X494228Y53737D01*
X494394Y55000D01*
D02*
G37*
G36*
X557050Y74459D02*
Y65000D01*
X564394D01*
X564228Y66263D01*
X562968Y69304D01*
X560965Y71915D01*
X558354Y73919D01*
X557050Y74459D01*
D02*
G37*
G36*
X547050D02*
X545746Y73919D01*
X543135Y71915D01*
X541131Y69304D01*
X539871Y66263D01*
X539705Y65000D01*
X547050D01*
Y74459D01*
D02*
G37*
G36*
X487050Y74459D02*
Y65000D01*
X494394D01*
X494228Y66263D01*
X492969Y69304D01*
X490965Y71915D01*
X488354Y73919D01*
X487050Y74459D01*
D02*
G37*
G36*
X615950Y69272D02*
X613470Y68945D01*
X611159Y67988D01*
X609174Y66465D01*
X607652Y64481D01*
X606694Y62170D01*
X606368Y59690D01*
X606694Y57210D01*
X607652Y54899D01*
X609174Y52915D01*
X611159Y51392D01*
X613470Y50434D01*
X615950Y50108D01*
X618430Y50434D01*
X620741Y51392D01*
X622725Y52915D01*
X624248Y54899D01*
X625205Y57210D01*
X625532Y59690D01*
X625205Y62170D01*
X624248Y64481D01*
X622725Y66465D01*
X620741Y67988D01*
X618430Y68945D01*
X615950Y69272D01*
D02*
G37*
G36*
X590550D02*
X588070Y68945D01*
X585759Y67988D01*
X583774Y66465D01*
X582252Y64481D01*
X581295Y62170D01*
X580968Y59690D01*
X581295Y57210D01*
X582252Y54899D01*
X583774Y52915D01*
X585759Y51392D01*
X588070Y50434D01*
X590550Y50108D01*
X593030Y50434D01*
X595341Y51392D01*
X597325Y52915D01*
X598848Y54899D01*
X599805Y57210D01*
X600132Y59690D01*
X599805Y62170D01*
X598848Y64481D01*
X597325Y66465D01*
X595341Y67988D01*
X593030Y68945D01*
X590550Y69272D01*
D02*
G37*
G36*
X477050Y74459D02*
X475746Y73919D01*
X473135Y71915D01*
X471131Y69304D01*
X469872Y66263D01*
X469705Y65000D01*
X477050D01*
Y74459D01*
D02*
G37*
G36*
X658730Y83082D02*
X655397Y82754D01*
X652193Y81782D01*
X649239Y80203D01*
X646651Y78079D01*
X644526Y75490D01*
X642948Y72537D01*
X641976Y69332D01*
X641647Y66000D01*
Y56000D01*
X641976Y52667D01*
X642948Y49463D01*
X644526Y46509D01*
X646651Y43921D01*
X649239Y41796D01*
X652193Y40218D01*
X655397Y39246D01*
X658730Y38918D01*
X662062Y39246D01*
X665267Y40218D01*
X668220Y41796D01*
X670809Y43921D01*
X672933Y46509D01*
X674512Y49463D01*
X675484Y52667D01*
X675812Y56000D01*
Y66000D01*
X675484Y69332D01*
X674512Y72537D01*
X672933Y75490D01*
X670809Y78079D01*
X668220Y80203D01*
X665267Y81782D01*
X662062Y82754D01*
X658730Y83082D01*
D02*
G37*
G36*
X625450Y43790D02*
X606450D01*
Y24790D01*
X625450D01*
Y43790D01*
D02*
G37*
G36*
X590550Y43872D02*
X588070Y43545D01*
X585759Y42588D01*
X583774Y41065D01*
X582252Y39081D01*
X581295Y36770D01*
X580968Y34290D01*
X581295Y31810D01*
X582252Y29499D01*
X583774Y27515D01*
X585759Y25992D01*
X588070Y25034D01*
X590550Y24708D01*
X593030Y25034D01*
X595341Y25992D01*
X597325Y27515D01*
X598848Y29499D01*
X599805Y31810D01*
X600132Y34290D01*
X599805Y36770D01*
X598848Y39081D01*
X597325Y41065D01*
X595341Y42588D01*
X593030Y43545D01*
X590550Y43872D01*
D02*
G37*
G36*
X556189Y119718D02*
X554239Y119330D01*
X552585Y118224D01*
X551480Y116571D01*
X551091Y114620D01*
X551480Y112669D01*
X552585Y111015D01*
X552761Y110897D01*
X552770Y109536D01*
X551449Y109916D01*
X550654Y111105D01*
X549001Y112210D01*
X547050Y112598D01*
X545099Y112210D01*
X543445Y111105D01*
X542340Y109451D01*
X541952Y107500D01*
X542340Y105549D01*
X543445Y103895D01*
X545099Y102790D01*
X547050Y102402D01*
X549001Y102790D01*
X550024Y103474D01*
X551426Y102938D01*
X551480Y102669D01*
X552585Y101015D01*
X554239Y99910D01*
X556189Y99522D01*
X558140Y99910D01*
X559794Y101015D01*
X560899Y102669D01*
X560980Y103075D01*
X561019Y103111D01*
X562371Y103557D01*
X563519Y102790D01*
X565470Y102402D01*
X567421Y102790D01*
X569075Y103895D01*
X570180Y105549D01*
X570568Y107500D01*
X570180Y109451D01*
X569075Y111105D01*
X567421Y112210D01*
X565470Y112598D01*
X563519Y112210D01*
X561865Y111105D01*
X560940Y109720D01*
X559835Y109354D01*
X559448Y109314D01*
X559465Y110795D01*
X559794Y111015D01*
X560899Y112669D01*
X561287Y114620D01*
X560899Y116571D01*
X559794Y118224D01*
X558140Y119330D01*
X556189Y119718D01*
D02*
G37*
G36*
X623250Y112598D02*
X621299Y112210D01*
X619645Y111105D01*
X618540Y109451D01*
X618152Y107500D01*
X618540Y105549D01*
X619645Y103895D01*
X621299Y102790D01*
X623250Y102402D01*
X625201Y102790D01*
X626854Y103895D01*
X627960Y105549D01*
X628348Y107500D01*
X627960Y109451D01*
X626854Y111105D01*
X625201Y112210D01*
X623250Y112598D01*
D02*
G37*
G36*
X518089Y119718D02*
X516139Y119330D01*
X514485Y118224D01*
X513380Y116571D01*
X512991Y114620D01*
X513380Y112669D01*
X514485Y111015D01*
X515430Y110383D01*
Y108856D01*
X514485Y108224D01*
X513380Y106571D01*
X512991Y104620D01*
X513380Y102669D01*
X514485Y101015D01*
X516139Y99910D01*
X518089Y99522D01*
X520040Y99910D01*
X521694Y101015D01*
X522799Y102669D01*
X522880Y103075D01*
X522919Y103111D01*
X524271Y103557D01*
X525419Y102790D01*
X527370Y102402D01*
X529321Y102790D01*
X530975Y103895D01*
X532080Y105549D01*
X532468Y107500D01*
X532080Y109451D01*
X530975Y111105D01*
X529321Y112210D01*
X527370Y112598D01*
X525419Y112210D01*
X523765Y111105D01*
X522840Y109720D01*
X521735Y109354D01*
X521348Y109314D01*
X521365Y110795D01*
X521694Y111015D01*
X522799Y112669D01*
X523187Y114620D01*
X522799Y116571D01*
X521694Y118224D01*
X520040Y119330D01*
X518089Y119718D01*
D02*
G37*
G36*
X594290D02*
X592339Y119330D01*
X590685Y118224D01*
X589580Y116571D01*
X589192Y114620D01*
X589580Y112669D01*
X590685Y111015D01*
X590861Y110897D01*
X590870Y109536D01*
X589549Y109916D01*
X588754Y111105D01*
X587101Y112210D01*
X585150Y112598D01*
X583199Y112210D01*
X581545Y111105D01*
X580440Y109451D01*
X580052Y107500D01*
X580440Y105549D01*
X581545Y103895D01*
X583199Y102790D01*
X585150Y102402D01*
X587101Y102790D01*
X588125Y103474D01*
X589526Y102938D01*
X589580Y102669D01*
X590685Y101015D01*
X592339Y99910D01*
X594290Y99522D01*
X596240Y99910D01*
X597894Y101015D01*
X598999Y102669D01*
X599080Y103075D01*
X599119Y103111D01*
X600471Y103557D01*
X601619Y102790D01*
X603570Y102402D01*
X605521Y102790D01*
X607175Y103895D01*
X608280Y105549D01*
X608668Y107500D01*
X608280Y109451D01*
X607175Y111105D01*
X605521Y112210D01*
X603570Y112598D01*
X601619Y112210D01*
X599965Y111105D01*
X599040Y109720D01*
X597935Y109354D01*
X597548Y109314D01*
X597565Y110795D01*
X597894Y111015D01*
X598999Y112669D01*
X599387Y114620D01*
X598999Y116571D01*
X597894Y118224D01*
X596240Y119330D01*
X594290Y119718D01*
D02*
G37*
G36*
X661432Y133370D02*
X652760D01*
Y124698D01*
X654120Y124877D01*
X656553Y125885D01*
X658642Y127488D01*
X660245Y129577D01*
X661252Y132009D01*
X661432Y133370D01*
D02*
G37*
G36*
X650260D02*
X641588D01*
X641767Y132009D01*
X642775Y129577D01*
X644378Y127488D01*
X646467Y125885D01*
X648899Y124877D01*
X650260Y124698D01*
Y133370D01*
D02*
G37*
G36*
X615950Y94672D02*
X613470Y94346D01*
X611159Y93388D01*
X609174Y91865D01*
X607652Y89881D01*
X606694Y87570D01*
X606368Y85090D01*
X606694Y82610D01*
X607652Y80299D01*
X609174Y78315D01*
X611159Y76792D01*
X613470Y75834D01*
X615950Y75508D01*
X618430Y75834D01*
X620741Y76792D01*
X622725Y78315D01*
X624248Y80299D01*
X625205Y82610D01*
X625532Y85090D01*
X625205Y87570D01*
X624248Y89881D01*
X622725Y91865D01*
X620741Y93388D01*
X618430Y94346D01*
X615950Y94672D01*
D02*
G37*
G36*
X590550D02*
X588070Y94346D01*
X585759Y93388D01*
X583774Y91865D01*
X582252Y89881D01*
X581295Y87570D01*
X580968Y85090D01*
X581295Y82610D01*
X582252Y80299D01*
X583774Y78315D01*
X585759Y76792D01*
X588070Y75834D01*
X590550Y75508D01*
X593030Y75834D01*
X595341Y76792D01*
X597325Y78315D01*
X598848Y80299D01*
X599805Y82610D01*
X600132Y85090D01*
X599805Y87570D01*
X598848Y89881D01*
X597325Y91865D01*
X595341Y93388D01*
X593030Y94346D01*
X590550Y94672D01*
D02*
G37*
G36*
X527049Y95098D02*
X525099Y94710D01*
X523445Y93605D01*
X522813Y92660D01*
X521286D01*
X520654Y93605D01*
X519000Y94710D01*
X517049Y95098D01*
X515099Y94710D01*
X513445Y93605D01*
X512813Y92660D01*
X511286D01*
X510654Y93605D01*
X509000Y94710D01*
X507049Y95098D01*
X505099Y94710D01*
X503445Y93605D01*
X502340Y91951D01*
X501951Y90000D01*
X502340Y88049D01*
X503445Y86395D01*
X505099Y85290D01*
X507049Y84902D01*
X509000Y85290D01*
X510654Y86395D01*
X511286Y87340D01*
X512813D01*
X513445Y86395D01*
X515099Y85290D01*
X517049Y84902D01*
X519000Y85290D01*
X520654Y86395D01*
X521286Y87340D01*
X522813D01*
X523445Y86395D01*
X525099Y85290D01*
X527049Y84902D01*
X529000Y85290D01*
X530654Y86395D01*
X531759Y88049D01*
X532147Y90000D01*
X531759Y91951D01*
X530654Y93605D01*
X529000Y94710D01*
X527049Y95098D01*
D02*
G37*
G36*
X876314Y56000D02*
X863730D01*
Y39229D01*
X865459Y39754D01*
X868499Y41379D01*
X871164Y43566D01*
X873351Y46230D01*
X874976Y49270D01*
X875976Y52569D01*
X876314Y56000D01*
D02*
G37*
G36*
X853730D02*
X841145D01*
X841483Y52569D01*
X842484Y49270D01*
X844109Y46230D01*
X846295Y43566D01*
X848960Y41379D01*
X852000Y39754D01*
X853730Y39229D01*
Y56000D01*
D02*
G37*
G36*
X980500Y113598D02*
X978549Y113210D01*
X976895Y112105D01*
X975790Y110451D01*
X975402Y108500D01*
X975790Y106549D01*
X976895Y104895D01*
X978549Y103790D01*
X980500Y103402D01*
X982451Y103790D01*
X984105Y104895D01*
X985210Y106549D01*
X985598Y108500D01*
X985210Y110451D01*
X984105Y112105D01*
X982451Y113210D01*
X980500Y113598D01*
D02*
G37*
G36*
X863730Y82770D02*
Y66000D01*
X876314D01*
X875976Y69430D01*
X874976Y72729D01*
X873351Y75769D01*
X871164Y78434D01*
X868499Y80621D01*
X865459Y82246D01*
X863730Y82770D01*
D02*
G37*
G36*
X853730D02*
X852000Y82246D01*
X848960Y80621D01*
X846295Y78434D01*
X844109Y75769D01*
X842484Y72729D01*
X841483Y69430D01*
X841145Y66000D01*
X853730D01*
Y82770D01*
D02*
G37*
G36*
X773000Y154098D02*
X771049Y153710D01*
X769395Y152605D01*
X768290Y150951D01*
X767902Y149000D01*
X768290Y147049D01*
X769395Y145395D01*
X771049Y144290D01*
X773000Y143902D01*
X774951Y144290D01*
X776605Y145395D01*
X777710Y147049D01*
X778098Y149000D01*
X777710Y150951D01*
X776605Y152605D01*
X774951Y153710D01*
X773000Y154098D01*
D02*
G37*
G36*
X753730Y56000D02*
X741145D01*
X741483Y52569D01*
X742484Y49270D01*
X744109Y46230D01*
X746295Y43566D01*
X748960Y41379D01*
X752000Y39754D01*
X753730Y39229D01*
Y56000D01*
D02*
G37*
G36*
X776314D02*
X763730D01*
Y39229D01*
X765459Y39754D01*
X768499Y41379D01*
X771164Y43566D01*
X773351Y46230D01*
X774976Y49270D01*
X775976Y52569D01*
X776314Y56000D01*
D02*
G37*
G36*
X763730Y82770D02*
Y66000D01*
X776314D01*
X775976Y69430D01*
X774976Y72729D01*
X773351Y75769D01*
X771164Y78434D01*
X768499Y80621D01*
X765459Y82246D01*
X763730Y82770D01*
D02*
G37*
G36*
X753730D02*
X752000Y82246D01*
X748960Y80621D01*
X746295Y78434D01*
X744109Y75769D01*
X742484Y72729D01*
X741483Y69430D01*
X741145Y66000D01*
X753730D01*
Y82770D01*
D02*
G37*
G36*
X703730D02*
X702000Y82246D01*
X698960Y80621D01*
X696295Y78434D01*
X694109Y75769D01*
X692484Y72729D01*
X691483Y69430D01*
X691145Y66000D01*
X703730D01*
Y82770D01*
D02*
G37*
G36*
Y56000D02*
X691145D01*
X691483Y52569D01*
X692484Y49270D01*
X694109Y46230D01*
X696295Y43566D01*
X698960Y41379D01*
X702000Y39754D01*
X703730Y39229D01*
Y56000D01*
D02*
G37*
G36*
X726314D02*
X713730D01*
Y39229D01*
X715459Y39754D01*
X718499Y41379D01*
X721164Y43566D01*
X723351Y46230D01*
X724976Y49270D01*
X725976Y52569D01*
X726314Y56000D01*
D02*
G37*
G36*
X713730Y82770D02*
Y66000D01*
X726314D01*
X725976Y69430D01*
X724976Y72729D01*
X723351Y75769D01*
X721164Y78434D01*
X718499Y80621D01*
X715459Y82246D01*
X713730Y82770D01*
D02*
G37*
G36*
X281500Y174598D02*
X279549Y174210D01*
X277895Y173105D01*
X276790Y171451D01*
X276402Y169500D01*
X276790Y167549D01*
X277895Y165895D01*
X279549Y164790D01*
X281500Y164402D01*
X283451Y164790D01*
X285105Y165895D01*
X286210Y167549D01*
X286598Y169500D01*
X286210Y171451D01*
X285105Y173105D01*
X283451Y174210D01*
X281500Y174598D01*
D02*
G37*
G36*
X175000Y175098D02*
X173049Y174710D01*
X171395Y173605D01*
X170290Y171951D01*
X169902Y170000D01*
X170290Y168049D01*
X171395Y166395D01*
X173049Y165290D01*
X175000Y164902D01*
X176951Y165290D01*
X178605Y166395D01*
X179710Y168049D01*
X180098Y170000D01*
X179710Y171951D01*
X178605Y173605D01*
X176951Y174710D01*
X175000Y175098D01*
D02*
G37*
G36*
X409000Y177098D02*
X407049Y176710D01*
X405395Y175605D01*
X404290Y173951D01*
X403902Y172000D01*
X404290Y170049D01*
X405395Y168395D01*
X407049Y167290D01*
X409000Y166902D01*
X410951Y167290D01*
X412605Y168395D01*
X413710Y170049D01*
X414098Y172000D01*
X413710Y173951D01*
X412605Y175605D01*
X410951Y176710D01*
X409000Y177098D01*
D02*
G37*
G36*
X163500Y169598D02*
X161549Y169210D01*
X159895Y168105D01*
X158790Y166451D01*
X158402Y164500D01*
X158790Y162549D01*
X159895Y160895D01*
X161549Y159790D01*
X163500Y159402D01*
X165451Y159790D01*
X167105Y160895D01*
X168210Y162549D01*
X168598Y164500D01*
X168210Y166451D01*
X167105Y168105D01*
X165451Y169210D01*
X163500Y169598D01*
D02*
G37*
G36*
X480000Y169098D02*
X478049Y168710D01*
X476395Y167605D01*
X475290Y165951D01*
X474902Y164000D01*
X475290Y162049D01*
X476395Y160395D01*
X478049Y159290D01*
X480000Y158902D01*
X481951Y159290D01*
X483605Y160395D01*
X484710Y162049D01*
X485098Y164000D01*
X484710Y165951D01*
X483605Y167605D01*
X481951Y168710D01*
X480000Y169098D01*
D02*
G37*
G36*
X211000Y171098D02*
X209049Y170710D01*
X207395Y169605D01*
X206290Y167951D01*
X205902Y166000D01*
X206290Y164049D01*
X207395Y162395D01*
X209049Y161290D01*
X211000Y160902D01*
X212951Y161290D01*
X214605Y162395D01*
X215710Y164049D01*
X216098Y166000D01*
X215710Y167951D01*
X214605Y169605D01*
X212951Y170710D01*
X211000Y171098D01*
D02*
G37*
G36*
X538000Y169598D02*
X536049Y169210D01*
X534395Y168105D01*
X533290Y166451D01*
X532902Y164500D01*
X533290Y162549D01*
X534395Y160895D01*
X536049Y159790D01*
X538000Y159402D01*
X539951Y159790D01*
X541605Y160895D01*
X542710Y162549D01*
X543098Y164500D01*
X542710Y166451D01*
X541605Y168105D01*
X539951Y169210D01*
X538000Y169598D01*
D02*
G37*
G36*
X364500Y175598D02*
X362549Y175210D01*
X360895Y174105D01*
X359790Y172451D01*
X359520Y171091D01*
X358298Y170039D01*
X358000Y170098D01*
X356049Y169710D01*
X354395Y168605D01*
X353290Y166951D01*
X352902Y165000D01*
X353290Y163049D01*
X354395Y161395D01*
X356049Y160290D01*
X358000Y159902D01*
X359951Y160290D01*
X361605Y161395D01*
X362710Y163049D01*
X362980Y164409D01*
X364202Y165461D01*
X364500Y165402D01*
X366451Y165790D01*
X368105Y166895D01*
X369210Y168549D01*
X369598Y170500D01*
X369210Y172451D01*
X368105Y174105D01*
X366451Y175210D01*
X364500Y175598D01*
D02*
G37*
G36*
X984400Y201082D02*
X981920Y200755D01*
X979609Y199798D01*
X977624Y198275D01*
X976102Y196291D01*
X975144Y193980D01*
X974818Y191500D01*
X975144Y189020D01*
X976102Y186709D01*
X977624Y184724D01*
X979609Y183202D01*
X981920Y182244D01*
X984400Y181918D01*
X986880Y182244D01*
X989191Y183202D01*
X991175Y184724D01*
X992698Y186709D01*
X993655Y189020D01*
X993982Y191500D01*
X993655Y193980D01*
X992698Y196291D01*
X991175Y198275D01*
X989191Y199798D01*
X986880Y200755D01*
X984400Y201082D01*
D02*
G37*
G36*
X959000D02*
X956520Y200755D01*
X954209Y199798D01*
X952224Y198275D01*
X950702Y196291D01*
X949744Y193980D01*
X949418Y191500D01*
X949744Y189020D01*
X950702Y186709D01*
X952224Y184724D01*
X954209Y183202D01*
X956520Y182244D01*
X959000Y181918D01*
X961480Y182244D01*
X963791Y183202D01*
X965775Y184724D01*
X967298Y186709D01*
X968255Y189020D01*
X968582Y191500D01*
X968255Y193980D01*
X967298Y196291D01*
X965775Y198275D01*
X963791Y199798D01*
X961480Y200755D01*
X959000Y201082D01*
D02*
G37*
G36*
X362000Y188598D02*
X360049Y188210D01*
X358395Y187105D01*
X357702Y186067D01*
X356122Y185595D01*
X355950Y185709D01*
X353999Y186098D01*
X352048Y185709D01*
X350395Y184604D01*
X349289Y182950D01*
X348901Y181000D01*
X349289Y179049D01*
X350395Y177395D01*
X352048Y176290D01*
X353999Y175902D01*
X355950Y176290D01*
X357604Y177395D01*
X358298Y178433D01*
X359877Y178905D01*
X360049Y178790D01*
X362000Y178402D01*
X363951Y178790D01*
X365605Y179895D01*
X366710Y181549D01*
X367098Y183500D01*
X366710Y185451D01*
X365605Y187105D01*
X363951Y188210D01*
X362000Y188598D01*
D02*
G37*
G36*
X58500Y194598D02*
X56549Y194210D01*
X54895Y193105D01*
X53790Y191451D01*
X53402Y189500D01*
X53790Y187549D01*
X54895Y185895D01*
X56549Y184790D01*
X58500Y184402D01*
X60451Y184790D01*
X62105Y185895D01*
X63210Y187549D01*
X63598Y189500D01*
X63210Y191451D01*
X62105Y193105D01*
X60451Y194210D01*
X58500Y194598D01*
D02*
G37*
G36*
X251500Y181598D02*
X249549Y181210D01*
X247895Y180105D01*
X246790Y178451D01*
X246402Y176500D01*
X246790Y174549D01*
X247895Y172895D01*
X249549Y171790D01*
X251500Y171402D01*
X253451Y171790D01*
X255105Y172895D01*
X256210Y174549D01*
X256598Y176500D01*
X256210Y178451D01*
X255105Y180105D01*
X253451Y181210D01*
X251500Y181598D01*
D02*
G37*
G36*
X268000Y181098D02*
X266049Y180710D01*
X264395Y179605D01*
X263290Y177951D01*
X262902Y176000D01*
X263290Y174049D01*
X264395Y172395D01*
X266049Y171290D01*
X268000Y170902D01*
X269951Y171290D01*
X271605Y172395D01*
X272710Y174049D01*
X273098Y176000D01*
X272710Y177951D01*
X271605Y179605D01*
X269951Y180710D01*
X268000Y181098D01*
D02*
G37*
G36*
X403500Y192098D02*
X401549Y191710D01*
X399895Y190605D01*
X398790Y188951D01*
X398402Y187000D01*
X398790Y185049D01*
X399895Y183395D01*
X401549Y182290D01*
X403500Y181902D01*
X405451Y182290D01*
X407105Y183395D01*
X408210Y185049D01*
X408598Y187000D01*
X408210Y188951D01*
X407105Y190605D01*
X405451Y191710D01*
X403500Y192098D01*
D02*
G37*
G36*
X276000Y190598D02*
X274049Y190210D01*
X272395Y189105D01*
X271290Y187451D01*
X270902Y185500D01*
X271290Y183549D01*
X272395Y181895D01*
X274049Y180790D01*
X276000Y180402D01*
X277951Y180790D01*
X279605Y181895D01*
X280710Y183549D01*
X281098Y185500D01*
X280710Y187451D01*
X279605Y189105D01*
X277951Y190210D01*
X276000Y190598D01*
D02*
G37*
G36*
X505500Y168598D02*
X503549Y168210D01*
X501895Y167105D01*
X500790Y165451D01*
X500402Y163500D01*
X500790Y161549D01*
X501895Y159895D01*
X503549Y158790D01*
X505500Y158402D01*
X507451Y158790D01*
X509105Y159895D01*
X510210Y161549D01*
X510598Y163500D01*
X510210Y165451D01*
X509105Y167105D01*
X507451Y168210D01*
X505500Y168598D01*
D02*
G37*
G36*
X200500Y158098D02*
X198549Y157710D01*
X196895Y156604D01*
X195790Y154951D01*
X195402Y153000D01*
X195790Y151049D01*
X196895Y149395D01*
X197304Y149121D01*
X197477Y147479D01*
X196790Y146451D01*
X196402Y144500D01*
X196790Y142549D01*
X197895Y140895D01*
X199549Y139790D01*
X201500Y139402D01*
X203451Y139790D01*
X205105Y140895D01*
X206210Y142549D01*
X206598Y144500D01*
X206210Y146451D01*
X205105Y148105D01*
X204695Y148378D01*
X204523Y150021D01*
X205210Y151049D01*
X205598Y153000D01*
X205210Y154951D01*
X204104Y156604D01*
X202451Y157710D01*
X200500Y158098D01*
D02*
G37*
G36*
X24750Y156612D02*
X13250D01*
X11006Y156166D01*
X9104Y154895D01*
X7833Y152993D01*
X7387Y150750D01*
Y143250D01*
X7833Y141006D01*
X9104Y139104D01*
X11006Y137833D01*
X13250Y137387D01*
X24750D01*
X26993Y137833D01*
X28895Y139104D01*
X30166Y141006D01*
X30612Y143250D01*
Y150750D01*
X30166Y152993D01*
X28895Y154895D01*
X26993Y156166D01*
X24750Y156612D01*
D02*
G37*
G36*
X125128Y33682D02*
X122648Y33356D01*
X120337Y32398D01*
X118353Y30875D01*
X116830Y28891D01*
X115873Y26580D01*
X115546Y24100D01*
X115873Y21620D01*
X116830Y19309D01*
X118353Y17325D01*
X120337Y15802D01*
X122648Y14845D01*
X125128Y14518D01*
X127608Y14845D01*
X129919Y15802D01*
X131903Y17325D01*
X133426Y19309D01*
X134383Y21620D01*
X134710Y24100D01*
X134383Y26580D01*
X133426Y28891D01*
X131903Y30875D01*
X129919Y32398D01*
X127608Y33356D01*
X125128Y33682D01*
D02*
G37*
G36*
X237500Y151098D02*
X235549Y150710D01*
X233895Y149605D01*
X232790Y147951D01*
X232402Y146000D01*
X232790Y144049D01*
X233895Y142395D01*
X235549Y141290D01*
X237500Y140902D01*
X239451Y141290D01*
X241105Y142395D01*
X242210Y144049D01*
X242598Y146000D01*
X242210Y147951D01*
X241105Y149605D01*
X239451Y150710D01*
X237500Y151098D01*
D02*
G37*
G36*
X386000Y141598D02*
X384049Y141210D01*
X382395Y140105D01*
X381290Y138451D01*
X380902Y136500D01*
X381290Y134549D01*
X382395Y132895D01*
X384049Y131790D01*
X386000Y131402D01*
X387951Y131790D01*
X389605Y132895D01*
X390710Y134549D01*
X391098Y136500D01*
X390710Y138451D01*
X389605Y140105D01*
X387951Y141210D01*
X386000Y141598D01*
D02*
G37*
G36*
X959000Y175682D02*
X956520Y175355D01*
X954209Y174398D01*
X952224Y172875D01*
X950702Y170891D01*
X949744Y168580D01*
X949418Y166100D01*
X949744Y163620D01*
X950702Y161309D01*
X952224Y159324D01*
X954209Y157802D01*
X956520Y156844D01*
X959000Y156518D01*
X961480Y156844D01*
X963791Y157802D01*
X965775Y159324D01*
X967298Y161309D01*
X968255Y163620D01*
X968582Y166100D01*
X968255Y168580D01*
X967298Y170891D01*
X965775Y172875D01*
X963791Y174398D01*
X961480Y175355D01*
X959000Y175682D01*
D02*
G37*
G36*
X149000Y158598D02*
X147049Y158210D01*
X145395Y157105D01*
X144290Y155451D01*
X143902Y153500D01*
X142710Y153451D01*
X141605Y155105D01*
X139951Y156210D01*
X138000Y156598D01*
X136049Y156210D01*
X134395Y155105D01*
X133290Y153451D01*
X132902Y151500D01*
X133290Y149549D01*
X134395Y147895D01*
X136049Y146790D01*
X138000Y146402D01*
X139951Y146790D01*
X141605Y147895D01*
X142710Y149549D01*
X143098Y151500D01*
X144290Y151549D01*
X145395Y149895D01*
X147049Y148790D01*
X149000Y148402D01*
X150951Y148790D01*
X152605Y149895D01*
X153710Y151549D01*
X154098Y153500D01*
X153710Y155451D01*
X152605Y157105D01*
X150951Y158210D01*
X149000Y158598D01*
D02*
G37*
G36*
X331500Y168598D02*
X329549Y168210D01*
X327895Y167105D01*
X326790Y165451D01*
X326402Y163500D01*
X326790Y161549D01*
X327895Y159895D01*
X329549Y158790D01*
X331500Y158402D01*
X333451Y158790D01*
X335105Y159895D01*
X336210Y161549D01*
X336598Y163500D01*
X336210Y165451D01*
X335105Y167105D01*
X333451Y168210D01*
X331500Y168598D01*
D02*
G37*
G36*
X984400Y175682D02*
X981920Y175355D01*
X979609Y174398D01*
X977624Y172875D01*
X976102Y170891D01*
X975144Y168580D01*
X974818Y166100D01*
X975144Y163620D01*
X976102Y161309D01*
X977624Y159324D01*
X979609Y157802D01*
X981920Y156844D01*
X984400Y156518D01*
X986880Y156844D01*
X989191Y157802D01*
X991175Y159324D01*
X992698Y161309D01*
X993655Y163620D01*
X993982Y166100D01*
X993655Y168580D01*
X992698Y170891D01*
X991175Y172875D01*
X989191Y174398D01*
X986880Y175355D01*
X984400Y175682D01*
D02*
G37*
G36*
X109000Y157098D02*
X107049Y156710D01*
X105395Y155605D01*
X104290Y153951D01*
X103902Y152000D01*
X104290Y150049D01*
X105395Y148395D01*
X107049Y147290D01*
X109000Y146902D01*
X110951Y147290D01*
X112605Y148395D01*
X113710Y150049D01*
X114098Y152000D01*
X113710Y153951D01*
X112605Y155605D01*
X110951Y156710D01*
X109000Y157098D01*
D02*
G37*
G36*
X433000Y168598D02*
X431049Y168210D01*
X429395Y167105D01*
X428290Y165451D01*
X427902Y163500D01*
X428290Y161549D01*
X429395Y159895D01*
X431049Y158790D01*
X431977Y158606D01*
X432941Y157194D01*
X432902Y157000D01*
X433290Y155049D01*
X434395Y153395D01*
X436049Y152290D01*
X438000Y151902D01*
X439951Y152290D01*
X441605Y153395D01*
X442710Y155049D01*
X443098Y157000D01*
X442710Y158951D01*
X441605Y160605D01*
X439951Y161710D01*
X439023Y161894D01*
X438059Y163306D01*
X438098Y163500D01*
X437710Y165451D01*
X436605Y167105D01*
X434951Y168210D01*
X433000Y168598D01*
D02*
G37*
G36*
X13500Y223098D02*
X11549Y222710D01*
X9895Y221605D01*
X8790Y219951D01*
X8402Y218000D01*
X8790Y216049D01*
X9895Y214395D01*
X11549Y213290D01*
X13500Y212902D01*
X15451Y213290D01*
X17105Y214395D01*
X18210Y216049D01*
X18598Y218000D01*
X18210Y219951D01*
X17105Y221605D01*
X15451Y222710D01*
X13500Y223098D01*
D02*
G37*
G36*
X203000Y223097D02*
X201049Y222710D01*
X199395Y221604D01*
X198290Y219951D01*
X197902Y218000D01*
X198290Y216049D01*
X199395Y214395D01*
X201049Y213290D01*
X203000Y212902D01*
X204951Y213290D01*
X206604Y214395D01*
X207710Y216049D01*
X208098Y218000D01*
X207710Y219951D01*
X206604Y221604D01*
X204951Y222710D01*
X203000Y223097D01*
D02*
G37*
G36*
X432900Y224198D02*
X430949Y223810D01*
X429295Y222705D01*
X428190Y221051D01*
X427802Y219100D01*
X428190Y217149D01*
X429295Y215495D01*
X430949Y214390D01*
X432900Y214002D01*
X434851Y214390D01*
X436505Y215495D01*
X437610Y217149D01*
X437998Y219100D01*
X437610Y221051D01*
X436505Y222705D01*
X434851Y223810D01*
X432900Y224198D01*
D02*
G37*
G36*
X348500Y226098D02*
X346549Y225710D01*
X344895Y224605D01*
X343790Y222951D01*
X343402Y221000D01*
X343544Y220285D01*
X343000Y219098D01*
X341049Y218710D01*
X339395Y217605D01*
X338290Y215951D01*
X337924Y214110D01*
X337760Y213727D01*
X337026Y212993D01*
X336500Y213098D01*
X334549Y212710D01*
X332895Y211605D01*
X331790Y209951D01*
X331402Y208000D01*
X331637Y206821D01*
X331534Y205905D01*
X330715Y205442D01*
X329549Y205210D01*
X327895Y204105D01*
X326790Y202451D01*
X326402Y200500D01*
X326790Y198549D01*
X327895Y196895D01*
X329549Y195790D01*
X331500Y195402D01*
X333451Y195790D01*
X335105Y196895D01*
X336210Y198549D01*
X336598Y200500D01*
X336363Y201679D01*
X336466Y202595D01*
X337285Y203058D01*
X338451Y203290D01*
X340105Y204395D01*
X341210Y206049D01*
X341576Y207890D01*
X341740Y208272D01*
X342474Y209007D01*
X343000Y208902D01*
X344951Y209290D01*
X346605Y210395D01*
X347710Y212049D01*
X348098Y214000D01*
X347956Y214715D01*
X348500Y215902D01*
X350451Y216290D01*
X352105Y217395D01*
X353210Y219049D01*
X353598Y221000D01*
X353210Y222951D01*
X352105Y224605D01*
X350451Y225710D01*
X348500Y226098D01*
D02*
G37*
G36*
X135000Y220598D02*
X133049Y220210D01*
X131395Y219105D01*
X130290Y217451D01*
X129902Y215500D01*
X130290Y213549D01*
X131395Y211895D01*
X133049Y210790D01*
X135000Y210402D01*
X135629Y210527D01*
X136527Y209629D01*
X136402Y209000D01*
X136790Y207049D01*
X137895Y205395D01*
X139549Y204290D01*
X141500Y203902D01*
X143451Y204290D01*
X145105Y205395D01*
X146210Y207049D01*
X146362Y207813D01*
X147202Y208161D01*
X147744Y208251D01*
X149500Y207902D01*
X151451Y208290D01*
X153105Y209395D01*
X154210Y211049D01*
X154598Y213000D01*
X154210Y214951D01*
X153105Y216605D01*
X151451Y217710D01*
X149500Y218098D01*
X147549Y217710D01*
X145895Y216605D01*
X144790Y214951D01*
X144638Y214187D01*
X143798Y213839D01*
X143256Y213749D01*
X141500Y214098D01*
X140871Y213973D01*
X139973Y214871D01*
X140098Y215500D01*
X139710Y217451D01*
X138605Y219105D01*
X136951Y220210D01*
X135000Y220598D01*
D02*
G37*
G36*
X984400Y226482D02*
X981920Y226155D01*
X979609Y225198D01*
X977624Y223675D01*
X976102Y221691D01*
X975144Y219380D01*
X974818Y216900D01*
X975144Y214420D01*
X976102Y212109D01*
X977624Y210124D01*
X979609Y208601D01*
X981920Y207644D01*
X984400Y207318D01*
X986880Y207644D01*
X989191Y208601D01*
X991175Y210124D01*
X992698Y212109D01*
X993655Y214420D01*
X993982Y216900D01*
X993655Y219380D01*
X992698Y221691D01*
X991175Y223675D01*
X989191Y225198D01*
X986880Y226155D01*
X984400Y226482D01*
D02*
G37*
G36*
X79500Y222598D02*
X77549Y222210D01*
X75895Y221105D01*
X74790Y219451D01*
X74402Y217500D01*
X74790Y215549D01*
X75895Y213895D01*
X77549Y212790D01*
X79500Y212402D01*
X81451Y212790D01*
X83105Y213895D01*
X84210Y215549D01*
X84598Y217500D01*
X84210Y219451D01*
X83105Y221105D01*
X81451Y222210D01*
X79500Y222598D01*
D02*
G37*
G36*
X49500D02*
X47549Y222210D01*
X45895Y221105D01*
X44790Y219451D01*
X44402Y217500D01*
X44790Y215549D01*
X45895Y213895D01*
X47549Y212790D01*
X49500Y212402D01*
X51451Y212790D01*
X53105Y213895D01*
X54210Y215549D01*
X54598Y217500D01*
X54210Y219451D01*
X53105Y221105D01*
X51451Y222210D01*
X49500Y222598D01*
D02*
G37*
G36*
X123500Y228098D02*
X121549Y227710D01*
X119895Y226605D01*
X118790Y224951D01*
X118402Y223000D01*
X118790Y221049D01*
X119895Y219395D01*
X121549Y218290D01*
X123500Y217902D01*
X125451Y218290D01*
X127105Y219395D01*
X128210Y221049D01*
X128598Y223000D01*
X128210Y224951D01*
X127105Y226605D01*
X125451Y227710D01*
X123500Y228098D01*
D02*
G37*
G36*
X135500Y240597D02*
X133549Y240209D01*
X131895Y239104D01*
X130790Y237450D01*
X130402Y235499D01*
X130790Y233549D01*
X131895Y231895D01*
X133549Y230790D01*
X135500Y230402D01*
X137451Y230790D01*
X139104Y231895D01*
X140210Y233549D01*
X140598Y235499D01*
X140210Y237450D01*
X139104Y239104D01*
X137451Y240209D01*
X135500Y240597D01*
D02*
G37*
G36*
X88000Y240098D02*
X86049Y239710D01*
X84395Y238605D01*
X83290Y236951D01*
X82902Y235000D01*
X83290Y233049D01*
X84395Y231395D01*
X86049Y230290D01*
X88000Y229902D01*
X89951Y230290D01*
X91605Y231395D01*
X92710Y233049D01*
X93098Y235000D01*
X92710Y236951D01*
X91605Y238605D01*
X89951Y239710D01*
X88000Y240098D01*
D02*
G37*
G36*
X959000Y251882D02*
X956520Y251555D01*
X954209Y250598D01*
X952224Y249075D01*
X950702Y247091D01*
X949744Y244780D01*
X949418Y242300D01*
X949744Y239820D01*
X950702Y237509D01*
X952224Y235524D01*
X954209Y234002D01*
X956520Y233044D01*
X959000Y232718D01*
X961480Y233044D01*
X963791Y234002D01*
X965775Y235524D01*
X967298Y237509D01*
X968255Y239820D01*
X968582Y242300D01*
X968255Y244780D01*
X967298Y247091D01*
X965775Y249075D01*
X963791Y250598D01*
X961480Y251555D01*
X959000Y251882D01*
D02*
G37*
G36*
X270000Y249098D02*
X268049Y248710D01*
X266395Y247605D01*
X265290Y245951D01*
X264902Y244000D01*
X265290Y242049D01*
X266395Y240395D01*
X268049Y239290D01*
X270000Y238902D01*
X271065Y237819D01*
X270902Y237000D01*
X271290Y235049D01*
X272395Y233395D01*
X274049Y232290D01*
X276000Y231902D01*
X277951Y232290D01*
X279605Y233395D01*
X280710Y235049D01*
X281098Y237000D01*
X280710Y238951D01*
X279605Y240605D01*
X277951Y241710D01*
X276000Y242098D01*
X274935Y243181D01*
X275098Y244000D01*
X274710Y245951D01*
X273605Y247605D01*
X271951Y248710D01*
X270000Y249098D01*
D02*
G37*
G36*
X329500Y231598D02*
X327549Y231210D01*
X325895Y230105D01*
X324790Y228451D01*
X324402Y226500D01*
X324790Y224549D01*
X325895Y222895D01*
X327549Y221790D01*
X329500Y221402D01*
X331451Y221790D01*
X333105Y222895D01*
X334210Y224549D01*
X334598Y226500D01*
X334210Y228451D01*
X333105Y230105D01*
X331451Y231210D01*
X329500Y231598D01*
D02*
G37*
G36*
X213000Y253097D02*
X211049Y252709D01*
X209395Y251604D01*
X208290Y249950D01*
X207902Y247999D01*
X208290Y246049D01*
X208762Y245342D01*
X208175Y243934D01*
X207049Y243710D01*
X205395Y242605D01*
X204290Y240951D01*
X203902Y239000D01*
X204290Y237049D01*
X203701Y235977D01*
X202395Y235105D01*
X201290Y233451D01*
X200902Y231500D01*
X201290Y229549D01*
X202395Y227895D01*
X204049Y226790D01*
X206000Y226402D01*
X207232Y226647D01*
X207529Y226451D01*
X208211Y225552D01*
X207902Y224000D01*
X208290Y222049D01*
X209395Y220395D01*
X211049Y219290D01*
X213000Y218902D01*
X214951Y219290D01*
X216604Y220395D01*
X217710Y222049D01*
X218097Y224000D01*
X217710Y225950D01*
X216604Y227604D01*
X214951Y228709D01*
X213000Y229097D01*
X211768Y228853D01*
X211471Y229048D01*
X210789Y229947D01*
X211098Y231500D01*
X210710Y233451D01*
X211299Y234523D01*
X212605Y235395D01*
X213710Y237049D01*
X214098Y239000D01*
X213710Y240951D01*
X213237Y241658D01*
X213824Y243066D01*
X214951Y243290D01*
X216604Y244395D01*
X217710Y246049D01*
X218097Y247999D01*
X217710Y249950D01*
X216604Y251604D01*
X214951Y252709D01*
X213000Y253097D01*
D02*
G37*
G36*
X31500Y237097D02*
X29549Y236709D01*
X27895Y235604D01*
X26790Y233950D01*
X26402Y231999D01*
X26790Y230049D01*
X27895Y228395D01*
X29549Y227290D01*
X31500Y226902D01*
X33451Y227290D01*
X35105Y228395D01*
X36210Y230049D01*
X36598Y231999D01*
X36210Y233950D01*
X35105Y235604D01*
X33451Y236709D01*
X31500Y237097D01*
D02*
G37*
G36*
X109500Y234098D02*
X107549Y233710D01*
X105895Y232605D01*
X104790Y230951D01*
X104402Y229000D01*
X104790Y227049D01*
X105895Y225395D01*
X107549Y224290D01*
X109500Y223902D01*
X111451Y224290D01*
X113105Y225395D01*
X114210Y227049D01*
X114598Y229000D01*
X114210Y230951D01*
X113105Y232605D01*
X111451Y233710D01*
X109500Y234098D01*
D02*
G37*
G36*
X257500Y212598D02*
X255549Y212210D01*
X253895Y211105D01*
X252790Y209451D01*
X252402Y207500D01*
X252790Y205549D01*
X253895Y203895D01*
X255549Y202790D01*
X257500Y202402D01*
X259451Y202790D01*
X261105Y203895D01*
X262210Y205549D01*
X262598Y207500D01*
X262210Y209451D01*
X261105Y211105D01*
X259451Y212210D01*
X257500Y212598D01*
D02*
G37*
G36*
X439000Y210098D02*
X437049Y209710D01*
X435395Y208605D01*
X434290Y206951D01*
X433902Y205000D01*
X434290Y203049D01*
X435395Y201395D01*
X437049Y200290D01*
X439000Y199902D01*
X439462Y198699D01*
X439790Y197049D01*
X440895Y195395D01*
X442549Y194290D01*
X444500Y193902D01*
X446451Y194290D01*
X448105Y195395D01*
X449210Y197049D01*
X449598Y199000D01*
X449210Y200951D01*
X448105Y202605D01*
X446451Y203710D01*
X444500Y204098D01*
X444038Y205301D01*
X443710Y206951D01*
X442605Y208605D01*
X440951Y209710D01*
X439000Y210098D01*
D02*
G37*
G36*
X492760Y224212D02*
X490280Y223885D01*
X487969Y222928D01*
X485985Y221405D01*
X484462Y219421D01*
X483504Y217110D01*
X483178Y214630D01*
X483504Y212150D01*
X484462Y209839D01*
X485985Y207854D01*
X487969Y206332D01*
X490280Y205375D01*
X492760Y205048D01*
X495240Y205375D01*
X497551Y206332D01*
X499535Y207854D01*
X501058Y209839D01*
X502015Y212150D01*
X502342Y214630D01*
X502015Y217110D01*
X501058Y219421D01*
X499535Y221405D01*
X497551Y222928D01*
X495240Y223885D01*
X492760Y224212D01*
D02*
G37*
G36*
X367000Y217598D02*
X365049Y217210D01*
X363395Y216105D01*
X362290Y214451D01*
X361902Y212500D01*
X362289Y210556D01*
X360549Y210210D01*
X358895Y209105D01*
X357790Y207451D01*
X357402Y205500D01*
X357668Y204163D01*
X356706Y203060D01*
X356515Y203098D01*
X354564Y202710D01*
X352910Y201605D01*
X351805Y199951D01*
X351417Y198000D01*
X351805Y196049D01*
X352910Y194395D01*
X354564Y193290D01*
X356515Y192902D01*
X358466Y193290D01*
X360120Y194395D01*
X361225Y196049D01*
X361613Y198000D01*
X361347Y199336D01*
X362309Y200440D01*
X362500Y200402D01*
X364451Y200790D01*
X366105Y201895D01*
X367210Y203549D01*
X367598Y205500D01*
X367211Y207444D01*
X368951Y207790D01*
X370605Y208895D01*
X371710Y210549D01*
X372098Y212500D01*
X371710Y214451D01*
X370605Y216105D01*
X368951Y217210D01*
X367000Y217598D01*
D02*
G37*
G36*
X67000Y208598D02*
X65049Y208210D01*
X63395Y207105D01*
X62290Y205451D01*
X61902Y203500D01*
X62290Y201549D01*
X63395Y199895D01*
X65049Y198790D01*
X67000Y198402D01*
X67268Y198455D01*
X68032Y197312D01*
X67790Y196951D01*
X67402Y195000D01*
X67790Y193049D01*
X68895Y191395D01*
X70549Y190290D01*
X72500Y189902D01*
X74451Y190290D01*
X76105Y191395D01*
X77210Y193049D01*
X77598Y195000D01*
X77210Y196951D01*
X76105Y198605D01*
X74451Y199710D01*
X72500Y200098D01*
X72232Y200045D01*
X71468Y201188D01*
X71710Y201549D01*
X72098Y203500D01*
X71710Y205451D01*
X70605Y207105D01*
X68951Y208210D01*
X67000Y208598D01*
D02*
G37*
G36*
X117500Y204598D02*
X115549Y204210D01*
X113895Y203105D01*
X112790Y201451D01*
X112402Y199500D01*
X112790Y197549D01*
X113895Y195895D01*
X114995Y195160D01*
Y195005D01*
X113890Y193351D01*
X113502Y191400D01*
X113890Y189449D01*
X114995Y187796D01*
X116649Y186690D01*
X118600Y186302D01*
X120551Y186690D01*
X122205Y187796D01*
X123310Y189449D01*
X123698Y191400D01*
X123310Y193351D01*
X122205Y195005D01*
X121105Y195740D01*
Y195895D01*
X122210Y197549D01*
X122598Y199500D01*
X122210Y201451D01*
X121105Y203105D01*
X119451Y204210D01*
X117500Y204598D01*
D02*
G37*
G36*
X310000Y192598D02*
X308049Y192210D01*
X306395Y191105D01*
X306105D01*
X304451Y192210D01*
X302500Y192598D01*
X300549Y192210D01*
X299750Y191676D01*
X298750Y191177D01*
X297750Y191676D01*
X296951Y192210D01*
X295000Y192598D01*
X293049Y192210D01*
X291395Y191105D01*
X290290Y189451D01*
X289902Y187500D01*
X290290Y185549D01*
X291395Y183895D01*
X293049Y182790D01*
X295000Y182402D01*
X296951Y182790D01*
X297750Y183324D01*
X298750Y183823D01*
X299750Y183324D01*
X300549Y182790D01*
X302500Y182402D01*
X304451Y182790D01*
X306105Y183895D01*
X306395D01*
X308049Y182790D01*
X310000Y182402D01*
X311951Y182790D01*
X313605Y183895D01*
X314710Y185549D01*
X315098Y187500D01*
X314710Y189451D01*
X313605Y191105D01*
X311951Y192210D01*
X310000Y192598D01*
D02*
G37*
G36*
X422500Y200098D02*
X420549Y199710D01*
X418895Y198605D01*
X417790Y196951D01*
X417402Y195000D01*
X417790Y193049D01*
X418895Y191395D01*
X420549Y190290D01*
X422500Y189902D01*
X424451Y190290D01*
X426105Y191395D01*
X427210Y193049D01*
X427598Y195000D01*
X427210Y196951D01*
X426105Y198605D01*
X424451Y199710D01*
X422500Y200098D01*
D02*
G37*
G36*
X518160Y224212D02*
X515680Y223885D01*
X513369Y222928D01*
X511385Y221405D01*
X509862Y219421D01*
X508904Y217110D01*
X508578Y214630D01*
X508904Y212150D01*
X509862Y209839D01*
X511385Y207854D01*
X513369Y206332D01*
X515680Y205375D01*
X518160Y205048D01*
X520640Y205375D01*
X522951Y206332D01*
X524935Y207854D01*
X526458Y209839D01*
X527416Y212150D01*
X527742Y214630D01*
X527416Y217110D01*
X526458Y219421D01*
X524935Y221405D01*
X522951Y222928D01*
X520640Y223885D01*
X518160Y224212D01*
D02*
G37*
G36*
X476860Y224130D02*
X457860D01*
Y205130D01*
X476860D01*
Y224130D01*
D02*
G37*
G36*
X645160Y224212D02*
X642680Y223885D01*
X640369Y222928D01*
X638385Y221405D01*
X636862Y219421D01*
X635905Y217110D01*
X635578Y214630D01*
X635905Y212150D01*
X636862Y209839D01*
X638385Y207854D01*
X640369Y206332D01*
X642680Y205375D01*
X645160Y205048D01*
X647640Y205375D01*
X649951Y206332D01*
X651936Y207854D01*
X653458Y209839D01*
X654416Y212150D01*
X654742Y214630D01*
X654416Y217110D01*
X653458Y219421D01*
X651936Y221405D01*
X649951Y222928D01*
X647640Y223885D01*
X645160Y224212D01*
D02*
G37*
G36*
X959000Y226482D02*
X956520Y226155D01*
X954209Y225198D01*
X952224Y223675D01*
X950702Y221691D01*
X949744Y219380D01*
X949418Y216900D01*
X949744Y214420D01*
X950702Y212109D01*
X952224Y210124D01*
X954209Y208601D01*
X956520Y207644D01*
X959000Y207318D01*
X961480Y207644D01*
X963791Y208601D01*
X965775Y210124D01*
X967298Y212109D01*
X968255Y214420D01*
X968582Y216900D01*
X968255Y219380D01*
X967298Y221691D01*
X965775Y223675D01*
X963791Y225198D01*
X961480Y226155D01*
X959000Y226482D01*
D02*
G37*
G36*
X218000Y216598D02*
X216049Y216210D01*
X214395Y215105D01*
X213290Y213451D01*
X212902Y211500D01*
X213290Y209549D01*
X214395Y207895D01*
X216049Y206790D01*
X218000Y206402D01*
X219951Y206790D01*
X221605Y207895D01*
X222710Y209549D01*
X223098Y211500D01*
X222710Y213451D01*
X221605Y215105D01*
X219951Y216210D01*
X218000Y216598D01*
D02*
G37*
G36*
X568960Y224212D02*
X566480Y223885D01*
X564169Y222928D01*
X562184Y221405D01*
X560662Y219421D01*
X559705Y217110D01*
X559378Y214630D01*
X559705Y212150D01*
X560662Y209839D01*
X562184Y207854D01*
X564169Y206332D01*
X566480Y205375D01*
X568960Y205048D01*
X571440Y205375D01*
X573751Y206332D01*
X575735Y207854D01*
X577258Y209839D01*
X578215Y212150D01*
X578542Y214630D01*
X578215Y217110D01*
X577258Y219421D01*
X575735Y221405D01*
X573751Y222928D01*
X571440Y223885D01*
X568960Y224212D01*
D02*
G37*
G36*
X543560D02*
X541080Y223885D01*
X538769Y222928D01*
X536785Y221405D01*
X535262Y219421D01*
X534305Y217110D01*
X533978Y214630D01*
X534305Y212150D01*
X535262Y209839D01*
X536785Y207854D01*
X538769Y206332D01*
X541080Y205375D01*
X543560Y205048D01*
X546040Y205375D01*
X548351Y206332D01*
X550335Y207854D01*
X551858Y209839D01*
X552816Y212150D01*
X553142Y214630D01*
X552816Y217110D01*
X551858Y219421D01*
X550335Y221405D01*
X548351Y222928D01*
X546040Y223885D01*
X543560Y224212D01*
D02*
G37*
G36*
X619760D02*
X617280Y223885D01*
X614969Y222928D01*
X612985Y221405D01*
X611462Y219421D01*
X610504Y217110D01*
X610178Y214630D01*
X610504Y212150D01*
X611462Y209839D01*
X612985Y207854D01*
X614969Y206332D01*
X617280Y205375D01*
X619760Y205048D01*
X622240Y205375D01*
X624551Y206332D01*
X626535Y207854D01*
X628058Y209839D01*
X629016Y212150D01*
X629342Y214630D01*
X629016Y217110D01*
X628058Y219421D01*
X626535Y221405D01*
X624551Y222928D01*
X622240Y223885D01*
X619760Y224212D01*
D02*
G37*
G36*
X594360D02*
X591880Y223885D01*
X589569Y222928D01*
X587584Y221405D01*
X586062Y219421D01*
X585104Y217110D01*
X584778Y214630D01*
X585104Y212150D01*
X586062Y209839D01*
X587584Y207854D01*
X589569Y206332D01*
X591880Y205375D01*
X594360Y205048D01*
X596840Y205375D01*
X599151Y206332D01*
X601135Y207854D01*
X602658Y209839D01*
X603615Y212150D01*
X603942Y214630D01*
X603615Y217110D01*
X602658Y219421D01*
X601135Y221405D01*
X599151Y222928D01*
X596840Y223885D01*
X594360Y224212D01*
D02*
G37*
G36*
X357538Y59082D02*
X355058Y58755D01*
X352747Y57798D01*
X350763Y56276D01*
X349240Y54291D01*
X348283Y51980D01*
X347956Y49500D01*
X348283Y47020D01*
X349240Y44709D01*
X350763Y42725D01*
X352747Y41202D01*
X355058Y40245D01*
X357538Y39918D01*
X360018Y40245D01*
X362329Y41202D01*
X364314Y42725D01*
X365836Y44709D01*
X366794Y47020D01*
X367120Y49500D01*
X366794Y51980D01*
X365836Y54291D01*
X364314Y56276D01*
X362329Y57798D01*
X360018Y58755D01*
X357538Y59082D01*
D02*
G37*
G36*
X332138D02*
X329658Y58755D01*
X327347Y57798D01*
X325363Y56276D01*
X323840Y54291D01*
X322883Y51980D01*
X322556Y49500D01*
X322883Y47020D01*
X323840Y44709D01*
X325363Y42725D01*
X327347Y41202D01*
X329658Y40245D01*
X332138Y39918D01*
X334618Y40245D01*
X336929Y41202D01*
X338913Y42725D01*
X340436Y44709D01*
X341394Y47020D01*
X341720Y49500D01*
X341394Y51980D01*
X340436Y54291D01*
X338913Y56276D01*
X336929Y57798D01*
X334618Y58755D01*
X332138Y59082D01*
D02*
G37*
G36*
X382938D02*
X380458Y58755D01*
X378147Y57798D01*
X376163Y56276D01*
X374640Y54291D01*
X373683Y51980D01*
X373356Y49500D01*
X373683Y47020D01*
X374640Y44709D01*
X376163Y42725D01*
X378147Y41202D01*
X380458Y40245D01*
X382938Y39918D01*
X385418Y40245D01*
X387729Y41202D01*
X389714Y42725D01*
X391236Y44709D01*
X392193Y47020D01*
X392520Y49500D01*
X392193Y51980D01*
X391236Y54291D01*
X389714Y56276D01*
X387729Y57798D01*
X385418Y58755D01*
X382938Y59082D01*
D02*
G37*
G36*
X254500Y72098D02*
X252549Y71710D01*
X250895Y70605D01*
X249790Y68951D01*
X249402Y67000D01*
X249790Y65049D01*
X250895Y63395D01*
X252549Y62290D01*
X254500Y61902D01*
X256451Y62290D01*
X258105Y63395D01*
X259210Y65049D01*
X259598Y67000D01*
X259210Y68951D01*
X258105Y70605D01*
X256451Y71710D01*
X254500Y72098D01*
D02*
G37*
G36*
X109228Y33600D02*
X90228D01*
Y14600D01*
X109228D01*
Y33600D01*
D02*
G37*
G36*
X201328Y33682D02*
X198848Y33356D01*
X196537Y32398D01*
X194553Y30875D01*
X193030Y28891D01*
X192073Y26580D01*
X191746Y24100D01*
X192073Y21620D01*
X193030Y19309D01*
X194553Y17325D01*
X196537Y15802D01*
X198848Y14845D01*
X201328Y14518D01*
X203808Y14845D01*
X206119Y15802D01*
X208104Y17325D01*
X209626Y19309D01*
X210583Y21620D01*
X210910Y24100D01*
X210583Y26580D01*
X209626Y28891D01*
X208104Y30875D01*
X206119Y32398D01*
X203808Y33356D01*
X201328Y33682D01*
D02*
G37*
G36*
X175928Y59082D02*
X173448Y58755D01*
X171137Y57798D01*
X169153Y56276D01*
X167630Y54291D01*
X166673Y51980D01*
X166346Y49500D01*
X166673Y47020D01*
X167630Y44709D01*
X169153Y42725D01*
X171137Y41202D01*
X173448Y40245D01*
X175928Y39918D01*
X178408Y40245D01*
X180719Y41202D01*
X182703Y42725D01*
X184226Y44709D01*
X185184Y47020D01*
X185510Y49500D01*
X185184Y51980D01*
X184226Y54291D01*
X182703Y56276D01*
X180719Y57798D01*
X178408Y58755D01*
X175928Y59082D01*
D02*
G37*
G36*
X150528D02*
X148048Y58755D01*
X145737Y57798D01*
X143753Y56276D01*
X142230Y54291D01*
X141273Y51980D01*
X140946Y49500D01*
X141273Y47020D01*
X142230Y44709D01*
X143753Y42725D01*
X145737Y41202D01*
X148048Y40245D01*
X150528Y39918D01*
X153008Y40245D01*
X155319Y41202D01*
X157303Y42725D01*
X158826Y44709D01*
X159783Y47020D01*
X160110Y49500D01*
X159783Y51980D01*
X158826Y54291D01*
X157303Y56276D01*
X155319Y57798D01*
X153008Y58755D01*
X150528Y59082D01*
D02*
G37*
G36*
X306738D02*
X304258Y58755D01*
X301947Y57798D01*
X299963Y56276D01*
X298440Y54291D01*
X297483Y51980D01*
X297156Y49500D01*
X297483Y47020D01*
X298440Y44709D01*
X299963Y42725D01*
X301947Y41202D01*
X304258Y40245D01*
X306738Y39918D01*
X309218Y40245D01*
X311529Y41202D01*
X313514Y42725D01*
X315036Y44709D01*
X315993Y47020D01*
X316320Y49500D01*
X315993Y51980D01*
X315036Y54291D01*
X313514Y56276D01*
X311529Y57798D01*
X309218Y58755D01*
X306738Y59082D01*
D02*
G37*
G36*
X281338D02*
X278858Y58755D01*
X276547Y57798D01*
X274563Y56276D01*
X273040Y54291D01*
X272083Y51980D01*
X271756Y49500D01*
X272083Y47020D01*
X273040Y44709D01*
X274563Y42725D01*
X276547Y41202D01*
X278858Y40245D01*
X281338Y39918D01*
X283818Y40245D01*
X286129Y41202D01*
X288113Y42725D01*
X289636Y44709D01*
X290593Y47020D01*
X290920Y49500D01*
X290593Y51980D01*
X289636Y54291D01*
X288113Y56276D01*
X286129Y57798D01*
X283818Y58755D01*
X281338Y59082D01*
D02*
G37*
G36*
X125128D02*
X122648Y58755D01*
X120337Y57798D01*
X118353Y56276D01*
X116830Y54291D01*
X115873Y51980D01*
X115546Y49500D01*
X115873Y47020D01*
X116830Y44709D01*
X118353Y42725D01*
X120337Y41202D01*
X122648Y40245D01*
X125128Y39918D01*
X127608Y40245D01*
X129919Y41202D01*
X131903Y42725D01*
X133426Y44709D01*
X134383Y47020D01*
X134710Y49500D01*
X134383Y51980D01*
X133426Y54291D01*
X131903Y56276D01*
X129919Y57798D01*
X127608Y58755D01*
X125128Y59082D01*
D02*
G37*
G36*
X99728D02*
X97248Y58755D01*
X94937Y57798D01*
X92953Y56276D01*
X91430Y54291D01*
X90473Y51980D01*
X90146Y49500D01*
X90473Y47020D01*
X91430Y44709D01*
X92953Y42725D01*
X94937Y41202D01*
X97248Y40245D01*
X99728Y39918D01*
X102208Y40245D01*
X104519Y41202D01*
X106503Y42725D01*
X108026Y44709D01*
X108983Y47020D01*
X109310Y49500D01*
X108983Y51980D01*
X108026Y54291D01*
X106503Y56276D01*
X104519Y57798D01*
X102208Y58755D01*
X99728Y59082D01*
D02*
G37*
G36*
X174500Y113598D02*
X172549Y113210D01*
X170895Y112105D01*
X169790Y110451D01*
X169402Y108500D01*
X169790Y106549D01*
X170895Y104895D01*
X172549Y103790D01*
X174500Y103402D01*
X176451Y103790D01*
X178105Y104895D01*
X179210Y106549D01*
X179598Y108500D01*
X179210Y110451D01*
X178105Y112105D01*
X176451Y113210D01*
X174500Y113598D01*
D02*
G37*
G36*
X360500Y116598D02*
X358549Y116210D01*
X356895Y115105D01*
X355790Y113451D01*
X355402Y111500D01*
X355790Y109549D01*
X356895Y107895D01*
X358549Y106790D01*
X360500Y106402D01*
X362451Y106790D01*
X364105Y107895D01*
X365210Y109549D01*
X365598Y111500D01*
X365210Y113451D01*
X364105Y115105D01*
X362451Y116210D01*
X360500Y116598D01*
D02*
G37*
G36*
X339000Y111098D02*
X337049Y110710D01*
X335395Y109605D01*
X334290Y107951D01*
X333902Y106000D01*
X334290Y104049D01*
X335395Y102395D01*
X337049Y101290D01*
X339000Y100902D01*
X340951Y101290D01*
X342605Y102395D01*
X343710Y104049D01*
X344098Y106000D01*
X343710Y107951D01*
X342605Y109605D01*
X340951Y110710D01*
X339000Y111098D01*
D02*
G37*
G36*
X175928Y33682D02*
X173448Y33356D01*
X171137Y32398D01*
X169153Y30875D01*
X167630Y28891D01*
X166673Y26580D01*
X166346Y24100D01*
X166673Y21620D01*
X167630Y19309D01*
X169153Y17325D01*
X171137Y15802D01*
X173448Y14845D01*
X175928Y14518D01*
X178408Y14845D01*
X180719Y15802D01*
X182703Y17325D01*
X184226Y19309D01*
X185184Y21620D01*
X185510Y24100D01*
X185184Y26580D01*
X184226Y28891D01*
X182703Y30875D01*
X180719Y32398D01*
X178408Y33356D01*
X175928Y33682D01*
D02*
G37*
G36*
X150528D02*
X148048Y33356D01*
X145737Y32398D01*
X143753Y30875D01*
X142230Y28891D01*
X141273Y26580D01*
X140946Y24100D01*
X141273Y21620D01*
X142230Y19309D01*
X143753Y17325D01*
X145737Y15802D01*
X148048Y14845D01*
X150528Y14518D01*
X153008Y14845D01*
X155319Y15802D01*
X157303Y17325D01*
X158826Y19309D01*
X159783Y21620D01*
X160110Y24100D01*
X159783Y26580D01*
X158826Y28891D01*
X157303Y30875D01*
X155319Y32398D01*
X153008Y33356D01*
X150528Y33682D01*
D02*
G37*
G36*
X959000Y150282D02*
X956520Y149955D01*
X954209Y148998D01*
X952224Y147475D01*
X950702Y145491D01*
X949744Y143180D01*
X949418Y140700D01*
X949744Y138220D01*
X950702Y135909D01*
X952224Y133924D01*
X954209Y132402D01*
X956520Y131444D01*
X959000Y131118D01*
X961480Y131444D01*
X963791Y132402D01*
X965775Y133924D01*
X967298Y135909D01*
X968255Y138220D01*
X968582Y140700D01*
X968255Y143180D01*
X967298Y145491D01*
X965775Y147475D01*
X963791Y148998D01*
X961480Y149955D01*
X959000Y150282D01*
D02*
G37*
G36*
X46000Y146330D02*
X43585Y146012D01*
X41335Y145080D01*
X39403Y143597D01*
X37920Y141665D01*
X36988Y139415D01*
X36670Y137000D01*
X36988Y134585D01*
X37920Y132335D01*
X39403Y130403D01*
X41335Y128920D01*
X43585Y127988D01*
X46000Y127670D01*
X48415Y127988D01*
X50665Y128920D01*
X52597Y130403D01*
X54080Y132335D01*
X55012Y134585D01*
X55329Y137000D01*
X55012Y139415D01*
X54080Y141665D01*
X52597Y143597D01*
X50665Y145080D01*
X48415Y146012D01*
X46000Y146330D01*
D02*
G37*
G36*
X255000Y126598D02*
X253049Y126210D01*
X251395Y125105D01*
X250290Y123451D01*
X249902Y121500D01*
X250290Y119549D01*
X251395Y117895D01*
X253049Y116790D01*
X255000Y116402D01*
X256951Y116790D01*
X258605Y117895D01*
X259710Y119549D01*
X260098Y121500D01*
X259710Y123451D01*
X258605Y125105D01*
X256951Y126210D01*
X255000Y126598D01*
D02*
G37*
G36*
X115500Y124598D02*
X113549Y124210D01*
X111895Y123105D01*
X110790Y121451D01*
X110402Y119500D01*
X110790Y117549D01*
X111895Y115895D01*
X113549Y114790D01*
X115500Y114402D01*
X117451Y114790D01*
X119105Y115895D01*
X120210Y117549D01*
X120598Y119500D01*
X120210Y121451D01*
X119105Y123105D01*
X117451Y124210D01*
X115500Y124598D01*
D02*
G37*
G36*
X366000Y128098D02*
X364049Y127710D01*
X362395Y126605D01*
X361290Y124951D01*
X360902Y123000D01*
X361290Y121049D01*
X362395Y119395D01*
X364049Y118290D01*
X366000Y117902D01*
X367951Y118290D01*
X369605Y119395D01*
X370710Y121049D01*
X371098Y123000D01*
X370710Y124951D01*
X369605Y126605D01*
X367951Y127710D01*
X366000Y128098D01*
D02*
G37*
G36*
X344780Y98210D02*
X325780D01*
Y88047D01*
X308811Y71078D01*
X279972D01*
X279269Y72348D01*
X279598Y74000D01*
X279210Y75951D01*
X278105Y77605D01*
X276451Y78710D01*
X274500Y79098D01*
X272549Y78710D01*
X270895Y77605D01*
X269790Y75951D01*
X269402Y74000D01*
X269790Y72049D01*
X270494Y70996D01*
X270868Y70327D01*
X270419Y69186D01*
X250164Y48932D01*
X249049Y48710D01*
X247395Y47605D01*
X246290Y45951D01*
X245902Y44000D01*
X246290Y42049D01*
X247395Y40395D01*
X249049Y39290D01*
X251000Y38902D01*
X252951Y39290D01*
X254605Y40395D01*
X255710Y42049D01*
X255932Y43164D01*
X275689Y62922D01*
X310500D01*
X310500Y62922D01*
X312061Y63232D01*
X313384Y64116D01*
X321858Y72591D01*
X322845Y71781D01*
X322290Y70951D01*
X321902Y69000D01*
X322290Y67049D01*
X323395Y65395D01*
X325049Y64290D01*
X327000Y63902D01*
X328951Y64290D01*
X330605Y65395D01*
X331710Y67049D01*
X332098Y69000D01*
X331710Y70951D01*
X330605Y72605D01*
X328951Y73710D01*
X327000Y74098D01*
X325049Y73710D01*
X324219Y73155D01*
X323409Y74142D01*
X328477Y79210D01*
X344780D01*
Y98210D01*
D02*
G37*
G36*
X24750Y86612D02*
X13250D01*
X11006Y86166D01*
X9104Y84895D01*
X7833Y82993D01*
X7387Y80750D01*
Y73250D01*
X7833Y71006D01*
X9104Y69104D01*
X11006Y67833D01*
X13250Y67387D01*
X24750D01*
X26993Y67833D01*
X28895Y69104D01*
X30166Y71006D01*
X30612Y73250D01*
Y80750D01*
X30166Y82993D01*
X28895Y84895D01*
X26993Y86166D01*
X24750Y86612D01*
D02*
G37*
G36*
X46000Y96330D02*
X43585Y96012D01*
X41335Y95080D01*
X39403Y93597D01*
X37920Y91665D01*
X36988Y89415D01*
X36670Y87000D01*
X36988Y84585D01*
X37920Y82335D01*
X39403Y80403D01*
X41335Y78920D01*
X43585Y77988D01*
X46000Y77670D01*
X48415Y77988D01*
X50665Y78920D01*
X52597Y80403D01*
X54080Y82335D01*
X55012Y84585D01*
X55329Y87000D01*
X55012Y89415D01*
X54080Y91665D01*
X52597Y93597D01*
X50665Y95080D01*
X48415Y96012D01*
X46000Y96330D01*
D02*
G37*
G36*
X106000Y105617D02*
X103659Y105152D01*
X101674Y103826D01*
X100348Y101841D01*
X99882Y99500D01*
X100348Y97159D01*
X101674Y95174D01*
X103659Y93848D01*
X106000Y93382D01*
X108341Y93848D01*
X110326Y95174D01*
X111652Y97159D01*
X112118Y99500D01*
X111652Y101841D01*
X110326Y103826D01*
X108341Y105152D01*
X106000Y105617D01*
D02*
G37*
G36*
X199000Y128098D02*
X197049Y127710D01*
X195395Y126605D01*
X194290Y124951D01*
X193902Y123000D01*
X194290Y121049D01*
X195395Y119395D01*
X195966Y119014D01*
Y117486D01*
X195395Y117105D01*
X194290Y115451D01*
X193902Y113500D01*
X194290Y111549D01*
X195395Y109895D01*
X195785Y109635D01*
Y108365D01*
X195395Y108105D01*
X194290Y106451D01*
X193902Y104500D01*
X194290Y102549D01*
X195395Y100895D01*
X197049Y99790D01*
X199000Y99402D01*
X200951Y99790D01*
X202605Y100895D01*
X203710Y102549D01*
X204098Y104500D01*
X203710Y106451D01*
X202605Y108105D01*
X202215Y108365D01*
Y109635D01*
X202605Y109895D01*
X203710Y111549D01*
X204098Y113500D01*
X203710Y115451D01*
X202605Y117105D01*
X202034Y117486D01*
Y119014D01*
X202605Y119395D01*
X203710Y121049D01*
X204098Y123000D01*
X203710Y124951D01*
X202605Y126605D01*
X200951Y127710D01*
X199000Y128098D01*
D02*
G37*
G36*
X128000Y104098D02*
X126049Y103710D01*
X124395Y102605D01*
X123290Y100951D01*
X122902Y99000D01*
X123290Y97049D01*
X124395Y95395D01*
X126049Y94290D01*
X128000Y93902D01*
X129951Y94290D01*
X131605Y95395D01*
X132710Y97049D01*
X133098Y99000D01*
X132710Y100951D01*
X131605Y102605D01*
X129951Y103710D01*
X128000Y104098D01*
D02*
G37*
G36*
X386080Y98292D02*
X383600Y97965D01*
X381289Y97008D01*
X379304Y95485D01*
X377781Y93501D01*
X376824Y91190D01*
X376498Y88710D01*
X376824Y86230D01*
X377781Y83919D01*
X379304Y81934D01*
X381289Y80412D01*
X383600Y79454D01*
X386080Y79128D01*
X388560Y79454D01*
X390871Y80412D01*
X392855Y81934D01*
X394378Y83919D01*
X395335Y86230D01*
X395662Y88710D01*
X395335Y91190D01*
X394378Y93501D01*
X392855Y95485D01*
X390871Y97008D01*
X388560Y97965D01*
X386080Y98292D01*
D02*
G37*
G36*
X360680D02*
X358200Y97965D01*
X355889Y97008D01*
X353904Y95485D01*
X352382Y93501D01*
X351424Y91190D01*
X351098Y88710D01*
X351424Y86230D01*
X352382Y83919D01*
X353904Y81934D01*
X355889Y80412D01*
X358200Y79454D01*
X360680Y79128D01*
X363160Y79454D01*
X365471Y80412D01*
X367455Y81934D01*
X368978Y83919D01*
X369935Y86230D01*
X370262Y88710D01*
X369935Y91190D01*
X368978Y93501D01*
X367455Y95485D01*
X365471Y97008D01*
X363160Y97965D01*
X360680Y98292D01*
D02*
G37*
G36*
X247500Y99098D02*
X245549Y98710D01*
X243895Y97605D01*
X242790Y95951D01*
X242402Y94000D01*
X242790Y92049D01*
X243895Y90395D01*
X245549Y89290D01*
X247500Y88902D01*
X249450Y89290D01*
X251104Y90395D01*
X252209Y92049D01*
X252598Y94000D01*
X252209Y95951D01*
X251104Y97605D01*
X249450Y98710D01*
X247500Y99098D01*
D02*
G37*
G36*
X411480Y98292D02*
X409000Y97965D01*
X406689Y97008D01*
X404704Y95485D01*
X403181Y93501D01*
X402224Y91190D01*
X401898Y88710D01*
X402224Y86230D01*
X403181Y83919D01*
X404704Y81934D01*
X406689Y80412D01*
X409000Y79454D01*
X411480Y79128D01*
X413960Y79454D01*
X416271Y80412D01*
X418255Y81934D01*
X419778Y83919D01*
X420735Y86230D01*
X421062Y88710D01*
X420735Y91190D01*
X419778Y93501D01*
X418255Y95485D01*
X416271Y97008D01*
X413960Y97965D01*
X411480Y98292D01*
D02*
G37*
G36*
X984400Y251882D02*
X981920Y251555D01*
X979609Y250598D01*
X977624Y249075D01*
X976102Y247091D01*
X975144Y244780D01*
X974818Y242300D01*
X975144Y239820D01*
X976102Y237509D01*
X977624Y235524D01*
X979609Y234002D01*
X981920Y233044D01*
X984400Y232718D01*
X986880Y233044D01*
X989191Y234002D01*
X991175Y235524D01*
X992698Y237509D01*
X993655Y239820D01*
X993982Y242300D01*
X993655Y244780D01*
X992698Y247091D01*
X991175Y249075D01*
X989191Y250598D01*
X986880Y251555D01*
X984400Y251882D01*
D02*
G37*
G36*
Y378882D02*
X981920Y378555D01*
X979609Y377598D01*
X977624Y376075D01*
X976102Y374091D01*
X975144Y371780D01*
X974818Y369300D01*
X975144Y366820D01*
X975521Y365910D01*
X970099Y360488D01*
X968500D01*
Y378800D01*
X949500D01*
Y359800D01*
X949500Y359800D01*
X949175Y358664D01*
X926099Y335588D01*
X922818D01*
X922012Y336570D01*
X922098Y337000D01*
X921710Y338951D01*
X920605Y340605D01*
X918951Y341710D01*
X917000Y342098D01*
X915049Y341710D01*
X913395Y340605D01*
X912290Y338951D01*
X912247Y338736D01*
X910615Y337104D01*
X909445Y337729D01*
X909598Y338500D01*
X909210Y340451D01*
X908105Y342105D01*
X906451Y343210D01*
X904500Y343598D01*
X902549Y343210D01*
X900895Y342105D01*
X899790Y340451D01*
X899402Y338500D01*
X899729Y336858D01*
X899021Y335588D01*
X875920D01*
X874165Y335239D01*
X872676Y334244D01*
X868103Y329672D01*
X867442Y329737D01*
X866780Y330179D01*
X866000Y330334D01*
X773000D01*
X772220Y330179D01*
X771558Y329737D01*
X771116Y329075D01*
X770961Y328295D01*
Y305500D01*
X771116Y304719D01*
X771558Y304058D01*
X772220Y303616D01*
X773000Y303461D01*
X866000D01*
X866780Y303616D01*
X867442Y304058D01*
X867884Y304719D01*
X868039Y305500D01*
Y316630D01*
X877821Y326412D01*
X901895D01*
X902573Y325142D01*
X902075Y324396D01*
X901687Y322445D01*
X902075Y320494D01*
X903180Y318840D01*
X903487Y318635D01*
Y317365D01*
X903180Y317160D01*
X902075Y315506D01*
X901687Y313555D01*
X902075Y311604D01*
X903180Y309950D01*
X904834Y308845D01*
X906785Y308457D01*
X908736Y308845D01*
X910390Y309950D01*
X911495Y311604D01*
X911781Y313045D01*
X912500Y312902D01*
X913219Y313045D01*
X913505Y311604D01*
X914610Y309950D01*
X916264Y308845D01*
X918215Y308457D01*
X920166Y308845D01*
X921820Y309950D01*
X922925Y311604D01*
X923313Y313555D01*
X922925Y315506D01*
X921820Y317160D01*
X921513Y317365D01*
Y318635D01*
X921820Y318840D01*
X922925Y320494D01*
X923313Y322445D01*
X922925Y324396D01*
X922427Y325142D01*
X923105Y326412D01*
X928000D01*
X929756Y326761D01*
X931244Y327756D01*
X948329Y344840D01*
X949468Y344278D01*
X949418Y343900D01*
X949744Y341420D01*
X950702Y339109D01*
X952224Y337124D01*
X954209Y335602D01*
X956520Y334644D01*
X959000Y334318D01*
X961480Y334644D01*
X963791Y335602D01*
X965775Y337124D01*
X967298Y339109D01*
X968255Y341420D01*
X968582Y343900D01*
X968255Y346380D01*
X967298Y348691D01*
X966261Y350042D01*
X966888Y351312D01*
X972000D01*
X973756Y351661D01*
X975244Y352655D01*
X982550Y359961D01*
X984400Y359718D01*
X986880Y360044D01*
X989191Y361002D01*
X991175Y362524D01*
X992698Y364509D01*
X993655Y366820D01*
X993982Y369300D01*
X993655Y371780D01*
X992698Y374091D01*
X991175Y376075D01*
X989191Y377598D01*
X986880Y378555D01*
X984400Y378882D01*
D02*
G37*
G36*
X96520Y362642D02*
X94040Y362315D01*
X91729Y361358D01*
X89744Y359835D01*
X89506Y359525D01*
X88097Y359774D01*
X87225Y361079D01*
X85571Y362184D01*
X83620Y362573D01*
X81669Y362184D01*
X80015Y361079D01*
X79329Y360053D01*
X78035Y359856D01*
X77808Y359902D01*
X75911Y361358D01*
X73600Y362315D01*
X71120Y362642D01*
X68640Y362315D01*
X66329Y361358D01*
X64344Y359835D01*
X62821Y357851D01*
X61864Y355540D01*
X61538Y353060D01*
X61864Y350580D01*
X62821Y348269D01*
X64344Y346284D01*
X66329Y344762D01*
X68640Y343804D01*
X71120Y343478D01*
X73600Y343804D01*
X75911Y344762D01*
X77895Y346284D01*
X79418Y348269D01*
X80375Y350580D01*
X80559Y351978D01*
X81180Y352419D01*
X81937Y352711D01*
X83620Y352377D01*
X85571Y352765D01*
X85686Y352841D01*
X87048Y352224D01*
X87264Y350580D01*
X88222Y348269D01*
X89744Y346284D01*
X91729Y344762D01*
X94040Y343804D01*
X96520Y343478D01*
X99000Y343804D01*
X101311Y344762D01*
X103295Y346284D01*
X104818Y348269D01*
X105775Y350580D01*
X106102Y353060D01*
X105775Y355540D01*
X104818Y357851D01*
X103295Y359835D01*
X101311Y361358D01*
X99000Y362315D01*
X96520Y362642D01*
D02*
G37*
G36*
X123000Y390117D02*
X120659Y389652D01*
X118674Y388326D01*
X117348Y386341D01*
X116882Y384000D01*
X117348Y381659D01*
X118674Y379674D01*
X120659Y378348D01*
X123000Y377882D01*
X125341Y378348D01*
X127325Y379674D01*
X128652Y381659D01*
X129117Y384000D01*
X128652Y386341D01*
X127325Y388326D01*
X125341Y389652D01*
X123000Y390117D01*
D02*
G37*
G36*
X932998Y380097D02*
X931047Y379709D01*
X929393Y378604D01*
X928288Y376950D01*
X927900Y374999D01*
X928288Y373048D01*
X929393Y371395D01*
X931047Y370289D01*
X932998Y369901D01*
X934949Y370289D01*
X936603Y371395D01*
X937708Y373048D01*
X938096Y374999D01*
X937708Y376950D01*
X936603Y378604D01*
X934949Y379709D01*
X932998Y380097D01*
D02*
G37*
G36*
X194945Y359348D02*
X192994Y358960D01*
X191340Y357855D01*
X190235Y356201D01*
X189949Y354760D01*
X189230Y354903D01*
X188512Y354760D01*
X188225Y356201D01*
X187120Y357855D01*
X185466Y358960D01*
X183515Y359348D01*
X181564Y358960D01*
X179910Y357855D01*
X178805Y356201D01*
X178417Y354250D01*
X178805Y352299D01*
X179910Y350645D01*
X180217Y350440D01*
Y349170D01*
X179910Y348965D01*
X178805Y347311D01*
X178417Y345360D01*
X178805Y343409D01*
X179910Y341755D01*
X181564Y340650D01*
X183515Y340262D01*
X185466Y340650D01*
X187120Y341755D01*
X188225Y343409D01*
X188512Y344850D01*
X189230Y344707D01*
X189949Y344850D01*
X190235Y343409D01*
X191340Y341755D01*
X192994Y340650D01*
X194945Y340262D01*
X196896Y340650D01*
X198550Y341755D01*
X199655Y343409D01*
X200043Y345360D01*
X199655Y347311D01*
X198550Y348965D01*
X198243Y349170D01*
Y350440D01*
X198550Y350645D01*
X199655Y352299D01*
X200043Y354250D01*
X199655Y356201D01*
X198550Y357855D01*
X196896Y358960D01*
X194945Y359348D01*
D02*
G37*
G36*
X157320Y363060D02*
X148570D01*
Y354310D01*
X157320D01*
Y363060D01*
D02*
G37*
G36*
X248285Y361348D02*
X246334Y360960D01*
X244680Y359855D01*
X243575Y358201D01*
X243288Y356760D01*
X242570Y356903D01*
X241852Y356760D01*
X241565Y358201D01*
X240460Y359855D01*
X238806Y360960D01*
X236855Y361348D01*
X234904Y360960D01*
X233250Y359855D01*
X232145Y358201D01*
X231757Y356250D01*
X232145Y354299D01*
X233250Y352645D01*
X233557Y352440D01*
Y351170D01*
X233250Y350965D01*
X232145Y349311D01*
X231757Y347360D01*
X232145Y345409D01*
X233250Y343755D01*
X234904Y342650D01*
X235109Y342609D01*
X235377Y341261D01*
X234395Y340605D01*
X233290Y338951D01*
X232902Y337000D01*
X233290Y335049D01*
X234395Y333395D01*
X236049Y332290D01*
X238000Y331902D01*
X239951Y332290D01*
X241605Y333395D01*
X242710Y335049D01*
X243098Y337000D01*
X242710Y338951D01*
X241605Y340605D01*
X239951Y341710D01*
X239746Y341751D01*
X239478Y343099D01*
X240460Y343755D01*
X241565Y345409D01*
X241852Y346850D01*
X242570Y346707D01*
X243288Y346850D01*
X243575Y345409D01*
X244680Y343755D01*
X246334Y342650D01*
X248285Y342262D01*
X250236Y342650D01*
X251890Y343755D01*
X252995Y345409D01*
X253383Y347360D01*
X252995Y349311D01*
X251890Y350965D01*
X251583Y351170D01*
Y352440D01*
X251890Y352645D01*
X252995Y354299D01*
X253383Y356250D01*
X252995Y358201D01*
X251890Y359855D01*
X250236Y360960D01*
X248285Y361348D01*
D02*
G37*
G36*
X937000Y365098D02*
X935049Y364710D01*
X933395Y363605D01*
X932290Y361951D01*
X931902Y360000D01*
X932290Y358049D01*
X933395Y356395D01*
X935049Y355290D01*
X937000Y354902D01*
X938951Y355290D01*
X940605Y356395D01*
X941710Y358049D01*
X942098Y360000D01*
X941710Y361951D01*
X940605Y363605D01*
X938951Y364710D01*
X937000Y365098D01*
D02*
G37*
G36*
X308420Y390117D02*
X306079Y389652D01*
X304094Y388326D01*
X302768Y386341D01*
X302302Y384000D01*
X302768Y381659D01*
X304094Y379674D01*
X306079Y378348D01*
X308420Y377882D01*
X310761Y378348D01*
X312745Y379674D01*
X314072Y381659D01*
X314537Y384000D01*
X314072Y386341D01*
X312745Y388326D01*
X310761Y389652D01*
X308420Y390117D01*
D02*
G37*
G36*
X536335Y394045D02*
X529835D01*
X526735Y390945D01*
X523635Y394045D01*
X517135D01*
X513885Y390795D01*
Y382295D01*
X517135Y379045D01*
X523635D01*
X526735Y382145D01*
X529835Y379045D01*
X536335D01*
X539585Y382295D01*
Y390795D01*
X536335Y394045D01*
D02*
G37*
G36*
X350870Y394000D02*
X344370D01*
X341270Y390900D01*
X338170Y394000D01*
X331670D01*
X328420Y390750D01*
Y382250D01*
X331670Y379000D01*
X338170D01*
X341270Y382100D01*
X344370Y379000D01*
X350870D01*
X354120Y382250D01*
Y390750D01*
X350870Y394000D01*
D02*
G37*
G36*
X907175Y394045D02*
X900675D01*
X897575Y390945D01*
X894475Y394045D01*
X887975D01*
X884725Y390795D01*
Y382295D01*
X887975Y379045D01*
X894475D01*
X897575Y382145D01*
X900675Y379045D01*
X907175D01*
X910425Y382295D01*
Y390795D01*
X907175Y394045D01*
D02*
G37*
G36*
X721755D02*
X715255D01*
X712155Y390945D01*
X709055Y394045D01*
X702555D01*
X699305Y390795D01*
Y382295D01*
X702555Y379045D01*
X709055D01*
X712155Y382145D01*
X715255Y379045D01*
X721755D01*
X725005Y382295D01*
Y390795D01*
X721755Y394045D01*
D02*
G37*
G36*
X679260Y391098D02*
X677309Y390710D01*
X675655Y389604D01*
X674550Y387951D01*
X674162Y386000D01*
X674550Y384049D01*
X675655Y382395D01*
X677309Y381290D01*
X679260Y380902D01*
X681211Y381290D01*
X682865Y382395D01*
X683970Y384049D01*
X684358Y386000D01*
X683970Y387951D01*
X682865Y389604D01*
X681211Y390710D01*
X679260Y391098D01*
D02*
G37*
G36*
X864680Y389598D02*
X862729Y389210D01*
X861075Y388105D01*
X859970Y386451D01*
X859582Y384500D01*
X859970Y382549D01*
X861075Y380895D01*
X862729Y379790D01*
X864680Y379402D01*
X866631Y379790D01*
X868285Y380895D01*
X869390Y382549D01*
X869778Y384500D01*
X869390Y386451D01*
X868285Y388105D01*
X866631Y389210D01*
X864680Y389598D01*
D02*
G37*
G36*
X486800Y397698D02*
X484849Y397310D01*
X483195Y396205D01*
X482090Y394551D01*
X481702Y392600D01*
X482090Y390649D01*
X483195Y388995D01*
X484849Y387890D01*
X486800Y387502D01*
X488751Y387890D01*
X490405Y388995D01*
X491510Y390649D01*
X491898Y392600D01*
X491510Y394551D01*
X490405Y396205D01*
X488751Y397310D01*
X486800Y397698D01*
D02*
G37*
G36*
X20320Y403282D02*
X17840Y402955D01*
X15529Y401998D01*
X13544Y400475D01*
X12021Y398491D01*
X11064Y396180D01*
X10738Y393700D01*
X11064Y391220D01*
X12021Y388909D01*
X13544Y386924D01*
X15529Y385401D01*
X17840Y384444D01*
X20320Y384118D01*
X22800Y384444D01*
X25111Y385401D01*
X27095Y386924D01*
X28618Y388909D01*
X29575Y391220D01*
X29902Y393700D01*
X29575Y396180D01*
X28618Y398491D01*
X27095Y400475D01*
X25111Y401998D01*
X22800Y402955D01*
X20320Y403282D01*
D02*
G37*
G36*
X146070Y363060D02*
X137320D01*
Y354310D01*
X146070D01*
Y363060D01*
D02*
G37*
G36*
X20320Y362642D02*
X17840Y362315D01*
X15529Y361358D01*
X13544Y359835D01*
X12021Y357851D01*
X11064Y355540D01*
X10738Y353060D01*
X11064Y350580D01*
X12021Y348269D01*
X13544Y346284D01*
X15529Y344762D01*
X17840Y343804D01*
X20320Y343478D01*
X22800Y343804D01*
X25111Y344762D01*
X27095Y346284D01*
X28618Y348269D01*
X29575Y350580D01*
X29902Y353060D01*
X29575Y355540D01*
X28618Y357851D01*
X27095Y359835D01*
X25111Y361358D01*
X22800Y362315D01*
X20320Y362642D01*
D02*
G37*
G36*
X157320Y351810D02*
X148570D01*
Y343060D01*
X157320D01*
Y351810D01*
D02*
G37*
G36*
X121920Y362642D02*
X119440Y362315D01*
X117129Y361358D01*
X115144Y359835D01*
X113622Y357851D01*
X112664Y355540D01*
X112338Y353060D01*
X112664Y350580D01*
X113622Y348269D01*
X115144Y346284D01*
X117129Y344762D01*
X119440Y343804D01*
X121920Y343478D01*
X124400Y343804D01*
X126711Y344762D01*
X128695Y346284D01*
X130218Y348269D01*
X131175Y350580D01*
X131502Y353060D01*
X131175Y355540D01*
X130218Y357851D01*
X128695Y359835D01*
X126711Y361358D01*
X124400Y362315D01*
X121920Y362642D01*
D02*
G37*
G36*
X45720D02*
X43240Y362315D01*
X40929Y361358D01*
X38944Y359835D01*
X37422Y357851D01*
X36464Y355540D01*
X36138Y353060D01*
X36464Y350580D01*
X37422Y348269D01*
X38944Y346284D01*
X40929Y344762D01*
X43240Y343804D01*
X45720Y343478D01*
X48200Y343804D01*
X50511Y344762D01*
X52495Y346284D01*
X54018Y348269D01*
X54975Y350580D01*
X55302Y353060D01*
X54975Y355540D01*
X54018Y357851D01*
X52495Y359835D01*
X50511Y361358D01*
X48200Y362315D01*
X45720Y362642D01*
D02*
G37*
G36*
X825500Y360102D02*
X823020Y359776D01*
X820709Y358818D01*
X818725Y357295D01*
X817202Y355311D01*
X816245Y353000D01*
X815918Y350520D01*
X816245Y348040D01*
X817202Y345729D01*
X818725Y343745D01*
X820709Y342222D01*
X823020Y341264D01*
X825500Y340938D01*
X827980Y341264D01*
X830291Y342222D01*
X832275Y343745D01*
X833798Y345729D01*
X834755Y348040D01*
X835082Y350520D01*
X834755Y353000D01*
X833798Y355311D01*
X832275Y357295D01*
X830291Y358818D01*
X827980Y359776D01*
X825500Y360102D01*
D02*
G37*
G36*
X286000Y358598D02*
X284049Y358210D01*
X282395Y357105D01*
X281290Y355451D01*
X280902Y353500D01*
X281290Y351549D01*
X282395Y349895D01*
X284049Y348790D01*
X286000Y348402D01*
X286697Y348541D01*
X287901Y348499D01*
X288077Y347619D01*
X288290Y346548D01*
X289395Y344894D01*
X290340Y344263D01*
Y342736D01*
X289395Y342105D01*
X288290Y340451D01*
X288058Y339285D01*
X287595Y338466D01*
X286679Y338363D01*
X285500Y338598D01*
X283549Y338210D01*
X281895Y337105D01*
X280790Y335451D01*
X280402Y333500D01*
X280790Y331549D01*
X281895Y329895D01*
X283549Y328790D01*
X285500Y328402D01*
X287451Y328790D01*
X289105Y329895D01*
X290210Y331549D01*
X290442Y332715D01*
X290905Y333534D01*
X291821Y333637D01*
X293000Y333402D01*
X294951Y333790D01*
X296605Y334895D01*
X297710Y336549D01*
X298098Y338500D01*
X297710Y340451D01*
X296605Y342105D01*
X295660Y342736D01*
Y344264D01*
X296604Y344894D01*
X297709Y346548D01*
X298097Y348499D01*
X297709Y350450D01*
X296604Y352104D01*
X294950Y353209D01*
X292999Y353597D01*
X292302Y353459D01*
X291098Y353500D01*
X290923Y354380D01*
X290710Y355451D01*
X289605Y357105D01*
X287951Y358210D01*
X286000Y358598D01*
D02*
G37*
G36*
X146070Y351810D02*
X137320D01*
Y343060D01*
X146070D01*
Y351810D01*
D02*
G37*
G36*
X860400Y360020D02*
X841400D01*
Y341020D01*
X860400D01*
Y360020D01*
D02*
G37*
G36*
X509290Y354440D02*
X500540D01*
Y345690D01*
X509290D01*
Y354440D01*
D02*
G37*
G36*
X619125Y354348D02*
X617174Y353960D01*
X615520Y352855D01*
X614415Y351201D01*
X614128Y349760D01*
X613410Y349903D01*
X612691Y349760D01*
X612405Y351201D01*
X611300Y352855D01*
X609646Y353960D01*
X607695Y354348D01*
X605744Y353960D01*
X604090Y352855D01*
X602985Y351201D01*
X602597Y349250D01*
X602985Y347299D01*
X604090Y345645D01*
X604397Y345440D01*
Y344170D01*
X604090Y343965D01*
X602985Y342311D01*
X602597Y340360D01*
X602985Y338409D01*
X604090Y336755D01*
X605744Y335650D01*
X607695Y335262D01*
X609646Y335650D01*
X611300Y336755D01*
X612405Y338409D01*
X612691Y339850D01*
X613410Y339707D01*
X614128Y339850D01*
X614415Y338409D01*
X615520Y336755D01*
X617174Y335650D01*
X619125Y335262D01*
X621076Y335650D01*
X622730Y336755D01*
X623835Y338409D01*
X624223Y340360D01*
X623835Y342311D01*
X622730Y343965D01*
X622423Y344170D01*
Y345440D01*
X622730Y345645D01*
X623835Y347299D01*
X624223Y349250D01*
X623835Y351201D01*
X622730Y352855D01*
X621076Y353960D01*
X619125Y354348D01*
D02*
G37*
G36*
X565785D02*
X563834Y353960D01*
X562180Y352855D01*
X561075Y351201D01*
X560788Y349760D01*
X560070Y349903D01*
X559352Y349760D01*
X559065Y351201D01*
X557960Y352855D01*
X556306Y353960D01*
X554355Y354348D01*
X552404Y353960D01*
X550750Y352855D01*
X549645Y351201D01*
X549257Y349250D01*
X549645Y347299D01*
X550750Y345645D01*
X551057Y345440D01*
Y344170D01*
X550750Y343965D01*
X549645Y342311D01*
X549257Y340360D01*
X549645Y338409D01*
X550750Y336755D01*
X552404Y335650D01*
X554355Y335262D01*
X556306Y335650D01*
X557960Y336755D01*
X559065Y338409D01*
X559352Y339850D01*
X560070Y339707D01*
X560788Y339850D01*
X561075Y338409D01*
X562180Y336755D01*
X563834Y335650D01*
X565785Y335262D01*
X567736Y335650D01*
X569390Y336755D01*
X570495Y338409D01*
X570883Y340360D01*
X570495Y342311D01*
X569390Y343965D01*
X569083Y344170D01*
Y345440D01*
X569390Y345645D01*
X570495Y347299D01*
X570883Y349250D01*
X570495Y351201D01*
X569390Y352855D01*
X567736Y353960D01*
X565785Y354348D01*
D02*
G37*
G36*
X804545D02*
X802594Y353960D01*
X800940Y352855D01*
X799835Y351201D01*
X799548Y349760D01*
X798830Y349903D01*
X798111Y349760D01*
X797825Y351201D01*
X796720Y352855D01*
X795066Y353960D01*
X793115Y354348D01*
X791164Y353960D01*
X789510Y352855D01*
X788405Y351201D01*
X788017Y349250D01*
X788405Y347299D01*
X789510Y345645D01*
X789817Y345440D01*
Y344170D01*
X789510Y343965D01*
X788405Y342311D01*
X788017Y340360D01*
X788405Y338409D01*
X789510Y336755D01*
X791164Y335650D01*
X793115Y335262D01*
X795066Y335650D01*
X796720Y336755D01*
X797825Y338409D01*
X798111Y339850D01*
X798830Y339707D01*
X799548Y339850D01*
X799835Y338409D01*
X800940Y336755D01*
X802594Y335650D01*
X804545Y335262D01*
X806496Y335650D01*
X808150Y336755D01*
X809255Y338409D01*
X809643Y340360D01*
X809255Y342311D01*
X808150Y343965D01*
X807843Y344170D01*
Y345440D01*
X808150Y345645D01*
X809255Y347299D01*
X809643Y349250D01*
X809255Y351201D01*
X808150Y352855D01*
X806496Y353960D01*
X804545Y354348D01*
D02*
G37*
G36*
X751205D02*
X749254Y353960D01*
X747600Y352855D01*
X746495Y351201D01*
X746208Y349760D01*
X745490Y349903D01*
X744771Y349760D01*
X744485Y351201D01*
X743380Y352855D01*
X741726Y353960D01*
X739775Y354348D01*
X737824Y353960D01*
X736170Y352855D01*
X735065Y351201D01*
X734677Y349250D01*
X735065Y347299D01*
X736170Y345645D01*
X736477Y345440D01*
Y344170D01*
X736170Y343965D01*
X735065Y342311D01*
X734677Y340360D01*
X735065Y338409D01*
X736170Y336755D01*
X737824Y335650D01*
X739775Y335262D01*
X741726Y335650D01*
X743380Y336755D01*
X744485Y338409D01*
X744771Y339850D01*
X745490Y339707D01*
X746208Y339850D01*
X746495Y338409D01*
X747600Y336755D01*
X749254Y335650D01*
X751205Y335262D01*
X753156Y335650D01*
X754810Y336755D01*
X755915Y338409D01*
X756303Y340360D01*
X755915Y342311D01*
X754810Y343965D01*
X754503Y344170D01*
Y345440D01*
X754810Y345645D01*
X755915Y347299D01*
X756303Y349250D01*
X755915Y351201D01*
X754810Y352855D01*
X753156Y353960D01*
X751205Y354348D01*
D02*
G37*
G36*
X309000Y357098D02*
X307049Y356710D01*
X305395Y355605D01*
X304290Y353951D01*
X303902Y352000D01*
X304290Y350049D01*
X305395Y348395D01*
X307049Y347290D01*
X309000Y346902D01*
X310951Y347290D01*
X312605Y348395D01*
X313710Y350049D01*
X314098Y352000D01*
X313710Y353951D01*
X312605Y355605D01*
X310951Y356710D01*
X309000Y357098D01*
D02*
G37*
G36*
X520540Y354440D02*
X511790D01*
Y345690D01*
X520540D01*
Y354440D01*
D02*
G37*
G36*
X435705Y354348D02*
X433754Y353960D01*
X432100Y352855D01*
X430995Y351201D01*
X430709Y349760D01*
X429990Y349903D01*
X429272Y349760D01*
X428985Y351201D01*
X427880Y352855D01*
X426226Y353960D01*
X424275Y354348D01*
X422324Y353960D01*
X420670Y352855D01*
X419565Y351201D01*
X419177Y349250D01*
X419565Y347299D01*
X420670Y345645D01*
X420977Y345440D01*
Y344170D01*
X420670Y343965D01*
X419565Y342311D01*
X419177Y340360D01*
X419565Y338409D01*
X420670Y336755D01*
X422324Y335650D01*
X424275Y335262D01*
X426226Y335650D01*
X427880Y336755D01*
X428985Y338409D01*
X429272Y339850D01*
X429990Y339707D01*
X430709Y339850D01*
X430995Y338409D01*
X432100Y336755D01*
X433754Y335650D01*
X435705Y335262D01*
X437656Y335650D01*
X439310Y336755D01*
X440415Y338409D01*
X440803Y340360D01*
X440415Y342311D01*
X439310Y343965D01*
X439003Y344170D01*
Y345440D01*
X439310Y345645D01*
X440415Y347299D01*
X440803Y349250D01*
X440415Y351201D01*
X439310Y352855D01*
X437656Y353960D01*
X435705Y354348D01*
D02*
G37*
G36*
X387765D02*
X385814Y353960D01*
X384160Y352855D01*
X383055Y351201D01*
X382769Y349760D01*
X382050Y349903D01*
X381331Y349760D01*
X381045Y351201D01*
X379940Y352855D01*
X378286Y353960D01*
X376335Y354348D01*
X374384Y353960D01*
X372730Y352855D01*
X371625Y351201D01*
X371237Y349250D01*
X371625Y347299D01*
X372730Y345645D01*
X373037Y345440D01*
Y344170D01*
X372730Y343965D01*
X371625Y342311D01*
X371237Y340360D01*
X371625Y338409D01*
X372730Y336755D01*
X374384Y335650D01*
X376335Y335262D01*
X378286Y335650D01*
X379940Y336755D01*
X381045Y338409D01*
X381331Y339850D01*
X382050Y339707D01*
X382769Y339850D01*
X383055Y338409D01*
X384160Y336755D01*
X385814Y335650D01*
X387765Y335262D01*
X389716Y335650D01*
X391370Y336755D01*
X392475Y338409D01*
X392863Y340360D01*
X392475Y342311D01*
X391370Y343965D01*
X391063Y344170D01*
Y345440D01*
X391370Y345645D01*
X392475Y347299D01*
X392863Y349250D01*
X392475Y351201D01*
X391370Y352855D01*
X389716Y353960D01*
X387765Y354348D01*
D02*
G37*
G36*
X984400Y526782D02*
X981920Y526455D01*
X979609Y525498D01*
X977624Y523975D01*
X976102Y521991D01*
X975144Y519680D01*
X974818Y517200D01*
X975144Y514720D01*
X976102Y512409D01*
X977624Y510424D01*
X979609Y508901D01*
X981920Y507944D01*
X984400Y507618D01*
X986880Y507944D01*
X989191Y508901D01*
X991175Y510424D01*
X992698Y512409D01*
X993655Y514720D01*
X993982Y517200D01*
X993655Y519680D01*
X992698Y521991D01*
X991175Y523975D01*
X989191Y525498D01*
X986880Y526455D01*
X984400Y526782D01*
D02*
G37*
G36*
X20320Y504882D02*
X17840Y504555D01*
X15529Y503598D01*
X13544Y502075D01*
X12021Y500091D01*
X11064Y497780D01*
X10738Y495300D01*
X11064Y492820D01*
X12021Y490509D01*
X13544Y488524D01*
X15529Y487001D01*
X17840Y486044D01*
X20320Y485718D01*
X22800Y486044D01*
X25111Y487001D01*
X27095Y488524D01*
X28618Y490509D01*
X29575Y492820D01*
X29902Y495300D01*
X29575Y497780D01*
X28618Y500091D01*
X27095Y502075D01*
X25111Y503598D01*
X22800Y504555D01*
X20320Y504882D01*
D02*
G37*
G36*
X30320Y519450D02*
X21570D01*
Y510700D01*
X30320D01*
Y519450D01*
D02*
G37*
G36*
X19070D02*
X10320D01*
Y510700D01*
X19070D01*
Y519450D01*
D02*
G37*
G36*
X654050Y498877D02*
X651709Y498412D01*
X649724Y497086D01*
X648398Y495101D01*
X647933Y492760D01*
X648398Y490419D01*
X649724Y488434D01*
X649783Y488395D01*
Y487125D01*
X649724Y487085D01*
X648398Y485101D01*
X647933Y482760D01*
X648398Y480418D01*
X649642Y478558D01*
X649783Y478121D01*
Y477398D01*
X649642Y476962D01*
X648398Y475101D01*
X647933Y472760D01*
X648398Y470418D01*
X649642Y468558D01*
X649783Y468121D01*
Y467398D01*
X649642Y466962D01*
X648398Y465101D01*
X647933Y462760D01*
X648398Y460419D01*
X649642Y458558D01*
X649783Y458121D01*
Y457398D01*
X649642Y456962D01*
X648398Y455101D01*
X647933Y452760D01*
X648398Y450419D01*
X649642Y448558D01*
X649783Y448121D01*
Y447398D01*
X649642Y446962D01*
X648398Y445101D01*
X647933Y442760D01*
X648398Y440419D01*
X649724Y438434D01*
X651709Y437108D01*
X654050Y436642D01*
X656391Y437108D01*
X658376Y438434D01*
X659702Y440419D01*
X660167Y442760D01*
X659702Y445101D01*
X658458Y446962D01*
X658317Y447398D01*
Y448121D01*
X658458Y448558D01*
X659702Y450419D01*
X660167Y452760D01*
X659702Y455101D01*
X658458Y456962D01*
X658317Y457398D01*
Y458121D01*
X658458Y458558D01*
X659702Y460419D01*
X660167Y462760D01*
X659702Y465101D01*
X658458Y466962D01*
X658317Y467398D01*
Y468121D01*
X658458Y468558D01*
X659702Y470418D01*
X660167Y472760D01*
X659702Y475101D01*
X658458Y476962D01*
X658317Y477398D01*
Y478121D01*
X658458Y478558D01*
X659702Y480418D01*
X660167Y482760D01*
X659702Y485101D01*
X658376Y487085D01*
X658317Y487125D01*
Y488395D01*
X658376Y488434D01*
X659702Y490419D01*
X660167Y492760D01*
X659702Y495101D01*
X658376Y497086D01*
X656391Y498412D01*
X654050Y498877D01*
D02*
G37*
G36*
X468630D02*
X466289Y498412D01*
X464304Y497086D01*
X462978Y495101D01*
X462513Y492760D01*
X462978Y490419D01*
X464304Y488434D01*
X464363Y488395D01*
Y487125D01*
X464304Y487085D01*
X462978Y485101D01*
X462513Y482760D01*
X462978Y480418D01*
X464222Y478558D01*
X464363Y478121D01*
Y477398D01*
X464222Y476962D01*
X462978Y475101D01*
X462513Y472760D01*
X462978Y470418D01*
X464222Y468558D01*
X464363Y468121D01*
Y467398D01*
X464222Y466962D01*
X462978Y465101D01*
X462513Y462760D01*
X462978Y460419D01*
X464222Y458558D01*
X464363Y458121D01*
Y457398D01*
X464222Y456962D01*
X462978Y455101D01*
X462513Y452760D01*
X462978Y450419D01*
X464222Y448558D01*
X464363Y448121D01*
Y447398D01*
X464222Y446962D01*
X462978Y445101D01*
X462513Y442760D01*
X462978Y440419D01*
X464304Y438434D01*
X466289Y437108D01*
X468630Y436642D01*
X470971Y437108D01*
X472956Y438434D01*
X474282Y440419D01*
X474748Y442760D01*
X474282Y445101D01*
X473038Y446962D01*
X472897Y447398D01*
Y448121D01*
X473038Y448558D01*
X474282Y450419D01*
X474748Y452760D01*
X474282Y455101D01*
X473038Y456962D01*
X472897Y457398D01*
Y458121D01*
X473038Y458558D01*
X474282Y460419D01*
X474748Y462760D01*
X474282Y465101D01*
X473038Y466962D01*
X472897Y467398D01*
Y468121D01*
X473038Y468558D01*
X474282Y470418D01*
X474748Y472760D01*
X474282Y475101D01*
X473038Y476962D01*
X472897Y477398D01*
Y478121D01*
X473038Y478558D01*
X474282Y480418D01*
X474748Y482760D01*
X474282Y485101D01*
X472956Y487085D01*
X472897Y487125D01*
Y488395D01*
X472956Y488434D01*
X474282Y490419D01*
X474748Y492760D01*
X474282Y495101D01*
X472956Y497086D01*
X470971Y498412D01*
X468630Y498877D01*
D02*
G37*
G36*
X20320Y479482D02*
X17840Y479155D01*
X15529Y478198D01*
X13544Y476675D01*
X12021Y474691D01*
X11064Y472380D01*
X10738Y469900D01*
X11064Y467420D01*
X12021Y465109D01*
X13544Y463124D01*
X15529Y461601D01*
X17840Y460644D01*
X20320Y460318D01*
X22800Y460644D01*
X25111Y461601D01*
X27095Y463124D01*
X28618Y465109D01*
X29575Y467420D01*
X29902Y469900D01*
X29575Y472380D01*
X28618Y474691D01*
X27095Y476675D01*
X25111Y478198D01*
X22800Y479155D01*
X20320Y479482D01*
D02*
G37*
G36*
X839470Y498877D02*
X837129Y498412D01*
X835144Y497086D01*
X833818Y495101D01*
X833353Y492760D01*
X833818Y490419D01*
X835144Y488434D01*
X835203Y488395D01*
Y487125D01*
X835144Y487085D01*
X833818Y485101D01*
X833353Y482760D01*
X833818Y480418D01*
X835062Y478558D01*
X835203Y478121D01*
Y477398D01*
X835062Y476962D01*
X833818Y475101D01*
X833353Y472760D01*
X833818Y470418D01*
X835062Y468558D01*
X835203Y468121D01*
Y467398D01*
X835062Y466962D01*
X833818Y465101D01*
X833353Y462760D01*
X833818Y460419D01*
X835062Y458558D01*
X835203Y458121D01*
Y457398D01*
X835062Y456962D01*
X833818Y455101D01*
X833353Y452760D01*
X833818Y450419D01*
X835062Y448558D01*
X835203Y448121D01*
Y447398D01*
X835062Y446962D01*
X833818Y445101D01*
X833353Y442760D01*
X833818Y440419D01*
X835144Y438434D01*
X837129Y437108D01*
X839470Y436642D01*
X841811Y437108D01*
X843796Y438434D01*
X845122Y440419D01*
X845587Y442760D01*
X845122Y445101D01*
X843878Y446962D01*
X843737Y447398D01*
Y448121D01*
X843878Y448558D01*
X845122Y450419D01*
X845587Y452760D01*
X845122Y455101D01*
X843878Y456962D01*
X843737Y457398D01*
Y458121D01*
X843878Y458558D01*
X845122Y460419D01*
X845587Y462760D01*
X845122Y465101D01*
X843878Y466962D01*
X843737Y467398D01*
Y468121D01*
X843878Y468558D01*
X845122Y470418D01*
X845587Y472760D01*
X845122Y475101D01*
X843878Y476962D01*
X843737Y477398D01*
Y478121D01*
X843878Y478558D01*
X845122Y480418D01*
X845587Y482760D01*
X845122Y485101D01*
X843796Y487085D01*
X843737Y487125D01*
Y488395D01*
X843796Y488434D01*
X845122Y490419D01*
X845587Y492760D01*
X845122Y495101D01*
X843796Y497086D01*
X841811Y498412D01*
X839470Y498877D01*
D02*
G37*
G36*
X19070Y530700D02*
X10320D01*
Y521950D01*
X19070D01*
Y530700D01*
D02*
G37*
G36*
X162459Y570862D02*
X159979Y570535D01*
X157668Y569578D01*
X155684Y568055D01*
X154161Y566071D01*
X153204Y563760D01*
X152878Y561280D01*
X153204Y558800D01*
X154161Y556489D01*
X155684Y554504D01*
X157668Y552982D01*
X159979Y552024D01*
X162459Y551698D01*
X164939Y552024D01*
X167250Y552982D01*
X169235Y554504D01*
X170758Y556489D01*
X171715Y558800D01*
X172041Y561280D01*
X171715Y563760D01*
X170758Y566071D01*
X169235Y568055D01*
X167250Y569578D01*
X164939Y570535D01*
X162459Y570862D01*
D02*
G37*
G36*
X137059D02*
X134579Y570535D01*
X132268Y569578D01*
X130284Y568055D01*
X128761Y566071D01*
X127804Y563760D01*
X127478Y561280D01*
X127804Y558800D01*
X128761Y556489D01*
X130284Y554504D01*
X132268Y552982D01*
X134579Y552024D01*
X137059Y551698D01*
X139539Y552024D01*
X141850Y552982D01*
X143835Y554504D01*
X145358Y556489D01*
X146315Y558800D01*
X146641Y561280D01*
X146315Y563760D01*
X145358Y566071D01*
X143835Y568055D01*
X141850Y569578D01*
X139539Y570535D01*
X137059Y570862D01*
D02*
G37*
G36*
X171959Y596180D02*
X152959D01*
Y577180D01*
X171959D01*
Y596180D01*
D02*
G37*
G36*
X197360Y596180D02*
X178360D01*
Y577180D01*
X197360D01*
Y596180D01*
D02*
G37*
G36*
X99060Y543578D02*
X97109Y543190D01*
X95455Y542085D01*
X94350Y540431D01*
X93962Y538480D01*
X94090Y537836D01*
X67337Y511083D01*
X66674Y510090D01*
X66441Y508920D01*
X66441Y508920D01*
Y414267D01*
X54644Y402470D01*
X54000Y402598D01*
X52049Y402210D01*
X50395Y401105D01*
X49290Y399451D01*
X48902Y397500D01*
X49027Y396871D01*
X48129Y395973D01*
X47500Y396098D01*
X45549Y395710D01*
X43895Y394605D01*
X42790Y392951D01*
X42402Y391000D01*
X42790Y389049D01*
X43895Y387395D01*
X45549Y386290D01*
X47500Y385902D01*
X49451Y386290D01*
X51105Y387395D01*
X52210Y389049D01*
X52598Y391000D01*
X52473Y391629D01*
X53371Y392527D01*
X54000Y392402D01*
X55951Y392790D01*
X57605Y393895D01*
X58710Y395549D01*
X59098Y397500D01*
X58970Y398144D01*
X71663Y410837D01*
X72326Y411829D01*
X72559Y413000D01*
X72559Y413000D01*
Y507653D01*
X98416Y533510D01*
X99060Y533382D01*
X101011Y533770D01*
X102665Y534875D01*
X103770Y536529D01*
X104158Y538480D01*
X103770Y540431D01*
X102665Y542085D01*
X101011Y543190D01*
X99060Y543578D01*
D02*
G37*
G36*
X30320Y530700D02*
X21570D01*
Y521950D01*
X30320D01*
Y530700D01*
D02*
G37*
G36*
X111659Y570862D02*
X109179Y570535D01*
X106868Y569578D01*
X104884Y568055D01*
X103361Y566071D01*
X102404Y563760D01*
X102078Y561280D01*
X102404Y558800D01*
X103361Y556489D01*
X104884Y554504D01*
X106868Y552982D01*
X109179Y552024D01*
X111659Y551698D01*
X114139Y552024D01*
X116450Y552982D01*
X118435Y554504D01*
X119958Y556489D01*
X120915Y558800D01*
X121241Y561280D01*
X120915Y563760D01*
X119958Y566071D01*
X118435Y568055D01*
X116450Y569578D01*
X114139Y570535D01*
X111659Y570862D01*
D02*
G37*
G36*
X86259D02*
X83779Y570535D01*
X81468Y569578D01*
X79484Y568055D01*
X77961Y566071D01*
X77004Y563760D01*
X76677Y561280D01*
X77004Y558800D01*
X77961Y556489D01*
X79484Y554504D01*
X81468Y552982D01*
X83779Y552024D01*
X86259Y551698D01*
X88739Y552024D01*
X91050Y552982D01*
X93035Y554504D01*
X94558Y556489D01*
X95515Y558800D01*
X95841Y561280D01*
X95515Y563760D01*
X94558Y566071D01*
X93035Y568055D01*
X91050Y569578D01*
X88739Y570535D01*
X86259Y570862D01*
D02*
G37*
G36*
X283210Y498877D02*
X280869Y498412D01*
X278884Y497086D01*
X277558Y495101D01*
X277092Y492760D01*
X277558Y490419D01*
X278884Y488434D01*
X278943Y488395D01*
Y487125D01*
X278884Y487085D01*
X277558Y485101D01*
X277092Y482760D01*
X277558Y480418D01*
X278802Y478558D01*
X278943Y478121D01*
Y477398D01*
X278802Y476962D01*
X277558Y475101D01*
X277092Y472760D01*
X277558Y470418D01*
X278802Y468558D01*
X278943Y468121D01*
Y467398D01*
X278802Y466962D01*
X277558Y465101D01*
X277092Y462760D01*
X277558Y460419D01*
X278802Y458558D01*
X278943Y458121D01*
Y457398D01*
X278802Y456962D01*
X277558Y455101D01*
X277092Y452760D01*
X277558Y450419D01*
X278802Y448558D01*
X278943Y448121D01*
Y447398D01*
X278802Y446962D01*
X277558Y445101D01*
X277092Y442760D01*
X277558Y440419D01*
X278884Y438434D01*
X280869Y437108D01*
X283210Y436642D01*
X285551Y437108D01*
X287536Y438434D01*
X288862Y440419D01*
X289328Y442760D01*
X288862Y445101D01*
X287618Y446962D01*
X287477Y447398D01*
Y448121D01*
X287618Y448558D01*
X288862Y450419D01*
X289328Y452760D01*
X288862Y455101D01*
X287618Y456962D01*
X287477Y457398D01*
Y458121D01*
X287618Y458558D01*
X288862Y460419D01*
X289328Y462760D01*
X288862Y465101D01*
X287618Y466962D01*
X287477Y467398D01*
Y468121D01*
X287618Y468558D01*
X288862Y470418D01*
X289328Y472760D01*
X288862Y475101D01*
X287618Y476962D01*
X287477Y477398D01*
Y478121D01*
X287618Y478558D01*
X288862Y480418D01*
X289328Y482760D01*
X288862Y485101D01*
X287536Y487085D01*
X287477Y487125D01*
Y488395D01*
X287536Y488434D01*
X288862Y490419D01*
X289328Y492760D01*
X288862Y495101D01*
X287536Y497086D01*
X285551Y498412D01*
X283210Y498877D01*
D02*
G37*
G36*
X46544Y478657D02*
X44203Y478191D01*
X42219Y476865D01*
X40893Y474881D01*
X40427Y472540D01*
X40893Y470199D01*
X42136Y468338D01*
X42277Y467901D01*
Y467178D01*
X42136Y466742D01*
X40893Y464881D01*
X40427Y462540D01*
X40893Y460199D01*
X42136Y458338D01*
X42277Y457901D01*
Y457178D01*
X42136Y456742D01*
X40893Y454881D01*
X40427Y452540D01*
X40893Y450199D01*
X42136Y448338D01*
X42277Y447901D01*
Y447178D01*
X42136Y446742D01*
X40893Y444881D01*
X40427Y442540D01*
X40893Y440199D01*
X42136Y438338D01*
X42277Y437901D01*
Y437178D01*
X42136Y436742D01*
X40893Y434881D01*
X40427Y432540D01*
X40893Y430199D01*
X42136Y428338D01*
X42277Y427901D01*
Y427178D01*
X42136Y426742D01*
X40893Y424881D01*
X40427Y422540D01*
X40893Y420199D01*
X42219Y418214D01*
X44203Y416888D01*
X46544Y416422D01*
X48886Y416888D01*
X50870Y418214D01*
X52196Y420199D01*
X52662Y422540D01*
X52196Y424881D01*
X50953Y426742D01*
X50812Y427178D01*
Y427901D01*
X50953Y428338D01*
X52196Y430199D01*
X52662Y432540D01*
X52196Y434881D01*
X50953Y436742D01*
X50812Y437178D01*
Y437901D01*
X50953Y438338D01*
X52196Y440199D01*
X52662Y442540D01*
X52196Y444881D01*
X50953Y446742D01*
X50812Y447178D01*
Y447901D01*
X50953Y448338D01*
X52196Y450199D01*
X52662Y452540D01*
X52196Y454881D01*
X50953Y456742D01*
X50812Y457178D01*
Y457901D01*
X50953Y458338D01*
X52196Y460199D01*
X52662Y462540D01*
X52196Y464881D01*
X50953Y466742D01*
X50812Y467178D01*
Y467901D01*
X50953Y468338D01*
X52196Y470199D01*
X52662Y472540D01*
X52196Y474881D01*
X50870Y476865D01*
X48886Y478191D01*
X46544Y478657D01*
D02*
G37*
G36*
X20320Y428682D02*
X17840Y428355D01*
X15529Y427398D01*
X13544Y425875D01*
X12021Y423891D01*
X11064Y421580D01*
X10738Y419100D01*
X11064Y416620D01*
X12021Y414309D01*
X13544Y412324D01*
X15529Y410802D01*
X17840Y409844D01*
X20320Y409518D01*
X22800Y409844D01*
X25111Y410802D01*
X27095Y412324D01*
X28618Y414309D01*
X29575Y416620D01*
X29902Y419100D01*
X29575Y421580D01*
X28618Y423891D01*
X27095Y425875D01*
X25111Y427398D01*
X22800Y428355D01*
X20320Y428682D01*
D02*
G37*
G36*
X417384Y478657D02*
X415043Y478191D01*
X413059Y476865D01*
X411733Y474881D01*
X411267Y472540D01*
X411733Y470199D01*
X412976Y468338D01*
X413117Y467901D01*
Y467178D01*
X412976Y466742D01*
X411733Y464881D01*
X411267Y462540D01*
X411733Y460199D01*
X412976Y458338D01*
X413117Y457901D01*
Y457178D01*
X412976Y456742D01*
X411733Y454881D01*
X411267Y452540D01*
X411733Y450199D01*
X412976Y448338D01*
X413117Y447901D01*
Y447178D01*
X412976Y446742D01*
X411733Y444881D01*
X411267Y442540D01*
X411733Y440199D01*
X412976Y438338D01*
X413117Y437901D01*
Y437178D01*
X412976Y436742D01*
X411733Y434881D01*
X411267Y432540D01*
X411733Y430199D01*
X412976Y428338D01*
X413117Y427901D01*
Y427178D01*
X412976Y426742D01*
X411733Y424881D01*
X411267Y422540D01*
X411733Y420199D01*
X413059Y418214D01*
X415043Y416888D01*
X417384Y416422D01*
X419726Y416888D01*
X421710Y418214D01*
X423036Y420199D01*
X423502Y422540D01*
X423036Y424881D01*
X421793Y426742D01*
X421651Y427178D01*
Y427901D01*
X421793Y428338D01*
X423036Y430199D01*
X423502Y432540D01*
X423036Y434881D01*
X421793Y436742D01*
X421651Y437178D01*
Y437901D01*
X421793Y438338D01*
X423036Y440199D01*
X423502Y442540D01*
X423036Y444881D01*
X421793Y446742D01*
X421651Y447178D01*
Y447901D01*
X421793Y448338D01*
X423036Y450199D01*
X423502Y452540D01*
X423036Y454881D01*
X421793Y456742D01*
X421651Y457178D01*
Y457901D01*
X421793Y458338D01*
X423036Y460199D01*
X423502Y462540D01*
X423036Y464881D01*
X421793Y466742D01*
X421651Y467178D01*
Y467901D01*
X421793Y468338D01*
X423036Y470199D01*
X423502Y472540D01*
X423036Y474881D01*
X421710Y476865D01*
X419726Y478191D01*
X417384Y478657D01*
D02*
G37*
G36*
X387965Y482350D02*
X385624Y481884D01*
X383639Y480558D01*
X382313Y478573D01*
X381847Y476232D01*
X382313Y473891D01*
X383556Y472030D01*
X383698Y471594D01*
Y470871D01*
X383556Y470434D01*
X382313Y468573D01*
X381847Y466232D01*
X382313Y463891D01*
X383639Y461907D01*
X383924Y461716D01*
Y460446D01*
X383639Y460256D01*
X382313Y458271D01*
X381847Y455930D01*
X382313Y453589D01*
X383639Y451604D01*
X384575Y450979D01*
Y449451D01*
X383639Y448826D01*
X382313Y446841D01*
X381847Y444500D01*
X382313Y442159D01*
X383639Y440174D01*
X384575Y439549D01*
Y438021D01*
X383639Y437396D01*
X382313Y435411D01*
X381847Y433070D01*
X382313Y430729D01*
X383639Y428744D01*
X384095Y428440D01*
Y427170D01*
X383639Y426865D01*
X382313Y424881D01*
X381847Y422540D01*
X382313Y420199D01*
X383639Y418214D01*
X385624Y416888D01*
X387965Y416422D01*
X390306Y416888D01*
X392290Y418214D01*
X393617Y420199D01*
X394082Y422540D01*
X393617Y424881D01*
X392290Y426865D01*
X391835Y427170D01*
Y428440D01*
X392290Y428744D01*
X393617Y430729D01*
X394082Y433070D01*
X393617Y435411D01*
X392290Y437396D01*
X391354Y438021D01*
Y439549D01*
X392290Y440174D01*
X393617Y442159D01*
X394082Y444500D01*
X393617Y446841D01*
X392290Y448826D01*
X391354Y449451D01*
Y450979D01*
X392290Y451604D01*
X393617Y453589D01*
X394082Y455930D01*
X393617Y458271D01*
X392290Y460256D01*
X392006Y460446D01*
Y461716D01*
X392290Y461907D01*
X393617Y463891D01*
X394082Y466232D01*
X393617Y468573D01*
X392373Y470434D01*
X392232Y470871D01*
Y471594D01*
X392373Y472030D01*
X393617Y473891D01*
X394082Y476232D01*
X393617Y478573D01*
X392290Y480558D01*
X390306Y481884D01*
X387965Y482350D01*
D02*
G37*
G36*
X547000Y413598D02*
X545049Y413210D01*
X543395Y412105D01*
X542290Y410451D01*
X541902Y408500D01*
X542290Y406549D01*
X543395Y404895D01*
X545049Y403790D01*
X547000Y403402D01*
X548951Y403790D01*
X550605Y404895D01*
X551710Y406549D01*
X552098Y408500D01*
X551710Y410451D01*
X550605Y412105D01*
X548951Y413210D01*
X547000Y413598D01*
D02*
G37*
G36*
X361580D02*
X359629Y413210D01*
X357975Y412105D01*
X356870Y410451D01*
X356482Y408500D01*
X356870Y406549D01*
X357975Y404895D01*
X359629Y403790D01*
X361580Y403402D01*
X363531Y403790D01*
X365185Y404895D01*
X366290Y406549D01*
X366678Y408500D01*
X366290Y410451D01*
X365185Y412105D01*
X363531Y413210D01*
X361580Y413598D01*
D02*
G37*
G36*
X917840D02*
X915889Y413210D01*
X914235Y412105D01*
X913130Y410451D01*
X912742Y408500D01*
X913130Y406549D01*
X914235Y404895D01*
X915889Y403790D01*
X917840Y403402D01*
X919791Y403790D01*
X921445Y404895D01*
X922550Y406549D01*
X922938Y408500D01*
X922550Y410451D01*
X921445Y412105D01*
X919791Y413210D01*
X917840Y413598D01*
D02*
G37*
G36*
X732420D02*
X730469Y413210D01*
X728815Y412105D01*
X727710Y410451D01*
X727322Y408500D01*
X727710Y406549D01*
X728815Y404895D01*
X730469Y403790D01*
X732420Y403402D01*
X734371Y403790D01*
X736025Y404895D01*
X737130Y406549D01*
X737518Y408500D01*
X737130Y410451D01*
X736025Y412105D01*
X734371Y413210D01*
X732420Y413598D01*
D02*
G37*
G36*
X573385Y482350D02*
X571044Y481884D01*
X569059Y480558D01*
X567733Y478573D01*
X567267Y476232D01*
X567733Y473891D01*
X568976Y472030D01*
X569118Y471594D01*
Y470871D01*
X568976Y470434D01*
X567733Y468573D01*
X567267Y466232D01*
X567733Y463891D01*
X569059Y461907D01*
X569344Y461716D01*
Y460446D01*
X569059Y460256D01*
X567733Y458271D01*
X567267Y455930D01*
X567733Y453589D01*
X569059Y451604D01*
X569995Y450979D01*
Y449451D01*
X569059Y448826D01*
X567733Y446841D01*
X567267Y444500D01*
X567733Y442159D01*
X569059Y440174D01*
X569995Y439549D01*
Y438021D01*
X569059Y437396D01*
X567733Y435411D01*
X567267Y433070D01*
X567733Y430729D01*
X569059Y428744D01*
X569515Y428440D01*
Y427170D01*
X569059Y426865D01*
X567733Y424881D01*
X567267Y422540D01*
X567733Y420199D01*
X569059Y418214D01*
X571044Y416888D01*
X573385Y416422D01*
X575726Y416888D01*
X577710Y418214D01*
X579037Y420199D01*
X579502Y422540D01*
X579037Y424881D01*
X577710Y426865D01*
X577255Y427170D01*
Y428440D01*
X577710Y428744D01*
X579037Y430729D01*
X579502Y433070D01*
X579037Y435411D01*
X577710Y437396D01*
X576774Y438021D01*
Y439549D01*
X577710Y440174D01*
X579037Y442159D01*
X579502Y444500D01*
X579037Y446841D01*
X577710Y448826D01*
X576774Y449451D01*
Y450979D01*
X577710Y451604D01*
X579037Y453589D01*
X579502Y455930D01*
X579037Y458271D01*
X577710Y460256D01*
X577425Y460446D01*
Y461716D01*
X577710Y461907D01*
X579037Y463891D01*
X579502Y466232D01*
X579037Y468573D01*
X577793Y470434D01*
X577652Y470871D01*
Y471594D01*
X577793Y472030D01*
X579037Y473891D01*
X579502Y476232D01*
X579037Y478573D01*
X577710Y480558D01*
X575726Y481884D01*
X573385Y482350D01*
D02*
G37*
G36*
X701805Y493638D02*
X699463Y493172D01*
X697479Y491846D01*
X696153Y489861D01*
X695687Y487520D01*
X696153Y485179D01*
X697396Y483318D01*
X697538Y482882D01*
Y482158D01*
X697396Y481722D01*
X696153Y479861D01*
X695687Y477520D01*
X696153Y475179D01*
X697479Y473194D01*
X697657Y473075D01*
Y471805D01*
X697479Y471686D01*
X696153Y469701D01*
X695687Y467360D01*
X696153Y465019D01*
X697479Y463034D01*
X697657Y462915D01*
Y461645D01*
X697479Y461526D01*
X696153Y459541D01*
X695687Y457200D01*
X696153Y454859D01*
X697479Y452874D01*
X697657Y452755D01*
Y451485D01*
X697479Y451366D01*
X696153Y449381D01*
X695687Y447040D01*
X696153Y444699D01*
X697479Y442714D01*
X697912Y442425D01*
Y441155D01*
X697479Y440865D01*
X696153Y438881D01*
X695687Y436540D01*
X696153Y434198D01*
X697479Y432214D01*
X699463Y430888D01*
X701805Y430422D01*
X704146Y430888D01*
X706130Y432214D01*
X707456Y434198D01*
X707922Y436540D01*
X707456Y438881D01*
X706130Y440865D01*
X705697Y441155D01*
Y442425D01*
X706130Y442714D01*
X707456Y444699D01*
X707922Y447040D01*
X707456Y449381D01*
X706130Y451366D01*
X705952Y451485D01*
Y452755D01*
X706130Y452874D01*
X707456Y454859D01*
X707922Y457200D01*
X707456Y459541D01*
X706130Y461526D01*
X705952Y461645D01*
Y462915D01*
X706130Y463034D01*
X707456Y465019D01*
X707922Y467360D01*
X707456Y469701D01*
X706130Y471686D01*
X705952Y471805D01*
Y473075D01*
X706130Y473194D01*
X707456Y475179D01*
X707922Y477520D01*
X707456Y479861D01*
X706213Y481722D01*
X706072Y482158D01*
Y482882D01*
X706213Y483318D01*
X707456Y485179D01*
X707922Y487520D01*
X707456Y489861D01*
X706130Y491846D01*
X704146Y493172D01*
X701805Y493638D01*
D02*
G37*
G36*
X516385D02*
X514043Y493172D01*
X512059Y491846D01*
X510733Y489861D01*
X510267Y487520D01*
X510733Y485179D01*
X511976Y483318D01*
X512118Y482882D01*
Y482158D01*
X511976Y481722D01*
X510733Y479861D01*
X510267Y477520D01*
X510733Y475179D01*
X512059Y473194D01*
X512237Y473075D01*
Y471805D01*
X512059Y471686D01*
X510733Y469701D01*
X510267Y467360D01*
X510733Y465019D01*
X512059Y463034D01*
X512237Y462915D01*
Y461645D01*
X512059Y461526D01*
X510733Y459541D01*
X510267Y457200D01*
X510733Y454859D01*
X512059Y452874D01*
X512237Y452755D01*
Y451485D01*
X512059Y451366D01*
X510733Y449381D01*
X510267Y447040D01*
X510733Y444699D01*
X512059Y442714D01*
X512492Y442425D01*
Y441155D01*
X512059Y440865D01*
X510733Y438881D01*
X510267Y436540D01*
X510733Y434198D01*
X512059Y432214D01*
X514043Y430888D01*
X516385Y430422D01*
X518726Y430888D01*
X520710Y432214D01*
X522036Y434198D01*
X522502Y436540D01*
X522036Y438881D01*
X520710Y440865D01*
X520277Y441155D01*
Y442425D01*
X520710Y442714D01*
X522036Y444699D01*
X522502Y447040D01*
X522036Y449381D01*
X520710Y451366D01*
X520532Y451485D01*
Y452755D01*
X520710Y452874D01*
X522036Y454859D01*
X522502Y457200D01*
X522036Y459541D01*
X520710Y461526D01*
X520532Y461645D01*
Y462915D01*
X520710Y463034D01*
X522036Y465019D01*
X522502Y467360D01*
X522036Y469701D01*
X520710Y471686D01*
X520532Y471805D01*
Y473075D01*
X520710Y473194D01*
X522036Y475179D01*
X522502Y477520D01*
X522036Y479861D01*
X520793Y481722D01*
X520652Y482158D01*
Y482882D01*
X520793Y483318D01*
X522036Y485179D01*
X522502Y487520D01*
X522036Y489861D01*
X520710Y491846D01*
X518726Y493172D01*
X516385Y493638D01*
D02*
G37*
G36*
X20320Y454082D02*
X17840Y453755D01*
X15529Y452798D01*
X13544Y451275D01*
X12021Y449291D01*
X11064Y446980D01*
X10738Y444500D01*
X11064Y442020D01*
X12021Y439709D01*
X13544Y437724D01*
X15529Y436202D01*
X17840Y435244D01*
X20320Y434918D01*
X22800Y435244D01*
X25111Y436202D01*
X27095Y437724D01*
X28618Y439709D01*
X29575Y442020D01*
X29902Y444500D01*
X29575Y446980D01*
X28618Y449291D01*
X27095Y451275D01*
X25111Y452798D01*
X22800Y453755D01*
X20320Y454082D01*
D02*
G37*
G36*
X887225Y493638D02*
X884883Y493172D01*
X882899Y491846D01*
X881573Y489861D01*
X881107Y487520D01*
X881573Y485179D01*
X882816Y483318D01*
X882958Y482882D01*
Y482158D01*
X882816Y481722D01*
X881573Y479861D01*
X881107Y477520D01*
X881573Y475179D01*
X882899Y473194D01*
X883077Y473075D01*
Y471805D01*
X882899Y471686D01*
X881573Y469701D01*
X881107Y467360D01*
X881573Y465019D01*
X882899Y463034D01*
X883077Y462915D01*
Y461645D01*
X882899Y461526D01*
X881573Y459541D01*
X881107Y457200D01*
X881573Y454859D01*
X882899Y452874D01*
X883077Y452755D01*
Y451485D01*
X882899Y451366D01*
X881573Y449381D01*
X881107Y447040D01*
X881573Y444699D01*
X882899Y442714D01*
X883332Y442425D01*
Y441155D01*
X882899Y440865D01*
X881573Y438881D01*
X881107Y436540D01*
X881573Y434198D01*
X882899Y432214D01*
X884883Y430888D01*
X887225Y430422D01*
X889566Y430888D01*
X891550Y432214D01*
X892876Y434198D01*
X893342Y436540D01*
X892876Y438881D01*
X891550Y440865D01*
X891117Y441155D01*
Y442425D01*
X891550Y442714D01*
X892876Y444699D01*
X893342Y447040D01*
X892876Y449381D01*
X891550Y451366D01*
X891372Y451485D01*
Y452755D01*
X891550Y452874D01*
X892876Y454859D01*
X893342Y457200D01*
X892876Y459541D01*
X891550Y461526D01*
X891372Y461645D01*
Y462915D01*
X891550Y463034D01*
X892876Y465019D01*
X893342Y467360D01*
X892876Y469701D01*
X891550Y471686D01*
X891372Y471805D01*
Y473075D01*
X891550Y473194D01*
X892876Y475179D01*
X893342Y477520D01*
X892876Y479861D01*
X891633Y481722D01*
X891492Y482158D01*
Y482882D01*
X891633Y483318D01*
X892876Y485179D01*
X893342Y487520D01*
X892876Y489861D01*
X891550Y491846D01*
X889566Y493172D01*
X887225Y493638D01*
D02*
G37*
G36*
X758805Y482350D02*
X756464Y481884D01*
X754479Y480558D01*
X753153Y478573D01*
X752687Y476232D01*
X753153Y473891D01*
X754396Y472030D01*
X754538Y471594D01*
Y470871D01*
X754396Y470434D01*
X753153Y468573D01*
X752687Y466232D01*
X753153Y463891D01*
X754479Y461907D01*
X754764Y461716D01*
Y460446D01*
X754479Y460256D01*
X753153Y458271D01*
X752687Y455930D01*
X753153Y453589D01*
X754479Y451604D01*
X755415Y450979D01*
Y449451D01*
X754479Y448826D01*
X753153Y446841D01*
X752687Y444500D01*
X753153Y442159D01*
X754479Y440174D01*
X755415Y439549D01*
Y438021D01*
X754479Y437396D01*
X753153Y435411D01*
X752687Y433070D01*
X753153Y430729D01*
X754479Y428744D01*
X754934Y428440D01*
Y427170D01*
X754479Y426865D01*
X753153Y424881D01*
X752687Y422540D01*
X753153Y420199D01*
X754479Y418214D01*
X756464Y416888D01*
X758805Y416422D01*
X761146Y416888D01*
X763130Y418214D01*
X764457Y420199D01*
X764922Y422540D01*
X764457Y424881D01*
X763130Y426865D01*
X762675Y427170D01*
Y428440D01*
X763130Y428744D01*
X764457Y430729D01*
X764922Y433070D01*
X764457Y435411D01*
X763130Y437396D01*
X762194Y438021D01*
Y439549D01*
X763130Y440174D01*
X764457Y442159D01*
X764922Y444500D01*
X764457Y446841D01*
X763130Y448826D01*
X762194Y449451D01*
Y450979D01*
X763130Y451604D01*
X764457Y453589D01*
X764922Y455930D01*
X764457Y458271D01*
X763130Y460256D01*
X762846Y460446D01*
Y461716D01*
X763130Y461907D01*
X764457Y463891D01*
X764922Y466232D01*
X764457Y468573D01*
X763213Y470434D01*
X763072Y470871D01*
Y471594D01*
X763213Y472030D01*
X764457Y473891D01*
X764922Y476232D01*
X764457Y478573D01*
X763130Y480558D01*
X761146Y481884D01*
X758805Y482350D01*
D02*
G37*
G36*
X602804Y478657D02*
X600463Y478191D01*
X598479Y476865D01*
X597153Y474881D01*
X596687Y472540D01*
X597153Y470199D01*
X598396Y468338D01*
X598537Y467901D01*
Y467178D01*
X598396Y466742D01*
X597153Y464881D01*
X596687Y462540D01*
X597153Y460199D01*
X598396Y458338D01*
X598537Y457901D01*
Y457178D01*
X598396Y456742D01*
X597153Y454881D01*
X596687Y452540D01*
X597153Y450199D01*
X598396Y448338D01*
X598537Y447901D01*
Y447178D01*
X598396Y446742D01*
X597153Y444881D01*
X596687Y442540D01*
X597153Y440199D01*
X598396Y438338D01*
X598537Y437901D01*
Y437178D01*
X598396Y436742D01*
X597153Y434881D01*
X596687Y432540D01*
X597153Y430199D01*
X598396Y428338D01*
X598537Y427901D01*
Y427178D01*
X598396Y426742D01*
X597153Y424881D01*
X596687Y422540D01*
X597153Y420199D01*
X598479Y418214D01*
X600463Y416888D01*
X602804Y416422D01*
X605146Y416888D01*
X607130Y418214D01*
X608456Y420199D01*
X608922Y422540D01*
X608456Y424881D01*
X607213Y426742D01*
X607071Y427178D01*
Y427901D01*
X607213Y428338D01*
X608456Y430199D01*
X608922Y432540D01*
X608456Y434881D01*
X607213Y436742D01*
X607071Y437178D01*
Y437901D01*
X607213Y438338D01*
X608456Y440199D01*
X608922Y442540D01*
X608456Y444881D01*
X607213Y446742D01*
X607071Y447178D01*
Y447901D01*
X607213Y448338D01*
X608456Y450199D01*
X608922Y452540D01*
X608456Y454881D01*
X607213Y456742D01*
X607071Y457178D01*
Y457901D01*
X607213Y458338D01*
X608456Y460199D01*
X608922Y462540D01*
X608456Y464881D01*
X607213Y466742D01*
X607071Y467178D01*
Y467901D01*
X607213Y468338D01*
X608456Y470199D01*
X608922Y472540D01*
X608456Y474881D01*
X607130Y476865D01*
X605146Y478191D01*
X602804Y478657D01*
D02*
G37*
G36*
X330965Y493638D02*
X328623Y493172D01*
X326639Y491846D01*
X325313Y489861D01*
X324847Y487520D01*
X325313Y485179D01*
X326556Y483318D01*
X326698Y482882D01*
Y482158D01*
X326556Y481722D01*
X325313Y479861D01*
X324847Y477520D01*
X325313Y475179D01*
X326639Y473194D01*
X326817Y473075D01*
Y471805D01*
X326639Y471686D01*
X325313Y469701D01*
X324847Y467360D01*
X325313Y465019D01*
X326639Y463034D01*
X326817Y462915D01*
Y461645D01*
X326639Y461526D01*
X325313Y459541D01*
X324847Y457200D01*
X325313Y454859D01*
X326639Y452874D01*
X326817Y452755D01*
Y451485D01*
X326639Y451366D01*
X325313Y449381D01*
X324847Y447040D01*
X325313Y444699D01*
X326639Y442714D01*
X327072Y442425D01*
Y441155D01*
X326639Y440865D01*
X325313Y438881D01*
X324847Y436540D01*
X325313Y434198D01*
X326639Y432214D01*
X328623Y430888D01*
X330965Y430422D01*
X333306Y430888D01*
X335290Y432214D01*
X336616Y434198D01*
X337082Y436540D01*
X336616Y438881D01*
X335290Y440865D01*
X334857Y441155D01*
Y442425D01*
X335290Y442714D01*
X336616Y444699D01*
X337082Y447040D01*
X336616Y449381D01*
X335290Y451366D01*
X335112Y451485D01*
Y452755D01*
X335290Y452874D01*
X336616Y454859D01*
X337082Y457200D01*
X336616Y459541D01*
X335290Y461526D01*
X335112Y461645D01*
Y462915D01*
X335290Y463034D01*
X336616Y465019D01*
X337082Y467360D01*
X336616Y469701D01*
X335290Y471686D01*
X335112Y471805D01*
Y473075D01*
X335290Y473194D01*
X336616Y475179D01*
X337082Y477520D01*
X336616Y479861D01*
X335373Y481722D01*
X335232Y482158D01*
Y482882D01*
X335373Y483318D01*
X336616Y485179D01*
X337082Y487520D01*
X336616Y489861D01*
X335290Y491846D01*
X333306Y493172D01*
X330965Y493638D01*
D02*
G37*
G36*
X788224Y478657D02*
X785883Y478191D01*
X783899Y476865D01*
X782573Y474881D01*
X782107Y472540D01*
X782573Y470199D01*
X783816Y468338D01*
X783958Y467901D01*
Y467178D01*
X783816Y466742D01*
X782573Y464881D01*
X782107Y462540D01*
X782573Y460199D01*
X783816Y458338D01*
X783958Y457901D01*
Y457178D01*
X783816Y456742D01*
X782573Y454881D01*
X782107Y452540D01*
X782573Y450199D01*
X783816Y448338D01*
X783958Y447901D01*
Y447178D01*
X783816Y446742D01*
X782573Y444881D01*
X782107Y442540D01*
X782573Y440199D01*
X783816Y438338D01*
X783958Y437901D01*
Y437178D01*
X783816Y436742D01*
X782573Y434881D01*
X782107Y432540D01*
X782573Y430199D01*
X783816Y428338D01*
X783958Y427901D01*
Y427178D01*
X783816Y426742D01*
X782573Y424881D01*
X782107Y422540D01*
X782573Y420199D01*
X783899Y418214D01*
X785883Y416888D01*
X788224Y416422D01*
X790566Y416888D01*
X792550Y418214D01*
X793876Y420199D01*
X794342Y422540D01*
X793876Y424881D01*
X792633Y426742D01*
X792492Y427178D01*
Y427901D01*
X792633Y428338D01*
X793876Y430199D01*
X794342Y432540D01*
X793876Y434881D01*
X792633Y436742D01*
X792492Y437178D01*
Y437901D01*
X792633Y438338D01*
X793876Y440199D01*
X794342Y442540D01*
X793876Y444881D01*
X792633Y446742D01*
X792492Y447178D01*
Y447901D01*
X792633Y448338D01*
X793876Y450199D01*
X794342Y452540D01*
X793876Y454881D01*
X792633Y456742D01*
X792492Y457178D01*
Y457901D01*
X792633Y458338D01*
X793876Y460199D01*
X794342Y462540D01*
X793876Y464881D01*
X792633Y466742D01*
X792492Y467178D01*
Y467901D01*
X792633Y468338D01*
X793876Y470199D01*
X794342Y472540D01*
X793876Y474881D01*
X792550Y476865D01*
X790566Y478191D01*
X788224Y478657D01*
D02*
G37*
G36*
X485140Y354022D02*
X482660Y353695D01*
X480349Y352738D01*
X478364Y351215D01*
X476842Y349231D01*
X475884Y346920D01*
X475558Y344440D01*
X475884Y341960D01*
X476842Y339649D01*
X478364Y337664D01*
X480349Y336142D01*
X482660Y335184D01*
X485140Y334858D01*
X487620Y335184D01*
X489931Y336142D01*
X491915Y337664D01*
X493438Y339649D01*
X494395Y341960D01*
X494722Y344440D01*
X494395Y346920D01*
X493438Y349231D01*
X491915Y351215D01*
X489931Y352738D01*
X487620Y353695D01*
X485140Y354022D01*
D02*
G37*
G36*
X359000Y282598D02*
X357049Y282210D01*
X355395Y281105D01*
X354290Y279451D01*
X353902Y277500D01*
X354290Y275549D01*
X355395Y273895D01*
X357049Y272790D01*
X359000Y272402D01*
X360951Y272790D01*
X362605Y273895D01*
X363710Y275549D01*
X364098Y277500D01*
X363710Y279451D01*
X362605Y281105D01*
X360951Y282210D01*
X359000Y282598D01*
D02*
G37*
G36*
X445000Y280098D02*
X443049Y279710D01*
X441395Y278605D01*
X440290Y276951D01*
X439902Y275000D01*
X440290Y273049D01*
X441395Y271395D01*
X443049Y270290D01*
X445000Y269902D01*
X446951Y270290D01*
X448605Y271395D01*
X449710Y273049D01*
X450098Y275000D01*
X449710Y276951D01*
X448605Y278605D01*
X446951Y279710D01*
X445000Y280098D01*
D02*
G37*
G36*
X261500Y284598D02*
X259549Y284210D01*
X257895Y283105D01*
X256790Y281451D01*
X256402Y279500D01*
X256790Y277549D01*
X257895Y275895D01*
X259549Y274790D01*
X261500Y274402D01*
X263451Y274790D01*
X265105Y275895D01*
X266210Y277549D01*
X266598Y279500D01*
X266210Y281451D01*
X265105Y283105D01*
X263451Y284210D01*
X261500Y284598D01*
D02*
G37*
G36*
X326000Y283098D02*
X324049Y282710D01*
X322395Y281605D01*
X321290Y279951D01*
X320902Y278000D01*
X321290Y276049D01*
X321465Y275786D01*
X320881Y274375D01*
X320049Y274210D01*
X318395Y273105D01*
X318301Y272963D01*
X316952Y273232D01*
X316710Y274451D01*
X315605Y276105D01*
X313951Y277210D01*
X312000Y277598D01*
X310049Y277210D01*
X308395Y276105D01*
X307290Y274451D01*
X306902Y272500D01*
X307290Y270549D01*
X308395Y268895D01*
X310049Y267790D01*
X312000Y267402D01*
X313951Y267790D01*
X315605Y268895D01*
X315699Y269037D01*
X317048Y268768D01*
X317290Y267549D01*
X318395Y265895D01*
X320049Y264790D01*
X322000Y264402D01*
X323951Y264790D01*
X325605Y265895D01*
X326710Y267549D01*
X327098Y269500D01*
X326710Y271451D01*
X326534Y271714D01*
X327119Y273125D01*
X327951Y273290D01*
X329605Y274395D01*
X330710Y276049D01*
X331098Y278000D01*
X330710Y279951D01*
X329605Y281605D01*
X327951Y282710D01*
X326000Y283098D01*
D02*
G37*
G36*
X580390Y287712D02*
X577910Y287385D01*
X575599Y286428D01*
X573614Y284905D01*
X572091Y282921D01*
X571134Y280610D01*
X570808Y278130D01*
X571134Y275650D01*
X572091Y273339D01*
X573614Y271354D01*
X575599Y269832D01*
X577910Y268874D01*
X580390Y268548D01*
X582870Y268874D01*
X585181Y269832D01*
X587165Y271354D01*
X588688Y273339D01*
X589645Y275650D01*
X589972Y278130D01*
X589645Y280610D01*
X588688Y282921D01*
X587165Y284905D01*
X585181Y286428D01*
X582870Y287385D01*
X580390Y287712D01*
D02*
G37*
G36*
X494030D02*
X491550Y287385D01*
X489239Y286428D01*
X487254Y284905D01*
X485732Y282921D01*
X484774Y280610D01*
X484448Y278130D01*
X484774Y275650D01*
X485732Y273339D01*
X487254Y271354D01*
X489239Y269832D01*
X491550Y268874D01*
X494030Y268548D01*
X496510Y268874D01*
X498821Y269832D01*
X500805Y271354D01*
X502328Y273339D01*
X503285Y275650D01*
X503612Y278130D01*
X503285Y280610D01*
X502328Y282921D01*
X500805Y284905D01*
X498821Y286428D01*
X496510Y287385D01*
X494030Y287712D01*
D02*
G37*
G36*
X631190D02*
X628710Y287385D01*
X626399Y286428D01*
X624414Y284905D01*
X622892Y282921D01*
X621934Y280610D01*
X621608Y278130D01*
X621934Y275650D01*
X622892Y273339D01*
X624414Y271354D01*
X626399Y269832D01*
X628710Y268874D01*
X631190Y268548D01*
X633670Y268874D01*
X635981Y269832D01*
X637965Y271354D01*
X639488Y273339D01*
X640445Y275650D01*
X640772Y278130D01*
X640445Y280610D01*
X639488Y282921D01*
X637965Y284905D01*
X635981Y286428D01*
X633670Y287385D01*
X631190Y287712D01*
D02*
G37*
G36*
X605790D02*
X603310Y287385D01*
X600999Y286428D01*
X599014Y284905D01*
X597491Y282921D01*
X596534Y280610D01*
X596208Y278130D01*
X596534Y275650D01*
X597491Y273339D01*
X599014Y271354D01*
X600999Y269832D01*
X603310Y268874D01*
X605790Y268548D01*
X608270Y268874D01*
X610581Y269832D01*
X612565Y271354D01*
X614088Y273339D01*
X615045Y275650D01*
X615372Y278130D01*
X615045Y280610D01*
X614088Y282921D01*
X612565Y284905D01*
X610581Y286428D01*
X608270Y287385D01*
X605790Y287712D01*
D02*
G37*
G36*
X285000Y286598D02*
X283049Y286210D01*
X281395Y285105D01*
X280290Y283451D01*
X279902Y281500D01*
X280290Y279549D01*
X281395Y277895D01*
X283049Y276790D01*
X285000Y276402D01*
X286951Y276790D01*
X288605Y277895D01*
X289710Y279549D01*
X290098Y281500D01*
X289710Y283451D01*
X288605Y285105D01*
X286951Y286210D01*
X285000Y286598D01*
D02*
G37*
G36*
X447500Y295598D02*
X445549Y295210D01*
X443895Y294105D01*
X442790Y292451D01*
X442402Y290500D01*
X442790Y288549D01*
X443895Y286895D01*
X445549Y285790D01*
X447500Y285402D01*
X449451Y285790D01*
X451105Y286895D01*
X452210Y288549D01*
X452598Y290500D01*
X452210Y292451D01*
X451105Y294105D01*
X449451Y295210D01*
X447500Y295598D01*
D02*
G37*
G36*
X144000Y295597D02*
X142049Y295209D01*
X140395Y294104D01*
X139290Y292450D01*
X138902Y290499D01*
X139290Y288549D01*
X140395Y286895D01*
X142049Y285790D01*
X144000Y285401D01*
X145951Y285790D01*
X147605Y286895D01*
X148710Y288549D01*
X149098Y290499D01*
X148710Y292450D01*
X147605Y294104D01*
X145951Y295209D01*
X144000Y295597D01*
D02*
G37*
G36*
X21000Y303098D02*
X19049Y302710D01*
X17395Y301605D01*
X16290Y299951D01*
X15902Y298000D01*
X16290Y296049D01*
X17395Y294395D01*
X19049Y293290D01*
X21000Y292902D01*
X22951Y293290D01*
X24605Y294395D01*
X25710Y296049D01*
X26098Y298000D01*
X25710Y299951D01*
X24605Y301605D01*
X22951Y302710D01*
X21000Y303098D01*
D02*
G37*
G36*
X60560Y300215D02*
X58218Y299750D01*
X56234Y298424D01*
X54908Y296439D01*
X54442Y294098D01*
X54908Y291757D01*
X56234Y289772D01*
X58218Y288446D01*
X60560Y287980D01*
X62901Y288446D01*
X64885Y289772D01*
X66211Y291757D01*
X66677Y294098D01*
X66211Y296439D01*
X64885Y298424D01*
X62901Y299750D01*
X60560Y300215D01*
D02*
G37*
G36*
X100000Y288098D02*
X98049Y287710D01*
X96395Y286605D01*
X95290Y284951D01*
X94902Y283000D01*
X95290Y281049D01*
X96395Y279395D01*
X98049Y278290D01*
X100000Y277902D01*
X101951Y278290D01*
X103605Y279395D01*
X104710Y281049D01*
X105098Y283000D01*
X104710Y284951D01*
X103605Y286605D01*
X101951Y287710D01*
X100000Y288098D01*
D02*
G37*
G36*
X767500Y287098D02*
X765549Y286710D01*
X763895Y285605D01*
X762790Y283951D01*
X762402Y282000D01*
X762790Y280049D01*
X763895Y278395D01*
X765549Y277290D01*
X767500Y276902D01*
X769451Y277290D01*
X771105Y278395D01*
X772210Y280049D01*
X772598Y282000D01*
X772210Y283951D01*
X771105Y285605D01*
X769451Y286710D01*
X767500Y287098D01*
D02*
G37*
G36*
X984400Y302682D02*
X981920Y302355D01*
X979609Y301398D01*
X977624Y299875D01*
X976102Y297891D01*
X975144Y295580D01*
X974818Y293100D01*
X975144Y290620D01*
X976102Y288309D01*
X977624Y286324D01*
X979609Y284802D01*
X981920Y283844D01*
X984400Y283518D01*
X986880Y283844D01*
X989191Y284802D01*
X991175Y286324D01*
X992698Y288309D01*
X993655Y290620D01*
X993982Y293100D01*
X993655Y295580D01*
X992698Y297891D01*
X991175Y299875D01*
X989191Y301398D01*
X986880Y302355D01*
X984400Y302682D01*
D02*
G37*
G36*
X959000D02*
X956520Y302355D01*
X954209Y301398D01*
X952224Y299875D01*
X950702Y297891D01*
X949744Y295580D01*
X949418Y293100D01*
X949744Y290620D01*
X950702Y288309D01*
X952224Y286324D01*
X954209Y284802D01*
X956520Y283844D01*
X959000Y283518D01*
X961480Y283844D01*
X963791Y284802D01*
X965775Y286324D01*
X967298Y288309D01*
X968255Y290620D01*
X968582Y293100D01*
X968255Y295580D01*
X967298Y297891D01*
X965775Y299875D01*
X963791Y301398D01*
X961480Y302355D01*
X959000Y302682D01*
D02*
G37*
G36*
X468630Y287712D02*
X466150Y287385D01*
X463839Y286428D01*
X461854Y284905D01*
X460331Y282921D01*
X459374Y280610D01*
X459048Y278130D01*
X459374Y275650D01*
X460331Y273339D01*
X461854Y271354D01*
X463839Y269832D01*
X466150Y268874D01*
X468630Y268548D01*
X471110Y268874D01*
X473421Y269832D01*
X475405Y271354D01*
X476928Y273339D01*
X477885Y275650D01*
X478212Y278130D01*
X477885Y280610D01*
X476928Y282921D01*
X475405Y284905D01*
X473421Y286428D01*
X471110Y287385D01*
X468630Y287712D01*
D02*
G37*
G36*
X297500Y253598D02*
X295549Y253210D01*
X293895Y252105D01*
X292790Y250451D01*
X292402Y248500D01*
X292790Y246549D01*
X293895Y244895D01*
X295549Y243790D01*
X297500Y243402D01*
X299451Y243790D01*
X301105Y244895D01*
X302210Y246549D01*
X302598Y248500D01*
X302210Y250451D01*
X301105Y252105D01*
X299451Y253210D01*
X297500Y253598D01*
D02*
G37*
G36*
X535000Y252598D02*
X533049Y252210D01*
X531395Y251105D01*
X530290Y249451D01*
X529902Y247500D01*
X530290Y245549D01*
X531395Y243895D01*
X533049Y242790D01*
X535000Y242402D01*
X536951Y242790D01*
X538605Y243895D01*
X539710Y245549D01*
X540098Y247500D01*
X539710Y249451D01*
X538605Y251105D01*
X536951Y252210D01*
X535000Y252598D01*
D02*
G37*
G36*
X464000Y260598D02*
X462049Y260210D01*
X460395Y259105D01*
X459290Y257451D01*
X458902Y255500D01*
X459290Y253549D01*
X460395Y251895D01*
X462049Y250790D01*
X464000Y250402D01*
X465951Y250790D01*
X467604Y251895D01*
X468709Y253549D01*
X469098Y255500D01*
X468709Y257451D01*
X467604Y259105D01*
X465951Y260210D01*
X464000Y260598D01*
D02*
G37*
G36*
X808000Y295098D02*
X806049Y294710D01*
X804395Y293605D01*
X803290Y291951D01*
X802902Y290000D01*
X803136Y288822D01*
X760164Y245850D01*
X758994Y246476D01*
X759098Y247000D01*
X758710Y248951D01*
X757605Y250604D01*
Y251395D01*
X758710Y253049D01*
X759098Y255000D01*
X758710Y256951D01*
X757605Y258605D01*
X755951Y259710D01*
X754000Y260098D01*
X752049Y259710D01*
X750395Y258605D01*
X749290Y256951D01*
X748902Y255000D01*
X749290Y253049D01*
X750395Y251395D01*
Y250604D01*
X749290Y248951D01*
X748902Y247000D01*
X749290Y245049D01*
X750395Y243395D01*
X752049Y242290D01*
X752766Y242147D01*
Y240852D01*
X752049Y240710D01*
X750395Y239604D01*
X749290Y237951D01*
X748902Y236000D01*
X749290Y234049D01*
X750395Y232395D01*
X752049Y231290D01*
X754000Y230902D01*
X755951Y231290D01*
X757605Y232395D01*
X758710Y234049D01*
X758952Y235265D01*
X808734Y285048D01*
X809951Y285290D01*
X811605Y286395D01*
X812710Y288049D01*
X813098Y290000D01*
X812710Y291951D01*
X811605Y293605D01*
X809951Y294710D01*
X808000Y295098D01*
D02*
G37*
G36*
X367500Y245598D02*
X365549Y245210D01*
X363895Y244105D01*
X362790Y242451D01*
X362402Y240500D01*
X362487Y240074D01*
X361290Y239579D01*
X360605Y240605D01*
X358951Y241710D01*
X357000Y242098D01*
X355049Y241710D01*
X353395Y240605D01*
X352290Y238951D01*
X351902Y237000D01*
X352290Y235049D01*
X353395Y233395D01*
X355049Y232290D01*
X357000Y231902D01*
X358951Y232290D01*
X360605Y233395D01*
X361710Y235049D01*
X362098Y237000D01*
X362013Y237426D01*
X363210Y237921D01*
X363895Y236895D01*
X365549Y235790D01*
X367500Y235402D01*
X369451Y235790D01*
X371105Y236895D01*
X372210Y238549D01*
X372598Y240500D01*
X372210Y242451D01*
X371105Y244105D01*
X369451Y245210D01*
X367500Y245598D01*
D02*
G37*
G36*
X857170Y237508D02*
X855219Y237120D01*
X853995Y236302D01*
X852771Y237120D01*
X850820Y237508D01*
X848869Y237120D01*
X847645Y236302D01*
X846421Y237120D01*
X844470Y237508D01*
X842519Y237120D01*
X840865Y236015D01*
X839760Y234361D01*
X839372Y232410D01*
X839760Y230459D01*
X840865Y228805D01*
X842519Y227700D01*
X844470Y227312D01*
X846421Y227700D01*
X847645Y228518D01*
X848869Y227700D01*
X850820Y227312D01*
X852771Y227700D01*
X853995Y228518D01*
X855219Y227700D01*
X857170Y227312D01*
X859121Y227700D01*
X860775Y228805D01*
X861880Y230459D01*
X862268Y232410D01*
X861880Y234361D01*
X860775Y236015D01*
X859121Y237120D01*
X857170Y237508D01*
D02*
G37*
G36*
X443500Y256098D02*
X441549Y255710D01*
X439895Y254605D01*
X438790Y252951D01*
X438402Y251000D01*
X438790Y249049D01*
X439895Y247395D01*
X441549Y246290D01*
X443500Y245902D01*
X444334Y246068D01*
X444902Y245500D01*
X445290Y243549D01*
X446395Y241895D01*
X448049Y240790D01*
X450000Y240402D01*
X451951Y240790D01*
X453605Y241895D01*
X454710Y243549D01*
X455098Y245500D01*
X454710Y247451D01*
X453605Y249105D01*
X451951Y250210D01*
X450000Y250598D01*
X449166Y250432D01*
X448598Y251000D01*
X448210Y252951D01*
X447105Y254605D01*
X445451Y255710D01*
X443500Y256098D01*
D02*
G37*
G36*
X337000Y250598D02*
X335049Y250210D01*
X333395Y249105D01*
X332290Y247451D01*
X331902Y245500D01*
X332290Y243549D01*
X333395Y241895D01*
X335049Y240790D01*
X337000Y240402D01*
X338951Y240790D01*
X340605Y241895D01*
X341710Y243549D01*
X342098Y245500D01*
X341710Y247451D01*
X340605Y249105D01*
X338951Y250210D01*
X337000Y250598D01*
D02*
G37*
G36*
X410000Y261698D02*
X408049Y261310D01*
X406395Y260205D01*
X405290Y258551D01*
X404902Y256600D01*
X405290Y254649D01*
X406395Y252995D01*
X408049Y251890D01*
X410000Y251502D01*
X411951Y251890D01*
X413605Y252995D01*
X414710Y254649D01*
X415098Y256600D01*
X414710Y258551D01*
X413605Y260205D01*
X411951Y261310D01*
X410000Y261698D01*
D02*
G37*
G36*
X984400Y277282D02*
X981920Y276955D01*
X979609Y275998D01*
X977624Y274475D01*
X976102Y272491D01*
X975144Y270180D01*
X974818Y267700D01*
X975144Y265220D01*
X976102Y262909D01*
X977624Y260924D01*
X979609Y259401D01*
X981920Y258444D01*
X984400Y258118D01*
X986880Y258444D01*
X989191Y259401D01*
X991175Y260924D01*
X992698Y262909D01*
X993655Y265220D01*
X993982Y267700D01*
X993655Y270180D01*
X992698Y272491D01*
X991175Y274475D01*
X989191Y275998D01*
X986880Y276955D01*
X984400Y277282D01*
D02*
G37*
G36*
X959000D02*
X956520Y276955D01*
X954209Y275998D01*
X952224Y274475D01*
X950702Y272491D01*
X949744Y270180D01*
X949418Y267700D01*
X949744Y265220D01*
X950702Y262909D01*
X952224Y260924D01*
X954209Y259401D01*
X956520Y258444D01*
X959000Y258118D01*
X961480Y258444D01*
X963791Y259401D01*
X965775Y260924D01*
X967298Y262909D01*
X968255Y265220D01*
X968582Y267700D01*
X968255Y270180D01*
X967298Y272491D01*
X965775Y274475D01*
X963791Y275998D01*
X961480Y276955D01*
X959000Y277282D01*
D02*
G37*
G36*
X519430Y287712D02*
X516950Y287385D01*
X514639Y286428D01*
X512654Y284905D01*
X511132Y282921D01*
X510174Y280610D01*
X509848Y278130D01*
X510174Y275650D01*
X511132Y273339D01*
X512654Y271354D01*
X514639Y269832D01*
X516950Y268874D01*
X519430Y268548D01*
X521910Y268874D01*
X524221Y269832D01*
X526205Y271354D01*
X527728Y273339D01*
X528607Y273085D01*
X528921Y272901D01*
X529290Y271049D01*
X530395Y269395D01*
X532049Y268290D01*
X534000Y267902D01*
X535951Y268290D01*
X537604Y269395D01*
X538710Y271049D01*
X539098Y273000D01*
X538710Y274951D01*
X537604Y276604D01*
X535951Y277710D01*
X534000Y278098D01*
X532049Y277710D01*
X530395Y276604D01*
X530018Y276040D01*
X528797Y276499D01*
X529012Y278130D01*
X528685Y280610D01*
X527728Y282921D01*
X526205Y284905D01*
X524221Y286428D01*
X521910Y287385D01*
X519430Y287712D01*
D02*
G37*
G36*
X271500Y275598D02*
X269549Y275210D01*
X267895Y274105D01*
X266790Y272451D01*
X266402Y270500D01*
X266790Y268549D01*
X267895Y266895D01*
X269549Y265790D01*
X271500Y265402D01*
X273451Y265790D01*
X275105Y266895D01*
X276210Y268549D01*
X276598Y270500D01*
X276210Y272451D01*
X275105Y274105D01*
X273451Y275210D01*
X271500Y275598D01*
D02*
G37*
G36*
X485500Y265598D02*
X483549Y265210D01*
X481895Y264105D01*
X480790Y262451D01*
X480402Y260500D01*
X480790Y258549D01*
X481895Y256895D01*
X483549Y255790D01*
X485500Y255402D01*
X487451Y255790D01*
X489105Y256895D01*
X490210Y258549D01*
X490598Y260500D01*
X490210Y262451D01*
X489105Y264105D01*
X487451Y265210D01*
X485500Y265598D01*
D02*
G37*
G36*
X499000Y262598D02*
X497049Y262210D01*
X495395Y261105D01*
X494290Y259451D01*
X493902Y257500D01*
X494290Y255549D01*
X495395Y253895D01*
X497049Y252790D01*
X499000Y252402D01*
X500951Y252790D01*
X502605Y253895D01*
X503710Y255549D01*
X504098Y257500D01*
X503710Y259451D01*
X502605Y261105D01*
X500951Y262210D01*
X499000Y262598D01*
D02*
G37*
G36*
X258500Y267598D02*
X256549Y267210D01*
X254895Y266105D01*
X253790Y264451D01*
X253402Y262500D01*
X253790Y260549D01*
X254895Y258895D01*
X256549Y257790D01*
X258500Y257402D01*
X260451Y257790D01*
X262105Y258895D01*
X263210Y260549D01*
X263598Y262500D01*
X263210Y264451D01*
X262105Y266105D01*
X260451Y267210D01*
X258500Y267598D01*
D02*
G37*
G36*
X100000Y266598D02*
X98049Y266210D01*
X96395Y265105D01*
X95290Y263451D01*
X94902Y261500D01*
X95290Y259549D01*
X96395Y257895D01*
X98049Y256790D01*
X100000Y256402D01*
X101951Y256790D01*
X103605Y257895D01*
X104710Y259549D01*
X105098Y261500D01*
X104710Y263451D01*
X103605Y265105D01*
X101951Y266210D01*
X100000Y266598D01*
D02*
G37*
G36*
X368160Y324898D02*
X366209Y324510D01*
X364556Y323405D01*
X363450Y321751D01*
X363062Y319800D01*
X363450Y317849D01*
X364556Y316195D01*
X366209Y315090D01*
X368160Y314702D01*
X370111Y315090D01*
X371765Y316195D01*
X372870Y317849D01*
X373258Y319800D01*
X372870Y321751D01*
X371765Y323405D01*
X370111Y324510D01*
X368160Y324898D01*
D02*
G37*
G36*
X303000Y322597D02*
X301049Y322209D01*
X299395Y321104D01*
X298290Y319450D01*
X297902Y317499D01*
X298290Y315548D01*
X299395Y313894D01*
X301049Y312789D01*
X303000Y312401D01*
X304951Y312789D01*
X306605Y313894D01*
X307710Y315548D01*
X308098Y317499D01*
X307710Y319450D01*
X306605Y321104D01*
X304951Y322209D01*
X303000Y322597D01*
D02*
G37*
G36*
X257400Y327088D02*
X255449Y326700D01*
X253796Y325595D01*
X252690Y323941D01*
X252302Y321990D01*
X252690Y320039D01*
X253796Y318385D01*
X255449Y317280D01*
X257400Y316892D01*
X259351Y317280D01*
X261005Y318385D01*
X262110Y320039D01*
X262498Y321990D01*
X262110Y323941D01*
X261005Y325595D01*
X259351Y326700D01*
X257400Y327088D01*
D02*
G37*
G36*
X414500Y326098D02*
X412549Y325710D01*
X410895Y324605D01*
X409790Y322951D01*
X409402Y321000D01*
X409790Y319049D01*
X410895Y317395D01*
X412549Y316290D01*
X414500Y315902D01*
X416451Y316290D01*
X418105Y317395D01*
X419210Y319049D01*
X419598Y321000D01*
X419210Y322951D01*
X418105Y324605D01*
X416451Y325710D01*
X414500Y326098D01*
D02*
G37*
G36*
X959000Y328082D02*
X956520Y327755D01*
X954209Y326798D01*
X952224Y325275D01*
X950702Y323291D01*
X949744Y320980D01*
X949418Y318500D01*
X949744Y316020D01*
X950702Y313709D01*
X952224Y311724D01*
X954209Y310201D01*
X956520Y309244D01*
X959000Y308918D01*
X961480Y309244D01*
X963791Y310201D01*
X965775Y311724D01*
X967298Y313709D01*
X968255Y316020D01*
X968582Y318500D01*
X968255Y320980D01*
X967298Y323291D01*
X965775Y325275D01*
X963791Y326798D01*
X961480Y327755D01*
X959000Y328082D01*
D02*
G37*
G36*
X520540Y343190D02*
X511790D01*
Y334440D01*
X520540D01*
Y343190D01*
D02*
G37*
G36*
X286000Y320098D02*
X284049Y319710D01*
X282395Y318605D01*
X281290Y316951D01*
X280902Y315000D01*
X281290Y313049D01*
X282395Y311395D01*
X284049Y310290D01*
X286000Y309902D01*
X287951Y310290D01*
X289605Y311395D01*
X290710Y313049D01*
X291098Y315000D01*
X290710Y316951D01*
X289605Y318605D01*
X287951Y319710D01*
X286000Y320098D01*
D02*
G37*
G36*
X984400Y328082D02*
X981920Y327755D01*
X979609Y326798D01*
X977624Y325275D01*
X976102Y323291D01*
X975144Y320980D01*
X974818Y318500D01*
X975144Y316020D01*
X976102Y313709D01*
X977624Y311724D01*
X979609Y310201D01*
X981920Y309244D01*
X984400Y308918D01*
X986880Y309244D01*
X989191Y310201D01*
X991175Y311724D01*
X992698Y313709D01*
X993655Y316020D01*
X993982Y318500D01*
X993655Y320980D01*
X992698Y323291D01*
X991175Y325275D01*
X989191Y326798D01*
X986880Y327755D01*
X984400Y328082D01*
D02*
G37*
G36*
X212500Y327597D02*
X210549Y327209D01*
X208895Y326104D01*
X207790Y324450D01*
X207402Y322499D01*
X207790Y320549D01*
X208895Y318895D01*
X210549Y317789D01*
X212500Y317401D01*
X214450Y317789D01*
X216104Y318895D01*
X217209Y320549D01*
X217598Y322499D01*
X217209Y324450D01*
X216104Y326104D01*
X214450Y327209D01*
X212500Y327597D01*
D02*
G37*
G36*
X316500Y342098D02*
X314549Y341710D01*
X312895Y340605D01*
X311790Y338951D01*
X311402Y337000D01*
X311790Y335049D01*
X312895Y333395D01*
X314549Y332290D01*
X316500Y331902D01*
X318451Y332290D01*
X320105Y333395D01*
X321210Y335049D01*
X321598Y337000D01*
X321210Y338951D01*
X320105Y340605D01*
X318451Y341710D01*
X316500Y342098D01*
D02*
G37*
G36*
X328999Y331597D02*
X327048Y331209D01*
X325395Y330104D01*
X324289Y328450D01*
X323901Y326499D01*
X323902Y326494D01*
X323004Y325596D01*
X322999Y325597D01*
X321049Y325209D01*
X319395Y324104D01*
X318290Y322450D01*
X317901Y320499D01*
X318290Y318549D01*
X319395Y316895D01*
X321049Y315790D01*
X322999Y315401D01*
X324950Y315790D01*
X326604Y316895D01*
X327709Y318549D01*
X328097Y320499D01*
X328772Y320493D01*
X329901Y319687D01*
X330289Y317736D01*
X331395Y316082D01*
X333048Y314977D01*
X334999Y314589D01*
X336950Y314977D01*
X338604Y316082D01*
X339709Y317736D01*
X340021Y319302D01*
X340753Y320125D01*
X341210Y320429D01*
X342615Y319428D01*
X342790Y318549D01*
X343895Y316895D01*
X345549Y315790D01*
X347500Y315402D01*
X349451Y315790D01*
X351105Y316895D01*
X352210Y318549D01*
X352598Y320500D01*
X352210Y322451D01*
X351105Y324105D01*
X349451Y325210D01*
X347500Y325598D01*
X347306Y325559D01*
X345885Y326572D01*
X345710Y327451D01*
X344605Y329105D01*
X342951Y330210D01*
X341000Y330598D01*
X339049Y330210D01*
X337395Y329105D01*
X336290Y327451D01*
X335917Y325573D01*
X334807Y324989D01*
X333973Y325876D01*
X334097Y326499D01*
X333709Y328450D01*
X332604Y330104D01*
X330950Y331209D01*
X328999Y331597D01*
D02*
G37*
G36*
X509290Y343190D02*
X500540D01*
Y334440D01*
X509290D01*
Y343190D01*
D02*
G37*
G36*
X984400Y353482D02*
X981920Y353155D01*
X979609Y352198D01*
X977624Y350675D01*
X976102Y348691D01*
X975144Y346380D01*
X974818Y343900D01*
X975144Y341420D01*
X976102Y339109D01*
X977624Y337124D01*
X979609Y335602D01*
X981920Y334644D01*
X984400Y334318D01*
X986880Y334644D01*
X989191Y335602D01*
X991175Y337124D01*
X992698Y339109D01*
X993655Y341420D01*
X993982Y343900D01*
X993655Y346380D01*
X992698Y348691D01*
X991175Y350675D01*
X989191Y352198D01*
X986880Y353155D01*
X984400Y353482D01*
D02*
G37*
G36*
X234500Y328598D02*
X232549Y328210D01*
X230895Y327105D01*
X229790Y325451D01*
X229402Y323500D01*
X229790Y321549D01*
X230895Y319895D01*
X232549Y318790D01*
X234500Y318402D01*
X236451Y318790D01*
X238105Y319895D01*
X239210Y321549D01*
X239598Y323500D01*
X239210Y325451D01*
X238105Y327105D01*
X236451Y328210D01*
X234500Y328598D01*
D02*
G37*
G36*
X576580Y327678D02*
X574629Y327290D01*
X572975Y326185D01*
X571870Y324531D01*
X571482Y322580D01*
X571870Y320629D01*
X572975Y318975D01*
X574629Y317870D01*
X576580Y317482D01*
X578531Y317870D01*
X580185Y318975D01*
X581290Y320629D01*
X581678Y322580D01*
X581290Y324531D01*
X580185Y326185D01*
X578531Y327290D01*
X576580Y327678D01*
D02*
G37*
G36*
X428000Y332098D02*
X426049Y331710D01*
X424395Y330605D01*
X423290Y328951D01*
X422902Y327000D01*
X423290Y325049D01*
X424395Y323395D01*
X426049Y322290D01*
X428000Y321902D01*
X429951Y322290D01*
X431605Y323395D01*
X432710Y325049D01*
X433098Y327000D01*
X432710Y328951D01*
X431605Y330605D01*
X429951Y331710D01*
X428000Y332098D01*
D02*
G37*
G36*
X563000Y332098D02*
X561049Y331710D01*
X559395Y330605D01*
X558290Y328951D01*
X557902Y327000D01*
X558290Y325049D01*
X559395Y323395D01*
X561049Y322290D01*
X563000Y321902D01*
X564951Y322290D01*
X566604Y323395D01*
X567710Y325049D01*
X568098Y327000D01*
X567710Y328951D01*
X566604Y330605D01*
X564951Y331710D01*
X563000Y332098D01*
D02*
G37*
G36*
X494030Y313112D02*
X491550Y312785D01*
X489239Y311828D01*
X487254Y310305D01*
X485732Y308321D01*
X484774Y306010D01*
X484448Y303530D01*
X484774Y301050D01*
X485732Y298739D01*
X487254Y296754D01*
X489239Y295231D01*
X491550Y294274D01*
X494030Y293948D01*
X496510Y294274D01*
X498821Y295231D01*
X500805Y296754D01*
X502328Y298739D01*
X503285Y301050D01*
X503612Y303530D01*
X503285Y306010D01*
X502328Y308321D01*
X500805Y310305D01*
X498821Y311828D01*
X496510Y312785D01*
X494030Y313112D01*
D02*
G37*
G36*
X468630D02*
X466150Y312785D01*
X463839Y311828D01*
X461854Y310305D01*
X460331Y308321D01*
X459374Y306010D01*
X459048Y303530D01*
X459374Y301050D01*
X460331Y298739D01*
X461854Y296754D01*
X463839Y295231D01*
X466150Y294274D01*
X468630Y293948D01*
X471110Y294274D01*
X473421Y295231D01*
X475405Y296754D01*
X476928Y298739D01*
X477885Y301050D01*
X478212Y303530D01*
X477885Y306010D01*
X476928Y308321D01*
X475405Y310305D01*
X473421Y311828D01*
X471110Y312785D01*
X468630Y313112D01*
D02*
G37*
G36*
X229000Y304098D02*
X227049Y303710D01*
X225395Y302605D01*
X224290Y300951D01*
X223902Y299000D01*
X223905Y298983D01*
X222757Y298249D01*
X221000Y298598D01*
X219049Y298210D01*
X217395Y297105D01*
X216290Y295451D01*
X215902Y293500D01*
X216290Y291549D01*
X216434Y291334D01*
X216010Y289683D01*
X215145Y289105D01*
X214040Y287451D01*
X213652Y285500D01*
X214040Y283549D01*
X215145Y281895D01*
X216799Y280790D01*
X218750Y280402D01*
X220701Y280790D01*
X222355Y281895D01*
X223460Y283549D01*
X223848Y285500D01*
X223460Y287451D01*
X223316Y287666D01*
X223740Y289317D01*
X224605Y289895D01*
X225710Y291549D01*
X226098Y293500D01*
X226095Y293517D01*
X227243Y294251D01*
X229000Y293902D01*
X230951Y294290D01*
X232605Y295395D01*
X233710Y297049D01*
X234098Y299000D01*
X233710Y300951D01*
X232605Y302605D01*
X230951Y303710D01*
X229000Y304098D01*
D02*
G37*
G36*
X605790Y313112D02*
X603310Y312785D01*
X600999Y311828D01*
X599014Y310305D01*
X597491Y308321D01*
X596534Y306010D01*
X596208Y303530D01*
X596534Y301050D01*
X597491Y298739D01*
X599014Y296754D01*
X600999Y295231D01*
X603310Y294274D01*
X605790Y293948D01*
X608270Y294274D01*
X610581Y295231D01*
X612565Y296754D01*
X614088Y298739D01*
X615045Y301050D01*
X615372Y303530D01*
X615045Y306010D01*
X614088Y308321D01*
X612565Y310305D01*
X610581Y311828D01*
X608270Y312785D01*
X605790Y313112D01*
D02*
G37*
G36*
X529430Y302280D02*
X520680D01*
Y293530D01*
X529430D01*
Y302280D01*
D02*
G37*
G36*
X518180D02*
X509430D01*
Y293530D01*
X518180D01*
Y302280D01*
D02*
G37*
G36*
X590312D02*
X581640D01*
Y293608D01*
X583000Y293787D01*
X585433Y294795D01*
X587522Y296398D01*
X589125Y298487D01*
X590132Y300919D01*
X590312Y302280D01*
D02*
G37*
G36*
X579140D02*
X570468D01*
X570647Y300919D01*
X571655Y298487D01*
X573258Y296398D01*
X575347Y294795D01*
X577779Y293787D01*
X579140Y293608D01*
Y302280D01*
D02*
G37*
G36*
X134500Y308598D02*
X132549Y308210D01*
X130895Y307105D01*
X129790Y305451D01*
X129402Y303500D01*
X129790Y301549D01*
X130895Y299895D01*
X132549Y298790D01*
X134500Y298402D01*
X136451Y298790D01*
X138105Y299895D01*
X139210Y301549D01*
X139598Y303500D01*
X139210Y305451D01*
X138105Y307105D01*
X136451Y308210D01*
X134500Y308598D01*
D02*
G37*
G36*
X529430Y313530D02*
X520680D01*
Y304780D01*
X529430D01*
Y313530D01*
D02*
G37*
G36*
X579140Y313451D02*
X577779Y313272D01*
X575347Y312265D01*
X573258Y310662D01*
X571655Y308573D01*
X570647Y306140D01*
X570468Y304780D01*
X579140D01*
Y313451D01*
D02*
G37*
G36*
X389000Y309598D02*
X387049Y309210D01*
X385395Y308105D01*
X384290Y306451D01*
X384124Y305617D01*
X382776Y305349D01*
X382605Y305605D01*
X380951Y306710D01*
X379000Y307098D01*
X377049Y306710D01*
X375395Y305605D01*
X374290Y303951D01*
X373902Y302000D01*
X374290Y300049D01*
X375395Y298395D01*
X377049Y297290D01*
X379000Y296902D01*
X380951Y297290D01*
X382605Y298395D01*
X383710Y300049D01*
X383876Y300883D01*
X385224Y301151D01*
X385395Y300895D01*
X387049Y299790D01*
X389000Y299402D01*
X390951Y299790D01*
X392605Y300895D01*
X393710Y302549D01*
X394098Y304500D01*
X393710Y306451D01*
X392605Y308105D01*
X390951Y309210D01*
X389000Y309598D01*
D02*
G37*
G36*
X581640Y313451D02*
Y304780D01*
X590311D01*
X590132Y306140D01*
X589125Y308573D01*
X587522Y310662D01*
X585433Y312265D01*
X583000Y313272D01*
X581640Y313451D01*
D02*
G37*
G36*
X98500Y311598D02*
X96549Y311210D01*
X94895Y310105D01*
X93790Y308451D01*
X93402Y306500D01*
X93790Y304549D01*
X94895Y302895D01*
X96549Y301790D01*
X98500Y301402D01*
X100451Y301790D01*
X102105Y302895D01*
X103210Y304549D01*
X103598Y306500D01*
X103210Y308451D01*
X102105Y310105D01*
X100451Y311210D01*
X98500Y311598D01*
D02*
G37*
G36*
X117500Y310098D02*
X115549Y309710D01*
X113895Y308605D01*
X112790Y306951D01*
X112402Y305000D01*
X112790Y303049D01*
X113895Y301395D01*
X115549Y300290D01*
X117500Y299902D01*
X119451Y300290D01*
X121105Y301395D01*
X122210Y303049D01*
X122598Y305000D01*
X122210Y306951D01*
X121105Y308605D01*
X119451Y309710D01*
X117500Y310098D01*
D02*
G37*
G36*
X518180Y313530D02*
X509430D01*
Y304780D01*
X518180D01*
Y313530D01*
D02*
G37*
G36*
X68500Y312098D02*
X66549Y311710D01*
X64895Y310605D01*
X63790Y308951D01*
X63402Y307000D01*
X63790Y305049D01*
X64895Y303395D01*
X66549Y302290D01*
X68500Y301902D01*
X70451Y302290D01*
X72105Y303395D01*
X73210Y305049D01*
X73598Y307000D01*
X73210Y308951D01*
X72105Y310605D01*
X70451Y311710D01*
X68500Y312098D01*
D02*
G37*
%LPD*%
G36*
X866000Y305500D02*
X773000D01*
Y328295D01*
X866000D01*
Y305500D01*
D02*
G37*
D30*
X147320Y353060D02*
D03*
X631190Y303530D02*
D03*
X335280Y88710D02*
D03*
X510540Y344440D02*
D03*
X519430Y303530D02*
D03*
D53*
X238659Y587340D02*
X252000Y574000D01*
X971000Y455400D02*
X985400Y441000D01*
X332210Y88710D02*
X335280D01*
X310500Y67000D02*
X332210Y88710D01*
X274000Y67000D02*
X310500D01*
X251000Y44000D02*
X274000Y67000D01*
X795060Y574000D02*
Y586539D01*
X794919Y586680D02*
X795060Y586539D01*
X949683Y510540D02*
X959360D01*
X971000Y498899D01*
Y455400D02*
Y498899D01*
X795060Y574000D02*
X820420Y548640D01*
X609600Y574000D02*
X795060D01*
X252000D02*
X609499D01*
X911583Y548640D02*
X949683Y510540D01*
X820420Y548640D02*
X911583D01*
X983000Y441000D02*
X984400D01*
X985400D01*
X609500Y574100D02*
Y586680D01*
Y574100D02*
X609600Y574000D01*
D55*
X232000Y384196D02*
Y412000D01*
X219000Y425000D02*
X232000Y412000D01*
X810000Y136000D02*
X834000D01*
X795000Y151000D02*
X810000Y136000D01*
X382500Y404500D02*
X393699D01*
X401000Y411800D01*
Y501000D01*
X756500Y403440D02*
X772160Y419100D01*
X756500Y403000D02*
Y403440D01*
X219000Y425000D02*
Y500500D01*
X227770Y509270D01*
X93980Y509270D02*
X114500Y488750D01*
X593270Y509270D02*
X657340D01*
X401000Y501000D02*
X409270Y509270D01*
X471920D01*
X227770D02*
X286500D01*
X586740Y502740D02*
X593270Y509270D01*
X772160Y419100D02*
Y502920D01*
X778510Y509270D01*
X842760D01*
X586740Y415260D02*
Y502740D01*
Y415260D02*
X602500Y399500D01*
X54000Y397500D02*
X69500Y413000D01*
Y508920D01*
X99060Y538480D01*
X114500Y448000D02*
Y488750D01*
Y448000D02*
X176000Y386500D01*
D56*
X754000Y235000D02*
X808000Y289000D01*
Y290000D01*
X640840Y528820D02*
X646840Y534820D01*
X826000Y528820D02*
X924261D01*
X826000D02*
X832260Y535080D01*
Y541020D01*
X646840Y534820D02*
Y544000D01*
X461420Y534820D02*
Y544000D01*
X276000Y534820D02*
Y544000D01*
X270000Y528820D02*
X276000Y534820D01*
X113530Y528820D02*
X270000D01*
X93980Y509270D02*
X113530Y528820D01*
X141020Y524520D02*
X688975D01*
X132715Y516215D02*
X141020Y524520D01*
X145020Y520020D02*
X298479D01*
X140970Y515970D02*
X145020Y520020D01*
X151020Y515520D02*
X296616D01*
X149182Y513682D02*
X151020Y515520D01*
X957081Y496000D02*
X964000D01*
X924261Y528820D02*
X957081Y496000D01*
X132715Y509270D02*
Y516215D01*
X503555Y509270D02*
Y524500D01*
X688975Y509270D02*
Y524520D01*
X865239D02*
X874395Y515364D01*
Y509270D02*
Y515364D01*
X688975Y524520D02*
X865239D01*
X315500Y503000D02*
X322500D01*
X326390Y506890D01*
X313636Y498500D02*
X326000D01*
X334602Y507102D01*
Y509313D01*
X507920Y503000D02*
X511810Y506890D01*
X500920Y503000D02*
X507920D01*
X483899Y520020D02*
X500920Y503000D01*
X693340D02*
X697230Y506890D01*
X686340Y503000D02*
X693340D01*
X669320Y520020D02*
X686340Y503000D01*
X515860Y520020D02*
X669320D01*
X511810Y515970D02*
X515860Y520020D01*
X511810Y509270D02*
Y515970D01*
X878760Y503000D02*
X882650Y506890D01*
X871760Y503000D02*
X878760D01*
X854740Y520020D02*
X871760Y503000D01*
X701280Y520020D02*
X854740D01*
X697230Y515970D02*
X701280Y520020D01*
X697230Y509270D02*
Y515970D01*
X336440Y515520D02*
X482036D01*
X334602Y513682D02*
X336440Y515520D01*
X334602Y509313D02*
Y513682D01*
X511420Y498500D02*
X520022Y507102D01*
X499056Y498500D02*
X511420D01*
X482036Y515520D02*
X499056Y498500D01*
X521860Y515520D02*
X667456D01*
X520022Y513682D02*
X521860Y515520D01*
X520022Y509313D02*
Y513682D01*
X696840Y498500D02*
X705442Y507102D01*
X684476Y498500D02*
X696840D01*
X667456Y515520D02*
X684476Y498500D01*
X707280Y515520D02*
X852876D01*
X705442Y513682D02*
X707280Y515520D01*
X705442Y509313D02*
Y513682D01*
X882260Y498500D02*
X890862Y507102D01*
X869896Y498500D02*
X882260D01*
X852876Y515520D02*
X869896Y498500D01*
X882650Y509270D02*
Y509940D01*
X892730Y520020D01*
X149182Y509313D02*
Y513682D01*
X140970Y509270D02*
Y515970D01*
X152795Y490497D02*
Y490523D01*
X148548Y494770D02*
X152795Y490523D01*
X148522Y494770D02*
X148548D01*
X132715Y508686D02*
Y509270D01*
Y508686D02*
X142401Y499000D01*
X144292D01*
X148522Y494770D01*
X149182Y509313D02*
X165000Y493495D01*
Y427000D02*
Y493495D01*
X326390Y506890D02*
Y509270D01*
Y515970D01*
X330440Y520020D01*
X483899D01*
X318135Y509270D02*
Y524500D01*
X298479Y520020D02*
X315500Y503000D01*
X296616Y515520D02*
X313636Y498500D01*
X865239Y524520D02*
X922479D01*
X965200Y481800D01*
X890862Y509313D02*
X896549Y515000D01*
X919772D01*
X956511Y478261D01*
X920833Y520020D02*
X960900Y479953D01*
X892730Y520020D02*
X920833D01*
X960900Y426100D02*
Y479953D01*
Y426100D02*
X965000Y422000D01*
X967000D01*
X965200Y432800D02*
Y481800D01*
X956511Y417489D02*
Y478261D01*
X968250Y405750D02*
X977750D01*
X956511Y417489D02*
X968250Y405750D01*
X972000Y412000D02*
X973250Y413250D01*
X965200Y432800D02*
X973250Y424750D01*
Y413250D02*
Y424750D01*
X455420Y528820D02*
X461420Y534820D01*
X270000Y528820D02*
X455420D01*
X640840D01*
X826000D01*
X195650Y415850D02*
X202500Y409000D01*
X191731Y415850D02*
X195650D01*
X165000Y427000D02*
X172950Y419050D01*
X188531D01*
X191731Y415850D01*
X174727Y393500D02*
X180500D01*
X173809Y400500D02*
X177000D01*
X160300Y414009D02*
X173809Y400500D01*
X176500Y401000D02*
X177000D01*
X156000Y412228D02*
X174727Y393500D01*
X156000Y412228D02*
Y487292D01*
X152795Y490497D02*
X156000Y487292D01*
X140970Y508686D02*
Y509270D01*
Y508686D02*
X160300Y489356D01*
Y414009D02*
Y489356D01*
D57*
X972000Y355900D02*
X985400Y369300D01*
X427300Y29300D02*
Y137000D01*
X241828Y9000D02*
X407000D01*
X427300Y29300D01*
X201328Y49500D02*
X241828Y9000D01*
X170500Y80328D02*
Y92500D01*
Y93000D01*
Y80328D02*
X201328Y49500D01*
X433500Y143200D02*
X552200D01*
X427300Y137000D02*
X433500Y143200D01*
X984400Y130900D02*
Y140700D01*
X977500Y124000D02*
X984400Y130900D01*
X951500Y124000D02*
X977500D01*
X885000Y207000D02*
X928000D01*
X943500Y191500D01*
Y132000D02*
Y191500D01*
Y132000D02*
X951500Y124000D01*
X662500Y349000D02*
X695500D01*
X631190Y317690D02*
X662500Y349000D01*
X631190Y303530D02*
Y317690D01*
X636090Y170000D02*
X651510Y185420D01*
X579000Y170000D02*
X636090D01*
X552200Y143200D02*
X579000Y170000D01*
X424079Y576079D02*
Y586680D01*
X238659Y587340D02*
Y587680D01*
X861920Y317000D02*
X875920Y331000D01*
X911000D01*
X917000Y337000D01*
X911000Y331000D02*
X928000D01*
X952900Y355900D01*
X972000D01*
X651510Y185420D02*
X665090Y199000D01*
X682200D01*
X694700Y211500D01*
Y323800D01*
X689000Y329500D02*
X694700Y323800D01*
X681500Y329500D02*
X689000D01*
D59*
X885000Y207000D02*
X902000Y224000D01*
X709000Y207000D02*
X885000D01*
D60*
X892000Y17000D02*
X908730Y33730D01*
Y61000D01*
X808729Y33270D02*
Y61000D01*
Y33270D02*
X825000Y17000D01*
X892000D01*
D73*
X580390Y303530D02*
D03*
X201328Y49500D02*
D03*
X984400Y369300D02*
D03*
Y140700D02*
D03*
X794919Y586680D02*
D03*
X651510Y134620D02*
D03*
X238660Y586680D02*
D03*
X424080D02*
D03*
X609500D02*
D03*
D74*
X984400Y441000D02*
D03*
X651510Y185420D02*
D03*
X20320Y520700D02*
D03*
D78*
X918020Y155004D02*
D03*
X905066Y126429D02*
D03*
X866204D02*
D03*
X905066Y183579D02*
D03*
X866204D02*
D03*
X918020Y126429D02*
D03*
X879158D02*
D03*
X918020Y140717D02*
D03*
Y169292D02*
D03*
Y183579D02*
D03*
X879158D02*
D03*
X892112Y126429D02*
D03*
Y183579D02*
D03*
X929500Y133572D02*
D03*
Y147860D02*
D03*
Y162147D02*
D03*
Y176435D02*
D03*
X827000Y184000D02*
D03*
Y172000D02*
D03*
X816000Y166000D02*
D03*
Y178000D02*
D03*
Y154000D02*
D03*
X827000Y160000D02*
D03*
Y148000D02*
D03*
D79*
X482050Y60000D02*
D03*
X552050D02*
D03*
D80*
X708730Y61000D02*
D03*
X808730D02*
D03*
X758730D02*
D03*
X858730D02*
D03*
X908730D02*
D03*
D82*
X399000Y115436D02*
D03*
X409500Y124000D02*
D03*
X388436D02*
D03*
X232000Y384196D02*
D03*
X682000Y220000D02*
D03*
X375500Y123000D02*
D03*
X224500Y310000D02*
D03*
X382500Y404500D02*
D03*
X756500Y403000D02*
D03*
X143500Y277500D02*
D03*
X170500Y92500D02*
D03*
X250000Y58000D02*
D03*
X369500Y251500D02*
D03*
X405500Y199800D02*
D03*
X468565Y245000D02*
D03*
X570000D02*
D03*
X520000D02*
D03*
X174500Y119000D02*
D03*
X372500Y186500D02*
D03*
X251000Y44000D02*
D03*
X410000Y266600D02*
D03*
X247400Y322080D02*
D03*
X358080Y319900D02*
D03*
X511000Y392700D02*
D03*
X211000Y156000D02*
D03*
X689260Y386000D02*
D03*
X711000Y353000D02*
D03*
X703000D02*
D03*
X728000Y255000D02*
D03*
X699000Y346000D02*
D03*
X707000D02*
D03*
X715000D02*
D03*
X795000Y151000D02*
D03*
X721000Y105000D02*
D03*
X713000D02*
D03*
X705000D02*
D03*
X697000D02*
D03*
X677000Y131000D02*
D03*
Y141000D02*
D03*
Y150000D02*
D03*
X686000D02*
D03*
X695000D02*
D03*
X704000D02*
D03*
X964000Y496000D02*
D03*
X832260Y541020D02*
D03*
X742500Y300500D02*
D03*
X734500D02*
D03*
X726500D02*
D03*
X874395Y509270D02*
D03*
X882650D02*
D03*
X890862Y509313D02*
D03*
X705442D02*
D03*
X697230Y509270D02*
D03*
X688975D02*
D03*
X503555D02*
D03*
X511810D02*
D03*
X520022Y509313D02*
D03*
X93980Y509270D02*
D03*
X99060Y538480D02*
D03*
X132715Y509270D02*
D03*
X334602Y509313D02*
D03*
X149182D02*
D03*
X140970Y509270D02*
D03*
X276000Y544000D02*
D03*
X461420D02*
D03*
X646840D02*
D03*
X326390Y509270D02*
D03*
X318135D02*
D03*
X286500Y509270D02*
D03*
X471920D02*
D03*
X657340D02*
D03*
X842760D02*
D03*
X754000Y236000D02*
D03*
X790000Y310000D02*
D03*
X784000Y317000D02*
D03*
X790000Y324000D02*
D03*
X855920D02*
D03*
X861920Y317000D02*
D03*
X855920Y310000D02*
D03*
X834000Y136000D02*
D03*
X874680Y384500D02*
D03*
X902000Y233000D02*
D03*
X897000Y241000D02*
D03*
X907000D02*
D03*
X897000Y225000D02*
D03*
X907000D02*
D03*
X808000Y290000D02*
D03*
X923000Y347500D02*
D03*
X917000Y337000D02*
D03*
X967000Y422000D02*
D03*
X972000Y412000D02*
D03*
X977750Y405750D02*
D03*
X689000Y329500D02*
D03*
X681500D02*
D03*
X625000Y243000D02*
D03*
X90500Y195000D02*
D03*
X108500Y192000D02*
D03*
X202500Y409000D02*
D03*
X602500Y399500D02*
D03*
X176500Y183500D02*
D03*
X54000Y397500D02*
D03*
X176000Y386500D02*
D03*
X181000Y393500D02*
D03*
X177000Y400500D02*
D03*
D83*
X60560Y272000D02*
D03*
X651000Y317000D02*
D03*
Y307000D02*
D03*
Y297000D02*
D03*
Y287000D02*
D03*
Y277000D02*
D03*
X133000Y384000D02*
D03*
X318420D02*
D03*
D84*
X709000Y207000D02*
Y344000D01*
Y151000D02*
Y207000D01*
M02*
