G04 Layer_Color=32896*
%FSLAX44Y44*%
%MOMM*%
G71*
G01*
G75*
%ADD54C,0.3000*%
%ADD55C,0.2000*%
%ADD95C,0.1500*%
%ADD96C,0.1270*%
%ADD98C,0.2540*%
%ADD104R,0.2540X0.2881*%
%ADD105R,0.1778X0.1270*%
%ADD106R,0.3169X0.1119*%
%ADD107R,0.1270X0.3862*%
%ADD108R,0.5080X0.3810*%
%ADD109R,0.3810X0.3810*%
%ADD110R,0.2540X0.3810*%
%ADD111R,0.2540X0.3532*%
%ADD113R,2.1590X0.2088*%
%ADD118R,2.1590X0.2870*%
%ADD120R,0.8110X2.5000*%
%ADD123R,0.2730X2.5230*%
%ADD124R,0.3090X2.5230*%
%ADD125R,2.1590X0.2318*%
%ADD126R,0.2540X0.3111*%
%ADD186C,0.2032*%
%ADD187R,1.5240X2.5500*%
%ADD188R,1.6580X2.5500*%
%ADD189R,2.1590X0.3370*%
%ADD190R,1.6580X2.5000*%
%ADD191R,46.3000X0.2000*%
%ADD192R,45.6000X0.2000*%
%ADD193R,1.6260X2.5000*%
%ADD194R,0.9260X2.5000*%
%ADD195R,0.6000X2.5000*%
G36*
X949850Y26750D02*
X951150Y25450D01*
Y21550D01*
X955050Y17650D01*
Y17000D01*
X959600Y12450D01*
X960900D01*
X962850Y10500D01*
X969500D01*
X970000Y10000D01*
Y1000D01*
X965200D01*
X962850Y2050D01*
X958950Y2700D01*
X957000Y4650D01*
X955050D01*
X950500Y9200D01*
X949850D01*
X945300Y13750D01*
Y15700D01*
X943350Y17650D01*
Y20250D01*
X941400Y22200D01*
Y26750D01*
X940750Y27400D01*
Y30000D01*
X949850D01*
Y26750D01*
D02*
G37*
G36*
X30000Y50150D02*
X26750D01*
X25450Y48850D01*
X21550D01*
X17650Y44950D01*
X17000D01*
X12450Y40400D01*
Y39100D01*
X10500Y37150D01*
Y30500D01*
X10000Y30000D01*
X1000D01*
Y34800D01*
X2050Y37150D01*
X2700Y41050D01*
X4650Y43000D01*
Y44950D01*
X9200Y49500D01*
Y50150D01*
X13750Y54700D01*
X15700D01*
X17650Y56650D01*
X20250D01*
X22200Y58600D01*
X26750D01*
X27400Y59250D01*
X30000D01*
Y50150D01*
D02*
G37*
G36*
X59000Y25200D02*
X57950Y22850D01*
X57300Y18950D01*
X55350Y17000D01*
Y15050D01*
X50800Y10500D01*
Y9850D01*
X46250Y5300D01*
X44300D01*
X42350Y3350D01*
X39750D01*
X37800Y1400D01*
X33250D01*
X32600Y750D01*
X30000D01*
Y9850D01*
X33250D01*
X34550Y11150D01*
X38450D01*
X42350Y15050D01*
X43000D01*
X47550Y19600D01*
Y20900D01*
X49500Y22850D01*
Y29500D01*
X50000Y30000D01*
X59000D01*
Y25200D01*
D02*
G37*
G36*
X614000Y23000D02*
X608900Y17200D01*
X607100Y12478D01*
X610556Y6156D01*
X614700Y3600D01*
X615400Y500D01*
X607100Y1800D01*
X606200D01*
X603250Y4750D01*
X603100Y23000D01*
X614000Y23000D01*
D02*
G37*
G36*
X628650Y4750D02*
X625700Y1800D01*
X624800D01*
X616500Y500D01*
X617200Y3600D01*
X621344Y6156D01*
X624800Y12478D01*
X623000Y17200D01*
X618000Y23000D01*
X628800Y23000D01*
X628650Y4750D01*
D02*
G37*
G36*
X977150Y57950D02*
X981050Y57300D01*
X983000Y55350D01*
X984950D01*
X989500Y50800D01*
X990150D01*
X994700Y46250D01*
Y44300D01*
X996650Y42350D01*
Y39750D01*
X998600Y37800D01*
Y33250D01*
X999250Y32600D01*
Y30000D01*
X990150D01*
Y33250D01*
X988850Y34550D01*
Y38450D01*
X984950Y42350D01*
Y43000D01*
X980400Y47550D01*
X979100D01*
X977150Y49500D01*
X970500D01*
X970000Y50000D01*
Y59000D01*
X974800D01*
X977150Y57950D01*
D02*
G37*
G36*
X37150Y597950D02*
X41050Y597300D01*
X43000Y595350D01*
X44950D01*
X49500Y590800D01*
X50150D01*
X54700Y586250D01*
Y584300D01*
X56650Y582350D01*
Y579750D01*
X58600Y577800D01*
Y573250D01*
X59250Y572600D01*
Y570000D01*
X50150D01*
Y573250D01*
X48850Y574550D01*
Y578450D01*
X44950Y582350D01*
Y583000D01*
X40400Y587550D01*
X39100D01*
X37150Y589500D01*
X30500D01*
X30000Y590000D01*
Y599000D01*
X34800D01*
X37150Y597950D01*
D02*
G37*
G36*
X970000Y590150D02*
X966750D01*
X965450Y588850D01*
X961550D01*
X957650Y584950D01*
X957000D01*
X952450Y580400D01*
Y579100D01*
X950500Y577150D01*
Y570500D01*
X950000Y570000D01*
X941000D01*
Y574800D01*
X942050Y577150D01*
X942700Y581050D01*
X944650Y583000D01*
Y584950D01*
X949200Y589500D01*
Y590150D01*
X953750Y594700D01*
X955700D01*
X957650Y596650D01*
X960250D01*
X962200Y598600D01*
X966750D01*
X967400Y599250D01*
X970000D01*
Y590150D01*
D02*
G37*
G36*
X9850Y566750D02*
X11150Y565450D01*
Y561550D01*
X15050Y557650D01*
Y557000D01*
X19600Y552450D01*
X20900D01*
X22850Y550500D01*
X29500D01*
X30000Y550000D01*
Y541000D01*
X25200D01*
X22850Y542050D01*
X18950Y542700D01*
X17000Y544650D01*
X15050D01*
X10500Y549200D01*
X9850D01*
X5300Y553750D01*
Y555700D01*
X3350Y557650D01*
Y560250D01*
X1400Y562200D01*
Y566750D01*
X750Y567400D01*
Y570000D01*
X9850D01*
Y566750D01*
D02*
G37*
G36*
X861820Y457660D02*
X862236Y457568D01*
X863050Y457315D01*
X863840Y456996D01*
X864602Y456613D01*
X864965Y456390D01*
X868735Y459438D01*
X871320Y456898D01*
X868246Y453088D01*
X868471Y452737D01*
X868861Y452001D01*
X869188Y451235D01*
X869451Y450445D01*
X869549Y450040D01*
X869549D01*
X874388Y449532D01*
Y445672D01*
X869549Y445180D01*
X869453Y444763D01*
X869192Y443948D01*
X868865Y443158D01*
X868473Y442398D01*
X868246Y442035D01*
D01*
Y442035D01*
Y442035D01*
X871320Y438265D01*
X868735Y435680D01*
X864965Y438754D01*
X864784Y438641D01*
X864412Y438429D01*
X864032Y438234D01*
X863644Y438054D01*
X863447Y437972D01*
X861294Y443169D01*
X861910Y443479D01*
X862974Y444352D01*
X863738Y445496D01*
X864137Y446812D01*
X864188Y447500D01*
X864124Y448362D01*
X863545Y449982D01*
X862431Y451294D01*
X860927Y452130D01*
X859225Y452383D01*
X857543Y452020D01*
X856097Y451087D01*
X855071Y449706D01*
X854598Y448051D01*
X854738Y446336D01*
X855473Y444780D01*
X856710Y443583D01*
X857468Y443169D01*
X857468Y443169D01*
X855436Y437972D01*
X855238Y438054D01*
X854848Y438233D01*
X854467Y438429D01*
X854094Y438641D01*
X853912Y438754D01*
Y438754D01*
X850102Y435680D01*
X847562Y438265D01*
X850610Y442035D01*
X850387Y442398D01*
X850004Y443159D01*
X849685Y443950D01*
X849432Y444764D01*
X849340Y445180D01*
X849340Y445180D01*
X844514Y445672D01*
Y449532D01*
X849340Y450040D01*
X849434Y450444D01*
X849689Y451234D01*
X850008Y452000D01*
X850389Y452737D01*
X850610Y453088D01*
X847562Y456898D01*
X850102Y459438D01*
X853912Y456390D01*
X854263Y456611D01*
X855000Y456992D01*
X855766Y457311D01*
X856556Y457566D01*
X856960Y457660D01*
X856960Y457660D01*
X857468Y462486D01*
X861328D01*
X861820Y457660D01*
D02*
G37*
G36*
X999000Y565200D02*
X997950Y562850D01*
X997300Y558950D01*
X995350Y557000D01*
Y555050D01*
X990800Y550500D01*
Y549850D01*
X986250Y545300D01*
X984300D01*
X982350Y543350D01*
X979750D01*
X977800Y541400D01*
X973250D01*
X972600Y540750D01*
X970000D01*
Y549850D01*
X973250D01*
X974550Y551150D01*
X978450D01*
X982350Y555050D01*
X983000D01*
X987550Y559600D01*
Y560900D01*
X989500Y562850D01*
Y569500D01*
X990000Y570000D01*
X999000D01*
Y565200D01*
D02*
G37*
D54*
X990000Y30000D02*
G03*
X990000Y30000I-20000J0D01*
G01*
X50000D02*
G03*
X50000Y30000I-20000J0D01*
G01*
X990000Y570000D02*
G03*
X990000Y570000I-20000J0D01*
G01*
X50000D02*
G03*
X50000Y570000I-20000J0D01*
G01*
D55*
X897890Y190500D02*
Y320040D01*
X885312Y213037D02*
X886812Y214537D01*
X889810D01*
X891310Y213037D01*
Y211538D01*
X889810Y210039D01*
X886812D01*
X885312Y208539D01*
Y207040D01*
X886812Y205540D01*
X889810D01*
X891310Y207040D01*
X882313Y214537D02*
Y205540D01*
X877814D01*
X876315Y207040D01*
Y213037D01*
X877814Y214537D01*
X882313D01*
X873316Y205540D02*
Y211538D01*
X870317Y214537D01*
X867318Y211538D01*
Y205540D01*
Y210039D01*
X873316D01*
X922387Y213037D02*
X923886Y214537D01*
X926885D01*
X928385Y213037D01*
Y211538D01*
X926885Y210039D01*
X923886D01*
X922387Y208539D01*
Y207040D01*
X923886Y205540D01*
X926885D01*
X928385Y207040D01*
X913390Y213037D02*
X914889Y214537D01*
X917888D01*
X919388Y213037D01*
Y207040D01*
X917888Y205540D01*
X914889D01*
X913390Y207040D01*
X910391Y214537D02*
Y205540D01*
X904393D01*
X617181Y176487D02*
X623180D01*
Y171988D01*
X620181Y173488D01*
X618681D01*
X617181Y171988D01*
Y168989D01*
X618681Y167489D01*
X621680D01*
X623180Y168989D01*
X614182Y176487D02*
Y170488D01*
X611183Y167489D01*
X608184Y170488D01*
Y176487D01*
X623180Y150687D02*
Y144689D01*
X620181Y141690D01*
X617181Y144689D01*
Y150687D01*
X614182D02*
X611183D01*
X612683D01*
Y141690D01*
X614182D01*
X611183D01*
X606685D02*
Y150687D01*
X600687Y141690D01*
Y150687D01*
X617181Y163587D02*
X623180D01*
Y159088D01*
X620181D01*
X623180D01*
Y154590D01*
X614182D02*
Y160588D01*
X611183Y163587D01*
X608184Y160588D01*
Y154590D01*
Y159088D01*
X614182D01*
X605185Y154590D02*
Y163587D01*
X599187Y154590D01*
Y163587D01*
X590190Y162087D02*
X591690Y163587D01*
X594689D01*
X596188Y162087D01*
Y160588D01*
X594689Y159088D01*
X591690D01*
X590190Y157589D01*
Y156089D01*
X591690Y154590D01*
X594689D01*
X596188Y156089D01*
X928385Y311838D02*
X922387D01*
X925386Y314838D02*
Y308839D01*
X913390Y316337D02*
X919388D01*
Y311838D01*
X916389Y313338D01*
X914889D01*
X913390Y311838D01*
Y308839D01*
X914889Y307340D01*
X917888D01*
X919388Y308839D01*
X910391Y316337D02*
Y310339D01*
X907392Y307340D01*
X904393Y310339D01*
Y316337D01*
X885312Y314838D02*
X886812Y316337D01*
X889810D01*
X891310Y314838D01*
Y308839D01*
X889810Y307340D01*
X886812D01*
X885312Y308839D01*
Y311838D01*
X888311D01*
X882313Y307340D02*
Y316337D01*
X876315Y307340D01*
Y316337D01*
X873316D02*
Y307340D01*
X868817D01*
X867318Y308839D01*
Y314838D01*
X868817Y316337D01*
X873316D01*
X936715Y294640D02*
Y303637D01*
X932217D01*
X930717Y302138D01*
Y299139D01*
X932217Y297639D01*
X936715D01*
X921720Y303637D02*
X927718D01*
Y294640D01*
X921720D01*
X927718Y299139D02*
X924719D01*
X918721Y294640D02*
X915722D01*
X917222D01*
Y303637D01*
X918721Y302138D01*
X911224D02*
X909724Y303637D01*
X906725D01*
X905226Y302138D01*
Y300638D01*
X906725Y299139D01*
X908225D01*
X906725D01*
X905226Y297639D01*
Y296140D01*
X906725Y294640D01*
X909724D01*
X911224Y296140D01*
X928385Y281940D02*
Y290937D01*
X923886D01*
X922387Y289438D01*
Y286439D01*
X923886Y284939D01*
X928385D01*
X913390Y290937D02*
X919388D01*
Y281940D01*
X913390D01*
X919388Y286439D02*
X916389D01*
X910391Y289438D02*
X908891Y290937D01*
X905892D01*
X904393Y289438D01*
Y283440D01*
X905892Y281940D01*
X908891D01*
X910391Y283440D01*
Y289438D01*
X936715Y269240D02*
Y278237D01*
X932217D01*
X930717Y276738D01*
Y273738D01*
X932217Y272239D01*
X936715D01*
X921720Y276738D02*
X923220Y278237D01*
X926219D01*
X927718Y276738D01*
Y270739D01*
X926219Y269240D01*
X923220D01*
X921720Y270739D01*
X918721Y269240D02*
X915722D01*
X917222D01*
Y278237D01*
X918721Y276738D01*
X911224D02*
X909724Y278237D01*
X906725D01*
X905226Y276738D01*
Y275238D01*
X906725Y273738D01*
X908225D01*
X906725D01*
X905226Y272239D01*
Y270739D01*
X906725Y269240D01*
X909724D01*
X911224Y270739D01*
X936715Y256540D02*
Y265537D01*
X932217D01*
X930717Y264038D01*
Y261038D01*
X932217Y259539D01*
X936715D01*
X921720Y264038D02*
X923220Y265537D01*
X926219D01*
X927718Y264038D01*
Y258039D01*
X926219Y256540D01*
X923220D01*
X921720Y258039D01*
X918721Y256540D02*
X915722D01*
X917222D01*
Y265537D01*
X918721Y264038D01*
X905226Y265537D02*
X911224D01*
Y261038D01*
X908225Y262538D01*
X906725D01*
X905226Y261038D01*
Y258039D01*
X906725Y256540D01*
X909724D01*
X911224Y258039D01*
X928385Y243840D02*
Y252837D01*
X923886D01*
X922387Y251338D01*
Y248339D01*
X923886Y246839D01*
X928385D01*
X913390Y252837D02*
X919388D01*
Y243840D01*
X913390D01*
X919388Y248339D02*
X916389D01*
X905892Y243840D02*
Y252837D01*
X910391Y248339D01*
X904393D01*
X925053Y231140D02*
Y240137D01*
X920554D01*
X919054Y238638D01*
Y235639D01*
X920554Y234139D01*
X925053D01*
X910057Y240137D02*
X916056D01*
Y231140D01*
X910057D01*
X916056Y235639D02*
X913056D01*
X907058Y231140D02*
X904059D01*
X905559D01*
Y240137D01*
X907058Y238638D01*
X928385Y218440D02*
Y227437D01*
X923886D01*
X922387Y225938D01*
Y222938D01*
X923886Y221439D01*
X928385D01*
X913390Y227437D02*
X919388D01*
Y218440D01*
X913390D01*
X919388Y222938D02*
X916389D01*
X910391Y225938D02*
X908891Y227437D01*
X905892D01*
X904393Y225938D01*
Y224438D01*
X905892Y222938D01*
X907392D01*
X905892D01*
X904393Y221439D01*
Y219939D01*
X905892Y218440D01*
X908891D01*
X910391Y219939D01*
X926719Y201537D02*
Y195539D01*
X923720Y192540D01*
X920721Y195539D01*
Y201537D01*
X917722D02*
X914723D01*
X916222D01*
Y192540D01*
X917722D01*
X914723D01*
X910224D02*
Y201537D01*
X904226Y192540D01*
Y201537D01*
X891310Y294640D02*
Y303637D01*
X886812D01*
X885312Y302138D01*
Y299139D01*
X886812Y297639D01*
X891310D01*
X876315Y303637D02*
X882313D01*
Y294640D01*
X876315D01*
X882313Y299139D02*
X879314D01*
X873316Y294640D02*
X870317D01*
X871816D01*
Y303637D01*
X873316Y302138D01*
X859820Y294640D02*
X865818D01*
X859820Y300638D01*
Y302138D01*
X861320Y303637D01*
X864319D01*
X865818Y302138D01*
X891310Y281940D02*
Y290937D01*
X886812D01*
X885312Y289438D01*
Y286439D01*
X886812Y284939D01*
X891310D01*
X876315Y290937D02*
X882313D01*
Y281940D01*
X876315D01*
X882313Y286439D02*
X879314D01*
X873316Y281940D02*
X870317D01*
X871816D01*
Y290937D01*
X873316Y289438D01*
X861320Y281940D02*
Y290937D01*
X865818Y286439D01*
X859820D01*
X891310Y269240D02*
Y278237D01*
X886812D01*
X885312Y276738D01*
Y273738D01*
X886812Y272239D01*
X891310D01*
X876315Y278237D02*
X882313D01*
Y269240D01*
X876315D01*
X882313Y273738D02*
X879314D01*
X873316Y278237D02*
X867318D01*
Y276738D01*
X873316Y270739D01*
Y269240D01*
X891310Y256540D02*
Y265537D01*
X886812D01*
X885312Y264038D01*
Y261038D01*
X886812Y259539D01*
X891310D01*
X876315Y264038D02*
X877814Y265537D01*
X880813D01*
X882313Y264038D01*
Y258039D01*
X880813Y256540D01*
X877814D01*
X876315Y258039D01*
X873316Y256540D02*
X870317D01*
X871816D01*
Y265537D01*
X873316Y264038D01*
X861320Y256540D02*
Y265537D01*
X865818Y261038D01*
X859820D01*
X891310Y243840D02*
Y252837D01*
X886812D01*
X885312Y251338D01*
Y248339D01*
X886812Y246839D01*
X891310D01*
X876315Y252837D02*
X882313D01*
Y243840D01*
X876315D01*
X882313Y248339D02*
X879314D01*
X867318Y252837D02*
X873316D01*
Y248339D01*
X870317Y249838D01*
X868817D01*
X867318Y248339D01*
Y245340D01*
X868817Y243840D01*
X871816D01*
X873316Y245340D01*
X891310Y231140D02*
Y240137D01*
X886812D01*
X885312Y238638D01*
Y235639D01*
X886812Y234139D01*
X891310D01*
X876315Y240137D02*
X882313D01*
Y231140D01*
X876315D01*
X882313Y235639D02*
X879314D01*
X867318Y240137D02*
X870317Y238638D01*
X873316Y235639D01*
Y232640D01*
X871816Y231140D01*
X868817D01*
X867318Y232640D01*
Y234139D01*
X868817Y235639D01*
X873316D01*
X891310Y218440D02*
Y227437D01*
X886812D01*
X885312Y225938D01*
Y222938D01*
X886812Y221439D01*
X891310D01*
X876315Y227437D02*
X882313D01*
Y218440D01*
X876315D01*
X882313Y222938D02*
X879314D01*
X867318Y218440D02*
X873316D01*
X867318Y224438D01*
Y225938D01*
X868817Y227437D01*
X871816D01*
X873316Y225938D01*
X885312Y200038D02*
X886812Y201537D01*
X889810D01*
X891310Y200038D01*
Y194039D01*
X889810Y192540D01*
X886812D01*
X885312Y194039D01*
Y197038D01*
X888311D01*
X882313Y192540D02*
Y201537D01*
X876315Y192540D01*
Y201537D01*
X873316D02*
Y192540D01*
X868817D01*
X867318Y194039D01*
Y200038D01*
X868817Y201537D01*
X873316D01*
X834494Y486179D02*
X828508D01*
X826513Y486844D01*
X825848Y487509D01*
X825183Y488839D01*
Y490835D01*
X825848Y492165D01*
X826513Y492830D01*
X828508Y493495D01*
X834494D01*
Y479528D01*
X820726Y493495D02*
X820061Y492830D01*
X819396Y493495D01*
X820061Y494160D01*
X820726Y493495D01*
X820061Y488839D02*
Y479528D01*
X808954Y486844D02*
X810285Y488174D01*
X811615Y488839D01*
X813610D01*
X814940Y488174D01*
X816270Y486844D01*
X816935Y484849D01*
Y483519D01*
X816270Y481523D01*
X814940Y480193D01*
X813610Y479528D01*
X811615D01*
X810285Y480193D01*
X808954Y481523D01*
X802636Y488839D02*
X803966Y488174D01*
X805296Y486844D01*
X805961Y484849D01*
Y483519D01*
X805296Y481523D01*
X803966Y480193D01*
X802636Y479528D01*
X800641D01*
X799310Y480193D01*
X797980Y481523D01*
X797315Y483519D01*
Y484849D01*
X797980Y486844D01*
X799310Y488174D01*
X800641Y488839D01*
X802636D01*
X794256Y486179D02*
X788270D01*
X786274Y486844D01*
X785609Y487509D01*
X784944Y488839D01*
Y490835D01*
X785609Y492165D01*
X786274Y492830D01*
X788270Y493495D01*
X794256D01*
Y479528D01*
X781818Y488839D02*
Y479528D01*
Y484849D02*
X781153Y486844D01*
X779823Y488174D01*
X778493Y488839D01*
X776498D01*
X773904Y493495D02*
X773239Y492830D01*
X772574Y493495D01*
X773239Y494160D01*
X773904Y493495D01*
X773239Y488839D02*
Y479528D01*
X770113Y488839D02*
Y479528D01*
Y486179D02*
X768117Y488174D01*
X766787Y488839D01*
X764792D01*
X763462Y488174D01*
X762797Y486179D01*
Y479528D01*
X757143Y493495D02*
Y482188D01*
X756478Y480193D01*
X755148Y479528D01*
X753818D01*
X759139Y488839D02*
X754483D01*
D95*
X999000Y30000D02*
G03*
X999000Y30000I-29000J0D01*
G01*
X59000D02*
G03*
X59000Y30000I-29000J0D01*
G01*
X999000Y570000D02*
G03*
X999000Y570000I-29000J0D01*
G01*
X59000D02*
G03*
X59000Y570000I-29000J0D01*
G01*
X265000Y47816D02*
X263000D01*
X264000D01*
Y41818D01*
X265000D01*
X263000D01*
X256003D02*
X260001D01*
X256003Y45816D01*
Y46816D01*
X257002Y47816D01*
X259002D01*
X260001Y46816D01*
X250005D02*
X251004Y47816D01*
X253004D01*
X254003Y46816D01*
Y42817D01*
X253004Y41818D01*
X251004D01*
X250005Y42817D01*
X247000Y60998D02*
X246000Y61998D01*
X244001D01*
X243001Y60998D01*
Y59998D01*
X244001Y58999D01*
X245000D01*
X244001D01*
X243001Y57999D01*
Y56999D01*
X244001Y56000D01*
X246000D01*
X247000Y56999D01*
X241002Y61998D02*
Y57999D01*
X239002Y56000D01*
X237003Y57999D01*
Y61998D01*
X243001Y31998D02*
X247000D01*
Y28999D01*
X245000Y29998D01*
X244001D01*
X243001Y28999D01*
Y26999D01*
X244001Y26000D01*
X246000D01*
X247000Y26999D01*
X241002Y31998D02*
Y27999D01*
X239002Y26000D01*
X237003Y27999D01*
Y31998D01*
X924001Y370998D02*
X928000D01*
Y365000D01*
X924001D01*
X928000Y367999D02*
X926001D01*
X922002Y365000D02*
Y370998D01*
X918003Y365000D01*
Y370998D01*
X916004D02*
Y365000D01*
X913005D01*
X912005Y366000D01*
Y369998D01*
X913005Y370998D01*
X916004D01*
X906007Y369998D02*
X907007Y370998D01*
X909006D01*
X910006Y369998D01*
Y368999D01*
X909006Y367999D01*
X907007D01*
X906007Y366999D01*
Y366000D01*
X907007Y365000D01*
X909006D01*
X910006Y366000D01*
X904008Y370998D02*
X900009D01*
X902008D01*
Y365000D01*
X895011Y370998D02*
X897010D01*
X898010Y369998D01*
Y366000D01*
X897010Y365000D01*
X895011D01*
X894011Y366000D01*
Y369998D01*
X895011Y370998D01*
X892012Y365000D02*
Y370998D01*
X889013D01*
X888013Y369998D01*
Y367999D01*
X889013Y366999D01*
X892012D01*
X882015Y369998D02*
X883015Y370998D01*
X885014D01*
X886014Y369998D01*
Y368999D01*
X885014Y367999D01*
X883015D01*
X882015Y366999D01*
Y366000D01*
X883015Y365000D01*
X885014D01*
X886014Y366000D01*
X915501Y360998D02*
X919500D01*
Y357999D01*
X917501Y358999D01*
X916501D01*
X915501Y357999D01*
Y356000D01*
X916501Y355000D01*
X918500D01*
X919500Y356000D01*
X913502Y360998D02*
Y356999D01*
X911503Y355000D01*
X909503Y356999D01*
Y360998D01*
X899500Y359998D02*
X898500Y360998D01*
X896501D01*
X895501Y359998D01*
Y358998D01*
X896501Y357999D01*
X897500D01*
X896501D01*
X895501Y356999D01*
Y355999D01*
X896501Y355000D01*
X898500D01*
X899500Y355999D01*
X893502Y360998D02*
Y356999D01*
X891502Y355000D01*
X889503Y356999D01*
Y360998D01*
X124003Y257995D02*
X134000D01*
Y243000D01*
X124003D01*
X134000Y250498D02*
X129002D01*
X109008Y255496D02*
X111507Y257995D01*
X116506D01*
X119005Y255496D01*
Y252997D01*
X116506Y250498D01*
X111507D01*
X109008Y247998D01*
Y245499D01*
X111507Y243000D01*
X116506D01*
X119005Y245499D01*
X104010Y243000D02*
Y257995D01*
X96512D01*
X94013Y255496D01*
Y250498D01*
X96512Y247998D01*
X104010D01*
X89015Y255496D02*
X86515Y257995D01*
X81517D01*
X79018Y255496D01*
Y252997D01*
X81517Y250498D01*
X79018Y247998D01*
Y245499D01*
X81517Y243000D01*
X86515D01*
X89015Y245499D01*
Y247998D01*
X86515Y250498D01*
X89015Y252997D01*
Y255496D01*
X86515Y250498D02*
X81517D01*
X64023Y243000D02*
X74019D01*
X64023Y252997D01*
Y255496D01*
X66522Y257995D01*
X71520D01*
X74019Y255496D01*
X49028Y257995D02*
X54026Y255496D01*
X59024Y250498D01*
Y245499D01*
X56525Y243000D01*
X51527D01*
X49028Y245499D01*
Y247998D01*
X51527Y250498D01*
X59024D01*
X34032Y257995D02*
X39031Y255496D01*
X44029Y250498D01*
Y245499D01*
X41530Y243000D01*
X36532D01*
X34032Y245499D01*
Y247998D01*
X36532Y250498D01*
X44029D01*
D96*
X631040Y486638D02*
X627170Y476480D01*
X623301Y486638D02*
X627170Y476480D01*
X619092Y486638D02*
X620544Y486154D01*
X621511Y484703D01*
X621995Y482285D01*
Y480834D01*
X621511Y478415D01*
X620544Y476964D01*
X619092Y476480D01*
X618125D01*
X616674Y476964D01*
X615706Y478415D01*
X615223Y480834D01*
Y482285D01*
X615706Y484703D01*
X616674Y486154D01*
X618125Y486638D01*
X619092D01*
X612466Y477448D02*
X612949Y476964D01*
X612466Y476480D01*
X611982Y476964D01*
X612466Y477448D01*
X609273Y484219D02*
Y484703D01*
X608789Y485671D01*
X608306Y486154D01*
X607338Y486638D01*
X605404D01*
X604436Y486154D01*
X603952Y485671D01*
X603469Y484703D01*
Y483736D01*
X603952Y482768D01*
X604920Y481317D01*
X609757Y476480D01*
X602985D01*
X592972D02*
X596842Y486638D01*
X600712Y476480D01*
X599260Y479866D02*
X594423D01*
X835764Y509244D02*
Y499086D01*
Y509244D02*
X831411D01*
X829959Y508760D01*
X829476Y508276D01*
X828992Y507309D01*
Y506342D01*
X829476Y505374D01*
X829959Y504891D01*
X831411Y504407D01*
X835764D02*
X831411D01*
X829959Y503923D01*
X829476Y503439D01*
X828992Y502472D01*
Y501021D01*
X829476Y500053D01*
X829959Y499570D01*
X831411Y499086D01*
X835764D01*
X823816Y509244D02*
X824784Y508760D01*
X825751Y507793D01*
X826235Y506825D01*
X826719Y505374D01*
Y502956D01*
X826235Y501505D01*
X825751Y500537D01*
X824784Y499570D01*
X823816Y499086D01*
X821882D01*
X820914Y499570D01*
X819947Y500537D01*
X819463Y501505D01*
X818979Y502956D01*
Y505374D01*
X819463Y506825D01*
X819947Y507793D01*
X820914Y508760D01*
X821882Y509244D01*
X823816D01*
X808870Y499086D02*
X812739Y509244D01*
X816609Y499086D01*
X815158Y502472D02*
X810321D01*
X806500Y509244D02*
Y499086D01*
Y509244D02*
X802146D01*
X800695Y508760D01*
X800212Y508276D01*
X799728Y507309D01*
Y506342D01*
X800212Y505374D01*
X800695Y504891D01*
X802146Y504407D01*
X806500D01*
X803114D02*
X799728Y499086D01*
X797454Y509244D02*
Y499086D01*
Y509244D02*
X794069D01*
X792617Y508760D01*
X791650Y507793D01*
X791166Y506825D01*
X790683Y505374D01*
Y502956D01*
X791166Y501505D01*
X791650Y500537D01*
X792617Y499570D01*
X794069Y499086D01*
X797454D01*
X780428Y509244D02*
Y499086D01*
Y509244D02*
X776558Y499086D01*
X772689Y509244D02*
X776558Y499086D01*
X772689Y509244D02*
Y499086D01*
X766884Y509244D02*
X767852Y508760D01*
X768819Y507793D01*
X769303Y506825D01*
X769787Y505374D01*
Y502956D01*
X769303Y501505D01*
X768819Y500537D01*
X767852Y499570D01*
X766884Y499086D01*
X764949D01*
X763982Y499570D01*
X763015Y500537D01*
X762531Y501505D01*
X762047Y502956D01*
Y505374D01*
X762531Y506825D01*
X763015Y507793D01*
X763982Y508760D01*
X764949Y509244D01*
X766884D01*
X759677D02*
Y499086D01*
Y509244D02*
X756291D01*
X754840Y508760D01*
X753873Y507793D01*
X753389Y506825D01*
X752905Y505374D01*
Y502956D01*
X753389Y501505D01*
X753873Y500537D01*
X754840Y499570D01*
X756291Y499086D01*
X759677D01*
X744343Y509244D02*
X750632D01*
Y499086D01*
X744343D01*
X750632Y504407D02*
X746762D01*
X742651Y509244D02*
Y499086D01*
X736846D01*
D98*
X919185Y12248D02*
G03*
X919185Y12248I-10925J0D01*
G01*
X819185D02*
G03*
X819185Y12248I-10925J0D01*
G01*
X719185D02*
G03*
X719185Y12248I-10925J0D01*
G01*
X624900Y12478D02*
G03*
X624900Y12478I-9000J0D01*
G01*
X562505Y12248D02*
G03*
X562505Y12248I-10925J0D01*
G01*
X492505D02*
G03*
X492505Y12248I-10925J0D01*
G01*
X157760Y168350D02*
X165380D01*
Y188670D01*
Y310590D02*
Y330910D01*
X159030D02*
X165380D01*
X911000Y107997D02*
Y98000D01*
Y102998D01*
X904335D01*
Y107997D01*
Y98000D01*
X901003Y107997D02*
Y98000D01*
X896005D01*
X894339Y99666D01*
Y101332D01*
X896005Y102998D01*
X901003D01*
X896005D01*
X894339Y104664D01*
Y106330D01*
X896005Y107997D01*
X901003D01*
X891006Y102998D02*
X884342D01*
X876011Y107997D02*
X879343D01*
X881010Y106330D01*
Y99666D01*
X879343Y98000D01*
X876011D01*
X874345Y99666D01*
Y106330D01*
X876011Y107997D01*
X871013D02*
Y99666D01*
X869347Y98000D01*
X866014D01*
X864348Y99666D01*
Y107997D01*
X861016D02*
X854352D01*
X857684D01*
Y98000D01*
X901910Y12085D02*
X915239D01*
X908574Y18749D02*
Y5420D01*
X851110Y12085D02*
X864439D01*
X751110D02*
X764439D01*
X801910D02*
X815239D01*
X808574Y18749D02*
Y5420D01*
X811000Y107997D02*
Y98000D01*
Y102998D01*
X804335D01*
Y107997D01*
Y98000D01*
X801003Y107997D02*
Y98000D01*
X796005D01*
X794339Y99666D01*
Y101332D01*
X796005Y102998D01*
X801003D01*
X796005D01*
X794339Y104664D01*
Y106330D01*
X796005Y107997D01*
X801003D01*
X791006Y102998D02*
X784342D01*
X781010Y98000D02*
Y107997D01*
X776011D01*
X774345Y106330D01*
Y102998D01*
X776011Y101332D01*
X781010D01*
X771013Y107997D02*
Y98000D01*
X767681Y101332D01*
X764348Y98000D01*
Y107997D01*
X761016Y98000D02*
Y107997D01*
X756018D01*
X754352Y106330D01*
Y102998D01*
X756018Y101332D01*
X761016D01*
X757684D02*
X754352Y98000D01*
X651110Y12085D02*
X664439D01*
X701910D02*
X715239D01*
X708574Y18749D02*
Y5420D01*
X720000Y98000D02*
Y107997D01*
X716668Y104664D01*
X713335Y107997D01*
Y98000D01*
X710003D02*
Y104664D01*
X706671Y107997D01*
X703339Y104664D01*
Y98000D01*
Y102998D01*
X710003D01*
X700006Y107997D02*
X696674D01*
X698340D01*
Y98000D01*
X700006D01*
X696674D01*
X691676D02*
Y107997D01*
X685011Y98000D01*
Y107997D01*
X681679Y102998D02*
X675014D01*
X671682Y98000D02*
Y107997D01*
X666684D01*
X665018Y106330D01*
Y102998D01*
X666684Y101332D01*
X671682D01*
X661685Y107997D02*
Y98000D01*
X658353Y101332D01*
X655021Y98000D01*
Y107997D01*
X651689Y98000D02*
Y107997D01*
X646690D01*
X645024Y106330D01*
Y102998D01*
X646690Y101332D01*
X651689D01*
X648356D02*
X645024Y98000D01*
X584850Y12215D02*
X596179D01*
X610250Y12415D02*
X621580D01*
X615915Y18080D02*
Y6750D01*
X615336Y107997D02*
X622000D01*
Y102998D01*
X618668D01*
X622000D01*
Y98000D01*
X612003D02*
Y104664D01*
X608671Y107997D01*
X605339Y104664D01*
Y98000D01*
Y102998D01*
X612003D01*
X602006Y98000D02*
Y107997D01*
X595342Y98000D01*
Y107997D01*
X585345Y106331D02*
X587011Y107997D01*
X590344D01*
X592010Y106331D01*
Y104664D01*
X590344Y102998D01*
X587011D01*
X585345Y101332D01*
Y99666D01*
X587011Y98000D01*
X590344D01*
X592010Y99666D01*
X509430Y12084D02*
X522759D01*
X545230D02*
X558559D01*
X551894Y18749D02*
Y5420D01*
X475230Y12084D02*
X488559D01*
X481894Y18749D02*
Y5420D01*
X439930Y12084D02*
X453259D01*
X548000Y107997D02*
Y98000D01*
Y102998D01*
X541335D01*
Y107997D01*
Y98000D01*
X531339Y107997D02*
X538003D01*
Y98000D01*
X531339D01*
X538003Y102998D02*
X534671D01*
X528006Y106330D02*
X526340Y107997D01*
X523008D01*
X521342Y106330D01*
Y99666D01*
X523008Y98000D01*
X526340D01*
X528006Y99666D01*
Y106330D01*
X478000Y107997D02*
Y98000D01*
Y102998D01*
X471335D01*
Y107997D01*
Y98000D01*
X461339Y107997D02*
X468003D01*
Y98000D01*
X461339D01*
X468003Y102998D02*
X464671D01*
X458006Y98000D02*
X454674D01*
X456340D01*
Y107997D01*
X458006Y106330D01*
X834494Y426442D02*
Y425526D01*
X833578D01*
Y426442D01*
X834494D01*
X829912D02*
Y425526D01*
X828996D01*
Y426442D01*
X829912D01*
X825330D02*
Y425526D01*
X824414D01*
Y426442D01*
X825330D01*
X820748D02*
Y425526D01*
X819832D01*
Y426442D01*
X820748D01*
X816167D02*
Y425526D01*
X815250D01*
Y426442D01*
X816167D01*
X811585D02*
Y425526D01*
X810668D01*
Y426442D01*
X811585D01*
X807003D02*
Y425526D01*
X806086D01*
Y426442D01*
X807003D01*
X802421D02*
Y425526D01*
X801505D01*
Y426442D01*
X802421D01*
X797839D02*
Y425526D01*
X796923D01*
Y426442D01*
X797839D01*
X793257D02*
Y425526D01*
X792341D01*
Y426442D01*
X793257D01*
X788675D02*
Y425526D01*
X787759D01*
Y426442D01*
X788675D01*
X784093D02*
Y425526D01*
X783177D01*
Y426442D01*
X784093D01*
X779512D02*
Y425526D01*
X778595D01*
Y426442D01*
X779512D01*
X774930D02*
Y425526D01*
X774013D01*
Y426442D01*
X774930D01*
X770348D02*
Y425526D01*
X769432D01*
Y426442D01*
X770348D01*
X765766D02*
Y425526D01*
X764850D01*
Y426442D01*
X765766D01*
X761184D02*
Y425526D01*
X760268D01*
Y426442D01*
X761184D01*
X756602D02*
Y425526D01*
X755686D01*
Y426442D01*
X756602D01*
X752020D02*
Y425526D01*
X751104D01*
Y426442D01*
X752020D01*
X747439D02*
Y425526D01*
X746522D01*
Y426442D01*
X747439D01*
X742857D02*
Y425526D01*
X741941D01*
Y426442D01*
X742857D01*
X738275D02*
Y425526D01*
X737359D01*
Y426442D01*
X738275D01*
X733693D02*
Y425526D01*
X732777D01*
Y426442D01*
X733693D01*
X729111D02*
Y425526D01*
X728195D01*
Y426442D01*
X729111D01*
X724529D02*
Y425526D01*
X723613D01*
Y426442D01*
X724529D01*
X719948D02*
Y425526D01*
X719031D01*
Y426442D01*
X719948D01*
X715366D02*
Y425526D01*
X714449D01*
Y426442D01*
X715366D01*
X710784D02*
Y425526D01*
X709867D01*
Y426442D01*
X710784D01*
X706202D02*
Y425526D01*
X705286D01*
Y426442D01*
X706202D01*
X701620D02*
Y425526D01*
X700704D01*
Y426442D01*
X701620D01*
X697038D02*
Y425526D01*
X696122D01*
Y426442D01*
X697038D01*
X692456D02*
Y425526D01*
X691540D01*
Y426442D01*
X692456D01*
X687875D02*
Y425526D01*
X686958D01*
Y426442D01*
X687875D01*
X683293D02*
Y425526D01*
X682376D01*
Y426442D01*
X683293D01*
X678711D02*
Y425526D01*
X677794D01*
Y426442D01*
X678711D01*
X674129D02*
Y425526D01*
X673213D01*
Y426442D01*
X674129D01*
X669547D02*
Y425526D01*
X668631D01*
Y426442D01*
X669547D01*
X664965D02*
Y425526D01*
X664049D01*
Y426442D01*
X664965D01*
X660383D02*
Y425526D01*
X659467D01*
Y426442D01*
X660383D01*
X655802D02*
Y425526D01*
X654885D01*
Y426442D01*
X655802D01*
X651220D02*
Y425526D01*
X650303D01*
Y426442D01*
X651220D01*
X646638D02*
Y425526D01*
X645722D01*
Y426442D01*
X646638D01*
X642056D02*
Y425526D01*
X641140D01*
Y426442D01*
X642056D01*
X637474D02*
Y425526D01*
X636558D01*
Y426442D01*
X637474D01*
X632892D02*
Y425526D01*
X631976D01*
Y426442D01*
X632892D01*
X628311D02*
Y425526D01*
X627394D01*
Y426442D01*
X628311D01*
X623729D02*
Y425526D01*
X622812D01*
Y426442D01*
X623729D01*
X619147D02*
Y425526D01*
X618230D01*
Y426442D01*
X619147D01*
X614565D02*
Y425526D01*
X613648D01*
Y426442D01*
X614565D01*
X609983D02*
Y425526D01*
X609067D01*
Y426442D01*
X609983D01*
X605401D02*
Y425526D01*
X604485D01*
Y426442D01*
X605401D01*
X600819D02*
Y425526D01*
X599903D01*
Y426442D01*
X600819D01*
X596237D02*
Y425526D01*
X595321D01*
Y426442D01*
X596237D01*
X834494Y471400D02*
Y470484D01*
X833578D01*
Y471400D01*
X834494D01*
X829912D02*
Y470484D01*
X828996D01*
Y471400D01*
X829912D01*
X825330D02*
Y470484D01*
X824414D01*
Y471400D01*
X825330D01*
X820748D02*
Y470484D01*
X819832D01*
Y471400D01*
X820748D01*
X816167D02*
Y470484D01*
X815250D01*
Y471400D01*
X816167D01*
X811585D02*
Y470484D01*
X810668D01*
Y471400D01*
X811585D01*
X807003D02*
Y470484D01*
X806086D01*
Y471400D01*
X807003D01*
X802421D02*
Y470484D01*
X801505D01*
Y471400D01*
X802421D01*
X797839D02*
Y470484D01*
X796923D01*
Y471400D01*
X797839D01*
X793257D02*
Y470484D01*
X792341D01*
Y471400D01*
X793257D01*
X788675D02*
Y470484D01*
X787759D01*
Y471400D01*
X788675D01*
X784093D02*
Y470484D01*
X783177D01*
Y471400D01*
X784093D01*
X779512D02*
Y470484D01*
X778595D01*
Y471400D01*
X779512D01*
X774930D02*
Y470484D01*
X774013D01*
Y471400D01*
X774930D01*
X770348D02*
Y470484D01*
X769432D01*
Y471400D01*
X770348D01*
X765766D02*
Y470484D01*
X764850D01*
Y471400D01*
X765766D01*
X761184D02*
Y470484D01*
X760268D01*
Y471400D01*
X761184D01*
X756602D02*
Y470484D01*
X755686D01*
Y471400D01*
X756602D01*
X752020D02*
Y470484D01*
X751104D01*
Y471400D01*
X752020D01*
X747439D02*
Y470484D01*
X746522D01*
Y471400D01*
X747439D01*
X742857D02*
Y470484D01*
X741941D01*
Y471400D01*
X742857D01*
X738275D02*
Y470484D01*
X737359D01*
Y471400D01*
X738275D01*
X733693D02*
Y470484D01*
X732777D01*
Y471400D01*
X733693D01*
X729111D02*
Y470484D01*
X728195D01*
Y471400D01*
X729111D01*
X724529D02*
Y470484D01*
X723613D01*
Y471400D01*
X724529D01*
X719948D02*
Y470484D01*
X719031D01*
Y471400D01*
X719948D01*
X715366D02*
Y470484D01*
X714449D01*
Y471400D01*
X715366D01*
X710784D02*
Y470484D01*
X709867D01*
Y471400D01*
X710784D01*
X706202D02*
Y470484D01*
X705286D01*
Y471400D01*
X706202D01*
X701620D02*
Y470484D01*
X700704D01*
Y471400D01*
X701620D01*
X697038D02*
Y470484D01*
X696122D01*
Y471400D01*
X697038D01*
X692456D02*
Y470484D01*
X691540D01*
Y471400D01*
X692456D01*
X687875D02*
Y470484D01*
X686958D01*
Y471400D01*
X687875D01*
X683293D02*
Y470484D01*
X682376D01*
Y471400D01*
X683293D01*
X678711D02*
Y470484D01*
X677794D01*
Y471400D01*
X678711D01*
X674129D02*
Y470484D01*
X673213D01*
Y471400D01*
X674129D01*
X669547D02*
Y470484D01*
X668631D01*
Y471400D01*
X669547D01*
X664965D02*
Y470484D01*
X664049D01*
Y471400D01*
X664965D01*
X660383D02*
Y470484D01*
X659467D01*
Y471400D01*
X660383D01*
X655802D02*
Y470484D01*
X654885D01*
Y471400D01*
X655802D01*
X651220D02*
Y470484D01*
X650303D01*
Y471400D01*
X651220D01*
X646638D02*
Y470484D01*
X645722D01*
Y471400D01*
X646638D01*
X642056D02*
Y470484D01*
X641140D01*
Y471400D01*
X642056D01*
X637474D02*
Y470484D01*
X636558D01*
Y471400D01*
X637474D01*
X632892D02*
Y470484D01*
X631976D01*
Y471400D01*
X632892D01*
X628311D02*
Y470484D01*
X627394D01*
Y471400D01*
X628311D01*
X623729D02*
Y470484D01*
X622812D01*
Y471400D01*
X623729D01*
X619147D02*
Y470484D01*
X618230D01*
Y471400D01*
X619147D01*
X614565D02*
Y470484D01*
X613648D01*
Y471400D01*
X614565D01*
X609983D02*
Y470484D01*
X609067D01*
Y471400D01*
X609983D01*
X605401D02*
Y470484D01*
X604485D01*
Y471400D01*
X605401D01*
X600819D02*
Y470484D01*
X599903D01*
Y471400D01*
X600819D01*
X596237D02*
Y470484D01*
X595321D01*
Y471400D01*
X596237D01*
D104*
X900640Y1440D02*
D03*
X800640D02*
D03*
X700640D02*
D03*
X543960Y1440D02*
D03*
X473960D02*
D03*
D105*
X914991Y2723D02*
D03*
X814991D02*
D03*
X714991D02*
D03*
X622131Y2953D02*
D03*
X558311Y2723D02*
D03*
X488311D02*
D03*
D106*
X916194Y21849D02*
D03*
X816194D02*
D03*
X716194D02*
D03*
X623334Y22079D02*
D03*
X559514Y21849D02*
D03*
X489514D02*
D03*
D107*
X901275Y23069D02*
D03*
X801275D02*
D03*
X701275D02*
D03*
X608415Y23299D02*
D03*
X544595Y23069D02*
D03*
X474595D02*
D03*
D108*
X898100Y3993D02*
D03*
X798100D02*
D03*
X698100D02*
D03*
X605240Y4223D02*
D03*
X541420Y3993D02*
D03*
X471420D02*
D03*
D109*
X917785Y3993D02*
D03*
X817785D02*
D03*
X717785D02*
D03*
X624925Y4223D02*
D03*
X561105Y3993D02*
D03*
X491105D02*
D03*
D110*
X917150Y20503D02*
D03*
X817150D02*
D03*
X717150D02*
D03*
X624290Y20733D02*
D03*
X560470Y20503D02*
D03*
X490470D02*
D03*
D111*
X899370Y20364D02*
D03*
X799370D02*
D03*
X699370D02*
D03*
X606510Y20594D02*
D03*
X542690Y20364D02*
D03*
X472690D02*
D03*
D113*
X908895Y1044D02*
D03*
X808895D02*
D03*
X708895D02*
D03*
X552215Y1044D02*
D03*
X482215D02*
D03*
D118*
X616035Y23795D02*
D03*
X552215Y23565D02*
D03*
X482215D02*
D03*
D120*
X537365Y12500D02*
D03*
X467365D02*
D03*
D123*
X603875Y12615D02*
D03*
D124*
X628105D02*
D03*
D125*
X616035Y1159D02*
D03*
D126*
X607780Y1555D02*
D03*
D186*
X596242Y516358D02*
X836018D01*
X593956Y397728D02*
X836018D01*
X835002Y416787D02*
Y406630D01*
X831616Y410016D01*
X828231Y406630D01*
Y416787D01*
X824845D02*
Y406630D01*
X821460Y410016D01*
X818074Y406630D01*
Y416787D01*
X814688D02*
Y406630D01*
X811303Y410016D01*
X807917Y406630D01*
Y416787D01*
X804532Y406630D02*
Y408323D01*
X802839D01*
Y406630D01*
X804532D01*
X796068D02*
Y413401D01*
X792682Y416787D01*
X789297Y413401D01*
Y406630D01*
Y411708D01*
X796068D01*
X785911Y416787D02*
Y408323D01*
X784218Y406630D01*
X780833D01*
X779140Y408323D01*
Y416787D01*
X768983Y415094D02*
X770676Y416787D01*
X774062D01*
X775754Y415094D01*
Y413401D01*
X774062Y411708D01*
X770676D01*
X768983Y410016D01*
Y408323D01*
X770676Y406630D01*
X774062D01*
X775754Y408323D01*
X765598Y415094D02*
X763905Y416787D01*
X760519D01*
X758827Y415094D01*
Y413401D01*
X760519Y411708D01*
X762212D01*
X760519D01*
X758827Y410016D01*
Y408323D01*
X760519Y406630D01*
X763905D01*
X765598Y408323D01*
X755441Y416787D02*
Y406630D01*
X750363D01*
X748670Y408323D01*
Y415094D01*
X750363Y416787D01*
X755441D01*
X745284Y406630D02*
Y408323D01*
X743591D01*
Y406630D01*
X745284D01*
X730049Y415094D02*
X731742Y416787D01*
X735127D01*
X736820Y415094D01*
Y408323D01*
X735127Y406630D01*
X731742D01*
X730049Y408323D01*
X721585Y416787D02*
X724971D01*
X726664Y415094D01*
Y408323D01*
X724971Y406630D01*
X721585D01*
X719892Y408323D01*
Y415094D01*
X721585Y416787D01*
X716507Y406630D02*
Y416787D01*
X713121Y413401D01*
X709736Y416787D01*
Y406630D01*
X706350D02*
Y408323D01*
X704657D01*
Y406630D01*
X706350D01*
X697886D02*
Y413401D01*
X694501Y416787D01*
X691115Y413401D01*
Y406630D01*
Y411708D01*
X697886D01*
X687729Y416787D02*
Y408323D01*
X686037Y406630D01*
X682651D01*
X680958Y408323D01*
Y416787D01*
X831955Y461492D02*
X832970Y460984D01*
X833986Y459968D01*
X834494Y458952D01*
X835002Y457429D01*
Y454889D01*
X834494Y453366D01*
X833986Y452350D01*
X832970Y451334D01*
X831955Y450826D01*
X829923D01*
X828907Y451334D01*
X827891Y452350D01*
X827384Y453366D01*
X826876Y454889D01*
Y457429D01*
X827384Y458952D01*
X827891Y459968D01*
X828907Y460984D01*
X829923Y461492D01*
X831955D01*
X824387Y455905D02*
X819816D01*
X818292Y456413D01*
X817784Y456921D01*
X817277Y457937D01*
Y459460D01*
X817784Y460476D01*
X818292Y460984D01*
X819816Y461492D01*
X824387D01*
Y450826D01*
X808287Y461492D02*
X814890D01*
Y450826D01*
X808287D01*
X814890Y456413D02*
X810826D01*
X806509Y461492D02*
Y450826D01*
Y461492D02*
X799399Y450826D01*
Y461492D02*
Y450826D01*
X780962Y459968D02*
X781978Y460984D01*
X783502Y461492D01*
X785533D01*
X787057Y460984D01*
X788073Y459968D01*
Y458952D01*
X787565Y457937D01*
X787057Y457429D01*
X786041Y456921D01*
X782994Y455905D01*
X781978Y455397D01*
X781470Y454889D01*
X780962Y453873D01*
Y452350D01*
X781978Y451334D01*
X783502Y450826D01*
X785533D01*
X787057Y451334D01*
X788073Y452350D01*
X775528Y461492D02*
X776544Y460984D01*
X777560Y459968D01*
X778067Y458952D01*
X778575Y457429D01*
Y454889D01*
X778067Y453366D01*
X777560Y452350D01*
X776544Y451334D01*
X775528Y450826D01*
X773496D01*
X772480Y451334D01*
X771465Y452350D01*
X770957Y453366D01*
X770449Y454889D01*
Y457429D01*
X770957Y458952D01*
X771465Y459968D01*
X772480Y460984D01*
X773496Y461492D01*
X775528D01*
X767960D02*
Y453873D01*
X767452Y452350D01*
X766437Y451334D01*
X764913Y450826D01*
X763897D01*
X762374Y451334D01*
X761358Y452350D01*
X760850Y453873D01*
Y461492D01*
X757904D02*
Y450826D01*
Y461492D02*
X753333D01*
X751809Y460984D01*
X751301Y460476D01*
X750794Y459460D01*
Y458445D01*
X751301Y457429D01*
X751809Y456921D01*
X753333Y456413D01*
X757904D01*
X754349D02*
X750794Y450826D01*
X740788Y458952D02*
X741296Y459968D01*
X742312Y460984D01*
X743328Y461492D01*
X745359D01*
X746375Y460984D01*
X747391Y459968D01*
X747899Y458952D01*
X748407Y457429D01*
Y454889D01*
X747899Y453366D01*
X747391Y452350D01*
X746375Y451334D01*
X745359Y450826D01*
X743328D01*
X742312Y451334D01*
X741296Y452350D01*
X740788Y453366D01*
X731189Y461492D02*
X737792D01*
Y450826D01*
X731189D01*
X737792Y456413D02*
X733728D01*
X835002Y443034D02*
X833309Y444727D01*
X829924D01*
X828231Y443034D01*
Y441341D01*
X829924Y439649D01*
X831616D01*
X829924D01*
X828231Y437956D01*
Y436263D01*
X829924Y434570D01*
X833309D01*
X835002Y436263D01*
X824845Y444727D02*
Y434570D01*
X819767D01*
X818074Y436263D01*
Y443034D01*
X819767Y444727D01*
X824845D01*
X804532Y434570D02*
Y444727D01*
X799453D01*
X797761Y443034D01*
Y439649D01*
X799453Y437956D01*
X804532D01*
X794375Y434570D02*
Y444727D01*
X789297D01*
X787604Y443034D01*
Y439649D01*
X789297Y437956D01*
X794375D01*
X790990D02*
X787604Y434570D01*
X784218Y444727D02*
X780833D01*
X782525D01*
Y434570D01*
X784218D01*
X780833D01*
X775754D02*
Y444727D01*
X768983Y434570D01*
Y444727D01*
X765598D02*
X758827D01*
X762212D01*
Y434570D01*
X748670Y444727D02*
X755441D01*
Y434570D01*
X748670D01*
X755441Y439649D02*
X752055D01*
X745284Y434570D02*
Y444727D01*
X740206D01*
X738513Y443034D01*
Y439649D01*
X740206Y437956D01*
X745284D01*
X741899D02*
X738513Y434570D01*
X718200Y444727D02*
X724971D01*
Y434570D01*
X718200D01*
X724971Y439649D02*
X721585D01*
X714814Y444727D02*
Y434570D01*
X708043D01*
X697886Y444727D02*
X704657D01*
Y434570D01*
X697886D01*
X704657Y439649D02*
X701272D01*
X687729Y443034D02*
X689422Y444727D01*
X692808D01*
X694501Y443034D01*
Y436263D01*
X692808Y434570D01*
X689422D01*
X687729Y436263D01*
X684344Y444727D02*
X677573D01*
X680958D01*
Y434570D01*
X674187D02*
Y444727D01*
X669109D01*
X667416Y443034D01*
Y439649D01*
X669109Y437956D01*
X674187D01*
X670802D02*
X667416Y434570D01*
X658952Y444727D02*
X662338D01*
X664030Y443034D01*
Y436263D01*
X662338Y434570D01*
X658952D01*
X657259Y436263D01*
Y443034D01*
X658952Y444727D01*
X653874Y434570D02*
Y444727D01*
X647103Y434570D01*
Y444727D01*
X643717D02*
X640331D01*
X642024D01*
Y434570D01*
X643717D01*
X640331D01*
X628482Y443034D02*
X630175Y444727D01*
X633560D01*
X635253Y443034D01*
Y436263D01*
X633560Y434570D01*
X630175D01*
X628482Y436263D01*
X618325Y443034D02*
X620018Y444727D01*
X623404D01*
X625096Y443034D01*
Y441341D01*
X623404Y439649D01*
X620018D01*
X618325Y437956D01*
Y436263D01*
X620018Y434570D01*
X623404D01*
X625096Y436263D01*
D187*
X890480Y12750D02*
D03*
X790480D02*
D03*
X690480D02*
D03*
D188*
X926710D02*
D03*
D189*
X908895Y23815D02*
D03*
X808895D02*
D03*
X708895D02*
D03*
D190*
X826710Y12500D02*
D03*
X726710D02*
D03*
D191*
X656500Y24500D02*
D03*
D192*
X657000Y1000D02*
D03*
D193*
X569870Y12500D02*
D03*
D194*
X496370D02*
D03*
D195*
X428000D02*
D03*
M02*
