G04 Layer_Physical_Order=2*
G04 Layer_Color=36540*
%FSLAX44Y44*%
%MOMM*%
G71*
G01*
G75*
%ADD73C,1.5000*%
%ADD74R,1.5000X1.5000*%
%ADD78C,1.0000*%
%ADD80O,3.0000X4.0000*%
%ADD82C,0.6000*%
%ADD83C,0.8000*%
G36*
X950611Y596181D02*
X946947Y593052D01*
X943625Y589162D01*
X940952Y584800D01*
X938995Y580074D01*
X937800Y575100D01*
X937399Y570000D01*
X937800Y564900D01*
X938995Y559926D01*
X940952Y555200D01*
X943625Y550838D01*
X946947Y546948D01*
X950837Y543625D01*
X955199Y540953D01*
X959926Y538995D01*
X964900Y537801D01*
X970000Y537399D01*
X975099Y537801D01*
X980074Y538995D01*
X984800Y540953D01*
X989162Y543625D01*
X993052Y546948D01*
X996181Y550612D01*
X997451Y550355D01*
Y122039D01*
X947923Y122039D01*
X945039Y124923D01*
X945039Y189500D01*
X944884Y190280D01*
X944442Y190942D01*
X944442Y190942D01*
X940442Y194942D01*
X940442Y194942D01*
X939780Y195384D01*
X939000Y195539D01*
X767000Y195539D01*
X766220Y195384D01*
X765558Y194942D01*
X765558Y194942D01*
X761558Y190942D01*
X761558Y190942D01*
X761116Y190280D01*
X760961Y189500D01*
X760961Y120845D01*
X737558Y97442D01*
X737116Y96780D01*
X736961Y96000D01*
X736961Y91000D01*
Y2549D01*
X49646D01*
X49388Y3819D01*
X53052Y6948D01*
X56374Y10838D01*
X59047Y15199D01*
X61005Y19926D01*
X62199Y24900D01*
X62600Y30000D01*
X62199Y35100D01*
X61005Y40074D01*
X59047Y44800D01*
X56374Y49162D01*
X53052Y53052D01*
X49162Y56374D01*
X44800Y59047D01*
X40074Y61005D01*
X35100Y62199D01*
X30000Y62600D01*
X24900Y62199D01*
X19926Y61005D01*
X15199Y59047D01*
X10838Y56374D01*
X6948Y53052D01*
X3819Y49388D01*
X2549Y49646D01*
Y550354D01*
X3819Y550611D01*
X6948Y546948D01*
X10838Y543625D01*
X15200Y540953D01*
X19926Y538995D01*
X24900Y537801D01*
X30000Y537399D01*
X35100Y537801D01*
X40074Y538995D01*
X44800Y540953D01*
X49162Y543625D01*
X53052Y546948D01*
X56374Y550838D01*
X59047Y555200D01*
X61005Y559926D01*
X62199Y564900D01*
X62600Y570000D01*
X62199Y575100D01*
X61005Y580074D01*
X59047Y584800D01*
X56374Y589162D01*
X53052Y593052D01*
X49388Y596181D01*
X49646Y597451D01*
X84818D01*
X85623Y596514D01*
Y596514D01*
D01*
X85645Y596181D01*
X85635Y596180D01*
X83779Y595935D01*
X81468Y594978D01*
X79484Y593455D01*
X77961Y591471D01*
X77004Y589160D01*
X76677Y586680D01*
X77004Y584200D01*
X77961Y581889D01*
X79484Y579904D01*
X81468Y578382D01*
X83779Y577424D01*
X86259Y577098D01*
X88739Y577424D01*
X91050Y578382D01*
X93035Y579904D01*
X94558Y581889D01*
X95515Y584200D01*
X95841Y586680D01*
X95515Y589160D01*
X94558Y591471D01*
X93035Y593455D01*
X91050Y594978D01*
X88739Y595935D01*
X86884Y596180D01*
X86874Y596181D01*
X86896Y596514D01*
X87701Y597451D01*
X110218D01*
X111023Y596514D01*
Y596514D01*
D01*
X111045Y596181D01*
X111035Y596180D01*
X109179Y595935D01*
X106868Y594978D01*
X104884Y593455D01*
X103361Y591471D01*
X102404Y589160D01*
X102078Y586680D01*
X102404Y584200D01*
X103361Y581889D01*
X104884Y579904D01*
X106868Y578382D01*
X109179Y577424D01*
X111659Y577098D01*
X114139Y577424D01*
X116450Y578382D01*
X118435Y579904D01*
X119958Y581889D01*
X120915Y584200D01*
X121241Y586680D01*
X120915Y589160D01*
X119958Y591471D01*
X118435Y593455D01*
X116450Y594978D01*
X114139Y595935D01*
X112284Y596180D01*
X112274Y596181D01*
X112296Y596514D01*
X113101Y597451D01*
X135618D01*
X136423Y596514D01*
Y596514D01*
D01*
X136445Y596181D01*
X136435Y596180D01*
X134579Y595935D01*
X132268Y594978D01*
X130284Y593455D01*
X128761Y591471D01*
X127804Y589160D01*
X127478Y586680D01*
X127804Y584200D01*
X128761Y581889D01*
X130284Y579904D01*
X132268Y578382D01*
X134579Y577424D01*
X137059Y577098D01*
X139539Y577424D01*
X141850Y578382D01*
X143835Y579904D01*
X145358Y581889D01*
X146315Y584200D01*
X146641Y586680D01*
X146315Y589160D01*
X145358Y591471D01*
X143835Y593455D01*
X141850Y594978D01*
X139539Y595935D01*
X137684Y596180D01*
X137674Y596181D01*
X137696Y596514D01*
X138501Y597451D01*
X209813D01*
X210066Y596181D01*
X208216Y595415D01*
X206128Y593812D01*
X204525Y591723D01*
X203517Y589290D01*
X203338Y587930D01*
X223181D01*
X223002Y589290D01*
X221995Y591723D01*
X220392Y593812D01*
X218303Y595415D01*
X216453Y596181D01*
X216706Y597451D01*
X237204D01*
X238023Y596520D01*
Y596520D01*
D01*
X238046Y596181D01*
X238035Y596180D01*
X236180Y595935D01*
X233869Y594978D01*
X231884Y593455D01*
X230361Y591471D01*
X229404Y589160D01*
X229078Y586680D01*
X229404Y584200D01*
X230361Y581889D01*
X231884Y579904D01*
X233869Y578382D01*
X236180Y577424D01*
X238660Y577098D01*
X241140Y577424D01*
X243451Y578382D01*
X245435Y579904D01*
X246958Y581889D01*
X247915Y584200D01*
X248242Y586680D01*
X247915Y589160D01*
X246958Y591471D01*
X245435Y593455D01*
X243451Y594978D01*
X241140Y595935D01*
X239284Y596180D01*
X239274Y596181D01*
X239296Y596520D01*
X240115Y597451D01*
X270238D01*
X271043Y596514D01*
Y596514D01*
D01*
X271065Y596181D01*
X271055Y596180D01*
X269199Y595935D01*
X266888Y594978D01*
X264904Y593455D01*
X263381Y591471D01*
X262424Y589160D01*
X262097Y586680D01*
X262424Y584200D01*
X263381Y581889D01*
X264904Y579904D01*
X266888Y578382D01*
X269199Y577424D01*
X271679Y577098D01*
X274159Y577424D01*
X276470Y578382D01*
X278455Y579904D01*
X279978Y581889D01*
X280935Y584200D01*
X281261Y586680D01*
X280935Y589160D01*
X279978Y591471D01*
X278455Y593455D01*
X276470Y594978D01*
X274159Y595935D01*
X272304Y596180D01*
X272294Y596181D01*
X272316Y596514D01*
X273121Y597451D01*
X295638D01*
X296443Y596514D01*
Y596514D01*
D01*
X296465Y596181D01*
X296455Y596180D01*
X294599Y595935D01*
X292288Y594978D01*
X290304Y593455D01*
X288781Y591471D01*
X287824Y589160D01*
X287498Y586680D01*
X287824Y584200D01*
X288781Y581889D01*
X290304Y579904D01*
X292288Y578382D01*
X294599Y577424D01*
X297079Y577098D01*
X299559Y577424D01*
X301870Y578382D01*
X303855Y579904D01*
X305378Y581889D01*
X306335Y584200D01*
X306661Y586680D01*
X306335Y589160D01*
X305378Y591471D01*
X303855Y593455D01*
X301870Y594978D01*
X299559Y595935D01*
X297704Y596180D01*
X297694Y596181D01*
X297716Y596514D01*
X298521Y597451D01*
X321038D01*
X321843Y596514D01*
Y596514D01*
D01*
X321865Y596181D01*
X321855Y596180D01*
X319999Y595935D01*
X317688Y594978D01*
X315704Y593455D01*
X314181Y591471D01*
X313224Y589160D01*
X312897Y586680D01*
X313224Y584200D01*
X314181Y581889D01*
X315704Y579904D01*
X317688Y578382D01*
X319999Y577424D01*
X322479Y577098D01*
X324959Y577424D01*
X327270Y578382D01*
X329255Y579904D01*
X330778Y581889D01*
X331735Y584200D01*
X332061Y586680D01*
X331735Y589160D01*
X330778Y591471D01*
X329255Y593455D01*
X327270Y594978D01*
X324959Y595935D01*
X323104Y596180D01*
X323094Y596181D01*
X323116Y596514D01*
X323921Y597451D01*
X395233D01*
X395486Y596181D01*
X393637Y595415D01*
X391548Y593812D01*
X389945Y591723D01*
X388937Y589290D01*
X388758Y587930D01*
X408601D01*
X408422Y589290D01*
X407415Y591723D01*
X405812Y593812D01*
X403723Y595415D01*
X401873Y596181D01*
X402126Y597451D01*
X422624D01*
X423443Y596520D01*
Y596520D01*
D01*
X423465Y596181D01*
X423455Y596180D01*
X421600Y595935D01*
X419289Y594978D01*
X417304Y593455D01*
X415781Y591471D01*
X414824Y589160D01*
X414498Y586680D01*
X414824Y584200D01*
X415781Y581889D01*
X417304Y579904D01*
X419289Y578382D01*
X421600Y577424D01*
X424080Y577098D01*
X426560Y577424D01*
X428871Y578382D01*
X430855Y579904D01*
X432378Y581889D01*
X433335Y584200D01*
X433662Y586680D01*
X433335Y589160D01*
X432378Y591471D01*
X430855Y593455D01*
X428871Y594978D01*
X426560Y595935D01*
X424704Y596180D01*
X424694Y596181D01*
X424716Y596520D01*
X425535Y597451D01*
X455658D01*
X456463Y596514D01*
Y596514D01*
D01*
X456485Y596181D01*
X456475Y596180D01*
X454619Y595935D01*
X452308Y594978D01*
X450324Y593455D01*
X448801Y591471D01*
X447844Y589160D01*
X447518Y586680D01*
X447844Y584200D01*
X448801Y581889D01*
X450324Y579904D01*
X452308Y578382D01*
X454619Y577424D01*
X457099Y577098D01*
X459579Y577424D01*
X461890Y578382D01*
X463875Y579904D01*
X465398Y581889D01*
X466355Y584200D01*
X466681Y586680D01*
X466355Y589160D01*
X465398Y591471D01*
X463875Y593455D01*
X461890Y594978D01*
X459579Y595935D01*
X457724Y596180D01*
X457714Y596181D01*
X457736Y596514D01*
X458541Y597451D01*
X481058D01*
X481863Y596514D01*
Y596514D01*
D01*
X481885Y596181D01*
X481875Y596180D01*
X480019Y595935D01*
X477708Y594978D01*
X475724Y593455D01*
X474201Y591471D01*
X473244Y589160D01*
X472918Y586680D01*
X473244Y584200D01*
X474201Y581889D01*
X475724Y579904D01*
X477708Y578382D01*
X480019Y577424D01*
X482499Y577098D01*
X484979Y577424D01*
X487290Y578382D01*
X489275Y579904D01*
X490798Y581889D01*
X491755Y584200D01*
X492081Y586680D01*
X491755Y589160D01*
X490798Y591471D01*
X489275Y593455D01*
X487290Y594978D01*
X484979Y595935D01*
X483124Y596180D01*
X483114Y596181D01*
X483136Y596514D01*
X483941Y597451D01*
X506458D01*
X507263Y596514D01*
Y596514D01*
D01*
X507285Y596181D01*
X507275Y596180D01*
X505419Y595935D01*
X503108Y594978D01*
X501124Y593455D01*
X499601Y591471D01*
X498644Y589160D01*
X498317Y586680D01*
X498644Y584200D01*
X499601Y581889D01*
X501124Y579904D01*
X503108Y578382D01*
X505419Y577424D01*
X507899Y577098D01*
X510379Y577424D01*
X512690Y578382D01*
X514675Y579904D01*
X516198Y581889D01*
X517155Y584200D01*
X517481Y586680D01*
X517155Y589160D01*
X516198Y591471D01*
X514675Y593455D01*
X512690Y594978D01*
X510379Y595935D01*
X508524Y596180D01*
X508514Y596181D01*
X508536Y596514D01*
X509341Y597451D01*
X580653D01*
X580906Y596181D01*
X579057Y595415D01*
X576968Y593812D01*
X575365Y591723D01*
X574357Y589290D01*
X574178Y587930D01*
X594021D01*
X593842Y589290D01*
X592835Y591723D01*
X591232Y593812D01*
X589143Y595415D01*
X587293Y596181D01*
X587546Y597451D01*
X608044D01*
X608863Y596520D01*
Y596520D01*
D01*
X608885Y596181D01*
X608875Y596180D01*
X607020Y595935D01*
X604709Y594978D01*
X602724Y593455D01*
X601201Y591471D01*
X600244Y589160D01*
X599918Y586680D01*
X600244Y584200D01*
X601201Y581889D01*
X602724Y579904D01*
X604709Y578382D01*
X607020Y577424D01*
X609500Y577098D01*
X611980Y577424D01*
X614291Y578382D01*
X616275Y579904D01*
X617798Y581889D01*
X618755Y584200D01*
X619082Y586680D01*
X618755Y589160D01*
X617798Y591471D01*
X616275Y593455D01*
X614291Y594978D01*
X611980Y595935D01*
X610124Y596180D01*
X610114Y596181D01*
X610136Y596520D01*
X610955Y597451D01*
X641078D01*
X641883Y596514D01*
Y596514D01*
D01*
X641905Y596181D01*
X641895Y596180D01*
X640039Y595935D01*
X637728Y594978D01*
X635744Y593455D01*
X634221Y591471D01*
X633264Y589160D01*
X632938Y586680D01*
X633264Y584200D01*
X634221Y581889D01*
X635744Y579904D01*
X637728Y578382D01*
X640039Y577424D01*
X642519Y577098D01*
X644999Y577424D01*
X647310Y578382D01*
X649295Y579904D01*
X650818Y581889D01*
X651775Y584200D01*
X652101Y586680D01*
X651775Y589160D01*
X650818Y591471D01*
X649295Y593455D01*
X647310Y594978D01*
X644999Y595935D01*
X643144Y596180D01*
X643134Y596181D01*
X643156Y596514D01*
X643961Y597451D01*
X666478D01*
X667283Y596514D01*
Y596514D01*
D01*
X667305Y596181D01*
X667295Y596180D01*
X665439Y595935D01*
X663128Y594978D01*
X661144Y593455D01*
X659621Y591471D01*
X658664Y589160D01*
X658337Y586680D01*
X658664Y584200D01*
X659621Y581889D01*
X661144Y579904D01*
X663128Y578382D01*
X665439Y577424D01*
X667919Y577098D01*
X670399Y577424D01*
X672710Y578382D01*
X674695Y579904D01*
X676218Y581889D01*
X677175Y584200D01*
X677501Y586680D01*
X677175Y589160D01*
X676218Y591471D01*
X674695Y593455D01*
X672710Y594978D01*
X670399Y595935D01*
X668544Y596180D01*
X668534Y596181D01*
X668556Y596514D01*
X669361Y597451D01*
X691878D01*
X692683Y596514D01*
Y596514D01*
D01*
X692705Y596181D01*
X692695Y596180D01*
X690839Y595935D01*
X688528Y594978D01*
X686544Y593455D01*
X685021Y591471D01*
X684064Y589160D01*
X683737Y586680D01*
X684064Y584200D01*
X685021Y581889D01*
X686544Y579904D01*
X688528Y578382D01*
X690839Y577424D01*
X693319Y577098D01*
X695799Y577424D01*
X698110Y578382D01*
X700095Y579904D01*
X701618Y581889D01*
X702575Y584200D01*
X702901Y586680D01*
X702575Y589160D01*
X701618Y591471D01*
X700095Y593455D01*
X698110Y594978D01*
X695799Y595935D01*
X693944Y596180D01*
X693934Y596181D01*
X693956Y596514D01*
X694761Y597451D01*
X766073D01*
X766326Y596181D01*
X764476Y595415D01*
X762387Y593812D01*
X760785Y591723D01*
X759777Y589290D01*
X759598Y587930D01*
X779441D01*
X779262Y589290D01*
X778254Y591723D01*
X776652Y593812D01*
X774563Y595415D01*
X772713Y596181D01*
X772966Y597451D01*
X793478D01*
X794283Y596514D01*
Y596514D01*
D01*
X794305Y596181D01*
X794295Y596180D01*
X792439Y595935D01*
X790128Y594978D01*
X788144Y593455D01*
X786621Y591471D01*
X785664Y589160D01*
X785338Y586680D01*
X785664Y584200D01*
X786621Y581889D01*
X788144Y579904D01*
X790128Y578382D01*
X792439Y577424D01*
X794919Y577098D01*
X797399Y577424D01*
X799710Y578382D01*
X801695Y579904D01*
X803218Y581889D01*
X804175Y584200D01*
X804501Y586680D01*
X804175Y589160D01*
X803218Y591471D01*
X801695Y593455D01*
X799710Y594978D01*
X797399Y595935D01*
X795544Y596180D01*
X795534Y596181D01*
X795556Y596514D01*
X796361Y597451D01*
X826498D01*
X827303Y596514D01*
Y596514D01*
D01*
X827325Y596181D01*
X827315Y596180D01*
X825459Y595935D01*
X823148Y594978D01*
X821164Y593455D01*
X819641Y591471D01*
X818684Y589160D01*
X818357Y586680D01*
X818684Y584200D01*
X819641Y581889D01*
X821164Y579904D01*
X823148Y578382D01*
X825459Y577424D01*
X827939Y577098D01*
X830419Y577424D01*
X832730Y578382D01*
X834715Y579904D01*
X836238Y581889D01*
X837195Y584200D01*
X837521Y586680D01*
X837195Y589160D01*
X836238Y591471D01*
X834715Y593455D01*
X832730Y594978D01*
X830419Y595935D01*
X828564Y596180D01*
X828554Y596181D01*
X828576Y596514D01*
X829381Y597451D01*
X851898D01*
X852703Y596514D01*
Y596514D01*
D01*
X852725Y596181D01*
X852715Y596180D01*
X850859Y595935D01*
X848548Y594978D01*
X846564Y593455D01*
X845041Y591471D01*
X844084Y589160D01*
X843757Y586680D01*
X844084Y584200D01*
X845041Y581889D01*
X846564Y579904D01*
X848548Y578382D01*
X850859Y577424D01*
X853339Y577098D01*
X855819Y577424D01*
X858130Y578382D01*
X860115Y579904D01*
X861638Y581889D01*
X862595Y584200D01*
X862921Y586680D01*
X862595Y589160D01*
X861638Y591471D01*
X860115Y593455D01*
X858130Y594978D01*
X855819Y595935D01*
X853964Y596180D01*
X853954Y596181D01*
X853976Y596514D01*
X854781Y597451D01*
X877298D01*
X878103Y596514D01*
Y596514D01*
D01*
X878125Y596181D01*
X878115Y596180D01*
X876259Y595935D01*
X873948Y594978D01*
X871964Y593455D01*
X870441Y591471D01*
X869484Y589160D01*
X869157Y586680D01*
X869484Y584200D01*
X870441Y581889D01*
X871964Y579904D01*
X873948Y578382D01*
X876259Y577424D01*
X878739Y577098D01*
X881219Y577424D01*
X883530Y578382D01*
X885515Y579904D01*
X887038Y581889D01*
X887995Y584200D01*
X888321Y586680D01*
X887995Y589160D01*
X887038Y591471D01*
X885515Y593455D01*
X883530Y594978D01*
X881219Y595935D01*
X879364Y596180D01*
X879354Y596181D01*
X879376Y596514D01*
X880181Y597451D01*
X950354D01*
X950611Y596181D01*
D02*
G37*
G36*
X943000Y189500D02*
X943000Y124078D01*
X947078Y120000D01*
X997451Y120000D01*
Y49644D01*
X996181Y49388D01*
X993051Y53052D01*
X989162Y56374D01*
X984800Y59047D01*
X980073Y61005D01*
X975099Y62199D01*
X969999Y62600D01*
X964900Y62199D01*
X959925Y61005D01*
X955199Y59047D01*
X950837Y56374D01*
X946947Y53052D01*
X943625Y49162D01*
X940952Y44800D01*
X938995Y40074D01*
X937800Y35100D01*
X937399Y30000D01*
X937800Y24900D01*
X938995Y19926D01*
X940952Y15199D01*
X943625Y10838D01*
X946947Y6948D01*
X949848Y4470D01*
X949840Y3200D01*
X949059Y2549D01*
X739000D01*
Y91000D01*
X739000Y96000D01*
X763000Y120000D01*
X763000Y189500D01*
X767000Y193500D01*
X939000Y193500D01*
X943000Y189500D01*
D02*
G37*
%LPC*%
G36*
X491510Y213380D02*
X482838D01*
X483017Y212020D01*
X484025Y209587D01*
X485628Y207498D01*
X487717Y205895D01*
X490149Y204887D01*
X491510Y204708D01*
Y213380D01*
D02*
G37*
G36*
X502682D02*
X494010D01*
Y204708D01*
X495370Y204887D01*
X497803Y205895D01*
X499892Y207498D01*
X501495Y209587D01*
X502503Y212020D01*
X502682Y213380D01*
D02*
G37*
G36*
X593110D02*
X584438D01*
X584617Y212020D01*
X585625Y209587D01*
X587228Y207498D01*
X589317Y205895D01*
X591749Y204887D01*
X593110Y204708D01*
Y213380D01*
D02*
G37*
G36*
X553482D02*
X544810D01*
Y204708D01*
X546171Y204887D01*
X548603Y205895D01*
X550692Y207498D01*
X552295Y209587D01*
X553303Y212020D01*
X553482Y213380D01*
D02*
G37*
G36*
X542310D02*
X533638D01*
X533817Y212020D01*
X534825Y209587D01*
X536428Y207498D01*
X538517Y205895D01*
X540950Y204887D01*
X542310Y204708D01*
Y213380D01*
D02*
G37*
G36*
X117500Y204598D02*
X115549Y204210D01*
X113895Y203105D01*
X112790Y201451D01*
X112402Y199500D01*
X112790Y197549D01*
X113895Y195895D01*
X115549Y194790D01*
X117500Y194402D01*
X119451Y194790D01*
X121105Y195895D01*
X122210Y197549D01*
X122598Y199500D01*
X122210Y201451D01*
X121105Y203105D01*
X119451Y204210D01*
X117500Y204598D01*
D02*
G37*
G36*
X439000Y210098D02*
X437049Y209710D01*
X435395Y208605D01*
X434290Y206951D01*
X433902Y205000D01*
X434290Y203049D01*
X435395Y201395D01*
X437049Y200290D01*
X439000Y199902D01*
X439462Y198699D01*
X439790Y197049D01*
X440895Y195395D01*
X442549Y194290D01*
X444500Y193902D01*
X446451Y194290D01*
X448105Y195395D01*
X449210Y197049D01*
X449598Y199000D01*
X449210Y200951D01*
X448105Y202605D01*
X446451Y203710D01*
X444500Y204098D01*
X444038Y205301D01*
X443710Y206951D01*
X442605Y208605D01*
X440951Y209710D01*
X439000Y210098D01*
D02*
G37*
G36*
X422500Y200098D02*
X420549Y199710D01*
X418895Y198605D01*
X417790Y196951D01*
X417402Y195000D01*
X417790Y193049D01*
X418895Y191395D01*
X420549Y190290D01*
X422500Y189902D01*
X424451Y190290D01*
X426105Y191395D01*
X427210Y193049D01*
X427598Y195000D01*
X427210Y196951D01*
X426105Y198605D01*
X424451Y199710D01*
X422500Y200098D01*
D02*
G37*
G36*
X405500Y204898D02*
X403549Y204510D01*
X401895Y203405D01*
X400790Y201751D01*
X400402Y199800D01*
X400790Y197849D01*
X401895Y196195D01*
X403549Y195090D01*
X405500Y194702D01*
X407451Y195090D01*
X409105Y196195D01*
X410210Y197849D01*
X410598Y199800D01*
X410210Y201751D01*
X409105Y203405D01*
X407451Y204510D01*
X405500Y204898D01*
D02*
G37*
G36*
X367000Y217598D02*
X365049Y217210D01*
X363395Y216105D01*
X362290Y214451D01*
X361902Y212500D01*
X362289Y210556D01*
X360549Y210210D01*
X358895Y209105D01*
X357790Y207451D01*
X357402Y205500D01*
X357668Y204163D01*
X356706Y203060D01*
X356515Y203098D01*
X354564Y202710D01*
X352910Y201605D01*
X351805Y199951D01*
X351417Y198000D01*
X351805Y196049D01*
X352910Y194395D01*
X354564Y193290D01*
X356515Y192902D01*
X358466Y193290D01*
X360120Y194395D01*
X361225Y196049D01*
X361613Y198000D01*
X361347Y199336D01*
X362309Y200440D01*
X362500Y200402D01*
X364451Y200790D01*
X366105Y201895D01*
X367210Y203549D01*
X367598Y205500D01*
X367211Y207444D01*
X368951Y207790D01*
X370605Y208895D01*
X371710Y210549D01*
X372098Y212500D01*
X371710Y214451D01*
X370605Y216105D01*
X368951Y217210D01*
X367000Y217598D01*
D02*
G37*
G36*
X257500Y212598D02*
X255549Y212210D01*
X253895Y211105D01*
X252790Y209451D01*
X252402Y207500D01*
X252790Y205549D01*
X253895Y203895D01*
X255549Y202790D01*
X257500Y202402D01*
X259451Y202790D01*
X261105Y203895D01*
X262210Y205549D01*
X262598Y207500D01*
X262210Y209451D01*
X261105Y211105D01*
X259451Y212210D01*
X257500Y212598D01*
D02*
G37*
G36*
X67000Y208598D02*
X65049Y208210D01*
X63395Y207105D01*
X62290Y205451D01*
X61902Y203500D01*
X62290Y201549D01*
X63395Y199895D01*
X65049Y198790D01*
X67000Y198402D01*
X68951Y198790D01*
X70605Y199895D01*
X71710Y201549D01*
X72098Y203500D01*
X71710Y205451D01*
X70605Y207105D01*
X68951Y208210D01*
X67000Y208598D01*
D02*
G37*
G36*
X959000Y226482D02*
X956520Y226155D01*
X954209Y225198D01*
X952224Y223675D01*
X950702Y221691D01*
X949744Y219380D01*
X949418Y216900D01*
X949744Y214420D01*
X950702Y212109D01*
X952224Y210124D01*
X954209Y208601D01*
X956520Y207644D01*
X959000Y207318D01*
X961480Y207644D01*
X963791Y208601D01*
X965775Y210124D01*
X967298Y212109D01*
X968255Y214420D01*
X968582Y216900D01*
X968255Y219380D01*
X967298Y221691D01*
X965775Y223675D01*
X963791Y225198D01*
X961480Y226155D01*
X959000Y226482D01*
D02*
G37*
G36*
X218000Y216598D02*
X216049Y216210D01*
X214395Y215105D01*
X213290Y213451D01*
X212902Y211500D01*
X213037Y210820D01*
X213181Y210098D01*
X213290Y209549D01*
X214395Y207895D01*
X216049Y206790D01*
X218000Y206402D01*
X219951Y206790D01*
X221605Y207895D01*
X222710Y209549D01*
X222963Y210820D01*
X223098Y211500D01*
X222710Y213451D01*
X221605Y215105D01*
X219951Y216210D01*
X218000Y216598D01*
D02*
G37*
G36*
X476860Y224130D02*
X457860D01*
Y205130D01*
X476860D01*
Y224130D01*
D02*
G37*
G36*
X49500Y222598D02*
X47549Y222210D01*
X45895Y221105D01*
X44790Y219451D01*
X44402Y217500D01*
X44790Y215549D01*
X45895Y213895D01*
X47549Y212790D01*
X49500Y212402D01*
X51451Y212790D01*
X53105Y213895D01*
X54210Y215549D01*
X54598Y217500D01*
X54210Y219451D01*
X53105Y221105D01*
X51451Y222210D01*
X49500Y222598D01*
D02*
G37*
G36*
X135000Y220598D02*
X133049Y220210D01*
X131395Y219105D01*
X130290Y217451D01*
X129902Y215500D01*
X130290Y213549D01*
X131395Y211895D01*
X133049Y210790D01*
X135000Y210402D01*
X135629Y210527D01*
X136527Y209629D01*
X136402Y209000D01*
X136790Y207049D01*
X137895Y205395D01*
X139549Y204290D01*
X141500Y203902D01*
X143451Y204290D01*
X145105Y205395D01*
X146210Y207049D01*
X146362Y207813D01*
X147202Y208161D01*
X147744Y208251D01*
X149500Y207902D01*
X151451Y208290D01*
X153105Y209395D01*
X154210Y211049D01*
X154598Y213000D01*
X154210Y214951D01*
X153105Y216605D01*
X151451Y217710D01*
X149500Y218098D01*
X147549Y217710D01*
X145895Y216605D01*
X144790Y214951D01*
X144638Y214187D01*
X143798Y213839D01*
X143256Y213749D01*
X141500Y214098D01*
X140871Y213973D01*
X139973Y214871D01*
X140098Y215500D01*
X139710Y217451D01*
X138605Y219105D01*
X136951Y220210D01*
X135000Y220598D01*
D02*
G37*
G36*
X984400Y226482D02*
X981920Y226155D01*
X979609Y225198D01*
X977624Y223675D01*
X976102Y221691D01*
X975144Y219380D01*
X974818Y216900D01*
X975144Y214420D01*
X976102Y212109D01*
X977624Y210124D01*
X979609Y208601D01*
X981920Y207644D01*
X984400Y207318D01*
X986880Y207644D01*
X989191Y208601D01*
X991175Y210124D01*
X992698Y212109D01*
X993655Y214420D01*
X993982Y216900D01*
X993655Y219380D01*
X992698Y221691D01*
X991175Y223675D01*
X989191Y225198D01*
X986880Y226155D01*
X984400Y226482D01*
D02*
G37*
G36*
X655082Y213380D02*
X646410D01*
Y204708D01*
X647770Y204887D01*
X650203Y205895D01*
X652292Y207498D01*
X653895Y209587D01*
X654903Y212020D01*
X655082Y213380D01*
D02*
G37*
G36*
X643910D02*
X635238D01*
X635417Y212020D01*
X636425Y209587D01*
X638028Y207498D01*
X640117Y205895D01*
X642550Y204887D01*
X643910Y204708D01*
Y213380D01*
D02*
G37*
G36*
X604282D02*
X595610D01*
Y204708D01*
X596970Y204887D01*
X599403Y205895D01*
X601492Y207498D01*
X603095Y209587D01*
X604103Y212020D01*
X604282Y213380D01*
D02*
G37*
G36*
X619760Y224212D02*
X617280Y223885D01*
X614969Y222928D01*
X612985Y221405D01*
X611462Y219421D01*
X610504Y217110D01*
X610178Y214630D01*
X610504Y212150D01*
X611462Y209839D01*
X612985Y207854D01*
X614969Y206332D01*
X617280Y205375D01*
X619760Y205048D01*
X622240Y205375D01*
X624551Y206332D01*
X626535Y207854D01*
X628058Y209839D01*
X629016Y212150D01*
X629342Y214630D01*
X629016Y217110D01*
X628058Y219421D01*
X626535Y221405D01*
X624551Y222928D01*
X622240Y223885D01*
X619760Y224212D01*
D02*
G37*
G36*
X568960D02*
X566480Y223885D01*
X564169Y222928D01*
X562184Y221405D01*
X560662Y219421D01*
X559705Y217110D01*
X559378Y214630D01*
X559705Y212150D01*
X560662Y209839D01*
X562184Y207854D01*
X564169Y206332D01*
X566480Y205375D01*
X568960Y205048D01*
X571440Y205375D01*
X573751Y206332D01*
X575735Y207854D01*
X577258Y209839D01*
X578215Y212150D01*
X578542Y214630D01*
X578215Y217110D01*
X577258Y219421D01*
X575735Y221405D01*
X573751Y222928D01*
X571440Y223885D01*
X568960Y224212D01*
D02*
G37*
G36*
X518160D02*
X515680Y223885D01*
X513369Y222928D01*
X511385Y221405D01*
X509862Y219421D01*
X508904Y217110D01*
X508578Y214630D01*
X508904Y212150D01*
X509862Y209839D01*
X511385Y207854D01*
X513369Y206332D01*
X515680Y205375D01*
X518160Y205048D01*
X520640Y205375D01*
X522951Y206332D01*
X524935Y207854D01*
X526458Y209839D01*
X527416Y212150D01*
X527742Y214630D01*
X527416Y217110D01*
X526458Y219421D01*
X524935Y221405D01*
X522951Y222928D01*
X520640Y223885D01*
X518160Y224212D01*
D02*
G37*
G36*
X163500Y169598D02*
X161549Y169210D01*
X159895Y168105D01*
X158790Y166451D01*
X158402Y164500D01*
X158790Y162549D01*
X159895Y160895D01*
X161549Y159790D01*
X163500Y159402D01*
X165451Y159790D01*
X167105Y160895D01*
X168210Y162549D01*
X168598Y164500D01*
X168210Y166451D01*
X167105Y168105D01*
X165451Y169210D01*
X163500Y169598D01*
D02*
G37*
G36*
X331500Y168598D02*
X329549Y168210D01*
X327895Y167105D01*
X326790Y165451D01*
X326402Y163500D01*
X326790Y161549D01*
X327895Y159895D01*
X329549Y158790D01*
X331500Y158402D01*
X333451Y158790D01*
X335105Y159895D01*
X336210Y161549D01*
X336598Y163500D01*
X336210Y165451D01*
X335105Y167105D01*
X333451Y168210D01*
X331500Y168598D01*
D02*
G37*
G36*
X984400Y175682D02*
X981920Y175355D01*
X979609Y174398D01*
X977624Y172875D01*
X976102Y170891D01*
X975144Y168580D01*
X974818Y166100D01*
X975144Y163620D01*
X976102Y161309D01*
X977624Y159324D01*
X979609Y157802D01*
X981920Y156844D01*
X984400Y156518D01*
X986880Y156844D01*
X989191Y157802D01*
X991175Y159324D01*
X992698Y161309D01*
X993655Y163620D01*
X993982Y166100D01*
X993655Y168580D01*
X992698Y170891D01*
X991175Y172875D01*
X989191Y174398D01*
X986880Y175355D01*
X984400Y175682D01*
D02*
G37*
G36*
X409000Y177098D02*
X407049Y176710D01*
X405395Y175605D01*
X404290Y173951D01*
X403902Y172000D01*
X404290Y170049D01*
X405395Y168395D01*
X407049Y167290D01*
X409000Y166902D01*
X410951Y167290D01*
X412605Y168395D01*
X413710Y170049D01*
X414098Y172000D01*
X413710Y173951D01*
X412605Y175605D01*
X410951Y176710D01*
X409000Y177098D01*
D02*
G37*
G36*
X175000Y175098D02*
X173049Y174710D01*
X171395Y173605D01*
X170290Y171951D01*
X169902Y170000D01*
X170290Y168049D01*
X171395Y166395D01*
X173049Y165290D01*
X175000Y164902D01*
X176951Y165290D01*
X178605Y166395D01*
X179710Y168049D01*
X180098Y170000D01*
X179710Y171951D01*
X178605Y173605D01*
X176951Y174710D01*
X175000Y175098D01*
D02*
G37*
G36*
X281500Y174598D02*
X279549Y174210D01*
X277895Y173105D01*
X276790Y171451D01*
X276402Y169500D01*
X276790Y167549D01*
X277895Y165895D01*
X279549Y164790D01*
X281500Y164402D01*
X283451Y164790D01*
X285105Y165895D01*
X286210Y167549D01*
X286598Y169500D01*
X286210Y171451D01*
X285105Y173105D01*
X283451Y174210D01*
X281500Y174598D01*
D02*
G37*
G36*
X433000Y168598D02*
X431049Y168210D01*
X429395Y167105D01*
X428290Y165451D01*
X427902Y163500D01*
X428290Y161549D01*
X429395Y159895D01*
X431049Y158790D01*
X431977Y158606D01*
X432941Y157194D01*
X432902Y157000D01*
X433290Y155049D01*
X434395Y153395D01*
X436049Y152290D01*
X438000Y151902D01*
X439951Y152290D01*
X441605Y153395D01*
X442710Y155049D01*
X443098Y157000D01*
X442710Y158951D01*
X441605Y160605D01*
X439951Y161710D01*
X439023Y161894D01*
X438059Y163306D01*
X438098Y163500D01*
X437710Y165451D01*
X436605Y167105D01*
X434951Y168210D01*
X433000Y168598D01*
D02*
G37*
G36*
X651510Y169602D02*
X649030Y169275D01*
X646719Y168318D01*
X644734Y166795D01*
X643212Y164811D01*
X642254Y162500D01*
X641928Y160020D01*
X642254Y157540D01*
X643212Y155229D01*
X644734Y153244D01*
X646719Y151721D01*
X649030Y150764D01*
X651510Y150438D01*
X653990Y150764D01*
X656301Y151721D01*
X658285Y153244D01*
X659808Y155229D01*
X660765Y157540D01*
X661092Y160020D01*
X660765Y162500D01*
X659808Y164811D01*
X658285Y166795D01*
X656301Y168318D01*
X653990Y169275D01*
X651510Y169602D01*
D02*
G37*
G36*
X109000Y157098D02*
X107049Y156710D01*
X105395Y155605D01*
X104290Y153951D01*
X103902Y152000D01*
X104290Y150049D01*
X105395Y148395D01*
X107049Y147290D01*
X109000Y146902D01*
X110951Y147290D01*
X112605Y148395D01*
X113710Y150049D01*
X114098Y152000D01*
X113710Y153951D01*
X112605Y155605D01*
X110951Y156710D01*
X109000Y157098D01*
D02*
G37*
G36*
X959000Y175682D02*
X956520Y175355D01*
X954209Y174398D01*
X952224Y172875D01*
X950702Y170891D01*
X949744Y168580D01*
X949418Y166100D01*
X949744Y163620D01*
X950702Y161309D01*
X952224Y159324D01*
X954209Y157802D01*
X956520Y156844D01*
X959000Y156518D01*
X961480Y156844D01*
X963791Y157802D01*
X965775Y159324D01*
X967298Y161309D01*
X968255Y163620D01*
X968582Y166100D01*
X968255Y168580D01*
X967298Y170891D01*
X965775Y172875D01*
X963791Y174398D01*
X961480Y175355D01*
X959000Y175682D01*
D02*
G37*
G36*
X211000Y161098D02*
X209049Y160710D01*
X207395Y159605D01*
X206290Y157951D01*
X205933Y156154D01*
X205468Y155920D01*
X204660Y155772D01*
X204104Y156604D01*
X202451Y157710D01*
X200500Y158098D01*
X198549Y157710D01*
X196895Y156604D01*
X195790Y154951D01*
X195402Y153000D01*
X195790Y151049D01*
X196895Y149395D01*
X197304Y149121D01*
X197477Y147479D01*
X196790Y146451D01*
X196402Y144500D01*
X196790Y142549D01*
X197895Y140895D01*
X199549Y139790D01*
X201500Y139402D01*
X203451Y139790D01*
X205105Y140895D01*
X206210Y142549D01*
X206598Y144500D01*
X206210Y146451D01*
X205105Y148105D01*
X204695Y148378D01*
X204523Y150021D01*
X205210Y151049D01*
X205567Y152845D01*
X206032Y153079D01*
X206839Y153227D01*
X207395Y152395D01*
X209049Y151290D01*
X211000Y150902D01*
X212951Y151290D01*
X214605Y152395D01*
X215710Y154049D01*
X216098Y156000D01*
X215710Y157951D01*
X214605Y159605D01*
X212951Y160710D01*
X211000Y161098D01*
D02*
G37*
G36*
X704000Y155098D02*
X702049Y154710D01*
X700395Y153605D01*
X700135Y153215D01*
X698865D01*
X698605Y153605D01*
X696951Y154710D01*
X695000Y155098D01*
X693049Y154710D01*
X691395Y153605D01*
X691135Y153215D01*
X689865D01*
X689605Y153605D01*
X687951Y154710D01*
X686000Y155098D01*
X684049Y154710D01*
X682395Y153605D01*
X682135Y153215D01*
X680865D01*
X680605Y153605D01*
X678951Y154710D01*
X677000Y155098D01*
X675049Y154710D01*
X673395Y153605D01*
X672290Y151951D01*
X671902Y150000D01*
X672290Y148049D01*
X673395Y146395D01*
X673785Y146135D01*
Y144865D01*
X673395Y144605D01*
X672290Y142951D01*
X671902Y141000D01*
X672290Y139049D01*
X673395Y137395D01*
X674340Y136764D01*
Y135236D01*
X673395Y134605D01*
X672290Y132951D01*
X671902Y131000D01*
X672290Y129049D01*
X673395Y127395D01*
X675049Y126290D01*
X677000Y125902D01*
X678951Y126290D01*
X680605Y127395D01*
X681710Y129049D01*
X682098Y131000D01*
X681710Y132951D01*
X680605Y134605D01*
X679660Y135236D01*
Y136764D01*
X680605Y137395D01*
X681710Y139049D01*
X682098Y141000D01*
X681710Y142951D01*
X680605Y144605D01*
X680215Y144865D01*
Y146135D01*
X680605Y146395D01*
X680865Y146785D01*
X682135D01*
X682395Y146395D01*
X684049Y145290D01*
X686000Y144902D01*
X687951Y145290D01*
X689605Y146395D01*
X689865Y146785D01*
X691135D01*
X691395Y146395D01*
X693049Y145290D01*
X695000Y144902D01*
X696951Y145290D01*
X698605Y146395D01*
X698865Y146785D01*
X700135D01*
X700395Y146395D01*
X702049Y145290D01*
X704000Y144902D01*
X705951Y145290D01*
X707605Y146395D01*
X708710Y148049D01*
X709098Y150000D01*
X708710Y151951D01*
X707605Y153605D01*
X705951Y154710D01*
X704000Y155098D01*
D02*
G37*
G36*
X364500Y175598D02*
X362549Y175210D01*
X360895Y174105D01*
X359790Y172451D01*
X359520Y171091D01*
X358298Y170039D01*
X358000Y170098D01*
X356049Y169710D01*
X354395Y168605D01*
X353290Y166951D01*
X352902Y165000D01*
X353290Y163049D01*
X354395Y161395D01*
X356049Y160290D01*
X358000Y159902D01*
X359951Y160290D01*
X361605Y161395D01*
X362710Y163049D01*
X362980Y164409D01*
X364202Y165461D01*
X364500Y165402D01*
X366451Y165790D01*
X368105Y166895D01*
X369210Y168549D01*
X369598Y170500D01*
X369210Y172451D01*
X368105Y174105D01*
X366451Y175210D01*
X364500Y175598D01*
D02*
G37*
G36*
X372500Y191598D02*
X370549Y191210D01*
X368895Y190105D01*
X367790Y188451D01*
X367433Y186655D01*
X366965Y186420D01*
X366161Y186273D01*
X365605Y187105D01*
X363951Y188210D01*
X362000Y188598D01*
X360049Y188210D01*
X358395Y187105D01*
X357702Y186067D01*
X356122Y185595D01*
X355950Y185709D01*
X353999Y186098D01*
X352048Y185709D01*
X350395Y184604D01*
X349289Y182950D01*
X348901Y181000D01*
X349289Y179049D01*
X350395Y177395D01*
X352048Y176290D01*
X353999Y175902D01*
X355950Y176290D01*
X357604Y177395D01*
X358379Y178555D01*
X359877Y178905D01*
X360049Y178790D01*
X362000Y178402D01*
X363951Y178790D01*
X365605Y179895D01*
X366710Y181549D01*
X367067Y183345D01*
X367535Y183580D01*
X368339Y183727D01*
X368895Y182895D01*
X370549Y181790D01*
X372500Y181402D01*
X374451Y181790D01*
X376105Y182895D01*
X377210Y184549D01*
X377598Y186500D01*
X377210Y188451D01*
X376105Y190105D01*
X374451Y191210D01*
X372500Y191598D01*
D02*
G37*
G36*
X58500Y194598D02*
X56549Y194210D01*
X54895Y193105D01*
X53790Y191451D01*
X53402Y189500D01*
X53790Y187549D01*
X54895Y185895D01*
X56549Y184790D01*
X58500Y184402D01*
X60451Y184790D01*
X62105Y185895D01*
X63210Y187549D01*
X63598Y189500D01*
X63210Y191451D01*
X62105Y193105D01*
X60451Y194210D01*
X58500Y194598D01*
D02*
G37*
G36*
X984400Y201082D02*
X981920Y200755D01*
X979609Y199798D01*
X977624Y198275D01*
X976102Y196291D01*
X975144Y193980D01*
X974818Y191500D01*
X975144Y189020D01*
X976102Y186709D01*
X977624Y184724D01*
X979609Y183202D01*
X981920Y182244D01*
X984400Y181918D01*
X986880Y182244D01*
X989191Y183202D01*
X991175Y184724D01*
X992698Y186709D01*
X993655Y189020D01*
X993982Y191500D01*
X993655Y193980D01*
X992698Y196291D01*
X991175Y198275D01*
X989191Y199798D01*
X986880Y200755D01*
X984400Y201082D01*
D02*
G37*
G36*
X90500Y200098D02*
X88549Y199710D01*
X86895Y198605D01*
X85790Y196951D01*
X85402Y195000D01*
X85790Y193049D01*
X86895Y191395D01*
X88549Y190290D01*
X90500Y189902D01*
X92451Y190290D01*
X94105Y191395D01*
X95210Y193049D01*
X95598Y195000D01*
X95210Y196951D01*
X94105Y198605D01*
X92451Y199710D01*
X90500Y200098D01*
D02*
G37*
G36*
X108500Y197098D02*
X106549Y196710D01*
X104895Y195605D01*
X103790Y193951D01*
X103402Y192000D01*
X103790Y190049D01*
X104895Y188395D01*
X106549Y187290D01*
X108500Y186902D01*
X110451Y187290D01*
X112105Y188395D01*
X113210Y190049D01*
X113598Y192000D01*
X113210Y193951D01*
X112105Y195605D01*
X110451Y196710D01*
X108500Y197098D01*
D02*
G37*
G36*
X661010Y194920D02*
X642010D01*
Y175920D01*
X661010D01*
Y194920D01*
D02*
G37*
G36*
X251500Y181598D02*
X249549Y181210D01*
X247895Y180105D01*
X246790Y178451D01*
X246402Y176500D01*
X246790Y174549D01*
X247895Y172895D01*
X249549Y171790D01*
X251500Y171402D01*
X253451Y171790D01*
X255105Y172895D01*
X256210Y174549D01*
X256598Y176500D01*
X256210Y178451D01*
X255105Y180105D01*
X253451Y181210D01*
X251500Y181598D01*
D02*
G37*
G36*
X268000Y181098D02*
X266049Y180710D01*
X264395Y179605D01*
X263290Y177951D01*
X262902Y176000D01*
X263290Y174049D01*
X264395Y172395D01*
X266049Y171290D01*
X268000Y170902D01*
X269951Y171290D01*
X271605Y172395D01*
X272710Y174049D01*
X273098Y176000D01*
X272710Y177951D01*
X271605Y179605D01*
X269951Y180710D01*
X268000Y181098D01*
D02*
G37*
G36*
X959000Y201082D02*
X956520Y200755D01*
X954209Y199798D01*
X952224Y198275D01*
X950702Y196291D01*
X949744Y193980D01*
X949418Y191500D01*
X949744Y189020D01*
X950702Y186709D01*
X952224Y184724D01*
X954209Y183202D01*
X956520Y182244D01*
X959000Y181918D01*
X961480Y182244D01*
X963791Y183202D01*
X965775Y184724D01*
X967298Y186709D01*
X968255Y189020D01*
X968582Y191500D01*
X968255Y193980D01*
X967298Y196291D01*
X965775Y198275D01*
X963791Y199798D01*
X961480Y200755D01*
X959000Y201082D01*
D02*
G37*
G36*
X276000Y190598D02*
X274049Y190210D01*
X272395Y189105D01*
X271290Y187451D01*
X270902Y185500D01*
X271290Y183549D01*
X272395Y181895D01*
X274049Y180790D01*
X276000Y180402D01*
X277951Y180790D01*
X279605Y181895D01*
X280710Y183549D01*
X281098Y185500D01*
X280710Y187451D01*
X279605Y189105D01*
X277951Y190210D01*
X276000Y190598D01*
D02*
G37*
G36*
X176500Y188598D02*
X174549Y188210D01*
X172895Y187105D01*
X171790Y185451D01*
X171402Y183500D01*
X171790Y181549D01*
X172895Y179895D01*
X174549Y178790D01*
X176500Y178402D01*
X178451Y178790D01*
X180105Y179895D01*
X181210Y181549D01*
X181598Y183500D01*
X181210Y185451D01*
X180105Y187105D01*
X178451Y188210D01*
X176500Y188598D01*
D02*
G37*
G36*
X907000Y246098D02*
X905049Y245710D01*
X903395Y244604D01*
X902764Y243659D01*
X901236D01*
X900604Y244604D01*
X898951Y245710D01*
X897000Y246098D01*
X895049Y245710D01*
X893395Y244604D01*
X892290Y242951D01*
X891902Y241000D01*
X892290Y239049D01*
X893395Y237395D01*
X895049Y236290D01*
X896469Y236007D01*
X897142Y235141D01*
X897232Y234659D01*
X896902Y233000D01*
X897232Y231340D01*
X897142Y230858D01*
X896469Y229992D01*
X895049Y229710D01*
X893395Y228605D01*
X892290Y226951D01*
X891902Y225000D01*
X892290Y223049D01*
X893395Y221395D01*
X895049Y220290D01*
X897000Y219902D01*
X898951Y220290D01*
X900604Y221395D01*
X901236Y222340D01*
X902764D01*
X903395Y221395D01*
X905049Y220290D01*
X907000Y219902D01*
X908951Y220290D01*
X910604Y221395D01*
X911710Y223049D01*
X912098Y225000D01*
X911710Y226951D01*
X910604Y228605D01*
X908951Y229710D01*
X907531Y229992D01*
X906858Y230858D01*
X906768Y231340D01*
X907098Y233000D01*
X906768Y234659D01*
X906858Y235141D01*
X907531Y236007D01*
X908951Y236290D01*
X910604Y237395D01*
X911710Y239049D01*
X912098Y241000D01*
X911710Y242951D01*
X910604Y244604D01*
X908951Y245710D01*
X907000Y246098D01*
D02*
G37*
G36*
X297500Y253598D02*
X295549Y253210D01*
X293895Y252105D01*
X292790Y250451D01*
X292402Y248500D01*
X292790Y246549D01*
X293895Y244895D01*
X295549Y243790D01*
X297500Y243402D01*
X299451Y243790D01*
X301105Y244895D01*
X302210Y246549D01*
X302598Y248500D01*
X302210Y250451D01*
X301105Y252105D01*
X299451Y253210D01*
X297500Y253598D01*
D02*
G37*
G36*
X535000Y252598D02*
X533049Y252210D01*
X531395Y251105D01*
X530290Y249451D01*
X529902Y247500D01*
X530290Y245549D01*
X531395Y243895D01*
X533049Y242790D01*
X535000Y242402D01*
X536951Y242790D01*
X538605Y243895D01*
X539710Y245549D01*
X540098Y247500D01*
X539710Y249451D01*
X538605Y251105D01*
X536951Y252210D01*
X535000Y252598D01*
D02*
G37*
G36*
X464000Y260598D02*
X462049Y260210D01*
X460395Y259105D01*
X459290Y257451D01*
X458902Y255500D01*
X459290Y253549D01*
X460395Y251895D01*
X462049Y250790D01*
X464000Y250402D01*
X465951Y250790D01*
X467604Y251895D01*
X468709Y253549D01*
X469098Y255500D01*
X468709Y257451D01*
X467604Y259105D01*
X465951Y260210D01*
X464000Y260598D01*
D02*
G37*
G36*
X728000Y260098D02*
X726049Y259710D01*
X724395Y258605D01*
X723290Y256951D01*
X722902Y255000D01*
X723290Y253049D01*
X724395Y251395D01*
X726049Y250290D01*
X728000Y249902D01*
X729951Y250290D01*
X731605Y251395D01*
X732710Y253049D01*
X733098Y255000D01*
X732710Y256951D01*
X731605Y258605D01*
X729951Y259710D01*
X728000Y260098D01*
D02*
G37*
G36*
X369500Y256598D02*
X367549Y256210D01*
X365895Y255105D01*
X364790Y253451D01*
X364402Y251500D01*
X364790Y249549D01*
X365895Y247895D01*
X367549Y246790D01*
X369500Y246402D01*
X371451Y246790D01*
X373105Y247895D01*
X374210Y249549D01*
X374598Y251500D01*
X374210Y253451D01*
X373105Y255105D01*
X371451Y256210D01*
X369500Y256598D01*
D02*
G37*
G36*
X520000Y250098D02*
X518049Y249710D01*
X516395Y248605D01*
X515290Y246951D01*
X514902Y245000D01*
X515290Y243049D01*
X516395Y241395D01*
X518049Y240290D01*
X520000Y239902D01*
X521951Y240290D01*
X523605Y241395D01*
X524710Y243049D01*
X525098Y245000D01*
X524710Y246951D01*
X523605Y248605D01*
X521951Y249710D01*
X520000Y250098D01*
D02*
G37*
G36*
X468565D02*
X466614Y249710D01*
X464960Y248605D01*
X463855Y246951D01*
X463467Y245000D01*
X463855Y243049D01*
X464960Y241395D01*
X466614Y240290D01*
X468565Y239902D01*
X470516Y240290D01*
X472170Y241395D01*
X473275Y243049D01*
X473663Y245000D01*
X473275Y246951D01*
X472170Y248605D01*
X470516Y249710D01*
X468565Y250098D01*
D02*
G37*
G36*
X625000Y248098D02*
X623049Y247710D01*
X621395Y246605D01*
X620290Y244951D01*
X619902Y243000D01*
X620290Y241049D01*
X621395Y239395D01*
X623049Y238290D01*
X625000Y237902D01*
X626951Y238290D01*
X628605Y239395D01*
X629710Y241049D01*
X630098Y243000D01*
X629710Y244951D01*
X628605Y246605D01*
X626951Y247710D01*
X625000Y248098D01*
D02*
G37*
G36*
X443500Y256098D02*
X441549Y255710D01*
X439895Y254605D01*
X438790Y252951D01*
X438402Y251000D01*
X438790Y249049D01*
X439895Y247395D01*
X441549Y246290D01*
X443500Y245902D01*
X444334Y246068D01*
X444902Y245500D01*
X445290Y243549D01*
X446395Y241895D01*
X448049Y240790D01*
X450000Y240402D01*
X451951Y240790D01*
X453605Y241895D01*
X454710Y243549D01*
X455098Y245500D01*
X454710Y247451D01*
X453605Y249105D01*
X451951Y250210D01*
X450000Y250598D01*
X449166Y250432D01*
X448598Y251000D01*
X448210Y252951D01*
X447105Y254605D01*
X445451Y255710D01*
X443500Y256098D01*
D02*
G37*
G36*
X337000Y250598D02*
X335049Y250210D01*
X333395Y249105D01*
X332290Y247451D01*
X331902Y245500D01*
X332290Y243549D01*
X333395Y241895D01*
X335049Y240790D01*
X337000Y240402D01*
X338951Y240790D01*
X340605Y241895D01*
X341710Y243549D01*
X342098Y245500D01*
X341710Y247451D01*
X340605Y249105D01*
X338951Y250210D01*
X337000Y250598D01*
D02*
G37*
G36*
X570000Y250098D02*
X568049Y249710D01*
X566395Y248605D01*
X565290Y246951D01*
X564902Y245000D01*
X565290Y243049D01*
X566395Y241395D01*
X568049Y240290D01*
X570000Y239902D01*
X571951Y240290D01*
X573605Y241395D01*
X574710Y243049D01*
X575098Y245000D01*
X574710Y246951D01*
X573605Y248605D01*
X571951Y249710D01*
X570000Y250098D01*
D02*
G37*
G36*
X60560Y278118D02*
X58218Y277652D01*
X56234Y276326D01*
X54908Y274341D01*
X54442Y272000D01*
X54908Y269659D01*
X56234Y267674D01*
X58218Y266348D01*
X60560Y265882D01*
X62901Y266348D01*
X64885Y267674D01*
X66211Y269659D01*
X66677Y272000D01*
X66211Y274341D01*
X64885Y276326D01*
X62901Y277652D01*
X60560Y278118D01*
D02*
G37*
G36*
X271500Y275598D02*
X269549Y275210D01*
X267895Y274105D01*
X266790Y272451D01*
X266402Y270500D01*
X266790Y268549D01*
X267895Y266895D01*
X269549Y265790D01*
X271500Y265402D01*
X273451Y265790D01*
X275105Y266895D01*
X276210Y268549D01*
X276598Y270500D01*
X276210Y272451D01*
X275105Y274105D01*
X273451Y275210D01*
X271500Y275598D01*
D02*
G37*
G36*
X410000Y271698D02*
X408049Y271310D01*
X406395Y270205D01*
X405290Y268551D01*
X404902Y266600D01*
X405290Y264649D01*
X406395Y262995D01*
X408049Y261890D01*
X410000Y261502D01*
X411951Y261890D01*
X413605Y262995D01*
X414710Y264649D01*
X415098Y266600D01*
X414710Y268551D01*
X413605Y270205D01*
X411951Y271310D01*
X410000Y271698D01*
D02*
G37*
G36*
X629940Y276880D02*
X621268D01*
X621447Y275519D01*
X622455Y273087D01*
X624058Y270998D01*
X626147Y269395D01*
X628579Y268387D01*
X629940Y268208D01*
Y276880D01*
D02*
G37*
G36*
X604540D02*
X595868D01*
X596047Y275519D01*
X597055Y273087D01*
X598658Y270998D01*
X600747Y269395D01*
X603179Y268387D01*
X604540Y268208D01*
Y276880D01*
D02*
G37*
G36*
X579140D02*
X570468D01*
X570647Y275519D01*
X571655Y273087D01*
X573258Y270998D01*
X575347Y269395D01*
X577779Y268387D01*
X579140Y268208D01*
Y276880D01*
D02*
G37*
G36*
X100000Y266598D02*
X98049Y266210D01*
X96395Y265105D01*
X95290Y263451D01*
X94902Y261500D01*
X95290Y259549D01*
X96395Y257895D01*
X98049Y256790D01*
X100000Y256402D01*
X101951Y256790D01*
X103605Y257895D01*
X104710Y259549D01*
X105098Y261500D01*
X104710Y263451D01*
X103605Y265105D01*
X101951Y266210D01*
X100000Y266598D01*
D02*
G37*
G36*
X485500Y265598D02*
X483549Y265210D01*
X481895Y264105D01*
X480790Y262451D01*
X480402Y260500D01*
X480790Y258549D01*
X481895Y256895D01*
X483549Y255790D01*
X485500Y255402D01*
X487451Y255790D01*
X489105Y256895D01*
X490210Y258549D01*
X490598Y260500D01*
X490210Y262451D01*
X489105Y264105D01*
X487451Y265210D01*
X485500Y265598D01*
D02*
G37*
G36*
X499000Y262598D02*
X497049Y262210D01*
X495395Y261105D01*
X494290Y259451D01*
X493902Y257500D01*
X494290Y255549D01*
X495395Y253895D01*
X497049Y252790D01*
X499000Y252402D01*
X500951Y252790D01*
X502605Y253895D01*
X503710Y255549D01*
X504098Y257500D01*
X503710Y259451D01*
X502605Y261105D01*
X500951Y262210D01*
X499000Y262598D01*
D02*
G37*
G36*
X984400Y277282D02*
X981920Y276955D01*
X979609Y275998D01*
X977624Y274475D01*
X976102Y272491D01*
X975144Y270180D01*
X974818Y267700D01*
X975144Y265220D01*
X976102Y262909D01*
X977624Y260924D01*
X979609Y259401D01*
X981920Y258444D01*
X984400Y258118D01*
X986880Y258444D01*
X989191Y259401D01*
X991175Y260924D01*
X992698Y262909D01*
X993655Y265220D01*
X993982Y267700D01*
X993655Y270180D01*
X992698Y272491D01*
X991175Y274475D01*
X989191Y275998D01*
X986880Y276955D01*
X984400Y277282D01*
D02*
G37*
G36*
X959000D02*
X956520Y276955D01*
X954209Y275998D01*
X952224Y274475D01*
X950702Y272491D01*
X949744Y270180D01*
X949418Y267700D01*
X949744Y265220D01*
X950702Y262909D01*
X952224Y260924D01*
X954209Y259401D01*
X956520Y258444D01*
X959000Y258118D01*
X961480Y258444D01*
X963791Y259401D01*
X965775Y260924D01*
X967298Y262909D01*
X968255Y265220D01*
X968582Y267700D01*
X968255Y270180D01*
X967298Y272491D01*
X965775Y274475D01*
X963791Y275998D01*
X961480Y276955D01*
X959000Y277282D01*
D02*
G37*
G36*
X258500Y267598D02*
X256549Y267210D01*
X254895Y266105D01*
X253790Y264451D01*
X253402Y262500D01*
X253790Y260549D01*
X254895Y258895D01*
X256549Y257790D01*
X258500Y257402D01*
X260451Y257790D01*
X262105Y258895D01*
X263210Y260549D01*
X263598Y262500D01*
X263210Y264451D01*
X262105Y266105D01*
X260451Y267210D01*
X258500Y267598D01*
D02*
G37*
G36*
X984400Y251882D02*
X981920Y251555D01*
X979609Y250598D01*
X977624Y249075D01*
X976102Y247091D01*
X975144Y244780D01*
X974818Y242300D01*
X975144Y239820D01*
X976102Y237509D01*
X977624Y235524D01*
X979609Y234002D01*
X981920Y233044D01*
X984400Y232718D01*
X986880Y233044D01*
X989191Y234002D01*
X991175Y235524D01*
X992698Y237509D01*
X993655Y239820D01*
X993982Y242300D01*
X993655Y244780D01*
X992698Y247091D01*
X991175Y249075D01*
X989191Y250598D01*
X986880Y251555D01*
X984400Y251882D01*
D02*
G37*
G36*
X544810Y224552D02*
Y215880D01*
X553482D01*
X553303Y217241D01*
X552295Y219673D01*
X550692Y221762D01*
X548603Y223365D01*
X546171Y224373D01*
X544810Y224552D01*
D02*
G37*
G36*
X542310D02*
X540950Y224373D01*
X538517Y223365D01*
X536428Y221762D01*
X534825Y219673D01*
X533817Y217241D01*
X533638Y215880D01*
X542310D01*
Y224552D01*
D02*
G37*
G36*
X494010D02*
Y215880D01*
X502682D01*
X502503Y217241D01*
X501495Y219673D01*
X499892Y221762D01*
X497803Y223365D01*
X495370Y224373D01*
X494010Y224552D01*
D02*
G37*
G36*
X643910D02*
X642550Y224373D01*
X640117Y223365D01*
X638028Y221762D01*
X636425Y219673D01*
X635417Y217241D01*
X635238Y215880D01*
X643910D01*
Y224552D01*
D02*
G37*
G36*
X595610D02*
Y215880D01*
X604282D01*
X604103Y217241D01*
X603095Y219673D01*
X601492Y221762D01*
X599403Y223365D01*
X596970Y224373D01*
X595610Y224552D01*
D02*
G37*
G36*
X593110D02*
X591749Y224373D01*
X589317Y223365D01*
X587228Y221762D01*
X585625Y219673D01*
X584617Y217241D01*
X584438Y215880D01*
X593110D01*
Y224552D01*
D02*
G37*
G36*
X13500Y223098D02*
X11549Y222710D01*
X9895Y221605D01*
X8790Y219951D01*
X8402Y218000D01*
X8790Y216049D01*
X9895Y214395D01*
X11549Y213290D01*
X13500Y212902D01*
X15451Y213290D01*
X17105Y214395D01*
X18210Y216049D01*
X18598Y218000D01*
X18210Y219951D01*
X17105Y221605D01*
X15451Y222710D01*
X13500Y223098D01*
D02*
G37*
G36*
X203000Y223097D02*
X201049Y222710D01*
X199395Y221604D01*
X198290Y219951D01*
X197902Y218000D01*
X198290Y216049D01*
X199395Y214395D01*
X201049Y213290D01*
X203000Y212902D01*
X204951Y213290D01*
X206604Y214395D01*
X207710Y216049D01*
X208098Y218000D01*
X207710Y219951D01*
X206604Y221604D01*
X204951Y222710D01*
X203000Y223097D01*
D02*
G37*
G36*
X79500Y222598D02*
X77549Y222210D01*
X75895Y221105D01*
X74790Y219451D01*
X74402Y217500D01*
X74790Y215549D01*
X75895Y213895D01*
X77549Y212790D01*
X79500Y212402D01*
X81451Y212790D01*
X83105Y213895D01*
X84210Y215549D01*
X84598Y217500D01*
X84210Y219451D01*
X83105Y221105D01*
X81451Y222210D01*
X79500Y222598D01*
D02*
G37*
G36*
X491510Y224552D02*
X490149Y224373D01*
X487717Y223365D01*
X485628Y221762D01*
X484025Y219673D01*
X483017Y217241D01*
X482838Y215880D01*
X491510D01*
Y224552D01*
D02*
G37*
G36*
X682000Y225098D02*
X680049Y224710D01*
X678395Y223605D01*
X677290Y221951D01*
X676902Y220000D01*
X677290Y218049D01*
X678395Y216395D01*
X680049Y215290D01*
X682000Y214902D01*
X683951Y215290D01*
X685605Y216395D01*
X686710Y218049D01*
X687098Y220000D01*
X686710Y221951D01*
X685605Y223605D01*
X683951Y224710D01*
X682000Y225098D01*
D02*
G37*
G36*
X348500Y226098D02*
X346549Y225710D01*
X344895Y224605D01*
X343790Y222951D01*
X343402Y221000D01*
X343544Y220285D01*
X343000Y219098D01*
X341049Y218710D01*
X339395Y217605D01*
X338290Y215951D01*
X337924Y214110D01*
X337760Y213727D01*
X337026Y212993D01*
X336500Y213098D01*
X334549Y212710D01*
X332895Y211605D01*
X331790Y209951D01*
X331402Y208000D01*
X331637Y206821D01*
X331534Y205905D01*
X330715Y205442D01*
X329549Y205210D01*
X327895Y204105D01*
X326790Y202451D01*
X326402Y200500D01*
X326790Y198549D01*
X327895Y196895D01*
X329549Y195790D01*
X331500Y195402D01*
X333451Y195790D01*
X335105Y196895D01*
X336210Y198549D01*
X336598Y200500D01*
X336363Y201679D01*
X336466Y202595D01*
X337285Y203058D01*
X338451Y203290D01*
X340105Y204395D01*
X341210Y206049D01*
X341576Y207890D01*
X341740Y208272D01*
X342474Y209007D01*
X343000Y208902D01*
X344951Y209290D01*
X346605Y210395D01*
X347710Y212049D01*
X348098Y214000D01*
X347956Y214715D01*
X348500Y215902D01*
X350451Y216290D01*
X352105Y217395D01*
X353210Y219049D01*
X353598Y221000D01*
X353210Y222951D01*
X352105Y224605D01*
X350451Y225710D01*
X348500Y226098D01*
D02*
G37*
G36*
X754000Y241098D02*
X752049Y240710D01*
X750395Y239604D01*
X749290Y237951D01*
X748902Y236000D01*
X749290Y234049D01*
X750395Y232395D01*
X752049Y231290D01*
X754000Y230902D01*
X755951Y231290D01*
X757605Y232395D01*
X758710Y234049D01*
X759098Y236000D01*
X758710Y237951D01*
X757605Y239604D01*
X755951Y240710D01*
X754000Y241098D01*
D02*
G37*
G36*
X135500Y240597D02*
X133549Y240209D01*
X131895Y239104D01*
X130790Y237450D01*
X130402Y235499D01*
X130790Y233549D01*
X131895Y231895D01*
X133549Y230790D01*
X135500Y230402D01*
X137451Y230790D01*
X139104Y231895D01*
X140210Y233549D01*
X140598Y235499D01*
X140210Y237450D01*
X139104Y239104D01*
X137451Y240209D01*
X135500Y240597D01*
D02*
G37*
G36*
X88000Y240098D02*
X86049Y239710D01*
X84395Y238605D01*
X83290Y236951D01*
X82902Y235000D01*
X83290Y233049D01*
X84395Y231395D01*
X86049Y230290D01*
X88000Y229902D01*
X89951Y230290D01*
X91605Y231395D01*
X92710Y233049D01*
X93098Y235000D01*
X92710Y236951D01*
X91605Y238605D01*
X89951Y239710D01*
X88000Y240098D01*
D02*
G37*
G36*
X959000Y251882D02*
X956520Y251555D01*
X954209Y250598D01*
X952224Y249075D01*
X950702Y247091D01*
X949744Y244780D01*
X949418Y242300D01*
X949744Y239820D01*
X950702Y237509D01*
X952224Y235524D01*
X954209Y234002D01*
X956520Y233044D01*
X959000Y232718D01*
X961480Y233044D01*
X963791Y234002D01*
X965775Y235524D01*
X967298Y237509D01*
X968255Y239820D01*
X968582Y242300D01*
X968255Y244780D01*
X967298Y247091D01*
X965775Y249075D01*
X963791Y250598D01*
X961480Y251555D01*
X959000Y251882D01*
D02*
G37*
G36*
X357000Y242098D02*
X355049Y241710D01*
X353395Y240605D01*
X352290Y238951D01*
X351902Y237000D01*
X352290Y235049D01*
X353395Y233395D01*
X355049Y232290D01*
X357000Y231902D01*
X358951Y232290D01*
X360605Y233395D01*
X361710Y235049D01*
X362098Y237000D01*
X361710Y238951D01*
X360605Y240605D01*
X358951Y241710D01*
X357000Y242098D01*
D02*
G37*
G36*
X270000Y249098D02*
X268049Y248710D01*
X266395Y247605D01*
X265290Y245951D01*
X264902Y244000D01*
X265290Y242049D01*
X266395Y240395D01*
X268049Y239290D01*
X270000Y238902D01*
X271065Y237819D01*
X270902Y237000D01*
X271290Y235049D01*
X272395Y233395D01*
X274049Y232290D01*
X276000Y231902D01*
X277951Y232290D01*
X279605Y233395D01*
X280710Y235049D01*
X281098Y237000D01*
X280710Y238951D01*
X279605Y240605D01*
X277951Y241710D01*
X276000Y242098D01*
X274935Y243181D01*
X275098Y244000D01*
X274710Y245951D01*
X273605Y247605D01*
X271951Y248710D01*
X270000Y249098D01*
D02*
G37*
G36*
X213000Y253097D02*
X211049Y252709D01*
X209395Y251604D01*
X208290Y249950D01*
X207902Y247999D01*
X208290Y246049D01*
X208762Y245342D01*
X208175Y243934D01*
X207049Y243710D01*
X205395Y242605D01*
X204290Y240951D01*
X203902Y239000D01*
X204290Y237049D01*
X203701Y235977D01*
X202395Y235105D01*
X201290Y233451D01*
X200902Y231500D01*
X201290Y229549D01*
X202395Y227895D01*
X204049Y226790D01*
X206000Y226402D01*
X207232Y226647D01*
X207529Y226451D01*
X208211Y225552D01*
X207902Y224000D01*
X208290Y222049D01*
X209395Y220395D01*
X211049Y219290D01*
X213000Y218902D01*
X214951Y219290D01*
X216604Y220395D01*
X217710Y222049D01*
X218097Y224000D01*
X217710Y225950D01*
X216604Y227604D01*
X214951Y228709D01*
X213000Y229097D01*
X211768Y228853D01*
X211471Y229048D01*
X210789Y229947D01*
X211098Y231500D01*
X210806Y232966D01*
X210890Y233736D01*
X211453Y234625D01*
X212605Y235395D01*
X213710Y237049D01*
X214098Y239000D01*
X213710Y240951D01*
X213237Y241658D01*
X213824Y243066D01*
X214951Y243290D01*
X216604Y244395D01*
X217710Y246049D01*
X218097Y247999D01*
X217710Y249950D01*
X216604Y251604D01*
X214951Y252709D01*
X213000Y253097D01*
D02*
G37*
G36*
X123500Y228098D02*
X121549Y227710D01*
X119895Y226605D01*
X118790Y224951D01*
X118402Y223000D01*
X118790Y221049D01*
X119895Y219395D01*
X121549Y218290D01*
X123500Y217902D01*
X125451Y218290D01*
X127105Y219395D01*
X128210Y221049D01*
X128598Y223000D01*
X128210Y224951D01*
X127105Y226605D01*
X125451Y227710D01*
X123500Y228098D01*
D02*
G37*
G36*
X646410Y224552D02*
Y215880D01*
X655082D01*
X654903Y217241D01*
X653895Y219673D01*
X652292Y221762D01*
X650203Y223365D01*
X647770Y224373D01*
X646410Y224552D01*
D02*
G37*
G36*
X31500Y237097D02*
X29549Y236709D01*
X27895Y235604D01*
X26790Y233950D01*
X26402Y231999D01*
X26790Y230049D01*
X27895Y228395D01*
X29549Y227290D01*
X31500Y226902D01*
X33451Y227290D01*
X35105Y228395D01*
X36210Y230049D01*
X36598Y231999D01*
X36210Y233950D01*
X35105Y235604D01*
X33451Y236709D01*
X31500Y237097D01*
D02*
G37*
G36*
X109500Y234098D02*
X107549Y233710D01*
X105895Y232605D01*
X104790Y230951D01*
X104402Y229000D01*
X104790Y227049D01*
X105895Y225395D01*
X107549Y224290D01*
X109500Y223902D01*
X111451Y224290D01*
X113105Y225395D01*
X114210Y227049D01*
X114598Y229000D01*
X114210Y230951D01*
X113105Y232605D01*
X111451Y233710D01*
X109500Y234098D01*
D02*
G37*
G36*
X329500Y231598D02*
X327549Y231210D01*
X325895Y230105D01*
X324790Y228451D01*
X324402Y226500D01*
X324790Y224549D01*
X325895Y222895D01*
X327549Y221790D01*
X329500Y221402D01*
X331451Y221790D01*
X333105Y222895D01*
X334210Y224549D01*
X334598Y226500D01*
X334210Y228451D01*
X333105Y230105D01*
X331451Y231210D01*
X329500Y231598D01*
D02*
G37*
G36*
X138000Y156598D02*
X136049Y156210D01*
X134395Y155105D01*
X133290Y153451D01*
X132902Y151500D01*
X133290Y149549D01*
X134395Y147895D01*
X136049Y146790D01*
X138000Y146402D01*
X139951Y146790D01*
X141605Y147895D01*
X142710Y149549D01*
X143098Y151500D01*
X142710Y153451D01*
X141605Y155105D01*
X139951Y156210D01*
X138000Y156598D01*
D02*
G37*
G36*
X306738Y59082D02*
X304258Y58755D01*
X301947Y57798D01*
X299963Y56276D01*
X298440Y54291D01*
X297483Y51980D01*
X297156Y49500D01*
X297483Y47020D01*
X298440Y44709D01*
X299963Y42725D01*
X301947Y41202D01*
X304258Y40245D01*
X306738Y39918D01*
X309218Y40245D01*
X311529Y41202D01*
X313514Y42725D01*
X315036Y44709D01*
X315993Y47020D01*
X316320Y49500D01*
X315993Y51980D01*
X315036Y54291D01*
X313514Y56276D01*
X311529Y57798D01*
X309218Y58755D01*
X306738Y59082D01*
D02*
G37*
G36*
X281338D02*
X278858Y58755D01*
X276547Y57798D01*
X274563Y56276D01*
X273040Y54291D01*
X272083Y51980D01*
X271756Y49500D01*
X272083Y47020D01*
X273040Y44709D01*
X274563Y42725D01*
X276547Y41202D01*
X278858Y40245D01*
X281338Y39918D01*
X283818Y40245D01*
X286129Y41202D01*
X288113Y42725D01*
X289636Y44709D01*
X290593Y47020D01*
X290920Y49500D01*
X290593Y51980D01*
X289636Y54291D01*
X288113Y56276D01*
X286129Y57798D01*
X283818Y58755D01*
X281338Y59082D01*
D02*
G37*
G36*
X201328D02*
X198848Y58755D01*
X196537Y57798D01*
X194553Y56276D01*
X193030Y54291D01*
X192073Y51980D01*
X191746Y49500D01*
X192073Y47020D01*
X193030Y44709D01*
X194553Y42725D01*
X196537Y41202D01*
X198848Y40245D01*
X201328Y39918D01*
X203808Y40245D01*
X206119Y41202D01*
X208104Y42725D01*
X209626Y44709D01*
X210583Y47020D01*
X210910Y49500D01*
X210583Y51980D01*
X209626Y54291D01*
X208104Y56276D01*
X206119Y57798D01*
X203808Y58755D01*
X201328Y59082D01*
D02*
G37*
G36*
X382938D02*
X380458Y58755D01*
X378147Y57798D01*
X376163Y56276D01*
X374640Y54291D01*
X373683Y51980D01*
X373356Y49500D01*
X373683Y47020D01*
X374640Y44709D01*
X376163Y42725D01*
X378147Y41202D01*
X380458Y40245D01*
X382938Y39918D01*
X385418Y40245D01*
X387729Y41202D01*
X389714Y42725D01*
X391236Y44709D01*
X392193Y47020D01*
X392520Y49500D01*
X392193Y51980D01*
X391236Y54291D01*
X389714Y56276D01*
X387729Y57798D01*
X385418Y58755D01*
X382938Y59082D01*
D02*
G37*
G36*
X357538D02*
X355058Y58755D01*
X352747Y57798D01*
X350763Y56276D01*
X349240Y54291D01*
X348283Y51980D01*
X347956Y49500D01*
X348283Y47020D01*
X349240Y44709D01*
X350763Y42725D01*
X352747Y41202D01*
X355058Y40245D01*
X357538Y39918D01*
X360018Y40245D01*
X362329Y41202D01*
X364314Y42725D01*
X365836Y44709D01*
X366794Y47020D01*
X367120Y49500D01*
X366794Y51980D01*
X365836Y54291D01*
X364314Y56276D01*
X362329Y57798D01*
X360018Y58755D01*
X357538Y59082D01*
D02*
G37*
G36*
X332138D02*
X329658Y58755D01*
X327347Y57798D01*
X325363Y56276D01*
X323840Y54291D01*
X322883Y51980D01*
X322556Y49500D01*
X322883Y47020D01*
X323840Y44709D01*
X325363Y42725D01*
X327347Y41202D01*
X329658Y40245D01*
X332138Y39918D01*
X334618Y40245D01*
X336929Y41202D01*
X338913Y42725D01*
X340436Y44709D01*
X341394Y47020D01*
X341720Y49500D01*
X341394Y51980D01*
X340436Y54291D01*
X338913Y56276D01*
X336929Y57798D01*
X334618Y58755D01*
X332138Y59082D01*
D02*
G37*
G36*
X99728D02*
X97248Y58755D01*
X94937Y57798D01*
X92953Y56276D01*
X91430Y54291D01*
X90473Y51980D01*
X90146Y49500D01*
X90473Y47020D01*
X91430Y44709D01*
X92953Y42725D01*
X94937Y41202D01*
X97248Y40245D01*
X99728Y39918D01*
X102208Y40245D01*
X104519Y41202D01*
X106503Y42725D01*
X108026Y44709D01*
X108983Y47020D01*
X109310Y49500D01*
X108983Y51980D01*
X108026Y54291D01*
X106503Y56276D01*
X104519Y57798D01*
X102208Y58755D01*
X99728Y59082D01*
D02*
G37*
G36*
X175928D02*
X173448Y58755D01*
X171137Y57798D01*
X169153Y56276D01*
X167630Y54291D01*
X166673Y51980D01*
X166346Y49500D01*
X166673Y47020D01*
X167630Y44709D01*
X169153Y42725D01*
X171137Y41202D01*
X173448Y40245D01*
X175928Y39918D01*
X178408Y40245D01*
X180719Y41202D01*
X182703Y42725D01*
X184226Y44709D01*
X185184Y47020D01*
X185510Y49500D01*
X185184Y51980D01*
X184226Y54291D01*
X182703Y56276D01*
X180719Y57798D01*
X178408Y58755D01*
X175928Y59082D01*
D02*
G37*
G36*
X150528D02*
X148048Y58755D01*
X145737Y57798D01*
X143753Y56276D01*
X142230Y54291D01*
X141273Y51980D01*
X140946Y49500D01*
X141273Y47020D01*
X142230Y44709D01*
X143753Y42725D01*
X145737Y41202D01*
X148048Y40245D01*
X150528Y39918D01*
X153008Y40245D01*
X155319Y41202D01*
X157303Y42725D01*
X158826Y44709D01*
X159783Y47020D01*
X160110Y49500D01*
X159783Y51980D01*
X158826Y54291D01*
X157303Y56276D01*
X155319Y57798D01*
X153008Y58755D01*
X150528Y59082D01*
D02*
G37*
G36*
X125128D02*
X122648Y58755D01*
X120337Y57798D01*
X118353Y56276D01*
X116830Y54291D01*
X115873Y51980D01*
X115546Y49500D01*
X115873Y47020D01*
X116830Y44709D01*
X118353Y42725D01*
X120337Y41202D01*
X122648Y40245D01*
X125128Y39918D01*
X127608Y40245D01*
X129919Y41202D01*
X131903Y42725D01*
X133426Y44709D01*
X134383Y47020D01*
X134710Y49500D01*
X134383Y51980D01*
X133426Y54291D01*
X131903Y56276D01*
X129919Y57798D01*
X127608Y58755D01*
X125128Y59082D01*
D02*
G37*
G36*
X653730Y82770D02*
X652000Y82246D01*
X648960Y80621D01*
X646295Y78434D01*
X644109Y75769D01*
X642484Y72729D01*
X641483Y69430D01*
X641145Y66000D01*
X653730D01*
Y82770D01*
D02*
G37*
G36*
X327000Y74098D02*
X325049Y73710D01*
X323395Y72605D01*
X322290Y70951D01*
X321902Y69000D01*
X322290Y67049D01*
X323395Y65395D01*
X325049Y64290D01*
X327000Y63902D01*
X328951Y64290D01*
X330605Y65395D01*
X331710Y67049D01*
X332098Y69000D01*
X331710Y70951D01*
X330605Y72605D01*
X328951Y73710D01*
X327000Y74098D01*
D02*
G37*
G36*
X254500Y72098D02*
X252549Y71710D01*
X250895Y70605D01*
X249790Y68951D01*
X249402Y67000D01*
X249790Y65049D01*
X250264Y64340D01*
X250185Y63968D01*
X249617Y63022D01*
X248049Y62710D01*
X246395Y61605D01*
X245290Y59951D01*
X244902Y58000D01*
X245290Y56049D01*
X246395Y54395D01*
X248049Y53290D01*
X250000Y52902D01*
X251951Y53290D01*
X253605Y54395D01*
X254710Y56049D01*
X255098Y58000D01*
X254710Y59951D01*
X254236Y60660D01*
X254315Y61032D01*
X254883Y61978D01*
X256451Y62290D01*
X258105Y63395D01*
X259210Y65049D01*
X259598Y67000D01*
X259210Y68951D01*
X258105Y70605D01*
X256451Y71710D01*
X254500Y72098D01*
D02*
G37*
G36*
X663730Y82770D02*
Y66000D01*
X676314D01*
X675976Y69430D01*
X674976Y72729D01*
X673351Y75769D01*
X671164Y78434D01*
X668499Y80621D01*
X665459Y82246D01*
X663730Y82770D01*
D02*
G37*
G36*
X517049Y75103D02*
X513917Y74691D01*
X510998Y73482D01*
X508491Y71558D01*
X506567Y69052D01*
X505358Y66132D01*
X504946Y63000D01*
Y57000D01*
X505358Y53867D01*
X506567Y50948D01*
X508491Y48441D01*
X510998Y46518D01*
X513917Y45309D01*
X517049Y44896D01*
X520182Y45309D01*
X523101Y46518D01*
X525608Y48441D01*
X527532Y50948D01*
X528741Y53867D01*
X529153Y57000D01*
Y63000D01*
X528741Y66132D01*
X527532Y69052D01*
X525608Y71558D01*
X523101Y73482D01*
X520182Y74691D01*
X517049Y75103D01*
D02*
G37*
G36*
X482050D02*
X478917Y74691D01*
X475998Y73482D01*
X473491Y71558D01*
X471568Y69052D01*
X470359Y66132D01*
X469946Y63000D01*
Y57000D01*
X470359Y53867D01*
X471568Y50948D01*
X473491Y48441D01*
X475998Y46518D01*
X478917Y45309D01*
X482050Y44896D01*
X485182Y45309D01*
X488102Y46518D01*
X490608Y48441D01*
X492532Y50948D01*
X493741Y53867D01*
X494153Y57000D01*
Y63000D01*
X493741Y66132D01*
X492532Y69052D01*
X490608Y71558D01*
X488102Y73482D01*
X485182Y74691D01*
X482050Y75103D01*
D02*
G37*
G36*
X447050D02*
X443917Y74691D01*
X440998Y73482D01*
X438491Y71558D01*
X436568Y69052D01*
X435359Y66132D01*
X434946Y63000D01*
Y57000D01*
X435359Y53867D01*
X436568Y50948D01*
X438491Y48441D01*
X440998Y46518D01*
X443917Y45309D01*
X447050Y44896D01*
X450182Y45309D01*
X453101Y46518D01*
X455608Y48441D01*
X457532Y50948D01*
X458741Y53867D01*
X459153Y57000D01*
Y63000D01*
X458741Y66132D01*
X457532Y69052D01*
X455608Y71558D01*
X453101Y73482D01*
X450182Y74691D01*
X447050Y75103D01*
D02*
G37*
G36*
X615950Y69272D02*
X613470Y68945D01*
X611159Y67988D01*
X609174Y66465D01*
X607652Y64481D01*
X606694Y62170D01*
X606368Y59690D01*
X606694Y57210D01*
X607652Y54899D01*
X609174Y52915D01*
X611159Y51392D01*
X613470Y50434D01*
X615950Y50108D01*
X618430Y50434D01*
X620741Y51392D01*
X622725Y52915D01*
X624248Y54899D01*
X625205Y57210D01*
X625532Y59690D01*
X625205Y62170D01*
X624248Y64481D01*
X622725Y66465D01*
X620741Y67988D01*
X618430Y68945D01*
X615950Y69272D01*
D02*
G37*
G36*
X590550D02*
X588070Y68945D01*
X585759Y67988D01*
X583774Y66465D01*
X582252Y64481D01*
X581295Y62170D01*
X580968Y59690D01*
X581295Y57210D01*
X582252Y54899D01*
X583774Y52915D01*
X585759Y51392D01*
X588070Y50434D01*
X590550Y50108D01*
X593030Y50434D01*
X595341Y51392D01*
X597325Y52915D01*
X598848Y54899D01*
X599805Y57210D01*
X600132Y59690D01*
X599805Y62170D01*
X598848Y64481D01*
X597325Y66465D01*
X595341Y67988D01*
X593030Y68945D01*
X590550Y69272D01*
D02*
G37*
G36*
X552050Y75103D02*
X548917Y74691D01*
X545998Y73482D01*
X543491Y71558D01*
X541568Y69052D01*
X540359Y66132D01*
X539946Y63000D01*
Y57000D01*
X540359Y53867D01*
X541568Y50948D01*
X543491Y48441D01*
X545998Y46518D01*
X548917Y45309D01*
X552050Y44896D01*
X555182Y45309D01*
X558102Y46518D01*
X560608Y48441D01*
X562532Y50948D01*
X563741Y53867D01*
X564153Y57000D01*
Y63000D01*
X563741Y66132D01*
X562532Y69052D01*
X560608Y71558D01*
X558102Y73482D01*
X555182Y74691D01*
X552050Y75103D01*
D02*
G37*
G36*
X676314Y56000D02*
X663730D01*
Y39229D01*
X665459Y39754D01*
X668499Y41379D01*
X671164Y43566D01*
X673351Y46230D01*
X674976Y49270D01*
X675976Y52569D01*
X676314Y56000D01*
D02*
G37*
G36*
X332138Y33682D02*
X329658Y33356D01*
X327347Y32398D01*
X325363Y30875D01*
X323840Y28891D01*
X322883Y26580D01*
X322556Y24100D01*
X322883Y21620D01*
X323840Y19309D01*
X325363Y17325D01*
X327347Y15802D01*
X329658Y14845D01*
X332138Y14518D01*
X334618Y14845D01*
X336929Y15802D01*
X338913Y17325D01*
X340436Y19309D01*
X341394Y21620D01*
X341720Y24100D01*
X341394Y26580D01*
X340436Y28891D01*
X338913Y30875D01*
X336929Y32398D01*
X334618Y33356D01*
X332138Y33682D01*
D02*
G37*
G36*
X306738D02*
X304258Y33356D01*
X301947Y32398D01*
X299963Y30875D01*
X298440Y28891D01*
X297483Y26580D01*
X297156Y24100D01*
X297483Y21620D01*
X298440Y19309D01*
X299963Y17325D01*
X301947Y15802D01*
X304258Y14845D01*
X306738Y14518D01*
X309218Y14845D01*
X311529Y15802D01*
X313514Y17325D01*
X315036Y19309D01*
X315993Y21620D01*
X316320Y24100D01*
X315993Y26580D01*
X315036Y28891D01*
X313514Y30875D01*
X311529Y32398D01*
X309218Y33356D01*
X306738Y33682D01*
D02*
G37*
G36*
X175928D02*
X173448Y33356D01*
X171137Y32398D01*
X169153Y30875D01*
X167630Y28891D01*
X166673Y26580D01*
X166346Y24100D01*
X166673Y21620D01*
X167630Y19309D01*
X169153Y17325D01*
X171137Y15802D01*
X173448Y14845D01*
X175928Y14518D01*
X178408Y14845D01*
X180719Y15802D01*
X182703Y17325D01*
X184226Y19309D01*
X185184Y21620D01*
X185510Y24100D01*
X185184Y26580D01*
X184226Y28891D01*
X182703Y30875D01*
X180719Y32398D01*
X178408Y33356D01*
X175928Y33682D01*
D02*
G37*
G36*
X290838Y33600D02*
X271838D01*
Y14600D01*
X290838D01*
Y33600D01*
D02*
G37*
G36*
X109228D02*
X90228D01*
Y14600D01*
X109228D01*
Y33600D01*
D02*
G37*
G36*
X357538Y33682D02*
X355058Y33356D01*
X352747Y32398D01*
X350763Y30875D01*
X349240Y28891D01*
X348283Y26580D01*
X347956Y24100D01*
X348283Y21620D01*
X349240Y19309D01*
X350763Y17325D01*
X352747Y15802D01*
X355058Y14845D01*
X357538Y14518D01*
X360018Y14845D01*
X362329Y15802D01*
X364314Y17325D01*
X365836Y19309D01*
X366794Y21620D01*
X367120Y24100D01*
X366794Y26580D01*
X365836Y28891D01*
X364314Y30875D01*
X362329Y32398D01*
X360018Y33356D01*
X357538Y33682D01*
D02*
G37*
G36*
X381688Y22850D02*
X373016D01*
X373195Y21490D01*
X374203Y19057D01*
X375806Y16968D01*
X377895Y15365D01*
X380327Y14358D01*
X381688Y14178D01*
Y22850D01*
D02*
G37*
G36*
X211250D02*
X202578D01*
Y14178D01*
X203939Y14358D01*
X206371Y15365D01*
X208460Y16968D01*
X210063Y19057D01*
X211071Y21490D01*
X211250Y22850D01*
D02*
G37*
G36*
X200078D02*
X191406D01*
X191585Y21490D01*
X192593Y19057D01*
X194196Y16968D01*
X196285Y15365D01*
X198717Y14358D01*
X200078Y14178D01*
Y22850D01*
D02*
G37*
G36*
X150528Y33682D02*
X148048Y33356D01*
X145737Y32398D01*
X143753Y30875D01*
X142230Y28891D01*
X141273Y26580D01*
X140946Y24100D01*
X141273Y21620D01*
X142230Y19309D01*
X143753Y17325D01*
X145737Y15802D01*
X148048Y14845D01*
X150528Y14518D01*
X153008Y14845D01*
X155319Y15802D01*
X157303Y17325D01*
X158826Y19309D01*
X159783Y21620D01*
X160110Y24100D01*
X159783Y26580D01*
X158826Y28891D01*
X157303Y30875D01*
X155319Y32398D01*
X153008Y33356D01*
X150528Y33682D01*
D02*
G37*
G36*
X125128D02*
X122648Y33356D01*
X120337Y32398D01*
X118353Y30875D01*
X116830Y28891D01*
X115873Y26580D01*
X115546Y24100D01*
X115873Y21620D01*
X116830Y19309D01*
X118353Y17325D01*
X120337Y15802D01*
X122648Y14845D01*
X125128Y14518D01*
X127608Y14845D01*
X129919Y15802D01*
X131903Y17325D01*
X133426Y19309D01*
X134383Y21620D01*
X134710Y24100D01*
X134383Y26580D01*
X133426Y28891D01*
X131903Y30875D01*
X129919Y32398D01*
X127608Y33356D01*
X125128Y33682D01*
D02*
G37*
G36*
X392860Y22850D02*
X384188D01*
Y14178D01*
X385549Y14358D01*
X387981Y15365D01*
X390070Y16968D01*
X391673Y19057D01*
X392681Y21490D01*
X392860Y22850D01*
D02*
G37*
G36*
X708730Y83082D02*
X705397Y82754D01*
X702193Y81782D01*
X699239Y80203D01*
X696651Y78079D01*
X694526Y75490D01*
X692948Y72537D01*
X691976Y69332D01*
X691647Y66000D01*
Y56000D01*
X691976Y52667D01*
X692948Y49463D01*
X694526Y46509D01*
X696651Y43921D01*
X699239Y41796D01*
X702193Y40218D01*
X705397Y39246D01*
X708730Y38918D01*
X712062Y39246D01*
X715267Y40218D01*
X718220Y41796D01*
X720809Y43921D01*
X722933Y46509D01*
X724512Y49463D01*
X725484Y52667D01*
X725812Y56000D01*
Y66000D01*
X725484Y69332D01*
X724512Y72537D01*
X722933Y75490D01*
X720809Y78079D01*
X718220Y80203D01*
X715267Y81782D01*
X712062Y82754D01*
X708730Y83082D01*
D02*
G37*
G36*
X251000Y49098D02*
X249049Y48710D01*
X247395Y47605D01*
X246290Y45951D01*
X245902Y44000D01*
X246290Y42049D01*
X247395Y40395D01*
X249049Y39290D01*
X251000Y38902D01*
X252951Y39290D01*
X254605Y40395D01*
X255710Y42049D01*
X256098Y44000D01*
X255710Y45951D01*
X254605Y47605D01*
X252951Y48710D01*
X251000Y49098D01*
D02*
G37*
G36*
X653730Y56000D02*
X641145D01*
X641483Y52569D01*
X642484Y49270D01*
X644109Y46230D01*
X646295Y43566D01*
X648960Y41379D01*
X652000Y39754D01*
X653730Y39229D01*
Y56000D01*
D02*
G37*
G36*
X200078Y34022D02*
X198717Y33843D01*
X196285Y32835D01*
X194196Y31232D01*
X192593Y29143D01*
X191585Y26711D01*
X191406Y25350D01*
X200078D01*
Y34022D01*
D02*
G37*
G36*
X625450Y43790D02*
X606450D01*
Y24790D01*
X625450D01*
Y43790D01*
D02*
G37*
G36*
X590550Y43872D02*
X588070Y43545D01*
X585759Y42588D01*
X583774Y41065D01*
X582252Y39081D01*
X581295Y36770D01*
X580968Y34290D01*
X581295Y31810D01*
X582252Y29499D01*
X583774Y27515D01*
X585759Y25992D01*
X588070Y25034D01*
X590550Y24708D01*
X593030Y25034D01*
X595341Y25992D01*
X597325Y27515D01*
X598848Y29499D01*
X599805Y31810D01*
X600132Y34290D01*
X599805Y36770D01*
X598848Y39081D01*
X597325Y41065D01*
X595341Y42588D01*
X593030Y43545D01*
X590550Y43872D01*
D02*
G37*
G36*
X384188Y34022D02*
Y25350D01*
X392860D01*
X392681Y26711D01*
X391673Y29143D01*
X390070Y31232D01*
X387981Y32835D01*
X385549Y33843D01*
X384188Y34022D01*
D02*
G37*
G36*
X381688D02*
X380327Y33843D01*
X377895Y32835D01*
X375806Y31232D01*
X374203Y29143D01*
X373195Y26711D01*
X373016Y25350D01*
X381688D01*
Y34022D01*
D02*
G37*
G36*
X202578D02*
Y25350D01*
X211250D01*
X211071Y26711D01*
X210063Y29143D01*
X208460Y31232D01*
X206371Y32835D01*
X203939Y33843D01*
X202578Y34022D01*
D02*
G37*
G36*
X375500Y128098D02*
X373549Y127710D01*
X371895Y126605D01*
X370790Y124951D01*
X370402Y123000D01*
X370790Y121049D01*
X371895Y119395D01*
X373549Y118290D01*
X375500Y117902D01*
X377451Y118290D01*
X379105Y119395D01*
X380210Y121049D01*
X380598Y123000D01*
X380210Y124951D01*
X379105Y126605D01*
X377451Y127710D01*
X375500Y128098D01*
D02*
G37*
G36*
X199000D02*
X197049Y127710D01*
X195395Y126605D01*
X194290Y124951D01*
X193902Y123000D01*
X194290Y121049D01*
X195395Y119395D01*
X197049Y118290D01*
X199000Y117902D01*
X200951Y118290D01*
X202605Y119395D01*
X203710Y121049D01*
X204098Y123000D01*
X203710Y124951D01*
X202605Y126605D01*
X200951Y127710D01*
X199000Y128098D01*
D02*
G37*
G36*
X255000Y126598D02*
X253049Y126210D01*
X251395Y125105D01*
X250290Y123451D01*
X249902Y121500D01*
X250290Y119549D01*
X251395Y117895D01*
X253049Y116790D01*
X255000Y116402D01*
X256951Y116790D01*
X258605Y117895D01*
X259710Y119549D01*
X260098Y121500D01*
X259710Y123451D01*
X258605Y125105D01*
X256951Y126210D01*
X255000Y126598D01*
D02*
G37*
G36*
X651510Y144202D02*
X649030Y143875D01*
X646719Y142918D01*
X644734Y141395D01*
X643212Y139411D01*
X642254Y137100D01*
X641928Y134620D01*
X642254Y132140D01*
X643212Y129829D01*
X644734Y127844D01*
X646719Y126321D01*
X649030Y125364D01*
X651510Y125038D01*
X653990Y125364D01*
X656301Y126321D01*
X658285Y127844D01*
X659808Y129829D01*
X660765Y132140D01*
X661092Y134620D01*
X660765Y137100D01*
X659808Y139411D01*
X658285Y141395D01*
X656301Y142918D01*
X653990Y143875D01*
X651510Y144202D01*
D02*
G37*
G36*
X409500Y129098D02*
X407549Y128710D01*
X405895Y127605D01*
X404790Y125951D01*
X404402Y124000D01*
X404790Y122049D01*
X405895Y120395D01*
X407549Y119290D01*
X409500Y118902D01*
X411451Y119290D01*
X413105Y120395D01*
X414210Y122049D01*
X414598Y124000D01*
X414210Y125951D01*
X413105Y127605D01*
X411451Y128710D01*
X409500Y129098D01*
D02*
G37*
G36*
X388436D02*
X386485Y128710D01*
X384832Y127605D01*
X383726Y125951D01*
X383338Y124000D01*
X383726Y122049D01*
X384832Y120395D01*
X386485Y119290D01*
X388436Y118902D01*
X390387Y119290D01*
X392041Y120395D01*
X393146Y122049D01*
X393534Y124000D01*
X393146Y125951D01*
X392041Y127605D01*
X390387Y128710D01*
X388436Y129098D01*
D02*
G37*
G36*
X721000Y110098D02*
X719049Y109710D01*
X717905Y108945D01*
X717000Y108708D01*
X716095Y108945D01*
X714951Y109710D01*
X713000Y110098D01*
X711049Y109710D01*
X709905Y108945D01*
X709000Y108708D01*
X708095Y108945D01*
X706951Y109710D01*
X705000Y110098D01*
X703049Y109710D01*
X701395Y108605D01*
X700605D01*
X698951Y109710D01*
X697000Y110098D01*
X695049Y109710D01*
X693395Y108605D01*
X692290Y106951D01*
X691902Y105000D01*
X692290Y103049D01*
X693395Y101395D01*
X695049Y100290D01*
X697000Y99902D01*
X698951Y100290D01*
X700605Y101395D01*
X701395D01*
X703049Y100290D01*
X705000Y99902D01*
X706951Y100290D01*
X708095Y101055D01*
X709000Y101292D01*
X709905Y101055D01*
X711049Y100290D01*
X713000Y99902D01*
X714951Y100290D01*
X716095Y101055D01*
X717000Y101292D01*
X717905Y101055D01*
X719049Y100290D01*
X721000Y99902D01*
X722951Y100290D01*
X724605Y101395D01*
X725710Y103049D01*
X726098Y105000D01*
X725710Y106951D01*
X724605Y108605D01*
X722951Y109710D01*
X721000Y110098D01*
D02*
G37*
G36*
X360500Y116598D02*
X358549Y116210D01*
X356895Y115105D01*
X355790Y113451D01*
X355402Y111500D01*
X355790Y109549D01*
X356895Y107895D01*
X358549Y106790D01*
X360500Y106402D01*
X362451Y106790D01*
X364105Y107895D01*
X365210Y109549D01*
X365598Y111500D01*
X365210Y113451D01*
X364105Y115105D01*
X362451Y116210D01*
X360500Y116598D01*
D02*
G37*
G36*
X115500Y124598D02*
X113549Y124210D01*
X111895Y123105D01*
X110790Y121451D01*
X110402Y119500D01*
X110790Y117549D01*
X111895Y115895D01*
X113549Y114790D01*
X115500Y114402D01*
X117451Y114790D01*
X119105Y115895D01*
X120210Y117549D01*
X120598Y119500D01*
X120210Y121451D01*
X119105Y123105D01*
X117451Y124210D01*
X115500Y124598D01*
D02*
G37*
G36*
X174500Y124098D02*
X172549Y123710D01*
X170895Y122605D01*
X169790Y120951D01*
X169402Y119000D01*
X169790Y117049D01*
X170895Y115395D01*
X172549Y114290D01*
X174500Y113902D01*
X176451Y114290D01*
X178105Y115395D01*
X179210Y117049D01*
X179598Y119000D01*
X179210Y120951D01*
X178105Y122605D01*
X176451Y123710D01*
X174500Y124098D01*
D02*
G37*
G36*
X399000Y120534D02*
X397049Y120146D01*
X395395Y119041D01*
X394290Y117387D01*
X393902Y115436D01*
X394290Y113485D01*
X395395Y111832D01*
X397049Y110726D01*
X399000Y110338D01*
X400951Y110726D01*
X402605Y111832D01*
X403710Y113485D01*
X404098Y115436D01*
X403710Y117387D01*
X402605Y119041D01*
X400951Y120146D01*
X399000Y120534D01*
D02*
G37*
G36*
X957750Y150621D02*
X956389Y150442D01*
X953957Y149435D01*
X951868Y147832D01*
X950265Y145743D01*
X949257Y143310D01*
X949078Y141950D01*
X957750D01*
Y150621D01*
D02*
G37*
G36*
X237500Y151098D02*
X235549Y150710D01*
X233895Y149605D01*
X232790Y147951D01*
X232402Y146000D01*
X232790Y144049D01*
X233895Y142395D01*
X235549Y141290D01*
X237500Y140902D01*
X239451Y141290D01*
X241105Y142395D01*
X242210Y144049D01*
X242598Y146000D01*
X242210Y147951D01*
X241105Y149605D01*
X239451Y150710D01*
X237500Y151098D01*
D02*
G37*
G36*
X24750Y156612D02*
X13250D01*
X11006Y156166D01*
X9104Y154895D01*
X7833Y152993D01*
X7387Y150750D01*
Y143250D01*
X7833Y141006D01*
X9104Y139104D01*
X11006Y137833D01*
X13250Y137387D01*
X24750D01*
X26993Y137833D01*
X28895Y139104D01*
X30166Y141006D01*
X30612Y143250D01*
Y150750D01*
X30166Y152993D01*
X28895Y154895D01*
X26993Y156166D01*
X24750Y156612D01*
D02*
G37*
G36*
X960250Y150621D02*
Y141950D01*
X968922D01*
X968742Y143310D01*
X967735Y145743D01*
X966132Y147832D01*
X964043Y149435D01*
X961610Y150442D01*
X960250Y150621D01*
D02*
G37*
G36*
X968922Y139450D02*
X960250D01*
Y130778D01*
X961610Y130957D01*
X964043Y131965D01*
X966132Y133568D01*
X967735Y135657D01*
X968742Y138089D01*
X968922Y139450D01*
D02*
G37*
G36*
X957750D02*
X949078D01*
X949257Y138089D01*
X950265Y135657D01*
X951868Y133568D01*
X953957Y131965D01*
X956389Y130957D01*
X957750Y130778D01*
Y139450D01*
D02*
G37*
G36*
X46000Y146330D02*
X43585Y146012D01*
X41335Y145080D01*
X39403Y143597D01*
X37920Y141665D01*
X36988Y139415D01*
X36670Y137000D01*
X36988Y134585D01*
X37920Y132335D01*
X39403Y130403D01*
X41335Y128920D01*
X43585Y127988D01*
X46000Y127670D01*
X48415Y127988D01*
X50665Y128920D01*
X52597Y130403D01*
X54080Y132335D01*
X55012Y134585D01*
X55329Y137000D01*
X55012Y139415D01*
X54080Y141665D01*
X52597Y143597D01*
X50665Y145080D01*
X48415Y146012D01*
X46000Y146330D01*
D02*
G37*
G36*
X420500Y145598D02*
X418549Y145210D01*
X416895Y144105D01*
X415790Y142451D01*
X415402Y140500D01*
X415790Y138549D01*
X416895Y136895D01*
X418549Y135790D01*
X420500Y135402D01*
X422451Y135790D01*
X424105Y136895D01*
X425210Y138549D01*
X425598Y140500D01*
X425210Y142451D01*
X424105Y144105D01*
X422451Y145210D01*
X420500Y145598D01*
D02*
G37*
G36*
X984400Y150282D02*
X981920Y149955D01*
X979609Y148998D01*
X977624Y147475D01*
X976102Y145491D01*
X975144Y143180D01*
X974818Y140700D01*
X975144Y138220D01*
X976102Y135909D01*
X977624Y133924D01*
X979609Y132402D01*
X981920Y131444D01*
X984400Y131118D01*
X986880Y131444D01*
X989191Y132402D01*
X991175Y133924D01*
X992698Y135909D01*
X993655Y138220D01*
X993982Y140700D01*
X993655Y143180D01*
X992698Y145491D01*
X991175Y147475D01*
X989191Y148998D01*
X986880Y149955D01*
X984400Y150282D01*
D02*
G37*
G36*
X623250Y112598D02*
X621299Y112210D01*
X619645Y111105D01*
X618540Y109451D01*
X618152Y107500D01*
X618540Y105549D01*
X619645Y103895D01*
X621299Y102790D01*
X623250Y102402D01*
X625201Y102790D01*
X626854Y103895D01*
X627960Y105549D01*
X628348Y107500D01*
X627960Y109451D01*
X626854Y111105D01*
X625201Y112210D01*
X623250Y112598D01*
D02*
G37*
G36*
X411480Y98292D02*
X409000Y97965D01*
X406689Y97008D01*
X404704Y95485D01*
X403181Y93501D01*
X402224Y91190D01*
X401898Y88710D01*
X402224Y86230D01*
X403181Y83919D01*
X404704Y81934D01*
X406689Y80412D01*
X409000Y79454D01*
X411480Y79128D01*
X413960Y79454D01*
X416271Y80412D01*
X418255Y81934D01*
X419778Y83919D01*
X420735Y86230D01*
X421062Y88710D01*
X420735Y91190D01*
X419778Y93501D01*
X418255Y95485D01*
X416271Y97008D01*
X413960Y97965D01*
X411480Y98292D01*
D02*
G37*
G36*
X386080D02*
X383600Y97965D01*
X381289Y97008D01*
X379304Y95485D01*
X377781Y93501D01*
X376824Y91190D01*
X376498Y88710D01*
X376824Y86230D01*
X377781Y83919D01*
X379304Y81934D01*
X381289Y80412D01*
X383600Y79454D01*
X386080Y79128D01*
X388560Y79454D01*
X390871Y80412D01*
X392855Y81934D01*
X394378Y83919D01*
X395335Y86230D01*
X395662Y88710D01*
X395335Y91190D01*
X394378Y93501D01*
X392855Y95485D01*
X390871Y97008D01*
X388560Y97965D01*
X386080Y98292D01*
D02*
G37*
G36*
X370601Y87460D02*
X361930D01*
Y78788D01*
X363290Y78967D01*
X365723Y79975D01*
X367812Y81578D01*
X369415Y83667D01*
X370422Y86099D01*
X370601Y87460D01*
D02*
G37*
G36*
X247500Y99098D02*
X245549Y98710D01*
X243895Y97605D01*
X242790Y95951D01*
X242402Y94000D01*
X242790Y92049D01*
X243895Y90395D01*
X245549Y89290D01*
X247500Y88902D01*
X249450Y89290D01*
X251104Y90395D01*
X252209Y92049D01*
X252598Y94000D01*
X252209Y95951D01*
X251104Y97605D01*
X249450Y98710D01*
X247500Y99098D01*
D02*
G37*
G36*
X170500Y97598D02*
X168549Y97210D01*
X166895Y96105D01*
X165790Y94451D01*
X165402Y92500D01*
X165790Y90549D01*
X166895Y88895D01*
X168549Y87790D01*
X170500Y87402D01*
X172451Y87790D01*
X174105Y88895D01*
X175210Y90549D01*
X175598Y92500D01*
X175210Y94451D01*
X174105Y96105D01*
X172451Y97210D01*
X170500Y97598D01*
D02*
G37*
G36*
X344780Y98210D02*
X325780D01*
Y79210D01*
X344780D01*
Y98210D01*
D02*
G37*
G36*
X590550Y94672D02*
X588070Y94346D01*
X585759Y93388D01*
X583774Y91865D01*
X582252Y89881D01*
X581295Y87570D01*
X580968Y85090D01*
X581295Y82610D01*
X582252Y80299D01*
X583774Y78315D01*
X585759Y76792D01*
X588070Y75834D01*
X590550Y75508D01*
X593030Y75834D01*
X595341Y76792D01*
X597325Y78315D01*
X598848Y80299D01*
X599805Y82610D01*
X600132Y85090D01*
X599805Y87570D01*
X598848Y89881D01*
X597325Y91865D01*
X595341Y93388D01*
X593030Y94346D01*
X590550Y94672D01*
D02*
G37*
G36*
X274500Y79098D02*
X272549Y78710D01*
X270895Y77605D01*
X269790Y75951D01*
X269402Y74000D01*
X269790Y72049D01*
X270895Y70395D01*
X272549Y69290D01*
X274500Y68902D01*
X276451Y69290D01*
X278105Y70395D01*
X279210Y72049D01*
X279598Y74000D01*
X279210Y75951D01*
X278105Y77605D01*
X276451Y78710D01*
X274500Y79098D01*
D02*
G37*
G36*
X24750Y86612D02*
X13250D01*
X11006Y86166D01*
X9104Y84895D01*
X7833Y82993D01*
X7387Y80750D01*
Y73250D01*
X7833Y71006D01*
X9104Y69104D01*
X11006Y67833D01*
X13250Y67387D01*
X24750D01*
X26993Y67833D01*
X28895Y69104D01*
X30166Y71006D01*
X30612Y73250D01*
Y80750D01*
X30166Y82993D01*
X28895Y84895D01*
X26993Y86166D01*
X24750Y86612D01*
D02*
G37*
G36*
X359430Y87460D02*
X350758D01*
X350937Y86099D01*
X351945Y83667D01*
X353548Y81578D01*
X355637Y79975D01*
X358069Y78967D01*
X359430Y78788D01*
Y87460D01*
D02*
G37*
G36*
X46000Y96330D02*
X43585Y96012D01*
X41335Y95080D01*
X39403Y93597D01*
X37920Y91665D01*
X36988Y89415D01*
X36670Y87000D01*
X36988Y84585D01*
X37920Y82335D01*
X39403Y80403D01*
X41335Y78920D01*
X43585Y77988D01*
X46000Y77670D01*
X48415Y77988D01*
X50665Y78920D01*
X52597Y80403D01*
X54080Y82335D01*
X55012Y84585D01*
X55329Y87000D01*
X55012Y89415D01*
X54080Y91665D01*
X52597Y93597D01*
X50665Y95080D01*
X48415Y96012D01*
X46000Y96330D01*
D02*
G37*
G36*
X615950Y94672D02*
X613470Y94346D01*
X611159Y93388D01*
X609174Y91865D01*
X607652Y89881D01*
X606694Y87570D01*
X606368Y85090D01*
X606694Y82610D01*
X607652Y80299D01*
X609174Y78315D01*
X611159Y76792D01*
X613470Y75834D01*
X615950Y75508D01*
X618430Y75834D01*
X620741Y76792D01*
X622725Y78315D01*
X624248Y80299D01*
X625205Y82610D01*
X625532Y85090D01*
X625205Y87570D01*
X624248Y89881D01*
X622725Y91865D01*
X620741Y93388D01*
X618430Y94346D01*
X615950Y94672D01*
D02*
G37*
G36*
X547050Y112598D02*
X545099Y112210D01*
X543445Y111105D01*
X542340Y109451D01*
X541952Y107500D01*
X542340Y105549D01*
X543445Y103895D01*
X545099Y102790D01*
X547050Y102402D01*
X549001Y102790D01*
X550654Y103895D01*
X551760Y105549D01*
X552148Y107500D01*
X551760Y109451D01*
X550654Y111105D01*
X549001Y112210D01*
X547050Y112598D01*
D02*
G37*
G36*
X527370D02*
X525419Y112210D01*
X523765Y111105D01*
X522660Y109451D01*
X522272Y107500D01*
X522660Y105549D01*
X523765Y103895D01*
X525419Y102790D01*
X527370Y102402D01*
X529321Y102790D01*
X530975Y103895D01*
X532080Y105549D01*
X532468Y107500D01*
X532080Y109451D01*
X530975Y111105D01*
X529321Y112210D01*
X527370Y112598D01*
D02*
G37*
G36*
X339000Y111098D02*
X337049Y110710D01*
X335395Y109605D01*
X334290Y107951D01*
X333902Y106000D01*
X334290Y104049D01*
X335395Y102395D01*
X337049Y101290D01*
X339000Y100902D01*
X340951Y101290D01*
X342605Y102395D01*
X343710Y104049D01*
X344098Y106000D01*
X343710Y107951D01*
X342605Y109605D01*
X340951Y110710D01*
X339000Y111098D01*
D02*
G37*
G36*
X603570Y112598D02*
X601619Y112210D01*
X599965Y111105D01*
X598860Y109451D01*
X598472Y107500D01*
X598860Y105549D01*
X599965Y103895D01*
X601619Y102790D01*
X603570Y102402D01*
X605521Y102790D01*
X607175Y103895D01*
X608280Y105549D01*
X608668Y107500D01*
X608280Y109451D01*
X607175Y111105D01*
X605521Y112210D01*
X603570Y112598D01*
D02*
G37*
G36*
X585150D02*
X583199Y112210D01*
X581545Y111105D01*
X580440Y109451D01*
X580052Y107500D01*
X580440Y105549D01*
X581545Y103895D01*
X583199Y102790D01*
X585150Y102402D01*
X587101Y102790D01*
X588754Y103895D01*
X589860Y105549D01*
X590248Y107500D01*
X589860Y109451D01*
X588754Y111105D01*
X587101Y112210D01*
X585150Y112598D01*
D02*
G37*
G36*
X565470D02*
X563519Y112210D01*
X561865Y111105D01*
X560760Y109451D01*
X560372Y107500D01*
X560760Y105549D01*
X561865Y103895D01*
X563519Y102790D01*
X565470Y102402D01*
X567421Y102790D01*
X569075Y103895D01*
X570180Y105549D01*
X570568Y107500D01*
X570180Y109451D01*
X569075Y111105D01*
X567421Y112210D01*
X565470Y112598D01*
D02*
G37*
G36*
X457050Y95098D02*
X455099Y94710D01*
X453445Y93605D01*
X452813Y92660D01*
X451286D01*
X450654Y93605D01*
X449001Y94710D01*
X447050Y95098D01*
X445099Y94710D01*
X443445Y93605D01*
X442813Y92660D01*
X441286D01*
X440654Y93605D01*
X439001Y94710D01*
X437050Y95098D01*
X435099Y94710D01*
X433445Y93605D01*
X432340Y91951D01*
X431952Y90000D01*
X432340Y88049D01*
X433445Y86395D01*
X435099Y85290D01*
X437050Y84902D01*
X439001Y85290D01*
X440654Y86395D01*
X441286Y87340D01*
X442813D01*
X443445Y86395D01*
X445099Y85290D01*
X447050Y84902D01*
X449001Y85290D01*
X450654Y86395D01*
X451286Y87340D01*
X452813D01*
X453445Y86395D01*
X455099Y85290D01*
X457050Y84902D01*
X459001Y85290D01*
X460654Y86395D01*
X461760Y88049D01*
X462148Y90000D01*
X461760Y91951D01*
X460654Y93605D01*
X459001Y94710D01*
X457050Y95098D01*
D02*
G37*
G36*
X361930Y98631D02*
Y89960D01*
X370601D01*
X370422Y91320D01*
X369415Y93753D01*
X367812Y95842D01*
X365723Y97445D01*
X363290Y98452D01*
X361930Y98631D01*
D02*
G37*
G36*
X359430D02*
X358069Y98452D01*
X355637Y97445D01*
X353548Y95842D01*
X351945Y93753D01*
X350937Y91320D01*
X350758Y89960D01*
X359430D01*
Y98631D01*
D02*
G37*
G36*
X199000Y109598D02*
X197049Y109210D01*
X195395Y108105D01*
X194290Y106451D01*
X193902Y104500D01*
X194290Y102549D01*
X195395Y100895D01*
X197049Y99790D01*
X199000Y99402D01*
X200951Y99790D01*
X202605Y100895D01*
X203710Y102549D01*
X204098Y104500D01*
X203710Y106451D01*
X202605Y108105D01*
X200951Y109210D01*
X199000Y109598D01*
D02*
G37*
G36*
X128000Y104098D02*
X126049Y103710D01*
X124395Y102605D01*
X123290Y100951D01*
X122902Y99000D01*
X123290Y97049D01*
X124395Y95395D01*
X126049Y94290D01*
X128000Y93902D01*
X129951Y94290D01*
X131605Y95395D01*
X132710Y97049D01*
X133098Y99000D01*
X132710Y100951D01*
X131605Y102605D01*
X129951Y103710D01*
X128000Y104098D01*
D02*
G37*
G36*
X527049Y95098D02*
X525099Y94710D01*
X523445Y93605D01*
X522813Y92660D01*
X521286D01*
X520654Y93605D01*
X519000Y94710D01*
X517049Y95098D01*
X515099Y94710D01*
X513445Y93605D01*
X512813Y92660D01*
X511286D01*
X510654Y93605D01*
X509000Y94710D01*
X507049Y95098D01*
X505099Y94710D01*
X503445Y93605D01*
X502340Y91951D01*
X501951Y90000D01*
X502340Y88049D01*
X503445Y86395D01*
X505099Y85290D01*
X507049Y84902D01*
X509000Y85290D01*
X510654Y86395D01*
X511286Y87340D01*
X512813D01*
X513445Y86395D01*
X515099Y85290D01*
X517049Y84902D01*
X519000Y85290D01*
X520654Y86395D01*
X521286Y87340D01*
X522813D01*
X523445Y86395D01*
X525099Y85290D01*
X527049Y84902D01*
X529000Y85290D01*
X530654Y86395D01*
X531759Y88049D01*
X532147Y90000D01*
X531759Y91951D01*
X530654Y93605D01*
X529000Y94710D01*
X527049Y95098D01*
D02*
G37*
G36*
X590312Y276880D02*
X581640D01*
Y268208D01*
X583000Y268387D01*
X585433Y269395D01*
X587522Y270998D01*
X589125Y273087D01*
X590132Y275519D01*
X590312Y276880D01*
D02*
G37*
G36*
X983150Y476321D02*
X981789Y476142D01*
X979357Y475135D01*
X977268Y473532D01*
X975665Y471443D01*
X974657Y469010D01*
X974478Y467650D01*
X983150D01*
Y476321D01*
D02*
G37*
G36*
X20320Y479482D02*
X17840Y479155D01*
X15529Y478198D01*
X13544Y476675D01*
X12021Y474691D01*
X11064Y472380D01*
X10738Y469900D01*
X11064Y467420D01*
X12021Y465109D01*
X13544Y463124D01*
X15529Y461601D01*
X17840Y460644D01*
X20320Y460318D01*
X22800Y460644D01*
X25111Y461601D01*
X27095Y463124D01*
X28618Y465109D01*
X29575Y467420D01*
X29902Y469900D01*
X29575Y472380D01*
X28618Y474691D01*
X27095Y476675D01*
X25111Y478198D01*
X22800Y479155D01*
X20320Y479482D01*
D02*
G37*
G36*
X983150Y465150D02*
X974478D01*
X974657Y463789D01*
X975665Y461357D01*
X977268Y459268D01*
X979357Y457665D01*
X981789Y456657D01*
X983150Y456478D01*
Y465150D01*
D02*
G37*
G36*
X19070Y494050D02*
X10398D01*
X10577Y492689D01*
X11585Y490257D01*
X13188Y488168D01*
X15277Y486565D01*
X17709Y485557D01*
X19070Y485378D01*
Y494050D01*
D02*
G37*
G36*
X984400Y501382D02*
X981920Y501055D01*
X979609Y500098D01*
X977624Y498575D01*
X976102Y496591D01*
X975144Y494280D01*
X974818Y491800D01*
X975144Y489320D01*
X976102Y487009D01*
X977624Y485024D01*
X979609Y483502D01*
X981920Y482544D01*
X984400Y482218D01*
X986880Y482544D01*
X989191Y483502D01*
X991175Y485024D01*
X992698Y487009D01*
X993655Y489320D01*
X993982Y491800D01*
X993655Y494280D01*
X992698Y496591D01*
X991175Y498575D01*
X989191Y500098D01*
X986880Y501055D01*
X984400Y501382D01*
D02*
G37*
G36*
X985650Y476321D02*
Y467650D01*
X994322D01*
X994142Y469010D01*
X993135Y471443D01*
X991532Y473532D01*
X989443Y475135D01*
X987010Y476142D01*
X985650Y476321D01*
D02*
G37*
G36*
X468630Y498877D02*
X466289Y498412D01*
X464304Y497086D01*
X462978Y495101D01*
X462513Y492760D01*
X462978Y490419D01*
X464304Y488434D01*
X464363Y488395D01*
Y487125D01*
X464304Y487085D01*
X462978Y485101D01*
X462513Y482760D01*
X462978Y480418D01*
X464222Y478558D01*
X464363Y478121D01*
Y477398D01*
X464222Y476962D01*
X462978Y475101D01*
X462513Y472760D01*
X462978Y470418D01*
X464222Y468558D01*
X464363Y468121D01*
Y467398D01*
X464222Y466962D01*
X462978Y465101D01*
X462513Y462760D01*
X462978Y460419D01*
X464222Y458558D01*
X464363Y458121D01*
Y457398D01*
X464222Y456962D01*
X462978Y455101D01*
X462513Y452760D01*
X462978Y450419D01*
X464222Y448558D01*
X464363Y448121D01*
Y447398D01*
X464222Y446962D01*
X462978Y445101D01*
X462513Y442760D01*
X462978Y440419D01*
X464304Y438434D01*
X466289Y437108D01*
X468630Y436642D01*
X470971Y437108D01*
X472956Y438434D01*
X474282Y440419D01*
X474748Y442760D01*
X474282Y445101D01*
X473038Y446962D01*
X472897Y447398D01*
Y448121D01*
X473038Y448558D01*
X474282Y450419D01*
X474748Y452760D01*
X474282Y455101D01*
X473038Y456962D01*
X472897Y457398D01*
Y458121D01*
X473038Y458558D01*
X474282Y460419D01*
X474748Y462760D01*
X474282Y465101D01*
X473038Y466962D01*
X472897Y467398D01*
Y468121D01*
X473038Y468558D01*
X474282Y470418D01*
X474748Y472760D01*
X474282Y475101D01*
X473038Y476962D01*
X472897Y477398D01*
Y478121D01*
X473038Y478558D01*
X474282Y480418D01*
X474748Y482760D01*
X474282Y485101D01*
X472956Y487085D01*
X472897Y487125D01*
Y488395D01*
X472956Y488434D01*
X474282Y490419D01*
X474748Y492760D01*
X474282Y495101D01*
X472956Y497086D01*
X470971Y498412D01*
X468630Y498877D01*
D02*
G37*
G36*
X283210D02*
X280869Y498412D01*
X278884Y497086D01*
X277558Y495101D01*
X277092Y492760D01*
X277558Y490419D01*
X278884Y488434D01*
X278943Y488395D01*
Y487125D01*
X278884Y487085D01*
X277558Y485101D01*
X277092Y482760D01*
X277558Y480418D01*
X278802Y478558D01*
X278943Y478121D01*
Y477398D01*
X278802Y476962D01*
X277558Y475101D01*
X277092Y472760D01*
X277558Y470418D01*
X278802Y468558D01*
X278943Y468121D01*
Y467398D01*
X278802Y466962D01*
X277558Y465101D01*
X277092Y462760D01*
X277558Y460419D01*
X278802Y458558D01*
X278943Y458121D01*
Y457398D01*
X278802Y456962D01*
X277558Y455101D01*
X277092Y452760D01*
X277558Y450419D01*
X278802Y448558D01*
X278943Y448121D01*
Y447398D01*
X278802Y446962D01*
X277558Y445101D01*
X277092Y442760D01*
X277558Y440419D01*
X278884Y438434D01*
X280869Y437108D01*
X283210Y436642D01*
X285551Y437108D01*
X287536Y438434D01*
X288862Y440419D01*
X289328Y442760D01*
X288862Y445101D01*
X287618Y446962D01*
X287477Y447398D01*
Y448121D01*
X287618Y448558D01*
X288862Y450419D01*
X289328Y452760D01*
X288862Y455101D01*
X287618Y456962D01*
X287477Y457398D01*
Y458121D01*
X287618Y458558D01*
X288862Y460419D01*
X289328Y462760D01*
X288862Y465101D01*
X287618Y466962D01*
X287477Y467398D01*
Y468121D01*
X287618Y468558D01*
X288862Y470418D01*
X289328Y472760D01*
X288862Y475101D01*
X287618Y476962D01*
X287477Y477398D01*
Y478121D01*
X287618Y478558D01*
X288862Y480418D01*
X289328Y482760D01*
X288862Y485101D01*
X287536Y487085D01*
X287477Y487125D01*
Y488395D01*
X287536Y488434D01*
X288862Y490419D01*
X289328Y492760D01*
X288862Y495101D01*
X287536Y497086D01*
X285551Y498412D01*
X283210Y498877D01*
D02*
G37*
G36*
X97790D02*
X95449Y498412D01*
X93464Y497086D01*
X92138Y495101D01*
X91672Y492760D01*
X92138Y490419D01*
X93464Y488434D01*
X93523Y488395D01*
Y487125D01*
X93464Y487085D01*
X92138Y485101D01*
X91672Y482760D01*
X92138Y480418D01*
X93382Y478558D01*
X93523Y478121D01*
Y477398D01*
X93382Y476962D01*
X92138Y475101D01*
X91672Y472760D01*
X92138Y470418D01*
X93382Y468558D01*
X93523Y468121D01*
Y467398D01*
X93382Y466962D01*
X92138Y465101D01*
X91672Y462760D01*
X92138Y460419D01*
X93382Y458558D01*
X93523Y458121D01*
Y457398D01*
X93382Y456962D01*
X92138Y455101D01*
X91672Y452760D01*
X92138Y450419D01*
X93382Y448558D01*
X93523Y448121D01*
Y447398D01*
X93382Y446962D01*
X92138Y445101D01*
X91672Y442760D01*
X92138Y440419D01*
X93464Y438434D01*
X95449Y437108D01*
X97790Y436642D01*
X100131Y437108D01*
X102116Y438434D01*
X103442Y440419D01*
X103907Y442760D01*
X103442Y445101D01*
X102198Y446962D01*
X102057Y447398D01*
Y448121D01*
X102198Y448558D01*
X103442Y450419D01*
X103907Y452760D01*
X103442Y455101D01*
X102198Y456962D01*
X102057Y457398D01*
Y458121D01*
X102198Y458558D01*
X103442Y460419D01*
X103907Y462760D01*
X103442Y465101D01*
X102198Y466962D01*
X102057Y467398D01*
Y468121D01*
X102198Y468558D01*
X103442Y470418D01*
X103907Y472760D01*
X103442Y475101D01*
X102198Y476962D01*
X102057Y477398D01*
Y478121D01*
X102198Y478558D01*
X103442Y480418D01*
X103907Y482760D01*
X103442Y485101D01*
X102116Y487085D01*
X102057Y487125D01*
Y488395D01*
X102116Y488434D01*
X103442Y490419D01*
X103907Y492760D01*
X103442Y495101D01*
X102116Y497086D01*
X100131Y498412D01*
X97790Y498877D01*
D02*
G37*
G36*
X994322Y465150D02*
X985650D01*
Y456478D01*
X987010Y456657D01*
X989443Y457665D01*
X991532Y459268D01*
X993135Y461357D01*
X994142Y463789D01*
X994322Y465150D01*
D02*
G37*
G36*
X839470Y498877D02*
X837129Y498412D01*
X835144Y497086D01*
X833818Y495101D01*
X833353Y492760D01*
X833818Y490419D01*
X835144Y488434D01*
X835203Y488395D01*
Y487125D01*
X835144Y487085D01*
X833818Y485101D01*
X833353Y482760D01*
X833818Y480418D01*
X835062Y478558D01*
X835203Y478121D01*
Y477398D01*
X835062Y476962D01*
X833818Y475101D01*
X833353Y472760D01*
X833818Y470418D01*
X835062Y468558D01*
X835203Y468121D01*
Y467398D01*
X835062Y466962D01*
X833818Y465101D01*
X833353Y462760D01*
X833818Y460419D01*
X835062Y458558D01*
X835203Y458121D01*
Y457398D01*
X835062Y456962D01*
X833818Y455101D01*
X833353Y452760D01*
X833818Y450419D01*
X835062Y448558D01*
X835203Y448121D01*
Y447398D01*
X835062Y446962D01*
X833818Y445101D01*
X833353Y442760D01*
X833818Y440419D01*
X835144Y438434D01*
X837129Y437108D01*
X839470Y436642D01*
X841811Y437108D01*
X843796Y438434D01*
X845122Y440419D01*
X845587Y442760D01*
X845122Y445101D01*
X843878Y446962D01*
X843737Y447398D01*
Y448121D01*
X843878Y448558D01*
X845122Y450419D01*
X845587Y452760D01*
X845122Y455101D01*
X843878Y456962D01*
X843737Y457398D01*
Y458121D01*
X843878Y458558D01*
X845122Y460419D01*
X845587Y462760D01*
X845122Y465101D01*
X843878Y466962D01*
X843737Y467398D01*
Y468121D01*
X843878Y468558D01*
X845122Y470418D01*
X845587Y472760D01*
X845122Y475101D01*
X843878Y476962D01*
X843737Y477398D01*
Y478121D01*
X843878Y478558D01*
X845122Y480418D01*
X845587Y482760D01*
X845122Y485101D01*
X843796Y487085D01*
X843737Y487125D01*
Y488395D01*
X843796Y488434D01*
X845122Y490419D01*
X845587Y492760D01*
X845122Y495101D01*
X843796Y497086D01*
X841811Y498412D01*
X839470Y498877D01*
D02*
G37*
G36*
X654050D02*
X651709Y498412D01*
X649724Y497086D01*
X648398Y495101D01*
X647933Y492760D01*
X648398Y490419D01*
X649724Y488434D01*
X649783Y488395D01*
Y487125D01*
X649724Y487085D01*
X648398Y485101D01*
X647933Y482760D01*
X648398Y480418D01*
X649642Y478558D01*
X649783Y478121D01*
Y477398D01*
X649642Y476962D01*
X648398Y475101D01*
X647933Y472760D01*
X648398Y470418D01*
X649642Y468558D01*
X649783Y468121D01*
Y467398D01*
X649642Y466962D01*
X648398Y465101D01*
X647933Y462760D01*
X648398Y460419D01*
X649642Y458558D01*
X649783Y458121D01*
Y457398D01*
X649642Y456962D01*
X648398Y455101D01*
X647933Y452760D01*
X648398Y450419D01*
X649642Y448558D01*
X649783Y448121D01*
Y447398D01*
X649642Y446962D01*
X648398Y445101D01*
X647933Y442760D01*
X648398Y440419D01*
X649724Y438434D01*
X651709Y437108D01*
X654050Y436642D01*
X656391Y437108D01*
X658376Y438434D01*
X659702Y440419D01*
X660167Y442760D01*
X659702Y445101D01*
X658458Y446962D01*
X658317Y447398D01*
Y448121D01*
X658458Y448558D01*
X659702Y450419D01*
X660167Y452760D01*
X659702Y455101D01*
X658458Y456962D01*
X658317Y457398D01*
Y458121D01*
X658458Y458558D01*
X659702Y460419D01*
X660167Y462760D01*
X659702Y465101D01*
X658458Y466962D01*
X658317Y467398D01*
Y468121D01*
X658458Y468558D01*
X659702Y470418D01*
X660167Y472760D01*
X659702Y475101D01*
X658458Y476962D01*
X658317Y477398D01*
Y478121D01*
X658458Y478558D01*
X659702Y480418D01*
X660167Y482760D01*
X659702Y485101D01*
X658376Y487085D01*
X658317Y487125D01*
Y488395D01*
X658376Y488434D01*
X659702Y490419D01*
X660167Y492760D01*
X659702Y495101D01*
X658376Y497086D01*
X656391Y498412D01*
X654050Y498877D01*
D02*
G37*
G36*
X842760Y514368D02*
X840809Y513980D01*
X839155Y512875D01*
X838050Y511221D01*
X837662Y509270D01*
X838050Y507319D01*
X839155Y505665D01*
X840809Y504560D01*
X842760Y504172D01*
X844711Y504560D01*
X846365Y505665D01*
X847470Y507319D01*
X847858Y509270D01*
X847470Y511221D01*
X846365Y512875D01*
X844711Y513980D01*
X842760Y514368D01*
D02*
G37*
G36*
X657340D02*
X655389Y513980D01*
X653735Y512875D01*
X652630Y511221D01*
X652242Y509270D01*
X652630Y507319D01*
X653735Y505665D01*
X655389Y504560D01*
X657340Y504172D01*
X659291Y504560D01*
X660945Y505665D01*
X662050Y507319D01*
X662438Y509270D01*
X662050Y511221D01*
X660945Y512875D01*
X659291Y513980D01*
X657340Y514368D01*
D02*
G37*
G36*
X471920D02*
X469969Y513980D01*
X468315Y512875D01*
X467210Y511221D01*
X466822Y509270D01*
X467210Y507319D01*
X468315Y505665D01*
X469969Y504560D01*
X471920Y504172D01*
X473871Y504560D01*
X475525Y505665D01*
X476630Y507319D01*
X477018Y509270D01*
X476630Y511221D01*
X475525Y512875D01*
X473871Y513980D01*
X471920Y514368D01*
D02*
G37*
G36*
X149182Y514411D02*
X147231Y514023D01*
X145577Y512918D01*
X145548Y512875D01*
X144575D01*
X142921Y513980D01*
X140970Y514368D01*
X139019Y513980D01*
X137698Y513097D01*
X136842Y512959D01*
X135986Y513097D01*
X134666Y513980D01*
X132715Y514368D01*
X130764Y513980D01*
X129110Y512875D01*
X128005Y511221D01*
X127617Y509270D01*
X128005Y507319D01*
X129110Y505665D01*
X130764Y504560D01*
X132715Y504172D01*
X134666Y504560D01*
X135986Y505443D01*
X136842Y505581D01*
X137698Y505443D01*
X139019Y504560D01*
X140970Y504172D01*
X142921Y504560D01*
X144575Y505665D01*
X144603Y505708D01*
X145577D01*
X147231Y504603D01*
X149182Y504215D01*
X151133Y504603D01*
X152787Y505708D01*
X153892Y507362D01*
X154280Y509313D01*
X153892Y511264D01*
X152787Y512918D01*
X151133Y514023D01*
X149182Y514411D01*
D02*
G37*
G36*
X29820Y530200D02*
X10820D01*
Y511200D01*
X29820D01*
Y530200D01*
D02*
G37*
G36*
X984400Y526782D02*
X981920Y526455D01*
X979609Y525498D01*
X977624Y523975D01*
X976102Y521991D01*
X975144Y519680D01*
X974818Y517200D01*
X975144Y514720D01*
X976102Y512409D01*
X977624Y510424D01*
X979609Y508901D01*
X981920Y507944D01*
X984400Y507618D01*
X986880Y507944D01*
X989191Y508901D01*
X991175Y510424D01*
X992698Y512409D01*
X993655Y514720D01*
X993982Y517200D01*
X993655Y519680D01*
X992698Y521991D01*
X991175Y523975D01*
X989191Y525498D01*
X986880Y526455D01*
X984400Y526782D01*
D02*
G37*
G36*
X19070Y505221D02*
X17709Y505042D01*
X15277Y504035D01*
X13188Y502432D01*
X11585Y500343D01*
X10577Y497910D01*
X10398Y496550D01*
X19070D01*
Y505221D01*
D02*
G37*
G36*
X964000Y501098D02*
X962049Y500710D01*
X960395Y499605D01*
X959290Y497951D01*
X958902Y496000D01*
X959290Y494049D01*
X960395Y492395D01*
X962049Y491290D01*
X964000Y490902D01*
X965951Y491290D01*
X967605Y492395D01*
X968710Y494049D01*
X969098Y496000D01*
X968710Y497951D01*
X967605Y499605D01*
X965951Y500710D01*
X964000Y501098D01*
D02*
G37*
G36*
X30241Y494050D02*
X21570D01*
Y485378D01*
X22930Y485557D01*
X25363Y486565D01*
X27452Y488168D01*
X29055Y490257D01*
X30062Y492689D01*
X30241Y494050D01*
D02*
G37*
G36*
X286500Y514368D02*
X284549Y513980D01*
X282895Y512875D01*
X281790Y511221D01*
X281402Y509270D01*
X281790Y507319D01*
X282895Y505665D01*
X284549Y504560D01*
X286500Y504172D01*
X288451Y504560D01*
X290105Y505665D01*
X291210Y507319D01*
X291598Y509270D01*
X291210Y511221D01*
X290105Y512875D01*
X288451Y513980D01*
X286500Y514368D01*
D02*
G37*
G36*
X93980Y514368D02*
X92029Y513980D01*
X90375Y512875D01*
X89270Y511221D01*
X88882Y509270D01*
X89270Y507319D01*
X90375Y505665D01*
X92029Y504560D01*
X93980Y504172D01*
X95931Y504560D01*
X97585Y505665D01*
X98690Y507319D01*
X99078Y509270D01*
X98690Y511221D01*
X97585Y512875D01*
X95931Y513980D01*
X93980Y514368D01*
D02*
G37*
G36*
X21570Y505221D02*
Y496550D01*
X30241D01*
X30062Y497910D01*
X29055Y500343D01*
X27452Y502432D01*
X25363Y504035D01*
X22930Y505042D01*
X21570Y505221D01*
D02*
G37*
G36*
X20320Y454082D02*
X17840Y453755D01*
X15529Y452798D01*
X13544Y451275D01*
X12021Y449291D01*
X11064Y446980D01*
X10738Y444500D01*
X11064Y442020D01*
X12021Y439709D01*
X13544Y437724D01*
X15529Y436202D01*
X17840Y435244D01*
X20320Y434918D01*
X22800Y435244D01*
X25111Y436202D01*
X27095Y437724D01*
X28618Y439709D01*
X29575Y442020D01*
X29902Y444500D01*
X29575Y446980D01*
X28618Y449291D01*
X27095Y451275D01*
X25111Y452798D01*
X22800Y453755D01*
X20320Y454082D01*
D02*
G37*
G36*
X46544Y478657D02*
X44203Y478191D01*
X42219Y476865D01*
X40893Y474881D01*
X40427Y472540D01*
X40893Y470199D01*
X42136Y468338D01*
X42277Y467901D01*
Y467178D01*
X42136Y466742D01*
X40893Y464881D01*
X40427Y462540D01*
X40893Y460199D01*
X42136Y458338D01*
X42277Y457901D01*
Y457178D01*
X42136Y456742D01*
X40893Y454881D01*
X40427Y452540D01*
X40893Y450199D01*
X42136Y448338D01*
X42277Y447901D01*
Y447178D01*
X42136Y446742D01*
X40893Y444881D01*
X40427Y442540D01*
X40893Y440199D01*
X42136Y438338D01*
X42277Y437901D01*
Y437178D01*
X42136Y436742D01*
X40893Y434881D01*
X40427Y432540D01*
X40893Y430199D01*
X42136Y428338D01*
X42277Y427901D01*
Y427178D01*
X42136Y426742D01*
X40893Y424881D01*
X40427Y422540D01*
X40893Y420199D01*
X42219Y418214D01*
X44203Y416888D01*
X46544Y416422D01*
X48886Y416888D01*
X50870Y418214D01*
X52196Y420199D01*
X52662Y422540D01*
X52196Y424881D01*
X50953Y426742D01*
X50812Y427178D01*
Y427901D01*
X50953Y428338D01*
X52196Y430199D01*
X52662Y432540D01*
X52196Y434881D01*
X50953Y436742D01*
X50812Y437178D01*
Y437901D01*
X50953Y438338D01*
X52196Y440199D01*
X52662Y442540D01*
X52196Y444881D01*
X50953Y446742D01*
X50812Y447178D01*
Y447901D01*
X50953Y448338D01*
X52196Y450199D01*
X52662Y452540D01*
X52196Y454881D01*
X50953Y456742D01*
X50812Y457178D01*
Y457901D01*
X50953Y458338D01*
X52196Y460199D01*
X52662Y462540D01*
X52196Y464881D01*
X50953Y466742D01*
X50812Y467178D01*
Y467901D01*
X50953Y468338D01*
X52196Y470199D01*
X52662Y472540D01*
X52196Y474881D01*
X50870Y476865D01*
X48886Y478191D01*
X46544Y478657D01*
D02*
G37*
G36*
X20320Y428682D02*
X17840Y428355D01*
X15529Y427398D01*
X13544Y425875D01*
X12021Y423891D01*
X11064Y421580D01*
X10738Y419100D01*
X11064Y416620D01*
X12021Y414309D01*
X13544Y412324D01*
X15529Y410802D01*
X17840Y409844D01*
X20320Y409518D01*
X22800Y409844D01*
X25111Y410802D01*
X27095Y412324D01*
X28618Y414309D01*
X29575Y416620D01*
X29902Y419100D01*
X29575Y421580D01*
X28618Y423891D01*
X27095Y425875D01*
X25111Y427398D01*
X22800Y428355D01*
X20320Y428682D01*
D02*
G37*
G36*
X202500Y414098D02*
X200549Y413710D01*
X198895Y412605D01*
X197790Y410951D01*
X197402Y409000D01*
X197790Y407049D01*
X198895Y405395D01*
X200549Y404290D01*
X202500Y403902D01*
X204451Y404290D01*
X206105Y405395D01*
X207210Y407049D01*
X207598Y409000D01*
X207210Y410951D01*
X206105Y412605D01*
X204451Y413710D01*
X202500Y414098D01*
D02*
G37*
G36*
X387965Y482350D02*
X385624Y481884D01*
X383639Y480558D01*
X382313Y478573D01*
X381847Y476232D01*
X382313Y473891D01*
X383556Y472030D01*
X383698Y471594D01*
Y470871D01*
X383556Y470434D01*
X382313Y468573D01*
X381847Y466232D01*
X382313Y463891D01*
X383639Y461907D01*
X383924Y461716D01*
Y460446D01*
X383639Y460256D01*
X382313Y458271D01*
X381847Y455930D01*
X382313Y453589D01*
X383639Y451604D01*
X384575Y450979D01*
Y449451D01*
X383639Y448826D01*
X382313Y446841D01*
X381847Y444500D01*
X382313Y442159D01*
X383639Y440174D01*
X384575Y439549D01*
Y438021D01*
X383639Y437396D01*
X382313Y435411D01*
X381847Y433070D01*
X382313Y430729D01*
X383639Y428744D01*
X384095Y428440D01*
Y427170D01*
X383639Y426865D01*
X382313Y424881D01*
X381847Y422540D01*
X382313Y420199D01*
X383639Y418214D01*
X385624Y416888D01*
X387965Y416422D01*
X390306Y416888D01*
X392290Y418214D01*
X393617Y420199D01*
X394082Y422540D01*
X393617Y424881D01*
X392290Y426865D01*
X391835Y427170D01*
Y428440D01*
X392290Y428744D01*
X393617Y430729D01*
X394082Y433070D01*
X393617Y435411D01*
X392290Y437396D01*
X391354Y438021D01*
Y439549D01*
X392290Y440174D01*
X393617Y442159D01*
X394082Y444500D01*
X393617Y446841D01*
X392290Y448826D01*
X391354Y449451D01*
Y450979D01*
X392290Y451604D01*
X393617Y453589D01*
X394082Y455930D01*
X393617Y458271D01*
X392290Y460256D01*
X392006Y460446D01*
Y461716D01*
X392290Y461907D01*
X393617Y463891D01*
X394082Y466232D01*
X393617Y468573D01*
X392373Y470434D01*
X392232Y470871D01*
Y471594D01*
X392373Y472030D01*
X393617Y473891D01*
X394082Y476232D01*
X393617Y478573D01*
X392290Y480558D01*
X390306Y481884D01*
X387965Y482350D01*
D02*
G37*
G36*
X231964Y478657D02*
X229623Y478191D01*
X227639Y476865D01*
X226313Y474881D01*
X225847Y472540D01*
X226313Y470199D01*
X227556Y468338D01*
X227698Y467901D01*
Y467178D01*
X227556Y466742D01*
X226313Y464881D01*
X225847Y462540D01*
X226313Y460199D01*
X227556Y458338D01*
X227698Y457901D01*
Y457178D01*
X227556Y456742D01*
X226313Y454881D01*
X225847Y452540D01*
X226313Y450199D01*
X227556Y448338D01*
X227698Y447901D01*
Y447178D01*
X227556Y446742D01*
X226313Y444881D01*
X225847Y442540D01*
X226313Y440199D01*
X227556Y438338D01*
X227698Y437901D01*
Y437178D01*
X227556Y436742D01*
X226313Y434881D01*
X225847Y432540D01*
X226313Y430199D01*
X227556Y428338D01*
X227698Y427901D01*
Y427178D01*
X227556Y426742D01*
X226313Y424881D01*
X225847Y422540D01*
X226313Y420199D01*
X227639Y418214D01*
X229623Y416888D01*
X231964Y416422D01*
X234306Y416888D01*
X236290Y418214D01*
X237616Y420199D01*
X238082Y422540D01*
X237616Y424881D01*
X236373Y426742D01*
X236231Y427178D01*
Y427901D01*
X236373Y428338D01*
X237616Y430199D01*
X238082Y432540D01*
X237616Y434881D01*
X236373Y436742D01*
X236231Y437178D01*
Y437901D01*
X236373Y438338D01*
X237616Y440199D01*
X238082Y442540D01*
X237616Y444881D01*
X236373Y446742D01*
X236231Y447178D01*
Y447901D01*
X236373Y448338D01*
X237616Y450199D01*
X238082Y452540D01*
X237616Y454881D01*
X236373Y456742D01*
X236231Y457178D01*
Y457901D01*
X236373Y458338D01*
X237616Y460199D01*
X238082Y462540D01*
X237616Y464881D01*
X236373Y466742D01*
X236231Y467178D01*
Y467901D01*
X236373Y468338D01*
X237616Y470199D01*
X238082Y472540D01*
X237616Y474881D01*
X236290Y476865D01*
X234306Y478191D01*
X231964Y478657D01*
D02*
G37*
G36*
X202545Y482350D02*
X200204Y481884D01*
X198219Y480558D01*
X196893Y478573D01*
X196427Y476232D01*
X196893Y473891D01*
X198136Y472030D01*
X198278Y471594D01*
Y470871D01*
X198136Y470434D01*
X196893Y468573D01*
X196427Y466232D01*
X196893Y463891D01*
X198219Y461907D01*
X198504Y461716D01*
Y460446D01*
X198219Y460256D01*
X196893Y458271D01*
X196427Y455930D01*
X196893Y453589D01*
X198219Y451604D01*
X199155Y450979D01*
Y449451D01*
X198219Y448826D01*
X196893Y446841D01*
X196427Y444500D01*
X196893Y442159D01*
X198219Y440174D01*
X199155Y439549D01*
Y438021D01*
X198219Y437396D01*
X196893Y435411D01*
X196427Y433070D01*
X196893Y430729D01*
X198219Y428744D01*
X198675Y428440D01*
Y427170D01*
X198219Y426865D01*
X196893Y424881D01*
X196427Y422540D01*
X196893Y420199D01*
X198219Y418214D01*
X200204Y416888D01*
X202545Y416422D01*
X204886Y416888D01*
X206870Y418214D01*
X208197Y420199D01*
X208662Y422540D01*
X208197Y424881D01*
X206870Y426865D01*
X206415Y427170D01*
Y428440D01*
X206870Y428744D01*
X208197Y430729D01*
X208662Y433070D01*
X208197Y435411D01*
X206870Y437396D01*
X205934Y438021D01*
Y439549D01*
X206870Y440174D01*
X208197Y442159D01*
X208662Y444500D01*
X208197Y446841D01*
X206870Y448826D01*
X205934Y449451D01*
Y450979D01*
X206870Y451604D01*
X208197Y453589D01*
X208662Y455930D01*
X208197Y458271D01*
X206870Y460256D01*
X206586Y460446D01*
Y461716D01*
X206870Y461907D01*
X208197Y463891D01*
X208662Y466232D01*
X208197Y468573D01*
X206953Y470434D01*
X206812Y470871D01*
Y471594D01*
X206953Y472030D01*
X208197Y473891D01*
X208662Y476232D01*
X208197Y478573D01*
X206870Y480558D01*
X204886Y481884D01*
X202545Y482350D01*
D02*
G37*
G36*
X54000Y402598D02*
X52049Y402210D01*
X50395Y401105D01*
X49290Y399451D01*
X48902Y397500D01*
X49027Y396871D01*
X48129Y395973D01*
X47500Y396098D01*
X45549Y395710D01*
X43895Y394605D01*
X42790Y392951D01*
X42402Y391000D01*
X42790Y389049D01*
X43895Y387395D01*
X45549Y386290D01*
X47500Y385902D01*
X49451Y386290D01*
X51105Y387395D01*
X52210Y389049D01*
X52598Y391000D01*
X52473Y391629D01*
X53371Y392527D01*
X54000Y392402D01*
X55951Y392790D01*
X57605Y393895D01*
X58710Y395549D01*
X59098Y397500D01*
X58710Y399451D01*
X57605Y401105D01*
X55951Y402210D01*
X54000Y402598D01*
D02*
G37*
G36*
X602500Y404598D02*
X600549Y404210D01*
X598895Y403105D01*
X597790Y401451D01*
X597402Y399500D01*
X597790Y397549D01*
X598895Y395895D01*
X600549Y394790D01*
X602500Y394402D01*
X604451Y394790D01*
X606105Y395895D01*
X607210Y397549D01*
X607598Y399500D01*
X607210Y401451D01*
X606105Y403105D01*
X604451Y404210D01*
X602500Y404598D01*
D02*
G37*
G36*
X907175Y394045D02*
X900675D01*
X897575Y390945D01*
X894475Y394045D01*
X887975D01*
X884725Y390795D01*
Y382295D01*
X887975Y379045D01*
X894475D01*
X897575Y382145D01*
X900675Y379045D01*
X907175D01*
X910425Y382295D01*
Y390795D01*
X907175Y394045D01*
D02*
G37*
G36*
X967000Y427098D02*
X965049Y426710D01*
X963395Y425605D01*
X962290Y423951D01*
X961902Y422000D01*
X962290Y420049D01*
X963395Y418395D01*
X965049Y417290D01*
X967000Y416902D01*
X968496Y417200D01*
X968992Y416003D01*
X968395Y415605D01*
X967290Y413951D01*
X966902Y412000D01*
X967290Y410049D01*
X968395Y408395D01*
X970049Y407290D01*
X971602Y406981D01*
X972670Y405839D01*
X972652Y405750D01*
X973040Y403799D01*
X974145Y402145D01*
X975799Y401040D01*
X977750Y400652D01*
X979701Y401040D01*
X981355Y402145D01*
X982460Y403799D01*
X982848Y405750D01*
X982460Y407701D01*
X981355Y409355D01*
X979701Y410460D01*
X978148Y410769D01*
X977080Y411911D01*
X977098Y412000D01*
X976710Y413951D01*
X975605Y415605D01*
X973951Y416710D01*
X972000Y417098D01*
X970504Y416800D01*
X970008Y417997D01*
X970605Y418395D01*
X971710Y420049D01*
X972098Y422000D01*
X971710Y423951D01*
X970605Y425605D01*
X968951Y426710D01*
X967000Y427098D01*
D02*
G37*
G36*
X382500Y409598D02*
X380549Y409210D01*
X378895Y408105D01*
X377790Y406451D01*
X377402Y404500D01*
X377790Y402549D01*
X378895Y400895D01*
X380549Y399790D01*
X382500Y399402D01*
X384451Y399790D01*
X386105Y400895D01*
X387210Y402549D01*
X387598Y404500D01*
X387210Y406451D01*
X386105Y408105D01*
X384451Y409210D01*
X382500Y409598D01*
D02*
G37*
G36*
X756500Y408098D02*
X754549Y407710D01*
X752895Y406605D01*
X751790Y404951D01*
X751402Y403000D01*
X751790Y401049D01*
X752895Y399395D01*
X754549Y398290D01*
X756500Y397902D01*
X758451Y398290D01*
X760105Y399395D01*
X761210Y401049D01*
X761598Y403000D01*
X761210Y404951D01*
X760105Y406605D01*
X758451Y407710D01*
X756500Y408098D01*
D02*
G37*
G36*
X516385Y493638D02*
X514043Y493172D01*
X512059Y491846D01*
X510733Y489861D01*
X510267Y487520D01*
X510733Y485179D01*
X511976Y483318D01*
X512118Y482882D01*
Y482158D01*
X511976Y481722D01*
X510733Y479861D01*
X510267Y477520D01*
X510733Y475179D01*
X512059Y473194D01*
X512237Y473075D01*
Y471805D01*
X512059Y471686D01*
X510733Y469701D01*
X510267Y467360D01*
X510733Y465019D01*
X512059Y463034D01*
X512237Y462915D01*
Y461645D01*
X512059Y461526D01*
X510733Y459541D01*
X510267Y457200D01*
X510733Y454859D01*
X512059Y452874D01*
X512237Y452755D01*
Y451485D01*
X512059Y451366D01*
X510733Y449381D01*
X510267Y447040D01*
X510733Y444699D01*
X512059Y442714D01*
X512492Y442425D01*
Y441155D01*
X512059Y440865D01*
X510733Y438881D01*
X510267Y436540D01*
X510733Y434198D01*
X512059Y432214D01*
X514043Y430888D01*
X516385Y430422D01*
X518726Y430888D01*
X520710Y432214D01*
X522036Y434198D01*
X522502Y436540D01*
X522036Y438881D01*
X520710Y440865D01*
X520277Y441155D01*
Y442425D01*
X520710Y442714D01*
X522036Y444699D01*
X522502Y447040D01*
X522036Y449381D01*
X520710Y451366D01*
X520532Y451485D01*
Y452755D01*
X520710Y452874D01*
X522036Y454859D01*
X522502Y457200D01*
X522036Y459541D01*
X520710Y461526D01*
X520532Y461645D01*
Y462915D01*
X520710Y463034D01*
X522036Y465019D01*
X522502Y467360D01*
X522036Y469701D01*
X520710Y471686D01*
X520532Y471805D01*
Y473075D01*
X520710Y473194D01*
X522036Y475179D01*
X522502Y477520D01*
X522036Y479861D01*
X520793Y481722D01*
X520652Y482158D01*
Y482882D01*
X520793Y483318D01*
X522036Y485179D01*
X522502Y487520D01*
X522036Y489861D01*
X520710Y491846D01*
X518726Y493172D01*
X516385Y493638D01*
D02*
G37*
G36*
X330965D02*
X328623Y493172D01*
X326639Y491846D01*
X325313Y489861D01*
X324847Y487520D01*
X325313Y485179D01*
X326556Y483318D01*
X326698Y482882D01*
Y482158D01*
X326556Y481722D01*
X325313Y479861D01*
X324847Y477520D01*
X325313Y475179D01*
X326639Y473194D01*
X326817Y473075D01*
Y471805D01*
X326639Y471686D01*
X325313Y469701D01*
X324847Y467360D01*
X325313Y465019D01*
X326639Y463034D01*
X326817Y462915D01*
Y461645D01*
X326639Y461526D01*
X325313Y459541D01*
X324847Y457200D01*
X325313Y454859D01*
X326639Y452874D01*
X326817Y452755D01*
Y451485D01*
X326639Y451366D01*
X325313Y449381D01*
X324847Y447040D01*
X325313Y444699D01*
X326639Y442714D01*
X327072Y442425D01*
Y441155D01*
X326639Y440865D01*
X325313Y438881D01*
X324847Y436540D01*
X325313Y434198D01*
X326639Y432214D01*
X328623Y430888D01*
X330965Y430422D01*
X333306Y430888D01*
X335290Y432214D01*
X336616Y434198D01*
X337082Y436540D01*
X336616Y438881D01*
X335290Y440865D01*
X334857Y441155D01*
Y442425D01*
X335290Y442714D01*
X336616Y444699D01*
X337082Y447040D01*
X336616Y449381D01*
X335290Y451366D01*
X335112Y451485D01*
Y452755D01*
X335290Y452874D01*
X336616Y454859D01*
X337082Y457200D01*
X336616Y459541D01*
X335290Y461526D01*
X335112Y461645D01*
Y462915D01*
X335290Y463034D01*
X336616Y465019D01*
X337082Y467360D01*
X336616Y469701D01*
X335290Y471686D01*
X335112Y471805D01*
Y473075D01*
X335290Y473194D01*
X336616Y475179D01*
X337082Y477520D01*
X336616Y479861D01*
X335373Y481722D01*
X335232Y482158D01*
Y482882D01*
X335373Y483318D01*
X336616Y485179D01*
X337082Y487520D01*
X336616Y489861D01*
X335290Y491846D01*
X333306Y493172D01*
X330965Y493638D01*
D02*
G37*
G36*
X145545D02*
X143203Y493172D01*
X141219Y491846D01*
X139893Y489861D01*
X139427Y487520D01*
X139893Y485179D01*
X141136Y483318D01*
X141278Y482882D01*
Y482158D01*
X141136Y481722D01*
X139893Y479861D01*
X139427Y477520D01*
X139893Y475179D01*
X141219Y473194D01*
X141397Y473075D01*
Y471805D01*
X141219Y471686D01*
X139893Y469701D01*
X139427Y467360D01*
X139893Y465019D01*
X141219Y463034D01*
X141397Y462915D01*
Y461645D01*
X141219Y461526D01*
X139893Y459541D01*
X139427Y457200D01*
X139893Y454859D01*
X141219Y452874D01*
X141397Y452755D01*
Y451485D01*
X141219Y451366D01*
X139893Y449381D01*
X139427Y447040D01*
X139893Y444699D01*
X141219Y442714D01*
X141652Y442425D01*
Y441155D01*
X141219Y440865D01*
X139893Y438881D01*
X139427Y436540D01*
X139893Y434198D01*
X141219Y432214D01*
X143203Y430888D01*
X145545Y430422D01*
X147886Y430888D01*
X149870Y432214D01*
X151196Y434198D01*
X151662Y436540D01*
X151196Y438881D01*
X149870Y440865D01*
X149437Y441155D01*
Y442425D01*
X149870Y442714D01*
X151196Y444699D01*
X151662Y447040D01*
X151196Y449381D01*
X149870Y451366D01*
X149692Y451485D01*
Y452755D01*
X149870Y452874D01*
X151196Y454859D01*
X151662Y457200D01*
X151196Y459541D01*
X149870Y461526D01*
X149692Y461645D01*
Y462915D01*
X149870Y463034D01*
X151196Y465019D01*
X151662Y467360D01*
X151196Y469701D01*
X149870Y471686D01*
X149692Y471805D01*
Y473075D01*
X149870Y473194D01*
X151196Y475179D01*
X151662Y477520D01*
X151196Y479861D01*
X149953Y481722D01*
X149812Y482158D01*
Y482882D01*
X149953Y483318D01*
X151196Y485179D01*
X151662Y487520D01*
X151196Y489861D01*
X149870Y491846D01*
X147886Y493172D01*
X145545Y493638D01*
D02*
G37*
G36*
X993900Y450500D02*
X974900D01*
Y431500D01*
X993900D01*
Y450500D01*
D02*
G37*
G36*
X887225Y493638D02*
X884883Y493172D01*
X882899Y491846D01*
X881573Y489861D01*
X881107Y487520D01*
X881573Y485179D01*
X882816Y483318D01*
X882958Y482882D01*
Y482158D01*
X882816Y481722D01*
X881573Y479861D01*
X881107Y477520D01*
X881573Y475179D01*
X882899Y473194D01*
X883077Y473075D01*
Y471805D01*
X882899Y471686D01*
X881573Y469701D01*
X881107Y467360D01*
X881573Y465019D01*
X882899Y463034D01*
X883077Y462915D01*
Y461645D01*
X882899Y461526D01*
X881573Y459541D01*
X881107Y457200D01*
X881573Y454859D01*
X882899Y452874D01*
X883077Y452755D01*
Y451485D01*
X882899Y451366D01*
X881573Y449381D01*
X881107Y447040D01*
X881573Y444699D01*
X882899Y442714D01*
X883332Y442425D01*
Y441155D01*
X882899Y440865D01*
X881573Y438881D01*
X881107Y436540D01*
X881573Y434198D01*
X882899Y432214D01*
X884883Y430888D01*
X887225Y430422D01*
X889566Y430888D01*
X891550Y432214D01*
X892876Y434198D01*
X893342Y436540D01*
X892876Y438881D01*
X891550Y440865D01*
X891117Y441155D01*
Y442425D01*
X891550Y442714D01*
X892876Y444699D01*
X893342Y447040D01*
X892876Y449381D01*
X891550Y451366D01*
X891372Y451485D01*
Y452755D01*
X891550Y452874D01*
X892876Y454859D01*
X893342Y457200D01*
X892876Y459541D01*
X891550Y461526D01*
X891372Y461645D01*
Y462915D01*
X891550Y463034D01*
X892876Y465019D01*
X893342Y467360D01*
X892876Y469701D01*
X891550Y471686D01*
X891372Y471805D01*
Y473075D01*
X891550Y473194D01*
X892876Y475179D01*
X893342Y477520D01*
X892876Y479861D01*
X891633Y481722D01*
X891492Y482158D01*
Y482882D01*
X891633Y483318D01*
X892876Y485179D01*
X893342Y487520D01*
X892876Y489861D01*
X891550Y491846D01*
X889566Y493172D01*
X887225Y493638D01*
D02*
G37*
G36*
X701805D02*
X699463Y493172D01*
X697479Y491846D01*
X696153Y489861D01*
X695687Y487520D01*
X696153Y485179D01*
X697396Y483318D01*
X697538Y482882D01*
Y482158D01*
X697396Y481722D01*
X696153Y479861D01*
X695687Y477520D01*
X696153Y475179D01*
X697479Y473194D01*
X697657Y473075D01*
Y471805D01*
X697479Y471686D01*
X696153Y469701D01*
X695687Y467360D01*
X696153Y465019D01*
X697479Y463034D01*
X697657Y462915D01*
Y461645D01*
X697479Y461526D01*
X696153Y459541D01*
X695687Y457200D01*
X696153Y454859D01*
X697479Y452874D01*
X697657Y452755D01*
Y451485D01*
X697479Y451366D01*
X696153Y449381D01*
X695687Y447040D01*
X696153Y444699D01*
X697479Y442714D01*
X697912Y442425D01*
Y441155D01*
X697479Y440865D01*
X696153Y438881D01*
X695687Y436540D01*
X696153Y434198D01*
X697479Y432214D01*
X699463Y430888D01*
X701805Y430422D01*
X704146Y430888D01*
X706130Y432214D01*
X707456Y434198D01*
X707922Y436540D01*
X707456Y438881D01*
X706130Y440865D01*
X705697Y441155D01*
Y442425D01*
X706130Y442714D01*
X707456Y444699D01*
X707922Y447040D01*
X707456Y449381D01*
X706130Y451366D01*
X705952Y451485D01*
Y452755D01*
X706130Y452874D01*
X707456Y454859D01*
X707922Y457200D01*
X707456Y459541D01*
X706130Y461526D01*
X705952Y461645D01*
Y462915D01*
X706130Y463034D01*
X707456Y465019D01*
X707922Y467360D01*
X707456Y469701D01*
X706130Y471686D01*
X705952Y471805D01*
Y473075D01*
X706130Y473194D01*
X707456Y475179D01*
X707922Y477520D01*
X707456Y479861D01*
X706213Y481722D01*
X706072Y482158D01*
Y482882D01*
X706213Y483318D01*
X707456Y485179D01*
X707922Y487520D01*
X707456Y489861D01*
X706130Y491846D01*
X704146Y493172D01*
X701805Y493638D01*
D02*
G37*
G36*
X602804Y478657D02*
X600463Y478191D01*
X598479Y476865D01*
X597153Y474881D01*
X596687Y472540D01*
X597153Y470199D01*
X598396Y468338D01*
X598537Y467901D01*
Y467178D01*
X598396Y466742D01*
X597153Y464881D01*
X596687Y462540D01*
X597153Y460199D01*
X598396Y458338D01*
X598537Y457901D01*
Y457178D01*
X598396Y456742D01*
X597153Y454881D01*
X596687Y452540D01*
X597153Y450199D01*
X598396Y448338D01*
X598537Y447901D01*
Y447178D01*
X598396Y446742D01*
X597153Y444881D01*
X596687Y442540D01*
X597153Y440199D01*
X598396Y438338D01*
X598537Y437901D01*
Y437178D01*
X598396Y436742D01*
X597153Y434881D01*
X596687Y432540D01*
X597153Y430199D01*
X598396Y428338D01*
X598537Y427901D01*
Y427178D01*
X598396Y426742D01*
X597153Y424881D01*
X596687Y422540D01*
X597153Y420199D01*
X598479Y418214D01*
X600463Y416888D01*
X602804Y416422D01*
X605146Y416888D01*
X607130Y418214D01*
X608456Y420199D01*
X608922Y422540D01*
X608456Y424881D01*
X607213Y426742D01*
X607071Y427178D01*
Y427901D01*
X607213Y428338D01*
X608456Y430199D01*
X608922Y432540D01*
X608456Y434881D01*
X607213Y436742D01*
X607071Y437178D01*
Y437901D01*
X607213Y438338D01*
X608456Y440199D01*
X608922Y442540D01*
X608456Y444881D01*
X607213Y446742D01*
X607071Y447178D01*
Y447901D01*
X607213Y448338D01*
X608456Y450199D01*
X608922Y452540D01*
X608456Y454881D01*
X607213Y456742D01*
X607071Y457178D01*
Y457901D01*
X607213Y458338D01*
X608456Y460199D01*
X608922Y462540D01*
X608456Y464881D01*
X607213Y466742D01*
X607071Y467178D01*
Y467901D01*
X607213Y468338D01*
X608456Y470199D01*
X608922Y472540D01*
X608456Y474881D01*
X607130Y476865D01*
X605146Y478191D01*
X602804Y478657D01*
D02*
G37*
G36*
X573385Y482350D02*
X571044Y481884D01*
X569059Y480558D01*
X567733Y478573D01*
X567267Y476232D01*
X567733Y473891D01*
X568976Y472030D01*
X569118Y471594D01*
Y470871D01*
X568976Y470434D01*
X567733Y468573D01*
X567267Y466232D01*
X567733Y463891D01*
X569059Y461907D01*
X569344Y461716D01*
Y460446D01*
X569059Y460256D01*
X567733Y458271D01*
X567267Y455930D01*
X567733Y453589D01*
X569059Y451604D01*
X569995Y450979D01*
Y449451D01*
X569059Y448826D01*
X567733Y446841D01*
X567267Y444500D01*
X567733Y442159D01*
X569059Y440174D01*
X569995Y439549D01*
Y438021D01*
X569059Y437396D01*
X567733Y435411D01*
X567267Y433070D01*
X567733Y430729D01*
X569059Y428744D01*
X569515Y428440D01*
Y427170D01*
X569059Y426865D01*
X567733Y424881D01*
X567267Y422540D01*
X567733Y420199D01*
X569059Y418214D01*
X571044Y416888D01*
X573385Y416422D01*
X575726Y416888D01*
X577710Y418214D01*
X579037Y420199D01*
X579502Y422540D01*
X579037Y424881D01*
X577710Y426865D01*
X577255Y427170D01*
Y428440D01*
X577710Y428744D01*
X579037Y430729D01*
X579502Y433070D01*
X579037Y435411D01*
X577710Y437396D01*
X576774Y438021D01*
Y439549D01*
X577710Y440174D01*
X579037Y442159D01*
X579502Y444500D01*
X579037Y446841D01*
X577710Y448826D01*
X576774Y449451D01*
Y450979D01*
X577710Y451604D01*
X579037Y453589D01*
X579502Y455930D01*
X579037Y458271D01*
X577710Y460256D01*
X577425Y460446D01*
Y461716D01*
X577710Y461907D01*
X579037Y463891D01*
X579502Y466232D01*
X579037Y468573D01*
X577793Y470434D01*
X577652Y470871D01*
Y471594D01*
X577793Y472030D01*
X579037Y473891D01*
X579502Y476232D01*
X579037Y478573D01*
X577710Y480558D01*
X575726Y481884D01*
X573385Y482350D01*
D02*
G37*
G36*
X417384Y478657D02*
X415043Y478191D01*
X413059Y476865D01*
X411733Y474881D01*
X411267Y472540D01*
X411733Y470199D01*
X412976Y468338D01*
X413117Y467901D01*
Y467178D01*
X412976Y466742D01*
X411733Y464881D01*
X411267Y462540D01*
X411733Y460199D01*
X412976Y458338D01*
X413117Y457901D01*
Y457178D01*
X412976Y456742D01*
X411733Y454881D01*
X411267Y452540D01*
X411733Y450199D01*
X412976Y448338D01*
X413117Y447901D01*
Y447178D01*
X412976Y446742D01*
X411733Y444881D01*
X411267Y442540D01*
X411733Y440199D01*
X412976Y438338D01*
X413117Y437901D01*
Y437178D01*
X412976Y436742D01*
X411733Y434881D01*
X411267Y432540D01*
X411733Y430199D01*
X412976Y428338D01*
X413117Y427901D01*
Y427178D01*
X412976Y426742D01*
X411733Y424881D01*
X411267Y422540D01*
X411733Y420199D01*
X413059Y418214D01*
X415043Y416888D01*
X417384Y416422D01*
X419726Y416888D01*
X421710Y418214D01*
X423036Y420199D01*
X423502Y422540D01*
X423036Y424881D01*
X421793Y426742D01*
X421651Y427178D01*
Y427901D01*
X421793Y428338D01*
X423036Y430199D01*
X423502Y432540D01*
X423036Y434881D01*
X421793Y436742D01*
X421651Y437178D01*
Y437901D01*
X421793Y438338D01*
X423036Y440199D01*
X423502Y442540D01*
X423036Y444881D01*
X421793Y446742D01*
X421651Y447178D01*
Y447901D01*
X421793Y448338D01*
X423036Y450199D01*
X423502Y452540D01*
X423036Y454881D01*
X421793Y456742D01*
X421651Y457178D01*
Y457901D01*
X421793Y458338D01*
X423036Y460199D01*
X423502Y462540D01*
X423036Y464881D01*
X421793Y466742D01*
X421651Y467178D01*
Y467901D01*
X421793Y468338D01*
X423036Y470199D01*
X423502Y472540D01*
X423036Y474881D01*
X421710Y476865D01*
X419726Y478191D01*
X417384Y478657D01*
D02*
G37*
G36*
X944225Y482350D02*
X941884Y481884D01*
X939899Y480558D01*
X938573Y478573D01*
X938107Y476232D01*
X938573Y473891D01*
X939816Y472030D01*
X939958Y471594D01*
Y470871D01*
X939816Y470434D01*
X938573Y468573D01*
X938107Y466232D01*
X938573Y463891D01*
X939899Y461907D01*
X940184Y461716D01*
Y460446D01*
X939899Y460256D01*
X938573Y458271D01*
X938107Y455930D01*
X938573Y453589D01*
X939899Y451604D01*
X940835Y450979D01*
Y449451D01*
X939899Y448826D01*
X938573Y446841D01*
X938107Y444500D01*
X938573Y442159D01*
X939899Y440174D01*
X940835Y439549D01*
Y438021D01*
X939899Y437396D01*
X938573Y435411D01*
X938107Y433070D01*
X938573Y430729D01*
X939899Y428744D01*
X940355Y428440D01*
Y427170D01*
X939899Y426865D01*
X938573Y424881D01*
X938107Y422540D01*
X938573Y420199D01*
X939899Y418214D01*
X941884Y416888D01*
X944225Y416422D01*
X946566Y416888D01*
X948550Y418214D01*
X949877Y420199D01*
X950342Y422540D01*
X949877Y424881D01*
X948550Y426865D01*
X948095Y427170D01*
Y428440D01*
X948550Y428744D01*
X949877Y430729D01*
X950342Y433070D01*
X949877Y435411D01*
X948550Y437396D01*
X947614Y438021D01*
Y439549D01*
X948550Y440174D01*
X949877Y442159D01*
X950342Y444500D01*
X949877Y446841D01*
X948550Y448826D01*
X947614Y449451D01*
Y450979D01*
X948550Y451604D01*
X949877Y453589D01*
X950342Y455930D01*
X949877Y458271D01*
X948550Y460256D01*
X948266Y460446D01*
Y461716D01*
X948550Y461907D01*
X949877Y463891D01*
X950342Y466232D01*
X949877Y468573D01*
X948633Y470434D01*
X948492Y470871D01*
Y471594D01*
X948633Y472030D01*
X949877Y473891D01*
X950342Y476232D01*
X949877Y478573D01*
X948550Y480558D01*
X946566Y481884D01*
X944225Y482350D01*
D02*
G37*
G36*
X788224Y478657D02*
X785883Y478191D01*
X783899Y476865D01*
X782573Y474881D01*
X782107Y472540D01*
X782573Y470199D01*
X783816Y468338D01*
X783958Y467901D01*
Y467178D01*
X783816Y466742D01*
X782573Y464881D01*
X782107Y462540D01*
X782573Y460199D01*
X783816Y458338D01*
X783958Y457901D01*
Y457178D01*
X783816Y456742D01*
X782573Y454881D01*
X782107Y452540D01*
X782573Y450199D01*
X783816Y448338D01*
X783958Y447901D01*
Y447178D01*
X783816Y446742D01*
X782573Y444881D01*
X782107Y442540D01*
X782573Y440199D01*
X783816Y438338D01*
X783958Y437901D01*
Y437178D01*
X783816Y436742D01*
X782573Y434881D01*
X782107Y432540D01*
X782573Y430199D01*
X783816Y428338D01*
X783958Y427901D01*
Y427178D01*
X783816Y426742D01*
X782573Y424881D01*
X782107Y422540D01*
X782573Y420199D01*
X783899Y418214D01*
X785883Y416888D01*
X788224Y416422D01*
X790566Y416888D01*
X792550Y418214D01*
X793876Y420199D01*
X794342Y422540D01*
X793876Y424881D01*
X792633Y426742D01*
X792492Y427178D01*
Y427901D01*
X792633Y428338D01*
X793876Y430199D01*
X794342Y432540D01*
X793876Y434881D01*
X792633Y436742D01*
X792492Y437178D01*
Y437901D01*
X792633Y438338D01*
X793876Y440199D01*
X794342Y442540D01*
X793876Y444881D01*
X792633Y446742D01*
X792492Y447178D01*
Y447901D01*
X792633Y448338D01*
X793876Y450199D01*
X794342Y452540D01*
X793876Y454881D01*
X792633Y456742D01*
X792492Y457178D01*
Y457901D01*
X792633Y458338D01*
X793876Y460199D01*
X794342Y462540D01*
X793876Y464881D01*
X792633Y466742D01*
X792492Y467178D01*
Y467901D01*
X792633Y468338D01*
X793876Y470199D01*
X794342Y472540D01*
X793876Y474881D01*
X792550Y476865D01*
X790566Y478191D01*
X788224Y478657D01*
D02*
G37*
G36*
X758805Y482350D02*
X756464Y481884D01*
X754479Y480558D01*
X753153Y478573D01*
X752687Y476232D01*
X753153Y473891D01*
X754396Y472030D01*
X754538Y471594D01*
Y470871D01*
X754396Y470434D01*
X753153Y468573D01*
X752687Y466232D01*
X753153Y463891D01*
X754479Y461907D01*
X754764Y461716D01*
Y460446D01*
X754479Y460256D01*
X753153Y458271D01*
X752687Y455930D01*
X753153Y453589D01*
X754479Y451604D01*
X755415Y450979D01*
Y449451D01*
X754479Y448826D01*
X753153Y446841D01*
X752687Y444500D01*
X753153Y442159D01*
X754479Y440174D01*
X755415Y439549D01*
Y438021D01*
X754479Y437396D01*
X753153Y435411D01*
X752687Y433070D01*
X753153Y430729D01*
X754479Y428744D01*
X754934Y428440D01*
Y427170D01*
X754479Y426865D01*
X753153Y424881D01*
X752687Y422540D01*
X753153Y420199D01*
X754479Y418214D01*
X756464Y416888D01*
X758805Y416422D01*
X761146Y416888D01*
X763130Y418214D01*
X764457Y420199D01*
X764922Y422540D01*
X764457Y424881D01*
X763130Y426865D01*
X762675Y427170D01*
Y428440D01*
X763130Y428744D01*
X764457Y430729D01*
X764922Y433070D01*
X764457Y435411D01*
X763130Y437396D01*
X762194Y438021D01*
Y439549D01*
X763130Y440174D01*
X764457Y442159D01*
X764922Y444500D01*
X764457Y446841D01*
X763130Y448826D01*
X762194Y449451D01*
Y450979D01*
X763130Y451604D01*
X764457Y453589D01*
X764922Y455930D01*
X764457Y458271D01*
X763130Y460256D01*
X762846Y460446D01*
Y461716D01*
X763130Y461907D01*
X764457Y463891D01*
X764922Y466232D01*
X764457Y468573D01*
X763213Y470434D01*
X763072Y470871D01*
Y471594D01*
X763213Y472030D01*
X764457Y473891D01*
X764922Y476232D01*
X764457Y478573D01*
X763130Y480558D01*
X761146Y481884D01*
X758805Y482350D01*
D02*
G37*
G36*
X334602Y514411D02*
X332651Y514023D01*
X330997Y512918D01*
X330969Y512875D01*
X329995D01*
X328341Y513980D01*
X326390Y514368D01*
X324439Y513980D01*
X323119Y513097D01*
X322262Y512959D01*
X321407Y513097D01*
X320086Y513980D01*
X318135Y514368D01*
X316184Y513980D01*
X314530Y512875D01*
X313425Y511221D01*
X313037Y509270D01*
X313425Y507319D01*
X314530Y505665D01*
X316184Y504560D01*
X318135Y504172D01*
X320086Y504560D01*
X321407Y505443D01*
X322262Y505581D01*
X323119Y505443D01*
X324439Y504560D01*
X326390Y504172D01*
X328341Y504560D01*
X329995Y505665D01*
X330023Y505708D01*
X330997D01*
X332651Y504603D01*
X334602Y504215D01*
X336553Y504603D01*
X338207Y505708D01*
X339312Y507362D01*
X339700Y509313D01*
X339312Y511264D01*
X338207Y512918D01*
X336553Y514023D01*
X334602Y514411D01*
D02*
G37*
G36*
X223181Y585430D02*
X214510D01*
Y576758D01*
X215870Y576937D01*
X218303Y577945D01*
X220392Y579548D01*
X221995Y581637D01*
X223002Y584069D01*
X223181Y585430D01*
D02*
G37*
G36*
X212010D02*
X203338D01*
X203517Y584069D01*
X204525Y581637D01*
X206128Y579548D01*
X208216Y577945D01*
X210649Y576937D01*
X212010Y576758D01*
Y585430D01*
D02*
G37*
G36*
X904139Y570862D02*
X901659Y570535D01*
X899348Y569578D01*
X897364Y568055D01*
X895841Y566071D01*
X894884Y563760D01*
X894557Y561280D01*
X894884Y558800D01*
X895841Y556489D01*
X897364Y554504D01*
X899348Y552982D01*
X901659Y552024D01*
X904139Y551698D01*
X906619Y552024D01*
X908930Y552982D01*
X910915Y554504D01*
X912438Y556489D01*
X913395Y558800D01*
X913721Y561280D01*
X913395Y563760D01*
X912438Y566071D01*
X910915Y568055D01*
X908930Y569578D01*
X906619Y570535D01*
X904139Y570862D01*
D02*
G37*
G36*
X582850Y585430D02*
X574178D01*
X574357Y584069D01*
X575365Y581637D01*
X576968Y579548D01*
X579057Y577945D01*
X581489Y576937D01*
X582850Y576758D01*
Y585430D01*
D02*
G37*
G36*
X408601D02*
X399930D01*
Y576758D01*
X401290Y576937D01*
X403723Y577945D01*
X405812Y579548D01*
X407415Y581637D01*
X408422Y584069D01*
X408601Y585430D01*
D02*
G37*
G36*
X397430D02*
X388758D01*
X388937Y584069D01*
X389945Y581637D01*
X391548Y579548D01*
X393637Y577945D01*
X396069Y576937D01*
X397430Y576758D01*
Y585430D01*
D02*
G37*
G36*
X718719Y570862D02*
X716239Y570535D01*
X713928Y569578D01*
X711944Y568055D01*
X710421Y566071D01*
X709464Y563760D01*
X709137Y561280D01*
X709464Y558800D01*
X710421Y556489D01*
X711944Y554504D01*
X713928Y552982D01*
X716239Y552024D01*
X718719Y551698D01*
X721199Y552024D01*
X723510Y552982D01*
X725495Y554504D01*
X727018Y556489D01*
X727975Y558800D01*
X728301Y561280D01*
X727975Y563760D01*
X727018Y566071D01*
X725495Y568055D01*
X723510Y569578D01*
X721199Y570535D01*
X718719Y570862D01*
D02*
G37*
G36*
X693319D02*
X690839Y570535D01*
X688528Y569578D01*
X686544Y568055D01*
X685021Y566071D01*
X684064Y563760D01*
X683737Y561280D01*
X684064Y558800D01*
X685021Y556489D01*
X686544Y554504D01*
X688528Y552982D01*
X690839Y552024D01*
X693319Y551698D01*
X695799Y552024D01*
X698110Y552982D01*
X700095Y554504D01*
X701618Y556489D01*
X702575Y558800D01*
X702901Y561280D01*
X702575Y563760D01*
X701618Y566071D01*
X700095Y568055D01*
X698110Y569578D01*
X695799Y570535D01*
X693319Y570862D01*
D02*
G37*
G36*
X667919D02*
X665439Y570535D01*
X663128Y569578D01*
X661144Y568055D01*
X659621Y566071D01*
X658664Y563760D01*
X658337Y561280D01*
X658664Y558800D01*
X659621Y556489D01*
X661144Y554504D01*
X663128Y552982D01*
X665439Y552024D01*
X667919Y551698D01*
X670399Y552024D01*
X672710Y552982D01*
X674695Y554504D01*
X676218Y556489D01*
X677175Y558800D01*
X677501Y561280D01*
X677175Y563760D01*
X676218Y566071D01*
X674695Y568055D01*
X672710Y569578D01*
X670399Y570535D01*
X667919Y570862D01*
D02*
G37*
G36*
X878739D02*
X876259Y570535D01*
X873948Y569578D01*
X871964Y568055D01*
X870441Y566071D01*
X869484Y563760D01*
X869157Y561280D01*
X869484Y558800D01*
X870441Y556489D01*
X871964Y554504D01*
X873948Y552982D01*
X876259Y552024D01*
X878739Y551698D01*
X881219Y552024D01*
X883530Y552982D01*
X885515Y554504D01*
X887038Y556489D01*
X887995Y558800D01*
X888321Y561280D01*
X887995Y563760D01*
X887038Y566071D01*
X885515Y568055D01*
X883530Y569578D01*
X881219Y570535D01*
X878739Y570862D01*
D02*
G37*
G36*
X853339D02*
X850859Y570535D01*
X848548Y569578D01*
X846564Y568055D01*
X845041Y566071D01*
X844084Y563760D01*
X843757Y561280D01*
X844084Y558800D01*
X845041Y556489D01*
X846564Y554504D01*
X848548Y552982D01*
X850859Y552024D01*
X853339Y551698D01*
X855819Y552024D01*
X858130Y552982D01*
X860115Y554504D01*
X861638Y556489D01*
X862595Y558800D01*
X862921Y561280D01*
X862595Y563760D01*
X861638Y566071D01*
X860115Y568055D01*
X858130Y569578D01*
X855819Y570535D01*
X853339Y570862D01*
D02*
G37*
G36*
X827939D02*
X825459Y570535D01*
X823148Y569578D01*
X821164Y568055D01*
X819641Y566071D01*
X818684Y563760D01*
X818357Y561280D01*
X818684Y558800D01*
X819641Y556489D01*
X821164Y554504D01*
X823148Y552982D01*
X825459Y552024D01*
X827939Y551698D01*
X830419Y552024D01*
X832730Y552982D01*
X834715Y554504D01*
X836238Y556489D01*
X837195Y558800D01*
X837521Y561280D01*
X837195Y563760D01*
X836238Y566071D01*
X834715Y568055D01*
X832730Y569578D01*
X830419Y570535D01*
X827939Y570862D01*
D02*
G37*
G36*
X542799Y596180D02*
X523799D01*
Y577180D01*
X542799D01*
Y596180D01*
D02*
G37*
G36*
X357379D02*
X338379D01*
Y577180D01*
X357379D01*
Y596180D01*
D02*
G37*
G36*
X171959D02*
X152959D01*
Y577180D01*
X171959D01*
Y596180D01*
D02*
G37*
G36*
X913639D02*
X894639D01*
Y577180D01*
X913639D01*
Y596180D01*
D02*
G37*
G36*
X753619D02*
X734619D01*
Y577180D01*
X753619D01*
Y596180D01*
D02*
G37*
G36*
X728219D02*
X709219D01*
Y577180D01*
X728219D01*
Y596180D01*
D02*
G37*
G36*
X779441Y585430D02*
X770769D01*
Y576758D01*
X772130Y576937D01*
X774563Y577945D01*
X776652Y579548D01*
X778254Y581637D01*
X779262Y584069D01*
X779441Y585430D01*
D02*
G37*
G36*
X768269D02*
X759598D01*
X759777Y584069D01*
X760785Y581637D01*
X762387Y579548D01*
X764476Y577945D01*
X766909Y576937D01*
X768269Y576758D01*
Y585430D01*
D02*
G37*
G36*
X594021Y585430D02*
X585350D01*
Y576758D01*
X586710Y576937D01*
X589143Y577945D01*
X591232Y579548D01*
X592835Y581637D01*
X593842Y584069D01*
X594021Y585430D01*
D02*
G37*
G36*
X568200Y596180D02*
X549200D01*
Y577180D01*
X568200D01*
Y596180D01*
D02*
G37*
G36*
X382780D02*
X363780D01*
Y577180D01*
X382780D01*
Y596180D01*
D02*
G37*
G36*
X197360D02*
X178360D01*
Y577180D01*
X197360D01*
Y596180D01*
D02*
G37*
G36*
X642519Y570862D02*
X640039Y570535D01*
X637728Y569578D01*
X635744Y568055D01*
X634221Y566071D01*
X633264Y563760D01*
X632938Y561280D01*
X633264Y558800D01*
X634221Y556489D01*
X635744Y554504D01*
X637728Y552982D01*
X640039Y552024D01*
X642519Y551698D01*
X644999Y552024D01*
X647310Y552982D01*
X649295Y554504D01*
X650818Y556489D01*
X651775Y558800D01*
X652101Y561280D01*
X651775Y563760D01*
X650818Y566071D01*
X649295Y568055D01*
X647310Y569578D01*
X644999Y570535D01*
X642519Y570862D01*
D02*
G37*
G36*
X832260Y546118D02*
X830309Y545730D01*
X828655Y544624D01*
X827550Y542971D01*
X827162Y541020D01*
X827550Y539069D01*
X828655Y537415D01*
X830309Y536310D01*
X832260Y535922D01*
X834211Y536310D01*
X835864Y537415D01*
X836970Y539069D01*
X837358Y541020D01*
X836970Y542971D01*
X835864Y544624D01*
X834211Y545730D01*
X832260Y546118D01*
D02*
G37*
G36*
X99060Y543578D02*
X97109Y543190D01*
X95455Y542085D01*
X94350Y540431D01*
X93962Y538480D01*
X94350Y536529D01*
X95455Y534875D01*
X97109Y533770D01*
X99060Y533382D01*
X101011Y533770D01*
X102665Y534875D01*
X103770Y536529D01*
X104158Y538480D01*
X103770Y540431D01*
X102665Y542085D01*
X101011Y543190D01*
X99060Y543578D01*
D02*
G37*
G36*
X773420Y541098D02*
X771469Y540710D01*
X769815Y539604D01*
X768710Y537951D01*
X768322Y536000D01*
X768710Y534049D01*
X769815Y532395D01*
X771469Y531290D01*
X773420Y530902D01*
X775371Y531290D01*
X777025Y532395D01*
X778130Y534049D01*
X778518Y536000D01*
X778130Y537951D01*
X777025Y539604D01*
X775371Y540710D01*
X773420Y541098D01*
D02*
G37*
G36*
X646840Y549098D02*
X644889Y548710D01*
X643235Y547604D01*
X642130Y545951D01*
X641742Y544000D01*
X642130Y542049D01*
X643235Y540395D01*
X644889Y539290D01*
X646840Y538902D01*
X648791Y539290D01*
X650444Y540395D01*
X651550Y542049D01*
X651938Y544000D01*
X651550Y545951D01*
X650444Y547604D01*
X648791Y548710D01*
X646840Y549098D01*
D02*
G37*
G36*
X461420D02*
X459469Y548710D01*
X457815Y547604D01*
X456710Y545951D01*
X456322Y544000D01*
X456710Y542049D01*
X457815Y540395D01*
X459469Y539290D01*
X461420Y538902D01*
X463371Y539290D01*
X465024Y540395D01*
X466130Y542049D01*
X466518Y544000D01*
X466130Y545951D01*
X465024Y547604D01*
X463371Y548710D01*
X461420Y549098D01*
D02*
G37*
G36*
X276000D02*
X274049Y548710D01*
X272395Y547604D01*
X271290Y545951D01*
X270902Y544000D01*
X271290Y542049D01*
X272395Y540395D01*
X274049Y539290D01*
X276000Y538902D01*
X277951Y539290D01*
X279604Y540395D01*
X280710Y542049D01*
X281098Y544000D01*
X280710Y545951D01*
X279604Y547604D01*
X277951Y548710D01*
X276000Y549098D01*
D02*
G37*
G36*
X890862Y514411D02*
X888911Y514023D01*
X887600Y513147D01*
X886808Y512987D01*
X885872Y513131D01*
X884601Y513980D01*
X882650Y514368D01*
X880699Y513980D01*
X879045Y512875D01*
X878000D01*
X876346Y513980D01*
X874395Y514368D01*
X872444Y513980D01*
X870790Y512875D01*
X869685Y511221D01*
X869297Y509270D01*
X869685Y507319D01*
X870790Y505665D01*
X872444Y504560D01*
X874395Y504172D01*
X876346Y504560D01*
X877666Y505443D01*
X878522Y505581D01*
X879379Y505443D01*
X880699Y504560D01*
X882650Y504172D01*
X884601Y504560D01*
X886255Y505665D01*
X886283Y505708D01*
X887257D01*
X888911Y504603D01*
X890862Y504215D01*
X892813Y504603D01*
X894467Y505708D01*
X895572Y507362D01*
X895960Y509313D01*
X895572Y511264D01*
X894467Y512918D01*
X892813Y514023D01*
X890862Y514411D01*
D02*
G37*
G36*
X705442D02*
X703491Y514023D01*
X701837Y512918D01*
X701808Y512875D01*
X700835D01*
X699181Y513980D01*
X697230Y514368D01*
X695279Y513980D01*
X693959Y513097D01*
X693102Y512959D01*
X692246Y513097D01*
X690926Y513980D01*
X688975Y514368D01*
X687024Y513980D01*
X685370Y512875D01*
X684265Y511221D01*
X683877Y509270D01*
X684265Y507319D01*
X685370Y505665D01*
X687024Y504560D01*
X688975Y504172D01*
X690926Y504560D01*
X692246Y505443D01*
X693102Y505581D01*
X693959Y505443D01*
X695279Y504560D01*
X697230Y504172D01*
X699181Y504560D01*
X700835Y505665D01*
X700863Y505708D01*
X701837D01*
X703491Y504603D01*
X705442Y504215D01*
X707393Y504603D01*
X709047Y505708D01*
X710152Y507362D01*
X710540Y509313D01*
X710152Y511264D01*
X709047Y512918D01*
X707393Y514023D01*
X705442Y514411D01*
D02*
G37*
G36*
X520022D02*
X518071Y514023D01*
X516417Y512918D01*
X516389Y512875D01*
X515415D01*
X513761Y513980D01*
X511810Y514368D01*
X509859Y513980D01*
X508539Y513097D01*
X507682Y512959D01*
X506827Y513097D01*
X505506Y513980D01*
X503555Y514368D01*
X501604Y513980D01*
X499950Y512875D01*
X498845Y511221D01*
X498457Y509270D01*
X498845Y507319D01*
X499950Y505665D01*
X501604Y504560D01*
X503555Y504172D01*
X505506Y504560D01*
X506827Y505443D01*
X507682Y505581D01*
X508539Y505443D01*
X509859Y504560D01*
X511810Y504172D01*
X513761Y504560D01*
X515415Y505665D01*
X515443Y505708D01*
X516417D01*
X518071Y504603D01*
X520022Y504215D01*
X521973Y504603D01*
X523627Y505708D01*
X524732Y507362D01*
X525120Y509313D01*
X524732Y511264D01*
X523627Y512918D01*
X521973Y514023D01*
X520022Y514411D01*
D02*
G37*
G36*
X588000Y541098D02*
X586049Y540710D01*
X584395Y539604D01*
X583290Y537951D01*
X582902Y536000D01*
X583290Y534049D01*
X584395Y532395D01*
X586049Y531290D01*
X588000Y530902D01*
X589951Y531290D01*
X591604Y532395D01*
X592710Y534049D01*
X593098Y536000D01*
X592710Y537951D01*
X591604Y539604D01*
X589951Y540710D01*
X588000Y541098D01*
D02*
G37*
G36*
X402500D02*
X400549Y540710D01*
X398895Y539604D01*
X397790Y537951D01*
X397402Y536000D01*
X397790Y534049D01*
X398895Y532395D01*
X400549Y531290D01*
X402500Y530902D01*
X404451Y531290D01*
X406105Y532395D01*
X407210Y534049D01*
X407598Y536000D01*
X407210Y537951D01*
X406105Y539604D01*
X404451Y540710D01*
X402500Y541098D01*
D02*
G37*
G36*
X217000D02*
X215049Y540710D01*
X213395Y539604D01*
X212290Y537951D01*
X211902Y536000D01*
X212290Y534049D01*
X213395Y532395D01*
X215049Y531290D01*
X217000Y530902D01*
X218951Y531290D01*
X220604Y532395D01*
X221710Y534049D01*
X222098Y536000D01*
X221710Y537951D01*
X220604Y539604D01*
X218951Y540710D01*
X217000Y541098D01*
D02*
G37*
G36*
X457099Y570862D02*
X454619Y570535D01*
X452308Y569578D01*
X450324Y568055D01*
X448801Y566071D01*
X447844Y563760D01*
X447518Y561280D01*
X447844Y558800D01*
X448801Y556489D01*
X450324Y554504D01*
X452308Y552982D01*
X454619Y552024D01*
X457099Y551698D01*
X459579Y552024D01*
X461890Y552982D01*
X463875Y554504D01*
X465398Y556489D01*
X466355Y558800D01*
X466681Y561280D01*
X466355Y563760D01*
X465398Y566071D01*
X463875Y568055D01*
X461890Y569578D01*
X459579Y570535D01*
X457099Y570862D01*
D02*
G37*
G36*
X347879D02*
X345399Y570535D01*
X343088Y569578D01*
X341104Y568055D01*
X339581Y566071D01*
X338624Y563760D01*
X338298Y561280D01*
X338624Y558800D01*
X339581Y556489D01*
X341104Y554504D01*
X343088Y552982D01*
X345399Y552024D01*
X347879Y551698D01*
X350359Y552024D01*
X352670Y552982D01*
X354655Y554504D01*
X356178Y556489D01*
X357135Y558800D01*
X357461Y561280D01*
X357135Y563760D01*
X356178Y566071D01*
X354655Y568055D01*
X352670Y569578D01*
X350359Y570535D01*
X347879Y570862D01*
D02*
G37*
G36*
X322479D02*
X319999Y570535D01*
X317688Y569578D01*
X315704Y568055D01*
X314181Y566071D01*
X313224Y563760D01*
X312897Y561280D01*
X313224Y558800D01*
X314181Y556489D01*
X315704Y554504D01*
X317688Y552982D01*
X319999Y552024D01*
X322479Y551698D01*
X324959Y552024D01*
X327270Y552982D01*
X329255Y554504D01*
X330778Y556489D01*
X331735Y558800D01*
X332061Y561280D01*
X331735Y563760D01*
X330778Y566071D01*
X329255Y568055D01*
X327270Y569578D01*
X324959Y570535D01*
X322479Y570862D01*
D02*
G37*
G36*
X533299D02*
X530819Y570535D01*
X528508Y569578D01*
X526524Y568055D01*
X525001Y566071D01*
X524044Y563760D01*
X523717Y561280D01*
X524044Y558800D01*
X525001Y556489D01*
X526524Y554504D01*
X528508Y552982D01*
X530819Y552024D01*
X533299Y551698D01*
X535779Y552024D01*
X538090Y552982D01*
X540075Y554504D01*
X541598Y556489D01*
X542555Y558800D01*
X542881Y561280D01*
X542555Y563760D01*
X541598Y566071D01*
X540075Y568055D01*
X538090Y569578D01*
X535779Y570535D01*
X533299Y570862D01*
D02*
G37*
G36*
X507899D02*
X505419Y570535D01*
X503108Y569578D01*
X501124Y568055D01*
X499601Y566071D01*
X498644Y563760D01*
X498317Y561280D01*
X498644Y558800D01*
X499601Y556489D01*
X501124Y554504D01*
X503108Y552982D01*
X505419Y552024D01*
X507899Y551698D01*
X510379Y552024D01*
X512690Y552982D01*
X514675Y554504D01*
X516198Y556489D01*
X517155Y558800D01*
X517481Y561280D01*
X517155Y563760D01*
X516198Y566071D01*
X514675Y568055D01*
X512690Y569578D01*
X510379Y570535D01*
X507899Y570862D01*
D02*
G37*
G36*
X482499D02*
X480019Y570535D01*
X477708Y569578D01*
X475724Y568055D01*
X474201Y566071D01*
X473244Y563760D01*
X472918Y561280D01*
X473244Y558800D01*
X474201Y556489D01*
X475724Y554504D01*
X477708Y552982D01*
X480019Y552024D01*
X482499Y551698D01*
X484979Y552024D01*
X487290Y552982D01*
X489275Y554504D01*
X490798Y556489D01*
X491755Y558800D01*
X492081Y561280D01*
X491755Y563760D01*
X490798Y566071D01*
X489275Y568055D01*
X487290Y569578D01*
X484979Y570535D01*
X482499Y570862D01*
D02*
G37*
G36*
X137059D02*
X134579Y570535D01*
X132268Y569578D01*
X130284Y568055D01*
X128761Y566071D01*
X127804Y563760D01*
X127478Y561280D01*
X127804Y558800D01*
X128761Y556489D01*
X130284Y554504D01*
X132268Y552982D01*
X134579Y552024D01*
X137059Y551698D01*
X139539Y552024D01*
X141850Y552982D01*
X143835Y554504D01*
X145358Y556489D01*
X146315Y558800D01*
X146641Y561280D01*
X146315Y563760D01*
X145358Y566071D01*
X143835Y568055D01*
X141850Y569578D01*
X139539Y570535D01*
X137059Y570862D01*
D02*
G37*
G36*
X111659D02*
X109179Y570535D01*
X106868Y569578D01*
X104884Y568055D01*
X103361Y566071D01*
X102404Y563760D01*
X102078Y561280D01*
X102404Y558800D01*
X103361Y556489D01*
X104884Y554504D01*
X106868Y552982D01*
X109179Y552024D01*
X111659Y551698D01*
X114139Y552024D01*
X116450Y552982D01*
X118435Y554504D01*
X119958Y556489D01*
X120915Y558800D01*
X121241Y561280D01*
X120915Y563760D01*
X119958Y566071D01*
X118435Y568055D01*
X116450Y569578D01*
X114139Y570535D01*
X111659Y570862D01*
D02*
G37*
G36*
X86259D02*
X83779Y570535D01*
X81468Y569578D01*
X79484Y568055D01*
X77961Y566071D01*
X77004Y563760D01*
X76677Y561280D01*
X77004Y558800D01*
X77961Y556489D01*
X79484Y554504D01*
X81468Y552982D01*
X83779Y552024D01*
X86259Y551698D01*
X88739Y552024D01*
X91050Y552982D01*
X93035Y554504D01*
X94558Y556489D01*
X95515Y558800D01*
X95841Y561280D01*
X95515Y563760D01*
X94558Y566071D01*
X93035Y568055D01*
X91050Y569578D01*
X88739Y570535D01*
X86259Y570862D01*
D02*
G37*
G36*
X297079D02*
X294599Y570535D01*
X292288Y569578D01*
X290304Y568055D01*
X288781Y566071D01*
X287824Y563760D01*
X287498Y561280D01*
X287824Y558800D01*
X288781Y556489D01*
X290304Y554504D01*
X292288Y552982D01*
X294599Y552024D01*
X297079Y551698D01*
X299559Y552024D01*
X301870Y552982D01*
X303855Y554504D01*
X305378Y556489D01*
X306335Y558800D01*
X306661Y561280D01*
X306335Y563760D01*
X305378Y566071D01*
X303855Y568055D01*
X301870Y569578D01*
X299559Y570535D01*
X297079Y570862D01*
D02*
G37*
G36*
X271679D02*
X269199Y570535D01*
X266888Y569578D01*
X264904Y568055D01*
X263381Y566071D01*
X262424Y563760D01*
X262097Y561280D01*
X262424Y558800D01*
X263381Y556489D01*
X264904Y554504D01*
X266888Y552982D01*
X269199Y552024D01*
X271679Y551698D01*
X274159Y552024D01*
X276470Y552982D01*
X278455Y554504D01*
X279978Y556489D01*
X280935Y558800D01*
X281261Y561280D01*
X280935Y563760D01*
X279978Y566071D01*
X278455Y568055D01*
X276470Y569578D01*
X274159Y570535D01*
X271679Y570862D01*
D02*
G37*
G36*
X162459D02*
X159979Y570535D01*
X157668Y569578D01*
X155684Y568055D01*
X154161Y566071D01*
X153204Y563760D01*
X152878Y561280D01*
X153204Y558800D01*
X154161Y556489D01*
X155684Y554504D01*
X157668Y552982D01*
X159979Y552024D01*
X162459Y551698D01*
X164939Y552024D01*
X167250Y552982D01*
X169235Y554504D01*
X170758Y556489D01*
X171715Y558800D01*
X172041Y561280D01*
X171715Y563760D01*
X170758Y566071D01*
X169235Y568055D01*
X167250Y569578D01*
X164939Y570535D01*
X162459Y570862D01*
D02*
G37*
G36*
X117500Y310098D02*
X115549Y309710D01*
X113895Y308605D01*
X112790Y306951D01*
X112402Y305000D01*
X112790Y303049D01*
X113895Y301395D01*
X115549Y300290D01*
X117500Y299902D01*
X119451Y300290D01*
X121105Y301395D01*
X122210Y303049D01*
X122598Y305000D01*
X122210Y306951D01*
X121105Y308605D01*
X119451Y309710D01*
X117500Y310098D01*
D02*
G37*
G36*
X134500Y308598D02*
X132549Y308210D01*
X130895Y307105D01*
X129790Y305451D01*
X129402Y303500D01*
X129790Y301549D01*
X130895Y299895D01*
X132549Y298790D01*
X134500Y298402D01*
X136451Y298790D01*
X138105Y299895D01*
X139210Y301549D01*
X139598Y303500D01*
X139210Y305451D01*
X138105Y307105D01*
X136451Y308210D01*
X134500Y308598D01*
D02*
G37*
G36*
X229000Y304098D02*
X227049Y303710D01*
X225395Y302605D01*
X224290Y300951D01*
X223902Y299000D01*
X223905Y298983D01*
X222757Y298249D01*
X221000Y298598D01*
X219049Y298210D01*
X217395Y297105D01*
X216290Y295451D01*
X215902Y293500D01*
X216290Y291549D01*
X216434Y291334D01*
X216010Y289683D01*
X215145Y289105D01*
X214040Y287451D01*
X213652Y285500D01*
X214040Y283549D01*
X215145Y281895D01*
X216799Y280790D01*
X218750Y280402D01*
X220701Y280790D01*
X222355Y281895D01*
X223460Y283549D01*
X223848Y285500D01*
X223460Y287451D01*
X223316Y287666D01*
X223740Y289317D01*
X224605Y289895D01*
X225710Y291549D01*
X226098Y293500D01*
X226095Y293517D01*
X227243Y294251D01*
X229000Y293902D01*
X230951Y294290D01*
X232605Y295395D01*
X233710Y297049D01*
X234098Y299000D01*
X233710Y300951D01*
X232605Y302605D01*
X230951Y303710D01*
X229000Y304098D01*
D02*
G37*
G36*
X742500Y305598D02*
X740549Y305210D01*
X738895Y304104D01*
X738104D01*
X736451Y305210D01*
X734500Y305598D01*
X732549Y305210D01*
X731404Y304445D01*
X730500Y304208D01*
X729595Y304445D01*
X728451Y305210D01*
X726500Y305598D01*
X724549Y305210D01*
X722895Y304104D01*
X721790Y302451D01*
X721402Y300500D01*
X721790Y298549D01*
X722895Y296895D01*
X724549Y295790D01*
X726500Y295402D01*
X728451Y295790D01*
X729595Y296555D01*
X730500Y296791D01*
X731404Y296555D01*
X732549Y295790D01*
X734500Y295402D01*
X736451Y295790D01*
X737595Y296555D01*
X738500Y296791D01*
X739405Y296555D01*
X740549Y295790D01*
X742500Y295402D01*
X744451Y295790D01*
X746105Y296895D01*
X747210Y298549D01*
X747598Y300500D01*
X747210Y302451D01*
X746105Y304104D01*
X744451Y305210D01*
X742500Y305598D01*
D02*
G37*
G36*
X68500Y312098D02*
X66549Y311710D01*
X64895Y310605D01*
X63790Y308951D01*
X63402Y307000D01*
X63790Y305049D01*
X64895Y303395D01*
X66549Y302290D01*
X68500Y301902D01*
X70451Y302290D01*
X72105Y303395D01*
X73210Y305049D01*
X73598Y307000D01*
X73210Y308951D01*
X72105Y310605D01*
X70451Y311710D01*
X68500Y312098D01*
D02*
G37*
G36*
X98500Y311598D02*
X96549Y311210D01*
X94895Y310105D01*
X93790Y308451D01*
X93402Y306500D01*
X93790Y304549D01*
X94895Y302895D01*
X96549Y301790D01*
X98500Y301402D01*
X100451Y301790D01*
X102105Y302895D01*
X103210Y304549D01*
X103598Y306500D01*
X103210Y308451D01*
X102105Y310105D01*
X100451Y311210D01*
X98500Y311598D01*
D02*
G37*
G36*
X580390Y313112D02*
X577910Y312785D01*
X575599Y311828D01*
X573614Y310305D01*
X572091Y308321D01*
X571134Y306010D01*
X570808Y303530D01*
X571134Y301050D01*
X572091Y298739D01*
X573614Y296754D01*
X575599Y295231D01*
X577910Y294274D01*
X580390Y293948D01*
X582870Y294274D01*
X585181Y295231D01*
X587165Y296754D01*
X588688Y298739D01*
X589645Y301050D01*
X589972Y303530D01*
X589645Y306010D01*
X588688Y308321D01*
X587165Y310305D01*
X585181Y311828D01*
X582870Y312785D01*
X580390Y313112D01*
D02*
G37*
G36*
X494030D02*
X491550Y312785D01*
X489239Y311828D01*
X487254Y310305D01*
X485732Y308321D01*
X484774Y306010D01*
X484448Y303530D01*
X484774Y301050D01*
X485732Y298739D01*
X487254Y296754D01*
X489239Y295231D01*
X491550Y294274D01*
X494030Y293948D01*
X496510Y294274D01*
X498821Y295231D01*
X500805Y296754D01*
X502328Y298739D01*
X503285Y301050D01*
X503612Y303530D01*
X503285Y306010D01*
X502328Y308321D01*
X500805Y310305D01*
X498821Y311828D01*
X496510Y312785D01*
X494030Y313112D01*
D02*
G37*
G36*
X478551Y302280D02*
X469880D01*
Y293608D01*
X471240Y293787D01*
X473673Y294795D01*
X475762Y296398D01*
X477365Y298487D01*
X478372Y300919D01*
X478551Y302280D01*
D02*
G37*
G36*
X640690Y313030D02*
X621690D01*
Y294030D01*
X640690D01*
Y313030D01*
D02*
G37*
G36*
X528930D02*
X509930D01*
Y294030D01*
X528930D01*
Y313030D01*
D02*
G37*
G36*
X605790Y313112D02*
X603310Y312785D01*
X600999Y311828D01*
X599014Y310305D01*
X597491Y308321D01*
X596534Y306010D01*
X596208Y303530D01*
X596534Y301050D01*
X597491Y298739D01*
X599014Y296754D01*
X600999Y295231D01*
X603310Y294274D01*
X605790Y293948D01*
X608270Y294274D01*
X610581Y295231D01*
X612565Y296754D01*
X614088Y298739D01*
X615045Y301050D01*
X615372Y303530D01*
X615045Y306010D01*
X614088Y308321D01*
X612565Y310305D01*
X610581Y311828D01*
X608270Y312785D01*
X605790Y313112D01*
D02*
G37*
G36*
X286000Y320098D02*
X284049Y319710D01*
X282395Y318605D01*
X281290Y316951D01*
X280902Y315000D01*
X281290Y313049D01*
X282395Y311395D01*
X284049Y310290D01*
X286000Y309902D01*
X287951Y310290D01*
X289605Y311395D01*
X290710Y313049D01*
X291098Y315000D01*
X290710Y316951D01*
X289605Y318605D01*
X287951Y319710D01*
X286000Y320098D01*
D02*
G37*
G36*
X984400Y328082D02*
X981920Y327755D01*
X979609Y326798D01*
X977624Y325275D01*
X976102Y323291D01*
X975144Y320980D01*
X974818Y318500D01*
X975144Y316020D01*
X976102Y313709D01*
X977624Y311724D01*
X979609Y310201D01*
X981920Y309244D01*
X984400Y308918D01*
X986880Y309244D01*
X989191Y310201D01*
X991175Y311724D01*
X992698Y313709D01*
X993655Y316020D01*
X993982Y318500D01*
X993655Y320980D01*
X992698Y323291D01*
X991175Y325275D01*
X989191Y326798D01*
X986880Y327755D01*
X984400Y328082D01*
D02*
G37*
G36*
X959000D02*
X956520Y327755D01*
X954209Y326798D01*
X952224Y325275D01*
X950702Y323291D01*
X949744Y320980D01*
X949418Y318500D01*
X949744Y316020D01*
X950702Y313709D01*
X952224Y311724D01*
X954209Y310201D01*
X956520Y309244D01*
X959000Y308918D01*
X961480Y309244D01*
X963791Y310201D01*
X965775Y311724D01*
X967298Y313709D01*
X968255Y316020D01*
X968582Y318500D01*
X968255Y320980D01*
X967298Y323291D01*
X965775Y325275D01*
X963791Y326798D01*
X961480Y327755D01*
X959000Y328082D01*
D02*
G37*
G36*
X247400Y327178D02*
X245449Y326790D01*
X243796Y325685D01*
X242690Y324031D01*
X242302Y322080D01*
X242690Y320129D01*
X243796Y318475D01*
X245449Y317370D01*
X247400Y316982D01*
X249351Y317370D01*
X251005Y318475D01*
X252110Y320129D01*
X252498Y322080D01*
X252110Y324031D01*
X251005Y325685D01*
X249351Y326790D01*
X247400Y327178D01*
D02*
G37*
G36*
X414500Y326098D02*
X412549Y325710D01*
X410895Y324605D01*
X409790Y322951D01*
X409402Y321000D01*
X409790Y319049D01*
X410895Y317395D01*
X412549Y316290D01*
X414500Y315902D01*
X416451Y316290D01*
X418105Y317395D01*
X419210Y319049D01*
X419598Y321000D01*
X419210Y322951D01*
X418105Y324605D01*
X416451Y325710D01*
X414500Y326098D01*
D02*
G37*
G36*
X303000Y322597D02*
X301049Y322209D01*
X299395Y321104D01*
X298290Y319450D01*
X297902Y317499D01*
X298290Y315548D01*
X299395Y313894D01*
X301049Y312789D01*
X303000Y312401D01*
X304951Y312789D01*
X306605Y313894D01*
X307710Y315548D01*
X308098Y317499D01*
X307710Y319450D01*
X306605Y321104D01*
X304951Y322209D01*
X303000Y322597D01*
D02*
G37*
G36*
X790000Y329098D02*
X788049Y328710D01*
X786395Y327605D01*
X785290Y325951D01*
X784902Y324000D01*
X785065Y323181D01*
X784000Y322098D01*
X782049Y321710D01*
X780395Y320605D01*
X779290Y318951D01*
X778902Y317000D01*
X779290Y315049D01*
X780395Y313395D01*
X782049Y312290D01*
X784000Y311902D01*
X785065Y310819D01*
X784902Y310000D01*
X785290Y308049D01*
X786395Y306395D01*
X788049Y305290D01*
X790000Y304902D01*
X791951Y305290D01*
X793605Y306395D01*
X794710Y308049D01*
X795098Y310000D01*
X794710Y311951D01*
X793605Y313605D01*
X791951Y314710D01*
X790000Y315098D01*
X788935Y316181D01*
X789098Y317000D01*
X788935Y317819D01*
X790000Y318902D01*
X791951Y319290D01*
X793605Y320395D01*
X794710Y322049D01*
X795098Y324000D01*
X794710Y325951D01*
X793605Y327605D01*
X791951Y328710D01*
X790000Y329098D01*
D02*
G37*
G36*
X469880Y313451D02*
Y304780D01*
X478551D01*
X478372Y306140D01*
X477365Y308573D01*
X475762Y310662D01*
X473673Y312265D01*
X471240Y313272D01*
X469880Y313451D01*
D02*
G37*
G36*
X467380Y313451D02*
X466019Y313272D01*
X463587Y312265D01*
X461498Y310662D01*
X459895Y308573D01*
X458887Y306140D01*
X458708Y304780D01*
X467380D01*
Y313451D01*
D02*
G37*
G36*
X389000Y309598D02*
X387049Y309210D01*
X385395Y308105D01*
X384290Y306451D01*
X384124Y305617D01*
X382776Y305349D01*
X382605Y305605D01*
X380951Y306710D01*
X379000Y307098D01*
X377049Y306710D01*
X375395Y305605D01*
X374290Y303951D01*
X373902Y302000D01*
X374290Y300049D01*
X375395Y298395D01*
X377049Y297290D01*
X379000Y296902D01*
X380951Y297290D01*
X382605Y298395D01*
X383710Y300049D01*
X383876Y300883D01*
X385224Y301151D01*
X385395Y300895D01*
X387049Y299790D01*
X389000Y299402D01*
X390951Y299790D01*
X392605Y300895D01*
X393710Y302549D01*
X394098Y304500D01*
X393710Y306451D01*
X392605Y308105D01*
X390951Y309210D01*
X389000Y309598D01*
D02*
G37*
G36*
X224500Y315098D02*
X222549Y314710D01*
X220895Y313605D01*
X219790Y311951D01*
X219402Y310000D01*
X219790Y308049D01*
X220895Y306395D01*
X222549Y305290D01*
X224500Y304902D01*
X226451Y305290D01*
X228105Y306395D01*
X229210Y308049D01*
X229598Y310000D01*
X229210Y311951D01*
X228105Y313605D01*
X226451Y314710D01*
X224500Y315098D01*
D02*
G37*
G36*
X855920Y329098D02*
X853969Y328710D01*
X852316Y327605D01*
X851210Y325951D01*
X850822Y324000D01*
X851210Y322049D01*
X852316Y320395D01*
X853969Y319290D01*
X855920Y318902D01*
X856985Y317819D01*
X856822Y317000D01*
X856985Y316181D01*
X855920Y315098D01*
X853969Y314710D01*
X852316Y313605D01*
X851210Y311951D01*
X850822Y310000D01*
X851210Y308049D01*
X852316Y306395D01*
X853969Y305290D01*
X855920Y304902D01*
X857871Y305290D01*
X859525Y306395D01*
X860630Y308049D01*
X861018Y310000D01*
X860855Y310819D01*
X861920Y311902D01*
X863871Y312290D01*
X865525Y313395D01*
X866630Y315049D01*
X867018Y317000D01*
X866630Y318951D01*
X865525Y320605D01*
X863871Y321710D01*
X861920Y322098D01*
X860855Y323181D01*
X861018Y324000D01*
X860630Y325951D01*
X859525Y327605D01*
X857871Y328710D01*
X855920Y329098D01*
D02*
G37*
G36*
X467380Y302280D02*
X458708D01*
X458887Y300919D01*
X459895Y298487D01*
X461498Y296398D01*
X463587Y294795D01*
X466019Y293787D01*
X467380Y293608D01*
Y302280D01*
D02*
G37*
G36*
X359000Y282598D02*
X357049Y282210D01*
X355395Y281105D01*
X354290Y279451D01*
X353902Y277500D01*
X354290Y275549D01*
X355395Y273895D01*
X357049Y272790D01*
X359000Y272402D01*
X360951Y272790D01*
X362605Y273895D01*
X363710Y275549D01*
X364098Y277500D01*
X363710Y279451D01*
X362605Y281105D01*
X360951Y282210D01*
X359000Y282598D01*
D02*
G37*
G36*
X143500D02*
X141549Y282210D01*
X139895Y281105D01*
X138790Y279451D01*
X138402Y277500D01*
X138790Y275549D01*
X139895Y273895D01*
X141549Y272790D01*
X143500Y272402D01*
X145451Y272790D01*
X147105Y273895D01*
X148210Y275549D01*
X148598Y277500D01*
X148210Y279451D01*
X147105Y281105D01*
X145451Y282210D01*
X143500Y282598D01*
D02*
G37*
G36*
X651000Y323117D02*
X648659Y322652D01*
X646674Y321325D01*
X645348Y319341D01*
X644882Y317000D01*
X645348Y314659D01*
X646591Y312798D01*
X646733Y312362D01*
Y311638D01*
X646591Y311202D01*
X645348Y309341D01*
X644882Y307000D01*
X645348Y304659D01*
X646591Y302798D01*
X646733Y302361D01*
Y301638D01*
X646591Y301202D01*
X645348Y299341D01*
X644882Y297000D01*
X645348Y294659D01*
X646591Y292798D01*
X646733Y292362D01*
Y291638D01*
X646591Y291202D01*
X645348Y289341D01*
X644882Y287000D01*
X645348Y284659D01*
X646591Y282798D01*
X646733Y282362D01*
Y281638D01*
X646591Y281202D01*
X645348Y279341D01*
X644882Y277000D01*
X645348Y274659D01*
X646674Y272674D01*
X648659Y271348D01*
X651000Y270882D01*
X653341Y271348D01*
X655325Y272674D01*
X656652Y274659D01*
X657117Y277000D01*
X656652Y279341D01*
X655408Y281202D01*
X655267Y281638D01*
Y282362D01*
X655408Y282798D01*
X656652Y284659D01*
X657117Y287000D01*
X656652Y289341D01*
X655408Y291202D01*
X655267Y291638D01*
Y292362D01*
X655408Y292798D01*
X656652Y294659D01*
X657117Y297000D01*
X656652Y299341D01*
X655408Y301202D01*
X655267Y301638D01*
Y302361D01*
X655408Y302798D01*
X656652Y304659D01*
X657117Y307000D01*
X656652Y309341D01*
X655408Y311202D01*
X655267Y311638D01*
Y312362D01*
X655408Y312798D01*
X656652Y314659D01*
X657117Y317000D01*
X656652Y319341D01*
X655325Y321325D01*
X653341Y322652D01*
X651000Y323117D01*
D02*
G37*
G36*
X285000Y286598D02*
X283049Y286210D01*
X281395Y285105D01*
X280290Y283451D01*
X279902Y281500D01*
X280290Y279549D01*
X281395Y277895D01*
X283049Y276790D01*
X285000Y276402D01*
X286951Y276790D01*
X288605Y277895D01*
X289710Y279549D01*
X290098Y281500D01*
X289710Y283451D01*
X288605Y285105D01*
X286951Y286210D01*
X285000Y286598D01*
D02*
G37*
G36*
X261500Y284598D02*
X259549Y284210D01*
X257895Y283105D01*
X256790Y281451D01*
X256402Y279500D01*
X256790Y277549D01*
X257895Y275895D01*
X259549Y274790D01*
X261500Y274402D01*
X263451Y274790D01*
X265105Y275895D01*
X266210Y277549D01*
X266598Y279500D01*
X266210Y281451D01*
X265105Y283105D01*
X263451Y284210D01*
X261500Y284598D01*
D02*
G37*
G36*
X326000Y283098D02*
X324049Y282710D01*
X322395Y281605D01*
X321290Y279951D01*
X320902Y278000D01*
X321290Y276049D01*
X321465Y275786D01*
X320881Y274375D01*
X320049Y274210D01*
X318395Y273105D01*
X318301Y272963D01*
X316952Y273232D01*
X316710Y274451D01*
X315605Y276105D01*
X313951Y277210D01*
X312000Y277598D01*
X310049Y277210D01*
X308395Y276105D01*
X307290Y274451D01*
X306902Y272500D01*
X307290Y270549D01*
X308395Y268895D01*
X310049Y267790D01*
X312000Y267402D01*
X313951Y267790D01*
X315605Y268895D01*
X315699Y269037D01*
X317048Y268768D01*
X317290Y267549D01*
X318395Y265895D01*
X320049Y264790D01*
X322000Y264402D01*
X323951Y264790D01*
X325605Y265895D01*
X326710Y267549D01*
X327098Y269500D01*
X326710Y271451D01*
X326534Y271714D01*
X327119Y273125D01*
X327951Y273290D01*
X329605Y274395D01*
X330710Y276049D01*
X331098Y278000D01*
X330710Y279951D01*
X329605Y281605D01*
X327951Y282710D01*
X326000Y283098D01*
D02*
G37*
G36*
X468630Y287712D02*
X466150Y287385D01*
X463839Y286428D01*
X461854Y284905D01*
X460331Y282921D01*
X459374Y280610D01*
X459048Y278130D01*
X459374Y275650D01*
X460331Y273339D01*
X461854Y271354D01*
X463839Y269832D01*
X466150Y268874D01*
X468630Y268548D01*
X471110Y268874D01*
X473421Y269832D01*
X475405Y271354D01*
X476928Y273339D01*
X477885Y275650D01*
X478212Y278130D01*
X477885Y280610D01*
X476928Y282921D01*
X475405Y284905D01*
X473421Y286428D01*
X471110Y287385D01*
X468630Y287712D01*
D02*
G37*
G36*
X641112Y276880D02*
X632440D01*
Y268208D01*
X633800Y268387D01*
X636233Y269395D01*
X638322Y270998D01*
X639925Y273087D01*
X640932Y275519D01*
X641112Y276880D01*
D02*
G37*
G36*
X615712D02*
X607040D01*
Y268208D01*
X608400Y268387D01*
X610833Y269395D01*
X612922Y270998D01*
X614525Y273087D01*
X615532Y275519D01*
X615712Y276880D01*
D02*
G37*
G36*
X445000Y280098D02*
X443049Y279710D01*
X441395Y278605D01*
X440290Y276951D01*
X439902Y275000D01*
X440290Y273049D01*
X441395Y271395D01*
X443049Y270290D01*
X445000Y269902D01*
X446951Y270290D01*
X448605Y271395D01*
X449710Y273049D01*
X450098Y275000D01*
X449710Y276951D01*
X448605Y278605D01*
X446951Y279710D01*
X445000Y280098D01*
D02*
G37*
G36*
X519430Y287712D02*
X516950Y287385D01*
X514639Y286428D01*
X512654Y284905D01*
X511132Y282921D01*
X510174Y280610D01*
X509848Y278130D01*
X510174Y275650D01*
X511132Y273339D01*
X512654Y271354D01*
X514639Y269832D01*
X516950Y268874D01*
X519430Y268548D01*
X521910Y268874D01*
X524221Y269832D01*
X526205Y271354D01*
X527728Y273339D01*
X528685Y275650D01*
X529012Y278130D01*
X528685Y280610D01*
X527728Y282921D01*
X526205Y284905D01*
X524221Y286428D01*
X521910Y287385D01*
X519430Y287712D01*
D02*
G37*
G36*
X494030D02*
X491550Y287385D01*
X489239Y286428D01*
X487254Y284905D01*
X485732Y282921D01*
X484774Y280610D01*
X484448Y278130D01*
X484774Y275650D01*
X485732Y273339D01*
X487254Y271354D01*
X489239Y269832D01*
X491550Y268874D01*
X494030Y268548D01*
X496510Y268874D01*
X498821Y269832D01*
X500805Y271354D01*
X502328Y273339D01*
X503285Y275650D01*
X503612Y278130D01*
X503285Y280610D01*
X502328Y282921D01*
X500805Y284905D01*
X498821Y286428D01*
X496510Y287385D01*
X494030Y287712D01*
D02*
G37*
G36*
X984400Y302682D02*
X981920Y302355D01*
X979609Y301398D01*
X977624Y299875D01*
X976102Y297891D01*
X975144Y295580D01*
X974818Y293100D01*
X975144Y290620D01*
X976102Y288309D01*
X977624Y286324D01*
X979609Y284802D01*
X981920Y283844D01*
X984400Y283518D01*
X986880Y283844D01*
X989191Y284802D01*
X991175Y286324D01*
X992698Y288309D01*
X993655Y290620D01*
X993982Y293100D01*
X993655Y295580D01*
X992698Y297891D01*
X991175Y299875D01*
X989191Y301398D01*
X986880Y302355D01*
X984400Y302682D01*
D02*
G37*
G36*
X959000D02*
X956520Y302355D01*
X954209Y301398D01*
X952224Y299875D01*
X950702Y297891D01*
X949744Y295580D01*
X949418Y293100D01*
X949744Y290620D01*
X950702Y288309D01*
X952224Y286324D01*
X954209Y284802D01*
X956520Y283844D01*
X959000Y283518D01*
X961480Y283844D01*
X963791Y284802D01*
X965775Y286324D01*
X967298Y288309D01*
X968255Y290620D01*
X968582Y293100D01*
X968255Y295580D01*
X967298Y297891D01*
X965775Y299875D01*
X963791Y301398D01*
X961480Y302355D01*
X959000Y302682D01*
D02*
G37*
G36*
X632440Y288051D02*
Y279380D01*
X641111D01*
X640932Y280740D01*
X639925Y283173D01*
X638322Y285262D01*
X636233Y286865D01*
X633800Y287872D01*
X632440Y288051D01*
D02*
G37*
G36*
X447500Y295598D02*
X445549Y295210D01*
X443895Y294105D01*
X442790Y292451D01*
X442402Y290500D01*
X442790Y288549D01*
X443895Y286895D01*
X445549Y285790D01*
X447500Y285402D01*
X449451Y285790D01*
X451105Y286895D01*
X452210Y288549D01*
X452598Y290500D01*
X452210Y292451D01*
X451105Y294105D01*
X449451Y295210D01*
X447500Y295598D01*
D02*
G37*
G36*
X144000Y295597D02*
X142049Y295209D01*
X140395Y294104D01*
X139290Y292450D01*
X138902Y290499D01*
X139290Y288549D01*
X140395Y286895D01*
X142049Y285790D01*
X144000Y285401D01*
X145951Y285790D01*
X147605Y286895D01*
X148710Y288549D01*
X149098Y290499D01*
X148710Y292450D01*
X147605Y294104D01*
X145951Y295209D01*
X144000Y295597D01*
D02*
G37*
G36*
X808000Y295098D02*
X806049Y294710D01*
X804395Y293605D01*
X803290Y291951D01*
X802902Y290000D01*
X803290Y288049D01*
X804395Y286395D01*
X806049Y285290D01*
X808000Y284902D01*
X809951Y285290D01*
X811605Y286395D01*
X812710Y288049D01*
X813098Y290000D01*
X812710Y291951D01*
X811605Y293605D01*
X809951Y294710D01*
X808000Y295098D01*
D02*
G37*
G36*
X579140Y288051D02*
X577779Y287872D01*
X575347Y286865D01*
X573258Y285262D01*
X571655Y283173D01*
X570647Y280740D01*
X570468Y279380D01*
X579140D01*
Y288051D01*
D02*
G37*
G36*
X604540D02*
X603179Y287872D01*
X600747Y286865D01*
X598658Y285262D01*
X597055Y283173D01*
X596047Y280740D01*
X595868Y279380D01*
X604540D01*
Y288051D01*
D02*
G37*
G36*
X100000Y288098D02*
X98049Y287710D01*
X96395Y286605D01*
X95290Y284951D01*
X94902Y283000D01*
X95290Y281049D01*
X96395Y279395D01*
X98049Y278290D01*
X100000Y277902D01*
X101951Y278290D01*
X103605Y279395D01*
X104710Y281049D01*
X105098Y283000D01*
X104710Y284951D01*
X103605Y286605D01*
X101951Y287710D01*
X100000Y288098D01*
D02*
G37*
G36*
X607040Y288051D02*
Y279380D01*
X615711D01*
X615532Y280740D01*
X614525Y283173D01*
X612922Y285262D01*
X610833Y286865D01*
X608400Y287872D01*
X607040Y288051D01*
D02*
G37*
G36*
X581640D02*
Y279380D01*
X590311D01*
X590132Y280740D01*
X589125Y283173D01*
X587522Y285262D01*
X585433Y286865D01*
X583000Y287872D01*
X581640Y288051D01*
D02*
G37*
G36*
X629940Y288051D02*
X628579Y287872D01*
X626147Y286865D01*
X624058Y285262D01*
X622455Y283173D01*
X621447Y280740D01*
X621268Y279380D01*
X629940D01*
Y288051D01*
D02*
G37*
G36*
X212500Y327597D02*
X210549Y327209D01*
X208895Y326104D01*
X207790Y324450D01*
X207402Y322499D01*
X207790Y320549D01*
X208895Y318895D01*
X210549Y317789D01*
X212500Y317401D01*
X214450Y317789D01*
X216104Y318895D01*
X217209Y320549D01*
X217598Y322499D01*
X217209Y324450D01*
X216104Y326104D01*
X214450Y327209D01*
X212500Y327597D01*
D02*
G37*
G36*
X96520Y362642D02*
X94040Y362315D01*
X91729Y361358D01*
X89744Y359835D01*
X89506Y359525D01*
X88097Y359774D01*
X87225Y361079D01*
X85571Y362184D01*
X83620Y362573D01*
X81669Y362184D01*
X80015Y361079D01*
X79329Y360053D01*
X78035Y359856D01*
X77808Y359902D01*
X75911Y361358D01*
X73600Y362315D01*
X71120Y362642D01*
X68640Y362315D01*
X66329Y361358D01*
X64344Y359835D01*
X62821Y357851D01*
X61864Y355540D01*
X61538Y353060D01*
X61864Y350580D01*
X62821Y348269D01*
X64344Y346284D01*
X66329Y344762D01*
X68640Y343804D01*
X71120Y343478D01*
X73600Y343804D01*
X75911Y344762D01*
X77895Y346284D01*
X79418Y348269D01*
X80375Y350580D01*
X80559Y351978D01*
X81180Y352419D01*
X81937Y352711D01*
X83620Y352377D01*
X85571Y352765D01*
X85686Y352841D01*
X87048Y352224D01*
X87264Y350580D01*
X88222Y348269D01*
X89744Y346284D01*
X91729Y344762D01*
X94040Y343804D01*
X96520Y343478D01*
X99000Y343804D01*
X101311Y344762D01*
X103295Y346284D01*
X104818Y348269D01*
X105775Y350580D01*
X106102Y353060D01*
X105775Y355540D01*
X104818Y357851D01*
X103295Y359835D01*
X101311Y361358D01*
X99000Y362315D01*
X96520Y362642D01*
D02*
G37*
G36*
X969000Y368050D02*
X960250D01*
Y359300D01*
X969000D01*
Y368050D01*
D02*
G37*
G36*
X957750D02*
X949000D01*
Y359300D01*
X957750D01*
Y368050D01*
D02*
G37*
G36*
Y379300D02*
X949000D01*
Y370550D01*
X957750D01*
Y379300D01*
D02*
G37*
G36*
X932998Y380097D02*
X931047Y379709D01*
X929393Y378604D01*
X928288Y376950D01*
X927900Y374999D01*
X928288Y373048D01*
X929393Y371395D01*
X931047Y370289D01*
X932998Y369901D01*
X934949Y370289D01*
X936603Y371395D01*
X937708Y373048D01*
X938096Y374999D01*
X937708Y376950D01*
X936603Y378604D01*
X934949Y379709D01*
X932998Y380097D01*
D02*
G37*
G36*
X984400Y378882D02*
X981920Y378555D01*
X979609Y377598D01*
X977624Y376075D01*
X976102Y374091D01*
X975144Y371780D01*
X974818Y369300D01*
X975144Y366820D01*
X976102Y364509D01*
X977624Y362524D01*
X979609Y361002D01*
X981920Y360044D01*
X984400Y359718D01*
X986880Y360044D01*
X989191Y361002D01*
X991175Y362524D01*
X992698Y364509D01*
X993655Y366820D01*
X993982Y369300D01*
X993655Y371780D01*
X992698Y374091D01*
X991175Y376075D01*
X989191Y377598D01*
X986880Y378555D01*
X984400Y378882D01*
D02*
G37*
G36*
X120670Y362981D02*
X119309Y362802D01*
X116877Y361795D01*
X114788Y360192D01*
X113185Y358103D01*
X112177Y355670D01*
X111998Y354310D01*
X120670D01*
Y362981D01*
D02*
G37*
G36*
X826750Y360442D02*
Y351770D01*
X835422D01*
X835243Y353130D01*
X834235Y355563D01*
X832632Y357652D01*
X830543Y359255D01*
X828111Y360263D01*
X826750Y360442D01*
D02*
G37*
G36*
X824250D02*
X822889Y360263D01*
X820457Y359255D01*
X818368Y357652D01*
X816765Y355563D01*
X815757Y353130D01*
X815578Y351770D01*
X824250D01*
Y360442D01*
D02*
G37*
G36*
X711000Y358098D02*
X709049Y357710D01*
X707905Y356945D01*
X707000Y356708D01*
X706095Y356945D01*
X704951Y357710D01*
X703000Y358098D01*
X701049Y357710D01*
X699395Y356605D01*
X698290Y354951D01*
X697902Y353000D01*
X698060Y352206D01*
X697099Y350720D01*
X697049Y350710D01*
X695395Y349605D01*
X694290Y347951D01*
X693902Y346000D01*
X694290Y344049D01*
X695395Y342395D01*
X697049Y341290D01*
X699000Y340902D01*
X700951Y341290D01*
X702095Y342055D01*
X703000Y342292D01*
X703905Y342055D01*
X705049Y341290D01*
X707000Y340902D01*
X708951Y341290D01*
X710095Y342055D01*
X711000Y342292D01*
X711905Y342055D01*
X713049Y341290D01*
X715000Y340902D01*
X716951Y341290D01*
X718605Y342395D01*
X719710Y344049D01*
X720098Y346000D01*
X719710Y347951D01*
X718605Y349605D01*
X716951Y350710D01*
X715752Y350948D01*
X715710Y351049D01*
X716098Y353000D01*
X715710Y354951D01*
X714605Y356605D01*
X712951Y357710D01*
X711000Y358098D01*
D02*
G37*
G36*
X937000Y365098D02*
X935049Y364710D01*
X933395Y363605D01*
X932290Y361951D01*
X931902Y360000D01*
X932290Y358049D01*
X933395Y356395D01*
X935049Y355290D01*
X937000Y354902D01*
X938951Y355290D01*
X940605Y356395D01*
X941710Y358049D01*
X942098Y360000D01*
X941710Y361951D01*
X940605Y363605D01*
X938951Y364710D01*
X937000Y365098D01*
D02*
G37*
G36*
X123170Y362981D02*
Y354310D01*
X131841D01*
X131662Y355670D01*
X130655Y358103D01*
X129052Y360192D01*
X126963Y361795D01*
X124530Y362802D01*
X123170Y362981D01*
D02*
G37*
G36*
X20320Y403282D02*
X17840Y402955D01*
X15529Y401998D01*
X13544Y400475D01*
X12021Y398491D01*
X11064Y396180D01*
X10738Y393700D01*
X11064Y391220D01*
X12021Y388909D01*
X13544Y386924D01*
X15529Y385401D01*
X17840Y384444D01*
X20320Y384118D01*
X22800Y384444D01*
X25111Y385401D01*
X27095Y386924D01*
X28618Y388909D01*
X29575Y391220D01*
X29902Y393700D01*
X29575Y396180D01*
X28618Y398491D01*
X27095Y400475D01*
X25111Y401998D01*
X22800Y402955D01*
X20320Y403282D01*
D02*
G37*
G36*
X177000Y405598D02*
X175049Y405210D01*
X173395Y404105D01*
X172290Y402451D01*
X171902Y400500D01*
X172290Y398549D01*
X173395Y396895D01*
X175049Y395790D01*
X176248Y395552D01*
X176290Y395451D01*
X175902Y393500D01*
X176041Y392802D01*
X176000Y391598D01*
X175119Y391423D01*
X174049Y391210D01*
X172395Y390105D01*
X171290Y388451D01*
X170902Y386500D01*
X171290Y384549D01*
X172395Y382895D01*
X174049Y381790D01*
X176000Y381402D01*
X177951Y381790D01*
X179605Y382895D01*
X180710Y384549D01*
X181098Y386500D01*
X180959Y387198D01*
X181000Y388402D01*
X181881Y388577D01*
X182951Y388790D01*
X184605Y389895D01*
X185710Y391549D01*
X186098Y393500D01*
X185710Y395451D01*
X184605Y397105D01*
X182951Y398210D01*
X181752Y398448D01*
X181710Y398549D01*
X182098Y400500D01*
X181710Y402451D01*
X180605Y404105D01*
X178951Y405210D01*
X177000Y405598D01*
D02*
G37*
G36*
X689260Y391098D02*
X687309Y390710D01*
X685655Y389604D01*
X684550Y387951D01*
X684162Y386000D01*
X684550Y384049D01*
X685655Y382395D01*
X687309Y381290D01*
X689260Y380902D01*
X691211Y381290D01*
X692865Y382395D01*
X693970Y384049D01*
X694358Y386000D01*
X693970Y387951D01*
X692865Y389604D01*
X691211Y390710D01*
X689260Y391098D01*
D02*
G37*
G36*
X721755Y394045D02*
X715255D01*
X712155Y390945D01*
X709055Y394045D01*
X702555D01*
X699305Y390795D01*
Y382295D01*
X702555Y379045D01*
X709055D01*
X712155Y382145D01*
X715255Y379045D01*
X721755D01*
X725005Y382295D01*
Y390795D01*
X721755Y394045D01*
D02*
G37*
G36*
X350870Y394000D02*
X344370D01*
X341270Y390900D01*
X338170Y394000D01*
X331670D01*
X328420Y390750D01*
Y382250D01*
X331670Y379000D01*
X338170D01*
X341270Y382100D01*
X344370Y379000D01*
X350870D01*
X354120Y382250D01*
Y390750D01*
X350870Y394000D01*
D02*
G37*
G36*
X165450D02*
X158950D01*
X155850Y390900D01*
X152750Y394000D01*
X146250D01*
X143000Y390750D01*
Y382250D01*
X146250Y379000D01*
X152750D01*
X155850Y382100D01*
X158950Y379000D01*
X165450D01*
X168700Y382250D01*
Y390750D01*
X165450Y394000D01*
D02*
G37*
G36*
X318420Y390117D02*
X316079Y389652D01*
X314094Y388326D01*
X312768Y386341D01*
X312302Y384000D01*
X312768Y381659D01*
X314094Y379674D01*
X316079Y378348D01*
X318420Y377882D01*
X320761Y378348D01*
X322746Y379674D01*
X324072Y381659D01*
X324537Y384000D01*
X324072Y386341D01*
X322746Y388326D01*
X320761Y389652D01*
X318420Y390117D01*
D02*
G37*
G36*
X133000D02*
X130659Y389652D01*
X128674Y388326D01*
X127348Y386341D01*
X126882Y384000D01*
X127348Y381659D01*
X128674Y379674D01*
X130659Y378348D01*
X133000Y377882D01*
X135341Y378348D01*
X137325Y379674D01*
X138652Y381659D01*
X139117Y384000D01*
X138652Y386341D01*
X137325Y388326D01*
X135341Y389652D01*
X133000Y390117D01*
D02*
G37*
G36*
X969000Y379300D02*
X960250D01*
Y370550D01*
X969000D01*
Y379300D01*
D02*
G37*
G36*
X874680Y389598D02*
X872729Y389210D01*
X871075Y388105D01*
X869970Y386451D01*
X869582Y384500D01*
X869970Y382549D01*
X871075Y380895D01*
X872729Y379790D01*
X874680Y379402D01*
X876631Y379790D01*
X878285Y380895D01*
X879390Y382549D01*
X879778Y384500D01*
X879390Y386451D01*
X878285Y388105D01*
X876631Y389210D01*
X874680Y389598D01*
D02*
G37*
G36*
X232000Y389294D02*
X230049Y388906D01*
X228395Y387801D01*
X227290Y386147D01*
X226902Y384196D01*
X227290Y382245D01*
X228395Y380591D01*
X230049Y379486D01*
X232000Y379098D01*
X233951Y379486D01*
X235605Y380591D01*
X236710Y382245D01*
X237098Y384196D01*
X236710Y386147D01*
X235605Y387801D01*
X233951Y388906D01*
X232000Y389294D01*
D02*
G37*
G36*
X511000Y397798D02*
X509049Y397410D01*
X507395Y396305D01*
X506290Y394651D01*
X505902Y392700D01*
X506290Y390749D01*
X507395Y389095D01*
X509049Y387990D01*
X511000Y387602D01*
X512615Y387923D01*
X513885Y387203D01*
Y382295D01*
X517135Y379045D01*
X523635D01*
X526735Y382145D01*
X529835Y379045D01*
X536335D01*
X539585Y382295D01*
Y390795D01*
X536335Y394045D01*
X529835D01*
X526735Y390945D01*
X523635Y394045D01*
X517135D01*
X516999Y393909D01*
X515784Y394278D01*
X515710Y394651D01*
X514605Y396305D01*
X512951Y397410D01*
X511000Y397798D01*
D02*
G37*
G36*
X309000Y357098D02*
X307049Y356710D01*
X305395Y355605D01*
X304290Y353951D01*
X303902Y352000D01*
X304290Y350049D01*
X305395Y348395D01*
X307049Y347290D01*
X309000Y346902D01*
X310951Y347290D01*
X312605Y348395D01*
X313710Y350049D01*
X314098Y352000D01*
X313710Y353951D01*
X312605Y355605D01*
X310951Y356710D01*
X309000Y357098D01*
D02*
G37*
G36*
X689000Y334598D02*
X687049Y334210D01*
X685395Y333105D01*
X685105D01*
X683451Y334210D01*
X681500Y334598D01*
X679549Y334210D01*
X677895Y333105D01*
X676790Y331451D01*
X676402Y329500D01*
X676790Y327549D01*
X677895Y325895D01*
X679549Y324790D01*
X681500Y324402D01*
X683451Y324790D01*
X685105Y325895D01*
X685395D01*
X687049Y324790D01*
X689000Y324402D01*
X690951Y324790D01*
X692605Y325895D01*
X693710Y327549D01*
X694098Y329500D01*
X693710Y331451D01*
X692605Y333105D01*
X690951Y334210D01*
X689000Y334598D01*
D02*
G37*
G36*
X917000Y342098D02*
X915049Y341710D01*
X913395Y340605D01*
X912290Y338951D01*
X911902Y337000D01*
X912290Y335049D01*
X913395Y333395D01*
X915049Y332290D01*
X917000Y331902D01*
X918951Y332290D01*
X920605Y333395D01*
X921710Y335049D01*
X922098Y337000D01*
X921710Y338951D01*
X920605Y340605D01*
X918951Y341710D01*
X917000Y342098D01*
D02*
G37*
G36*
X316500D02*
X314549Y341710D01*
X312895Y340605D01*
X311790Y338951D01*
X311402Y337000D01*
X311790Y335049D01*
X312895Y333395D01*
X314549Y332290D01*
X316500Y331902D01*
X318451Y332290D01*
X320105Y333395D01*
X321210Y335049D01*
X321598Y337000D01*
X321210Y338951D01*
X320105Y340605D01*
X318451Y341710D01*
X316500Y342098D01*
D02*
G37*
G36*
X984400Y353482D02*
X981920Y353155D01*
X979609Y352198D01*
X977624Y350675D01*
X976102Y348691D01*
X975144Y346380D01*
X974818Y343900D01*
X975144Y341420D01*
X976102Y339109D01*
X977624Y337124D01*
X979609Y335602D01*
X981920Y334644D01*
X984400Y334318D01*
X986880Y334644D01*
X989191Y335602D01*
X991175Y337124D01*
X992698Y339109D01*
X993655Y341420D01*
X993982Y343900D01*
X993655Y346380D01*
X992698Y348691D01*
X991175Y350675D01*
X989191Y352198D01*
X986880Y353155D01*
X984400Y353482D01*
D02*
G37*
G36*
X959000D02*
X956520Y353155D01*
X954209Y352198D01*
X952224Y350675D01*
X950702Y348691D01*
X949744Y346380D01*
X949418Y343900D01*
X949744Y341420D01*
X950702Y339109D01*
X952224Y337124D01*
X954209Y335602D01*
X956520Y334644D01*
X959000Y334318D01*
X961480Y334644D01*
X963791Y335602D01*
X965775Y337124D01*
X967298Y339109D01*
X968255Y341420D01*
X968582Y343900D01*
X968255Y346380D01*
X967298Y348691D01*
X965775Y350675D01*
X963791Y352198D01*
X961480Y353155D01*
X959000Y353482D01*
D02*
G37*
G36*
X904500Y343598D02*
X902549Y343210D01*
X900895Y342105D01*
X899790Y340451D01*
X899402Y338500D01*
X899790Y336549D01*
X900895Y334895D01*
X902549Y333790D01*
X904500Y333402D01*
X906451Y333790D01*
X908105Y334895D01*
X909210Y336549D01*
X909598Y338500D01*
X909210Y340451D01*
X908105Y342105D01*
X906451Y343210D01*
X904500Y343598D01*
D02*
G37*
G36*
X563000Y332098D02*
X561049Y331710D01*
X559395Y330605D01*
X558290Y328951D01*
X557902Y327000D01*
X558290Y325049D01*
X559395Y323395D01*
X561049Y322290D01*
X563000Y321902D01*
X564951Y322290D01*
X566604Y323395D01*
X567710Y325049D01*
X568098Y327000D01*
X567710Y328951D01*
X566604Y330605D01*
X564951Y331710D01*
X563000Y332098D01*
D02*
G37*
G36*
X234500Y328598D02*
X232549Y328210D01*
X230895Y327105D01*
X229790Y325451D01*
X229402Y323500D01*
X229790Y321549D01*
X230895Y319895D01*
X232549Y318790D01*
X234500Y318402D01*
X236451Y318790D01*
X238105Y319895D01*
X239210Y321549D01*
X239598Y323500D01*
X239210Y325451D01*
X238105Y327105D01*
X236451Y328210D01*
X234500Y328598D01*
D02*
G37*
G36*
X576580Y327678D02*
X574629Y327290D01*
X572975Y326185D01*
X571870Y324531D01*
X571482Y322580D01*
X571870Y320629D01*
X572975Y318975D01*
X574629Y317870D01*
X576580Y317482D01*
X578531Y317870D01*
X580185Y318975D01*
X581290Y320629D01*
X581678Y322580D01*
X581290Y324531D01*
X580185Y326185D01*
X578531Y327290D01*
X576580Y327678D01*
D02*
G37*
G36*
X238000Y342098D02*
X236049Y341710D01*
X234395Y340605D01*
X233290Y338951D01*
X232902Y337000D01*
X233290Y335049D01*
X234395Y333395D01*
X236049Y332290D01*
X238000Y331902D01*
X239951Y332290D01*
X241605Y333395D01*
X242710Y335049D01*
X243098Y337000D01*
X242710Y338951D01*
X241605Y340605D01*
X239951Y341710D01*
X238000Y342098D01*
D02*
G37*
G36*
X328999Y331597D02*
X327048Y331209D01*
X325395Y330104D01*
X324289Y328450D01*
X323901Y326499D01*
X323902Y326494D01*
X323004Y325596D01*
X322999Y325597D01*
X321049Y325209D01*
X319395Y324104D01*
X318290Y322450D01*
X317901Y320499D01*
X318290Y318549D01*
X319395Y316895D01*
X321049Y315790D01*
X322999Y315401D01*
X324950Y315790D01*
X326604Y316895D01*
X327709Y318549D01*
X328097Y320499D01*
X328772Y320493D01*
X329901Y319687D01*
X330289Y317736D01*
X331395Y316082D01*
X333048Y314977D01*
X334999Y314589D01*
X336950Y314977D01*
X338604Y316082D01*
X339709Y317736D01*
X340068Y319540D01*
X341000Y320402D01*
X341194Y320441D01*
X342615Y319428D01*
X342790Y318549D01*
X343895Y316895D01*
X345549Y315790D01*
X347500Y315402D01*
X349451Y315790D01*
X351105Y316895D01*
X352014Y318256D01*
X353217Y318167D01*
X353336Y318122D01*
X353370Y317949D01*
X354476Y316295D01*
X356129Y315190D01*
X358080Y314802D01*
X360031Y315190D01*
X361685Y316295D01*
X362790Y317949D01*
X363178Y319900D01*
X362790Y321851D01*
X361685Y323505D01*
X360031Y324610D01*
X358080Y324998D01*
X356129Y324610D01*
X354476Y323505D01*
X353566Y322144D01*
X352363Y322233D01*
X352244Y322278D01*
X352210Y322451D01*
X351105Y324105D01*
X349451Y325210D01*
X347500Y325598D01*
X347306Y325559D01*
X345885Y326572D01*
X345710Y327451D01*
X344605Y329105D01*
X342951Y330210D01*
X341000Y330598D01*
X339049Y330210D01*
X337395Y329105D01*
X336290Y327451D01*
X335931Y325647D01*
X335902Y325619D01*
X335715Y325511D01*
X335162Y325543D01*
X334097Y326499D01*
X333709Y328450D01*
X332604Y330104D01*
X330950Y331209D01*
X328999Y331597D01*
D02*
G37*
G36*
X428000Y332098D02*
X426049Y331710D01*
X424395Y330605D01*
X423290Y328951D01*
X422902Y327000D01*
X423290Y325049D01*
X424395Y323395D01*
X426049Y322290D01*
X428000Y321902D01*
X429951Y322290D01*
X431605Y323395D01*
X432710Y325049D01*
X433098Y327000D01*
X432710Y328951D01*
X431605Y330605D01*
X429951Y331710D01*
X428000Y332098D01*
D02*
G37*
G36*
X131841Y351810D02*
X123170D01*
Y343138D01*
X124530Y343317D01*
X126963Y344325D01*
X129052Y345928D01*
X130655Y348017D01*
X131662Y350449D01*
X131841Y351810D01*
D02*
G37*
G36*
X120670D02*
X111998D01*
X112177Y350449D01*
X113185Y348017D01*
X114788Y345928D01*
X116877Y344325D01*
X119309Y343317D01*
X120670Y343138D01*
Y351810D01*
D02*
G37*
G36*
X923000Y352598D02*
X921049Y352210D01*
X919395Y351105D01*
X918290Y349451D01*
X917902Y347500D01*
X918290Y345549D01*
X919395Y343895D01*
X921049Y342790D01*
X923000Y342402D01*
X924951Y342790D01*
X926605Y343895D01*
X927710Y345549D01*
X928098Y347500D01*
X927710Y349451D01*
X926605Y351105D01*
X924951Y352210D01*
X923000Y352598D01*
D02*
G37*
G36*
X156820Y362560D02*
X137820D01*
Y343560D01*
X156820D01*
Y362560D01*
D02*
G37*
G36*
X45720Y362642D02*
X43240Y362315D01*
X40929Y361358D01*
X38944Y359835D01*
X37422Y357851D01*
X36464Y355540D01*
X36138Y353060D01*
X36464Y350580D01*
X37422Y348269D01*
X38944Y346284D01*
X40929Y344762D01*
X43240Y343804D01*
X45720Y343478D01*
X48200Y343804D01*
X50511Y344762D01*
X52495Y346284D01*
X54018Y348269D01*
X54975Y350580D01*
X55302Y353060D01*
X54975Y355540D01*
X54018Y357851D01*
X52495Y359835D01*
X50511Y361358D01*
X48200Y362315D01*
X45720Y362642D01*
D02*
G37*
G36*
X20320D02*
X17840Y362315D01*
X15529Y361358D01*
X13544Y359835D01*
X12021Y357851D01*
X11064Y355540D01*
X10738Y353060D01*
X11064Y350580D01*
X12021Y348269D01*
X13544Y346284D01*
X15529Y344762D01*
X17840Y343804D01*
X20320Y343478D01*
X22800Y343804D01*
X25111Y344762D01*
X27095Y346284D01*
X28618Y348269D01*
X29575Y350580D01*
X29902Y353060D01*
X29575Y355540D01*
X28618Y357851D01*
X27095Y359835D01*
X25111Y361358D01*
X22800Y362315D01*
X20320Y362642D01*
D02*
G37*
G36*
X286000Y358598D02*
X284049Y358210D01*
X282395Y357105D01*
X281290Y355451D01*
X280902Y353500D01*
X281290Y351549D01*
X282395Y349895D01*
X284049Y348790D01*
X286000Y348402D01*
X286697Y348541D01*
X287901Y348499D01*
X288077Y347619D01*
X288290Y346548D01*
X289395Y344894D01*
X290340Y344263D01*
Y342736D01*
X289395Y342105D01*
X288290Y340451D01*
X288058Y339285D01*
X287595Y338466D01*
X286679Y338363D01*
X285500Y338598D01*
X283549Y338210D01*
X281895Y337105D01*
X280790Y335451D01*
X280402Y333500D01*
X280790Y331549D01*
X281895Y329895D01*
X283549Y328790D01*
X285500Y328402D01*
X287451Y328790D01*
X289105Y329895D01*
X290210Y331549D01*
X290442Y332715D01*
X290905Y333534D01*
X291821Y333637D01*
X293000Y333402D01*
X294951Y333790D01*
X296605Y334895D01*
X297710Y336549D01*
X298098Y338500D01*
X297710Y340451D01*
X296605Y342105D01*
X295660Y342736D01*
Y344264D01*
X296604Y344894D01*
X297709Y346548D01*
X298097Y348499D01*
X297709Y350450D01*
X296604Y352104D01*
X294950Y353209D01*
X292999Y353597D01*
X292302Y353459D01*
X291098Y353500D01*
X290923Y354380D01*
X290710Y355451D01*
X289605Y357105D01*
X287951Y358210D01*
X286000Y358598D01*
D02*
G37*
G36*
X520040Y353940D02*
X501040D01*
Y334940D01*
X520040D01*
Y353940D01*
D02*
G37*
G36*
X485140Y354022D02*
X482660Y353695D01*
X480349Y352738D01*
X478364Y351215D01*
X476842Y349231D01*
X475884Y346920D01*
X475558Y344440D01*
X475884Y341960D01*
X476842Y339649D01*
X478364Y337664D01*
X480349Y336142D01*
X482660Y335184D01*
X485140Y334858D01*
X487620Y335184D01*
X489931Y336142D01*
X491915Y337664D01*
X493438Y339649D01*
X494395Y341960D01*
X494722Y344440D01*
X494395Y346920D01*
X493438Y349231D01*
X491915Y351215D01*
X489931Y352738D01*
X487620Y353695D01*
X485140Y354022D01*
D02*
G37*
G36*
X860400Y360020D02*
X841400D01*
Y341020D01*
X860400D01*
Y360020D01*
D02*
G37*
G36*
X835422Y349270D02*
X826750D01*
Y340598D01*
X828111Y340777D01*
X830543Y341785D01*
X832632Y343388D01*
X834235Y345477D01*
X835243Y347910D01*
X835422Y349270D01*
D02*
G37*
G36*
X824250D02*
X815578D01*
X815757Y347910D01*
X816765Y345477D01*
X818368Y343388D01*
X820457Y341785D01*
X822889Y340777D01*
X824250Y340598D01*
Y349270D01*
D02*
G37*
G36*
X918020Y190640D02*
X916192Y190399D01*
X914490Y189694D01*
X913027Y188572D01*
X912311Y187638D01*
X912192Y187582D01*
X910894D01*
X910775Y187638D01*
X910058Y188572D01*
X908596Y189694D01*
X906893Y190399D01*
X905066Y190640D01*
X903238Y190399D01*
X901535Y189694D01*
X900073Y188572D01*
X899357Y187638D01*
X899238Y187582D01*
X897940D01*
X897821Y187638D01*
X897104Y188572D01*
X895642Y189694D01*
X893939Y190399D01*
X892112Y190640D01*
X890284Y190399D01*
X888581Y189694D01*
X887119Y188572D01*
X886403Y187638D01*
X886284Y187582D01*
X884986D01*
X884867Y187638D01*
X884150Y188572D01*
X882688Y189694D01*
X880985Y190399D01*
X879158Y190640D01*
X877330Y190399D01*
X875628Y189694D01*
X874165Y188572D01*
X873449Y187638D01*
X873330Y187582D01*
X872032D01*
X871913Y187638D01*
X871196Y188572D01*
X869734Y189694D01*
X868031Y190399D01*
X866204Y190640D01*
X864376Y190399D01*
X862673Y189694D01*
X861211Y188572D01*
X860089Y187110D01*
X859384Y185407D01*
X859143Y183579D01*
X859384Y181752D01*
X860089Y180049D01*
X861211Y178587D01*
X862673Y177465D01*
X864376Y176759D01*
X866204Y176519D01*
X868031Y176759D01*
X869734Y177465D01*
X871196Y178587D01*
X871913Y179520D01*
X872032Y179576D01*
X873330D01*
X873449Y179520D01*
X874165Y178587D01*
X875628Y177465D01*
X877330Y176759D01*
X879158Y176519D01*
X880985Y176759D01*
X882688Y177465D01*
X884150Y178587D01*
X884867Y179520D01*
X884986Y179576D01*
X886284D01*
X886403Y179520D01*
X887119Y178587D01*
X888581Y177465D01*
X890284Y176759D01*
X892112Y176519D01*
X893939Y176759D01*
X895642Y177465D01*
X897104Y178587D01*
X897821Y179520D01*
X897940Y179576D01*
X899238D01*
X899357Y179520D01*
X900073Y178587D01*
X901535Y177465D01*
X903238Y176759D01*
X905066Y176519D01*
X906893Y176759D01*
X908596Y177465D01*
X910058Y178587D01*
X910775Y179520D01*
X910894Y179576D01*
X912192D01*
X912311Y179520D01*
X913027Y178587D01*
X914490Y177465D01*
X915315Y177123D01*
Y175748D01*
X914490Y175406D01*
X913027Y174284D01*
X911905Y172822D01*
X911200Y171119D01*
X910959Y169292D01*
X911200Y167465D01*
X911905Y165762D01*
X913027Y164299D01*
X914490Y163177D01*
X915315Y162835D01*
Y161461D01*
X914490Y161119D01*
X913027Y159997D01*
X911905Y158534D01*
X911200Y156832D01*
X910959Y155004D01*
X911200Y153177D01*
X911905Y151474D01*
X913027Y150012D01*
X914490Y148890D01*
X915315Y148548D01*
Y147173D01*
X914490Y146831D01*
X913027Y145709D01*
X911905Y144247D01*
X911200Y142544D01*
X910959Y140717D01*
X911200Y138890D01*
X911905Y137187D01*
X913027Y135724D01*
X914490Y134602D01*
X915315Y134260D01*
Y132886D01*
X914490Y132544D01*
X913027Y131422D01*
X912311Y130488D01*
X912192Y130433D01*
X910894D01*
X910775Y130488D01*
X910058Y131422D01*
X908596Y132544D01*
X906893Y133249D01*
X905066Y133490D01*
X903238Y133249D01*
X901535Y132544D01*
X900073Y131422D01*
X899357Y130488D01*
X899238Y130433D01*
X897940D01*
X897821Y130488D01*
X897104Y131422D01*
X895642Y132544D01*
X893939Y133249D01*
X892112Y133490D01*
X890284Y133249D01*
X888581Y132544D01*
X887119Y131422D01*
X886403Y130488D01*
X886284Y130433D01*
X884986D01*
X884867Y130488D01*
X884150Y131422D01*
X882688Y132544D01*
X880985Y133249D01*
X879158Y133490D01*
X877330Y133249D01*
X875628Y132544D01*
X874165Y131422D01*
X873449Y130488D01*
X873330Y130433D01*
X872032D01*
X871913Y130488D01*
X871196Y131422D01*
X869734Y132544D01*
X868031Y133249D01*
X866204Y133490D01*
X864376Y133249D01*
X862673Y132544D01*
X861211Y131422D01*
X860089Y129959D01*
X859384Y128257D01*
X859143Y126429D01*
X859384Y124602D01*
X860089Y122899D01*
X861211Y121437D01*
X862673Y120315D01*
X864376Y119609D01*
X866204Y119369D01*
X868031Y119609D01*
X869734Y120315D01*
X871196Y121437D01*
X871913Y122371D01*
X872032Y122426D01*
X873330D01*
X873449Y122371D01*
X874165Y121437D01*
X875628Y120315D01*
X877330Y119609D01*
X879158Y119369D01*
X880985Y119609D01*
X882688Y120315D01*
X884150Y121437D01*
X884867Y122371D01*
X884986Y122426D01*
X886284D01*
X886403Y122371D01*
X887119Y121437D01*
X888581Y120315D01*
X890284Y119609D01*
X892112Y119369D01*
X893939Y119609D01*
X895642Y120315D01*
X897104Y121437D01*
X897821Y122371D01*
X897940Y122426D01*
X899238D01*
X899357Y122371D01*
X900073Y121437D01*
X901535Y120315D01*
X903238Y119609D01*
X905066Y119369D01*
X906893Y119609D01*
X908596Y120315D01*
X910058Y121437D01*
X910775Y122371D01*
X910894Y122426D01*
X912192D01*
X912311Y122371D01*
X913027Y121437D01*
X914490Y120315D01*
X916192Y119609D01*
X918020Y119369D01*
X919847Y119609D01*
X921550Y120315D01*
X923012Y121437D01*
X924134Y122899D01*
X924839Y124602D01*
X925080Y126429D01*
X925064Y126552D01*
X925450Y126938D01*
X926240Y127346D01*
X927672Y126753D01*
X929500Y126512D01*
X931327Y126753D01*
X933030Y127458D01*
X934492Y128580D01*
X935614Y130042D01*
X936320Y131745D01*
X936560Y133572D01*
X936320Y135400D01*
X935614Y137102D01*
X934492Y138565D01*
X933030Y139687D01*
X932204Y140029D01*
Y141403D01*
X933030Y141745D01*
X934492Y142867D01*
X935614Y144330D01*
X936320Y146032D01*
X936560Y147860D01*
X936320Y149687D01*
X935614Y151390D01*
X934492Y152852D01*
X933030Y153974D01*
X932204Y154316D01*
Y155691D01*
X933030Y156033D01*
X934492Y157155D01*
X935614Y158617D01*
X936320Y160320D01*
X936560Y162147D01*
X936320Y163975D01*
X935614Y165677D01*
X934492Y167140D01*
X933030Y168262D01*
X932204Y168604D01*
Y169978D01*
X933030Y170320D01*
X934492Y171442D01*
X935614Y172905D01*
X936320Y174607D01*
X936560Y176435D01*
X936320Y178262D01*
X935614Y179965D01*
X934492Y181427D01*
X933030Y182549D01*
X931327Y183255D01*
X929500Y183495D01*
X927672Y183255D01*
X926240Y182661D01*
X925450Y183069D01*
X925064Y183455D01*
X925080Y183579D01*
X924839Y185407D01*
X924134Y187110D01*
X923012Y188572D01*
X921550Y189694D01*
X919847Y190399D01*
X918020Y190640D01*
D02*
G37*
G36*
X776314Y56000D02*
X763730D01*
Y39229D01*
X765459Y39754D01*
X768499Y41379D01*
X771164Y43566D01*
X773351Y46230D01*
X774976Y49270D01*
X775976Y52569D01*
X776314Y56000D01*
D02*
G37*
G36*
X753730D02*
X741145D01*
X741483Y52569D01*
X742484Y49270D01*
X744109Y46230D01*
X746295Y43566D01*
X748960Y41379D01*
X752000Y39754D01*
X753730Y39229D01*
Y56000D01*
D02*
G37*
G36*
X763730Y82770D02*
Y66000D01*
X776314D01*
X775976Y69430D01*
X774976Y72729D01*
X773351Y75769D01*
X771164Y78434D01*
X768499Y80621D01*
X765459Y82246D01*
X763730Y82770D01*
D02*
G37*
G36*
X753730D02*
X752000Y82246D01*
X748960Y80621D01*
X746295Y78434D01*
X744109Y75769D01*
X742484Y72729D01*
X741483Y69430D01*
X741145Y66000D01*
X753730D01*
Y82770D01*
D02*
G37*
G36*
X808730Y83082D02*
X805397Y82754D01*
X802193Y81782D01*
X799239Y80203D01*
X796651Y78079D01*
X794526Y75490D01*
X792948Y72537D01*
X791976Y69332D01*
X791647Y66000D01*
Y56000D01*
X791976Y52667D01*
X792948Y49463D01*
X794526Y46509D01*
X796651Y43921D01*
X799239Y41796D01*
X802193Y40218D01*
X805397Y39246D01*
X808730Y38918D01*
X812062Y39246D01*
X815267Y40218D01*
X818220Y41796D01*
X820809Y43921D01*
X822933Y46509D01*
X824512Y49463D01*
X825484Y52667D01*
X825812Y56000D01*
Y66000D01*
X825484Y69332D01*
X824512Y72537D01*
X822933Y75490D01*
X820809Y78079D01*
X818220Y80203D01*
X815267Y81782D01*
X812062Y82754D01*
X808730Y83082D01*
D02*
G37*
G36*
X908730D02*
X905397Y82754D01*
X902193Y81782D01*
X899239Y80203D01*
X896651Y78079D01*
X894526Y75490D01*
X892948Y72537D01*
X891976Y69332D01*
X891647Y66000D01*
Y56000D01*
X891976Y52667D01*
X892948Y49463D01*
X894526Y46509D01*
X896651Y43921D01*
X899239Y41796D01*
X902193Y40218D01*
X905397Y39246D01*
X908730Y38918D01*
X912062Y39246D01*
X915267Y40218D01*
X918220Y41796D01*
X920809Y43921D01*
X922933Y46509D01*
X924512Y49463D01*
X925484Y52667D01*
X925812Y56000D01*
Y66000D01*
X925484Y69332D01*
X924512Y72537D01*
X922933Y75490D01*
X920809Y78079D01*
X918220Y80203D01*
X915267Y81782D01*
X912062Y82754D01*
X908730Y83082D01*
D02*
G37*
G36*
X858730D02*
X855397Y82754D01*
X852193Y81782D01*
X849239Y80203D01*
X846651Y78079D01*
X844526Y75490D01*
X842948Y72537D01*
X841976Y69332D01*
X841647Y66000D01*
Y56000D01*
X841976Y52667D01*
X842948Y49463D01*
X844526Y46509D01*
X846651Y43921D01*
X849239Y41796D01*
X852193Y40218D01*
X855397Y39246D01*
X858730Y38918D01*
X862062Y39246D01*
X865267Y40218D01*
X868220Y41796D01*
X870809Y43921D01*
X872933Y46509D01*
X874512Y49463D01*
X875484Y52667D01*
X875812Y56000D01*
Y66000D01*
X875484Y69332D01*
X874512Y72537D01*
X872933Y75490D01*
X870809Y78079D01*
X868220Y80203D01*
X865267Y81782D01*
X862062Y82754D01*
X858730Y83082D01*
D02*
G37*
G36*
X980500Y113598D02*
X978549Y113210D01*
X976895Y112105D01*
X975790Y110451D01*
X975402Y108500D01*
X975790Y106549D01*
X976895Y104895D01*
X978549Y103790D01*
X980500Y103402D01*
X982451Y103790D01*
X984105Y104895D01*
X985210Y106549D01*
X985598Y108500D01*
X985210Y110451D01*
X984105Y112105D01*
X982451Y113210D01*
X980500Y113598D01*
D02*
G37*
G36*
X795000Y156098D02*
X793049Y155710D01*
X791395Y154605D01*
X790290Y152951D01*
X789902Y151000D01*
X790290Y149049D01*
X791395Y147395D01*
X793049Y146290D01*
X795000Y145902D01*
X796951Y146290D01*
X798605Y147395D01*
X799710Y149049D01*
X800098Y151000D01*
X799710Y152951D01*
X798605Y154605D01*
X796951Y155710D01*
X795000Y156098D01*
D02*
G37*
G36*
X773000Y154098D02*
X771049Y153710D01*
X769395Y152605D01*
X768290Y150951D01*
X767902Y149000D01*
X768290Y147049D01*
X769395Y145395D01*
X771049Y144290D01*
X773000Y143902D01*
X774951Y144290D01*
X776605Y145395D01*
X777710Y147049D01*
X778098Y149000D01*
X777710Y150951D01*
X776605Y152605D01*
X774951Y153710D01*
X773000Y154098D01*
D02*
G37*
G36*
X834000Y141098D02*
X832049Y140710D01*
X830395Y139605D01*
X829290Y137951D01*
X828902Y136000D01*
X829290Y134049D01*
X830395Y132395D01*
X832049Y131290D01*
X834000Y130902D01*
X835951Y131290D01*
X837605Y132395D01*
X838710Y134049D01*
X839098Y136000D01*
X838710Y137951D01*
X837605Y139605D01*
X835951Y140710D01*
X834000Y141098D01*
D02*
G37*
%LPD*%
D73*
X121920Y353060D02*
D03*
X594360Y214630D02*
D03*
X492760D02*
D03*
X543560D02*
D03*
X645160D02*
D03*
X631190Y278130D02*
D03*
X605790D02*
D03*
X580390D02*
D03*
X360680Y88710D02*
D03*
X984400Y466400D02*
D03*
X382938Y24100D02*
D03*
X201328D02*
D03*
X825500Y350520D02*
D03*
X959000Y140700D02*
D03*
X769519Y586680D02*
D03*
X213260Y586680D02*
D03*
X398680D02*
D03*
X584100D02*
D03*
X20320Y495300D02*
D03*
X468630Y303530D02*
D03*
D74*
X959000Y369300D02*
D03*
D78*
X827000Y184000D02*
D03*
Y172000D02*
D03*
X816000Y166000D02*
D03*
Y178000D02*
D03*
Y154000D02*
D03*
X827000Y160000D02*
D03*
Y148000D02*
D03*
D80*
X658730Y61000D02*
D03*
X758730D02*
D03*
D82*
X411500Y136500D02*
D03*
X386000D02*
D03*
X367500Y240500D02*
D03*
X295000Y187500D02*
D03*
X310000D02*
D03*
X302500D02*
D03*
X767500Y282000D02*
D03*
X366000Y123000D02*
D03*
X199000Y113500D02*
D03*
X403500Y187000D02*
D03*
X174500Y108500D02*
D03*
X410000Y256600D02*
D03*
X211000Y166000D02*
D03*
X257400Y321990D02*
D03*
X368160Y319800D02*
D03*
X432900Y219100D02*
D03*
X486800Y392600D02*
D03*
X679260Y386000D02*
D03*
X826000Y220000D02*
D03*
X831000Y226000D02*
D03*
X821000D02*
D03*
X756000Y141000D02*
D03*
X754000Y247000D02*
D03*
Y255000D02*
D03*
X480000Y164000D02*
D03*
X538000Y164500D02*
D03*
X613000Y180000D02*
D03*
X586500Y178500D02*
D03*
X777500Y219500D02*
D03*
X534000Y273000D02*
D03*
X961395Y518825D02*
D03*
X875030Y535940D02*
D03*
X689610D02*
D03*
X504190D02*
D03*
X133350D02*
D03*
X906785Y313555D02*
D03*
Y322445D02*
D03*
X912500Y318000D02*
D03*
X918215Y313555D02*
D03*
Y322445D02*
D03*
X739775Y340360D02*
D03*
Y349250D02*
D03*
X745490Y344805D02*
D03*
X751205Y340360D02*
D03*
Y349250D02*
D03*
X793115D02*
D03*
Y340360D02*
D03*
X798830Y344805D02*
D03*
X804545Y349250D02*
D03*
Y340360D02*
D03*
X554355D02*
D03*
Y349250D02*
D03*
X560070Y344805D02*
D03*
X565785Y340360D02*
D03*
Y349250D02*
D03*
X607695D02*
D03*
Y340360D02*
D03*
X613410Y344805D02*
D03*
X619125Y349250D02*
D03*
Y340360D02*
D03*
X376335Y349250D02*
D03*
X248285Y347360D02*
D03*
Y356250D02*
D03*
X242570Y351805D02*
D03*
X236855Y347360D02*
D03*
Y356250D02*
D03*
X949765Y537040D02*
D03*
X941765D02*
D03*
X790685D02*
D03*
X782685D02*
D03*
Y551010D02*
D03*
X929640Y579120D02*
D03*
X782685Y544025D02*
D03*
Y557995D02*
D03*
X597265D02*
D03*
Y544025D02*
D03*
X764265Y558195D02*
D03*
X764270Y551010D02*
D03*
Y544025D02*
D03*
X597265Y551010D02*
D03*
Y537040D02*
D03*
X605265D02*
D03*
X756345D02*
D03*
X764345D02*
D03*
X578925D02*
D03*
X570925D02*
D03*
X419845D02*
D03*
X411845D02*
D03*
Y551010D02*
D03*
X578850Y544025D02*
D03*
Y551010D02*
D03*
X578845Y558195D02*
D03*
X411845Y544025D02*
D03*
Y557995D02*
D03*
X208085Y537040D02*
D03*
X200085D02*
D03*
X36830Y533670D02*
D03*
X208010Y544025D02*
D03*
Y551010D02*
D03*
X208005Y558195D02*
D03*
X43815Y533670D02*
D03*
X194945Y354250D02*
D03*
Y345360D02*
D03*
X189230Y349805D02*
D03*
X183515Y354250D02*
D03*
Y345360D02*
D03*
X226425Y557995D02*
D03*
Y544025D02*
D03*
X393425Y558195D02*
D03*
X393430Y551010D02*
D03*
Y544025D02*
D03*
X226425Y551010D02*
D03*
X844470Y232410D02*
D03*
X850820D02*
D03*
X857170D02*
D03*
X226425Y537040D02*
D03*
X234425D02*
D03*
X385505D02*
D03*
X393505D02*
D03*
X961385Y533195D02*
D03*
X961390Y526010D02*
D03*
X387765Y349250D02*
D03*
X382050Y344805D02*
D03*
X376335Y340360D02*
D03*
X387765D02*
D03*
X318770Y535940D02*
D03*
X429990Y344805D02*
D03*
X424275Y340360D02*
D03*
X435705Y349250D02*
D03*
X424275D02*
D03*
X435705Y340360D02*
D03*
X437000Y135000D02*
D03*
Y125000D02*
D03*
Y115000D02*
D03*
Y105000D02*
D03*
X479990Y104620D02*
D03*
Y114620D02*
D03*
X518089D02*
D03*
Y104620D02*
D03*
X556189Y114620D02*
D03*
Y104620D02*
D03*
X594290Y114620D02*
D03*
Y104620D02*
D03*
X864680Y384500D02*
D03*
X479990Y124620D02*
D03*
Y134620D02*
D03*
X72500Y195000D02*
D03*
X149000Y153500D02*
D03*
X547000Y408500D02*
D03*
X361580D02*
D03*
X732420D02*
D03*
X917840D02*
D03*
X118600Y191400D02*
D03*
X176000Y408500D02*
D03*
X505500Y163500D02*
D03*
X21000Y298000D02*
D03*
D83*
X60560Y294098D02*
D03*
X106000Y99500D02*
D03*
X123000Y384000D02*
D03*
X308420D02*
D03*
M02*
