G04 Layer_Color=255*
%FSLAX44Y44*%
%MOMM*%
G71*
G01*
G75*
G04:AMPARAMS|DCode=10|XSize=1.4mm|YSize=1mm|CornerRadius=0.125mm|HoleSize=0mm|Usage=FLASHONLY|Rotation=0.000|XOffset=0mm|YOffset=0mm|HoleType=Round|Shape=RoundedRectangle|*
%AMROUNDEDRECTD10*
21,1,1.4000,0.7500,0,0,0.0*
21,1,1.1500,1.0000,0,0,0.0*
1,1,0.2500,0.5750,-0.3750*
1,1,0.2500,-0.5750,-0.3750*
1,1,0.2500,-0.5750,0.3750*
1,1,0.2500,0.5750,0.3750*
%
%ADD10ROUNDEDRECTD10*%
G04:AMPARAMS|DCode=11|XSize=0.6mm|YSize=0.6mm|CornerRadius=0.06mm|HoleSize=0mm|Usage=FLASHONLY|Rotation=90.000|XOffset=0mm|YOffset=0mm|HoleType=Round|Shape=RoundedRectangle|*
%AMROUNDEDRECTD11*
21,1,0.6000,0.4800,0,0,90.0*
21,1,0.4800,0.6000,0,0,90.0*
1,1,0.1200,0.2400,0.2400*
1,1,0.1200,0.2400,-0.2400*
1,1,0.1200,-0.2400,-0.2400*
1,1,0.1200,-0.2400,0.2400*
%
%ADD11ROUNDEDRECTD11*%
G04:AMPARAMS|DCode=12|XSize=0.5mm|YSize=0.6mm|CornerRadius=0.05mm|HoleSize=0mm|Usage=FLASHONLY|Rotation=180.000|XOffset=0mm|YOffset=0mm|HoleType=Round|Shape=RoundedRectangle|*
%AMROUNDEDRECTD12*
21,1,0.5000,0.5000,0,0,180.0*
21,1,0.4000,0.6000,0,0,180.0*
1,1,0.1000,-0.2000,0.2500*
1,1,0.1000,0.2000,0.2500*
1,1,0.1000,0.2000,-0.2500*
1,1,0.1000,-0.2000,-0.2500*
%
%ADD12ROUNDEDRECTD12*%
G04:AMPARAMS|DCode=13|XSize=0.6mm|YSize=1mm|CornerRadius=0.075mm|HoleSize=0mm|Usage=FLASHONLY|Rotation=90.000|XOffset=0mm|YOffset=0mm|HoleType=Round|Shape=RoundedRectangle|*
%AMROUNDEDRECTD13*
21,1,0.6000,0.8500,0,0,90.0*
21,1,0.4500,1.0000,0,0,90.0*
1,1,0.1500,0.4250,0.2250*
1,1,0.1500,0.4250,-0.2250*
1,1,0.1500,-0.4250,-0.2250*
1,1,0.1500,-0.4250,0.2250*
%
%ADD13ROUNDEDRECTD13*%
G04:AMPARAMS|DCode=14|XSize=0.6mm|YSize=0.8mm|CornerRadius=0.06mm|HoleSize=0mm|Usage=FLASHONLY|Rotation=270.000|XOffset=0mm|YOffset=0mm|HoleType=Round|Shape=RoundedRectangle|*
%AMROUNDEDRECTD14*
21,1,0.6000,0.6800,0,0,270.0*
21,1,0.4800,0.8000,0,0,270.0*
1,1,0.1200,-0.3400,-0.2400*
1,1,0.1200,-0.3400,0.2400*
1,1,0.1200,0.3400,0.2400*
1,1,0.1200,0.3400,-0.2400*
%
%ADD14ROUNDEDRECTD14*%
%ADD15R,0.3500X0.3000*%
%ADD16R,0.8700X0.2350*%
%ADD17R,1.5000X0.9500*%
G04:AMPARAMS|DCode=18|XSize=0.6mm|YSize=0.6mm|CornerRadius=0.06mm|HoleSize=0mm|Usage=FLASHONLY|Rotation=0.000|XOffset=0mm|YOffset=0mm|HoleType=Round|Shape=RoundedRectangle|*
%AMROUNDEDRECTD18*
21,1,0.6000,0.4800,0,0,0.0*
21,1,0.4800,0.6000,0,0,0.0*
1,1,0.1200,0.2400,-0.2400*
1,1,0.1200,-0.2400,-0.2400*
1,1,0.1200,-0.2400,0.2400*
1,1,0.1200,0.2400,0.2400*
%
%ADD18ROUNDEDRECTD18*%
G04:AMPARAMS|DCode=19|XSize=0.6mm|YSize=0.8mm|CornerRadius=0.15mm|HoleSize=0mm|Usage=FLASHONLY|Rotation=270.000|XOffset=0mm|YOffset=0mm|HoleType=Round|Shape=RoundedRectangle|*
%AMROUNDEDRECTD19*
21,1,0.6000,0.5000,0,0,270.0*
21,1,0.3000,0.8000,0,0,270.0*
1,1,0.3000,-0.2500,-0.1500*
1,1,0.3000,-0.2500,0.1500*
1,1,0.3000,0.2500,0.1500*
1,1,0.3000,0.2500,-0.1500*
%
%ADD19ROUNDEDRECTD19*%
%ADD20R,1.0000X0.6000*%
%ADD21O,0.3000X1.8000*%
%ADD22O,1.8000X0.3000*%
G04:AMPARAMS|DCode=23|XSize=0.5mm|YSize=0.6mm|CornerRadius=0.05mm|HoleSize=0mm|Usage=FLASHONLY|Rotation=270.000|XOffset=0mm|YOffset=0mm|HoleType=Round|Shape=RoundedRectangle|*
%AMROUNDEDRECTD23*
21,1,0.5000,0.5000,0,0,270.0*
21,1,0.4000,0.6000,0,0,270.0*
1,1,0.1000,-0.2500,-0.2000*
1,1,0.1000,-0.2500,0.2000*
1,1,0.1000,0.2500,0.2000*
1,1,0.1000,0.2500,-0.2000*
%
%ADD23ROUNDEDRECTD23*%
G04:AMPARAMS|DCode=24|XSize=0.6mm|YSize=1mm|CornerRadius=0.075mm|HoleSize=0mm|Usage=FLASHONLY|Rotation=180.000|XOffset=0mm|YOffset=0mm|HoleType=Round|Shape=RoundedRectangle|*
%AMROUNDEDRECTD24*
21,1,0.6000,0.8500,0,0,180.0*
21,1,0.4500,1.0000,0,0,180.0*
1,1,0.1500,-0.2250,0.4250*
1,1,0.1500,0.2250,0.4250*
1,1,0.1500,0.2250,-0.4250*
1,1,0.1500,-0.2250,-0.4250*
%
%ADD24ROUNDEDRECTD24*%
%ADD25R,1.9050X1.4224*%
%ADD26R,1.4224X1.8034*%
%ADD27R,1.5240X0.7112*%
G04:AMPARAMS|DCode=28|XSize=0.8mm|YSize=0.8mm|CornerRadius=0.1mm|HoleSize=0mm|Usage=FLASHONLY|Rotation=0.000|XOffset=0mm|YOffset=0mm|HoleType=Round|Shape=RoundedRectangle|*
%AMROUNDEDRECTD28*
21,1,0.8000,0.6000,0,0,0.0*
21,1,0.6000,0.8000,0,0,0.0*
1,1,0.2000,0.3000,-0.3000*
1,1,0.2000,-0.3000,-0.3000*
1,1,0.2000,-0.3000,0.3000*
1,1,0.2000,0.3000,0.3000*
%
%ADD28ROUNDEDRECTD28*%
%ADD29R,2.0000X0.4000*%
%ADD30R,1.5000X1.5000*%
G04:AMPARAMS|DCode=31|XSize=1.4mm|YSize=1mm|CornerRadius=0.125mm|HoleSize=0mm|Usage=FLASHONLY|Rotation=90.000|XOffset=0mm|YOffset=0mm|HoleType=Round|Shape=RoundedRectangle|*
%AMROUNDEDRECTD31*
21,1,1.4000,0.7500,0,0,90.0*
21,1,1.1500,1.0000,0,0,90.0*
1,1,0.2500,0.3750,0.5750*
1,1,0.2500,0.3750,-0.5750*
1,1,0.2500,-0.3750,-0.5750*
1,1,0.2500,-0.3750,0.5750*
%
%ADD31ROUNDEDRECTD31*%
%ADD32R,1.9000X1.5000*%
%ADD33R,1.3500X0.4000*%
%ADD34R,1.3000X1.5000*%
%ADD35R,2.5000X1.3000*%
%ADD36R,1.0000X1.1000*%
G04:AMPARAMS|DCode=37|XSize=1.8mm|YSize=1.3mm|CornerRadius=0.1625mm|HoleSize=0mm|Usage=FLASHONLY|Rotation=0.000|XOffset=0mm|YOffset=0mm|HoleType=Round|Shape=RoundedRectangle|*
%AMROUNDEDRECTD37*
21,1,1.8000,0.9750,0,0,0.0*
21,1,1.4750,1.3000,0,0,0.0*
1,1,0.3250,0.7375,-0.4875*
1,1,0.3250,-0.7375,-0.4875*
1,1,0.3250,-0.7375,0.4875*
1,1,0.3250,0.7375,0.4875*
%
%ADD37ROUNDEDRECTD37*%
%ADD38R,1.3970X2.9972*%
%ADD39R,2.1500X0.9000*%
%ADD40R,2.1500X3.2500*%
G04:AMPARAMS|DCode=41|XSize=2.7mm|YSize=1.15mm|CornerRadius=0.1437mm|HoleSize=0mm|Usage=FLASHONLY|Rotation=180.000|XOffset=0mm|YOffset=0mm|HoleType=Round|Shape=RoundedRectangle|*
%AMROUNDEDRECTD41*
21,1,2.7000,0.8625,0,0,180.0*
21,1,2.4125,1.1500,0,0,180.0*
1,1,0.2875,-1.2063,0.4313*
1,1,0.2875,1.2063,0.4313*
1,1,0.2875,1.2063,-0.4313*
1,1,0.2875,-1.2063,-0.4313*
%
%ADD41ROUNDEDRECTD41*%
%ADD42R,1.1000X1.0000*%
%ADD43R,1.1500X0.7000*%
%ADD44R,3.2000X4.2000*%
%ADD45R,2.0000X5.0000*%
%ADD46R,5.1000X2.3500*%
%ADD47R,0.6000X1.1500*%
G04:AMPARAMS|DCode=48|XSize=1.2mm|YSize=1.5mm|CornerRadius=0.3mm|HoleSize=0mm|Usage=FLASHONLY|Rotation=0.000|XOffset=0mm|YOffset=0mm|HoleType=Round|Shape=RoundedRectangle|*
%AMROUNDEDRECTD48*
21,1,1.2000,0.9000,0,0,0.0*
21,1,0.6000,1.5000,0,0,0.0*
1,1,0.6000,0.3000,-0.4500*
1,1,0.6000,-0.3000,-0.4500*
1,1,0.6000,-0.3000,0.4500*
1,1,0.6000,0.3000,0.4500*
%
%ADD48ROUNDEDRECTD48*%
G04:AMPARAMS|DCode=49|XSize=1.2mm|YSize=1.5mm|CornerRadius=0.3mm|HoleSize=0mm|Usage=FLASHONLY|Rotation=270.000|XOffset=0mm|YOffset=0mm|HoleType=Round|Shape=RoundedRectangle|*
%AMROUNDEDRECTD49*
21,1,1.2000,0.9000,0,0,270.0*
21,1,0.6000,1.5000,0,0,270.0*
1,1,0.6000,-0.4500,-0.3000*
1,1,0.6000,-0.4500,0.3000*
1,1,0.6000,0.4500,0.3000*
1,1,0.6000,0.4500,-0.3000*
%
%ADD49ROUNDEDRECTD49*%
%ADD50R,1.1500X0.6000*%
%ADD51O,0.5500X1.4000*%
%ADD52O,1.4000X0.5500*%
%ADD73C,1.5000*%
%ADD74R,1.5000X1.5000*%
%ADD75C,3.6000*%
G04:AMPARAMS|DCode=76|XSize=1.5mm|YSize=1.9mm|CornerRadius=0.375mm|HoleSize=0mm|Usage=FLASHONLY|Rotation=270.000|XOffset=0mm|YOffset=0mm|HoleType=Round|Shape=RoundedRectangle|*
%AMROUNDEDRECTD76*
21,1,1.5000,1.1500,0,0,270.0*
21,1,0.7500,1.9000,0,0,270.0*
1,1,0.7500,-0.5750,-0.3750*
1,1,0.7500,-0.5750,0.3750*
1,1,0.7500,0.5750,0.3750*
1,1,0.7500,0.5750,-0.3750*
%
%ADD76ROUNDEDRECTD76*%
%ADD77C,1.4500*%
%ADD78C,1.0000*%
%ADD79O,2.0000X2.6000*%
%ADD80O,3.0000X4.0000*%
G04:AMPARAMS|DCode=81|XSize=0.9mm|YSize=1.1mm|CornerRadius=0mm|HoleSize=0mm|Usage=FLASHONLY|Rotation=180.000|XOffset=0mm|YOffset=0mm|HoleType=Round|Shape=Octagon|*
%AMOCTAGOND81*
4,1,8,0.2250,-0.5500,-0.2250,-0.5500,-0.4500,-0.3250,-0.4500,0.3250,-0.2250,0.5500,0.2250,0.5500,0.4500,0.3250,0.4500,-0.3250,0.2250,-0.5500,0.0*
%
%ADD81OCTAGOND81*%

D10*
X399000Y124000D02*
D03*
Y142000D02*
D03*
X776365Y310625D02*
D03*
Y292625D02*
D03*
X758365Y292625D02*
D03*
Y310625D02*
D03*
D11*
X126000Y111000D02*
D03*
Y128000D02*
D03*
X43500Y165000D02*
D03*
X53500D02*
D03*
X118500D02*
D03*
X108500D02*
D03*
X144540Y165100D02*
D03*
X134540D02*
D03*
X234500Y316500D02*
D03*
X224500D02*
D03*
X210000Y136000D02*
D03*
X200000D02*
D03*
X210000Y91000D02*
D03*
X200000D02*
D03*
X419000Y294500D02*
D03*
X409000D02*
D03*
X698215Y193800D02*
D03*
X688215D02*
D03*
X698215Y179800D02*
D03*
X688215D02*
D03*
X698215Y165800D02*
D03*
X688215D02*
D03*
X144620Y177800D02*
D03*
X134620D02*
D03*
X912575Y539115D02*
D03*
X922575D02*
D03*
X820340Y539114D02*
D03*
X810340D02*
D03*
X634920D02*
D03*
X624920D02*
D03*
X727155D02*
D03*
X737155D02*
D03*
X541735Y539115D02*
D03*
X551735D02*
D03*
X449500Y539114D02*
D03*
X439500D02*
D03*
X86280Y538480D02*
D03*
X76280D02*
D03*
X170895Y539115D02*
D03*
X180895D02*
D03*
X356315Y539114D02*
D03*
X366315D02*
D03*
X264080D02*
D03*
X254080D02*
D03*
X116000Y128000D02*
D03*
Y111000D02*
D03*
D12*
X410100Y195200D02*
D03*
Y185200D02*
D03*
X168500Y118500D02*
D03*
Y108500D02*
D03*
X205000Y176000D02*
D03*
Y166000D02*
D03*
X404000Y267000D02*
D03*
Y257000D02*
D03*
X416000Y267000D02*
D03*
Y257000D02*
D03*
X217000Y156000D02*
D03*
Y166000D02*
D03*
X541000Y284250D02*
D03*
Y274250D02*
D03*
X927100Y568880D02*
D03*
Y558880D02*
D03*
X499745Y245030D02*
D03*
Y235030D02*
D03*
X549910Y245030D02*
D03*
Y235030D02*
D03*
X600709Y245030D02*
D03*
Y235030D02*
D03*
X652145Y245030D02*
D03*
Y235030D02*
D03*
X754000Y216500D02*
D03*
Y226500D02*
D03*
D13*
X182500Y104000D02*
D03*
X208500Y123000D02*
D03*
Y113500D02*
D03*
Y104000D02*
D03*
X182500Y123000D02*
D03*
D14*
X735000Y139500D02*
D03*
Y122500D02*
D03*
D15*
X698750Y125500D02*
D03*
Y132000D02*
D03*
Y138500D02*
D03*
X717250D02*
D03*
Y132000D02*
D03*
Y125500D02*
D03*
D16*
X707600Y138700D02*
D03*
D17*
X708000Y128750D02*
D03*
D18*
X750000Y125500D02*
D03*
Y135500D02*
D03*
X773420Y545000D02*
D03*
Y555000D02*
D03*
X171500Y246500D02*
D03*
Y236500D02*
D03*
X342000Y129000D02*
D03*
Y119000D02*
D03*
X354000Y129000D02*
D03*
Y119000D02*
D03*
X217000Y545000D02*
D03*
Y555000D02*
D03*
X402500Y545000D02*
D03*
Y555000D02*
D03*
X462280Y340000D02*
D03*
Y350000D02*
D03*
X588000Y545000D02*
D03*
Y555000D02*
D03*
X541000Y297250D02*
D03*
Y307250D02*
D03*
X182500Y193500D02*
D03*
Y183500D02*
D03*
X170500Y193500D02*
D03*
Y183500D02*
D03*
X171000Y320500D02*
D03*
Y310500D02*
D03*
X183000Y320500D02*
D03*
Y310500D02*
D03*
X767935Y239205D02*
D03*
Y249205D02*
D03*
X826690Y245030D02*
D03*
Y235030D02*
D03*
X473710Y146130D02*
D03*
Y156130D02*
D03*
X767935Y226845D02*
D03*
Y216845D02*
D03*
X798650Y158100D02*
D03*
Y168100D02*
D03*
X785950Y168100D02*
D03*
Y158100D02*
D03*
X773250Y158100D02*
D03*
Y168100D02*
D03*
X461010Y146130D02*
D03*
Y156130D02*
D03*
X448310Y146130D02*
D03*
Y156130D02*
D03*
X511810Y146130D02*
D03*
Y156130D02*
D03*
X499110Y146130D02*
D03*
Y156130D02*
D03*
X486410Y146130D02*
D03*
Y156130D02*
D03*
X460375Y245030D02*
D03*
Y235030D02*
D03*
X511810Y245030D02*
D03*
Y235030D02*
D03*
X613410Y245030D02*
D03*
Y235030D02*
D03*
X588010Y146130D02*
D03*
Y156130D02*
D03*
X575310Y146130D02*
D03*
Y156130D02*
D03*
X626110Y146130D02*
D03*
Y156130D02*
D03*
X613410Y146130D02*
D03*
Y156130D02*
D03*
X600710Y146130D02*
D03*
Y156130D02*
D03*
X549910Y146130D02*
D03*
Y156130D02*
D03*
X537210Y146130D02*
D03*
Y156130D02*
D03*
X524510Y146130D02*
D03*
Y156130D02*
D03*
X562610Y146130D02*
D03*
Y156130D02*
D03*
X183500Y271500D02*
D03*
Y281500D02*
D03*
X171500Y271500D02*
D03*
Y281500D02*
D03*
X561974Y245030D02*
D03*
Y235030D02*
D03*
X762000Y135500D02*
D03*
Y125500D02*
D03*
D19*
X118500Y98500D02*
D03*
X137500Y92000D02*
D03*
X118500Y85500D02*
D03*
D20*
X151000Y92500D02*
D03*
Y106500D02*
D03*
X901500Y365500D02*
D03*
Y351500D02*
D03*
D21*
X370900Y146100D02*
D03*
X365900D02*
D03*
X360900D02*
D03*
X355900D02*
D03*
X350900D02*
D03*
X345900D02*
D03*
X340900D02*
D03*
X335900D02*
D03*
X330900D02*
D03*
X325900D02*
D03*
X320900D02*
D03*
X315900D02*
D03*
X310900D02*
D03*
X305900D02*
D03*
X300900D02*
D03*
X295900D02*
D03*
X290900D02*
D03*
X285900D02*
D03*
X280900D02*
D03*
X275900D02*
D03*
X270900D02*
D03*
X265900D02*
D03*
X260900D02*
D03*
X255900D02*
D03*
X250900D02*
D03*
Y297100D02*
D03*
X255900D02*
D03*
X260900D02*
D03*
X265900D02*
D03*
X270900D02*
D03*
X275900D02*
D03*
X280900D02*
D03*
X285900D02*
D03*
X290900D02*
D03*
X295900D02*
D03*
X300900D02*
D03*
X305900D02*
D03*
X310900D02*
D03*
X315900D02*
D03*
X320900D02*
D03*
X325900D02*
D03*
X330900D02*
D03*
X335900D02*
D03*
X340900D02*
D03*
X345900D02*
D03*
X350900D02*
D03*
X355900D02*
D03*
X360900D02*
D03*
X365900D02*
D03*
X370900D02*
D03*
D22*
X235400Y161600D02*
D03*
Y166600D02*
D03*
Y171600D02*
D03*
Y176600D02*
D03*
Y181600D02*
D03*
Y186600D02*
D03*
Y191600D02*
D03*
Y196600D02*
D03*
Y201600D02*
D03*
Y206600D02*
D03*
Y211600D02*
D03*
Y216600D02*
D03*
Y221600D02*
D03*
Y226600D02*
D03*
Y231600D02*
D03*
Y236600D02*
D03*
Y241600D02*
D03*
Y246600D02*
D03*
Y251600D02*
D03*
Y256600D02*
D03*
Y261600D02*
D03*
Y266600D02*
D03*
Y271600D02*
D03*
Y276600D02*
D03*
Y281600D02*
D03*
X386400D02*
D03*
Y276600D02*
D03*
Y271600D02*
D03*
Y266600D02*
D03*
Y261600D02*
D03*
Y256600D02*
D03*
Y251600D02*
D03*
Y246600D02*
D03*
Y241600D02*
D03*
Y236600D02*
D03*
Y231600D02*
D03*
Y226600D02*
D03*
Y221600D02*
D03*
Y216600D02*
D03*
Y211600D02*
D03*
Y206600D02*
D03*
Y201600D02*
D03*
Y196600D02*
D03*
Y191600D02*
D03*
Y186600D02*
D03*
Y181600D02*
D03*
Y176600D02*
D03*
Y171600D02*
D03*
Y166600D02*
D03*
Y161600D02*
D03*
D23*
X358400Y325700D02*
D03*
X368400D02*
D03*
X267400Y327800D02*
D03*
X257400D02*
D03*
X108600Y178000D02*
D03*
X118600D02*
D03*
X247400Y316180D02*
D03*
X257400D02*
D03*
X375250Y129000D02*
D03*
X365250D02*
D03*
X358400Y314200D02*
D03*
X368400D02*
D03*
X90000Y145000D02*
D03*
X80000D02*
D03*
X843200Y392430D02*
D03*
X833200D02*
D03*
X864950D02*
D03*
X874950D02*
D03*
X887810Y539115D02*
D03*
X897810D02*
D03*
X792560Y551815D02*
D03*
X802560D02*
D03*
X607140D02*
D03*
X617140D02*
D03*
X754935D02*
D03*
X744935D02*
D03*
X702390Y539115D02*
D03*
X712390D02*
D03*
X679530Y392430D02*
D03*
X689530D02*
D03*
X657780D02*
D03*
X647780D02*
D03*
X472360D02*
D03*
X462360D02*
D03*
X494110D02*
D03*
X504110D02*
D03*
X516970Y539115D02*
D03*
X526970D02*
D03*
X569515Y551815D02*
D03*
X559515D02*
D03*
X421720D02*
D03*
X431720D02*
D03*
X123270Y392430D02*
D03*
X133270D02*
D03*
X146130Y539115D02*
D03*
X156130D02*
D03*
X101520Y392430D02*
D03*
X91520D02*
D03*
X198675Y551815D02*
D03*
X188675D02*
D03*
X52150Y538480D02*
D03*
X62150D02*
D03*
X308690Y392430D02*
D03*
X318690D02*
D03*
X331550Y539115D02*
D03*
X341550D02*
D03*
X384095Y551815D02*
D03*
X374095D02*
D03*
X236300D02*
D03*
X246300D02*
D03*
X738000Y249000D02*
D03*
X728000D02*
D03*
X286940Y392430D02*
D03*
X276940D02*
D03*
D24*
X613410Y107880D02*
D03*
X603910Y130880D02*
D03*
X622910D02*
D03*
X499110Y107880D02*
D03*
X489610Y130880D02*
D03*
X508610D02*
D03*
X575310Y107880D02*
D03*
X565810Y130880D02*
D03*
X584810D02*
D03*
X461010Y107880D02*
D03*
X451510Y130880D02*
D03*
X470510D02*
D03*
X537210Y107880D02*
D03*
X527710Y130880D02*
D03*
X546710D02*
D03*
D25*
X21800Y324866D02*
D03*
X12800Y192786D02*
D03*
D26*
X152800Y308864D02*
D03*
Y248920D02*
D03*
D27*
X50800Y315722D02*
D03*
Y304800D02*
D03*
X46800Y293878D02*
D03*
X50800Y282702D02*
D03*
X46800Y271780D02*
D03*
X50800Y260858D02*
D03*
X54800Y249682D02*
D03*
X50800Y238760D02*
D03*
D28*
X422500Y307500D02*
D03*
X405500D02*
D03*
X728215Y193800D02*
D03*
X711215D02*
D03*
X728215Y179800D02*
D03*
X711215D02*
D03*
X728215Y165800D02*
D03*
X711215D02*
D03*
X452510Y170180D02*
D03*
X469510D02*
D03*
X490610D02*
D03*
X507610D02*
D03*
X794500Y181500D02*
D03*
X777500D02*
D03*
X621910Y170180D02*
D03*
X604910D02*
D03*
X583810D02*
D03*
X566810D02*
D03*
X545710D02*
D03*
X528710D02*
D03*
D29*
X419900Y207000D02*
D03*
Y219000D02*
D03*
Y231000D02*
D03*
D30*
X338219Y352980D02*
D03*
X261220D02*
D03*
X147320Y353060D02*
D03*
X467360Y214630D02*
D03*
X631190Y303530D02*
D03*
X335280Y88710D02*
D03*
X510540Y344440D02*
D03*
X904139Y586680D02*
D03*
X718719D02*
D03*
X533299D02*
D03*
X162459D02*
D03*
X347879D02*
D03*
X281338Y24100D02*
D03*
X99728D02*
D03*
X850900Y350520D02*
D03*
X744119Y586680D02*
D03*
X187860Y586680D02*
D03*
X373280D02*
D03*
X558700D02*
D03*
X519430Y303530D02*
D03*
D31*
X90500Y170500D02*
D03*
X72500D02*
D03*
D32*
X19000Y81500D02*
D03*
Y102000D02*
D03*
Y122000D02*
D03*
Y142500D02*
D03*
D33*
X46000Y112000D02*
D03*
Y105500D02*
D03*
Y99000D02*
D03*
Y118500D02*
D03*
Y125000D02*
D03*
D34*
X73500Y88000D02*
D03*
X92500D02*
D03*
D35*
X640334Y347980D02*
D03*
X678180D02*
D03*
D36*
X877675Y350275D02*
D03*
Y367275D02*
D03*
X727535Y350275D02*
D03*
Y367275D02*
D03*
X541655Y350275D02*
D03*
Y367275D02*
D03*
X170815Y350275D02*
D03*
Y367275D02*
D03*
X356695Y350275D02*
D03*
Y367275D02*
D03*
D37*
X944245Y495405D02*
D03*
Y524405D02*
D03*
X788035Y495405D02*
D03*
Y524405D02*
D03*
X602615Y495405D02*
D03*
Y524405D02*
D03*
X758825Y495405D02*
D03*
Y524405D02*
D03*
X573405Y495405D02*
D03*
Y524405D02*
D03*
X417195Y495405D02*
D03*
Y524405D02*
D03*
X45720Y522500D02*
D03*
Y493500D02*
D03*
X202565Y495405D02*
D03*
Y524405D02*
D03*
X387985Y495405D02*
D03*
Y524405D02*
D03*
X231775Y495405D02*
D03*
Y524405D02*
D03*
D38*
X772160Y348480D02*
D03*
Y396486D02*
D03*
X586740Y348480D02*
D03*
Y396486D02*
D03*
X215900Y348480D02*
D03*
Y396486D02*
D03*
X401320Y348480D02*
D03*
Y396486D02*
D03*
X892810Y272804D02*
D03*
Y320810D02*
D03*
D39*
X733465Y268565D02*
D03*
Y291465D02*
D03*
Y314365D02*
D03*
D40*
X674965Y291465D02*
D03*
D41*
X850820Y247410D02*
D03*
Y217410D02*
D03*
D42*
X827500Y125000D02*
D03*
X810500D02*
D03*
D43*
X845000Y174050D02*
D03*
Y161350D02*
D03*
Y148650D02*
D03*
Y135950D02*
D03*
D44*
X875000Y155000D02*
D03*
D45*
X900880Y154746D02*
D03*
D46*
X822960Y274525D02*
D03*
Y316025D02*
D03*
D47*
X798750Y246910D02*
D03*
X808250Y246660D02*
D03*
Y223160D02*
D03*
X798750D02*
D03*
X789250D02*
D03*
Y246910D02*
D03*
D48*
X882015Y242140D02*
D03*
Y220140D02*
D03*
D49*
X782525Y268605D02*
D03*
X760525D02*
D03*
D50*
X96250Y129000D02*
D03*
X72500D02*
D03*
Y119500D02*
D03*
Y110000D02*
D03*
X96000D02*
D03*
X96250Y119500D02*
D03*
D51*
X349880Y408455D02*
D03*
X341880D02*
D03*
X333880D02*
D03*
X325880D02*
D03*
X317880D02*
D03*
X309880D02*
D03*
X301880D02*
D03*
X293880D02*
D03*
X285880D02*
D03*
X277880D02*
D03*
X269880D02*
D03*
Y522455D02*
D03*
X277880D02*
D03*
X285880D02*
D03*
X293880D02*
D03*
X301880D02*
D03*
X309880D02*
D03*
X317880D02*
D03*
X325880D02*
D03*
X333880D02*
D03*
X341880D02*
D03*
X349880D02*
D03*
X164460D02*
D03*
X156460D02*
D03*
X148460D02*
D03*
X140460D02*
D03*
X132460D02*
D03*
X124460D02*
D03*
X116460D02*
D03*
X108460D02*
D03*
X100460D02*
D03*
X92460D02*
D03*
X84460D02*
D03*
Y408455D02*
D03*
X92460D02*
D03*
X100460D02*
D03*
X108460D02*
D03*
X116460D02*
D03*
X124460D02*
D03*
X132460D02*
D03*
X140460D02*
D03*
X148460D02*
D03*
X156460D02*
D03*
X164460D02*
D03*
X535300D02*
D03*
X527300D02*
D03*
X519300D02*
D03*
X511300D02*
D03*
X503300D02*
D03*
X495300D02*
D03*
X487300D02*
D03*
X479300D02*
D03*
X471300D02*
D03*
X463300D02*
D03*
X455300D02*
D03*
Y522455D02*
D03*
X463300D02*
D03*
X471300D02*
D03*
X479300D02*
D03*
X487300D02*
D03*
X495300D02*
D03*
X503300D02*
D03*
X511300D02*
D03*
X519300D02*
D03*
X527300D02*
D03*
X535300D02*
D03*
X720720D02*
D03*
X712720D02*
D03*
X704720D02*
D03*
X696720D02*
D03*
X688720D02*
D03*
X680720D02*
D03*
X672720D02*
D03*
X664720D02*
D03*
X656720D02*
D03*
X648720D02*
D03*
X640720D02*
D03*
Y408455D02*
D03*
X648720D02*
D03*
X656720D02*
D03*
X664720D02*
D03*
X672720D02*
D03*
X680720D02*
D03*
X688720D02*
D03*
X696720D02*
D03*
X704720D02*
D03*
X712720D02*
D03*
X720720D02*
D03*
X906140D02*
D03*
X898140D02*
D03*
X890140D02*
D03*
X882140D02*
D03*
X874140D02*
D03*
X866140D02*
D03*
X858140D02*
D03*
X850140D02*
D03*
X842140D02*
D03*
X834140D02*
D03*
X826140D02*
D03*
Y522455D02*
D03*
X834140D02*
D03*
X842140D02*
D03*
X850140D02*
D03*
X858140D02*
D03*
X866140D02*
D03*
X874140D02*
D03*
X882140D02*
D03*
X890140D02*
D03*
X898140D02*
D03*
X906140D02*
D03*
D52*
X252880Y425455D02*
D03*
Y433455D02*
D03*
Y441455D02*
D03*
Y449455D02*
D03*
Y457455D02*
D03*
Y465455D02*
D03*
Y473455D02*
D03*
Y481455D02*
D03*
Y489455D02*
D03*
Y497455D02*
D03*
Y505455D02*
D03*
X366880D02*
D03*
Y497455D02*
D03*
Y489455D02*
D03*
Y481455D02*
D03*
Y473455D02*
D03*
Y465455D02*
D03*
Y457455D02*
D03*
Y449455D02*
D03*
Y441455D02*
D03*
Y433455D02*
D03*
Y425455D02*
D03*
X181460D02*
D03*
Y433455D02*
D03*
Y441455D02*
D03*
Y449455D02*
D03*
Y457455D02*
D03*
Y465455D02*
D03*
Y473455D02*
D03*
Y481455D02*
D03*
Y489455D02*
D03*
Y497455D02*
D03*
Y505455D02*
D03*
X67460D02*
D03*
Y497455D02*
D03*
Y489455D02*
D03*
Y481455D02*
D03*
Y473455D02*
D03*
Y465455D02*
D03*
Y457455D02*
D03*
Y449455D02*
D03*
Y441455D02*
D03*
Y433455D02*
D03*
Y425455D02*
D03*
X438300D02*
D03*
Y433455D02*
D03*
Y441455D02*
D03*
Y449455D02*
D03*
Y457455D02*
D03*
Y465455D02*
D03*
Y473455D02*
D03*
Y481455D02*
D03*
Y489455D02*
D03*
Y497455D02*
D03*
Y505455D02*
D03*
X552300D02*
D03*
Y497455D02*
D03*
Y489455D02*
D03*
Y481455D02*
D03*
Y473455D02*
D03*
Y465455D02*
D03*
Y457455D02*
D03*
Y449455D02*
D03*
Y441455D02*
D03*
Y433455D02*
D03*
Y425455D02*
D03*
X737720D02*
D03*
Y433455D02*
D03*
Y441455D02*
D03*
Y449455D02*
D03*
Y457455D02*
D03*
Y465455D02*
D03*
Y473455D02*
D03*
Y481455D02*
D03*
Y489455D02*
D03*
Y497455D02*
D03*
Y505455D02*
D03*
X623720D02*
D03*
Y497455D02*
D03*
Y489455D02*
D03*
Y481455D02*
D03*
Y473455D02*
D03*
Y465455D02*
D03*
Y457455D02*
D03*
Y449455D02*
D03*
Y441455D02*
D03*
Y433455D02*
D03*
Y425455D02*
D03*
X809140D02*
D03*
Y433455D02*
D03*
Y441455D02*
D03*
Y449455D02*
D03*
Y457455D02*
D03*
Y465455D02*
D03*
Y473455D02*
D03*
Y481455D02*
D03*
Y489455D02*
D03*
Y497455D02*
D03*
Y505455D02*
D03*
X923140D02*
D03*
Y497455D02*
D03*
Y489455D02*
D03*
Y481455D02*
D03*
Y473455D02*
D03*
Y465455D02*
D03*
Y457455D02*
D03*
Y449455D02*
D03*
Y441455D02*
D03*
Y433455D02*
D03*
Y425455D02*
D03*
D73*
X20320Y353060D02*
D03*
X121920D02*
D03*
X96520D02*
D03*
X71120D02*
D03*
X45720D02*
D03*
X590550Y34290D02*
D03*
X615950Y59690D02*
D03*
X590550D02*
D03*
X615950Y85090D02*
D03*
X590550D02*
D03*
X594360Y214630D02*
D03*
X492760D02*
D03*
X518160D02*
D03*
X543560D02*
D03*
X568960D02*
D03*
X619760D02*
D03*
X645160D02*
D03*
X631190Y278130D02*
D03*
X605790Y303530D02*
D03*
Y278130D02*
D03*
X580390Y303530D02*
D03*
Y278130D02*
D03*
X411480Y88710D02*
D03*
X386080D02*
D03*
X360680D02*
D03*
X984400Y517200D02*
D03*
Y491800D02*
D03*
Y466400D02*
D03*
X485140Y344440D02*
D03*
X904139Y561280D02*
D03*
X878739D02*
D03*
X853339D02*
D03*
X827939D02*
D03*
X878739Y586680D02*
D03*
X853339D02*
D03*
X827939D02*
D03*
X718719Y561280D02*
D03*
X693319D02*
D03*
X667919D02*
D03*
X642519D02*
D03*
X693319Y586680D02*
D03*
X667919D02*
D03*
X642519D02*
D03*
X533299Y561280D02*
D03*
X507899D02*
D03*
X482499D02*
D03*
X457099D02*
D03*
X507899Y586680D02*
D03*
X482499D02*
D03*
X457099D02*
D03*
X162459Y561280D02*
D03*
X137059D02*
D03*
X111659D02*
D03*
X86259D02*
D03*
X137059Y586680D02*
D03*
X111659D02*
D03*
X86259D02*
D03*
X347879Y561280D02*
D03*
X322479D02*
D03*
X297079D02*
D03*
X271679D02*
D03*
X322479Y586680D02*
D03*
X297079D02*
D03*
X271679D02*
D03*
X281338Y49500D02*
D03*
X306738Y24100D02*
D03*
Y49500D02*
D03*
X332138Y24100D02*
D03*
Y49500D02*
D03*
X357538Y24100D02*
D03*
Y49500D02*
D03*
X382938Y24100D02*
D03*
Y49500D02*
D03*
X99728D02*
D03*
X125128Y24100D02*
D03*
Y49500D02*
D03*
X150528Y24100D02*
D03*
Y49500D02*
D03*
X175928Y24100D02*
D03*
Y49500D02*
D03*
X201328Y24100D02*
D03*
Y49500D02*
D03*
X825500Y350520D02*
D03*
X984400Y216900D02*
D03*
X959000D02*
D03*
X984400Y242300D02*
D03*
X959000D02*
D03*
X984400Y267700D02*
D03*
X959000D02*
D03*
X984400Y293100D02*
D03*
X959000D02*
D03*
X984400Y318500D02*
D03*
X959000D02*
D03*
X984400Y343900D02*
D03*
X959000D02*
D03*
X984400Y369300D02*
D03*
X959000Y191500D02*
D03*
X984400D02*
D03*
Y166100D02*
D03*
X959000D02*
D03*
Y140700D02*
D03*
X984400D02*
D03*
X769519Y586680D02*
D03*
X794919D02*
D03*
X651510Y160020D02*
D03*
Y134620D02*
D03*
X213260Y586680D02*
D03*
X238660D02*
D03*
X398680D02*
D03*
X424080D02*
D03*
X584100D02*
D03*
X609500D02*
D03*
X20320Y393700D02*
D03*
Y495300D02*
D03*
Y469900D02*
D03*
Y444500D02*
D03*
Y419100D02*
D03*
X519430Y278130D02*
D03*
X494030Y303530D02*
D03*
Y278130D02*
D03*
X468630Y303530D02*
D03*
Y278130D02*
D03*
D74*
X615950Y34290D02*
D03*
X984400Y441000D02*
D03*
X959000Y369300D02*
D03*
X651510Y185420D02*
D03*
X20320Y520700D02*
D03*
D75*
X970000Y30000D02*
D03*
X30000D02*
D03*
X970000Y570000D02*
D03*
X30000D02*
D03*
D76*
X19000Y77000D02*
D03*
Y147000D02*
D03*
D77*
X46000Y87000D02*
D03*
Y137000D02*
D03*
D78*
X918020Y155004D02*
D03*
X905066Y126429D02*
D03*
X866204D02*
D03*
X905066Y183579D02*
D03*
X866204D02*
D03*
X918020Y126429D02*
D03*
X879158D02*
D03*
X918020Y140717D02*
D03*
Y169292D02*
D03*
Y183579D02*
D03*
X879158D02*
D03*
X892112Y126429D02*
D03*
Y183579D02*
D03*
D79*
X447050Y60000D02*
D03*
X482050D02*
D03*
X517049D02*
D03*
X552050D02*
D03*
D80*
X658730Y61000D02*
D03*
X708730D02*
D03*
X808730D02*
D03*
X758730D02*
D03*
X858730D02*
D03*
X908730D02*
D03*
D81*
X162200Y386500D02*
D03*
X149500D02*
D03*
X347620D02*
D03*
X334920D02*
D03*
X533085Y386545D02*
D03*
X520385D02*
D03*
X718505D02*
D03*
X705805D02*
D03*
X903925D02*
D03*
X891225D02*
D03*
M02*
