M48
;Layer_Color=9474304
;FILE_FORMAT=4:4
METRIC
;TYPE=PLATED
T1F00S00C0.3000
T2F00S00C0.4000
T3F00S00C0.5000
T5F00S00C0.6600
T6F00S00C0.8500
T7F00S00C0.9000
T8F00S00C1.0000
T9F00S00C1.2000
T10F00S00C3.2000
%
T01
X00980500Y00108500
X00834000Y00136000
X00795000Y00151000
X00773000Y00149000
X00756000Y00141000
X00704000Y00150000
X00695000
X00686000
X00677000
Y00141000
Y00131000
X00697000Y00105000
X00705000
X00713000
X00721000
X00623250Y00107500
X00603570
X00594290Y00104620
Y00114620
X00585150Y00107500
X00565470
X00556189Y00104620
Y00114620
X00547050Y00107500
X00527370
X00518089Y00104620
Y00114620
X00517049Y00090000
X00507049
X00527049
X00538000Y00164500
X00505500Y00163500
X00586500Y00178500
X00613000Y00180000
X00480000Y00164000
X00479990Y00134620
Y00124620
Y00114620
Y00104620
X00457050Y00090000
X00447050
X00437050
X00437000Y00105000
Y00115000
Y00125000
Y00135000
X00420500Y00140500
X00411500Y00136500
X00409500Y00124000
X00399000Y00115436
X00388436Y00124000
X00375500Y00123000
X00366000
X00360500Y00111500
X00339000Y00106000
X00327000Y00069000
X00274500Y00074000
X00254500Y00067000
X00250000Y00058000
X00251000Y00044000
X00247500Y00094000
X00255000Y00121500
X00237500Y00146000
X00211000Y00156000
Y00166000
X00200500Y00153000
X00201500Y00144500
X00199000Y00123000
Y00113500
Y00104500
X00174500Y00108500
Y00119000
X00170500Y00092500
X00128000Y00099000
X00115500Y00119500
X00109000Y00152000
X00138000Y00151500
X00149000Y00153500
X00163500Y00164500
X00175000Y00170000
X00176500Y00183500
X00251500Y00176500
X00268000Y00176000
X00276000Y00185500
X00281500Y00169500
X00331500Y00163500
X00358000Y00165000
X00364500Y00170500
X00362000Y00183500
X00353999Y00181000
X00372500Y00186500
X00403500Y00187000
X00409000Y00172000
X00433000Y00163500
X00438000Y00157000
X00386000Y00136500
X00072500Y00195000
X00067000Y00203500
X00058500Y00189500
X00049500Y00217500
X00079500
X00031500Y00231999
X00013500Y00218000
X00021000Y00298000
X00068500Y00307000
X00083620Y00357475
X00047500Y00391000
X00054000Y00397500
X00043815Y00533670
X00036830
X00099060Y00538480
X00093980Y00509270
X00132715
X00140970
X00149182Y00509313
X00133350Y00535940
X00200085Y00537040
X00208085
X00208010Y00544025
Y00551010
X00208005Y00558195
X00226425Y00557995
Y00551010
Y00544025
Y00537040
X00234425
X00217000Y00536000
X00276000Y00544000
X00286500Y00509270
X00318135Y00509270
X00326390
X00334602Y00509313
X00318770Y00535940
X00385505Y00537040
X00393505
X00393430Y00544025
Y00551010
X00393425Y00558195
X00411845Y00557995
Y00551010
Y00544025
Y00537040
X00419845
X00402500Y00536000
X00461420Y00544000
X00471920Y00509270
X00382500Y00404500
X00361580Y00408500
X00376335Y00349250
Y00340360
X00382050Y00344805
X00387765Y00349250
Y00340360
X00424275
Y00349250
X00429990Y00344805
X00435705Y00349250
Y00340360
X00428000Y00327000
X00414500Y00321000
X00389000Y00304500
X00379000Y00302000
X00368160Y00319800
X00358080Y00319900
X00347500Y00320500
X00341000Y00325500
X00334999Y00319687
X00322999Y00320499
X00328999Y00326499
X00316500Y00337000
X00309000Y00352000
X00292999Y00348499
X00293000Y00338500
X00285500Y00333500
X00286000Y00315000
X00303000Y00317499
X00257400Y00321990
X00247400Y00322080
X00234500Y00323500
X00238000Y00337000
X00236855Y00347360
Y00356250
X00242570Y00351805
X00248285Y00347360
Y00356250
X00286000Y00353500
X00285000Y00281500
X00271500Y00270500
X00261500Y00279500
X00258500Y00262500
X00270000Y00244000
X00276000Y00237000
X00297500Y00248500
X00312000Y00272500
X00322000Y00269500
X00326000Y00278000
X00359000Y00277500
X00369500Y00251500
X00367500Y00240500
X00357000Y00237000
X00348500Y00221000
X00343000Y00214000
X00336500Y00208000
X00331500Y00200500
X00356515Y00198000
X00362500Y00205500
X00367000Y00212500
X00405500Y00199800
X00422500Y00195000
X00444500Y00199000
X00439000Y00205000
X00432900Y00219100
X00443500Y00251000
X00450000Y00245500
X00468565Y00245000
X00464000Y00255500
X00445000Y00275000
X00447500Y00290500
X00410000Y00266600
Y00256600
X00337000Y00245500
X00329500Y00226500
X00310000Y00187500
X00302500
X00295000
X00257500Y00207500
X00218000Y00211500
X00213000Y00224000
X00206000Y00231500
X00209000Y00239000
X00213000Y00247999
X00203000Y00218000
X00149500Y00213000
X00141500Y00209000
X00135000Y00215500
X00123500Y00223000
X00109500Y00229000
X00088000Y00235000
X00100000Y00261500
Y00283000
X00098500Y00306500
X00117500Y00305000
X00134500Y00303500
X00144000Y00290499
X00143500Y00277500
X00135500Y00235499
X00117500Y00199500
X00118600Y00191400
X00108500Y00192000
X00090500Y00195000
X00218750Y00285500
X00221000Y00293500
X00229000Y00299000
X00224500Y00310000
X00212500Y00322499
X00194945Y00345360
Y00354250
X00189230Y00349805
X00183515Y00354250
Y00345360
X00176000Y00386500
X00181000Y00393500
X00177000Y00400500
X00176000Y00408500
X00202500Y00409000
X00232000Y00384196
X00486800Y00392600
X00511000Y00392700
X00547000Y00408500
X00602500Y00399500
X00607695Y00349250
Y00340360
X00613410Y00344805
X00619125Y00349250
Y00340360
X00565785
Y00349250
X00560070Y00344805
X00554355Y00340360
Y00349250
X00563000Y00327000
X00576580Y00322580
X00570000Y00245000
X00535000Y00247500
X00520000Y00245000
X00499000Y00257500
X00485500Y00260500
X00534000Y00273000
X00625000Y00243000
X00682000Y00220000
X00728000Y00255000
X00754000Y00255000
Y00247000
Y00236000
X00777500Y00219500
X00826000Y00220000
X00831000Y00226000
X00821000
X00844470Y00232410
X00850820
X00857170
X00855920Y00310000
X00861920Y00317000
X00855920Y00324000
X00790000
X00784000Y00317000
X00790000Y00310000
X00793115Y00340360
Y00349250
X00798830Y00344805
X00804545Y00349250
Y00340360
X00751205
Y00349250
X00745490Y00344805
X00739775Y00340360
Y00349250
X00715000Y00346000
X00707000
X00699000
X00703000Y00353000
X00711000
X00689000Y00329500
X00681500
X00679260Y00386000
X00689260
X00732420Y00408500
X00756500Y00403000
X00742500Y00300500
X00734500
X00726500
X00767500Y00282000
X00808000Y00290000
X00864680Y00384500
X00874680
X00874395Y00509270
X00875030Y00535940
X00832260Y00541020
X00842760Y00509270
X00790685Y00537040
X00782685
Y00544025
Y00551010
Y00557995
X00764265Y00558195
X00764270Y00551010
Y00544025
X00764345Y00537040
X00756345
X00773420Y00536000
X00689610Y00535940
X00688975Y00509270
X00697230
X00705442Y00509313
X00657340Y00509270
X00646840Y00544000
X00605265Y00537040
X00597265
Y00544025
Y00551010
Y00557995
X00578845Y00558195
X00578850Y00551010
Y00544025
X00578925Y00537040
X00570925
X00588000Y00536000
X00504190Y00535940
X00503555Y00509270
X00511810
X00520022Y00509313
X00882650Y00509270
X00890862Y00509313
X00941765Y00537040
X00949765
X00961385Y00533195
X00961390Y00526010
X00961395Y00518825
X00964000Y00496000
X00967000Y00422000
X00972000Y00412000
X00977750Y00405750
X00917840Y00408500
X00932998Y00374999
X00937000Y00360000
X00923000Y00347500
X00917000Y00337000
X00904500Y00338500
X00906785Y00322445
Y00313555
X00912500Y00318000
X00918215Y00313555
Y00322445
X00907000Y00241000
X00897000
X00902000Y00233000
X00897000Y00225000
X00907000
X00929640Y00579120
T02
X00106000Y00099500
X00060560Y00272000
Y00294098
X00046544Y00422540
Y00432540
Y00442540
Y00452540
Y00462540
Y00472540
X00097790Y00472760
Y00462760
Y00452760
Y00442760
Y00482760
Y00492760
X00145545Y00487520
Y00477520
Y00467360
Y00457200
Y00447040
Y00436540
X00202545Y00433070
Y00422540
Y00444500
Y00455930
Y00466232
Y00476232
X00231964Y00472540
Y00462540
Y00452540
Y00442540
Y00432540
Y00422540
X00283210Y00442760
Y00452760
Y00462760
Y00472760
Y00482760
Y00492760
X00330965Y00487520
Y00477520
Y00467360
Y00457200
Y00447040
Y00436540
X00387965Y00433070
Y00422540
Y00444500
Y00455930
Y00466232
Y00476232
X00417384Y00472540
Y00462540
Y00452540
Y00442540
Y00432540
Y00422540
X00468630Y00442760
Y00452760
Y00462760
Y00472760
Y00482760
Y00492760
X00318420Y00384000
X00308420
X00133000
X00123000
X00516385Y00436540
Y00447040
Y00457200
Y00467360
Y00477520
Y00487520
X00573385Y00476232
Y00466232
Y00455930
Y00444500
Y00433070
Y00422540
X00602804
Y00432540
Y00442540
Y00452540
Y00462540
Y00472540
X00654050Y00472760
Y00462760
Y00452760
Y00442760
Y00482760
Y00492760
X00701805Y00487520
Y00477520
Y00467360
Y00457200
Y00447040
Y00436540
X00758805Y00433070
Y00422540
Y00444500
Y00455930
Y00466232
Y00476232
X00788224Y00472540
Y00462540
Y00452540
Y00442540
Y00432540
Y00422540
X00839470Y00442760
Y00452760
Y00462760
Y00472760
Y00482760
Y00492760
X00651000Y00317000
Y00307000
Y00297000
Y00287000
Y00277000
X00887225Y00436540
Y00447040
Y00457200
Y00467360
Y00477520
Y00487520
X00944225Y00476232
Y00466232
Y00455930
Y00444500
Y00433070
Y00422540
T03
X00879158Y00126429
X00892112
X00905066
X00918020
Y00140717
Y00155004
Y00169292
Y00183579
X00905066
X00892112
X00879158
X00929500Y00176435
Y00162147
Y00147860
Y00133572
X00866204Y00126429
Y00183579
X00827000Y00184000
Y00172000
Y00160000
Y00148000
X00816000Y00154000
Y00166000
Y00178000
T05
X00149500Y00386500
X00162200
X00334920
X00347620
X00520385Y00386545
X00533085
X00705805
X00718505
X00891225
X00903925
T06
X00046000Y00087000
Y00137000
T07
X00959000Y00140700
Y00166100
X00984400
Y00140700
X00651510Y00134620
Y00160020
Y00185420
X00615950Y00085090
Y00059690
Y00034290
X00590550
Y00059690
Y00085090
X00411480Y00088710
X00386080
X00360680
X00335280
X00332138Y00049500
X00306738
X00281338
Y00024100
X00306738
X00332138
X00357538
Y00049500
X00382938
Y00024100
X00201328
X00175928
X00150528
X00125128
X00099728
Y00049500
X00125128
X00150528
X00175928
X00201328
X00071120Y00353060
X00045720
X00020320
Y00393700
Y00419100
Y00444500
Y00469900
Y00495300
Y00520700
X00086259Y00561280
X00111659
X00137059
X00162459
X00271679
X00297079
X00322479
X00347879
X00457099
X00468630Y00303530
Y00278130
X00467360Y00214630
X00147320Y00353060
X00121920
X00096520
X00485140Y00344440
X00510540
X00519430Y00303530
Y00278130
X00494030
Y00303530
X00580390
X00605790
X00631190
Y00278130
X00605790
X00580390
X00568960Y00214630
X00594360
X00619760
X00645160
X00543560
X00518160
X00492760
X00482499Y00561280
X00507899
X00533299
X00642519
X00667919
X00693319
X00718719
X00827939
X00853339
X00850900Y00350520
X00825500
X00959000Y00343900
Y00318500
Y00293100
Y00267700
Y00242300
Y00216900
X00984400
Y00242300
Y00267700
Y00293100
Y00318500
Y00343900
Y00369300
X00959000
X00984400Y00441000
Y00466400
Y00491800
Y00517200
X00904139Y00561280
X00878739
X00959000Y00191500
X00984400
X00904139Y00586680
X00878739
X00853339
X00827939
X00794919
X00769519
X00744119
X00718719
X00693319
X00667919
X00642519
X00609500Y00586680
X00584100
X00558700
X00533299Y00586680
X00507899
X00482499
X00457099
X00424080Y00586680
X00398680
X00373280
X00347879Y00586680
X00322479
X00297079
X00271679
X00238660Y00586680
X00213260
X00187860
X00162459Y00586680
X00137059
X00111659
X00086259
T08
X00482050Y00060000
X00517049
X00552050
X00447050
T09
X00908730Y00061000
X00858730
X00808730
X00758730
X00708730
X00658730
T10
X00970000Y00030000
X00030000
Y00570000
X00970000
M30
