G04 Layer_Color=128*
%FSLAX44Y44*%
%MOMM*%
G71*
G01*
G75*
%ADD83R,1.0000X1.0000*%
%ADD84R,0.5000X1.0000*%
%ADD85R,1.0000X0.5000*%
%ADD86R,1.1430X2.5400*%
%ADD87R,2.5400X1.3970*%
D83*
X633200Y147200D02*
D03*
Y171200D02*
D03*
Y159200D02*
D03*
D84*
X154000Y91000D02*
D03*
X168000D02*
D03*
X161000D02*
D03*
X904500Y346500D02*
D03*
X897500D02*
D03*
X911500D02*
D03*
X177000Y91000D02*
D03*
X191000D02*
D03*
X184000D02*
D03*
X207000D02*
D03*
X214000D02*
D03*
X200000D02*
D03*
X182000Y179500D02*
D03*
X175000D02*
D03*
Y163500D02*
D03*
X182000D02*
D03*
D85*
X242000Y37182D02*
D03*
Y51182D02*
D03*
Y44182D02*
D03*
D86*
X128550Y327862D02*
D03*
X148870Y171652D02*
D03*
X8916Y327862D02*
D03*
X28728D02*
D03*
X48794D02*
D03*
X68606D02*
D03*
X88926D02*
D03*
X108738D02*
D03*
X148616D02*
D03*
X128804Y171652D02*
D03*
X108992D02*
D03*
X88926Y171906D02*
D03*
X68860D02*
D03*
X49048D02*
D03*
X28728D02*
D03*
X8916D02*
D03*
D87*
X169444Y299922D02*
D03*
Y280110D02*
D03*
Y260298D02*
D03*
Y239978D02*
D03*
Y220166D02*
D03*
Y199846D02*
D03*
M02*
