G04 Layer_Color=16711935*
%FSLAX44Y44*%
%MOMM*%
G71*
G01*
G75*
%ADD152R,1.7032X1.7032*%
%ADD167C,1.7032*%
%ADD168R,1.7032X1.7032*%
%ADD169O,3.2032X4.2032*%
%ADD170O,2.2032X2.8032*%
%ADD171C,1.2032*%
G04:AMPARAMS|DCode=172|XSize=1.7032mm|YSize=2.1032mm|CornerRadius=0.4766mm|HoleSize=0mm|Usage=FLASHONLY|Rotation=90.000|XOffset=0mm|YOffset=0mm|HoleType=Round|Shape=RoundedRectangle|*
%AMROUNDEDRECTD172*
21,1,1.7032,1.1500,0,0,90.0*
21,1,0.7500,2.1032,0,0,90.0*
1,1,0.9532,0.5750,0.3750*
1,1,0.9532,0.5750,-0.3750*
1,1,0.9532,-0.5750,-0.3750*
1,1,0.9532,-0.5750,0.3750*
%
%ADD172ROUNDEDRECTD172*%
%ADD173C,1.6532*%
%ADD174C,3.8032*%
%ADD175C,0.8032*%
%ADD176R,0.2000X1.2000*%
%ADD177R,1.2032X1.2032*%
%ADD178R,0.7032X1.2032*%
%ADD179R,1.2032X0.7032*%
%ADD180R,1.3462X2.7432*%
%ADD181R,2.7432X1.6002*%
D152*
X519430Y303530D02*
D03*
X558700Y586680D02*
D03*
X373280D02*
D03*
X187860D02*
D03*
X289800Y88710D02*
D03*
X744119Y586680D02*
D03*
X850900Y350520D02*
D03*
X99728Y24100D02*
D03*
X281338D02*
D03*
X347879Y586680D02*
D03*
X162459D02*
D03*
X533299D02*
D03*
X718719D02*
D03*
X904139D02*
D03*
X510540Y345440D02*
D03*
X121920Y353060D02*
D03*
X335280Y88710D02*
D03*
X631190Y303530D02*
D03*
X467360Y214630D02*
D03*
D167*
X468630Y278130D02*
D03*
Y303530D02*
D03*
X494030Y278130D02*
D03*
Y303530D02*
D03*
X519430Y278130D02*
D03*
X20320Y419100D02*
D03*
Y444500D02*
D03*
Y469900D02*
D03*
Y495300D02*
D03*
Y393700D02*
D03*
X609500Y586680D02*
D03*
X584100D02*
D03*
X424080D02*
D03*
X398680D02*
D03*
X238660D02*
D03*
X213260D02*
D03*
X651510Y134620D02*
D03*
Y160020D02*
D03*
X239000Y88710D02*
D03*
X264400D02*
D03*
X794919Y586680D02*
D03*
X769519D02*
D03*
X984400Y140700D02*
D03*
X959000D02*
D03*
Y166100D02*
D03*
X984400D02*
D03*
Y191500D02*
D03*
X959000D02*
D03*
X984400Y369300D02*
D03*
X959000Y343900D02*
D03*
X984400D02*
D03*
X959000Y318500D02*
D03*
X984400D02*
D03*
X959000Y293100D02*
D03*
X984400D02*
D03*
X959000Y267700D02*
D03*
X984400D02*
D03*
X959000Y242300D02*
D03*
X984400D02*
D03*
X959000Y216900D02*
D03*
X984400D02*
D03*
X825500Y350520D02*
D03*
X201328Y49500D02*
D03*
Y24100D02*
D03*
X175928Y49500D02*
D03*
Y24100D02*
D03*
X150528Y49500D02*
D03*
Y24100D02*
D03*
X125128Y49500D02*
D03*
Y24100D02*
D03*
X99728Y49500D02*
D03*
X382938D02*
D03*
Y24100D02*
D03*
X357538Y49500D02*
D03*
Y24100D02*
D03*
X332138Y49500D02*
D03*
Y24100D02*
D03*
X306738Y49500D02*
D03*
Y24100D02*
D03*
X281338Y49500D02*
D03*
X271679Y586680D02*
D03*
X297079D02*
D03*
X322479D02*
D03*
X271679Y561280D02*
D03*
X297079D02*
D03*
X322479D02*
D03*
X347879D02*
D03*
X86259Y586680D02*
D03*
X111659D02*
D03*
X137059D02*
D03*
X86259Y561280D02*
D03*
X111659D02*
D03*
X137059D02*
D03*
X162459D02*
D03*
X457099Y586680D02*
D03*
X482499D02*
D03*
X507899D02*
D03*
X457099Y561280D02*
D03*
X482499D02*
D03*
X507899D02*
D03*
X533299D02*
D03*
X642519Y586680D02*
D03*
X667919D02*
D03*
X693319D02*
D03*
X642519Y561280D02*
D03*
X667919D02*
D03*
X693319D02*
D03*
X718719D02*
D03*
X827939Y586680D02*
D03*
X853339D02*
D03*
X878739D02*
D03*
X827939Y561280D02*
D03*
X853339D02*
D03*
X878739D02*
D03*
X904139D02*
D03*
X485140Y345440D02*
D03*
X20320Y353060D02*
D03*
X45720D02*
D03*
X71120D02*
D03*
X96520D02*
D03*
X984400Y466400D02*
D03*
Y491800D02*
D03*
Y517200D02*
D03*
X360680Y88710D02*
D03*
X386080D02*
D03*
X411480D02*
D03*
X580390Y278130D02*
D03*
Y303530D02*
D03*
X605790Y278130D02*
D03*
Y303530D02*
D03*
X631190Y278130D02*
D03*
X645160Y214630D02*
D03*
X619760D02*
D03*
X568960D02*
D03*
X543560D02*
D03*
X518160D02*
D03*
X492760D02*
D03*
X594360D02*
D03*
X590550Y85090D02*
D03*
X615950D02*
D03*
X590550Y59690D02*
D03*
X615950D02*
D03*
X590550Y34290D02*
D03*
D168*
X20320Y520700D02*
D03*
X651510Y185420D02*
D03*
X959000Y369300D02*
D03*
X984400Y441000D02*
D03*
X615950Y34290D02*
D03*
D169*
X908730Y61000D02*
D03*
X858730D02*
D03*
X758730D02*
D03*
X808730D02*
D03*
X708730D02*
D03*
X658730D02*
D03*
D170*
X552050Y60000D02*
D03*
X517049D02*
D03*
X482050D02*
D03*
X447050D02*
D03*
D171*
X892112Y184579D02*
D03*
Y127429D02*
D03*
X879158Y184579D02*
D03*
X918020D02*
D03*
Y170292D02*
D03*
Y141717D02*
D03*
X879158Y127429D02*
D03*
X918020D02*
D03*
X866204Y184579D02*
D03*
X905066D02*
D03*
X866204Y127429D02*
D03*
X905066D02*
D03*
X918020Y156004D02*
D03*
D172*
X19000Y147000D02*
D03*
Y77000D02*
D03*
D173*
X46000Y137000D02*
D03*
Y87000D02*
D03*
D174*
X30000Y570000D02*
D03*
X970000D02*
D03*
X30000Y30000D02*
D03*
X970000D02*
D03*
D175*
X61000Y60000D02*
D03*
D176*
X178500Y179500D02*
D03*
Y163500D02*
D03*
D177*
X633200Y147200D02*
D03*
Y171200D02*
D03*
Y159200D02*
D03*
D178*
X154000Y91000D02*
D03*
X168000D02*
D03*
X161000D02*
D03*
X904500Y346500D02*
D03*
X897500D02*
D03*
X911500D02*
D03*
X177000Y91000D02*
D03*
X191000D02*
D03*
X184000D02*
D03*
X207000D02*
D03*
X214000D02*
D03*
X200000D02*
D03*
X182000Y179500D02*
D03*
X175000D02*
D03*
Y163500D02*
D03*
X182000D02*
D03*
D179*
X242000Y37182D02*
D03*
Y51182D02*
D03*
Y44182D02*
D03*
D180*
X128550Y327862D02*
D03*
X148870Y171652D02*
D03*
X8916Y327862D02*
D03*
X28728D02*
D03*
X48794D02*
D03*
X68606D02*
D03*
X88926D02*
D03*
X108738D02*
D03*
X148616D02*
D03*
X128804Y171652D02*
D03*
X108992D02*
D03*
X88926Y171906D02*
D03*
X68860D02*
D03*
X49048D02*
D03*
X28728D02*
D03*
X8916D02*
D03*
D181*
X169444Y299922D02*
D03*
Y280110D02*
D03*
Y260298D02*
D03*
Y239978D02*
D03*
Y220166D02*
D03*
Y199846D02*
D03*
M02*
