M48
;Layer_Color=9474304
;FILE_FORMAT=4:4
METRIC
;TYPE=PLATED
T1F00S00C0.3000
T2F00S00C0.4000
T3F00S00C0.5000
T5F00S00C0.8500
T6F00S00C0.9000
T7F00S00C1.0000
T8F00S00C1.2000
T9F00S00C3.2000
%
T01
X00973000Y00088500
X00961000Y00115000
X00834000Y00137000
X00795000Y00151000
X00773000Y00149000
X00756000Y00141000
X00756920Y00162560
Y00170180
Y00177800
Y00185420
X00704000Y00150000
X00695000
X00686000
X00677000
Y00141000
Y00131000
X00697000Y00105000
X00705000
X00713000
X00721000
X00603570Y00107500
X00594290Y00104620
Y00114620
X00585150Y00107500
X00565470
X00556189Y00104620
Y00114620
X00547050Y00107500
X00527370
X00518089Y00104620
Y00114620
X00517049Y00090000
X00527049
X00507049
X00548400Y00180500
X00586500
X00624600
X00479690Y00177320
X00479990Y00134620
Y00124620
Y00114620
Y00104620
X00457050Y00090000
X00447050
X00437050
X00435000Y00105000
Y00115000
Y00125000
Y00135000
X00435500Y00159000
X00438999Y00169999
X00425500Y00165000
X00425700Y00184999
X00361500Y00185500
X00374000Y00171000
X00332500Y00170000
X00317999Y00170999
X00308000Y00174500
X00291500Y00178000
X00297000Y00184000
X00278000Y00170000
X00250000Y00148000
X00248000Y00138000
X00255000Y00123000
X00283000Y00123500
X00306580Y00137915
X00327500Y00125000
X00323580Y00115000
X00341500
X00337000Y00105500
X00354000Y00110000
X00376000Y00101000
X00399000Y00100000
X00393000Y00119000
X00347500Y00138500
X00337500Y00132500
X00218000Y00135000
X00210000
X00195500Y00143500
X00196000Y00152000
X00192000Y00160000
X00161500Y00155500
X00153500Y00146000
X00172000Y00143000
X00153000Y00123500
Y00115500
X00160999Y00102999
X00184000Y00101000
X00190500Y00107500
X00211500Y00104500
X00214000Y00082500
X00191000Y00082000
X00166500Y00075000
X00108000Y00078000
X00100300Y00062800
X00128000Y00099000
X00115500Y00119500
X00117000Y00145000
X00133499Y00153499
X00218440Y00151130
X00236000Y00107500
X00230500Y00051500
X00221000Y00012500
X00256500Y00017500
X00265500Y00025500
X00416500Y00023000
X00422000Y00031000
X00424000Y00039500
X00405000Y00046500
X00074500Y00042000
X00061000Y00060000
X00063000Y00198500
X00075500Y00194500
X00071000Y00213000
X00048000Y00225000
X00049000Y00194000
X00041000
X00016500Y00210000
X00010000Y00216000
X00028000Y00265499
X00084000Y00252500
X00078000Y00244500
X00073000Y00290000
X00070500Y00401320
X00033000Y00404000
X00036830Y00533670
X00043815
X00099060Y00538480
X00093980Y00509270
X00132715
X00140970
X00149182Y00509313
X00133350Y00535940
X00200085Y00537040
X00208085
X00208010Y00544025
Y00551010
X00208005Y00558195
X00226425Y00557995
Y00551010
Y00544025
Y00537040
X00234425
X00217000Y00536000
X00276000Y00544000
X00286500Y00509270
X00318135Y00509270
X00326390
X00334602Y00509313
X00318770Y00535940
X00385505Y00537040
X00393505
X00393430Y00544025
Y00551010
X00393425Y00558195
X00411845Y00557995
Y00551010
Y00544025
Y00537040
X00419845
X00402500Y00536000
X00461420Y00544000
X00471920Y00509270
X00416560Y00396240
X00424275Y00349250
Y00340360
X00429990Y00344805
X00435705Y00340360
Y00349250
X00441960Y00320960
X00429260Y00302260
X00416660
X00416000Y00253600
X00435000Y00240000
X00448000Y00257500
X00465500Y00252000
X00450500Y00286000
X00361000
X00352250Y00279500
X00332500Y00287500
X00322500Y00270000
X00314000Y00251000
X00325500Y00243000
X00339000Y00247500
X00342500Y00227000
X00327000Y00226000
X00355000Y00235500
X00380685Y00223200
X00350000Y00202500
X00317000Y00198000
X00306000
X00300500Y00209500
X00282999Y00214999
X00266999
X00266000Y00240000
X00278571Y00241571
X00274000Y00255500
X00285000Y00255000
X00285500Y00270843
X00298999Y00276999
X00307500Y00283000
X00268500Y00280000
X00267000Y00264000
X00218440Y00265430
Y00255270
X00218000Y00284000
X00204500Y00283000
X00189000Y00276000
X00190000Y00258000
X00200000Y00231500
X00196800Y00219399
X00230000Y00202000
X00286000Y00189500
X00299000Y00245500
X00310500Y00322500
X00304000Y00329500
X00298500Y00338500
X00291500Y00346000
X00283500
X00277420Y00322580
X00251080
X00232500Y00323000
X00222500Y00324000
X00193000Y00327000
X00185500Y00315000
X00174000Y00321000
X00183515Y00345360
Y00354250
X00189230Y00349805
X00194945Y00345360
Y00354250
X00236855Y00356250
Y00347360
X00242570Y00351805
X00248285Y00356250
Y00347360
X00242000Y00402000
X00198120Y00408940
X00190500Y00406400
X00182880Y00403860
X00178599Y00396240
X00161085Y00395040
X00158084Y00386040
X00150084
X00144500Y00293000
X00147500Y00284000
X00134500Y00267000
X00116000Y00262000
X00110000Y00252859
X00103500Y00231000
X00121000Y00226000
X00123000Y00218000
X00130000Y00202000
X00123000Y00192000
X00144620Y00190500
X00145000Y00199000
X00147000Y00211000
X00150000Y00227000
X00136000Y00228000
X00130000Y00237000
X00142420Y00248920
X00135000Y00301500
X00103000Y00300000
X00085000Y00290000
X00086500Y00207000
X00109500Y00208500
X00105500Y00200500
X00164500Y00187500
X00421499Y00197499
X00430000Y00192000
X00429000Y00205000
X00370400Y00320500
X00362180Y00319500
X00368935Y00340360
Y00349250
X00374650Y00344805
X00380365Y00340360
Y00349250
X00343504Y00386040
X00335504
X00346505Y00395040
X00328000Y00319500
X00555000Y00315000
X00563250
X00563000Y00327000
X00565785Y00340360
Y00349250
X00560070Y00344805
X00554355Y00349250
Y00340360
X00576580Y00322580
X00607695Y00340360
Y00349250
X00613410Y00344805
X00619125Y00340360
Y00349250
X00574040Y00393700
X00571000Y00404000
X00533500Y00397615
X00530000Y00390000
X00522000Y00391000
X00520022Y00509313
X00511810Y00509270
X00503555
X00504190Y00535940
X00570925Y00537040
X00578925
X00578850Y00544025
Y00551010
X00578845Y00558195
X00597265Y00557995
Y00551010
Y00544025
Y00537040
X00605265
X00588000Y00536000
X00646840Y00544000
X00657340Y00509270
X00688975Y00509270
X00697230
X00705442Y00509313
X00689610Y00535940
X00756345Y00537040
X00764345
X00764270Y00544025
Y00551010
X00764265Y00558195
X00782685Y00557995
Y00551010
Y00544025
Y00537040
X00790685
X00773420Y00536000
X00832260Y00541020
X00842760Y00509270
X00874395Y00509270
X00875030Y00535940
X00855920Y00324000
X00861920Y00317000
X00855920Y00310000
X00790000
X00784000Y00317000
X00790000Y00324000
X00793115Y00340360
Y00349250
X00798830Y00344805
X00804545Y00340360
Y00349250
X00751205
Y00340360
X00745490Y00344805
X00739775Y00349250
Y00340360
X00742500Y00300500
X00734500
X00726500
X00721015Y00249000
X00748000Y00248000
Y00256000
X00745000Y00235000
X00737000
X00754000
X00777500Y00219500
X00826000Y00220000
X00821000Y00226000
X00831000
X00844470Y00232410
X00850820
X00857170
X00808000Y00290000
X00756920Y00408940
X00717345Y00395040
X00708000Y00394000
X00699000Y00393385
X00613789Y00252190
X00562165Y00251999
X00534000Y00273000
X00512000Y00252000
X00670000Y00191000
X00897000Y00225000
X00907000
X00902000Y00233000
X00907000Y00241000
X00897000
X00933000Y00215000
X00939000Y00209000
X00944000Y00195000
X00918215Y00313555
Y00322445
X00912500Y00318000
X00906785Y00322445
Y00313555
X00904500Y00338500
X00917000Y00337000
X00923000Y00347500
X00932998Y00374999
X00902765Y00395040
X00896000Y00390000
X00888000
X00977750Y00405750
X00972000Y00412000
X00967000Y00422000
X00964000Y00496000
X00961395Y00518825
X00961390Y00526010
X00961385Y00533195
X00949765Y00537040
X00941765
X00929640Y00579120
X00890862Y00509313
X00882650Y00509270
T02
X00106000Y00099500
X00198500Y00183000
X00228000Y00174000
X00396000Y00142000
Y00130000
X00417000Y00157000
X00046544Y00422540
Y00432540
Y00442540
Y00452540
Y00462540
Y00472540
X00097790Y00472760
Y00482760
Y00492760
Y00462760
Y00452760
Y00442760
X00145545Y00447040
Y00457200
Y00467360
Y00477520
Y00487520
Y00436540
X00202545Y00433070
Y00422540
Y00444500
Y00455930
Y00466232
Y00476232
X00231964Y00472540
Y00462540
Y00452540
Y00442540
Y00432540
Y00422540
X00283210Y00442760
Y00452760
Y00462760
Y00472760
Y00482760
Y00492760
X00330965Y00487520
Y00477520
Y00467360
Y00457200
Y00447040
Y00436540
X00387965Y00433070
Y00422540
Y00444500
Y00455930
Y00466232
Y00476232
X00417384Y00472540
Y00462540
Y00452540
Y00442540
Y00432540
Y00422540
X00468630Y00442760
Y00452760
Y00462760
Y00472760
Y00482760
Y00492760
X00318420Y00384000
X00308420
X00133000
X00123000
X00207500Y00202500
X00484500Y00392500
X00513000Y00389500
X00516385Y00436540
Y00447040
Y00457200
Y00467360
Y00477520
Y00487520
X00573385Y00476232
Y00466232
Y00455930
Y00444500
Y00433070
Y00422540
X00602804
Y00432540
Y00442540
Y00452540
Y00462540
Y00472540
X00654050Y00472760
Y00482760
Y00492760
Y00462760
Y00452760
Y00442760
X00701805Y00447040
Y00457200
Y00467360
Y00477520
Y00487520
Y00436540
X00758805Y00433070
Y00422540
Y00444500
Y00455930
Y00466232
Y00476232
X00788224Y00472540
Y00462540
Y00452540
Y00442540
Y00432540
Y00422540
X00839470Y00442760
Y00452760
Y00462760
Y00472760
Y00482760
Y00492760
X00864680Y00384000
X00874680
X00689260Y00384500
X00679260
X00651000Y00317000
Y00307000
Y00297000
Y00287000
Y00277000
Y00266000
X00670500Y00218000
X00681500
X00692500
X00887225Y00436540
Y00447040
Y00457200
Y00467360
Y00477520
Y00487520
X00944225Y00476232
Y00466232
Y00455930
Y00444500
Y00433070
Y00422540
T03
X00879158Y00127429
X00892112
X00905066
X00918020
Y00141717
Y00156004
Y00170292
Y00184579
X00905066
X00892112
X00879158
X00929500Y00177435
Y00163147
Y00148860
Y00134572
X00866204Y00127429
Y00184579
X00827000Y00185000
Y00173000
Y00161000
Y00149000
X00816000Y00155000
Y00167000
Y00179000
T05
X00046000Y00087000
Y00137000
T06
X00959000Y00140700
X00984400
Y00166100
X00959000
X00651510Y00160020
Y00134620
Y00185420
X00615950Y00085090
X00590550
Y00059690
X00615950
Y00034290
X00590550
X00382938Y00024100
Y00049500
X00357538
Y00024100
X00332138
Y00049500
X00306738
Y00024100
X00281338
Y00049500
X00289800Y00088710
X00264400
X00239000
X00201328Y00049500
Y00024100
X00175928
Y00049500
X00150528
Y00024100
X00125128
Y00049500
X00099728
Y00024100
X00335280Y00088710
X00360680
X00386080
X00411480
X00071120Y00353060
X00045720
X00020320
Y00393700
Y00419100
Y00444500
Y00469900
Y00495300
Y00520700
X00086259Y00561280
X00111659
X00137059
X00162459
X00271679
X00297079
X00322479
X00347879
X00457099
X00468630Y00303530
Y00278130
X00467360Y00214630
X00121920Y00353060
X00096520
X00485140Y00345440
X00510540
X00519430Y00303530
X00494030
Y00278130
X00519430
X00580390
Y00303530
X00605790
Y00278130
X00631190
Y00303530
X00619760Y00214630
X00645160
X00594360
X00568960
X00543560
X00518160
X00492760
X00482499Y00561280
X00507899
X00533299
X00642519
X00667919
X00693319
X00718719
X00827939
X00853339
X00850900Y00350520
X00825500
X00959000Y00343900
Y00369300
X00984400
Y00343900
Y00318500
X00959000
Y00293100
X00984400
Y00267700
X00959000
Y00242300
X00984400
Y00216900
Y00191500
X00959000
Y00216900
X00984400Y00441000
Y00466400
Y00491800
Y00517200
X00904139Y00561280
X00878739
Y00586680
X00904139
X00853339
X00827939
X00794919
X00769519
X00744119
X00718719
X00693319
X00667919
X00642519
X00609500Y00586680
X00584100
X00558700
X00533299Y00586680
X00507899
X00482499
X00457099
X00424080Y00586680
X00398680
X00373280
X00347879Y00586680
X00322479
X00297079
X00271679
X00238660Y00586680
X00213260
X00187860
X00162459Y00586680
X00137059
X00111659
X00086259
T07
X00482050Y00060000
X00517049
X00552050
X00447050
T08
X00908730Y00061000
X00858730
X00808730
X00758730
X00708730
X00658730
T09
X00970000Y00030000
X00030000
Y00570000
X00970000
M30
