G04 Layer_Color=65535*
%FSLAX44Y44*%
%MOMM*%
G71*
G01*
G75*
%ADD52C,0.2000*%
%ADD53C,0.2500*%
%ADD54C,0.3000*%
%ADD91C,0.6000*%
%ADD92C,0.0762*%
%ADD93C,0.2540*%
%ADD94C,0.1270*%
%ADD95C,0.1500*%
%ADD96C,0.1000*%
%ADD97C,0.0760*%
%ADD98C,0.3500*%
%ADD99R,1.4224X0.9770*%
%ADD100R,0.1778X0.1270*%
%ADD101R,0.2540X0.3111*%
%ADD102R,0.3169X0.1119*%
%ADD103R,0.1270X0.3862*%
%ADD104R,0.5080X0.3810*%
%ADD105R,0.3810X0.3810*%
%ADD106R,0.2540X0.3810*%
%ADD107R,0.2540X0.3532*%
%ADD108R,2.1590X0.2870*%
%ADD109R,2.1590X0.2318*%
%ADD110R,0.3090X2.5230*%
%ADD111R,0.2730X2.5230*%
%ADD112R,0.8110X2.5000*%
%ADD113R,1.0570X2.5000*%
%ADD114R,2.1590X0.2088*%
%ADD115R,0.2540X0.2881*%
%ADD116R,1.1560X2.5000*%
%ADD117R,1.5240X2.5000*%
%ADD118R,1.6580X2.5900*%
%ADD119R,1.5494X2.5000*%
%ADD120R,1.5240X2.6000*%
%ADD121R,1.5494X2.6000*%
%ADD122R,2.1590X0.3870*%
%ADD123R,7.6500X0.5040*%
%ADD124R,0.4890X4.9230*%
G36*
X628650Y21590D02*
X603500D01*
X603990Y22080D01*
Y25230D01*
X622230Y25230D01*
X624000Y27000D01*
X624000Y92000D01*
X623000Y93000D01*
X609500Y93000D01*
X608500Y92000D01*
X598000D01*
X597000Y93000D01*
X586000D01*
X582000Y89000D01*
Y31000D01*
X588000Y25000D01*
X588230Y25230D01*
X602510D01*
Y22080D01*
X603000Y21590D01*
X577850D01*
Y97790D01*
X628650D01*
Y21590D01*
D02*
G37*
G36*
X33250Y58600D02*
X37800D01*
X39750Y56650D01*
X42350D01*
X44300Y54700D01*
X46250D01*
X50800Y50150D01*
Y49500D01*
X55350Y44950D01*
Y43000D01*
X57300Y41050D01*
X57950Y37150D01*
X59000Y34800D01*
Y30000D01*
X50000D01*
X49500Y30500D01*
Y37150D01*
X47550Y39100D01*
Y40400D01*
X43000Y44950D01*
X42350D01*
X38450Y48850D01*
X34550D01*
X33250Y50150D01*
X30000D01*
Y59250D01*
X32600D01*
X33250Y58600D01*
D02*
G37*
G36*
X970000Y50000D02*
X969500Y49500D01*
X962850D01*
X960900Y47550D01*
X959600D01*
X955050Y43000D01*
Y42350D01*
X951150Y38450D01*
Y34550D01*
X949850Y33250D01*
Y30000D01*
X940750D01*
Y32600D01*
X941400Y33250D01*
Y37800D01*
X943350Y39750D01*
Y42350D01*
X945300Y44300D01*
Y46250D01*
X949850Y50800D01*
X950500D01*
X955050Y55350D01*
X957000D01*
X958950Y57300D01*
X962850Y57950D01*
X965200Y59000D01*
X970000D01*
Y50000D01*
D02*
G37*
G36*
X999250Y27400D02*
X998600Y26750D01*
Y22200D01*
X996650Y20250D01*
Y17650D01*
X994700Y15700D01*
Y13750D01*
X990150Y9200D01*
X989500D01*
X984950Y4650D01*
X983000D01*
X981050Y2700D01*
X977150Y2050D01*
X974800Y1000D01*
X970000D01*
Y10000D01*
X970500Y10500D01*
X977150D01*
X979100Y12450D01*
X980400D01*
X984950Y17000D01*
Y17650D01*
X988850Y21550D01*
Y25450D01*
X990150Y26750D01*
Y30000D01*
X999250D01*
Y27400D01*
D02*
G37*
G36*
X610556Y20979D02*
X608900Y17200D01*
X607100Y12478D01*
X610556Y6156D01*
X614700Y3600D01*
X615400Y500D01*
X607100Y1800D01*
X606200D01*
X603250Y4750D01*
Y21590D01*
X610556Y20979D01*
D02*
G37*
G36*
X628650Y4750D02*
X625700Y1800D01*
X624800D01*
X616500Y500D01*
X617200Y3600D01*
X621344Y6156D01*
X624800Y12478D01*
X623000Y17200D01*
X621344Y20979D01*
X628650Y21590D01*
Y4750D01*
D02*
G37*
G36*
X10500Y29500D02*
Y22850D01*
X12450Y20900D01*
Y19600D01*
X17000Y15050D01*
X17650D01*
X21550Y11150D01*
X25450D01*
X26750Y9850D01*
X30000D01*
Y750D01*
X27400D01*
X26750Y1400D01*
X22200D01*
X20250Y3350D01*
X17650D01*
X15700Y5300D01*
X13750D01*
X9200Y9850D01*
Y10500D01*
X4650Y15050D01*
Y17000D01*
X2700Y18950D01*
X2050Y22850D01*
X1000Y25200D01*
Y30000D01*
X10000D01*
X10500Y29500D01*
D02*
G37*
G36*
X59250Y567400D02*
X58600Y566750D01*
Y562200D01*
X56650Y560250D01*
Y557650D01*
X54700Y555700D01*
Y553750D01*
X50150Y549200D01*
X49500D01*
X44950Y544650D01*
X43000D01*
X41050Y542700D01*
X37150Y542050D01*
X34800Y541000D01*
X30000D01*
Y550000D01*
X30500Y550500D01*
X37150D01*
X39100Y552450D01*
X40400D01*
X44950Y557000D01*
Y557650D01*
X48850Y561550D01*
Y565450D01*
X50150Y566750D01*
Y570000D01*
X59250D01*
Y567400D01*
D02*
G37*
G36*
X30000Y590000D02*
X29500Y589500D01*
X22850D01*
X20900Y587550D01*
X19600D01*
X15050Y583000D01*
Y582350D01*
X11150Y578450D01*
Y574550D01*
X9850Y573250D01*
Y570000D01*
X750D01*
Y572600D01*
X1400Y573250D01*
Y577800D01*
X3350Y579750D01*
Y582350D01*
X5300Y584300D01*
Y586250D01*
X9850Y590800D01*
X10500D01*
X15050Y595350D01*
X17000D01*
X18950Y597300D01*
X22850Y597950D01*
X25200Y599000D01*
X30000D01*
Y590000D01*
D02*
G37*
G36*
X973250Y598600D02*
X977800D01*
X979750Y596650D01*
X982350D01*
X984300Y594700D01*
X986250D01*
X990800Y590150D01*
Y589500D01*
X995350Y584950D01*
Y583000D01*
X997300Y581050D01*
X997950Y577150D01*
X999000Y574800D01*
Y570000D01*
X990000D01*
X989500Y570500D01*
Y577150D01*
X987550Y579100D01*
Y580400D01*
X983000Y584950D01*
X982350D01*
X978450Y588850D01*
X974550D01*
X973250Y590150D01*
X970000D01*
Y599250D01*
X972600D01*
X973250Y598600D01*
D02*
G37*
G36*
X950500Y569500D02*
Y562850D01*
X952450Y560900D01*
Y559600D01*
X957000Y555050D01*
X957650D01*
X961550Y551150D01*
X965450D01*
X966750Y549850D01*
X970000D01*
Y540750D01*
X967400D01*
X966750Y541400D01*
X962200D01*
X960250Y543350D01*
X957650D01*
X955700Y545300D01*
X953750D01*
X949200Y549850D01*
Y550500D01*
X944650Y555050D01*
Y557000D01*
X942700Y558950D01*
X942050Y562850D01*
X941000Y565200D01*
Y570000D01*
X950000D01*
X950500Y569500D01*
D02*
G37*
G36*
X567500Y265620D02*
X567690Y265430D01*
X554130D01*
X550700Y268860D01*
Y275360D01*
X552800Y272960D01*
X553400D01*
X555900Y270460D01*
X562100D01*
X567500Y275760D01*
Y265620D01*
D02*
G37*
G36*
Y291020D02*
X567690Y290830D01*
X567500Y290640D01*
Y280500D01*
X562100Y285800D01*
X555900D01*
X553400Y283300D01*
X552800D01*
X550700Y280900D01*
Y287400D01*
X550000Y288100D01*
X550300Y290830D01*
X550000Y293560D01*
X550700Y294260D01*
Y300760D01*
X552800Y298360D01*
X553400D01*
X555900Y295860D01*
X562100D01*
X567500Y301160D01*
Y291020D01*
D02*
G37*
G36*
Y316040D02*
Y305900D01*
X562100Y311200D01*
X555900D01*
X553400Y308700D01*
X552800D01*
X550700Y306300D01*
Y312800D01*
X550300Y313200D01*
X553330Y316230D01*
X567690D01*
X567500Y316040D01*
D02*
G37*
D52*
X566890Y303530D02*
G03*
X566890Y303530I-8000J0D01*
G01*
Y278130D02*
G03*
X566890Y278130I-8000J0D01*
G01*
X912140Y419455D02*
Y511455D01*
X820140Y419455D02*
Y511455D01*
Y419455D02*
X912140D01*
X820140Y511455D02*
X912140D01*
X634720D02*
X726720D01*
X634720Y419455D02*
X726720D01*
X634720D02*
Y511455D01*
X726720Y419455D02*
Y511455D01*
X541300Y419455D02*
Y511455D01*
X449300Y419455D02*
Y511455D01*
Y419455D02*
X541300D01*
X449300Y511455D02*
X541300D01*
X78460D02*
X170460D01*
X78460Y419455D02*
X170460D01*
X78460D02*
Y511455D01*
X170460Y419455D02*
Y511455D01*
X355880Y419455D02*
Y511455D01*
X263880Y419455D02*
Y511455D01*
Y419455D02*
X355880D01*
X263880Y511455D02*
X355880D01*
X455930Y316230D02*
X504613D01*
X455930D02*
X532130D01*
X455930Y265430D02*
X532130D01*
Y316230D01*
X455930Y265430D02*
Y316230D01*
X7620Y533400D02*
X33020D01*
X7620Y381000D02*
Y533400D01*
Y381000D02*
X33020D01*
Y533400D01*
X546000Y573980D02*
Y599380D01*
X622200D01*
Y573980D02*
Y599380D01*
X546000Y573980D02*
X622200D01*
X360580D02*
Y599380D01*
X436780D01*
Y573980D02*
Y599380D01*
X360580Y573980D02*
X436780D01*
X175160D02*
Y599380D01*
X251360D01*
Y573980D02*
Y599380D01*
X175160Y573980D02*
X251360D01*
X638810Y198120D02*
X664210D01*
Y121920D02*
Y198120D01*
X638810Y121920D02*
X664210D01*
X638810D02*
Y198120D01*
X302500Y76010D02*
Y101410D01*
X226300Y76010D02*
X302500D01*
X226300D02*
Y101410D01*
X302500D01*
X731419Y573980D02*
Y599380D01*
X807619D01*
Y573980D02*
Y599380D01*
X731419Y573980D02*
X807619D01*
X634000Y167370D02*
X638175Y163195D01*
X634000Y167370D02*
Y182000D01*
X66750Y138000D02*
X76750D01*
X63250Y134500D02*
X66750Y138000D01*
X63250Y122500D02*
Y134500D01*
Y101250D02*
X105250D01*
X63250D02*
Y122500D01*
X105250Y101250D02*
Y138000D01*
X76750D02*
X105250D01*
X946300Y128000D02*
X997100D01*
X946300Y382000D02*
X997100D01*
Y128000D02*
Y382000D01*
X946300Y128000D02*
Y382000D01*
X527685Y193675D02*
X622324D01*
X634000Y182000D01*
X812800Y337820D02*
Y363220D01*
X863600D01*
Y337820D02*
Y363220D01*
X812800Y337820D02*
X863600D01*
X780250Y224910D02*
Y253410D01*
X817000D01*
X795750Y211410D02*
X817000D01*
Y253410D01*
X783750Y211410D02*
X795750D01*
X780250Y214910D02*
X783750Y211410D01*
X780250Y214910D02*
Y224910D01*
X792460Y263775D02*
Y326775D01*
Y263775D02*
X795460D01*
X792460Y326775D02*
X795460D01*
X850460Y263775D02*
X853460D01*
X850460Y326775D02*
X853460D01*
Y263775D02*
Y326775D01*
X60570Y1216D02*
Y73216D01*
X242570Y1216D02*
Y73216D01*
X60570D02*
X242570D01*
X60570Y1216D02*
X242570D01*
X242180D02*
Y73216D01*
X424180Y1216D02*
Y73216D01*
X242180D02*
X424180D01*
X242180Y1216D02*
X424180D01*
X688715Y324965D02*
X719715D01*
X688715Y257965D02*
X719715D01*
X688715D02*
Y324965D01*
X719715Y257965D02*
Y324965D01*
X360579Y573980D02*
Y599380D01*
X258979D02*
X360579D01*
X258979Y573980D02*
Y599380D01*
X360579Y548580D02*
Y573980D01*
X258979Y548580D02*
X360579D01*
X258979D02*
Y573980D01*
X175159D02*
Y599380D01*
X73559D02*
X175159D01*
X73559Y573980D02*
Y599380D01*
X175159Y548580D02*
Y573980D01*
X73559Y548580D02*
X175159D01*
X73559D02*
Y573980D01*
X545999D02*
Y599380D01*
X444399D02*
X545999D01*
X444399Y573980D02*
Y599380D01*
X545999Y548580D02*
Y573980D01*
X444399Y548580D02*
X545999D01*
X444399D02*
Y573980D01*
X731419D02*
Y599380D01*
X629819D02*
X731419D01*
X629819Y573980D02*
Y599380D01*
X731419Y548580D02*
Y573980D01*
X629819Y548580D02*
X731419D01*
X629819D02*
Y573980D01*
X916839D02*
Y599380D01*
X815239D02*
X916839D01*
X815239Y573980D02*
Y599380D01*
X916839Y548580D02*
Y573980D01*
X815239Y548580D02*
X916839D01*
X815239D02*
Y573980D01*
X87000Y76500D02*
X103000D01*
X63000D02*
X79000D01*
X87000Y99500D02*
X103000D01*
X63000D02*
X79000D01*
X103000Y76500D02*
Y99500D01*
X63000Y76500D02*
Y99500D01*
X269720Y367480D02*
X329720D01*
X269720Y332480D02*
X329720D01*
X269720D02*
Y367480D01*
X329720Y332480D02*
Y367480D01*
X472440Y332740D02*
Y358140D01*
X523240D01*
Y332740D02*
Y358140D01*
X472440Y332740D02*
X523240D01*
X7620Y340360D02*
X134620D01*
X7620D02*
Y365760D01*
X134620Y340360D02*
Y365760D01*
X7620D02*
X134620D01*
X550000Y270200D02*
X554770Y265430D01*
X567690D01*
X554630Y316230D02*
X567690D01*
X550000Y311600D02*
X554630Y316230D01*
X550000Y270200D02*
Y311600D01*
X971700Y529900D02*
X997100D01*
Y428300D02*
Y529900D01*
X971700Y428300D02*
Y529900D01*
Y428300D02*
X997100D01*
X424180Y76010D02*
Y101410D01*
X322580Y76010D02*
X424180D01*
X322580Y101410D02*
X424180D01*
X322580Y76010D02*
Y101410D01*
X260080Y166100D02*
Y291100D01*
X385080Y166100D02*
Y291100D01*
X260080D02*
X385080D01*
X260080Y166100D02*
X385080D01*
X729920Y133540D02*
X740080D01*
X567690Y316230D02*
X616373D01*
X567690D02*
X643890D01*
X567690Y265430D02*
X643890D01*
Y316230D01*
X567690Y265430D02*
Y316230D01*
X454660Y201930D02*
Y227330D01*
Y201930D02*
X657860D01*
Y227330D01*
X454660D02*
X657860D01*
X628650Y49107D02*
Y97790D01*
Y21590D02*
Y97790D01*
X577850Y21590D02*
Y97790D01*
Y21590D02*
X628650D01*
X577850Y97790D02*
X628650D01*
D53*
X924390Y417205D02*
G03*
X924390Y417205I-1250J0D01*
G01*
X738970D02*
G03*
X738970Y417205I-1250J0D01*
G01*
X553550D02*
G03*
X553550Y417205I-1250J0D01*
G01*
X182710D02*
G03*
X182710Y417205I-1250J0D01*
G01*
X368130D02*
G03*
X368130Y417205I-1250J0D01*
G01*
X63000Y140750D02*
G03*
X63000Y140750I-1250J0D01*
G01*
X778750Y209910D02*
G03*
X778750Y209910I-1250J0D01*
G01*
X734715Y258565D02*
G03*
X734715Y258565I-1250J0D01*
G01*
X248330Y295600D02*
G03*
X248330Y295600I-1250J0D01*
G01*
D54*
X50000Y570000D02*
G03*
X50000Y570000I-20000J0D01*
G01*
X990000D02*
G03*
X990000Y570000I-20000J0D01*
G01*
X50000Y30000D02*
G03*
X50000Y30000I-20000J0D01*
G01*
X990000D02*
G03*
X990000Y30000I-20000J0D01*
G01*
X552805Y135332D02*
X552757Y135380D01*
X552710Y135332D01*
X552757Y135285D01*
X552805Y135332D01*
X476605D02*
X476557Y135380D01*
X476510Y135332D01*
X476557Y135285D01*
X476605Y135332D01*
X590905D02*
X590857Y135380D01*
X590810Y135332D01*
X590857Y135285D01*
X590905Y135332D01*
X514705D02*
X514657Y135380D01*
X514610Y135332D01*
X514657Y135285D01*
X514705Y135332D01*
X629005D02*
X628957Y135380D01*
X628910Y135332D01*
X628957Y135285D01*
X629005Y135332D01*
D91*
X905140Y429455D02*
G03*
X905140Y429455I-3000J0D01*
G01*
X719720D02*
G03*
X719720Y429455I-3000J0D01*
G01*
X534300D02*
G03*
X534300Y429455I-3000J0D01*
G01*
X163460D02*
G03*
X163460Y429455I-3000J0D01*
G01*
X348880D02*
G03*
X348880Y429455I-3000J0D01*
G01*
X273080Y281100D02*
G03*
X273080Y281100I-3000J0D01*
G01*
D92*
X883311Y326176D02*
G03*
X883311Y267183I9499J-29496D01*
G01*
X902309D02*
G03*
X902309Y326176I-9499J29496D01*
G01*
X391821Y402106D02*
G03*
X391821Y343114I9499J-29496D01*
G01*
X410818D02*
G03*
X410818Y402106I-9499J29496D01*
G01*
X206401D02*
G03*
X206401Y343114I9499J-29496D01*
G01*
X225399D02*
G03*
X225399Y402106I-9499J29496D01*
G01*
X577241D02*
G03*
X577241Y343114I9499J-29496D01*
G01*
X596239D02*
G03*
X596239Y402106I-9499J29496D01*
G01*
X762661D02*
G03*
X762661Y343114I9499J-29496D01*
G01*
X781658D02*
G03*
X781658Y402106I-9499J29496D01*
G01*
X683181Y355643D02*
G03*
X635588Y355643I-23797J-7663D01*
G01*
Y340317D02*
G03*
X683181Y340317I23797J7663D01*
G01*
X860552Y329192D02*
X883411D01*
X860552Y281186D02*
Y329192D01*
Y281186D02*
X877316Y264422D01*
X883411D01*
X902461D02*
X908558D01*
X925322Y281186D01*
Y329192D01*
X902461D02*
X925322D01*
X860552Y281186D02*
Y329192D01*
Y281186D02*
X877316Y264422D01*
X908558D02*
X925322Y281186D01*
Y329192D01*
X368808Y340098D02*
Y388104D01*
X385572Y404868D01*
X416814D02*
X433578Y388104D01*
Y340098D02*
Y388104D01*
X368808Y340098D02*
X391668D01*
X368808D02*
Y388104D01*
X385572Y404868D01*
X391668D01*
X410718D02*
X416814D01*
X433578Y388104D01*
Y340098D02*
Y388104D01*
X410718Y340098D02*
X433578D01*
X183388D02*
Y388104D01*
X200152Y404868D01*
X231394D02*
X248158Y388104D01*
Y340098D02*
Y388104D01*
X183388Y340098D02*
X206248D01*
X183388D02*
Y388104D01*
X200152Y404868D01*
X206248D01*
X225298D02*
X231394D01*
X248158Y388104D01*
Y340098D02*
Y388104D01*
X225298Y340098D02*
X248158D01*
X554228D02*
Y388104D01*
X570992Y404868D01*
X602234D02*
X618998Y388104D01*
Y340098D02*
Y388104D01*
X554228Y340098D02*
X577088D01*
X554228D02*
Y388104D01*
X570992Y404868D01*
X577088D01*
X596138D02*
X602234D01*
X618998Y388104D01*
Y340098D02*
Y388104D01*
X596138Y340098D02*
X618998D01*
X739648D02*
Y388104D01*
X756412Y404868D01*
X787654D02*
X804418Y388104D01*
Y340098D02*
Y388104D01*
X739648Y340098D02*
X762508D01*
X739648D02*
Y388104D01*
X756412Y404868D01*
X762508D01*
X781558D02*
X787654D01*
X804418Y388104D01*
Y340098D02*
Y388104D01*
X781558Y340098D02*
X804418D01*
X632214Y357378D02*
Y375158D01*
X674878D01*
X688094Y357378D02*
Y367022D01*
Y328938D02*
Y331980D01*
X632214Y320802D02*
X674878D01*
X632214D02*
Y338582D01*
D93*
X624900Y12478D02*
G03*
X624900Y12478I-9000J0D01*
G01*
X492505Y12248D02*
G03*
X492505Y12248I-10925J0D01*
G01*
X562505D02*
G03*
X562505Y12248I-10925J0D01*
G01*
X919185D02*
G03*
X919185Y12248I-10925J0D01*
G01*
X819185D02*
G03*
X819185Y12248I-10925J0D01*
G01*
X719185D02*
G03*
X719185Y12248I-10925J0D01*
G01*
X833729Y26000D02*
X933730D01*
Y96000D01*
X833729D02*
X933730D01*
X833729Y26000D02*
Y96000D01*
X733729Y26000D02*
Y96000D01*
X833730D01*
Y26000D02*
Y96000D01*
X733729Y26000D02*
X833730D01*
X633730D02*
X733730D01*
Y96000D01*
X633730D02*
X733730D01*
X633730Y26000D02*
Y96000D01*
X572050Y25000D02*
Y95000D01*
X497050Y25000D02*
X572050D01*
X497050D02*
Y95000D01*
X572050D01*
X502050Y25000D02*
Y95000D01*
X427050Y25000D02*
X502050D01*
X427050D02*
Y95000D01*
X502050D01*
X685000Y204000D02*
Y213997D01*
X689998D01*
X691665Y212331D01*
Y208998D01*
X689998Y207332D01*
X685000D01*
X699995Y213997D02*
X696663D01*
X694997Y212331D01*
Y205666D01*
X696663Y204000D01*
X699995D01*
X701661Y205666D01*
Y212331D01*
X699995Y213997D01*
X704994D02*
Y204000D01*
X708326Y207332D01*
X711658Y204000D01*
Y213997D01*
X721655D02*
X714990D01*
Y204000D01*
X721655D01*
X714990Y208998D02*
X718323D01*
X724987Y204000D02*
Y213997D01*
X729986D01*
X731652Y212331D01*
Y208998D01*
X729986Y207332D01*
X724987D01*
X728319D02*
X731652Y204000D01*
X741215Y169797D02*
Y163799D01*
X744214Y160800D01*
X747213Y163799D01*
Y169797D01*
X750212D02*
X753211D01*
X751712D01*
Y160800D01*
X750212D01*
X753211D01*
X757710D02*
Y169797D01*
X763708Y160800D01*
Y169797D01*
X747213Y183797D02*
X741215D01*
Y179298D01*
X744214Y180798D01*
X745714D01*
X747213Y179298D01*
Y176299D01*
X745714Y174800D01*
X742714D01*
X741215Y176299D01*
X750212Y183797D02*
Y177799D01*
X753211Y174800D01*
X756210Y177799D01*
Y183797D01*
X741215Y196297D02*
X742714Y197797D01*
X745714D01*
X747213Y196297D01*
Y194798D01*
X745714Y193298D01*
X744214D01*
X745714D01*
X747213Y191799D01*
Y190299D01*
X745714Y188800D01*
X742714D01*
X741215Y190299D01*
X750212Y197797D02*
Y191799D01*
X753211Y188800D01*
X756210Y191799D01*
Y197797D01*
X958423Y436610D02*
Y443274D01*
X960089D01*
X966754Y436610D01*
X968420D01*
Y443274D01*
X963421Y446606D02*
Y453271D01*
X968420Y456603D02*
X958423D01*
Y461602D01*
X960089Y463268D01*
X963421D01*
X965088Y461602D01*
Y456603D01*
X968420Y466600D02*
X958423D01*
Y471599D01*
X960089Y473265D01*
X963421D01*
X965088Y471599D01*
Y466600D01*
Y469932D02*
X968420Y473265D01*
X958423Y481595D02*
Y478263D01*
X960089Y476597D01*
X966754D01*
X968420Y478263D01*
Y481595D01*
X966754Y483261D01*
X960089D01*
X958423Y481595D01*
Y486594D02*
X968420D01*
Y491592D01*
X966754Y493258D01*
X965088D01*
X963421Y491592D01*
Y486594D01*
Y491592D01*
X961755Y493258D01*
X960089D01*
X958423Y491592D01*
Y486594D01*
Y503255D02*
Y496590D01*
X968420D01*
Y503255D01*
X963421Y496590D02*
Y499923D01*
X624205Y244946D02*
X630869D01*
X627537D01*
Y234950D01*
X634202Y243280D02*
X635868Y244946D01*
X639200D01*
X640866Y243280D01*
Y241614D01*
X639200Y239948D01*
X637534D01*
X639200D01*
X640866Y238282D01*
Y236616D01*
X639200Y234950D01*
X635868D01*
X634202Y236616D01*
X573405Y244946D02*
X580069D01*
X576737D01*
Y234950D01*
X590066D02*
X583401D01*
X590066Y241614D01*
Y243280D01*
X588400Y244946D01*
X585068D01*
X583401Y243280D01*
X523875Y244946D02*
X530539D01*
X527207D01*
Y234950D01*
X533871D02*
X537204D01*
X535538D01*
Y244946D01*
X533871Y243280D01*
X471805Y244946D02*
X478469D01*
X475137D01*
Y234950D01*
X481801Y243280D02*
X483468Y244946D01*
X486800D01*
X488466Y243280D01*
Y236616D01*
X486800Y234950D01*
X483468D01*
X481801Y236616D01*
Y243280D01*
X676997Y147000D02*
X670332D01*
X667000Y143667D01*
X670332Y140335D01*
X676997D01*
Y137003D02*
Y133671D01*
Y135337D01*
X667000D01*
Y137003D01*
Y133671D01*
Y128672D02*
X676997D01*
X667000Y122008D01*
X676997D01*
Y190335D02*
Y197000D01*
X671998D01*
X673664Y193668D01*
Y192001D01*
X671998Y190335D01*
X668666D01*
X667000Y192001D01*
Y195334D01*
X668666Y197000D01*
X676997Y187003D02*
X670332D01*
X667000Y183671D01*
X670332Y180338D01*
X676997D01*
X611184Y190336D02*
X604520D01*
Y185338D01*
X607852D01*
X604520D01*
Y180340D01*
X621181D02*
X614516D01*
X621181Y187004D01*
Y188670D01*
X619515Y190336D01*
X616183D01*
X614516Y188670D01*
X575624Y190336D02*
X568960D01*
Y185338D01*
X572292D01*
X568960D01*
Y180340D01*
X578956D02*
X582289D01*
X580623D01*
Y190336D01*
X578956Y188670D01*
X534984Y190336D02*
X528320D01*
Y185338D01*
X531652D01*
X528320D01*
Y180340D01*
X538316Y188670D02*
X539983Y190336D01*
X543315D01*
X544981Y188670D01*
Y182006D01*
X543315Y180340D01*
X539983D01*
X538316Y182006D01*
Y188670D01*
X374260Y571877D02*
Y570377D01*
X377259Y567378D01*
X380258Y570377D01*
Y571877D01*
X377259Y567378D02*
Y562880D01*
X383257Y567378D02*
X389255D01*
X398252Y570377D02*
X396753Y571877D01*
X393754D01*
X392254Y570377D01*
Y568878D01*
X393754Y567378D01*
X396753D01*
X398252Y565879D01*
Y564379D01*
X396753Y562880D01*
X393754D01*
X392254Y564379D01*
X401251Y571877D02*
X407249D01*
X404250D01*
Y562880D01*
X414747Y571877D02*
X411748D01*
X410248Y570377D01*
Y564379D01*
X411748Y562880D01*
X414747D01*
X416246Y564379D01*
Y570377D01*
X414747Y571877D01*
X419245Y562880D02*
Y571877D01*
X423744D01*
X425243Y570377D01*
Y567378D01*
X423744Y565879D01*
X419245D01*
X487680Y190336D02*
Y180340D01*
Y185338D01*
X494344D01*
Y190336D01*
Y180340D01*
X504341Y190336D02*
X497677D01*
Y180340D01*
X504341D01*
X497677Y185338D02*
X501009D01*
X507673Y180340D02*
X511006D01*
X509339D01*
Y190336D01*
X507673Y188670D01*
X448310Y190336D02*
Y180340D01*
Y185338D01*
X454974D01*
Y190336D01*
Y180340D01*
X464971Y190336D02*
X458307D01*
Y180340D01*
X464971D01*
X458307Y185338D02*
X461639D01*
X468303Y188670D02*
X469969Y190336D01*
X473302D01*
X474968Y188670D01*
Y182006D01*
X473302Y180340D01*
X469969D01*
X468303Y182006D01*
Y188670D01*
X646730Y106000D02*
Y115997D01*
X650062Y112664D01*
X653394Y115997D01*
Y106000D01*
X656727D02*
Y112664D01*
X660059Y115997D01*
X663391Y112664D01*
Y106000D01*
Y110998D01*
X656727D01*
X666723Y115997D02*
X670055D01*
X668389D01*
Y106000D01*
X666723D01*
X670055D01*
X675054D02*
Y115997D01*
X681718Y106000D01*
Y115997D01*
X685051Y110998D02*
X691715D01*
X695048Y106000D02*
Y115997D01*
X700046D01*
X701712Y114330D01*
Y110998D01*
X700046Y109332D01*
X695048D01*
X705044Y115997D02*
Y106000D01*
X708376Y109332D01*
X711709Y106000D01*
Y115997D01*
X715041Y106000D02*
Y115997D01*
X720039D01*
X721705Y114330D01*
Y110998D01*
X720039Y109332D01*
X715041D01*
X718373D02*
X721705Y106000D01*
X761730Y115997D02*
Y106000D01*
Y110998D01*
X768394D01*
Y115997D01*
Y106000D01*
X771727Y115997D02*
Y106000D01*
X776725D01*
X778391Y107666D01*
Y109332D01*
X776725Y110998D01*
X771727D01*
X776725D01*
X778391Y112664D01*
Y114330D01*
X776725Y115997D01*
X771727D01*
X781723Y110998D02*
X788388D01*
X791720Y106000D02*
Y115997D01*
X796719D01*
X798385Y114330D01*
Y110998D01*
X796719Y109332D01*
X791720D01*
X801717Y115997D02*
Y106000D01*
X805049Y109332D01*
X808381Y106000D01*
Y115997D01*
X811714Y106000D02*
Y115997D01*
X816712D01*
X818378Y114330D01*
Y110998D01*
X816712Y109332D01*
X811714D01*
X815046D02*
X818378Y106000D01*
X853730Y115997D02*
Y106000D01*
Y110998D01*
X860394D01*
Y115997D01*
Y106000D01*
X863727Y115997D02*
Y106000D01*
X868725D01*
X870391Y107666D01*
Y109332D01*
X868725Y110998D01*
X863727D01*
X868725D01*
X870391Y112664D01*
Y114330D01*
X868725Y115997D01*
X863727D01*
X873723Y110998D02*
X880388D01*
X888719Y115997D02*
X885386D01*
X883720Y114330D01*
Y107666D01*
X885386Y106000D01*
X888719D01*
X890385Y107666D01*
Y114330D01*
X888719Y115997D01*
X893717D02*
Y107666D01*
X895383Y106000D01*
X898715D01*
X900381Y107666D01*
Y115997D01*
X903714D02*
X910378D01*
X907046D01*
Y106000D01*
X584850Y12215D02*
X596179D01*
X610250Y12415D02*
X621580D01*
X615915Y18080D02*
Y6750D01*
X475230Y12084D02*
X488559D01*
X481894Y18749D02*
Y5420D01*
X439429Y12084D02*
X452758D01*
X509430D02*
X522759D01*
X545230D02*
X558559D01*
X551894Y18749D02*
Y5420D01*
X289600Y545535D02*
Y543203D01*
X294265Y538537D01*
X298930Y543203D01*
Y545535D01*
X294265Y538537D02*
Y531540D01*
X901910Y12084D02*
X915239D01*
X908574Y18749D02*
Y5420D01*
X851110Y12084D02*
X864439D01*
X751110D02*
X764439D01*
X801910D02*
X815239D01*
X808574Y18749D02*
Y5420D01*
X701910Y12084D02*
X715239D01*
X708574Y18749D02*
Y5420D01*
X651110Y12084D02*
X664439D01*
X104180Y545535D02*
X113510Y531540D01*
Y545535D02*
X104180Y531540D01*
X188840Y571877D02*
X194838Y562880D01*
Y571877D02*
X188840Y562880D01*
X197837Y567378D02*
X203835D01*
X212832Y570377D02*
X211332Y571877D01*
X208333D01*
X206834Y570377D01*
Y568878D01*
X208333Y567378D01*
X211332D01*
X212832Y565879D01*
Y564379D01*
X211332Y562880D01*
X208333D01*
X206834Y564379D01*
X215831Y571877D02*
X221829D01*
X218830D01*
Y562880D01*
X229327Y571877D02*
X226328D01*
X224828Y570377D01*
Y564379D01*
X226328Y562880D01*
X229327D01*
X230826Y564379D01*
Y570377D01*
X229327Y571877D01*
X233825Y562880D02*
Y571877D01*
X238324D01*
X239823Y570377D01*
Y567378D01*
X238324Y565879D01*
X233825D01*
X475020Y545535D02*
X484350D01*
Y543203D01*
X475020Y533872D01*
Y531540D01*
X484350D01*
X559680Y571877D02*
X565678D01*
Y570377D01*
X559680Y564379D01*
Y562880D01*
X565678D01*
X568677Y567378D02*
X574675D01*
X583672Y570377D02*
X582173Y571877D01*
X579174D01*
X577674Y570377D01*
Y568878D01*
X579174Y567378D01*
X582173D01*
X583672Y565879D01*
Y564379D01*
X582173Y562880D01*
X579174D01*
X577674Y564379D01*
X586671Y571877D02*
X592669D01*
X589670D01*
Y562880D01*
X600167Y571877D02*
X597168D01*
X595668Y570377D01*
Y564379D01*
X597168Y562880D01*
X600167D01*
X601666Y564379D01*
Y570377D01*
X600167Y571877D01*
X604665Y562880D02*
Y571877D01*
X609164D01*
X610663Y570377D01*
Y567378D01*
X609164Y565879D01*
X604665D01*
X669770Y545535D02*
X660440D01*
Y531540D01*
X669770D01*
X660440Y538537D02*
X665105D01*
X674435Y543203D02*
X676768Y545535D01*
X681433D01*
X683765Y543203D01*
Y533872D01*
X681433Y531540D01*
X676768D01*
X674435Y533872D01*
Y543203D01*
X855190Y545535D02*
X845860D01*
Y531540D01*
X855190D01*
X845860Y538537D02*
X850525D01*
X859855Y531540D02*
X864520D01*
X862188D01*
Y545535D01*
X859855Y543203D01*
X572215Y326797D02*
X573714Y328297D01*
X576713D01*
X578213Y326797D01*
Y325298D01*
X576713Y323798D01*
X575214D01*
X576713D01*
X578213Y322299D01*
Y320799D01*
X576713Y319300D01*
X573714D01*
X572215Y320799D01*
X581212Y328297D02*
Y322299D01*
X584211Y319300D01*
X587210Y322299D01*
Y328297D01*
X603613D02*
X597615D01*
Y323798D01*
X600614Y325298D01*
X602113D01*
X603613Y323798D01*
Y320799D01*
X602113Y319300D01*
X599114D01*
X597615Y320799D01*
X606612Y328297D02*
Y322299D01*
X609611Y319300D01*
X612610Y322299D01*
Y328297D01*
X620049Y262207D02*
Y256209D01*
X623048Y253210D01*
X626047Y256209D01*
Y262207D01*
X629046D02*
X632045D01*
X630545D01*
Y253210D01*
X629046D01*
X632045D01*
X636544D02*
Y262207D01*
X642542Y253210D01*
Y262207D01*
X558684Y298550D02*
Y308547D01*
X553686Y303548D02*
X563683D01*
X563700Y278102D02*
X553703D01*
X779000Y200996D02*
Y191000D01*
Y195998D01*
X785664D01*
Y200996D01*
Y191000D01*
X788997Y200996D02*
Y191000D01*
X793995D01*
X795661Y192666D01*
Y194332D01*
X793995Y195998D01*
X788997D01*
X793995D01*
X795661Y197664D01*
Y199330D01*
X793995Y200996D01*
X788997D01*
X466453Y326797D02*
X464953Y328297D01*
X461954D01*
X460455Y326797D01*
Y325298D01*
X461954Y323798D01*
X464953D01*
X466453Y322299D01*
Y320799D01*
X464953Y319300D01*
X461954D01*
X460455Y320799D01*
X469452Y328297D02*
Y319300D01*
X472451Y322299D01*
X475450Y319300D01*
Y328297D01*
X478449D02*
Y319300D01*
X482948D01*
X484447Y320799D01*
Y326797D01*
X482948Y328297D01*
X478449D01*
X236823Y113477D02*
X230825D01*
Y104480D01*
X236823D01*
X230825Y108978D02*
X233824D01*
X245820Y111977D02*
X244321Y113477D01*
X241322D01*
X239822Y111977D01*
Y110478D01*
X241322Y108978D01*
X244321D01*
X245820Y107479D01*
Y105979D01*
X244321Y104480D01*
X241322D01*
X239822Y105979D01*
X248819Y104480D02*
Y113477D01*
X253318D01*
X254817Y111977D01*
Y108978D01*
X253318Y107479D01*
X248819D01*
X257816Y102980D02*
X263814D01*
X266813Y113477D02*
X269812D01*
X268313D01*
Y104480D01*
X266813D01*
X269812D01*
X278809Y113477D02*
X275810D01*
X274311Y111977D01*
Y105979D01*
X275810Y104480D01*
X278809D01*
X280309Y105979D01*
Y111977D01*
X278809Y113477D01*
X18143Y377827D02*
X12145D01*
Y368830D01*
X18143D01*
X12145Y373328D02*
X15144D01*
X27140Y376327D02*
X25641Y377827D01*
X22641D01*
X21142Y376327D01*
Y374828D01*
X22641Y373328D01*
X25641D01*
X27140Y371829D01*
Y370329D01*
X25641Y368830D01*
X22641D01*
X21142Y370329D01*
X30139Y368830D02*
Y377827D01*
X34638D01*
X36137Y376327D01*
Y373328D01*
X34638Y371829D01*
X30139D01*
X39136Y367330D02*
X45134D01*
X48133Y368830D02*
Y377827D01*
X52632D01*
X54131Y376327D01*
Y373328D01*
X52632Y371829D01*
X48133D01*
X57130Y368830D02*
Y377827D01*
X61629D01*
X63128Y376327D01*
Y373328D01*
X61629Y371829D01*
X57130D01*
X60129D02*
X63128Y368830D01*
X70626Y377827D02*
X67627D01*
X66128Y376327D01*
Y370329D01*
X67627Y368830D01*
X70626D01*
X72126Y370329D01*
Y376327D01*
X70626Y377827D01*
X81123Y376327D02*
X79623Y377827D01*
X76624D01*
X75125Y376327D01*
Y370329D01*
X76624Y368830D01*
X79623D01*
X81123Y370329D01*
Y373328D01*
X78124D01*
X43587Y474936D02*
X45087Y476436D01*
Y479435D01*
X43587Y480934D01*
X42088D01*
X40588Y479435D01*
Y476436D01*
X39089Y474936D01*
X37589D01*
X36090Y476436D01*
Y479435D01*
X37589Y480934D01*
X45087Y471937D02*
X36090D01*
Y467439D01*
X37589Y465939D01*
X43587D01*
X45087Y467439D01*
Y471937D01*
Y462940D02*
Y459941D01*
Y461441D01*
X36090D01*
Y462940D01*
Y459941D01*
X45087Y450944D02*
Y453943D01*
X43587Y455443D01*
X37589D01*
X36090Y453943D01*
Y450944D01*
X37589Y449445D01*
X43587D01*
X45087Y450944D01*
X327105Y113477D02*
X330104D01*
X328604D01*
Y104480D01*
X327105D01*
X330104D01*
X340601D02*
X334603D01*
X340601Y110478D01*
Y111977D01*
X339101Y113477D01*
X336102D01*
X334603Y111977D01*
X349598D02*
X348098Y113477D01*
X345099D01*
X343600Y111977D01*
Y105979D01*
X345099Y104480D01*
X348098D01*
X349598Y105979D01*
X476605Y369767D02*
Y360770D01*
X481104D01*
X482603Y362269D01*
Y363769D01*
X481104Y365268D01*
X476605D01*
X481104D01*
X482603Y366768D01*
Y368267D01*
X481104Y369767D01*
X476605D01*
X490101D02*
X487102D01*
X485602Y368267D01*
Y362269D01*
X487102Y360770D01*
X490101D01*
X491600Y362269D01*
Y368267D01*
X490101Y369767D01*
X499098D02*
X496099D01*
X494599Y368267D01*
Y362269D01*
X496099Y360770D01*
X499098D01*
X500597Y362269D01*
Y368267D01*
X499098Y369767D01*
X503596D02*
X509594D01*
X506595D01*
Y360770D01*
X253825Y370770D02*
Y379767D01*
X258323D01*
X259823Y378267D01*
Y375268D01*
X258323Y373769D01*
X253825D01*
X256824D02*
X259823Y370770D01*
X268820Y379767D02*
X262822D01*
Y370770D01*
X268820D01*
X262822Y375268D02*
X265821D01*
X277817Y378267D02*
X276318Y379767D01*
X273319D01*
X271819Y378267D01*
Y376768D01*
X273319Y375268D01*
X276318D01*
X277817Y373769D01*
Y372269D01*
X276318Y370770D01*
X273319D01*
X271819Y372269D01*
X286814Y379767D02*
X280816D01*
Y370770D01*
X286814D01*
X280816Y375268D02*
X283815D01*
X289813Y379767D02*
X295811D01*
X292812D01*
Y370770D01*
X751098Y571877D02*
X745100D01*
Y562880D01*
X751098D01*
X745100Y567378D02*
X748099D01*
X754097D02*
X760095D01*
X769092Y570377D02*
X767592Y571877D01*
X764594D01*
X763094Y570377D01*
Y568878D01*
X764594Y567378D01*
X767592D01*
X769092Y565879D01*
Y564379D01*
X767592Y562880D01*
X764594D01*
X763094Y564379D01*
X772091Y571877D02*
X778089D01*
X775090D01*
Y562880D01*
X785587Y571877D02*
X782588D01*
X781088Y570377D01*
Y564379D01*
X782588Y562880D01*
X785587D01*
X787086Y564379D01*
Y570377D01*
X785587Y571877D01*
X790085Y562880D02*
Y571877D01*
X794584D01*
X796083Y570377D01*
Y567378D01*
X794584Y565879D01*
X790085D01*
X816965Y365850D02*
Y374847D01*
X821464D01*
X822963Y373348D01*
Y370349D01*
X821464Y368849D01*
X816965D01*
X831960Y373348D02*
X830461Y374847D01*
X827462D01*
X825962Y373348D01*
Y371848D01*
X827462Y370349D01*
X830461D01*
X831960Y368849D01*
Y367350D01*
X830461Y365850D01*
X827462D01*
X825962Y367350D01*
X834959Y364351D02*
X840957D01*
X848455Y374847D02*
X845456D01*
X843957Y373348D01*
Y367350D01*
X845456Y365850D01*
X848455D01*
X849955Y367350D01*
Y373348D01*
X848455Y374847D01*
X852953Y365850D02*
Y374847D01*
X858952Y365850D01*
Y374847D01*
X194664Y87997D02*
X188000D01*
Y78000D01*
X194664D01*
X188000Y82998D02*
X191332D01*
X197997Y87997D02*
X204661Y78000D01*
Y87997D02*
X197997Y78000D01*
X207994D02*
Y87997D01*
X212992D01*
X214658Y86331D01*
Y82998D01*
X212992Y81332D01*
X207994D01*
X217990Y78000D02*
X221323D01*
X219657D01*
Y87997D01*
X217990Y86331D01*
X308003Y83665D02*
Y77000D01*
X318000D01*
Y83665D01*
X313002Y77000D02*
Y80332D01*
X308003Y86997D02*
X318000Y93661D01*
X308003D02*
X318000Y86997D01*
Y96994D02*
X308003D01*
Y101992D01*
X309669Y103658D01*
X313002D01*
X314668Y101992D01*
Y96994D01*
X318000Y113655D02*
Y106990D01*
X311336Y113655D01*
X309669D01*
X308003Y111989D01*
Y108657D01*
X309669Y106990D01*
X933003Y231665D02*
Y225000D01*
X943000D01*
Y231665D01*
X938002Y225000D02*
Y228332D01*
X933003Y234997D02*
X943000Y241661D01*
X933003D02*
X943000Y234997D01*
Y244994D02*
X933003D01*
Y249992D01*
X934669Y251658D01*
X938002D01*
X939668Y249992D01*
Y244994D01*
X934669Y254990D02*
X933003Y256656D01*
Y259989D01*
X934669Y261655D01*
X936336D01*
X938002Y259989D01*
Y258323D01*
Y259989D01*
X939668Y261655D01*
X941334D01*
X943000Y259989D01*
Y256656D01*
X941334Y254990D01*
D94*
X5800Y198882D02*
G03*
X21800Y214884I-1J16001D01*
G01*
Y311912D02*
G03*
X12800Y318770I-7929J-1071D01*
G01*
X756500Y120000D02*
X767500D01*
X756500D02*
Y128000D01*
Y133000D02*
Y141000D01*
X767500D01*
Y133000D02*
Y141000D01*
Y120000D02*
Y128000D01*
X751853Y303121D02*
X764877D01*
X751853Y300129D02*
X764877D01*
X556475Y242530D02*
Y250530D01*
Y229530D02*
Y237530D01*
Y229530D02*
X567475D01*
Y237530D01*
Y242530D02*
Y250530D01*
X556475D02*
X567475D01*
X175120Y159300D02*
Y170300D01*
X167120Y159300D02*
X175120D01*
X154120D02*
X162120D01*
X154120D02*
Y170300D01*
X162120D01*
X167120D02*
X175120D01*
X177000Y198000D02*
X188000D01*
X177000D02*
Y206000D01*
Y211000D02*
Y219000D01*
X188000D01*
Y211000D02*
Y219000D01*
Y198000D02*
Y206000D01*
X167120Y183300D02*
X175120D01*
X154120D02*
X162120D01*
X154120Y172300D02*
Y183300D01*
Y172300D02*
X162120D01*
X167120D02*
X175120D01*
Y183300D01*
X27600Y159600D02*
X35600D01*
X40600D02*
X48600D01*
Y170600D01*
X40600D02*
X48600D01*
X27600D02*
X35600D01*
X27600Y159600D02*
Y170600D01*
X99320Y172300D02*
Y183300D01*
X91320Y172300D02*
X99320D01*
X78320D02*
X86320D01*
X78320D02*
Y183300D01*
X86320D01*
X91320D02*
X99320D01*
X48680Y172300D02*
Y183300D01*
X40680Y172300D02*
X48680D01*
X27680D02*
X35680D01*
X27680D02*
Y183300D01*
X35680D01*
X40680D02*
X48680D01*
X780415Y278225D02*
X783415D01*
X780415Y276725D02*
X783415Y278225D01*
X780415Y279725D02*
X783415Y278225D01*
X780415Y276725D02*
Y279725D01*
X783415Y276725D02*
Y279725D01*
X757524Y278105D02*
X785525D01*
X757524Y259105D02*
X785525D01*
X872394Y240030D02*
Y243030D01*
X873895Y240030D01*
X870895D02*
X872394Y243030D01*
X870895Y240030D02*
X873895D01*
X870895Y243030D02*
X873895D01*
X872515Y217139D02*
Y245140D01*
X891515Y217139D02*
Y245140D01*
X568110Y140630D02*
Y148630D01*
Y153630D02*
Y161630D01*
X557110D02*
X568110D01*
X557110Y153630D02*
Y161630D01*
Y140630D02*
Y148630D01*
Y140630D02*
X568110D01*
X530010D02*
Y148630D01*
Y153630D02*
Y161630D01*
X519010D02*
X530010D01*
X519010Y153630D02*
Y161630D01*
Y140630D02*
Y148630D01*
Y140630D02*
X530010D01*
X542710D02*
Y148630D01*
Y153630D02*
Y161630D01*
X531710D02*
X542710D01*
X531710Y153630D02*
Y161630D01*
Y140630D02*
Y148630D01*
Y140630D02*
X542710D01*
X555410D02*
Y148630D01*
Y153630D02*
Y161630D01*
X544410D02*
X555410D01*
X544410Y153630D02*
Y161630D01*
Y140630D02*
Y148630D01*
Y140630D02*
X555410D01*
X606210D02*
Y148630D01*
Y153630D02*
Y161630D01*
X595210D02*
X606210D01*
X595210Y153630D02*
Y161630D01*
Y140630D02*
Y148630D01*
Y140630D02*
X606210D01*
X618910D02*
Y148630D01*
Y153630D02*
Y161630D01*
X607910D02*
X618910D01*
X607910Y153630D02*
Y161630D01*
Y140630D02*
Y148630D01*
Y140630D02*
X618910D01*
X631610D02*
Y148630D01*
Y153630D02*
Y161630D01*
X620610D02*
X631610D01*
X620610Y153630D02*
Y161630D01*
Y140630D02*
Y148630D01*
Y140630D02*
X631610D01*
X580810D02*
Y148630D01*
Y153630D02*
Y161630D01*
X569810D02*
X580810D01*
X569810Y153630D02*
Y161630D01*
Y140630D02*
Y148630D01*
Y140630D02*
X580810D01*
X593510D02*
Y148630D01*
Y153630D02*
Y161630D01*
X582510D02*
X593510D01*
X582510Y153630D02*
Y161630D01*
Y140630D02*
Y148630D01*
Y140630D02*
X593510D01*
X607910Y242530D02*
Y250530D01*
Y229530D02*
Y237530D01*
Y229530D02*
X618910D01*
Y237530D01*
Y242530D02*
Y250530D01*
X607910D02*
X618910D01*
X506310Y242530D02*
Y250530D01*
Y229530D02*
Y237530D01*
Y229530D02*
X517310D01*
Y237530D01*
Y242530D02*
Y250530D01*
X506310D02*
X517310D01*
X454875Y242530D02*
Y250530D01*
Y229530D02*
Y237530D01*
Y229530D02*
X465875D01*
Y237530D01*
Y242530D02*
Y250530D01*
X454875D02*
X465875D01*
X491910Y140630D02*
Y148630D01*
Y153630D02*
Y161630D01*
X480910D02*
X491910D01*
X480910Y153630D02*
Y161630D01*
Y140630D02*
Y148630D01*
Y140630D02*
X491910D01*
X504610D02*
Y148630D01*
Y153630D02*
Y161630D01*
X493610D02*
X504610D01*
X493610Y153630D02*
Y161630D01*
Y140630D02*
Y148630D01*
Y140630D02*
X504610D01*
X517310D02*
Y148630D01*
Y153630D02*
Y161630D01*
X506310D02*
X517310D01*
X506310Y153630D02*
Y161630D01*
Y140630D02*
Y148630D01*
Y140630D02*
X517310D01*
X453810D02*
Y148630D01*
Y153630D02*
Y161630D01*
X442810D02*
X453810D01*
X442810Y153630D02*
Y161630D01*
Y140630D02*
Y148630D01*
Y140630D02*
X453810D01*
X466510D02*
Y148630D01*
Y153630D02*
Y161630D01*
X455510D02*
X466510D01*
X455510Y153630D02*
Y161630D01*
Y140630D02*
Y148630D01*
Y140630D02*
X466510D01*
X778750Y152600D02*
Y160600D01*
Y165600D02*
Y173600D01*
X767749D02*
X778750D01*
X767749Y165600D02*
Y173600D01*
Y152600D02*
Y160600D01*
Y152600D02*
X778750D01*
X780450Y165600D02*
Y173600D01*
Y152600D02*
Y160600D01*
Y152600D02*
X791450D01*
Y160600D01*
Y165600D02*
Y173600D01*
X780450D02*
X791450D01*
X804150Y152600D02*
Y160600D01*
Y165600D02*
Y173600D01*
X793149D02*
X804150D01*
X793149Y165600D02*
Y173600D01*
Y152600D02*
Y160600D01*
Y152600D02*
X804150D01*
X762435Y222845D02*
Y230845D01*
Y209845D02*
Y217845D01*
Y209845D02*
X773435D01*
Y217845D01*
Y222845D02*
Y230845D01*
X762435D02*
X773435D01*
X479210Y140630D02*
Y148630D01*
Y153630D02*
Y161630D01*
X468210D02*
X479210D01*
X468210Y153630D02*
Y161630D01*
Y140630D02*
Y148630D01*
Y140630D02*
X479210D01*
X758999Y209500D02*
Y217500D01*
Y222500D02*
Y230500D01*
X748999D02*
X758999D01*
X748999Y222500D02*
Y230500D01*
Y209500D02*
Y217500D01*
Y209500D02*
X758999D01*
X647145Y242530D02*
Y250530D01*
Y229530D02*
Y237530D01*
Y229530D02*
X657145D01*
Y237530D01*
Y242530D02*
Y250530D01*
X647145D02*
X657145D01*
X595710Y242530D02*
Y250530D01*
Y229530D02*
Y237530D01*
Y229530D02*
X605710D01*
Y237530D01*
Y242530D02*
Y250530D01*
X595710D02*
X605710D01*
X544910Y242530D02*
Y250530D01*
Y229530D02*
Y237530D01*
Y229530D02*
X554910D01*
Y237530D01*
Y242530D02*
Y250530D01*
X544910D02*
X554910D01*
X494745Y242530D02*
Y250530D01*
Y229530D02*
Y237530D01*
Y229530D02*
X504745D01*
Y237530D01*
Y242530D02*
Y250530D01*
X494745D02*
X504745D01*
X284440Y397430D02*
X292440D01*
X271440D02*
X279440D01*
X271440Y387430D02*
Y397430D01*
Y387430D02*
X279440D01*
X284440D02*
X292440D01*
Y397430D01*
X821190Y229530D02*
X832190D01*
X821190D02*
Y237530D01*
Y242530D02*
Y250530D01*
X832190D01*
Y242530D02*
Y250530D01*
Y229530D02*
Y237530D01*
X762435Y253705D02*
X773435D01*
Y245705D02*
Y253705D01*
Y232705D02*
Y240705D01*
X762435Y232705D02*
X773435D01*
X762435D02*
Y240705D01*
Y245705D02*
Y253705D01*
X837820Y236410D02*
X863820D01*
X837820Y228410D02*
X863820D01*
X722500Y244000D02*
Y254000D01*
X730500D01*
X735499D02*
X743500D01*
Y244000D02*
Y254000D01*
X735499Y244000D02*
X743500D01*
X722500D02*
X730500D01*
X769853Y300129D02*
X782877D01*
X769853Y303121D02*
X782877D01*
X222885Y504825D02*
Y514985D01*
X240665Y505079D02*
Y514731D01*
X248580Y533615D02*
Y544615D01*
X256580D01*
X261580D02*
X269580D01*
Y533615D02*
Y544615D01*
X261580Y533615D02*
X269580D01*
X248580D02*
X256580D01*
X251800Y546815D02*
Y556815D01*
X243800Y546815D02*
X251800D01*
X230800D02*
X238800D01*
X230800D02*
Y556815D01*
X238800D01*
X243800D02*
X251800D01*
X379095Y504825D02*
Y514985D01*
X396875Y505079D02*
Y514731D01*
X371815Y533615D02*
Y544615D01*
X363815Y533615D02*
X371815D01*
X350815D02*
X358815D01*
X350815D02*
Y544615D01*
X358815D01*
X363815D02*
X371815D01*
X368595Y546815D02*
Y556815D01*
X376595D01*
X381595D02*
X389595D01*
Y546815D02*
Y556815D01*
X381595Y546815D02*
X389595D01*
X368595D02*
X376595D01*
X347050Y534115D02*
Y544115D01*
X339050Y534115D02*
X347050D01*
X326050D02*
X334050D01*
X326050D02*
Y544115D01*
X334050D01*
X339050D02*
X347050D01*
X324190Y387430D02*
Y397430D01*
X316190Y387430D02*
X324190D01*
X303190D02*
X311190D01*
X303190D02*
Y397430D01*
X311190D01*
X316190D02*
X324190D01*
X193675Y504825D02*
Y514985D01*
X211455Y505079D02*
Y514731D01*
X186395Y533615D02*
Y544615D01*
X178395Y533615D02*
X186395D01*
X165395D02*
X173395D01*
X165395D02*
Y544615D01*
X173395D01*
X178395D02*
X186395D01*
X67650Y533480D02*
Y543480D01*
X59650Y533480D02*
X67650D01*
X46650D02*
X54650D01*
X46650D02*
Y543480D01*
X54650D01*
X59650D02*
X67650D01*
X183175Y546815D02*
Y556815D01*
X191175D01*
X196175D02*
X204175D01*
Y546815D02*
Y556815D01*
X196175Y546815D02*
X204175D01*
X183175D02*
X191175D01*
X99020Y397430D02*
X107020D01*
X86020D02*
X94020D01*
X86020Y387430D02*
Y397430D01*
Y387430D02*
X94020D01*
X99020D02*
X107020D01*
Y397430D01*
X161630Y534115D02*
Y544115D01*
X153630Y534115D02*
X161630D01*
X140630D02*
X148630D01*
X140630D02*
Y544115D01*
X148630D01*
X153630D02*
X161630D01*
X138770Y387430D02*
Y397430D01*
X130770Y387430D02*
X138770D01*
X117770D02*
X125770D01*
X117770D02*
Y397430D01*
X125770D01*
X130770D02*
X138770D01*
X70780Y532980D02*
Y543980D01*
X78780D01*
X83780D02*
X91780D01*
Y532980D02*
Y543980D01*
X83780Y532980D02*
X91780D01*
X70780D02*
X78780D01*
X54610Y503174D02*
Y512826D01*
X36830Y502920D02*
Y513080D01*
X408305Y504825D02*
Y514985D01*
X426085Y505079D02*
Y514731D01*
X434000Y533615D02*
Y544615D01*
X442000D01*
X447000D02*
X455000D01*
Y533615D02*
Y544615D01*
X447000Y533615D02*
X455000D01*
X434000D02*
X442000D01*
X564515Y504825D02*
Y514985D01*
X582295Y505079D02*
Y514731D01*
X557235Y533615D02*
Y544615D01*
X549235Y533615D02*
X557235D01*
X536235D02*
X544235D01*
X536235D02*
Y544615D01*
X544235D01*
X549235D02*
X557235D01*
X437220Y546815D02*
Y556815D01*
X429220Y546815D02*
X437220D01*
X416220D02*
X424220D01*
X416220D02*
Y556815D01*
X424220D01*
X429220D02*
X437220D01*
X554015Y546815D02*
Y556815D01*
X562015D01*
X567015D02*
X575015D01*
Y546815D02*
Y556815D01*
X567015Y546815D02*
X575015D01*
X554015D02*
X562015D01*
X532470Y534115D02*
Y544115D01*
X524470Y534115D02*
X532470D01*
X511470D02*
X519470D01*
X511470D02*
Y544115D01*
X519470D01*
X524470D02*
X532470D01*
X509610Y387430D02*
Y397430D01*
X501610Y387430D02*
X509610D01*
X488610D02*
X496610D01*
X488610D02*
Y397430D01*
X496610D01*
X501610D02*
X509610D01*
X469860D02*
X477860D01*
X456860D02*
X464860D01*
X456860Y387430D02*
Y397430D01*
Y387430D02*
X464860D01*
X469860D02*
X477860D01*
Y397430D01*
X655280D02*
X663280D01*
X642280D02*
X650280D01*
X642280Y387430D02*
Y397430D01*
Y387430D02*
X650280D01*
X655280D02*
X663280D01*
Y397430D01*
X695030Y387430D02*
Y397430D01*
X687030Y387430D02*
X695030D01*
X674030D02*
X682030D01*
X674030D02*
Y397430D01*
X682030D01*
X687030D02*
X695030D01*
X717890Y534115D02*
Y544115D01*
X709890Y534115D02*
X717890D01*
X696890D02*
X704890D01*
X696890D02*
Y544115D01*
X704890D01*
X709890D02*
X717890D01*
X739435Y546815D02*
Y556815D01*
X747435D01*
X752435D02*
X760435D01*
Y546815D02*
Y556815D01*
X752435Y546815D02*
X760435D01*
X739435D02*
X747435D01*
X622640D02*
Y556815D01*
X614640Y546815D02*
X622640D01*
X601640D02*
X609640D01*
X601640D02*
Y556815D01*
X609640D01*
X614640D02*
X622640D01*
X742655Y533615D02*
Y544615D01*
X734655Y533615D02*
X742655D01*
X721655D02*
X729655D01*
X721655D02*
Y544615D01*
X729655D01*
X734655D02*
X742655D01*
X749935Y504825D02*
Y514985D01*
X767715Y505079D02*
Y514731D01*
X619420Y533615D02*
Y544615D01*
X627420D01*
X632420D02*
X640420D01*
Y533615D02*
Y544615D01*
X632420Y533615D02*
X640420D01*
X619420D02*
X627420D01*
X593725Y504825D02*
Y514985D01*
X611505Y505079D02*
Y514731D01*
X779145Y504825D02*
Y514985D01*
X796925Y505079D02*
Y514731D01*
X804840Y533615D02*
Y544615D01*
X812840D01*
X817840D02*
X825840D01*
Y533615D02*
Y544615D01*
X817840Y533615D02*
X825840D01*
X804840D02*
X812840D01*
X935355Y504825D02*
Y514985D01*
X953135Y505079D02*
Y514731D01*
X928075Y533615D02*
Y544615D01*
X920075Y533615D02*
X928075D01*
X907075D02*
X915075D01*
X907075D02*
Y544615D01*
X915075D01*
X920075D02*
X928075D01*
X808060Y546815D02*
Y556815D01*
X800060Y546815D02*
X808060D01*
X787060D02*
X795060D01*
X787060D02*
Y556815D01*
X795060D01*
X800060D02*
X808060D01*
X922100Y553380D02*
X932100D01*
X922100D02*
Y561380D01*
Y566380D02*
Y574380D01*
X932100D01*
Y566380D02*
Y574380D01*
Y553380D02*
Y561380D01*
X903310Y534115D02*
Y544115D01*
X895310Y534115D02*
X903310D01*
X882310D02*
X890310D01*
X882310D02*
Y544115D01*
X890310D01*
X895310D02*
X903310D01*
X880450Y387430D02*
Y397430D01*
X872450Y387430D02*
X880450D01*
X859450D02*
X867450D01*
X859450D02*
Y397430D01*
X867450D01*
X872450D02*
X880450D01*
X840700D02*
X848700D01*
X827700D02*
X835700D01*
X827700Y387430D02*
Y397430D01*
Y387430D02*
X835700D01*
X840700D02*
X848700D01*
Y397430D01*
X131500Y105500D02*
Y116500D01*
X123500Y105500D02*
X131500D01*
X110500D02*
X118500D01*
X110500D02*
Y116500D01*
X118500D01*
X123500D02*
X131500D01*
X87500Y150000D02*
X95500D01*
X74500D02*
X82500D01*
X74500Y140000D02*
Y150000D01*
Y140000D02*
X82500D01*
X87500D02*
X95500D01*
Y150000D01*
X131500Y122500D02*
Y133500D01*
X123500Y122500D02*
X131500D01*
X110500D02*
X118500D01*
X110500D02*
Y133500D01*
X118500D01*
X123500D02*
X131500D01*
X166488Y264004D02*
X179512D01*
X166488Y266996D02*
X179512D01*
X165000Y311000D02*
X176000D01*
Y303000D02*
Y311000D01*
Y290000D02*
Y298000D01*
X165000Y290000D02*
X176000D01*
X165000D02*
Y298000D01*
Y303000D02*
Y311000D01*
X177000D02*
X188000D01*
Y303000D02*
Y311000D01*
Y290000D02*
Y298000D01*
X177000Y290000D02*
X188000D01*
X177000D02*
Y298000D01*
Y303000D02*
Y311000D01*
X165000Y223000D02*
X176000D01*
X165000D02*
Y231000D01*
Y236000D02*
Y244000D01*
X176000D01*
Y236000D02*
Y244000D01*
Y223000D02*
Y231000D01*
X177000Y223000D02*
X188000D01*
X177000D02*
Y231000D01*
Y236000D02*
Y244000D01*
X188000D01*
Y236000D02*
Y244000D01*
Y223000D02*
Y231000D01*
X536000Y281750D02*
Y289750D01*
Y268750D02*
Y276750D01*
Y268750D02*
X546000D01*
Y276750D01*
Y281750D02*
Y289750D01*
X536000D02*
X546000D01*
X535500Y312750D02*
X546500D01*
Y304750D02*
Y312750D01*
Y291750D02*
Y299750D01*
X535500Y291750D02*
X546500D01*
X535500D02*
Y299750D01*
Y304750D02*
Y312750D01*
X150120Y172300D02*
Y183300D01*
X142120Y172300D02*
X150120D01*
X129120D02*
X137120D01*
X129120D02*
Y183300D01*
X137120D01*
X142120D02*
X150120D01*
X582500Y560500D02*
X593500D01*
Y552500D02*
Y560500D01*
Y539500D02*
Y547500D01*
X582500Y539500D02*
X593500D01*
X582500D02*
Y547500D01*
Y552500D02*
Y560500D01*
X458280Y355500D02*
X469280D01*
Y347500D02*
Y355500D01*
Y334500D02*
Y342500D01*
X458280Y334500D02*
X469280D01*
X458280D02*
Y342500D01*
Y347500D02*
Y355500D01*
X397000Y560500D02*
X408000D01*
Y552500D02*
Y560500D01*
Y539500D02*
Y547500D01*
X397000Y539500D02*
X408000D01*
X397000D02*
Y547500D01*
Y552500D02*
Y560500D01*
X271500Y139500D02*
X279500D01*
X258500D02*
X266500D01*
X258500Y129500D02*
Y139500D01*
Y129500D02*
X266500D01*
X271500D02*
X279500D01*
Y139500D01*
X253740Y317580D02*
X261740D01*
X266740D02*
X274740D01*
Y327580D01*
X266740D02*
X274740D01*
X253740D02*
X261740D01*
X253740Y317580D02*
Y327580D01*
X411560Y289520D02*
Y297520D01*
Y276520D02*
Y284520D01*
Y276520D02*
X421560D01*
Y284520D01*
Y289520D02*
Y297520D01*
X411560D02*
X421560D01*
X383500Y139620D02*
X391500D01*
X370500D02*
X378500D01*
X370500Y129620D02*
Y139620D01*
Y129620D02*
X378500D01*
X383500D02*
X391500D01*
Y139620D01*
X232330Y249850D02*
Y257850D01*
Y262850D02*
Y270850D01*
X222330D02*
X232330D01*
X222330Y262850D02*
Y270850D01*
Y249850D02*
Y257850D01*
Y249850D02*
X232330D01*
X211500Y560500D02*
X222500D01*
Y552500D02*
Y560500D01*
Y539500D02*
Y547500D01*
X211500Y539500D02*
X222500D01*
X211500D02*
Y547500D01*
Y552500D02*
Y560500D01*
X201510Y177460D02*
X212510D01*
X201510D02*
Y185460D01*
Y190460D02*
Y198460D01*
X212510D01*
Y190460D02*
Y198460D01*
Y177460D02*
Y185460D01*
X223440Y177460D02*
Y185460D01*
Y190460D02*
Y198460D01*
X213440D02*
X223440D01*
X213440Y190460D02*
Y198460D01*
Y177460D02*
Y185460D01*
Y177460D02*
X223440D01*
X234870D02*
Y185460D01*
Y190460D02*
Y198460D01*
X224870D02*
X234870D01*
X224870Y190460D02*
Y198460D01*
Y177460D02*
Y185460D01*
Y177460D02*
X234870D01*
X212940Y175600D02*
X223940D01*
Y167600D02*
Y175600D01*
Y154600D02*
Y162600D01*
X212940Y154600D02*
X223940D01*
X212940D02*
Y162600D01*
Y167600D02*
Y175600D01*
X682715Y160300D02*
Y171300D01*
X690715D01*
X695715D02*
X703715D01*
Y160300D02*
Y171300D01*
X695715Y160300D02*
X703715D01*
X682715D02*
X690715D01*
X682715Y174300D02*
Y185300D01*
X690715D01*
X695715D02*
X703715D01*
Y174300D02*
Y185300D01*
X695715Y174300D02*
X703715D01*
X682715D02*
X690715D01*
X682715Y188300D02*
Y199300D01*
X690715D01*
X695715D02*
X703715D01*
Y188300D02*
Y199300D01*
X695715Y188300D02*
X703715D01*
X682715D02*
X690715D01*
X204000Y293500D02*
Y304500D01*
X212000D01*
X217000D02*
X225000D01*
Y293500D02*
Y304500D01*
X217000Y293500D02*
X225000D01*
X204000D02*
X212000D01*
X401500Y128500D02*
Y139500D01*
X409500D01*
X414500D02*
X422500D01*
Y128500D02*
Y139500D01*
X414500Y128500D02*
X422500D01*
X401500D02*
X409500D01*
X401500Y140500D02*
Y151500D01*
X409500D01*
X414500D02*
X422500D01*
Y140500D02*
Y151500D01*
X414500Y140500D02*
X422500D01*
X401500D02*
X409500D01*
X378500Y104500D02*
Y115500D01*
X370500Y104500D02*
X378500D01*
X357500D02*
X365500D01*
X357500D02*
Y115500D01*
X365500D01*
X370500D02*
X378500D01*
X422500Y116500D02*
Y127500D01*
X414500Y116500D02*
X422500D01*
X401500D02*
X409500D01*
X401500D02*
Y127500D01*
X409500D01*
X414500D02*
X422500D01*
X401500Y104500D02*
Y115500D01*
X409500D01*
X414500D02*
X422500D01*
Y104500D02*
Y115500D01*
X414500Y104500D02*
X422500D01*
X401500D02*
X409500D01*
X400500D02*
Y115500D01*
X392500Y104500D02*
X400500D01*
X379500D02*
X387500D01*
X379500D02*
Y115500D01*
X387500D01*
X392500D02*
X400500D01*
X434500Y276500D02*
X445500D01*
X434500D02*
Y284500D01*
Y289500D02*
Y297500D01*
X445500D01*
Y289500D02*
Y297500D01*
Y276500D02*
Y284500D01*
X103100Y173000D02*
X111100D01*
X116100D02*
X124100D01*
Y183000D01*
X116100D02*
X124100D01*
X103100D02*
X111100D01*
X103100Y173000D02*
Y183000D01*
X52920Y172300D02*
Y183300D01*
X60920D01*
X65920D02*
X73920D01*
Y172300D02*
Y183300D01*
X65920Y172300D02*
X73920D01*
X52920D02*
X60920D01*
X78400Y159600D02*
Y170600D01*
X86400D01*
X91400D02*
X99400D01*
Y159600D02*
Y170600D01*
X91400Y159600D02*
X99400D01*
X78400D02*
X86400D01*
X129040D02*
Y170600D01*
X137040D01*
X142040D02*
X150040D01*
Y159600D02*
Y170600D01*
X142040Y159600D02*
X150040D01*
X129040D02*
X137040D01*
X21800Y214884D02*
Y311912D01*
X12800Y318770D02*
Y328930D01*
X156800D01*
Y188722D02*
Y328930D01*
X5800Y188722D02*
X156800D01*
X5800D02*
Y198882D01*
X103000Y159500D02*
Y170500D01*
X111000D01*
X116000D02*
X124000D01*
Y159500D02*
Y170500D01*
X116000Y159500D02*
X124000D01*
X103000D02*
X111000D01*
X165000Y219000D02*
X176000D01*
Y211000D02*
Y219000D01*
Y198000D02*
Y206000D01*
X165000Y198000D02*
X176000D01*
X165000D02*
Y206000D01*
Y211000D02*
Y219000D01*
X74000Y159500D02*
Y170500D01*
X66000Y159500D02*
X74000D01*
X53000D02*
X61000D01*
X53000D02*
Y170500D01*
X61000D01*
X66000D02*
X74000D01*
X433000Y268500D02*
Y276500D01*
Y281500D02*
Y289500D01*
X423000D02*
X433000D01*
X423000Y281500D02*
Y289500D01*
Y268500D02*
Y276500D01*
Y268500D02*
X433000D01*
X360500Y118000D02*
X368500D01*
X373500D02*
X381500D01*
Y128000D01*
X373500D02*
X381500D01*
X360500D02*
X368500D01*
X360500Y118000D02*
Y128000D01*
X522710Y123190D02*
X551710D01*
X522710Y115570D02*
Y123190D01*
Y115570D02*
X551710D01*
Y123190D01*
X446510D02*
X475510D01*
X446510Y115570D02*
Y123190D01*
Y115570D02*
X475510D01*
Y123190D01*
X560810D02*
X589810D01*
X560810Y115570D02*
Y123190D01*
Y115570D02*
X589810D01*
Y123190D01*
X484610D02*
X513610D01*
X484610Y115570D02*
Y123190D01*
Y115570D02*
X513610D01*
Y123190D01*
X598910D02*
X627910D01*
X598910Y115570D02*
Y123190D01*
Y115570D02*
X627910D01*
Y123190D01*
X271500Y128000D02*
X279500D01*
X258500D02*
X266500D01*
X258500Y118000D02*
Y128000D01*
Y118000D02*
X266500D01*
X271500D02*
X279500D01*
Y128000D01*
X767920Y560500D02*
X778920D01*
Y552500D02*
Y560500D01*
Y539500D02*
Y547500D01*
X767920Y539500D02*
X778920D01*
X767920D02*
Y547500D01*
Y552500D02*
Y560500D01*
X755500Y120000D02*
Y128000D01*
Y133000D02*
Y141000D01*
X744500D02*
X755500D01*
X744500Y133000D02*
Y141000D01*
Y120000D02*
Y128000D01*
Y120000D02*
X755500D01*
X729920Y126500D02*
Y133540D01*
X740080Y126500D02*
Y133540D01*
D95*
X59000Y570000D02*
G03*
X59000Y570000I-29000J0D01*
G01*
X999000D02*
G03*
X999000Y570000I-29000J0D01*
G01*
X59000Y30000D02*
G03*
X59000Y30000I-29000J0D01*
G01*
X999000D02*
G03*
X999000Y30000I-29000J0D01*
G01*
X141000Y134000D02*
Y146496D01*
X147248D01*
X149331Y144413D01*
Y140248D01*
X147248Y138165D01*
X141000D01*
X153496Y134000D02*
X157661D01*
X155579D01*
Y142331D01*
X153496D01*
X172240D02*
X165992D01*
X163909Y140248D01*
Y136083D01*
X165992Y134000D01*
X172240D01*
X178488D02*
X182653D01*
X184736Y136083D01*
Y140248D01*
X182653Y142331D01*
X178488D01*
X176405Y140248D01*
Y136083D01*
X178488Y134000D01*
X188901D02*
Y146496D01*
X195149D01*
X197232Y144413D01*
Y140248D01*
X195149Y138165D01*
X188901D01*
X201397Y142331D02*
Y134000D01*
Y138165D01*
X203480Y140248D01*
X205562Y142331D01*
X207645D01*
X213893Y134000D02*
X218058D01*
X215976D01*
Y142331D01*
X213893D01*
X224306Y134000D02*
Y142331D01*
X230554D01*
X232637Y140248D01*
Y134000D01*
X238885Y144413D02*
Y142331D01*
X236802D01*
X240968D01*
X238885D01*
Y136083D01*
X240968Y134000D01*
X160000Y129997D02*
Y122000D01*
X163999D01*
X165332Y123333D01*
Y124666D01*
Y125999D01*
X163999Y127332D01*
X160000D01*
X167997D02*
Y123333D01*
X169330Y122000D01*
X173329D01*
Y120667D01*
X171996Y119334D01*
X170663D01*
X173329Y122000D02*
Y127332D01*
X183992Y122000D02*
Y127332D01*
X186658Y129997D01*
X189324Y127332D01*
Y122000D01*
Y125999D01*
X183992D01*
X191990Y127332D02*
Y123333D01*
X193323Y122000D01*
X197321D01*
Y127332D01*
X199987Y122000D02*
X203986D01*
X205319Y123333D01*
X203986Y124666D01*
X201320D01*
X199987Y125999D01*
X201320Y127332D01*
X205319D01*
X207985Y128665D02*
X209317Y129997D01*
X211983D01*
X213316Y128665D01*
Y127332D01*
X211983Y125999D01*
X210650D01*
X211983D01*
X213316Y124666D01*
Y123333D01*
X211983Y122000D01*
X209317D01*
X207985Y123333D01*
X215982Y129997D02*
Y122000D01*
X219981D01*
X221314Y123333D01*
Y128665D01*
X219981Y129997D01*
X215982D01*
D96*
X550710Y176930D02*
X553010Y174630D01*
Y165730D02*
Y174630D01*
X552460Y165180D02*
X553960Y166680D01*
X550710Y163430D02*
X553010Y165730D01*
X541710Y163430D02*
X550710D01*
X541710Y176930D02*
X550710D01*
X521710Y163430D02*
Y176930D01*
Y163430D02*
X532710D01*
X521710Y176930D02*
X532710D01*
X553960Y166680D02*
Y173680D01*
X552220Y175420D02*
X553960Y173680D01*
X552220Y165440D02*
Y174920D01*
X588810Y176930D02*
X591110Y174630D01*
Y165730D02*
Y174630D01*
X590560Y165180D02*
X592060Y166680D01*
X588810Y163430D02*
X591110Y165730D01*
X579810Y163430D02*
X588810D01*
X579810Y176930D02*
X588810D01*
X559810Y163430D02*
Y176930D01*
Y163430D02*
X570810D01*
X559810Y176930D02*
X570810D01*
X592060Y166680D02*
Y173680D01*
X590320Y175420D02*
X592060Y173680D01*
X590320Y165440D02*
Y174920D01*
X626910Y176930D02*
X629210Y174630D01*
Y165730D02*
Y174630D01*
X628660Y165180D02*
X630160Y166680D01*
X626910Y163430D02*
X629210Y165730D01*
X617910Y163430D02*
X626910D01*
X617910Y176930D02*
X626910D01*
X597910Y163430D02*
Y176930D01*
Y163430D02*
X608910D01*
X597910Y176930D02*
X608910D01*
X630160Y166680D02*
Y173680D01*
X628420Y175420D02*
X630160Y173680D01*
X628420Y165440D02*
Y174920D01*
X799500Y188250D02*
X801800Y185950D01*
Y177050D02*
Y185950D01*
X801250Y176500D02*
X802750Y178000D01*
X799500Y174750D02*
X801800Y177050D01*
X790499Y174750D02*
X799500D01*
X790499Y188250D02*
X799500D01*
X770500Y174750D02*
Y188250D01*
Y174750D02*
X781500D01*
X770500Y188250D02*
X781500D01*
X802750Y178000D02*
Y185000D01*
X801010Y186740D02*
X802750Y185000D01*
X801010Y176760D02*
Y186240D01*
X877810Y252560D02*
Y262560D01*
X872560Y257560D02*
X883060D01*
X514120Y165440D02*
Y174920D01*
Y175420D02*
X515860Y173680D01*
Y166680D02*
Y173680D01*
X483610Y176930D02*
X494610D01*
X483610Y163430D02*
X494610D01*
X483610D02*
Y176930D01*
X503610D02*
X512610D01*
X503610Y163430D02*
X512610D01*
X514910Y165730D01*
X514360Y165180D02*
X515860Y166680D01*
X514910Y165730D02*
Y174630D01*
X512610Y176930D02*
X514910Y174630D01*
X476020Y165440D02*
Y174920D01*
Y175420D02*
X477760Y173680D01*
Y166680D02*
Y173680D01*
X445510Y176930D02*
X456510D01*
X445510Y163430D02*
X456510D01*
X445510D02*
Y176930D01*
X465510D02*
X474510D01*
X465510Y163430D02*
X474510D01*
X476810Y165730D01*
X476260Y165180D02*
X477760Y166680D01*
X476810Y165730D02*
Y174630D01*
X474510Y176930D02*
X476810Y174630D01*
X803499Y132500D02*
X834500D01*
X803499Y119500D02*
X834500D01*
X803499D02*
Y132500D01*
X834500Y119500D02*
Y132500D01*
X411069Y411730D02*
X421570D01*
X416320Y406730D02*
Y416730D01*
X350195Y374275D02*
X363195D01*
X350195Y343274D02*
X363195D01*
Y374275D01*
X350195Y343274D02*
Y374275D01*
X164315D02*
X177315D01*
X164315Y343274D02*
X177315D01*
Y374275D01*
X164315Y343274D02*
Y374275D01*
X225650Y411730D02*
X236150D01*
X230900Y406730D02*
Y416730D01*
X535155Y374275D02*
X548155D01*
X535155Y343274D02*
X548155D01*
Y374275D01*
X535155Y343274D02*
Y374275D01*
X596489Y411730D02*
X606990D01*
X601740Y406730D02*
Y416730D01*
X781909Y411730D02*
X792410D01*
X787160Y406730D02*
Y416730D01*
X721035Y374275D02*
X734035D01*
X721035Y343274D02*
X734035D01*
Y374275D01*
X721035Y343274D02*
Y374275D01*
X871175D02*
X884175D01*
X871175Y343274D02*
X884175D01*
Y374275D01*
X871175Y343274D02*
Y374275D01*
X688384Y333355D02*
Y338605D01*
X685759Y335980D02*
X691009D01*
X733215Y172550D02*
X735515Y170250D01*
Y161350D02*
Y170250D01*
X734965Y160800D02*
X736465Y162300D01*
X733215Y159050D02*
X735515Y161350D01*
X724215Y159050D02*
X733215D01*
X724215Y172550D02*
X733215D01*
X704215Y159050D02*
Y172550D01*
Y159050D02*
X715215D01*
X704215Y172550D02*
X715215D01*
X736465Y162300D02*
Y169300D01*
X734725Y171040D02*
X736465Y169300D01*
X734725Y161060D02*
Y170540D01*
X733215Y186550D02*
X735515Y184250D01*
Y175350D02*
Y184250D01*
X734965Y174800D02*
X736465Y176300D01*
X733215Y173050D02*
X735515Y175350D01*
X724215Y173050D02*
X733215D01*
X724215Y186550D02*
X733215D01*
X704215Y173050D02*
Y186550D01*
Y173050D02*
X715215D01*
X704215Y186550D02*
X715215D01*
X736465Y176300D02*
Y183300D01*
X734725Y185040D02*
X736465Y183300D01*
X734725Y175060D02*
Y184540D01*
X733215Y200550D02*
X735515Y198250D01*
Y189350D02*
Y198250D01*
X734965Y188800D02*
X736465Y190300D01*
X733215Y187050D02*
X735515Y189350D01*
X724215Y187050D02*
X733215D01*
X724215Y200550D02*
X733215D01*
X704215Y187050D02*
Y200550D01*
Y187050D02*
X715215D01*
X704215Y200550D02*
X715215D01*
X736465Y190300D02*
Y197300D01*
X734725Y199040D02*
X736465Y197300D01*
X734725Y189060D02*
Y198540D01*
X198700Y308550D02*
X201000Y306250D01*
X198700Y308550D02*
Y317450D01*
X197750Y316500D02*
X199250Y318000D01*
X198700Y317450D02*
X201000Y319750D01*
X210000D01*
X201000Y306250D02*
X210000D01*
X230000D02*
Y319750D01*
X219000D02*
X230000D01*
X219000Y306250D02*
X230000D01*
X197750Y309500D02*
Y316500D01*
Y309500D02*
X199490Y307760D01*
X199490Y308260D02*
Y317740D01*
X895404Y346498D02*
X907596D01*
X908250Y347152D01*
Y354500D01*
X894750Y347152D02*
Y354500D01*
Y347152D02*
X895404Y346498D01*
X894750Y369848D02*
X895404Y370502D01*
X894750Y362500D02*
Y369848D01*
X908250Y362500D02*
Y369848D01*
X907596Y370502D02*
X908250Y369848D01*
X895404Y370502D02*
X907596D01*
X169002Y85904D02*
Y98096D01*
X168348Y98750D02*
X169002Y98096D01*
X161000Y98750D02*
X168348D01*
X161000Y85250D02*
X168348D01*
X169002Y85904D01*
X144998D02*
X145652Y85250D01*
X153000D01*
X145652Y98750D02*
X153000D01*
X144998Y98096D02*
X145652Y98750D01*
X144998Y85904D02*
Y98096D01*
X124000Y102000D02*
X132000D01*
Y82000D02*
Y102000D01*
X124000Y82000D02*
X132000D01*
X124000D02*
Y102000D01*
X722000Y121000D02*
Y127000D01*
X716000Y121000D02*
X722000D01*
D97*
X679958Y375158D02*
X688094Y367022D01*
X674878Y375158D02*
X679958D01*
X674878Y320802D02*
X679958D01*
X688094Y328938D01*
D98*
X728798Y139976D02*
X728774Y140000D01*
X728750Y139976D01*
X728774Y139952D01*
X728798Y139976D01*
D99*
X159004Y6101D02*
D03*
X144780D02*
D03*
X340614D02*
D03*
X326390D02*
D03*
D100*
X622131Y2953D02*
D03*
X488311Y2723D02*
D03*
X558311D02*
D03*
X914991D02*
D03*
X814990D02*
D03*
X714991D02*
D03*
D101*
X607780Y1555D02*
D03*
D102*
X623334Y22079D02*
D03*
X489514Y21849D02*
D03*
X559514D02*
D03*
X916194D02*
D03*
X816194D02*
D03*
X716194D02*
D03*
D103*
X608415Y23299D02*
D03*
X474595Y23069D02*
D03*
X544595D02*
D03*
X901275D02*
D03*
X801274D02*
D03*
X701275D02*
D03*
D104*
X605240Y4223D02*
D03*
X471420Y3993D02*
D03*
X541420D02*
D03*
X898100D02*
D03*
X798100D02*
D03*
X698100D02*
D03*
D105*
X624925Y4223D02*
D03*
X491105Y3993D02*
D03*
X561105D02*
D03*
X917785D02*
D03*
X817785D02*
D03*
X717785D02*
D03*
D106*
X624290Y20733D02*
D03*
X490470Y20503D02*
D03*
X560470D02*
D03*
X917150D02*
D03*
X817150D02*
D03*
X717150D02*
D03*
D107*
X606510Y20594D02*
D03*
X472690Y20364D02*
D03*
X542690D02*
D03*
X899370D02*
D03*
X799370D02*
D03*
X699370D02*
D03*
D108*
X616035Y23795D02*
D03*
X482215Y23565D02*
D03*
X552215D02*
D03*
X908895D02*
D03*
X808895D02*
D03*
D109*
X616035Y1159D02*
D03*
D110*
X628105Y12615D02*
D03*
D111*
X603875D02*
D03*
D112*
X467365Y12500D02*
D03*
X537365D02*
D03*
D113*
X497025D02*
D03*
D114*
X482215Y1044D02*
D03*
X552215D02*
D03*
X908895D02*
D03*
X808895D02*
D03*
X708895D02*
D03*
D115*
X543960Y1440D02*
D03*
X900640D02*
D03*
X800639D02*
D03*
X700640D02*
D03*
X473960D02*
D03*
D116*
X567520Y12500D02*
D03*
D117*
X890480D02*
D03*
X790480D02*
D03*
D118*
X926710Y12950D02*
D03*
D119*
X826167Y12500D02*
D03*
D120*
X690480Y13000D02*
D03*
D121*
X726167D02*
D03*
D122*
X708895Y24065D02*
D03*
D123*
X605750Y313520D02*
D03*
X605830Y268140D02*
D03*
D124*
X641445Y291615D02*
D03*
M02*
